<svg width="739" height="1600" viewBox="0 0 739 1600" fill="none" xmlns="http://www.w3.org/2000/svg">
<rect width="739" height="1600" fill="black"/>
<g filter="url(#filter0_f_1408_740)">
<path d="M479 696H561V758H479V696Z" fill="#313131"/>
<path d="M479 843H561V905H479V843Z" fill="#313131"/>
</g>
<path d="M196.3 792.9C170.191 792.9 149 771.71 149 745.6V698.3C149 672.095 170.191 650.999 196.3 650.999H290.901V698.3H256.601C249.421 698.3 243.601 704.12 243.601 711.3V721.95V732.6C243.601 739.78 249.421 745.6 256.601 745.6H290.901V792.9H196.3Z" fill="#F1F1F1" fill-opacity="0.01"/>
<path d="M346.31 792.9C320.2 792.9 299.009 771.71 299.009 745.6V698.3C299.009 672.095 320.2 650.999 346.31 650.999H393.61C419.814 650.999 440.91 672.19 440.91 698.3V745.6C440.91 771.71 419.72 792.9 393.61 792.9H346.31Z" fill="#F1F1F1" fill-opacity="0.01"/>
<path d="M449.019 792.9V650.999H543.62C569.824 650.999 590.92 672.19 590.92 698.3C590.92 724.41 569.729 745.6 543.62 745.6H590.92V792.9H543.62C517.51 792.9 496.319 771.71 496.319 745.6V792.9H449.019Z" fill="#F1F1F1" fill-opacity="0.01"/>
<path d="M196.3 948.996V907.696C196.3 904.382 193.614 901.696 190.3 901.696H149V807.095H290.901V901.696H249.601C246.287 901.696 243.601 904.382 243.601 907.696V948.996H196.3Z" fill="#F1F1F1" fill-opacity="0.01"/>
<path d="M346.31 948.996C320.2 948.996 299.009 927.806 299.009 901.696V807.095H440.91C440.91 833.205 419.72 854.395 393.61 854.395H440.91C440.91 880.505 419.72 901.696 393.61 901.696H440.91V948.996H346.31Z" fill="#F1F1F1" fill-opacity="0.01"/>
<path d="M449.019 948.996V901.696C449.019 888.641 459.614 878.046 472.669 878.046C459.614 878.046 449.019 867.45 449.019 854.395V807.095H496.319C509.374 807.095 519.97 817.69 519.97 830.745C519.97 817.69 530.565 807.095 543.62 807.095H590.92V854.395C590.92 867.45 580.325 878.046 567.27 878.046C580.325 878.046 590.92 888.641 590.92 901.696V948.996H543.62C530.565 948.996 519.97 938.401 519.97 925.346C519.97 938.401 509.374 948.996 496.319 948.996H449.019Z" fill="#F1F1F1" fill-opacity="0.01"/>
<path d="M337.89 842.992V842.136L338.799 842.221C339.289 842.263 340.169 842.347 340.746 842.389C341.698 842.473 341.785 842.501 341.785 842.796C341.785 843.077 341.684 843.119 340.905 843.203C340.429 843.259 339.664 843.259 339.232 843.203L338.424 843.105L338.496 843.484C338.554 843.792 338.525 843.848 338.237 843.848C337.905 843.848 337.89 843.792 337.89 842.992Z" fill="#F1F1F1"/>
<path d="M331.746 842.459C331.602 842.094 331.4 841.996 329.727 841.463C326.655 840.467 324.824 839.358 326.266 839.358C326.54 839.358 326.799 839.414 326.843 839.484C326.886 839.554 327.131 839.639 327.391 839.667C327.924 839.737 331.371 840.705 331.66 840.874C331.905 841 332.266 841.954 332.266 842.487C332.266 842.992 331.934 842.978 331.746 842.459Z" fill="#F1F1F1"/>
<path d="M406.946 836.622C406.917 836.608 406.023 836.551 404.956 836.509C401.509 836.355 395.725 835.569 391.211 834.643C390.273 834.447 389.451 834.334 389.379 834.376C389.293 834.433 389.235 834.292 389.235 834.068C389.235 833.759 389.394 833.534 389.913 833.113C390.288 832.805 390.764 832.468 390.966 832.356C391.759 831.935 393.533 831.107 394.168 830.854C394.557 830.714 394.86 830.546 394.86 830.489C394.86 830.419 395.076 830.377 395.336 830.377C395.595 830.377 396.057 830.251 396.374 830.096C396.691 829.942 397.038 829.816 397.167 829.816C397.283 829.816 397.73 829.69 398.148 829.535C399.042 829.198 399.763 829.17 399.763 829.451C399.763 829.549 399.619 829.69 399.446 829.746C399.057 829.872 399.807 829.998 402.215 830.237C403.052 830.307 404.061 830.405 404.451 830.447C405.763 830.574 411.633 830.531 413.465 830.377C417.301 830.04 421.066 829.283 424.657 828.09C427.094 827.276 427.498 827.079 427.383 826.715C427.311 826.504 427.354 826.448 427.628 826.448C428.162 826.448 429.359 828.553 429.82 830.307C430.238 831.879 430.339 833.282 429.993 832.833C429.806 832.58 429.777 832.58 429.041 832.945C428.638 833.156 428.176 833.324 428.046 833.324C427.916 833.324 427.743 833.38 427.671 833.45C427.123 833.927 421.758 835.303 418.369 835.85C415.902 836.243 415.152 836.327 412.816 836.481C411.46 836.565 407.018 836.678 406.946 836.622Z" fill="#F1F1F1"/>
<path d="M382.024 833.773C382.024 833.717 382.125 833.52 382.254 833.338C382.442 833.085 382.456 832.987 382.312 832.903C381.851 832.622 377.25 832.3 376.37 832.468L375.966 832.552L376.615 832.889C377.956 833.577 376.961 833.703 375.447 833.029C374.899 832.791 374.192 832.468 373.875 832.328C373.558 832.187 372.909 831.977 372.433 831.865C371.957 831.752 371.207 831.556 370.774 831.444C369.216 831.009 366.534 831.219 364.067 831.949C363.274 832.173 362.394 832.426 362.12 832.482C361.846 832.552 361.125 832.805 360.534 833.043C359.351 833.52 358.082 833.745 358.082 833.478C358.082 833.394 358.313 833.212 358.587 833.085C358.861 832.945 360.75 832.005 362.798 830.995C364.846 829.984 367.111 828.918 367.817 828.637C368.539 828.342 369.404 827.992 369.764 827.851C370.125 827.697 370.875 827.444 371.423 827.29C371.986 827.136 372.635 826.939 372.865 826.869C373.615 826.644 376.514 826.308 377.668 826.308C379.586 826.308 383.552 826.841 386.639 827.5C387.23 827.627 387.836 827.739 387.98 827.739C388.139 827.725 388.225 827.837 388.225 828.076C388.225 828.342 388.153 828.413 387.865 828.413C387.663 828.413 387.504 828.497 387.49 828.595C387.49 828.679 387.1 829.086 386.61 829.465C386.134 829.858 385.225 830.742 384.576 831.43C383.927 832.131 383.322 832.777 383.221 832.875C383.12 832.973 383.033 833.156 383.033 833.268C383.033 833.38 382.976 833.464 382.889 833.464C382.817 833.464 382.745 833.563 382.745 833.675C382.745 833.801 382.615 833.885 382.384 833.885C382.182 833.885 382.024 833.843 382.024 833.773Z" fill="#F1F1F1"/>
<path d="M324.405 833.492C319.429 831.963 313.055 829.858 310.92 829.044C308.122 827.964 302.843 825.522 302.843 825.311C302.843 825.241 302.743 825.185 302.627 825.185C302.512 825.185 302.295 825.059 302.166 824.904C302.021 824.75 301.834 824.624 301.719 824.624C301.069 824.624 298.271 822.266 296.324 820.063C295.387 818.997 294.478 817.523 294.478 817.046C294.478 816.92 294.421 816.766 294.334 816.681C293.8 816.162 293.627 811.7 294.089 810.03C294.45 808.697 294.623 808.346 294.925 808.346C295.113 808.346 295.214 808.528 295.344 809.16C295.647 810.605 296.411 811.77 298.156 813.496C299.021 814.366 299.8 815.082 299.858 815.082C299.988 815.082 300.521 815.517 301.084 816.106C301.3 816.316 301.531 816.485 301.618 816.485C301.776 816.485 302.007 816.639 302.843 817.299C303.06 817.467 303.305 817.607 303.392 817.607C303.478 817.607 303.565 817.65 303.593 817.72C303.666 817.874 304.935 818.688 305.281 818.8C305.44 818.842 305.584 818.941 305.584 818.997C305.584 819.067 305.786 819.193 306.016 819.291C306.262 819.39 306.449 819.516 306.449 819.586C306.449 819.656 306.593 819.768 306.781 819.839C306.954 819.909 307.314 820.133 307.589 820.33C307.863 820.526 308.137 820.695 308.194 820.695C308.252 820.695 309.29 821.34 310.516 822.126C312.882 823.67 312.968 823.726 313.386 824.105C313.531 824.231 313.718 824.343 313.776 824.343C313.891 824.343 314.165 824.526 314.958 825.157C315.175 825.325 315.406 825.466 315.449 825.466C315.55 825.466 315.665 825.55 316.329 826.083C317.064 826.701 317.367 826.925 317.713 827.15C317.886 827.262 318.131 827.472 318.261 827.613C318.377 827.739 318.564 827.851 318.651 827.851C318.752 827.851 318.853 827.893 318.881 827.964C318.91 828.02 319.213 828.286 319.574 828.553C319.934 828.82 320.28 829.114 320.338 829.212C320.396 829.311 320.554 829.395 320.655 829.395C320.771 829.395 320.872 829.451 320.872 829.521C320.872 829.591 320.987 829.69 321.131 829.732C321.362 829.816 322.054 830.335 322.617 830.868C322.747 830.981 322.891 831.079 322.949 831.079C323.006 831.079 323.208 831.191 323.396 831.331C323.569 831.458 323.872 831.668 324.045 831.78C324.232 831.893 324.492 832.089 324.622 832.215C324.766 832.342 324.939 832.468 324.997 832.496C325.4 832.664 326.785 833.548 326.785 833.633C326.785 833.829 325.155 833.731 324.405 833.492ZM303.276 824.848C303.276 824.82 302.887 824.54 302.411 824.231C301.935 823.922 301.545 823.712 301.545 823.754C301.545 823.81 301.762 823.978 302.021 824.147C302.267 824.301 302.642 824.54 302.843 824.666C303.247 824.918 303.276 824.932 303.276 824.848Z" fill="#F1F1F1"/>
<path d="M434.883 829.156C434.753 828.553 434.58 828.006 434.522 827.921C434.464 827.851 434.378 827.613 434.334 827.416C434.277 827.22 433.916 826.574 433.512 825.971C433.123 825.382 432.791 824.806 432.791 824.694C432.791 824.582 432.734 824.483 432.647 824.483C432.575 824.483 432.503 824.259 432.503 823.992C432.503 823.417 432.661 823.361 432.936 823.852C433.036 824.048 433.166 824.203 433.224 824.203C433.267 824.203 433.801 823.894 434.392 823.529C434.984 823.164 435.661 822.729 435.921 822.589C436.743 822.084 439.469 819.965 440.493 819.025C442.858 816.836 444.603 814.534 445.368 812.626C445.642 811.924 445.7 811.531 445.685 810.311C445.685 808.795 445.613 808.542 444.791 806.971C444.445 806.325 442.902 804.697 442.152 804.206C441.805 803.968 441.373 803.659 441.2 803.505C441.012 803.35 440.089 802.789 439.123 802.256C437.637 801.428 437.32 801.316 437.104 801.456C436.858 801.596 436.83 801.568 436.83 801.245C436.83 801.021 437.06 800.614 437.479 800.165C437.839 799.758 438.128 799.323 438.128 799.197C438.128 799.056 438.229 798.944 438.344 798.944C438.459 798.944 438.56 798.818 438.56 798.663C438.56 798.509 438.661 798.383 438.777 798.383C438.892 798.383 438.993 798.271 438.993 798.116C438.993 797.976 439.108 797.822 439.267 797.779C439.411 797.751 439.786 797.33 440.089 796.867C440.493 796.236 440.738 795.997 440.969 795.997C441.257 795.997 441.272 796.039 441.156 796.362C441.07 796.559 441.07 796.685 441.128 796.643C441.286 796.545 443.031 797.372 443.031 797.527C443.031 797.597 443.176 797.681 443.363 797.737C443.983 797.878 446.579 799.898 448.022 801.358C449.406 802.761 450.661 804.515 450.949 805.497C451.021 805.708 451.18 806.115 451.31 806.395C451.425 806.676 451.57 807.097 451.598 807.308C451.642 807.532 451.743 808.051 451.829 808.472C452.536 812.065 451.021 816.499 447.82 820.26C445.238 823.277 441.488 826.378 437.522 828.777C436.498 829.381 435.676 829.97 435.676 830.068C435.676 830.153 435.546 830.237 435.402 830.237C435.171 830.237 435.084 830.04 434.883 829.156Z" fill="#F1F1F1"/>
<path d="M289.286 806.227C289.286 805.161 290.036 803.364 291.262 801.54C292.416 799.8 295.099 797.288 297.32 795.843C298.546 795.057 298.589 795.043 298.632 795.366C298.69 795.843 298.618 795.941 297.204 797.204C294.478 799.618 291.911 802.761 290.584 805.273C290.036 806.311 289.777 806.662 289.575 806.662C289.344 806.662 289.286 806.564 289.286 806.227Z" fill="#F1F1F1"/>
<path d="M430.469 799.365C430.743 799.141 430.945 798.93 430.902 798.902C430.873 798.874 430.556 798.776 430.195 798.677C429.835 798.593 429.186 798.425 428.753 798.299C426.633 797.737 420.994 796.573 420.316 796.559C420.056 796.559 420.027 796.629 420.071 797.05C420.128 797.471 420.085 797.541 419.825 797.541C419.566 797.541 419.522 797.457 419.522 796.951C419.522 796.152 419.032 793.528 418.657 792.208C418.268 790.889 418.123 789.683 418.354 789.683C418.441 789.683 418.513 789.781 418.513 789.893C418.513 790.132 418.498 790.132 421.47 790.609C422.724 790.805 424.195 791.072 424.715 791.184C425.695 791.395 427.772 791.844 428.897 792.068C429.719 792.251 430.613 792.503 433.21 793.289C435.185 793.892 435.301 793.906 435.488 793.668C435.661 793.443 435.676 793.457 435.676 793.85C435.676 794.384 435.416 794.875 434.825 795.506C434.58 795.773 434.378 796.053 434.378 796.124C434.378 796.194 433.859 796.783 433.238 797.415C432.604 798.06 431.926 798.762 431.724 798.986C431.522 799.197 431.291 799.365 431.205 799.365C431.133 799.365 431.061 799.463 431.061 799.576C431.061 799.73 430.902 799.786 430.527 799.786L429.979 799.772L430.469 799.365Z" fill="#F1F1F1"/>
<path d="M303.276 798.776C303.276 798.481 303.363 798.341 303.565 798.285C303.723 798.242 303.853 798.158 303.853 798.102C303.853 798.004 306.276 796.306 309.189 794.384C310.098 793.78 311.353 792.938 311.973 792.531C313.314 791.647 313.92 791.549 314.252 792.18C314.367 792.391 314.483 792.587 314.526 792.629C314.886 792.938 315.247 793.668 315.247 794.061C315.233 794.496 315.233 794.51 315.031 794.257C314.814 793.991 314.8 793.991 313.992 794.341C313.531 794.538 312.665 794.903 312.074 795.155C310.127 795.955 308.05 796.895 305.641 798.06L303.276 799.211V798.776Z" fill="#F1F1F1"/>
<path d="M413.537 795.801C413.436 795.66 412.989 795.562 412.095 795.506C411.388 795.464 410.566 795.394 410.292 795.366C410.018 795.324 408.879 795.24 407.768 795.155C406.657 795.071 405.432 794.987 405.028 794.945C404.638 794.917 403.86 794.847 403.297 794.804C398.134 794.384 396.965 794.215 395.278 793.682C394.038 793.275 392.812 792.335 392.192 791.324C391.658 790.412 391.47 788.967 391.759 787.774C391.961 786.89 392.062 786.609 392.595 785.473C392.927 784.743 394.24 782.54 395.22 781.095C397.081 778.316 397.557 777.558 398.523 775.748C399.432 774.064 399.475 773.938 399.201 773.868C399.028 773.826 398.898 773.699 398.898 773.601C398.898 773.433 399.605 773.405 403.009 773.405H407.119V773.896C407.119 774.457 406.96 774.527 406.643 774.078C406.427 773.756 406.427 773.756 406.138 774.387C405.23 776.31 404.884 777.011 403.96 778.709C402.936 780.561 402.417 781.417 400.384 784.448C399.042 786.469 398.163 787.999 398.249 788.139C398.364 788.307 400.614 788.532 409.355 789.191C409.917 789.234 410.638 789.304 410.984 789.346C411.547 789.402 411.604 789.388 411.532 789.149C411.46 788.925 411.503 788.883 411.763 788.939C411.994 788.981 412.181 789.22 412.412 789.725C413.22 791.563 413.898 794.145 413.898 795.366C413.898 796.011 413.782 796.152 413.537 795.801Z" fill="#F1F1F1"/>
<path d="M320.439 792.279C320.439 792.166 320.295 791.928 320.122 791.731C319.646 791.24 319.429 790.974 319.429 790.875C319.429 790.833 319.372 790.721 319.285 790.623C318.607 789.823 318.42 789.556 318.42 789.416C318.42 789.332 318.362 789.262 318.276 789.262C318.204 789.262 318.131 789.009 318.131 788.7C318.131 788.392 318.189 788.139 318.261 788.139C318.55 788.139 321.16 785.557 322.429 784.013C323.612 782.568 325.949 779.06 326.785 777.474C327.102 776.871 329.107 774.233 329.799 773.503C330.29 772.984 331.891 771.693 332.482 771.342C332.641 771.244 333.65 770.725 334.717 770.191C336.592 769.265 337.616 768.9 343.732 767.006C346.732 766.08 350.092 764.747 351.347 763.989C353.005 762.979 353.698 762.53 354.101 762.207C354.462 761.926 354.635 761.884 355.111 761.954C355.443 762.01 356.092 762.095 356.568 762.151C357.231 762.221 357.448 762.305 357.476 762.501C357.505 762.628 357.433 762.74 357.332 762.74C357.217 762.74 356.51 763.217 355.76 763.792C352.587 766.276 349.558 768.072 344.121 770.739C337.948 773.77 337.429 774.05 335.943 775.131C333.16 777.151 332.525 777.965 329.655 783.087C327.521 786.904 325.501 788.925 321.953 790.791C321.319 791.128 320.771 791.423 320.742 791.451C320.713 791.479 320.828 791.717 320.987 791.998L321.29 792.489H320.872C320.583 792.489 320.439 792.419 320.439 792.279Z" fill="#F1F1F1"/>
<path d="M401.206 768.086C401.206 767.848 401.292 767.792 401.696 767.792C402.186 767.792 402.201 767.778 402.489 766.852C403.903 762.333 403.932 757.309 402.561 753.942C401.783 752.019 399.879 749.746 398.35 748.89C397.975 748.693 397.571 748.441 397.456 748.343C397.11 748.062 394.759 747.164 393.778 746.953C391.889 746.532 389.668 746.406 387.85 746.589C383.206 747.08 378.952 748.329 375.202 750.293C372.361 751.795 371.207 752.426 370.125 753.114C368.712 754.012 368.178 754.349 367.861 754.531C367.327 754.826 364.731 756.776 364.717 756.888C364.717 756.945 364.89 756.987 365.091 756.987C365.423 756.987 365.438 757.001 365.236 757.211C365.048 757.394 364.803 757.422 363.952 757.352C363.39 757.309 362.539 757.267 362.092 757.281H361.255V756.72C361.255 756.187 361.342 756.089 363.967 753.647C365.452 752.258 366.865 750.967 367.096 750.798C367.341 750.616 367.947 750.111 368.466 749.676C369.707 748.637 374.25 745.34 374.452 745.34C374.481 745.34 374.899 745.101 375.36 744.806C376.341 744.203 378.562 743.108 379.716 742.673C380.149 742.505 380.711 742.28 380.942 742.182C381.187 742.084 381.634 741.93 381.952 741.86C382.269 741.775 382.99 741.579 383.552 741.425C385.759 740.835 387.389 740.667 390.158 740.751C391.6 740.793 392.927 740.877 393.129 740.961C393.331 741.032 393.778 741.172 394.139 741.27C396.389 741.86 398.581 743.01 400.254 744.526C401.177 745.354 402.518 746.995 403.138 748.076C403.369 748.469 403.73 749.1 403.946 749.479C404.783 750.939 405.691 753.563 406.167 755.864C406.73 758.614 407.234 764.957 407.061 766.992L406.946 768.213H404.97C403.874 768.213 402.576 768.255 402.086 768.297C401.249 768.395 401.206 768.381 401.206 768.086Z" fill="#F1F1F1"/>
<path d="M352.602 865.866C351.289 865.768 348.765 865.15 347.727 864.687C347.308 864.491 346.933 864.336 346.89 864.336C346.674 864.336 345.159 863.578 344.554 863.157C344.164 862.905 343.631 862.582 343.371 862.442C343.111 862.301 342.693 862.007 342.448 861.754C342.203 861.516 341.684 861.067 341.309 860.758C340.501 860.112 338.525 857.839 337.674 856.576C334.963 852.563 333.463 849.083 332.035 843.498C331.617 841.856 331.501 841.533 331.227 841.295C331.069 841.154 330.982 840.986 331.04 840.902C331.213 840.635 331.934 840.733 334.573 841.393C335.006 841.505 335.915 841.66 336.592 841.744C338.107 841.926 338.756 842.123 338.756 842.389C338.756 842.502 338.655 842.586 338.539 842.586C338.179 842.586 338.352 843.4 339.362 846.36C340.054 848.395 341.337 851.033 342.448 852.633C342.881 853.25 343.227 853.798 343.227 853.84C343.227 854.205 346.443 857.25 347.366 857.755C347.828 858.008 348.289 858.302 348.39 858.4C348.491 858.499 348.65 858.583 348.722 858.583C348.808 858.583 349.227 858.737 349.645 858.934C352.501 860.197 356.539 860.225 359.741 858.976C363.75 857.418 365.827 855.959 370.053 851.735L373.024 848.788L375.404 844.719L377.798 840.649L377.495 840.355L377.206 840.06H377.711C378.432 840.06 383.322 843.203 383.322 843.68C383.322 843.849 383.235 843.989 383.149 843.989C383.048 843.989 382.759 844.354 382.514 844.803C382.269 845.238 381.144 847.146 380.033 849.041L378 852.479L374.812 855.678C370.067 860.407 367.414 862.358 363.418 864.028C363.058 864.182 362.51 864.406 362.193 864.547C361.63 864.785 359.986 865.262 358.659 865.571C357.736 865.796 355.198 866.048 354.375 865.992C354.001 865.978 353.193 865.922 352.602 865.866Z" fill="#F1F1F1"/>
<path d="M341.352 843.007C341.352 842.937 341.251 842.866 341.136 842.866C340.89 842.866 340.861 842.614 341.049 842.333C341.136 842.179 341.41 842.165 342.16 842.235C343.818 842.389 343.948 842.431 343.948 842.81C343.948 843.147 343.934 843.147 342.65 843.147C341.886 843.147 341.352 843.091 341.352 843.007Z" fill="#F1F1F1"/>
<path d="M345.967 842.6C345.967 842.403 346.054 842.305 346.256 842.305C346.414 842.305 346.544 842.235 346.544 842.151C346.544 842.038 346.804 842.01 347.337 842.052C347.929 842.109 348.131 842.067 348.131 841.926C348.131 841.8 348.332 841.744 348.78 841.744C349.328 841.744 349.429 841.786 349.429 842.01C349.429 842.165 349.313 842.319 349.183 842.361C348.837 842.445 348.03 842.6 347.655 842.656C347.481 842.67 347.034 842.74 346.659 842.796C346.01 842.894 345.967 842.88 345.967 842.6Z" fill="#F1F1F1"/>
<path d="M385.918 839.148C385.846 838.951 385.673 838.797 385.514 838.797C385.37 838.797 384.259 838.137 383.033 837.323C381.807 836.51 380.682 835.808 380.553 835.766C380.394 835.71 380.293 835.541 380.293 835.345C380.293 834.966 380.336 834.952 380.726 835.148C380.942 835.261 381.086 835.12 381.75 834.138C382.182 833.507 382.514 832.959 382.5 832.917C382.485 832.875 382.543 832.749 382.629 832.665C382.716 832.566 382.73 832.482 382.658 832.468C382.586 832.468 382.629 832.426 382.759 832.37C382.875 832.314 383.495 831.71 384.144 831.009C384.793 830.321 385.701 829.437 386.177 829.044C386.668 828.665 387.057 828.258 387.057 828.174C387.072 828.076 387.201 827.992 387.374 827.992C387.533 827.992 387.865 827.851 388.11 827.697C389.307 826.855 392.192 825.69 396.288 824.357C398.667 823.572 400.961 822.786 401.379 822.603C401.797 822.421 402.475 822.126 402.864 821.958C405.287 820.905 407.927 818.913 412.095 814.941C413.768 813.356 415.571 811.672 416.104 811.181C416.638 810.704 417.042 810.241 416.999 810.17C416.955 810.086 417.056 810.03 417.244 810.03C417.518 810.03 417.691 810.227 418.123 811.054C418.412 811.602 418.946 812.514 419.306 813.047C419.652 813.594 420.085 814.296 420.272 814.633C420.446 814.956 420.647 815.222 420.705 815.222C420.763 815.222 420.821 815.447 420.821 815.713C420.821 816.261 420.72 816.317 420.46 815.966C420.229 815.671 420.272 815.643 415.773 819.895C413.191 822.337 410.479 824.624 409.412 825.255C406.196 827.15 405.879 827.318 403.773 828.188C402.388 828.764 397.903 830.237 397.557 830.237C397.47 830.237 397.124 830.377 396.764 830.532C396.417 830.7 395.956 830.826 395.754 830.826C395.538 830.826 395.336 830.868 395.292 830.925C395.249 830.967 394.571 831.289 393.778 831.64C392.985 831.977 392.091 832.398 391.802 832.58C391.499 832.763 391.196 832.903 391.124 832.903C391.052 832.903 390.346 833.521 389.567 834.278C388.572 835.233 387.836 836.117 387.144 837.169C386.105 838.755 386.12 838.699 386.826 839.092C387.23 839.316 387.115 839.499 386.567 839.499C386.149 839.499 386.033 839.428 385.918 839.148Z" fill="#F1F1F1"/>
<path d="M336.29 836.692C336.16 836.622 335.092 836.341 333.91 836.061C332.727 835.794 331.343 835.443 330.823 835.289C330.304 835.134 329.713 835.008 329.496 835.008C329.165 835.008 329.093 834.952 329.093 834.657C329.093 834.349 329.121 834.321 329.468 834.447C329.67 834.531 329.857 834.587 329.9 834.587C330.073 834.587 329.569 832.552 328.847 830.307C328.025 827.767 326.497 824.75 324.679 822.028C324.376 821.565 324.045 821.06 323.958 820.905C323.872 820.751 323.453 820.063 323.035 819.362C321.247 816.373 319.992 812.893 319.66 809.96C319.603 809.497 319.53 808.964 319.502 808.767C319.473 808.571 319.415 807.448 319.357 806.269C319.17 801.821 318.838 800.418 317.353 797.766C316.689 796.587 314.295 793.163 314.064 793.079C314.007 793.051 313.949 792.952 313.949 792.868C313.949 792.77 313.848 792.574 313.733 792.433C313.559 792.209 313.487 792.195 313.3 792.349C313.112 792.503 313.084 792.461 313.084 792.026C313.084 791.591 313.17 791.479 313.761 791.1C314.151 790.876 315.045 790.258 315.752 789.753C316.473 789.248 317.151 788.799 317.266 788.743C317.381 788.701 317.54 788.574 317.598 788.462C317.656 788.364 317.843 788.28 317.987 788.28C318.146 788.28 318.276 788.223 318.276 788.139C318.276 788.069 318.521 787.999 318.824 787.999L319.357 788.013L318.925 788.378C318.651 788.616 318.564 788.771 318.68 788.813C318.766 788.841 318.853 788.925 318.853 789.009C318.853 789.136 319.054 789.402 319.718 790.202C319.804 790.3 319.862 790.413 319.862 790.455C319.862 790.497 319.92 790.609 320.006 790.707C320.655 791.479 320.872 791.774 320.872 791.872C320.872 791.928 320.987 792.11 321.131 792.265C321.477 792.644 322.675 794.552 323.266 795.647C324.001 797.022 324.723 799.057 325.04 800.698C325.4 802.523 325.429 802.831 325.559 805.68C325.617 806.873 325.674 808.051 325.703 808.276C325.992 810.648 326.497 812.556 327.275 814.156C327.924 815.489 329.28 817.832 329.958 818.8C330.174 819.109 330.492 819.586 330.65 819.853C330.795 820.12 331.299 820.961 331.761 821.733C332.208 822.491 332.684 823.347 332.799 823.628C332.929 823.908 333.232 824.582 333.492 825.115C334.415 827.094 335.41 830.209 336.073 833.254C336.693 836.089 336.737 836.243 337.112 836.327C337.645 836.467 337.559 836.832 336.996 836.832C336.737 836.832 336.419 836.762 336.29 836.692Z" fill="#F1F1F1"/>
<path d="M433.512 825.817C433.512 825.213 433.685 825.199 434.075 825.733C434.464 826.266 434.464 826.308 433.945 826.308C433.541 826.308 433.512 826.266 433.512 825.817Z" fill="#F1F1F1"/>
<path d="M431.378 822.828C431.162 822.687 430.96 821.256 431.147 821.256C431.291 821.256 432.214 822.645 432.214 822.842C432.214 822.982 431.609 822.968 431.378 822.828Z" fill="#F1F1F1"/>
<path d="M297.464 821.579C297.32 821.453 297.334 820.555 297.478 820.555C297.536 820.555 297.853 820.807 298.156 821.116L298.719 821.677H298.142C297.81 821.677 297.507 821.635 297.464 821.579Z" fill="#F1F1F1"/>
<path d="M424.441 811.826C422.508 808.851 421.542 807.013 421.542 806.325C421.542 805.764 421.628 805.694 421.902 806.059C422.061 806.269 422.176 806.213 423.07 805.54C423.618 805.119 424.094 804.74 424.138 804.698C424.181 804.656 424.729 804.207 425.364 803.715C426.878 802.523 430.57 799.323 431.162 798.692C431.421 798.425 431.594 798.144 431.551 798.088C431.508 798.018 431.565 797.962 431.695 797.962C431.984 797.962 433.974 795.843 433.887 795.619C433.844 795.52 433.873 795.436 433.96 795.436C434.147 795.436 434.883 794.594 434.883 794.398C434.883 794.314 434.984 794.159 435.113 794.075C435.431 793.851 436.844 791.535 437.32 790.469C438.2 788.546 438.459 785.347 437.854 784C437.782 783.845 437.608 783.438 437.479 783.088C436.988 781.811 435.777 780.393 434.089 779.158C433.21 778.499 430.844 777.25 429.546 776.731C425.984 775.327 420.849 774.345 415.484 774.036C414.648 773.994 413.782 773.924 413.566 773.882C413.234 773.812 413.148 773.854 413.076 774.093C412.989 774.429 412.802 774.471 412.542 774.205C412.311 773.98 412.167 770.921 412.282 768.592C412.34 767.118 412.383 766.95 412.614 766.95C412.816 766.95 412.888 767.048 412.888 767.371C412.888 767.61 412.931 767.792 413.003 767.792C418.08 768.059 422.58 768.592 425.868 769.322C429.359 770.093 431.234 770.739 434.161 772.17C435.589 772.872 436.902 773.63 437.493 774.107C437.738 774.303 438.084 774.556 438.272 774.668C438.589 774.864 440.767 776.955 441.445 777.713C441.589 777.881 441.82 778.232 441.964 778.485C442.094 778.737 442.353 779.158 442.555 779.411C442.743 779.664 443.06 780.295 443.248 780.814C443.421 781.333 443.68 781.979 443.796 782.246C443.911 782.512 444.055 783.088 444.099 783.508C444.156 783.929 444.257 784.603 444.344 785.01C444.56 786.119 444.373 788.42 443.897 790.174C443.392 792.11 442.757 793.57 441.503 795.675C440.392 797.583 439.902 798.243 439.628 798.243C439.512 798.243 439.469 798.327 439.512 798.453C439.57 798.579 439.483 798.706 439.281 798.776C439.108 798.832 438.979 798.93 438.979 798.986C439.022 799.281 438.979 799.365 438.777 799.365C438.661 799.365 438.604 799.45 438.647 799.548C438.748 799.814 435.185 803.435 432.791 805.498C430.859 807.153 426.734 810.479 425.609 811.293C425.292 811.518 425.147 811.728 425.191 811.882C425.292 812.261 424.686 812.205 424.441 811.826Z" fill="#F1F1F1"/>
<path d="M305.151 797.415C305.151 797.078 305.209 796.98 305.425 796.98C305.613 796.98 305.728 796.868 305.757 796.671C305.786 796.404 305.901 796.334 306.435 796.306C307.257 796.25 307.185 796.418 306.045 797.218L305.151 797.836V797.415Z" fill="#F1F1F1"/>
<path d="M309.781 787.325C309.925 787.101 309.824 786.876 309.161 785.88C308.728 785.235 307.92 783.789 307.358 782.667C306.377 780.702 305.007 777.517 305.007 777.152C305.007 777.068 304.848 776.506 304.646 775.903C304.459 775.313 304.257 774.528 304.214 774.149C304.156 773.784 304.084 773.321 304.055 773.124C303.824 772.03 303.824 769.322 304.069 767.862C305.079 761.477 308.598 757.478 315.982 754.349C316.689 754.054 320.381 753.128 321.377 753.002C327.737 752.188 333.102 752.426 340.991 753.844C343.876 754.363 344.727 754.531 349.342 755.443C352.385 756.047 353.02 756.103 353.294 755.836C353.424 755.71 353.467 755.766 353.467 756.117C353.467 756.398 353.395 756.566 353.265 756.566C353.164 756.566 352.919 756.72 352.717 756.903C352.515 757.071 352.241 757.268 352.111 757.31C351.981 757.366 351.88 757.464 351.88 757.548C351.88 757.618 351.794 757.689 351.693 757.689C351.592 757.689 351.404 757.801 351.275 757.941C350.914 758.306 350.611 758.53 350.467 758.53C350.409 758.53 350.222 758.643 350.063 758.783C349.919 758.923 349.573 759.12 349.328 759.218C349.068 759.316 348.852 759.443 348.852 759.499C348.852 759.555 348.534 759.709 348.131 759.864C347.741 760.018 347.409 760.172 347.409 760.228C347.409 760.285 346.962 760.467 346.4 760.649C345.852 760.818 345.39 761.014 345.39 761.084C345.39 761.141 345.159 761.197 344.885 761.197C344.539 761.197 344.381 761.267 344.381 761.407C344.381 761.562 344.222 761.618 343.861 761.618C343.169 761.618 343.285 761.337 344.063 761.056C344.395 760.944 344.669 760.818 344.669 760.776C344.669 760.706 341.236 760.032 339.261 759.709C339.03 759.667 338.309 759.541 337.674 759.429C336.665 759.26 335.28 759.078 332.41 758.727C330.852 758.545 325.054 758.629 323.251 758.867C320.497 759.218 317.756 760.018 316.04 760.958C312.435 762.937 310.646 765.392 310.185 769.041C309.983 770.584 310.156 772.717 310.588 774.135C310.704 774.542 310.819 774.949 310.834 775.019C310.891 775.285 311.079 775.861 311.209 776.141C311.281 776.296 311.54 776.913 311.785 777.503C312.305 778.836 313.66 781.488 314.324 782.498C314.598 782.905 314.814 783.298 314.814 783.382C314.814 783.48 314.973 783.508 315.175 783.48C315.463 783.424 315.535 783.466 315.535 783.677C315.535 783.958 315.016 784.477 314.728 784.491C314.641 784.491 314.439 784.645 314.295 784.842C314.151 785.038 313.949 785.192 313.848 785.192C313.747 785.192 313.66 785.263 313.66 785.333C313.66 785.417 313.559 785.473 313.444 785.473C313.329 785.473 313.228 785.529 313.228 785.599C313.228 785.67 313.069 785.768 312.882 785.81C312.694 785.852 312.348 786.062 312.117 786.273C311.872 786.497 311.511 786.75 311.31 786.862C311.093 786.975 310.79 787.171 310.646 787.325C310.487 787.466 310.185 787.578 309.983 787.578C309.665 787.578 309.637 787.55 309.781 787.325Z" fill="#F1F1F1"/>
<path d="M406.686 774.036C406.686 773.868 405.98 773.84 401.927 773.826C393.908 773.812 391.932 773.489 387.36 771.398C386.61 771.062 384.721 769.967 383.177 768.957C381.634 767.946 379.976 766.922 379.5 766.655C379.024 766.403 378.432 766.052 378.187 765.898C377.928 765.729 377.192 765.392 376.529 765.126C375.865 764.873 375.259 764.621 375.173 764.564C374.87 764.34 371.639 763.596 370.053 763.386C368.466 763.175 367.067 763.105 361.904 762.951C358.991 762.867 355.645 762.614 355.255 762.46C355.097 762.403 354.851 762.403 354.722 762.488C354.505 762.6 354.476 762.544 354.476 762.123C354.476 761.744 354.577 761.576 354.895 761.351C355.125 761.183 355.356 761.056 355.414 761.056C355.472 761.056 355.645 760.902 355.803 760.706C355.962 760.509 356.178 760.355 356.294 760.355C356.409 760.355 356.496 760.299 356.496 760.228C356.496 760.172 356.972 759.723 357.548 759.246C358.111 758.755 359.092 757.899 359.697 757.324C360.721 756.369 360.851 756.285 361.414 756.285C361.904 756.285 361.991 756.327 361.861 756.454C361.572 756.734 361.659 756.776 362.51 756.804C362.971 756.818 363.736 756.861 364.212 756.903C364.688 756.931 365.986 757.001 367.096 757.057C369.101 757.141 372.764 757.576 373.586 757.829C373.832 757.899 374.668 758.124 375.461 758.32C376.947 758.699 378.274 759.218 380.509 760.299C382.485 761.253 385.341 762.965 385.341 763.175C385.341 763.245 385.427 763.302 385.543 763.302C385.658 763.302 385.846 763.386 385.947 763.484C386.134 763.652 386.754 764.059 388.009 764.817C388.413 765.056 388.802 765.322 388.889 765.392C388.975 765.463 389.365 765.659 389.754 765.827C390.144 765.982 390.72 766.248 391.038 766.403C392.278 767.02 394.528 767.539 396.807 767.708C397.86 767.792 400.268 767.82 404.206 767.806L406.542 767.792V767.231C406.542 766.754 406.585 766.669 406.845 766.669C407.148 766.669 407.162 766.711 407.076 767.834C407.018 768.466 406.975 770.163 406.975 771.623C406.975 773.279 406.917 774.247 406.831 774.247C406.758 774.247 406.686 774.149 406.686 774.036Z" fill="#F1F1F1"/>
<path d="M335.727 769.827C335.727 769.336 335.727 769.336 336.376 769.336C336.809 769.336 337.025 769.392 337.025 769.518C337.025 769.616 336.737 769.841 336.376 770.009L335.727 770.318V769.827Z" fill="#F1F1F1"/>
<path d="M414.907 856.66C413.09 856.478 410.119 855.931 407.768 855.341C404.581 854.555 404.552 854.541 402.936 853.952C402.259 853.714 401.292 853.363 400.773 853.18C400.254 852.998 399.489 852.717 399.057 852.549C398.292 852.254 392.451 849.405 391.615 848.914C391.384 848.774 390.446 848.255 389.552 847.764C388.658 847.273 387.591 846.669 387.173 846.417C386.769 846.164 386.192 845.841 385.903 845.687C385.629 845.532 384.894 845.097 384.288 844.705C383.682 844.312 383.12 843.989 383.048 843.989C382.976 843.989 382.889 843.933 382.86 843.863C382.802 843.722 378.476 840.916 376.832 839.962C374.971 838.867 371.942 837.436 371.135 837.239C370.745 837.155 370.298 837.015 370.154 836.945C369.678 836.706 367.587 836.79 366.303 837.085C365.034 837.38 361.385 838.558 360.173 839.063C359.351 839.4 356.467 840.453 355.342 840.804C352.876 841.603 348.996 842.501 348.996 842.291C348.996 842.066 348.592 842.151 348.505 842.389C348.433 842.586 348.275 842.614 347.698 842.544C347.308 842.501 346.977 842.515 346.948 842.6C346.919 842.684 344.078 843.133 343.4 843.147C343.371 843.147 343.385 843.091 343.429 843.021C343.544 842.852 342.736 842.684 342.376 842.796C342.217 842.838 341.958 842.81 341.785 842.726C341.597 842.628 341.496 842.628 341.496 842.726C341.496 842.936 340.14 842.894 338.9 842.656C338.309 842.53 337.068 842.319 336.16 842.179C335.251 842.038 334.242 841.856 333.924 841.772C332.814 841.477 332.049 841.323 331.544 841.267C331.256 841.224 330.218 840.958 329.237 840.677C328.242 840.383 327.189 840.144 326.9 840.158C326.598 840.158 326.381 840.102 326.396 840.032C326.41 839.948 326.251 839.877 326.049 839.849C325.833 839.821 325.473 839.709 325.256 839.597C325.025 839.484 324.261 839.218 323.54 839.021C320.252 838.067 311.439 835.162 308.973 834.208C306.06 833.086 300.969 830.672 299.353 829.662C298.805 829.325 298.098 828.89 297.781 828.693C296.959 828.216 295.459 827.024 293.974 825.676C293.079 824.862 291.103 822.435 290.339 821.242C289.488 819.881 288.464 817.453 288.334 816.499C288.291 816.148 288.205 815.657 288.132 815.419C288.075 815.18 288.017 814.254 288.003 813.37C287.916 808.374 289.993 803.8 294.507 798.986C295.243 798.215 296.339 797.134 296.93 796.615C297.522 796.096 298.098 795.548 298.199 795.408C298.3 795.268 298.82 794.861 299.353 794.496C299.887 794.145 300.478 793.71 300.68 793.528C301.243 793.051 303.348 791.605 306.593 789.472C308.223 788.406 309.752 787.339 309.997 787.101C310.257 786.862 310.632 786.568 310.862 786.455C311.079 786.343 311.439 786.076 311.685 785.852C311.915 785.641 312.261 785.431 312.449 785.389C312.636 785.347 312.795 785.248 312.795 785.178C312.795 785.108 312.896 785.052 313.011 785.052C313.127 785.052 313.228 784.996 313.228 784.912C313.228 784.842 313.314 784.771 313.415 784.771C313.516 784.771 313.718 784.617 313.862 784.421C314.007 784.224 314.18 784.07 314.252 784.07C314.511 784.07 315.651 783.2 316.415 782.428C318.146 780.674 319.329 779.046 321.593 775.299C322.588 773.644 324.146 771.525 325.299 770.234C328.458 766.711 332.742 764.494 341.208 761.996C343.284 761.379 344.583 760.916 344.64 760.748C344.669 760.691 344.756 760.663 344.828 760.719C344.9 760.762 344.958 760.734 344.958 760.663C344.958 760.607 345.405 760.397 345.967 760.228C346.53 760.046 346.977 759.864 346.977 759.807C346.977 759.751 347.294 759.597 347.698 759.443C348.102 759.288 348.419 759.134 348.419 759.078C348.419 759.022 348.635 758.895 348.895 758.797C349.14 758.699 349.486 758.502 349.63 758.362C349.789 758.222 349.977 758.109 350.034 758.109C350.179 758.109 350.481 757.885 350.842 757.506C350.972 757.38 351.159 757.267 351.246 757.267C351.347 757.267 351.448 757.169 351.505 757.057C351.549 756.945 351.65 756.847 351.736 756.847C351.924 756.847 352.544 756.243 352.486 756.103C352.472 756.033 352.573 756.019 352.717 756.061C353.02 756.159 354.952 754.503 359.423 750.293C361.111 748.708 363.231 746.799 364.14 746.055C365.784 744.708 370.212 741.411 370.63 741.228C370.745 741.172 371.336 740.821 371.928 740.428C373.024 739.727 376.399 738.043 377.841 737.482C378.274 737.313 378.923 737.047 379.283 736.906C380.25 736.527 382.759 735.854 384.476 735.517C385.774 735.264 390.302 734.9 390.533 735.026C390.576 735.04 391.023 735.11 391.543 735.152C393.893 735.377 396.259 735.952 398.105 736.78C398.667 737.018 399.345 737.327 399.619 737.439C400.715 737.903 403.066 739.558 404.278 740.695C405.547 741.902 407.206 743.908 407.869 745.073C408.071 745.41 408.359 745.915 408.518 746.182C409.859 748.497 411.287 752.089 411.518 753.745C411.561 754.012 411.691 754.573 411.792 755.008C412.369 757.253 412.816 761.954 412.816 765.547C412.802 767.904 412.773 771.819 412.758 772.83C412.744 773.251 412.802 773.629 412.874 773.672C412.931 773.714 413.032 774.331 413.076 775.019C413.162 776.24 413.523 778.485 413.667 778.709C413.71 778.779 413.768 778.976 413.811 779.172C413.898 779.607 414.518 781.179 414.878 781.895C418.398 788.7 419.667 792.461 420.027 797.12C420.085 797.78 420.143 798.467 420.171 798.664C420.2 798.86 420.258 799.267 420.301 799.576C420.345 799.884 420.417 800.488 420.46 800.909C420.647 802.509 421.729 805.918 422.58 807.574C423.258 808.893 424.022 810.114 425.71 812.654C427.44 815.25 428.854 817.425 430.556 820.133C431.017 820.863 431.508 821.635 431.666 821.86C431.854 822.126 431.883 822.238 431.753 822.238C431.637 822.238 431.652 822.295 431.811 822.379C432.027 822.505 433.224 824.231 433.224 824.413C433.224 824.47 433.411 824.778 433.657 825.101C433.887 825.438 434.032 825.747 433.988 825.803C433.931 825.845 433.974 825.887 434.06 825.887C434.219 825.887 434.522 826.434 434.969 827.501C435.041 827.655 435.229 828.315 435.387 828.974C435.791 830.56 435.748 830.405 436.181 831.921C436.397 832.651 436.584 833.38 436.628 833.535C436.657 833.689 436.815 834.419 436.974 835.148C437.32 836.664 437.363 837.043 437.479 839.007C437.666 842.473 436.498 846.697 434.551 849.602C433.902 850.57 431.868 852.521 430.758 853.264C429.835 853.868 427.513 855.075 427.253 855.075C427.166 855.075 426.907 855.173 426.662 855.299C426.2 855.538 422.926 856.38 421.83 856.548C421.109 856.646 415.7 856.745 414.907 856.66ZM422.263 850.247C425.162 849.56 426.777 848.788 428.421 847.315C429.993 845.911 431.104 843.063 431.277 840.06C431.32 839.274 431.075 836.987 430.859 836.201C430.743 835.738 430.613 835.205 430.585 835.008C430.498 834.545 430.065 833.043 429.907 832.693C429.849 832.538 429.618 831.724 429.416 830.868C429.085 829.563 428.897 829.114 428.147 827.922C427.671 827.15 426.763 825.704 426.128 824.694C425.493 823.698 424.498 822.112 423.907 821.186C423.316 820.26 422.71 819.32 422.58 819.095C421.931 818.043 420.244 815.587 420.244 815.713C420.244 815.797 420.085 815.545 419.883 815.152C419.681 814.773 419.234 814.015 418.873 813.468C418.066 812.247 416.667 809.567 416.148 808.276C415.931 807.729 415.7 807.167 415.628 807.013C415.513 806.774 415.311 806.059 414.979 804.838C414.951 804.726 414.835 804.263 414.705 803.814C414.518 803.112 414.402 802.452 414.114 800.277C414.042 799.814 413.782 797.527 413.696 796.629C413.624 795.913 413.249 793.963 413.032 793.163C412.484 791.156 411.965 789.949 409.6 785.192C408.287 782.568 407.451 780.07 407.177 777.966C407.133 777.657 407.076 777.306 407.032 777.194C406.989 777.082 406.917 776.548 406.888 776.001C406.845 775.468 406.773 774.794 406.715 774.528C406.672 774.261 406.629 771.763 406.614 768.985C406.614 764.564 406.528 762.305 406.326 760.495C405.98 757.436 405.749 756.131 405.302 754.405C404.999 753.254 404.004 750.742 403.513 749.9C403.297 749.521 402.936 748.89 402.706 748.497C400.787 745.157 397.499 742.674 393.706 741.691C393.345 741.593 392.898 741.467 392.711 741.383C392.509 741.312 391.384 741.214 390.172 741.172C387.85 741.088 386.134 741.27 383.985 741.846C383.423 742 382.702 742.196 382.384 742.281C382.067 742.351 381.62 742.505 381.375 742.603C381.144 742.702 380.581 742.926 380.149 743.095C378.995 743.53 376.774 744.624 375.793 745.242C375.332 745.522 374.913 745.761 374.884 745.761C374.683 745.761 370.24 748.988 368.625 750.307C367.428 751.29 363.101 755.219 362.135 756.201C361.861 756.482 361.544 756.706 361.428 756.706C361.327 756.706 360.736 757.169 360.13 757.745C359.524 758.32 358.544 759.176 357.981 759.667C357.404 760.144 356.928 760.593 356.928 760.649C356.928 760.719 356.842 760.776 356.726 760.776C356.611 760.776 356.395 760.93 356.236 761.126C356.077 761.323 355.89 761.477 355.832 761.477C355.63 761.491 354.981 762.01 354.981 762.151C354.981 762.389 354.174 762.951 351.779 764.41C350.525 765.168 347.15 766.501 344.164 767.427C343.212 767.722 341.164 768.381 339.621 768.872C338.078 769.378 336.665 769.771 336.491 769.771C336.304 769.771 336.16 769.841 336.16 769.939C336.16 770.037 335.496 770.444 334.689 770.851C333.867 771.244 333.073 771.665 332.915 771.749C332.309 772.128 330.722 773.405 330.232 773.924C329.54 774.654 327.535 777.292 327.218 777.895C326.381 779.481 324.045 782.989 322.862 784.435C321.333 786.287 319.3 788.251 318.506 788.616C318.218 788.743 317.987 788.911 317.987 788.967C317.987 789.037 317.872 789.121 317.742 789.178C317.598 789.22 316.906 789.669 316.184 790.174C315.478 790.679 314.583 791.282 314.208 791.521C313.848 791.746 313.516 792.026 313.473 792.124C313.43 792.223 312.925 792.63 312.334 793.008C311.757 793.387 310.761 794.047 310.127 794.468C307.43 796.278 306.651 796.755 306.492 796.727C306.391 796.713 306.262 796.797 306.175 796.938C306.103 797.078 305.641 797.471 305.166 797.808C304.675 798.158 304.286 798.481 304.286 798.551C304.286 798.608 304.185 798.664 304.069 798.664C303.968 798.664 303.81 798.748 303.752 798.832C303.694 798.93 303.42 799.169 303.146 799.351C302.382 799.87 300.622 801.484 299.065 803.112C296.916 805.329 295.099 808.248 294.536 810.381C294.103 812.037 294.248 815.755 294.767 816.261C294.853 816.345 294.911 816.499 294.911 816.625C294.911 817.187 295.849 818.618 297.103 820.007C297.55 820.512 297.897 820.975 297.839 821.018C297.796 821.074 297.882 821.158 298.026 821.2C298.171 821.256 298.719 821.705 299.238 822.182C300.103 822.996 300.723 823.445 302.872 824.736C304.315 825.592 308.685 827.599 311.353 828.623C315.059 830.041 325.314 833.324 326.049 833.324C326.223 833.324 326.612 833.45 326.9 833.591C327.492 833.899 329.698 834.587 330.059 834.587C330.189 834.587 330.852 834.741 331.53 834.938C333.246 835.429 336.693 836.257 337.386 836.355C337.703 836.397 338.554 836.524 339.261 836.622C341.02 836.888 345.852 836.804 347.626 836.481C349.659 836.117 352.731 835.289 354.404 834.671C354.967 834.461 355.674 834.194 355.991 834.068C356.308 833.956 356.856 833.731 357.217 833.591C357.577 833.45 358.241 833.226 358.702 833.114C359.149 832.987 359.524 832.833 359.524 832.763C359.524 832.693 359.669 832.552 359.856 832.468C360.145 832.314 360.159 832.314 359.971 832.538C359.798 832.735 359.871 832.735 360.462 832.482C360.837 832.328 361.385 832.131 361.673 832.075C361.962 832.005 362.842 831.752 363.635 831.528C366.404 830.714 369.274 830.518 371.207 831.023C371.639 831.135 372.461 831.346 373.024 831.5C373.586 831.64 374.308 831.893 374.61 832.047C374.913 832.216 375.216 832.342 375.274 832.342C375.375 832.342 377.307 833.24 377.913 833.577C378.072 833.661 378.822 834.082 379.572 834.517C380.322 834.952 381.014 835.345 381.115 835.401C381.216 835.457 382.254 836.131 383.423 836.888C384.591 837.66 385.687 838.32 385.86 838.348C386.033 838.376 386.206 838.516 386.249 838.657C386.293 838.811 386.538 839.021 386.798 839.134C387.072 839.26 387.576 839.541 387.937 839.779C388.298 840.004 388.874 840.354 389.235 840.551C389.596 840.747 390.245 841.126 390.677 841.393C393.663 843.175 399.086 845.982 401.076 846.781C401.35 846.894 401.768 847.062 401.999 847.16C404.912 848.381 410.523 849.939 413.537 850.36C415.874 850.696 415.787 850.682 418.369 850.654C420.373 850.626 420.994 850.556 422.263 850.247Z" fill="#F1F1F1"/>
<path d="M358.016 799.049C356.351 799.049 355 797.698 355 796.033V793.017C355 791.346 356.351 790.001 358.016 790.001H364.048V793.017H362.54C361.707 793.017 361.032 793.692 361.032 794.525C361.032 795.358 361.707 796.033 362.54 796.033H364.048V799.049H358.016Z" fill="black"/>
<path d="M367.581 799.049C365.916 799.049 364.565 797.698 364.565 796.033V793.017C364.565 791.346 365.916 790.001 367.581 790.001H370.597C372.268 790.001 373.613 791.352 373.613 793.017V796.033C373.613 797.698 372.262 799.049 370.597 799.049H367.581Z" fill="black"/>
<path d="M374.129 799.049V790.001H380.161C381.832 790.001 383.177 791.352 383.177 793.017C383.177 794.682 381.826 796.033 380.161 796.033H383.177V799.049H380.161C378.496 799.049 377.145 797.698 377.145 796.033V799.049H374.129Z" fill="black"/>
<path d="M358.016 809C358.016 807.334 356.666 805.984 355 805.984V799.952H364.048V805.984C362.382 805.984 361.032 807.334 361.032 809H358.016Z" fill="black"/>
<path d="M367.581 809C365.916 809 364.565 807.649 364.565 805.984V799.952H373.613C373.613 801.617 372.262 802.968 370.597 802.968H373.613C373.613 804.633 372.262 805.984 370.597 805.984H373.613V809H367.581Z" fill="black"/>
<path d="M374.129 809V805.984C374.129 805.152 374.805 804.476 375.637 804.476C374.805 804.476 374.129 803.801 374.129 802.968V799.952H377.145C377.978 799.952 378.653 800.628 378.653 801.46C378.653 800.628 379.329 799.952 380.161 799.952H383.177V802.968C383.177 803.801 382.502 804.476 381.669 804.476C382.502 804.476 383.177 805.152 383.177 805.984V809H380.161C379.329 809 378.653 808.324 378.653 807.492C378.653 808.324 377.978 809 377.145 809H374.129Z" fill="black"/>
<defs>
<filter id="filter0_f_1408_740" x="432.2" y="649.2" width="175.6" height="302.6" filterUnits="userSpaceOnUse" color-interpolation-filters="sRGB">
<feFlood flood-opacity="0" result="BackgroundImageFix"/>
<feBlend mode="normal" in="SourceGraphic" in2="BackgroundImageFix" result="shape"/>
<feGaussianBlur stdDeviation="23.4" result="effect1_foregroundBlur_1408_740"/>
</filter>
</defs>
</svg>
