<svg width="739" height="1600" viewBox="0 0 739 1600" fill="none" xmlns="http://www.w3.org/2000/svg">
<rect width="739" height="1600" fill="black"/>
<g filter="url(#filter0_f_1408_684)">
<path d="M173 680H206V739.627H173V680Z" fill="#313131"/>
<path d="M173 821.373H206V881H173V821.373Z" fill="#313131"/>
</g>
<path d="M196.3 792.9C170.191 792.9 149 771.71 149 745.6V698.3C149 672.095 170.191 650.999 196.3 650.999H290.901V698.3H256.601C249.421 698.3 243.601 704.12 243.601 711.3V721.95V732.6C243.601 739.78 249.421 745.6 256.601 745.6H290.901V792.9H196.3Z" fill="#F1F1F1" fill-opacity="0.01"/>
<path d="M346.31 792.9C320.2 792.9 299.009 771.71 299.009 745.6V698.3C299.009 672.095 320.2 650.999 346.31 650.999H393.61C419.814 650.999 440.91 672.19 440.91 698.3V745.6C440.91 771.71 419.72 792.9 393.61 792.9H346.31Z" fill="#F1F1F1" fill-opacity="0.01"/>
<path d="M449.019 792.9V650.999H543.62C569.824 650.999 590.92 672.19 590.92 698.3C590.92 724.41 569.729 745.6 543.62 745.6H590.92V792.9H543.62C517.51 792.9 496.319 771.71 496.319 745.6V792.9H449.019Z" fill="#F1F1F1" fill-opacity="0.01"/>
<path d="M196.3 948.996V907.696C196.3 904.382 193.614 901.696 190.3 901.696H149V807.095H290.901V901.696H249.601C246.287 901.696 243.601 904.382 243.601 907.696V948.996H196.3Z" fill="#F1F1F1" fill-opacity="0.01"/>
<path d="M346.31 948.996C320.2 948.996 299.009 927.806 299.009 901.696V807.095H440.91C440.91 833.205 419.72 854.395 393.61 854.395H440.91C440.91 880.505 419.72 901.696 393.61 901.696H440.91V948.996H346.31Z" fill="#F1F1F1" fill-opacity="0.01"/>
<path d="M449.019 948.996V901.696C449.019 888.641 459.614 878.046 472.669 878.046C459.614 878.046 449.019 867.45 449.019 854.395V807.095H496.319C509.374 807.095 519.97 817.69 519.97 830.745C519.97 817.69 530.565 807.095 543.62 807.095H590.92V854.395C590.92 867.45 580.325 878.046 567.27 878.046C580.325 878.046 590.92 888.641 590.92 901.696V948.996H543.62C530.565 948.996 519.97 938.401 519.97 925.346C519.97 938.401 509.374 948.996 496.319 948.996H449.019Z" fill="#F1F1F1" fill-opacity="0.01"/>
<path d="M357.078 817.692V817.345L357.444 817.379C357.641 817.396 357.995 817.43 358.227 817.447C358.61 817.482 358.645 817.493 358.645 817.612C358.645 817.726 358.604 817.743 358.291 817.777C358.099 817.799 357.792 817.799 357.618 817.777L357.293 817.737L357.322 817.89C357.345 818.015 357.333 818.038 357.217 818.038C357.084 818.038 357.078 818.015 357.078 817.692Z" fill="black"/>
<path d="M354.605 817.476C354.547 817.328 354.466 817.288 353.793 817.073C352.556 816.67 351.819 816.221 352.4 816.221C352.51 816.221 352.614 816.244 352.632 816.272C352.649 816.301 352.748 816.335 352.852 816.346C353.067 816.374 354.454 816.766 354.57 816.834C354.669 816.885 354.814 817.271 354.814 817.487C354.814 817.692 354.681 817.686 354.605 817.476Z" fill="black"/>
<path d="M384.868 815.114C384.857 815.108 384.497 815.086 384.068 815.069C382.68 815.006 380.353 814.688 378.536 814.314C378.159 814.234 377.828 814.189 377.799 814.206C377.764 814.228 377.741 814.172 377.741 814.081C377.741 813.956 377.805 813.865 378.014 813.695C378.165 813.57 378.356 813.434 378.437 813.388C378.757 813.218 379.471 812.883 379.726 812.781C379.883 812.724 380.005 812.656 380.005 812.633C380.005 812.605 380.092 812.588 380.196 812.588C380.301 812.588 380.486 812.537 380.614 812.474C380.742 812.412 380.881 812.361 380.933 812.361C380.98 812.361 381.16 812.309 381.328 812.247C381.688 812.111 381.978 812.099 381.978 812.213C381.978 812.253 381.92 812.309 381.85 812.332C381.694 812.383 381.995 812.434 382.965 812.531C383.301 812.559 383.708 812.599 383.864 812.616C384.393 812.667 386.755 812.65 387.492 812.588C389.036 812.451 390.551 812.145 391.996 811.662C392.977 811.333 393.14 811.254 393.093 811.106C393.064 811.021 393.081 810.998 393.192 810.998C393.407 810.998 393.888 811.85 394.074 812.559C394.242 813.195 394.283 813.763 394.144 813.581C394.068 813.479 394.057 813.479 393.761 813.627C393.598 813.712 393.412 813.78 393.36 813.78C393.308 813.78 393.238 813.803 393.209 813.831C392.989 814.024 390.829 814.58 389.465 814.802C388.473 814.961 388.171 814.995 387.231 815.057C386.685 815.091 384.898 815.137 384.868 815.114Z" fill="black"/>
<path d="M374.839 813.962C374.839 813.939 374.879 813.859 374.932 813.786C375.007 813.683 375.013 813.644 374.955 813.61C374.769 813.496 372.918 813.365 372.564 813.434L372.401 813.468L372.662 813.604C373.202 813.882 372.802 813.933 372.192 813.661C371.972 813.564 371.687 813.434 371.559 813.377C371.432 813.32 371.171 813.235 370.979 813.189C370.787 813.144 370.486 813.065 370.311 813.019C369.685 812.843 368.605 812.928 367.613 813.224C367.293 813.314 366.939 813.417 366.829 813.439C366.719 813.468 366.428 813.57 366.19 813.666C365.715 813.859 365.204 813.95 365.204 813.842C365.204 813.808 365.297 813.735 365.407 813.683C365.517 813.627 366.278 813.246 367.102 812.837C367.926 812.429 368.837 811.997 369.122 811.884C369.412 811.764 369.76 811.623 369.905 811.566C370.05 811.503 370.352 811.401 370.573 811.339C370.799 811.276 371.06 811.197 371.153 811.168C371.455 811.078 372.622 810.941 373.086 810.941C373.858 810.941 375.454 811.157 376.696 811.424C376.934 811.475 377.178 811.52 377.236 811.52C377.3 811.515 377.335 811.56 377.335 811.657C377.335 811.764 377.306 811.793 377.189 811.793C377.108 811.793 377.044 811.827 377.039 811.867C377.039 811.901 376.882 812.065 376.685 812.219C376.493 812.378 376.127 812.735 375.866 813.013C375.605 813.297 375.361 813.559 375.321 813.598C375.28 813.638 375.245 813.712 375.245 813.757C375.245 813.803 375.222 813.837 375.187 813.837C375.158 813.837 375.129 813.876 375.129 813.922C375.129 813.973 375.077 814.007 374.984 814.007C374.903 814.007 374.839 813.99 374.839 813.962Z" fill="black"/>
<path d="M351.651 813.848C349.648 813.229 347.083 812.378 346.224 812.048C345.098 811.611 342.974 810.623 342.974 810.538C342.974 810.51 342.933 810.487 342.887 810.487C342.84 810.487 342.753 810.436 342.701 810.374C342.643 810.311 342.567 810.26 342.521 810.26C342.26 810.26 341.134 809.306 340.35 808.415C339.973 807.983 339.607 807.387 339.607 807.194C339.607 807.143 339.584 807.081 339.549 807.047C339.334 806.837 339.265 805.031 339.45 804.356C339.596 803.816 339.665 803.674 339.787 803.674C339.863 803.674 339.903 803.748 339.955 804.004C340.077 804.588 340.385 805.06 341.087 805.758C341.435 806.11 341.749 806.399 341.772 806.399C341.824 806.399 342.039 806.575 342.265 806.814C342.353 806.899 342.445 806.967 342.48 806.967C342.544 806.967 342.637 807.03 342.974 807.296C343.061 807.365 343.159 807.421 343.194 807.421C343.229 807.421 343.264 807.438 343.275 807.467C343.304 807.529 343.815 807.858 343.955 807.904C344.018 807.921 344.076 807.961 344.076 807.983C344.076 808.012 344.158 808.063 344.251 808.103C344.349 808.142 344.425 808.193 344.425 808.222C344.425 808.25 344.483 808.296 344.558 808.324C344.628 808.352 344.773 808.443 344.883 808.523C344.993 808.602 345.104 808.67 345.127 808.67C345.15 808.67 345.568 808.932 346.061 809.249C347.013 809.874 347.048 809.897 347.216 810.05C347.275 810.101 347.35 810.146 347.373 810.146C347.42 810.146 347.53 810.22 347.849 810.476C347.936 810.544 348.029 810.601 348.046 810.601C348.087 810.601 348.134 810.635 348.401 810.85C348.697 811.1 348.818 811.191 348.958 811.282C349.027 811.327 349.126 811.412 349.178 811.469C349.225 811.52 349.3 811.566 349.335 811.566C349.376 811.566 349.416 811.583 349.428 811.611C349.439 811.634 349.561 811.742 349.706 811.85C349.852 811.958 349.991 812.077 350.014 812.116C350.037 812.156 350.101 812.19 350.142 812.19C350.188 812.19 350.229 812.213 350.229 812.241C350.229 812.27 350.275 812.31 350.333 812.327C350.426 812.361 350.705 812.571 350.931 812.786C350.983 812.832 351.041 812.872 351.065 812.872C351.088 812.872 351.169 812.917 351.245 812.974C351.314 813.025 351.436 813.11 351.506 813.155C351.581 813.201 351.686 813.28 351.738 813.331C351.796 813.383 351.866 813.434 351.889 813.445C352.051 813.513 352.609 813.871 352.609 813.905C352.609 813.984 351.953 813.945 351.651 813.848ZM343.148 810.351C343.148 810.339 342.991 810.226 342.799 810.101C342.608 809.976 342.451 809.891 342.451 809.908C342.451 809.931 342.538 809.999 342.643 810.067C342.741 810.129 342.892 810.226 342.974 810.277C343.136 810.379 343.148 810.385 343.148 810.351Z" fill="black"/>
<path d="M396.111 812.094C396.059 811.85 395.989 811.628 395.966 811.594C395.943 811.566 395.908 811.469 395.891 811.39C395.867 811.31 395.722 811.049 395.56 810.805C395.403 810.567 395.27 810.334 395.27 810.288C395.27 810.243 395.246 810.203 395.212 810.203C395.183 810.203 395.154 810.112 395.154 810.005C395.154 809.772 395.217 809.749 395.328 809.948C395.368 810.027 395.421 810.09 395.444 810.09C395.461 810.09 395.676 809.965 395.914 809.817C396.152 809.67 396.425 809.494 396.529 809.437C396.86 809.232 397.957 808.375 398.369 807.995C399.321 807.109 400.023 806.178 400.331 805.406C400.441 805.122 400.464 804.963 400.459 804.469C400.459 803.856 400.43 803.754 400.099 803.118C399.959 802.857 399.338 802.198 399.037 802C398.897 801.903 398.723 801.778 398.654 801.716C398.578 801.653 398.207 801.426 397.818 801.21C397.22 800.875 397.092 800.83 397.005 800.887C396.906 800.944 396.895 800.932 396.895 800.802C396.895 800.711 396.988 800.546 397.156 800.364C397.301 800.2 397.417 800.024 397.417 799.973C397.417 799.916 397.458 799.871 397.504 799.871C397.551 799.871 397.591 799.819 397.591 799.757C397.591 799.695 397.632 799.643 397.678 799.643C397.725 799.643 397.765 799.598 397.765 799.536C397.765 799.479 397.812 799.416 397.876 799.399C397.934 799.388 398.085 799.218 398.207 799.03C398.369 798.775 398.468 798.678 398.561 798.678C398.677 798.678 398.683 798.695 398.636 798.826C398.601 798.905 398.601 798.956 398.625 798.939C398.688 798.9 399.391 799.235 399.391 799.297C399.391 799.325 399.449 799.36 399.524 799.382C399.774 799.439 400.819 800.257 401.399 800.847C401.956 801.415 402.461 802.124 402.577 802.522C402.606 802.607 402.67 802.772 402.722 802.885C402.769 802.999 402.827 803.169 402.838 803.254C402.856 803.345 402.896 803.555 402.931 803.725C403.216 805.179 402.606 806.973 401.318 808.494C400.279 809.715 398.77 810.97 397.173 811.94C396.761 812.185 396.431 812.423 396.431 812.463C396.431 812.497 396.378 812.531 396.32 812.531C396.227 812.531 396.193 812.451 396.111 812.094Z" fill="black"/>
<path d="M337.518 802.817C337.518 802.386 337.819 801.659 338.313 800.921C338.777 800.217 339.857 799.201 340.751 798.616C341.244 798.298 341.261 798.292 341.279 798.423C341.302 798.616 341.273 798.656 340.704 799.167C339.607 800.143 338.574 801.415 338.04 802.431C337.819 802.851 337.715 802.993 337.634 802.993C337.541 802.993 337.518 802.953 337.518 802.817Z" fill="black"/>
<path d="M394.335 800.041C394.445 799.95 394.527 799.865 394.509 799.853C394.498 799.842 394.37 799.802 394.225 799.763C394.08 799.729 393.819 799.66 393.644 799.609C392.791 799.382 390.522 798.911 390.249 798.905C390.145 798.905 390.133 798.934 390.15 799.104C390.174 799.274 390.156 799.303 390.052 799.303C389.947 799.303 389.93 799.269 389.93 799.064C389.93 798.741 389.732 797.679 389.582 797.145C389.425 796.612 389.367 796.123 389.46 796.123C389.494 796.123 389.523 796.163 389.523 796.209C389.523 796.305 389.518 796.305 390.713 796.498C391.218 796.578 391.81 796.686 392.019 796.731C392.414 796.816 393.25 796.998 393.703 797.089C394.033 797.162 394.393 797.265 395.438 797.583C396.233 797.827 396.28 797.832 396.355 797.736C396.425 797.645 396.431 797.651 396.431 797.81C396.431 798.025 396.326 798.224 396.088 798.48C395.989 798.587 395.908 798.701 395.908 798.729C395.908 798.758 395.699 798.996 395.45 799.252C395.194 799.513 394.921 799.797 394.84 799.888C394.759 799.973 394.666 800.041 394.631 800.041C394.602 800.041 394.573 800.081 394.573 800.126C394.573 800.188 394.509 800.211 394.358 800.211L394.138 800.205L394.335 800.041Z" fill="black"/>
<path d="M343.148 799.802C343.148 799.683 343.183 799.626 343.264 799.604C343.328 799.587 343.38 799.553 343.38 799.53C343.38 799.49 344.355 798.803 345.527 798.025C345.893 797.781 346.398 797.441 346.648 797.276C347.187 796.918 347.431 796.879 347.565 797.134C347.611 797.219 347.658 797.299 347.675 797.316C347.82 797.441 347.965 797.736 347.965 797.895C347.959 798.071 347.959 798.076 347.878 797.974C347.791 797.866 347.785 797.866 347.46 798.008C347.275 798.088 346.926 798.235 346.688 798.338C345.905 798.661 345.069 799.042 344.1 799.513L343.148 799.978V799.802Z" fill="black"/>
<path d="M387.521 798.599C387.48 798.542 387.3 798.502 386.941 798.48C386.656 798.463 386.325 798.434 386.215 798.423C386.105 798.406 385.646 798.372 385.199 798.338C384.752 798.304 384.259 798.27 384.097 798.252C383.94 798.241 383.626 798.213 383.4 798.196C381.322 798.025 380.852 797.957 380.173 797.742C379.674 797.577 379.18 797.197 378.931 796.788C378.716 796.419 378.641 795.834 378.757 795.351C378.838 794.994 378.879 794.88 379.093 794.42C379.227 794.125 379.755 793.234 380.15 792.649C380.898 791.525 381.09 791.218 381.479 790.486C381.844 789.805 381.862 789.754 381.752 789.725C381.682 789.708 381.63 789.657 381.63 789.617C381.63 789.549 381.914 789.538 383.284 789.538H384.938V789.737C384.938 789.964 384.874 789.992 384.747 789.81C384.66 789.68 384.66 789.68 384.543 789.935C384.178 790.713 384.038 790.997 383.667 791.684C383.255 792.433 383.046 792.78 382.228 794.006C381.688 794.823 381.334 795.442 381.369 795.499C381.415 795.567 382.32 795.658 385.838 795.925C386.064 795.942 386.354 795.97 386.494 795.987C386.72 796.01 386.743 796.004 386.714 795.908C386.685 795.817 386.703 795.8 386.807 795.823C386.9 795.84 386.975 795.936 387.068 796.141C387.393 796.884 387.666 797.929 387.666 798.423C387.666 798.684 387.62 798.741 387.521 798.599Z" fill="black"/>
<path d="M350.055 797.174C350.055 797.128 349.997 797.032 349.927 796.952C349.736 796.754 349.648 796.646 349.648 796.606C349.648 796.589 349.625 796.544 349.59 796.504C349.318 796.18 349.242 796.072 349.242 796.016C349.242 795.982 349.219 795.953 349.184 795.953C349.155 795.953 349.126 795.851 349.126 795.726C349.126 795.601 349.149 795.499 349.178 795.499C349.294 795.499 350.345 794.454 350.856 793.83C351.332 793.245 352.272 791.826 352.609 791.184C352.736 790.94 353.543 789.873 353.822 789.578C354.019 789.367 354.663 788.845 354.901 788.703C354.965 788.664 355.371 788.453 355.801 788.238C356.555 787.863 356.968 787.715 359.429 786.949C360.636 786.574 361.988 786.035 362.493 785.728C363.161 785.32 363.439 785.138 363.602 785.007C363.747 784.894 363.817 784.877 364.008 784.905C364.142 784.928 364.403 784.962 364.594 784.985C364.861 785.013 364.948 785.047 364.96 785.127C364.972 785.178 364.943 785.223 364.902 785.223C364.856 785.223 364.571 785.416 364.269 785.649C362.992 786.654 361.773 787.38 359.585 788.459C357.101 789.685 356.892 789.799 356.294 790.236C355.174 791.054 354.919 791.383 353.764 793.455C352.905 794.999 352.092 795.817 350.664 796.572C350.409 796.708 350.188 796.827 350.177 796.839C350.165 796.85 350.211 796.947 350.275 797.06L350.397 797.259H350.229C350.113 797.259 350.055 797.231 350.055 797.174Z" fill="black"/>
<path d="M382.558 787.386C382.558 787.29 382.593 787.267 382.756 787.267C382.953 787.267 382.959 787.261 383.075 786.887C383.644 785.058 383.655 783.026 383.104 781.663C382.791 780.886 382.024 779.966 381.409 779.62C381.258 779.54 381.096 779.438 381.049 779.398C380.91 779.285 379.964 778.921 379.569 778.836C378.809 778.666 377.915 778.615 377.184 778.688C375.315 778.887 373.602 779.392 372.093 780.187C370.95 780.795 370.486 781.05 370.05 781.328C369.481 781.692 369.267 781.828 369.139 781.902C368.924 782.021 367.88 782.81 367.874 782.856C367.874 782.878 367.943 782.895 368.025 782.895C368.158 782.895 368.164 782.901 368.083 782.986C368.007 783.06 367.909 783.071 367.566 783.043C367.34 783.026 366.997 783.009 366.817 783.015H366.481V782.787C366.481 782.572 366.516 782.532 367.572 781.544C368.17 780.982 368.739 780.46 368.831 780.392C368.93 780.318 369.174 780.113 369.383 779.937C369.882 779.517 371.71 778.183 371.792 778.183C371.803 778.183 371.972 778.087 372.157 777.967C372.552 777.723 373.446 777.281 373.91 777.105C374.084 777.036 374.311 776.946 374.403 776.906C374.502 776.866 374.682 776.804 374.81 776.775C374.937 776.741 375.228 776.662 375.454 776.599C376.342 776.361 376.998 776.293 378.112 776.327C378.693 776.344 379.227 776.378 379.308 776.412C379.389 776.44 379.569 776.497 379.714 776.537C380.62 776.775 381.502 777.241 382.175 777.854C382.547 778.189 383.087 778.853 383.336 779.29C383.429 779.449 383.574 779.705 383.661 779.858C383.998 780.448 384.364 781.51 384.555 782.441C384.781 783.554 384.985 786.12 384.915 786.943L384.868 787.437H384.073C383.632 787.437 383.11 787.454 382.912 787.471C382.576 787.511 382.558 787.505 382.558 787.386Z" fill="black"/>
<path d="M362.998 826.946C362.47 826.906 361.454 826.656 361.036 826.469C360.868 826.389 360.717 826.327 360.7 826.327C360.613 826.327 360.003 826.02 359.759 825.85C359.603 825.748 359.388 825.617 359.283 825.56C359.179 825.504 359.011 825.384 358.912 825.282C358.813 825.186 358.604 825.004 358.453 824.879C358.128 824.618 357.333 823.698 356.991 823.187C355.9 821.564 355.296 820.156 354.721 817.896C354.553 817.232 354.507 817.101 354.396 817.005C354.332 816.948 354.298 816.88 354.321 816.846C354.391 816.738 354.681 816.778 355.743 817.044C355.917 817.09 356.283 817.152 356.555 817.186C357.165 817.26 357.426 817.34 357.426 817.448C357.426 817.493 357.385 817.527 357.339 817.527C357.194 817.527 357.264 817.856 357.67 819.054C357.948 819.877 358.465 820.945 358.912 821.592C359.086 821.842 359.225 822.063 359.225 822.08C359.225 822.228 360.52 823.46 360.891 823.664C361.077 823.766 361.263 823.886 361.303 823.925C361.344 823.965 361.408 823.999 361.437 823.999C361.472 823.999 361.64 824.062 361.808 824.141C362.958 824.652 364.583 824.663 365.871 824.158C367.485 823.528 368.321 822.938 370.021 821.229L371.217 820.036L372.175 818.39L373.138 816.744L373.016 816.624L372.9 816.505H373.103C373.394 816.505 375.361 817.777 375.361 817.97C375.361 818.038 375.326 818.095 375.292 818.095C375.251 818.095 375.135 818.242 375.036 818.424C374.937 818.6 374.485 819.372 374.038 820.139L373.219 821.53L371.937 822.824C370.027 824.737 368.959 825.526 367.351 826.202C367.206 826.264 366.986 826.355 366.858 826.412C366.632 826.509 365.97 826.702 365.436 826.826C365.064 826.917 364.043 827.02 363.712 826.997C363.561 826.991 363.236 826.968 362.998 826.946Z" fill="black"/>
<path d="M358.471 817.697C358.471 817.669 358.43 817.641 358.384 817.641C358.285 817.641 358.274 817.538 358.349 817.425C358.384 817.362 358.494 817.357 358.796 817.385C359.463 817.448 359.516 817.465 359.516 817.618C359.516 817.754 359.51 817.754 358.993 817.754C358.686 817.754 358.471 817.731 358.471 817.697Z" fill="black"/>
<path d="M360.328 817.533C360.328 817.453 360.363 817.413 360.444 817.413C360.508 817.413 360.56 817.385 360.56 817.351C360.56 817.306 360.665 817.294 360.88 817.311C361.118 817.334 361.199 817.317 361.199 817.26C361.199 817.209 361.28 817.186 361.46 817.186C361.681 817.186 361.721 817.203 361.721 817.294C361.721 817.357 361.675 817.419 361.623 817.436C361.483 817.47 361.158 817.533 361.007 817.555C360.938 817.561 360.758 817.589 360.607 817.612C360.346 817.652 360.328 817.646 360.328 817.533Z" fill="black"/>
<path d="M376.406 816.136C376.377 816.057 376.307 815.994 376.243 815.994C376.185 815.994 375.738 815.727 375.245 815.398C374.752 815.069 374.299 814.785 374.247 814.768C374.183 814.745 374.142 814.677 374.142 814.598C374.142 814.444 374.16 814.439 374.316 814.518C374.403 814.563 374.462 814.507 374.729 814.109C374.903 813.854 375.036 813.632 375.03 813.615C375.025 813.598 375.048 813.547 375.083 813.513C375.117 813.473 375.123 813.439 375.094 813.434C375.065 813.434 375.083 813.417 375.135 813.394C375.181 813.371 375.431 813.127 375.692 812.843C375.953 812.565 376.319 812.207 376.51 812.048C376.708 811.895 376.864 811.731 376.864 811.696C376.87 811.657 376.923 811.623 376.992 811.623C377.056 811.623 377.189 811.566 377.288 811.503C377.77 811.163 378.931 810.692 380.579 810.152C381.537 809.834 382.46 809.516 382.628 809.443C382.796 809.369 383.069 809.25 383.226 809.181C384.201 808.756 385.263 807.949 386.941 806.343C387.614 805.701 388.339 805.02 388.554 804.821C388.769 804.628 388.931 804.441 388.914 804.412C388.897 804.378 388.937 804.356 389.013 804.356C389.123 804.356 389.193 804.435 389.367 804.77C389.483 804.992 389.698 805.361 389.843 805.576C389.982 805.798 390.156 806.082 390.232 806.218C390.301 806.348 390.382 806.456 390.406 806.456C390.429 806.456 390.452 806.547 390.452 806.655C390.452 806.876 390.412 806.899 390.307 806.757C390.214 806.638 390.232 806.627 388.421 808.347C387.382 809.335 386.291 810.26 385.861 810.516C384.567 811.282 384.439 811.35 383.592 811.702C383.034 811.935 381.229 812.531 381.09 812.531C381.055 812.531 380.916 812.588 380.771 812.65C380.631 812.718 380.446 812.769 380.364 812.769C380.277 812.769 380.196 812.786 380.179 812.809C380.161 812.826 379.888 812.957 379.569 813.099C379.25 813.235 378.89 813.405 378.774 813.479C378.652 813.553 378.53 813.61 378.501 813.61C378.472 813.61 378.188 813.859 377.874 814.166C377.474 814.552 377.178 814.91 376.899 815.336C376.481 815.977 376.487 815.954 376.772 816.113C376.934 816.204 376.888 816.278 376.667 816.278C376.499 816.278 376.452 816.25 376.406 816.136Z" fill="black"/>
<path d="M356.434 815.143C356.381 815.114 355.952 815.001 355.476 814.887C355 814.779 354.443 814.637 354.234 814.575C354.025 814.512 353.787 814.461 353.7 814.461C353.566 814.461 353.537 814.439 353.537 814.319C353.537 814.194 353.549 814.183 353.688 814.234C353.769 814.268 353.845 814.291 353.862 814.291C353.932 814.291 353.729 813.468 353.439 812.559C353.108 811.532 352.493 810.311 351.761 809.21C351.639 809.022 351.506 808.818 351.471 808.756C351.436 808.693 351.268 808.415 351.1 808.131C350.38 806.922 349.875 805.514 349.741 804.327C349.718 804.14 349.689 803.924 349.677 803.845C349.666 803.765 349.643 803.311 349.619 802.834C349.544 801.034 349.41 800.467 348.813 799.394C348.546 798.917 347.582 797.532 347.489 797.497C347.466 797.486 347.443 797.446 347.443 797.412C347.443 797.373 347.402 797.293 347.356 797.236C347.286 797.145 347.257 797.14 347.182 797.202C347.106 797.265 347.095 797.248 347.095 797.072C347.095 796.896 347.129 796.85 347.367 796.697C347.524 796.606 347.884 796.356 348.168 796.152C348.459 795.948 348.731 795.766 348.778 795.743C348.824 795.726 348.888 795.675 348.911 795.63C348.935 795.59 349.01 795.556 349.068 795.556C349.132 795.556 349.184 795.533 349.184 795.499C349.184 795.471 349.283 795.442 349.405 795.442L349.619 795.448L349.445 795.596C349.335 795.692 349.3 795.755 349.347 795.772C349.381 795.783 349.416 795.817 349.416 795.851C349.416 795.902 349.498 796.01 349.765 796.334C349.799 796.373 349.823 796.419 349.823 796.436C349.823 796.453 349.846 796.498 349.881 796.538C350.142 796.85 350.229 796.97 350.229 797.009C350.229 797.032 350.275 797.106 350.333 797.168C350.473 797.321 350.954 798.094 351.192 798.536C351.488 799.093 351.779 799.916 351.906 800.58C352.051 801.318 352.063 801.443 352.115 802.596C352.138 803.078 352.162 803.555 352.173 803.646C352.289 804.605 352.493 805.378 352.806 806.025C353.067 806.564 353.613 807.512 353.886 807.904C353.973 808.029 354.1 808.222 354.164 808.33C354.222 808.438 354.425 808.778 354.611 809.091C354.791 809.397 354.983 809.743 355.029 809.857C355.081 809.971 355.203 810.243 355.308 810.459C355.679 811.259 356.08 812.52 356.347 813.752C356.596 814.898 356.614 814.961 356.764 814.995C356.979 815.052 356.944 815.199 356.718 815.199C356.614 815.199 356.486 815.171 356.434 815.143Z" fill="black"/>
<path d="M395.56 810.743C395.56 810.499 395.63 810.493 395.786 810.709C395.943 810.924 395.943 810.941 395.734 810.941C395.571 810.941 395.56 810.924 395.56 810.743Z" fill="black"/>
<path d="M394.701 809.533C394.614 809.477 394.533 808.898 394.608 808.898C394.666 808.898 395.037 809.46 395.037 809.539C395.037 809.596 394.794 809.59 394.701 809.533Z" fill="black"/>
<path d="M340.809 809.028C340.751 808.977 340.756 808.614 340.814 808.614C340.838 808.614 340.965 808.716 341.087 808.841L341.314 809.068H341.081C340.948 809.068 340.826 809.051 340.809 809.028Z" fill="black"/>
<path d="M391.909 805.082C391.131 803.879 390.742 803.135 390.742 802.857C390.742 802.63 390.777 802.601 390.887 802.749C390.951 802.834 390.998 802.811 391.358 802.539C391.578 802.369 391.77 802.215 391.787 802.198C391.805 802.181 392.025 802 392.28 801.801C392.89 801.318 394.376 800.024 394.614 799.768C394.718 799.661 394.788 799.547 394.77 799.524C394.753 799.496 394.776 799.473 394.829 799.473C394.945 799.473 395.746 798.616 395.711 798.525C395.693 798.485 395.705 798.451 395.74 798.451C395.815 798.451 396.111 798.111 396.111 798.031C396.111 797.997 396.152 797.935 396.204 797.901C396.332 797.81 396.901 796.873 397.092 796.442C397.446 795.664 397.551 794.369 397.307 793.824C397.278 793.762 397.208 793.597 397.156 793.455C396.959 792.939 396.471 792.365 395.792 791.866C395.438 791.599 394.486 791.093 393.964 790.883C392.53 790.316 390.464 789.918 388.305 789.793C387.968 789.776 387.62 789.748 387.533 789.731C387.399 789.703 387.364 789.72 387.335 789.816C387.3 789.952 387.225 789.969 387.121 789.862C387.028 789.771 386.97 788.533 387.016 787.591C387.039 786.994 387.057 786.926 387.15 786.926C387.231 786.926 387.26 786.966 387.26 787.097C387.26 787.193 387.277 787.267 387.306 787.267C389.349 787.375 391.16 787.591 392.484 787.886C393.888 788.198 394.643 788.459 395.821 789.038C396.396 789.322 396.924 789.629 397.162 789.822C397.261 789.901 397.4 790.003 397.475 790.049C397.603 790.128 398.479 790.974 398.752 791.281C398.81 791.349 398.903 791.491 398.961 791.593C399.013 791.695 399.118 791.866 399.199 791.968C399.275 792.07 399.402 792.325 399.478 792.536C399.547 792.746 399.652 793.007 399.698 793.115C399.745 793.222 399.803 793.455 399.82 793.626C399.843 793.796 399.884 794.068 399.919 794.233C400.006 794.682 399.93 795.613 399.739 796.322C399.536 797.106 399.28 797.696 398.775 798.548C398.328 799.32 398.131 799.587 398.021 799.587C397.974 799.587 397.957 799.621 397.974 799.672C397.998 799.723 397.963 799.774 397.882 799.802C397.812 799.825 397.76 799.865 397.76 799.888C397.777 800.007 397.76 800.041 397.678 800.041C397.632 800.041 397.609 800.075 397.626 800.115C397.667 800.223 396.233 801.687 395.27 802.522C394.492 803.192 392.832 804.537 392.379 804.867C392.251 804.957 392.193 805.043 392.211 805.105C392.251 805.258 392.008 805.236 391.909 805.082Z" fill="black"/>
<path d="M343.902 799.252C343.902 799.116 343.925 799.076 344.013 799.076C344.088 799.076 344.134 799.03 344.146 798.951C344.158 798.843 344.204 798.815 344.419 798.803C344.75 798.781 344.721 798.849 344.262 799.172L343.902 799.422V799.252Z" fill="black"/>
<path d="M345.765 795.17C345.823 795.079 345.783 794.988 345.516 794.585C345.342 794.324 345.017 793.739 344.79 793.285C344.396 792.49 343.844 791.201 343.844 791.054C343.844 791.02 343.78 790.793 343.699 790.548C343.624 790.31 343.542 789.992 343.525 789.839C343.502 789.691 343.473 789.504 343.461 789.424C343.368 788.982 343.368 787.886 343.467 787.295C343.873 784.712 345.289 783.094 348.261 781.828C348.546 781.709 350.032 781.334 350.432 781.283C352.992 780.954 355.151 781.05 358.326 781.624C359.487 781.834 359.829 781.902 361.686 782.271C362.911 782.515 363.166 782.538 363.277 782.43C363.329 782.379 363.346 782.402 363.346 782.543C363.346 782.657 363.317 782.725 363.265 782.725C363.225 782.725 363.126 782.788 363.045 782.861C362.963 782.93 362.853 783.009 362.801 783.026C362.749 783.049 362.708 783.088 362.708 783.123C362.708 783.151 362.673 783.179 362.633 783.179C362.592 783.179 362.516 783.225 362.464 783.282C362.319 783.429 362.197 783.52 362.139 783.52C362.116 783.52 362.04 783.565 361.977 783.622C361.919 783.679 361.779 783.758 361.681 783.798C361.576 783.838 361.489 783.889 361.489 783.912C361.489 783.934 361.361 783.997 361.199 784.059C361.042 784.122 360.909 784.184 360.909 784.207C360.909 784.23 360.729 784.303 360.502 784.377C360.282 784.445 360.096 784.525 360.096 784.553C360.096 784.576 360.003 784.599 359.893 784.599C359.754 784.599 359.69 784.627 359.69 784.684C359.69 784.746 359.626 784.769 359.481 784.769C359.202 784.769 359.249 784.655 359.562 784.542C359.696 784.496 359.806 784.445 359.806 784.428C359.806 784.4 358.424 784.127 357.629 783.997C357.536 783.98 357.246 783.929 356.991 783.883C356.585 783.815 356.027 783.741 354.872 783.599C354.245 783.526 351.912 783.56 351.187 783.656C350.078 783.798 348.975 784.122 348.284 784.502C346.833 785.303 346.114 786.296 345.928 787.772C345.847 788.397 345.916 789.26 346.09 789.833C346.137 789.998 346.183 790.162 346.189 790.191C346.212 790.299 346.288 790.531 346.34 790.645C346.369 790.707 346.474 790.957 346.572 791.196C346.781 791.735 347.327 792.808 347.594 793.217C347.704 793.381 347.791 793.54 347.791 793.574C347.791 793.614 347.855 793.626 347.936 793.614C348.052 793.592 348.081 793.609 348.081 793.694C348.081 793.807 347.872 794.017 347.756 794.023C347.721 794.023 347.64 794.085 347.582 794.165C347.524 794.244 347.443 794.307 347.402 794.307C347.362 794.307 347.327 794.335 347.327 794.364C347.327 794.398 347.286 794.42 347.24 794.42C347.193 794.42 347.153 794.443 347.153 794.471C347.153 794.5 347.089 794.54 347.013 794.557C346.938 794.574 346.799 794.659 346.706 794.744C346.607 794.835 346.462 794.937 346.381 794.982C346.294 795.028 346.172 795.107 346.114 795.17C346.05 795.227 345.928 795.272 345.847 795.272C345.719 795.272 345.707 795.261 345.765 795.17Z" fill="black"/>
<path d="M384.764 789.793C384.764 789.725 384.48 789.714 382.849 789.708C379.621 789.703 378.826 789.572 376.986 788.726C376.685 788.59 375.924 788.147 375.303 787.738C374.682 787.329 374.015 786.915 373.823 786.807C373.632 786.705 373.394 786.563 373.295 786.501C373.19 786.432 372.894 786.296 372.627 786.188C372.36 786.086 372.117 785.984 372.082 785.961C371.96 785.87 370.66 785.569 370.021 785.484C369.383 785.399 368.82 785.371 366.742 785.308C365.569 785.274 364.223 785.172 364.066 785.11C364.002 785.087 363.904 785.087 363.851 785.121C363.764 785.166 363.753 785.144 363.753 784.973C363.753 784.82 363.793 784.752 363.921 784.661C364.014 784.593 364.107 784.542 364.13 784.542C364.153 784.542 364.223 784.479 364.287 784.4C364.351 784.32 364.438 784.258 364.484 784.258C364.53 784.258 364.565 784.235 364.565 784.207C364.565 784.184 364.757 784.003 364.989 783.81C365.215 783.611 365.61 783.264 365.854 783.032C366.266 782.646 366.318 782.612 366.545 782.612C366.742 782.612 366.777 782.629 366.724 782.68C366.608 782.793 366.643 782.81 366.986 782.822C367.171 782.827 367.479 782.844 367.671 782.861C367.862 782.873 368.384 782.901 368.831 782.924C369.638 782.958 371.112 783.134 371.443 783.236C371.542 783.264 371.879 783.355 372.198 783.435C372.796 783.588 373.33 783.798 374.229 784.235C375.025 784.621 376.174 785.314 376.174 785.399C376.174 785.428 376.209 785.45 376.255 785.45C376.301 785.45 376.377 785.484 376.418 785.524C376.493 785.592 376.743 785.757 377.248 786.063C377.41 786.16 377.567 786.268 377.602 786.296C377.636 786.325 377.793 786.404 377.95 786.472C378.107 786.535 378.339 786.642 378.466 786.705C378.966 786.955 379.871 787.165 380.788 787.233C381.212 787.267 382.181 787.278 383.766 787.273L384.706 787.267V787.04C384.706 786.847 384.723 786.813 384.828 786.813C384.95 786.813 384.956 786.83 384.921 787.284C384.898 787.539 384.88 788.226 384.88 788.817C384.88 789.487 384.857 789.879 384.822 789.879C384.793 789.879 384.764 789.839 384.764 789.793Z" fill="black"/>
<path d="M356.207 788.09C356.207 787.891 356.207 787.891 356.468 787.891C356.643 787.891 356.73 787.914 356.73 787.965C356.73 788.005 356.614 788.096 356.468 788.164L356.207 788.289V788.09Z" fill="black"/>
<path d="M388.072 823.221C387.341 823.148 386.145 822.926 385.199 822.688C383.917 822.37 383.905 822.364 383.255 822.126C382.982 822.029 382.593 821.887 382.384 821.813C382.175 821.74 381.868 821.626 381.694 821.558C381.386 821.439 379.035 820.286 378.699 820.087C378.606 820.031 378.228 819.821 377.869 819.622C377.509 819.423 377.079 819.179 376.911 819.077C376.748 818.975 376.516 818.844 376.4 818.782C376.29 818.719 375.994 818.543 375.75 818.384C375.506 818.225 375.28 818.095 375.251 818.095C375.222 818.095 375.187 818.072 375.175 818.044C375.152 817.987 373.411 816.851 372.749 816.465C372.001 816.023 370.782 815.443 370.457 815.364C370.3 815.33 370.12 815.273 370.062 815.245C369.87 815.148 369.029 815.182 368.512 815.302C368.001 815.421 366.533 815.898 366.045 816.102C365.715 816.238 364.554 816.664 364.101 816.806C363.108 817.13 361.547 817.493 361.547 817.408C361.547 817.317 361.385 817.351 361.35 817.448C361.321 817.527 361.257 817.538 361.025 817.51C360.868 817.493 360.735 817.499 360.723 817.533C360.711 817.567 359.568 817.748 359.295 817.754C359.283 817.754 359.289 817.731 359.307 817.703C359.353 817.635 359.028 817.567 358.883 817.612C358.819 817.629 358.715 817.618 358.645 817.584C358.57 817.544 358.529 817.544 358.529 817.584C358.529 817.669 357.983 817.652 357.484 817.555C357.246 817.504 356.747 817.419 356.381 817.362C356.016 817.306 355.609 817.232 355.482 817.198C355.035 817.079 354.727 817.016 354.524 816.993C354.408 816.976 353.99 816.868 353.595 816.755C353.195 816.636 352.771 816.539 352.655 816.545C352.533 816.545 352.446 816.522 352.452 816.494C352.458 816.46 352.394 816.431 352.313 816.42C352.226 816.409 352.08 816.363 351.993 816.318C351.9 816.272 351.593 816.164 351.303 816.085C349.979 815.699 346.433 814.524 345.44 814.138C344.268 813.683 342.219 812.707 341.569 812.298C341.348 812.162 341.064 811.986 340.936 811.906C340.605 811.713 340.002 811.231 339.404 810.686C339.044 810.357 338.249 809.374 337.941 808.892C337.599 808.341 337.187 807.359 337.135 806.973C337.117 806.831 337.082 806.632 337.053 806.536C337.03 806.439 337.007 806.065 337.001 805.707C336.966 803.686 337.802 801.835 339.619 799.888C339.915 799.575 340.356 799.138 340.594 798.928C340.832 798.718 341.064 798.497 341.105 798.44C341.145 798.383 341.354 798.218 341.569 798.071C341.784 797.929 342.022 797.753 342.103 797.679C342.329 797.486 343.177 796.901 344.483 796.038C345.139 795.607 345.754 795.175 345.852 795.079C345.957 794.982 346.108 794.863 346.201 794.818C346.288 794.772 346.433 794.664 346.532 794.574C346.624 794.488 346.764 794.403 346.839 794.386C346.915 794.369 346.979 794.33 346.979 794.301C346.979 794.273 347.019 794.25 347.066 794.25C347.112 794.25 347.153 794.227 347.153 794.193C347.153 794.165 347.187 794.137 347.228 794.137C347.269 794.137 347.35 794.074 347.408 793.995C347.466 793.915 347.536 793.853 347.565 793.853C347.669 793.853 348.128 793.501 348.435 793.188C349.132 792.479 349.608 791.82 350.519 790.304C350.92 789.634 351.546 788.777 352.011 788.255C353.282 786.83 355.006 785.933 358.413 784.922C359.249 784.672 359.771 784.485 359.794 784.417C359.806 784.394 359.841 784.383 359.87 784.406C359.899 784.423 359.922 784.411 359.922 784.383C359.922 784.36 360.102 784.275 360.328 784.207C360.555 784.133 360.735 784.059 360.735 784.037C360.735 784.014 360.862 783.951 361.025 783.889C361.187 783.827 361.315 783.764 361.315 783.741C361.315 783.719 361.402 783.668 361.506 783.628C361.605 783.588 361.744 783.509 361.802 783.452C361.866 783.395 361.942 783.35 361.965 783.35C362.023 783.35 362.145 783.259 362.29 783.105C362.342 783.054 362.418 783.009 362.453 783.009C362.493 783.009 362.534 782.969 362.557 782.924C362.574 782.878 362.615 782.839 362.65 782.839C362.725 782.839 362.975 782.595 362.952 782.538C362.946 782.509 362.987 782.504 363.045 782.521C363.166 782.56 363.944 781.891 365.744 780.187C366.423 779.546 367.276 778.774 367.642 778.473C368.303 777.928 370.085 776.594 370.253 776.52C370.3 776.497 370.538 776.355 370.776 776.196C371.217 775.912 372.575 775.231 373.156 775.004C373.33 774.936 373.591 774.828 373.736 774.771C374.125 774.618 375.135 774.345 375.826 774.209C376.348 774.107 378.17 773.959 378.263 774.01C378.281 774.016 378.461 774.045 378.67 774.062C379.616 774.152 380.568 774.385 381.311 774.72C381.537 774.817 381.81 774.942 381.92 774.987C382.361 775.174 383.307 775.844 383.795 776.304C384.305 776.792 384.973 777.604 385.24 778.075C385.321 778.212 385.437 778.416 385.501 778.524C386.041 779.461 386.616 780.914 386.708 781.584C386.726 781.692 386.778 781.919 386.819 782.095C387.051 783.003 387.231 784.905 387.231 786.359C387.225 787.312 387.213 788.896 387.208 789.305C387.202 789.475 387.225 789.629 387.254 789.646C387.277 789.663 387.318 789.913 387.335 790.191C387.37 790.685 387.515 791.593 387.573 791.684C387.591 791.712 387.614 791.792 387.631 791.871C387.666 792.047 387.916 792.683 388.061 792.973C389.477 795.726 389.988 797.248 390.133 799.133C390.156 799.399 390.179 799.678 390.191 799.757C390.203 799.837 390.226 800.001 390.243 800.126C390.261 800.251 390.29 800.495 390.307 800.665C390.383 801.313 390.818 802.692 391.16 803.362C391.433 803.896 391.741 804.39 392.42 805.417C393.116 806.468 393.685 807.348 394.37 808.443C394.556 808.739 394.753 809.051 394.817 809.142C394.892 809.25 394.904 809.295 394.852 809.295C394.805 809.295 394.811 809.318 394.875 809.352C394.962 809.403 395.444 810.101 395.444 810.175C395.444 810.198 395.519 810.323 395.618 810.453C395.711 810.589 395.769 810.714 395.751 810.737C395.728 810.754 395.746 810.771 395.78 810.771C395.844 810.771 395.966 810.992 396.146 811.424C396.175 811.486 396.251 811.753 396.314 812.02C396.477 812.662 396.46 812.599 396.634 813.212C396.721 813.507 396.796 813.803 396.814 813.865C396.825 813.928 396.889 814.223 396.953 814.518C397.092 815.131 397.11 815.284 397.156 816.079C397.231 817.482 396.761 819.19 395.978 820.366C395.717 820.757 394.898 821.547 394.451 821.847C394.08 822.092 393.145 822.58 393.041 822.58C393.006 822.58 392.902 822.62 392.803 822.671C392.617 822.767 391.3 823.108 390.858 823.176C390.568 823.216 388.392 823.255 388.072 823.221ZM391.033 820.627C392.199 820.349 392.849 820.036 393.511 819.44C394.144 818.873 394.591 817.72 394.66 816.505C394.678 816.187 394.579 815.262 394.492 814.944C394.445 814.756 394.393 814.541 394.382 814.461C394.347 814.274 394.173 813.666 394.109 813.525C394.086 813.462 393.993 813.133 393.911 812.786C393.778 812.258 393.703 812.077 393.401 811.594C393.209 811.282 392.843 810.697 392.588 810.288C392.333 809.885 391.932 809.244 391.694 808.869C391.456 808.494 391.213 808.114 391.16 808.023C390.899 807.597 390.22 806.604 390.22 806.655C390.22 806.689 390.156 806.587 390.075 806.428C389.994 806.275 389.814 805.968 389.669 805.747C389.344 805.253 388.781 804.168 388.572 803.646C388.485 803.425 388.392 803.197 388.363 803.135C388.316 803.039 388.235 802.749 388.101 802.255C388.09 802.21 388.043 802.022 387.991 801.841C387.916 801.557 387.869 801.29 387.753 800.41C387.724 800.223 387.62 799.297 387.585 798.934C387.556 798.644 387.405 797.855 387.318 797.532C387.097 796.72 386.888 796.231 385.936 794.307C385.408 793.245 385.072 792.235 384.961 791.383C384.944 791.258 384.921 791.116 384.903 791.071C384.886 791.025 384.857 790.81 384.845 790.588C384.828 790.372 384.799 790.1 384.776 789.992C384.758 789.884 384.741 788.874 384.735 787.75C384.735 785.961 384.7 785.047 384.619 784.315C384.48 783.077 384.387 782.549 384.207 781.851C384.085 781.385 383.684 780.369 383.487 780.028C383.4 779.875 383.255 779.62 383.162 779.461C382.39 778.109 381.067 777.105 379.54 776.707C379.395 776.667 379.215 776.616 379.14 776.582C379.058 776.554 378.606 776.514 378.118 776.497C377.184 776.463 376.493 776.537 375.628 776.77C375.402 776.832 375.112 776.912 374.984 776.946C374.856 776.974 374.676 777.036 374.578 777.076C374.485 777.116 374.258 777.207 374.084 777.275C373.62 777.451 372.726 777.894 372.331 778.144C372.146 778.257 371.977 778.354 371.966 778.354C371.884 778.354 370.097 779.659 369.447 780.193C368.965 780.59 367.224 782.18 366.835 782.578C366.724 782.691 366.597 782.782 366.55 782.782C366.51 782.782 366.272 782.969 366.028 783.202C365.784 783.435 365.39 783.781 365.163 783.98C364.931 784.173 364.739 784.355 364.739 784.377C364.739 784.406 364.705 784.428 364.658 784.428C364.612 784.428 364.525 784.491 364.461 784.57C364.397 784.65 364.322 784.712 364.298 784.712C364.217 784.718 363.956 784.928 363.956 784.985C363.956 785.081 363.631 785.308 362.667 785.899C362.162 786.205 360.804 786.745 359.603 787.119C359.22 787.239 358.395 787.505 357.774 787.704C357.153 787.908 356.584 788.067 356.515 788.067C356.439 788.067 356.381 788.096 356.381 788.136C356.381 788.175 356.114 788.34 355.789 788.505C355.458 788.664 355.139 788.834 355.075 788.868C354.832 789.021 354.193 789.538 353.996 789.748C353.717 790.043 352.91 791.11 352.783 791.355C352.446 791.996 351.506 793.415 351.03 794C350.415 794.75 349.596 795.544 349.277 795.692C349.161 795.743 349.068 795.811 349.068 795.834C349.068 795.862 349.022 795.896 348.969 795.919C348.911 795.936 348.633 796.118 348.343 796.322C348.058 796.527 347.698 796.771 347.547 796.867C347.402 796.958 347.269 797.072 347.251 797.111C347.234 797.151 347.031 797.316 346.793 797.469C346.561 797.622 346.16 797.889 345.905 798.06C344.819 798.792 344.506 798.985 344.442 798.974C344.401 798.968 344.349 799.002 344.314 799.059C344.285 799.116 344.1 799.274 343.908 799.411C343.711 799.553 343.554 799.683 343.554 799.712C343.554 799.734 343.513 799.757 343.467 799.757C343.426 799.757 343.362 799.791 343.339 799.825C343.316 799.865 343.206 799.961 343.095 800.035C342.788 800.245 342.08 800.898 341.453 801.557C340.588 802.454 339.857 803.635 339.63 804.498C339.456 805.168 339.514 806.672 339.723 806.876C339.758 806.91 339.781 806.973 339.781 807.024C339.781 807.251 340.159 807.83 340.664 808.392C340.843 808.597 340.983 808.784 340.96 808.801C340.942 808.824 340.977 808.858 341.035 808.875C341.093 808.898 341.314 809.079 341.523 809.272C341.871 809.601 342.12 809.783 342.985 810.305C343.566 810.652 345.324 811.464 346.398 811.878C347.89 812.452 352.017 813.78 352.313 813.78C352.382 813.78 352.539 813.831 352.655 813.888C352.893 814.013 353.781 814.291 353.926 814.291C353.978 814.291 354.245 814.353 354.518 814.433C355.209 814.632 356.596 814.967 356.875 815.006C357.002 815.023 357.345 815.074 357.629 815.114C358.337 815.222 360.282 815.188 360.996 815.057C361.814 814.91 363.05 814.575 363.724 814.325C363.95 814.24 364.234 814.132 364.362 814.081C364.49 814.035 364.71 813.945 364.856 813.888C365.001 813.831 365.268 813.74 365.453 813.695C365.633 813.644 365.784 813.581 365.784 813.553C365.784 813.525 365.842 813.468 365.918 813.434C366.034 813.371 366.04 813.371 365.964 813.462C365.894 813.542 365.923 813.542 366.161 813.439C366.312 813.377 366.533 813.297 366.649 813.275C366.765 813.246 367.119 813.144 367.438 813.053C368.553 812.724 369.708 812.645 370.486 812.849C370.66 812.894 370.991 812.979 371.217 813.042C371.443 813.099 371.734 813.201 371.855 813.263C371.977 813.331 372.099 813.383 372.122 813.383C372.163 813.383 372.941 813.746 373.185 813.882C373.248 813.916 373.55 814.087 373.852 814.263C374.154 814.439 374.432 814.598 374.473 814.62C374.514 814.643 374.932 814.915 375.402 815.222C375.872 815.534 376.313 815.801 376.383 815.812C376.452 815.824 376.522 815.881 376.539 815.937C376.557 816 376.656 816.085 376.76 816.13C376.87 816.181 377.073 816.295 377.219 816.392C377.364 816.482 377.596 816.624 377.741 816.704C377.886 816.783 378.147 816.937 378.321 817.044C379.523 817.765 381.705 818.901 382.506 819.225C382.616 819.27 382.785 819.338 382.878 819.378C384.05 819.872 386.308 820.502 387.521 820.672C388.461 820.809 388.426 820.803 389.465 820.791C390.272 820.78 390.522 820.752 391.033 820.627Z" fill="black"/>
<path d="M317.968 797.904C310.258 797.904 304 791.647 304 783.936V769.968C304 762.229 310.258 756 317.968 756H345.905V769.968H338.921C335.063 769.968 331.937 773.095 331.937 776.952C331.937 780.809 335.063 783.936 338.921 783.936H345.905V797.904H317.968Z" fill="#F1F1F1"/>
<path d="M362.268 797.904C354.557 797.904 348.299 791.647 348.299 783.936V769.968C348.299 762.229 354.557 756 362.268 756H376.236C383.974 756 390.204 762.257 390.204 769.968V783.936C390.204 791.647 383.946 797.904 376.236 797.904H362.268Z" fill="#F1F1F1"/>
<path d="M392.599 797.904V756H420.535C428.274 756 434.503 762.257 434.503 769.968C434.503 777.678 428.246 783.936 420.535 783.936H434.503V797.904H420.535C412.825 797.904 406.567 791.647 406.567 783.936V797.904H392.599Z" fill="#F1F1F1"/>
<path d="M317.968 844V836.032C317.968 832.718 315.282 830.032 311.968 830.032H304V802.095H345.905V830.032H337.937C334.623 830.032 331.937 832.718 331.937 836.032V844H317.968Z" fill="#F1F1F1"/>
<path d="M362.268 844C354.557 844 348.299 837.742 348.299 830.032V802.095H390.204C390.204 809.806 383.946 816.063 376.236 816.063H390.204C390.204 823.774 383.946 830.032 376.236 830.032H390.204V844H362.268Z" fill="#F1F1F1"/>
<path d="M392.599 844V830.032C392.599 826.177 395.728 823.048 399.583 823.048C395.728 823.048 392.599 819.919 392.599 816.063V802.095H406.567C410.422 802.095 413.551 805.224 413.551 809.079C413.551 805.224 416.68 802.095 420.535 802.095H434.503V816.063C434.503 819.919 431.375 823.048 427.519 823.048C431.375 823.048 434.503 826.177 434.503 830.032V844H420.535C416.68 844 413.551 840.871 413.551 837.016C413.551 840.871 410.422 844 406.567 844H392.599Z" fill="#F1F1F1"/>
<defs>
<filter id="filter0_f_1408_684" x="126.2" y="633.2" width="126.6" height="294.6" filterUnits="userSpaceOnUse" color-interpolation-filters="sRGB">
<feFlood flood-opacity="0" result="BackgroundImageFix"/>
<feBlend mode="normal" in="SourceGraphic" in2="BackgroundImageFix" result="shape"/>
<feGaussianBlur stdDeviation="23.4" result="effect1_foregroundBlur_1408_684"/>
</filter>
</defs>
</svg>
