<svg width="66" height="53" viewBox="0 0 66 53" fill="none" xmlns="http://www.w3.org/2000/svg">
<path d="M20.0779 43.6916V43.3453L20.4435 43.3793C20.6409 43.3964 20.9949 43.4304 21.2271 43.4475C21.6102 43.4815 21.645 43.4929 21.645 43.6121C21.645 43.7257 21.6044 43.7427 21.2909 43.7767C21.0994 43.7995 20.7918 43.7995 20.6177 43.7767L20.2926 43.737L20.3216 43.8903C20.3449 44.0152 20.3332 44.0379 20.2172 44.0379C20.0837 44.0379 20.0779 44.0152 20.0779 43.6916Z" fill="black"/>
<path d="M17.6053 43.4758C17.5472 43.3282 17.466 43.2885 16.7927 43.0728C15.5564 42.6697 14.8192 42.2212 15.3997 42.2212C15.5099 42.2212 15.6144 42.2439 15.6318 42.2723C15.6492 42.3006 15.7479 42.3347 15.8524 42.3461C16.0671 42.3744 17.4543 42.7662 17.5704 42.8343C17.6691 42.8854 17.8142 43.2715 17.8142 43.4872C17.8142 43.6916 17.6807 43.6859 17.6053 43.4758Z" fill="black"/>
<path d="M47.8685 41.1141C47.8569 41.1084 47.497 41.0857 47.0675 41.0687C45.6803 41.0062 43.3528 40.6883 41.5361 40.3136C41.1588 40.2341 40.828 40.1887 40.7989 40.2057C40.7641 40.2284 40.7409 40.1717 40.7409 40.0808C40.7409 39.9559 40.8047 39.8651 41.0137 39.6948C41.1646 39.5699 41.3561 39.4336 41.4374 39.3882C41.7566 39.2179 42.4706 38.8829 42.7259 38.7807C42.8827 38.7239 43.0046 38.6558 43.0046 38.6331C43.0046 38.6047 43.0916 38.5877 43.1961 38.5877C43.3006 38.5877 43.4863 38.5366 43.614 38.4741C43.7417 38.4117 43.881 38.3606 43.9332 38.3606C43.9797 38.3606 44.1596 38.3095 44.3279 38.247C44.6878 38.1108 44.978 38.0994 44.978 38.213C44.978 38.2527 44.9199 38.3095 44.8503 38.3322C44.6936 38.3833 44.9954 38.4344 45.9647 38.5309C46.3013 38.5593 46.7076 38.599 46.8644 38.6161C47.3925 38.6672 49.7549 38.6501 50.492 38.5877C52.0359 38.4514 53.5508 38.1449 54.9961 37.6623C55.977 37.333 56.1395 37.2535 56.0931 37.1059C56.0641 37.0208 56.0815 36.998 56.1917 36.998C56.4065 36.998 56.8883 37.8496 57.074 38.5593C57.2423 39.1952 57.2829 39.7629 57.1436 39.5812C57.0682 39.479 57.0566 39.479 56.7606 39.6266C56.598 39.7118 56.4123 39.7799 56.3601 39.7799C56.3078 39.7799 56.2382 39.8026 56.2092 39.831C55.9886 40.024 53.8294 40.5804 52.4654 40.8018C51.4729 40.9608 51.1711 40.9949 50.2308 41.0573C49.6852 41.0914 47.8975 41.1368 47.8685 41.1141Z" fill="black"/>
<path d="M37.8388 39.9616C37.8388 39.9389 37.8794 39.8594 37.9317 39.7856C38.0071 39.6834 38.0129 39.6437 37.9549 39.6096C37.7691 39.4961 35.9176 39.3655 35.5635 39.4336L35.401 39.4677L35.6622 39.6039C36.202 39.8821 35.8015 39.9332 35.1921 39.6607C34.9715 39.5642 34.6871 39.4336 34.5594 39.3768C34.4317 39.3201 34.1705 39.2349 33.979 39.1895C33.7874 39.1441 33.4856 39.0646 33.3115 39.0192C32.6846 38.8432 31.6051 38.9283 30.6125 39.2235C30.2933 39.3144 29.9392 39.4166 29.829 39.4393C29.7187 39.4677 29.4285 39.5699 29.1905 39.6664C28.7145 39.8594 28.2038 39.9502 28.2038 39.8424C28.2038 39.8083 28.2966 39.7345 28.4069 39.6834C28.5172 39.6266 29.2776 39.2463 30.1018 38.8375C30.926 38.4287 31.8372 37.9972 32.1216 37.8837C32.4118 37.7645 32.7601 37.6225 32.9052 37.5658C33.0503 37.5033 33.3521 37.4011 33.5727 37.3387C33.799 37.2762 34.0602 37.1967 34.1531 37.1684C34.4549 37.0775 35.6216 36.9413 36.0859 36.9413C36.8579 36.9413 38.454 37.157 39.6961 37.4238C39.9341 37.4749 40.1779 37.5204 40.2359 37.5204C40.2998 37.5147 40.3346 37.5601 40.3346 37.6566C40.3346 37.7645 40.3056 37.7929 40.1895 37.7929C40.1082 37.7929 40.0444 37.8269 40.0386 37.8667C40.0386 37.9007 39.8819 38.0654 39.6845 38.2187C39.493 38.3776 39.1273 38.7353 38.8661 39.0135C38.6049 39.2973 38.3612 39.5585 38.3205 39.5982C38.2799 39.638 38.2451 39.7118 38.2451 39.7572C38.2451 39.8026 38.2219 39.8367 38.187 39.8367C38.158 39.8367 38.129 39.8764 38.129 39.9219C38.129 39.9729 38.0768 40.007 37.9839 40.007C37.9026 40.007 37.8388 39.99 37.8388 39.9616Z" fill="black"/>
<path d="M14.6509 39.8481C12.6485 39.2292 10.083 38.3776 9.22396 38.0483C8.09794 37.6112 5.97359 36.6233 5.97359 36.5382C5.97359 36.5098 5.93296 36.4871 5.88653 36.4871C5.84009 36.4871 5.75303 36.436 5.70079 36.3735C5.64275 36.3111 5.5673 36.26 5.52086 36.26C5.25967 36.26 4.13365 35.3062 3.35008 34.4149C2.97281 33.9834 2.60714 33.3873 2.60714 33.1942C2.60714 33.1432 2.58392 33.0807 2.5491 33.0466C2.33434 32.8366 2.26469 31.0312 2.45043 30.3556C2.59553 29.8162 2.66518 29.6743 2.78707 29.6743C2.86253 29.6743 2.90316 29.7481 2.95539 30.0036C3.07728 30.5884 3.38491 31.0596 4.08722 31.7579C4.43547 32.1099 4.7489 32.3994 4.77212 32.3994C4.82435 32.3994 5.03911 32.5754 5.26548 32.8139C5.35254 32.899 5.44541 32.9672 5.48023 32.9672C5.54408 32.9672 5.63695 33.0296 5.97359 33.2964C6.06065 33.3646 6.15933 33.4213 6.19415 33.4213C6.22898 33.4213 6.2638 33.4384 6.27541 33.4668C6.30443 33.5292 6.8152 33.8585 6.9545 33.9039C7.01835 33.9209 7.07639 33.9607 7.07639 33.9834C7.07639 34.0118 7.15765 34.0629 7.25052 34.1026C7.34919 34.1424 7.42465 34.1935 7.42465 34.2218C7.42465 34.2502 7.48269 34.2956 7.55814 34.324C7.62779 34.3524 7.7729 34.4433 7.88318 34.5227C7.99346 34.6022 8.10374 34.6703 8.12696 34.6703C8.15018 34.6703 8.56808 34.9315 9.06144 35.2494C10.0133 35.8739 10.0482 35.8966 10.2165 36.0499C10.2745 36.101 10.35 36.1464 10.3732 36.1464C10.4196 36.1464 10.5299 36.2203 10.8491 36.4757C10.9362 36.5439 11.0291 36.6006 11.0465 36.6006C11.0871 36.6006 11.1335 36.6347 11.4005 36.8504C11.6966 37.1002 11.8184 37.1911 11.9577 37.2819C12.0274 37.3273 12.1261 37.4125 12.1783 37.4693C12.2247 37.5204 12.3002 37.5658 12.335 37.5658C12.3757 37.5658 12.4163 37.5828 12.4279 37.6112C12.4395 37.6339 12.5614 37.7418 12.7065 37.8496C12.8516 37.9575 12.9909 38.0767 13.0141 38.1165C13.0373 38.1562 13.1012 38.1903 13.1418 38.1903C13.1882 38.1903 13.2289 38.213 13.2289 38.2414C13.2289 38.2698 13.2753 38.3095 13.3333 38.3265C13.4262 38.3606 13.7048 38.5707 13.9312 38.7864C13.9834 38.8318 14.0415 38.8716 14.0647 38.8716C14.0879 38.8716 14.1692 38.917 14.2446 38.9737C14.3143 39.0248 14.4362 39.11 14.5058 39.1554C14.5813 39.2008 14.6857 39.2803 14.738 39.3314C14.796 39.3825 14.8657 39.4336 14.8889 39.445C15.0514 39.5131 15.6086 39.8708 15.6086 39.9048C15.6086 39.9843 14.9527 39.9446 14.6509 39.8481ZM6.14772 36.3508C6.14772 36.3395 5.991 36.2259 5.79946 36.101C5.60792 35.9761 5.45121 35.891 5.45121 35.908C5.45121 35.9307 5.53827 35.9988 5.64275 36.067C5.74142 36.1294 5.89233 36.2259 5.97359 36.277C6.13611 36.3792 6.14772 36.3849 6.14772 36.3508Z" fill="black"/>
<path d="M59.1113 38.0938C59.059 37.8496 58.9894 37.6282 58.9662 37.5942C58.943 37.5658 58.9081 37.4693 58.8907 37.3898C58.8675 37.3103 58.7224 37.0491 58.5599 36.805C58.4032 36.5666 58.2697 36.3338 58.2697 36.2884C58.2697 36.243 58.2464 36.2032 58.2116 36.2032C58.1826 36.2032 58.1536 36.1124 58.1536 36.0045C58.1536 35.7717 58.2174 35.749 58.3277 35.9477C58.3683 36.0272 58.4206 36.0897 58.4438 36.0897C58.4612 36.0897 58.676 35.9648 58.9139 35.8172C59.1519 35.6696 59.4247 35.4936 59.5292 35.4368C59.86 35.2324 60.957 34.3751 61.3691 33.9947C62.321 33.1091 63.0233 32.178 63.3309 31.4059C63.4412 31.122 63.4644 30.9631 63.4586 30.4691C63.4586 29.856 63.4296 29.7538 63.0988 29.1179C62.9595 28.8568 62.3384 28.1982 62.0366 27.9995C61.8973 27.903 61.7232 27.7781 61.6535 27.7156C61.5781 27.6532 61.2066 27.4261 60.8177 27.2104C60.2199 26.8754 60.0922 26.83 60.0051 26.8868C59.9065 26.9435 59.8948 26.9322 59.8948 26.8016C59.8948 26.7108 59.9877 26.5461 60.156 26.3644C60.3011 26.1998 60.4172 26.0238 60.4172 25.9727C60.4172 25.9159 60.4579 25.8705 60.5043 25.8705C60.5507 25.8705 60.5914 25.8194 60.5914 25.757C60.5914 25.6945 60.632 25.6434 60.6784 25.6434C60.7248 25.6434 60.7655 25.598 60.7655 25.5356C60.7655 25.4788 60.8119 25.4163 60.8758 25.3993C60.9338 25.3879 61.0847 25.2176 61.2066 25.0303C61.3691 24.7748 61.4678 24.6783 61.5607 24.6783C61.6767 24.6783 61.6825 24.6953 61.6361 24.8259C61.6013 24.9054 61.6013 24.9565 61.6245 24.9394C61.6884 24.8997 62.3907 25.2347 62.3907 25.2971C62.3907 25.3255 62.4487 25.3596 62.5242 25.3823C62.7737 25.439 63.8185 26.2566 64.3989 26.847C64.9561 27.4147 65.4611 28.1244 65.5772 28.5218C65.6062 28.607 65.6701 28.7716 65.7223 28.8852C65.7687 28.9987 65.8268 29.169 65.8384 29.2542C65.8558 29.345 65.8964 29.5551 65.9312 29.7254C66.2156 31.1788 65.6062 32.9728 64.3177 34.4944C63.2787 35.715 61.7696 36.9697 60.1735 37.9405C59.7614 38.1846 59.4305 38.423 59.4305 38.4628C59.4305 38.4969 59.3783 38.5309 59.3202 38.5309C59.2274 38.5309 59.1925 38.4514 59.1113 38.0938Z" fill="black"/>
<path d="M0.517619 28.817C0.517619 28.3856 0.819439 27.6589 1.3128 26.9208C1.77714 26.2168 2.85672 25.2006 3.75057 24.6158C4.24393 24.2979 4.26134 24.2922 4.27876 24.4228C4.30197 24.6158 4.27295 24.6556 3.70414 25.1665C2.60714 26.143 1.57399 27.4147 1.04 28.431C0.819439 28.8511 0.714963 28.993 0.633704 28.993C0.540836 28.993 0.517619 28.9533 0.517619 28.817Z" fill="black"/>
<path d="M57.3352 26.0408C57.4455 25.95 57.5267 25.8648 57.5093 25.8535C57.4977 25.8421 57.37 25.8024 57.2249 25.7626C57.0798 25.7286 56.8186 25.6605 56.6445 25.6094C55.7913 25.3823 53.5218 24.9111 53.249 24.9054C53.1445 24.9054 53.1329 24.9338 53.1503 25.1041C53.1735 25.2744 53.1561 25.3028 53.0517 25.3028C52.9472 25.3028 52.9298 25.2687 52.9298 25.0643C52.9298 24.7407 52.7324 23.6791 52.5815 23.1454C52.4248 22.6117 52.3668 22.1235 52.4596 22.1235C52.4945 22.1235 52.5235 22.1632 52.5235 22.2087C52.5235 22.3052 52.5177 22.3052 53.7133 22.4982C54.2183 22.5777 54.8103 22.6855 55.0193 22.731C55.414 22.8161 56.2498 22.9978 56.7025 23.0886C57.0334 23.1624 57.3932 23.2646 58.438 23.5826C59.2332 23.8267 59.2796 23.8324 59.355 23.7358C59.4247 23.645 59.4305 23.6507 59.4305 23.8097C59.4305 24.0254 59.326 24.2241 59.0881 24.4796C58.9894 24.5874 58.9081 24.701 58.9081 24.7294C58.9081 24.7578 58.6992 24.9962 58.4496 25.2517C58.1942 25.5128 57.9214 25.7967 57.8401 25.8875C57.7589 25.9727 57.666 26.0408 57.6312 26.0408C57.6022 26.0408 57.5732 26.0806 57.5732 26.126C57.5732 26.1884 57.5093 26.2112 57.3584 26.2112L57.1378 26.2055L57.3352 26.0408Z" fill="black"/>
<path d="M6.14772 25.8024C6.14772 25.6832 6.18254 25.6264 6.2638 25.6037C6.32765 25.5867 6.37989 25.5526 6.37989 25.5299C6.37989 25.4901 7.355 24.8032 8.52745 24.0254C8.89312 23.7813 9.39808 23.4406 9.64767 23.276C10.1875 22.9183 10.4312 22.8786 10.5647 23.1341C10.6112 23.2192 10.6576 23.2987 10.675 23.3157C10.8201 23.4406 10.9652 23.7358 10.9652 23.8948C10.9594 24.0708 10.9594 24.0765 10.8782 23.9743C10.7911 23.8664 10.7853 23.8664 10.4603 24.0084C10.2745 24.0878 9.92627 24.2355 9.6883 24.3376C8.90473 24.6612 8.06892 25.0416 7.09961 25.5128L6.14772 25.9784V25.8024Z" fill="black"/>
<path d="M50.521 24.5988C50.4804 24.542 50.3005 24.5023 49.9406 24.4796C49.6562 24.4625 49.3254 24.4342 49.2151 24.4228C49.1048 24.4058 48.6463 24.3717 48.1993 24.3376C47.7524 24.3036 47.259 24.2695 47.0965 24.2525C46.9398 24.2411 46.6264 24.2127 46.4 24.1957C44.3221 24.0254 43.852 23.9573 43.1729 23.7415C42.6737 23.5769 42.1803 23.1965 41.9308 22.7877C41.716 22.4187 41.6406 21.834 41.7566 21.3514C41.8379 20.9937 41.8785 20.8802 42.0933 20.4203C42.2268 20.1251 42.755 19.2337 43.1497 18.649C43.8984 17.5249 44.0899 17.2183 44.4788 16.4859C44.8445 15.8046 44.8619 15.7536 44.7516 15.7252C44.682 15.7081 44.6297 15.657 44.6297 15.6173C44.6297 15.5492 44.9141 15.5378 46.2839 15.5378H47.9381V15.7365C47.9381 15.9636 47.8743 15.992 47.7466 15.8103C47.6595 15.6797 47.6595 15.6797 47.5434 15.9352C47.1778 16.713 47.0385 16.9969 46.667 17.6838C46.2549 18.4332 46.046 18.7796 45.2276 20.0059C44.6878 20.8234 44.3337 21.4422 44.3685 21.499C44.415 21.5671 45.3204 21.658 48.8378 21.9248C49.0642 21.9418 49.3544 21.9702 49.4937 21.9872C49.72 22.0099 49.7433 22.0043 49.7142 21.9078C49.6852 21.8169 49.7026 21.7999 49.8071 21.8226C49.9 21.8396 49.9754 21.9361 50.0683 22.1405C50.3933 22.8843 50.6661 23.9289 50.6661 24.4228C50.6661 24.684 50.6197 24.7407 50.521 24.5988Z" fill="black"/>
<path d="M13.0547 23.1738C13.0547 23.1284 12.9967 23.0319 12.9271 22.9524C12.7355 22.7537 12.6484 22.6458 12.6484 22.6061C12.6484 22.589 12.6252 22.5436 12.5904 22.5039C12.3176 22.1803 12.2422 22.0724 12.2422 22.0156C12.2422 21.9816 12.2189 21.9532 12.1841 21.9532C12.1551 21.9532 12.1261 21.851 12.1261 21.7261C12.1261 21.6012 12.1493 21.499 12.1783 21.499C12.2944 21.499 13.345 20.4544 13.8557 19.8299C14.3317 19.2451 15.272 17.8258 15.6086 17.1842C15.7363 16.9401 16.5431 15.8728 16.8217 15.5776C17.019 15.3675 17.6633 14.8452 17.9013 14.7032C17.9651 14.6635 18.3714 14.4534 18.8009 14.2377C19.5555 13.863 19.9676 13.7154 22.4286 12.949C23.6358 12.5743 24.9882 12.0349 25.4932 11.7283C26.1607 11.3196 26.4393 11.1379 26.6018 11.0073C26.7469 10.8938 26.8166 10.8767 27.0081 10.9051C27.1416 10.9278 27.4028 10.9619 27.5943 10.9846C27.8613 11.013 27.9484 11.0471 27.96 11.1265C27.9716 11.1776 27.9426 11.2231 27.902 11.2231C27.8555 11.2231 27.5711 11.4161 27.2693 11.6489C25.9924 12.6537 24.7735 13.3804 22.5853 14.4591C20.1011 15.6854 19.8921 15.799 19.2943 16.2361C18.1741 17.0537 17.9187 17.3829 16.7636 19.4552C15.9046 20.9994 15.092 21.8169 13.6642 22.572C13.4088 22.7083 13.1882 22.8275 13.1766 22.8388C13.165 22.8502 13.2115 22.9467 13.2753 23.0602L13.3972 23.259H13.2289C13.1128 23.259 13.0547 23.2306 13.0547 23.1738Z" fill="black"/>
<path d="M45.5584 13.3861C45.5584 13.2896 45.5932 13.2669 45.7558 13.2669C45.9531 13.2669 45.9589 13.2612 46.075 12.8865C46.6438 11.0584 46.6554 9.02594 46.104 7.66339C45.7906 6.8856 45.0244 5.96587 44.4092 5.61956C44.2583 5.54007 44.0957 5.43788 44.0493 5.39814C43.91 5.2846 42.9639 4.92125 42.5692 4.83609C41.8089 4.66577 40.915 4.61467 40.1837 4.68848C38.3147 4.88718 36.6025 5.39246 35.0934 6.18729C33.95 6.79476 33.4856 7.05024 33.0503 7.32843C32.4815 7.69177 32.2667 7.82803 32.139 7.90183C31.9243 8.02106 30.8795 8.8102 30.8737 8.85562C30.8737 8.87833 30.9434 8.89536 31.0246 8.89536C31.1581 8.89536 31.1639 8.90104 31.0827 8.9862C31.0072 9.06001 30.9085 9.07136 30.5661 9.04297C30.3397 9.02594 29.9973 9.00891 29.8173 9.01459H29.4807V8.78749C29.4807 8.57176 29.5155 8.53202 30.5719 7.54416C31.1697 6.98211 31.7385 6.4598 31.8314 6.39167C31.9301 6.31786 32.1739 6.11348 32.3828 5.93749C32.882 5.51736 34.7103 4.1832 34.7916 4.1832C34.8032 4.1832 34.9715 4.08668 35.1572 3.96746C35.5519 3.72334 36.4458 3.28051 36.9101 3.10451C37.0842 3.03638 37.3106 2.94554 37.4035 2.9058C37.5021 2.86606 37.6821 2.80361 37.8098 2.77523C37.9375 2.74116 38.2277 2.66168 38.454 2.59923C39.3421 2.36078 39.998 2.29265 41.1124 2.32672C41.6928 2.34375 42.2268 2.37781 42.308 2.41188C42.3893 2.44026 42.5692 2.49704 42.7143 2.53678C43.6198 2.77523 44.502 3.24077 45.1753 3.85391C45.5468 4.18888 46.0866 4.85312 46.3362 5.29027C46.429 5.44924 46.5741 5.70472 46.6612 5.858C46.9979 6.44844 47.3635 7.5101 47.5551 8.44118C47.7814 9.55393 47.9846 12.1201 47.9149 12.9433L47.8685 13.4372H47.0733C46.6322 13.4372 46.1098 13.4542 45.9125 13.4713C45.5758 13.511 45.5584 13.5053 45.5584 13.3861Z" fill="black"/>
<path d="M25.9982 52.9457C25.47 52.906 24.4542 52.6562 24.0363 52.4688C23.868 52.3893 23.7171 52.3269 23.6997 52.3269C23.6126 52.3269 23.0032 52.0203 22.7594 51.85C22.6027 51.7478 22.3879 51.6172 22.2835 51.5604C22.179 51.5037 22.0107 51.3844 21.912 51.2822C21.8133 51.1857 21.6044 51.0041 21.4535 50.8792C21.1284 50.618 20.3332 49.6983 19.9908 49.1873C18.8996 47.5636 18.296 46.1556 17.7213 43.8961C17.553 43.2318 17.5066 43.1012 17.3963 43.0047C17.3325 42.948 17.2976 42.8798 17.3209 42.8458C17.3905 42.7379 17.6807 42.7776 18.7429 43.0445C18.917 43.0899 19.2827 43.1523 19.5555 43.1864C20.1649 43.2602 20.4261 43.3397 20.4261 43.4476C20.4261 43.493 20.3855 43.527 20.3391 43.527C20.1939 43.527 20.2636 43.8563 20.6699 45.0542C20.9485 45.8774 21.4651 46.9448 21.912 47.592C22.0861 47.8418 22.2254 48.0632 22.2254 48.0802C22.2254 48.2278 23.5198 49.4598 23.8912 49.6642C24.077 49.7664 24.2627 49.8856 24.3033 49.9254C24.344 49.9651 24.4078 49.9992 24.4368 49.9992C24.4717 49.9992 24.64 50.0616 24.8083 50.1411C25.9575 50.6521 27.5827 50.6634 28.8713 50.1581C30.4848 49.528 31.3206 48.9375 33.0213 47.2286L34.2169 46.0364L35.1746 44.39L36.1382 42.7436L36.0163 42.6243L35.9002 42.5051H36.1033C36.3935 42.5051 38.3612 43.7768 38.3612 43.9699C38.3612 44.038 38.3263 44.0948 38.2915 44.0948C38.2509 44.0948 38.1348 44.2424 38.0361 44.4241C37.9375 44.6001 37.4847 45.3722 37.0378 46.1386L36.2194 47.5295L34.9367 48.824C33.0271 50.7372 31.9591 51.5264 30.3513 52.202C30.2062 52.2644 29.9857 52.3553 29.858 52.412C29.6316 52.5085 28.9699 52.7016 28.4359 52.8265C28.0645 52.9173 27.0429 53.0195 26.7121 52.9968C26.5612 52.9911 26.2361 52.9684 25.9982 52.9457Z" fill="black"/>
<path d="M21.4709 43.6974C21.4709 43.669 21.4302 43.6406 21.3838 43.6406C21.2851 43.6406 21.2735 43.5384 21.349 43.4248C21.3838 43.3624 21.4941 43.3567 21.7959 43.3851C22.4634 43.4476 22.5156 43.4646 22.5156 43.6179C22.5156 43.7541 22.5098 43.7541 21.9933 43.7541C21.6856 43.7541 21.4709 43.7314 21.4709 43.6974Z" fill="black"/>
<path d="M23.3282 43.5327C23.3282 43.4532 23.3631 43.4135 23.4443 43.4135C23.5082 43.4135 23.5604 43.3851 23.5604 43.351C23.5604 43.3056 23.6649 43.2943 23.8796 43.3113C24.1176 43.334 24.1989 43.317 24.1989 43.2602C24.1989 43.2091 24.2801 43.1864 24.4601 43.1864C24.6806 43.1864 24.7212 43.2034 24.7212 43.2943C24.7212 43.3567 24.6748 43.4192 24.6226 43.4362C24.4833 43.4703 24.1582 43.5327 24.0073 43.5554C23.9377 43.5611 23.7577 43.5895 23.6068 43.6122C23.3456 43.6519 23.3282 43.6463 23.3282 43.5327Z" fill="black"/>
<path d="M39.4059 42.1361C39.3769 42.0566 39.3073 41.9942 39.2434 41.9942C39.1854 41.9942 38.7384 41.7273 38.2451 41.398C37.7517 41.0688 37.299 40.7849 37.2468 40.7679C37.1829 40.7452 37.1423 40.677 37.1423 40.5975C37.1423 40.4443 37.1597 40.4386 37.3164 40.5181C37.4035 40.5635 37.4615 40.5067 37.7285 40.1093C37.9026 39.8538 38.0361 39.6324 38.0303 39.6154C38.0245 39.5983 38.0477 39.5472 38.0826 39.5132C38.1174 39.4734 38.1232 39.4394 38.0942 39.4337C38.0652 39.4337 38.0826 39.4167 38.1348 39.394C38.1812 39.3713 38.4308 39.1271 38.692 38.8433C38.9532 38.5651 39.3189 38.2074 39.5104 38.0484C39.7077 37.8951 39.8645 37.7305 39.8645 37.6964C39.8703 37.6567 39.9225 37.6226 39.9922 37.6226C40.056 37.6226 40.1895 37.5659 40.2882 37.5034C40.7699 37.1628 41.9308 36.6916 43.5792 36.1522C44.5369 35.8343 45.4597 35.5164 45.6281 35.4426C45.7964 35.3687 46.0692 35.2495 46.2259 35.1814C47.201 34.7556 48.2632 33.9494 49.9406 32.3427C50.6139 31.7012 51.3394 31.0199 51.5542 30.8212C51.7689 30.6282 51.9314 30.4408 51.914 30.4125C51.8966 30.3784 51.9372 30.3557 52.0127 30.3557C52.123 30.3557 52.1926 30.4352 52.3668 30.7701C52.4829 30.9915 52.6976 31.3606 52.8427 31.5763C52.982 31.7977 53.1561 32.0816 53.2316 32.2178C53.3012 32.3484 53.3825 32.4563 53.4057 32.4563C53.4289 32.4563 53.4522 32.5471 53.4522 32.655C53.4522 32.8764 53.4115 32.8991 53.307 32.7572C53.2142 32.638 53.2316 32.6266 51.4207 34.3468C50.3817 35.3347 49.2905 36.2601 48.861 36.5156C47.5667 37.282 47.439 37.3501 46.5916 37.7021C46.0344 37.9349 44.2292 38.531 44.0899 38.531C44.0551 38.531 43.9158 38.5878 43.7707 38.6502C43.6314 38.7184 43.4457 38.7695 43.3644 38.7695C43.2773 38.7695 43.1961 38.7865 43.1787 38.8092C43.1613 38.8262 42.8885 38.9568 42.5692 39.0987C42.25 39.235 41.8901 39.4053 41.7741 39.4791C41.6522 39.5529 41.5303 39.6097 41.5013 39.6097C41.4722 39.6097 41.1878 39.8595 40.8744 40.1661C40.4739 40.5521 40.1779 40.9098 39.8993 41.3356C39.4814 41.9771 39.4872 41.9544 39.7716 42.1134C39.9341 42.2042 39.8877 42.278 39.6671 42.278C39.4988 42.278 39.4524 42.2496 39.4059 42.1361Z" fill="black"/>
<path d="M19.4336 41.1426C19.3814 41.1142 18.9518 41.0006 18.4759 40.8871C17.9999 40.7792 17.4427 40.6373 17.2338 40.5748C17.0248 40.5124 16.7869 40.4613 16.6998 40.4613C16.5663 40.4613 16.5373 40.4386 16.5373 40.3194C16.5373 40.1945 16.5489 40.1831 16.6882 40.2342C16.7695 40.2683 16.8449 40.291 16.8623 40.291C16.932 40.291 16.7288 39.4678 16.4386 38.5594C16.1078 37.5318 15.4925 36.3112 14.7612 35.2098C14.6393 35.0224 14.5058 34.818 14.471 34.7556C14.4362 34.6931 14.2678 34.415 14.0995 34.1311C13.3798 32.9218 12.8748 31.5139 12.7413 30.3273C12.7181 30.1399 12.6891 29.9242 12.6775 29.8447C12.6659 29.7652 12.6426 29.3111 12.6194 28.8342C12.544 27.0345 12.4105 26.4667 11.8126 25.3937C11.5456 24.9168 10.5821 23.5316 10.4893 23.4975C10.4661 23.4861 10.4428 23.4464 10.4428 23.4123C10.4428 23.3726 10.4022 23.2931 10.3558 23.2363C10.2861 23.1455 10.2571 23.1398 10.1817 23.2023C10.1062 23.2647 10.0946 23.2477 10.0946 23.0717C10.0946 22.8957 10.1294 22.8503 10.3674 22.697C10.5241 22.6062 10.884 22.3564 11.1684 22.152C11.4586 21.9476 11.7314 21.7659 11.7778 21.7432C11.8243 21.7262 11.8881 21.6751 11.9113 21.6297C11.9345 21.5899 12.01 21.5559 12.068 21.5559C12.1319 21.5559 12.1841 21.5331 12.1841 21.4991C12.1841 21.4707 12.2828 21.4423 12.4047 21.4423L12.6194 21.448L12.4453 21.5956C12.335 21.6921 12.3002 21.7546 12.3466 21.7716C12.3815 21.7829 12.4163 21.817 12.4163 21.8511C12.4163 21.9022 12.4975 22.01 12.7645 22.3336C12.7994 22.3734 12.8226 22.4188 12.8226 22.4358C12.8226 22.4529 12.8458 22.4983 12.8806 22.538C13.1418 22.8503 13.2289 22.9695 13.2289 23.0092C13.2289 23.032 13.2753 23.1058 13.3334 23.1682C13.4727 23.3215 13.9544 24.0936 14.1924 24.5364C14.4884 25.0928 14.7786 25.916 14.9063 26.5803C15.0514 27.3183 15.063 27.4432 15.1152 28.5957C15.1385 29.0783 15.1617 29.5552 15.1733 29.646C15.2894 30.6055 15.4925 31.3776 15.806 32.0248C16.0671 32.5642 16.6127 33.5123 16.8855 33.904C16.9726 34.0289 17.1003 34.2219 17.1641 34.3298C17.2222 34.4377 17.4253 34.7783 17.6111 35.0906C17.791 35.3971 17.9825 35.7435 18.029 35.857C18.0812 35.9705 18.2031 36.243 18.3076 36.4588C18.679 37.2593 19.0795 38.5197 19.3465 39.7516C19.5961 40.8984 19.6135 40.9609 19.7644 40.995C19.9792 41.0517 19.9444 41.1993 19.718 41.1993C19.6135 41.1993 19.4858 41.171 19.4336 41.1426Z" fill="black"/>
<path d="M58.5599 36.7427C58.5599 36.4985 58.6295 36.4929 58.7862 36.7086C58.943 36.9243 58.943 36.9414 58.734 36.9414C58.5715 36.9414 58.5599 36.9243 58.5599 36.7427Z" fill="black"/>
<path d="M57.7008 35.5334C57.6138 35.4766 57.5325 34.8975 57.608 34.8975C57.666 34.8975 58.0375 35.4596 58.0375 35.5391C58.0375 35.5958 57.7937 35.5902 57.7008 35.5334Z" fill="black"/>
<path d="M3.80862 35.0281C3.75058 34.977 3.75638 34.6137 3.81442 34.6137C3.83764 34.6137 3.96533 34.7159 4.08722 34.8408L4.31358 35.0678H4.08142C3.94792 35.0678 3.82603 35.0508 3.80862 35.0281Z" fill="black"/>
<path d="M54.909 31.0824C54.1312 29.8788 53.7424 29.1351 53.7424 28.8569C53.7424 28.6298 53.7772 28.6014 53.8875 28.749C53.9513 28.8342 53.9977 28.8115 54.3576 28.5389C54.5782 28.3686 54.7697 28.2153 54.7871 28.1983C54.8045 28.1813 55.0251 27.9996 55.2805 27.8009C55.8899 27.3183 57.3758 26.0239 57.6138 25.7684C57.7183 25.6605 57.7879 25.547 57.7705 25.5243C57.7531 25.4959 57.7763 25.4732 57.8285 25.4732C57.9446 25.4732 58.7456 24.6159 58.7108 24.5251C58.6934 24.4853 58.705 24.4513 58.7398 24.4513C58.8153 24.4513 59.1113 24.1106 59.1113 24.0312C59.1113 23.9971 59.1519 23.9346 59.2041 23.9006C59.3318 23.8097 59.9007 22.873 60.0922 22.4415C60.4462 21.6637 60.5507 20.3693 60.3069 19.8243C60.2779 19.7618 60.2083 19.5972 60.156 19.4552C59.9587 18.9386 59.4711 18.3652 58.792 17.8656C58.438 17.5988 57.4861 17.0935 56.9637 16.8834C55.5301 16.3157 53.4638 15.9183 51.3046 15.7934C50.9679 15.7764 50.6197 15.748 50.5326 15.7309C50.3991 15.7025 50.3643 15.7196 50.3353 15.8161C50.3005 15.9524 50.225 15.9694 50.1205 15.8615C50.0277 15.7707 49.9696 14.533 50.0161 13.5906C50.0393 12.9945 50.0567 12.9263 50.1495 12.9263C50.2308 12.9263 50.2598 12.9661 50.2598 13.0967C50.2598 13.1932 50.2772 13.267 50.3063 13.267C52.3493 13.3749 54.1603 13.5906 55.4836 13.8858C56.8883 14.1981 57.6428 14.4592 58.8211 15.0383C59.3957 15.3222 59.9239 15.6287 60.1618 15.8218C60.2605 15.9013 60.3998 16.0034 60.4753 16.0489C60.603 16.1283 61.4794 16.9743 61.7522 17.2808C61.8102 17.349 61.9031 17.4909 61.9611 17.5931C62.0134 17.6953 62.1179 17.8656 62.1991 17.9678C62.2746 18.07 62.4023 18.3255 62.4777 18.5355C62.5474 18.7456 62.6519 19.0067 62.6983 19.1146C62.7447 19.2225 62.8028 19.4552 62.8202 19.6256C62.8434 19.7959 62.884 20.0684 62.9188 20.233C63.0059 20.6815 62.9305 21.6126 62.7389 22.3223C62.5358 23.1058 62.2804 23.6962 61.7754 24.5478C61.3285 25.3199 61.1311 25.5867 61.0209 25.5867C60.9744 25.5867 60.957 25.6208 60.9744 25.6719C60.9976 25.723 60.9628 25.7741 60.8816 25.8025C60.8119 25.8252 60.7597 25.8649 60.7597 25.8876C60.7771 26.0069 60.7597 26.0409 60.6784 26.0409C60.632 26.0409 60.6088 26.075 60.6262 26.1147C60.6668 26.2226 59.2332 27.6873 58.2697 28.5219C57.4919 29.1918 55.8319 30.5374 55.3792 30.8666C55.2515 30.9575 55.1934 31.0426 55.2108 31.1051C55.2515 31.2584 55.0077 31.2357 54.909 31.0824Z" fill="black"/>
<path d="M6.90227 25.2518C6.90227 25.1155 6.92549 25.0758 7.01255 25.0758C7.088 25.0758 7.13444 25.0304 7.14605 24.9509C7.15766 24.843 7.20409 24.8146 7.41884 24.8033C7.74969 24.7806 7.72067 24.8487 7.26213 25.1723L6.90227 25.4221V25.2518Z" fill="black"/>
<path d="M8.76543 21.1698C8.82347 21.079 8.78284 20.9881 8.51584 20.585C8.34172 20.3239 8.01668 19.7391 7.79031 19.2849C7.39563 18.4901 6.84423 17.2014 6.84423 17.0538C6.84423 17.0197 6.78038 16.7926 6.69912 16.5485C6.62367 16.31 6.54241 15.9921 6.52499 15.8388C6.50178 15.6912 6.47276 15.5038 6.46115 15.4244C6.36828 14.9815 6.36828 13.8858 6.46695 13.2954C6.87325 10.7122 8.28948 9.09416 11.2612 7.82812C11.5456 7.7089 13.0315 7.3342 13.432 7.2831C15.9917 6.95382 18.1509 7.05033 21.3258 7.62374C22.4866 7.8338 22.8291 7.90193 24.6864 8.27095C25.9111 8.51508 26.1665 8.53779 26.2768 8.42992C26.329 8.37882 26.3464 8.40153 26.3464 8.54346C26.3464 8.65701 26.3174 8.72514 26.2652 8.72514C26.2245 8.72514 26.1259 8.78759 26.0446 8.86139C25.9633 8.92952 25.8531 9.009 25.8008 9.02603C25.7486 9.04874 25.708 9.08849 25.708 9.12255C25.708 9.15094 25.6731 9.17932 25.6325 9.17932C25.5919 9.17932 25.5164 9.22474 25.4642 9.28151C25.3191 9.42912 25.1972 9.51996 25.1391 9.51996C25.1159 9.51996 25.0405 9.56538 24.9766 9.62215C24.9186 9.67892 24.7793 9.75841 24.6806 9.79815C24.5761 9.83789 24.4891 9.88899 24.4891 9.91169C24.4891 9.9344 24.3614 9.99685 24.1989 10.0593C24.0421 10.1218 23.9086 10.1842 23.9086 10.2069C23.9086 10.2296 23.7287 10.3034 23.5024 10.3772C23.2818 10.4454 23.0961 10.5248 23.0961 10.5532C23.0961 10.5759 23.0032 10.5986 22.8929 10.5986C22.7536 10.5986 22.6898 10.627 22.6898 10.6838C22.6898 10.7463 22.6259 10.769 22.4808 10.769C22.2022 10.769 22.2486 10.6554 22.5621 10.5419C22.6956 10.4965 22.8058 10.4454 22.8058 10.4283C22.8058 10.3999 21.4244 10.1274 20.6293 9.99685C20.5364 9.97982 20.2462 9.92873 19.9908 9.88331C19.5845 9.81518 19.0273 9.74138 17.8723 9.59944C17.2454 9.52564 14.9121 9.5597 14.1866 9.65622C13.078 9.79815 11.9752 10.1218 11.2845 10.5021C9.8334 11.3026 9.11368 12.2962 8.92794 13.7723C8.84668 14.3968 8.91634 15.2597 9.09046 15.8331C9.1369 15.9978 9.18333 16.1624 9.18913 16.1908C9.21235 16.2987 9.28781 16.5314 9.34004 16.645C9.36906 16.7074 9.47354 16.9572 9.57221 17.1957C9.78116 17.735 10.3268 18.808 10.5938 19.2168C10.704 19.3814 10.7911 19.5404 10.7911 19.5745C10.7911 19.6142 10.8549 19.6256 10.9362 19.6142C11.0523 19.5915 11.0813 19.6085 11.0813 19.6937C11.0813 19.8072 10.8724 20.0173 10.7563 20.023C10.7214 20.023 10.6402 20.0854 10.5821 20.1649C10.5241 20.2444 10.4428 20.3068 10.4022 20.3068C10.3616 20.3068 10.3268 20.3352 10.3268 20.3636C10.3268 20.3977 10.2861 20.4204 10.2397 20.4204C10.1933 20.4204 10.1526 20.4431 10.1526 20.4715C10.1526 20.4999 10.0888 20.5396 10.0133 20.5567C9.93788 20.5737 9.79858 20.6588 9.70571 20.744C9.60704 20.8348 9.46193 20.937 9.38067 20.9824C9.29361 21.0279 9.17172 21.1073 9.11368 21.1698C9.04983 21.2266 8.92794 21.272 8.84668 21.272C8.71899 21.272 8.70738 21.2606 8.76543 21.1698Z" fill="black"/>
<path d="M47.764 15.7934C47.764 15.7253 47.4796 15.7139 45.8486 15.7082C42.6215 15.7025 41.8263 15.572 39.9864 14.7261C39.6845 14.5898 38.9242 14.147 38.3031 13.7382C37.6821 13.3294 37.0146 12.915 36.823 12.8071C36.6315 12.7049 36.3935 12.563 36.2949 12.5005C36.1904 12.4324 35.8944 12.2962 35.6274 12.1883C35.3604 12.0861 35.1166 11.9839 35.0818 11.9612C34.9599 11.8704 33.6597 11.5695 33.0213 11.4843C32.3828 11.3991 31.8198 11.3708 29.7419 11.3083C28.5694 11.2742 27.2229 11.1721 27.0661 11.1096C27.0023 11.0869 26.9036 11.0869 26.8514 11.121C26.7643 11.1664 26.7527 11.1437 26.7527 10.9734C26.7527 10.8201 26.7934 10.7519 26.921 10.6611C27.0139 10.593 27.1068 10.5419 27.13 10.5419C27.1532 10.5419 27.2229 10.4794 27.2867 10.3999C27.3506 10.3205 27.4376 10.258 27.4841 10.258C27.5305 10.258 27.5653 10.2353 27.5653 10.2069C27.5653 10.1842 27.7568 10.0025 27.989 9.8095C28.2154 9.6108 28.6101 9.26448 28.8538 9.03171C29.2659 8.64565 29.3182 8.61159 29.5445 8.61159C29.7419 8.61159 29.7767 8.62862 29.7245 8.67972C29.6084 8.79327 29.6432 8.8103 29.9857 8.82165C30.1714 8.82733 30.479 8.84436 30.6706 8.86139C30.8621 8.87275 31.3845 8.90113 31.8314 8.92384C32.6382 8.95791 34.1125 9.1339 34.4433 9.23609C34.542 9.26448 34.8786 9.35532 35.1979 9.4348C35.7957 9.58809 36.3297 9.79815 37.2293 10.2353C38.0245 10.6214 39.1738 11.314 39.1738 11.3991C39.1738 11.4275 39.2086 11.4502 39.255 11.4502C39.3015 11.4502 39.3769 11.4843 39.4175 11.524C39.493 11.5922 39.7426 11.7568 40.2475 12.0634C40.4101 12.1599 40.5668 12.2678 40.6016 12.2962C40.6364 12.3245 40.7931 12.404 40.9499 12.4722C41.1066 12.5346 41.3387 12.6425 41.4664 12.7049C41.9656 12.9547 42.8711 13.1648 43.7881 13.2329C44.2118 13.267 45.1811 13.2783 46.7657 13.2727L47.706 13.267V13.0399C47.706 12.8469 47.7234 12.8128 47.8279 12.8128C47.9497 12.8128 47.9556 12.8298 47.9207 13.284C47.8975 13.5395 47.8801 14.2264 47.8801 14.8169C47.8801 15.4868 47.8569 15.8785 47.8221 15.8785C47.793 15.8785 47.764 15.8388 47.764 15.7934Z" fill="black"/>
<path d="M19.2072 14.0902C19.2072 13.8915 19.2072 13.8915 19.4684 13.8915C19.6425 13.8915 19.7296 13.9142 19.7296 13.9653C19.7296 14.005 19.6135 14.0959 19.4684 14.164L19.2072 14.2889V14.0902Z" fill="black"/>
<path d="M51.0724 49.2214C50.3411 49.1476 49.1454 48.9261 48.1993 48.6877C46.9166 48.3698 46.905 48.3641 46.2549 48.1256C45.9821 48.0291 45.5932 47.8872 45.3843 47.8134C45.1753 47.7396 44.8677 47.626 44.6936 47.5579C44.386 47.4387 42.0352 46.2862 41.6986 46.0875C41.6057 46.0307 41.2285 45.8207 40.8686 45.6219C40.5087 45.4232 40.0792 45.1791 39.9109 45.0769C39.7484 44.9747 39.5162 44.8442 39.4001 44.7817C39.2898 44.7192 38.9938 44.5433 38.7501 44.3843C38.5063 44.2253 38.2799 44.0947 38.2509 44.0947C38.2219 44.0947 38.187 44.072 38.1754 44.0437C38.1522 43.9869 36.4109 42.8514 35.7493 42.4654C35.0005 42.0225 33.7816 41.4434 33.4566 41.364C33.2999 41.3299 33.12 41.2731 33.0619 41.2447C32.8704 41.1482 32.0288 41.1823 31.5122 41.3015C31.0014 41.4207 29.5329 41.8976 29.0454 42.102C28.7145 42.2383 27.5537 42.6641 27.101 42.806C26.1084 43.1296 24.5471 43.493 24.5471 43.4078C24.5471 43.317 24.3846 43.351 24.3498 43.4475C24.3207 43.527 24.2569 43.5384 24.0247 43.51C23.868 43.493 23.7345 43.4986 23.7229 43.5327C23.7113 43.5668 22.5679 43.7484 22.2951 43.7541C22.2835 43.7541 22.2893 43.7314 22.3067 43.703C22.3531 43.6349 22.0281 43.5668 21.883 43.6122C21.8191 43.6292 21.7147 43.6179 21.645 43.5838C21.5695 43.544 21.5289 43.544 21.5289 43.5838C21.5289 43.6689 20.9833 43.6519 20.4842 43.5554C20.2462 43.5043 19.747 43.4191 19.3814 43.3624C19.0157 43.3056 18.6094 43.2318 18.4817 43.1977C18.0348 43.0785 17.7271 43.0161 17.524 42.9933C17.4079 42.9763 16.99 42.8685 16.5953 42.7549C16.1948 42.6357 15.7711 42.5392 15.655 42.5448C15.5331 42.5448 15.4461 42.5221 15.4519 42.4938C15.4577 42.4597 15.3938 42.4313 15.3126 42.4199C15.2255 42.4086 15.0804 42.3632 14.9934 42.3177C14.9005 42.2723 14.5929 42.1645 14.3027 42.085C12.9793 41.6989 9.43291 40.5237 8.44039 40.1377C7.26793 39.6835 5.21904 38.707 4.56897 38.2982C4.34841 38.162 4.064 37.986 3.93631 37.9065C3.60547 37.7135 3.00183 37.2309 2.40399 36.6859C2.04413 36.3566 1.24895 35.3744 0.941328 34.8918C0.598879 34.3411 0.186778 33.359 0.13454 32.9729C0.117128 32.831 0.0823027 32.6323 0.0532816 32.5357C0.0300647 32.4392 0.00684811 32.0645 0.00104388 31.7069C-0.0337815 29.6857 0.802027 27.8349 2.61875 25.8876C2.91477 25.5754 3.35589 25.1382 3.59386 24.9282C3.83183 24.7181 4.064 24.4967 4.10463 24.4399C4.14526 24.3831 4.35421 24.2185 4.56897 24.0709C4.78372 23.9289 5.0217 23.753 5.10296 23.6791C5.32932 23.4861 6.17674 22.9014 7.48269 22.0384C8.13857 21.6069 8.75382 21.1755 8.85249 21.0789C8.95696 20.9824 9.10787 20.8632 9.20074 20.8178C9.2878 20.7724 9.43291 20.6645 9.53158 20.5737C9.62445 20.4885 9.76375 20.4033 9.83921 20.3863C9.91466 20.3693 9.97851 20.3295 9.97851 20.3011C9.97851 20.2728 10.0191 20.2501 10.0656 20.2501C10.112 20.2501 10.1526 20.2273 10.1526 20.1933C10.1526 20.1649 10.1875 20.1365 10.2281 20.1365C10.2687 20.1365 10.35 20.0741 10.408 19.9946C10.4661 19.9151 10.5357 19.8526 10.5647 19.8526C10.6692 19.8526 11.1277 19.5006 11.4354 19.1884C12.1319 18.4787 12.6078 17.8202 13.5191 16.3043C13.9196 15.6344 14.5464 14.7771 15.0108 14.2548C16.2819 12.8298 18.0058 11.9328 21.4128 10.9222C22.2486 10.6724 22.771 10.4851 22.7942 10.417C22.8058 10.3942 22.8407 10.3829 22.8697 10.4056C22.8987 10.4226 22.9219 10.4113 22.9219 10.3829C22.9219 10.3602 23.1019 10.275 23.3282 10.2069C23.5546 10.1331 23.7345 10.0593 23.7345 10.0366C23.7345 10.0139 23.8622 9.95141 24.0247 9.88896C24.1873 9.82651 24.3149 9.76406 24.3149 9.74135C24.3149 9.71864 24.402 9.66755 24.5065 9.62781C24.6052 9.58807 24.7445 9.50858 24.8025 9.45181C24.8663 9.39504 24.9418 9.34962 24.965 9.34962C25.0231 9.34962 25.1449 9.25878 25.2901 9.1055C25.3423 9.0544 25.4177 9.00898 25.4526 9.00898C25.4932 9.00898 25.5338 8.96924 25.557 8.92382C25.5745 8.8784 25.6151 8.83866 25.6499 8.83866C25.7254 8.83866 25.975 8.59454 25.9517 8.53776C25.9459 8.50938 25.9866 8.5037 26.0446 8.52073C26.1665 8.56047 26.9443 7.89055 28.7436 6.18736C29.4227 5.54582 30.2759 4.77371 30.6415 4.47281C31.3032 3.92779 33.0851 2.59362 33.2535 2.51982C33.2999 2.49711 33.5379 2.35518 33.7758 2.19621C34.217 1.91234 35.5751 1.23107 36.1556 1.00398C36.3297 0.935848 36.5909 0.827979 36.736 0.771205C37.1249 0.617918 38.1348 0.345408 38.8255 0.209152C39.3479 0.106961 41.1704 -0.0406493 41.2633 0.0104465C41.2807 0.0161238 41.4606 0.04451 41.6696 0.0615419C42.6157 0.152379 43.5676 0.385149 44.3105 0.72011C44.5369 0.816624 44.8097 0.941526 44.9199 0.986944C45.3611 1.1743 46.3072 1.84422 46.7947 2.30408C47.3055 2.79233 47.973 3.60418 48.24 4.0754C48.3212 4.21166 48.4373 4.41604 48.5011 4.52391C49.0409 5.46066 49.6156 6.91405 49.7084 7.58398C49.7258 7.69184 49.7781 7.91894 49.8187 8.09493C50.0509 9.0033 50.2308 10.9052 50.2308 12.3586C50.225 13.3124 50.2134 14.8963 50.2076 15.3051C50.2018 15.4754 50.225 15.6287 50.254 15.6458C50.2772 15.6628 50.3179 15.9126 50.3353 16.1908C50.3701 16.6847 50.5152 17.5931 50.5733 17.6839C50.5907 17.7123 50.6139 17.7918 50.6313 17.8713C50.6661 18.0473 50.9157 18.6831 51.0608 18.9727C52.477 21.7262 52.9878 23.2477 53.1329 25.1325C53.1561 25.3994 53.1794 25.6776 53.191 25.757C53.2026 25.8365 53.2258 26.0012 53.2432 26.1261C53.2606 26.251 53.2896 26.4951 53.307 26.6654C53.3825 27.3126 53.8178 28.6922 54.1603 29.3621C54.4331 29.8958 54.7407 30.3897 55.4198 31.4173C56.1163 32.4676 56.6851 33.3476 57.37 34.4433C57.5557 34.7385 57.7531 35.0508 57.8169 35.1416C57.8924 35.2495 57.904 35.2949 57.8518 35.2949C57.8053 35.2949 57.8111 35.3176 57.875 35.3517C57.962 35.4028 58.4438 36.1011 58.4438 36.1749C58.4438 36.1976 58.5192 36.3225 58.6179 36.4531C58.7108 36.5893 58.7688 36.7142 58.7514 36.737C58.7282 36.754 58.7456 36.771 58.7804 36.771C58.8443 36.771 58.9662 36.9924 59.1461 37.4239C59.1751 37.4864 59.2506 37.7532 59.3144 38.02C59.4769 38.6616 59.4595 38.5991 59.6337 39.2123C59.7207 39.5075 59.7962 39.8027 59.8136 39.8652C59.8252 39.9276 59.889 40.2228 59.9529 40.518C60.0922 41.1312 60.1096 41.2845 60.156 42.0793C60.2315 43.4816 59.7613 45.1905 58.9778 46.3657C58.7166 46.7574 57.8982 47.5466 57.4513 47.8474C57.0798 48.0916 56.1453 48.5798 56.0408 48.5798C56.006 48.5798 55.9015 48.6196 55.8029 48.6707C55.6171 48.7672 54.2996 49.1078 53.8585 49.1759C53.5682 49.2157 51.3917 49.2554 51.0724 49.2214ZM54.0326 46.6268C55.1992 46.3486 55.8493 46.0364 56.511 45.4403C57.1436 44.8725 57.5906 43.72 57.6602 42.5051C57.6776 42.1872 57.579 41.2618 57.4919 40.9438C57.4455 40.7565 57.3932 40.5408 57.3816 40.4613C57.3468 40.2739 57.1727 39.6664 57.1088 39.5245C57.0856 39.4621 56.9927 39.1328 56.9115 38.7865C56.778 38.2585 56.7025 38.0768 56.4007 37.5942C56.2092 37.282 55.8435 36.6972 55.5881 36.2884C55.3327 35.8854 54.9322 35.2438 54.6943 34.8691C54.4563 34.4944 54.2125 34.114 54.1603 34.0232C53.8991 33.5974 53.22 32.6039 53.22 32.655C53.22 32.689 53.1561 32.5868 53.0749 32.4279C52.9936 32.2746 52.8137 31.968 52.6686 31.7466C52.3435 31.2527 51.7805 30.1683 51.5716 29.646C51.4845 29.4246 51.3917 29.1975 51.3626 29.135C51.3162 29.0385 51.2349 28.749 51.1014 28.2551C51.0898 28.2096 51.0434 28.0223 50.9912 27.8406C50.9157 27.5567 50.8693 27.2899 50.7532 26.4099C50.7242 26.2226 50.6197 25.2972 50.5849 24.9338C50.5558 24.6443 50.4049 23.8551 50.3179 23.5315C50.0973 22.7197 49.8884 22.2314 48.9365 20.3068C48.4083 19.2452 48.0716 18.2346 47.9614 17.383C47.9439 17.2581 47.9207 17.1162 47.9033 17.0708C47.8859 17.0253 47.8569 16.8096 47.8453 16.5882C47.8279 16.3724 47.7988 16.0999 47.7756 15.9921C47.7582 15.8842 47.7408 14.8736 47.735 13.7495C47.735 11.9612 47.7002 11.0471 47.6189 10.3148C47.4796 9.07711 47.3867 8.54912 47.2068 7.85081C47.0849 7.38527 46.6844 6.36903 46.4871 6.02839C46.4 5.87511 46.2549 5.61963 46.162 5.46066C45.3901 4.10946 44.0667 3.10458 42.5402 2.70717C42.3951 2.66743 42.2152 2.61633 42.1397 2.58227C42.0585 2.55388 41.6057 2.51414 41.1182 2.49711C40.1837 2.46304 39.493 2.53685 38.6282 2.76962C38.4018 2.83207 38.1116 2.91155 37.9839 2.94562C37.8562 2.974 37.6763 3.03645 37.5776 3.07619C37.4847 3.11593 37.2584 3.20677 37.0842 3.2749C36.6199 3.4509 35.7261 3.89372 35.3314 4.14353C35.1456 4.25707 34.9773 4.35359 34.9657 4.35359C34.8844 4.35359 33.0967 5.65937 32.4467 6.19304C31.9649 6.59045 30.2236 8.18009 29.8348 8.57751C29.7245 8.69105 29.5968 8.78189 29.5504 8.78189C29.5097 8.78189 29.2718 8.96924 29.028 9.20201C28.7842 9.43478 28.3895 9.78109 28.1631 9.9798C27.931 10.1728 27.7394 10.3545 27.7394 10.3772C27.7394 10.4056 27.7046 10.4283 27.6582 10.4283C27.6117 10.4283 27.5247 10.4908 27.4608 10.5702C27.397 10.6497 27.3215 10.7122 27.2983 10.7122C27.2171 10.7179 26.9559 10.9279 26.9559 10.9847C26.9559 11.0812 26.6308 11.3083 25.6673 11.8987C25.1624 12.2053 23.8042 12.7447 22.6027 13.1194C22.2196 13.2386 21.3954 13.5054 20.7744 13.7041C20.1533 13.9085 19.5845 14.0675 19.5148 14.0675C19.4394 14.0675 19.3814 14.0958 19.3814 14.1356C19.3814 14.1753 19.1144 14.34 18.7893 14.5046C18.4585 14.6636 18.1392 14.8339 18.0754 14.868C17.8316 15.0212 17.1932 15.5379 16.9958 15.7479C16.7172 16.0432 15.9104 17.1105 15.7827 17.3546C15.4461 17.9962 14.5058 19.4155 14.0299 20.0002C13.4146 20.7497 12.5962 21.5445 12.277 21.6921C12.1609 21.7432 12.068 21.8113 12.068 21.834C12.068 21.8624 12.0216 21.8965 11.9694 21.9192C11.9113 21.9362 11.6327 22.1179 11.3425 22.3223C11.0581 22.5267 10.6982 22.7708 10.5473 22.8673C10.4022 22.9581 10.2687 23.0717 10.2513 23.1114C10.2339 23.1512 10.0307 23.3158 9.79277 23.4691C9.5606 23.6224 9.16011 23.8892 8.90473 24.0595C7.81934 24.7919 7.50591 24.9849 7.44206 24.9736C7.40143 24.9679 7.34919 25.002 7.31437 25.0587C7.28535 25.1155 7.09961 25.2745 6.90807 25.4107C6.71073 25.5527 6.55401 25.6832 6.55401 25.7116C6.55401 25.7343 6.51338 25.757 6.46695 25.757C6.42632 25.757 6.36247 25.7911 6.33926 25.8252C6.31604 25.8649 6.20576 25.9614 6.09548 26.0352C5.78786 26.2453 5.07974 26.8982 4.45288 27.5567C3.58805 28.4538 2.85672 29.6346 2.63036 30.4976C2.45623 31.1675 2.51427 32.672 2.72323 32.8764C2.75805 32.9104 2.78127 32.9729 2.78127 33.024C2.78127 33.2511 3.15854 33.8302 3.66351 34.3922C3.84344 34.5966 3.98274 34.784 3.95952 34.801C3.94211 34.8237 3.97694 34.8578 4.03498 34.8748C4.09302 34.8975 4.31358 35.0792 4.52253 35.2722C4.87079 35.6015 5.12037 35.7832 5.9852 36.3055C6.56562 36.6518 8.3243 37.4637 9.39808 37.8781C10.8898 38.4515 15.0166 39.78 15.3126 39.78C15.3822 39.78 15.539 39.8311 15.655 39.8879C15.893 40.0128 16.7811 40.291 16.9262 40.291C16.9784 40.291 17.2454 40.3534 17.5182 40.4329C18.2089 40.6316 19.5961 40.9665 19.8747 41.0063C20.0024 41.0233 20.3449 41.0744 20.6293 41.1142C21.3374 41.222 23.2818 41.188 23.9957 41.0574C24.8141 40.9098 26.0504 40.5748 26.7237 40.325C26.9501 40.2399 27.2345 40.132 27.3622 40.0809C27.4899 40.0355 27.7104 39.9446 27.8555 39.8879C28.0006 39.8311 28.2676 39.7403 28.4534 39.6948C28.6333 39.6437 28.7842 39.5813 28.7842 39.5529C28.7842 39.5245 28.8422 39.4677 28.9177 39.4337C29.0338 39.3712 29.0396 39.3712 28.9641 39.4621C28.8945 39.5415 28.9235 39.5415 29.1615 39.4394C29.3124 39.3769 29.5329 39.2974 29.649 39.2747C29.7651 39.2463 30.1192 39.1441 30.4384 39.0533C31.5528 38.724 32.7079 38.6445 33.4856 38.8489C33.6597 38.8943 33.9906 38.9795 34.2169 39.0419C34.4433 39.0987 34.7335 39.2009 34.8554 39.2634C34.9773 39.3315 35.0992 39.3826 35.1224 39.3826C35.163 39.3826 35.9408 39.7459 36.1846 39.8822C36.2484 39.9162 36.5503 40.0866 36.8521 40.2626C37.1539 40.4386 37.4325 40.5975 37.4731 40.6202C37.5138 40.6429 37.9317 40.9155 38.4018 41.222C38.8719 41.5343 39.3131 41.8011 39.3827 41.8125C39.4524 41.8238 39.522 41.8806 39.5394 41.9374C39.5568 41.9998 39.6555 42.085 39.76 42.1304C39.8703 42.1815 40.0734 42.295 40.2185 42.3916C40.3636 42.4824 40.5958 42.6243 40.7409 42.7038C40.886 42.7833 41.1472 42.9366 41.3213 43.0444C42.5228 43.7655 44.7052 44.9009 45.5062 45.2245C45.6164 45.27 45.7848 45.3381 45.8776 45.3778C47.0501 45.8717 49.3079 46.5019 50.521 46.6722C51.4613 46.8085 51.4265 46.8028 52.4654 46.7915C53.2722 46.7801 53.5218 46.7517 54.0326 46.6268Z" fill="black"/>
</svg>
