<svg width="699" height="383" viewBox="0 0 699 383" fill="none" xmlns="http://www.w3.org/2000/svg">
<rect width="699" height="383" rx="54" fill="#0E0E0E"/>
<mask id="mask0_1314_873" style="mask-type:alpha" maskUnits="userSpaceOnUse" x="0" y="0" width="699" height="383">
<rect width="699" height="383" rx="54" fill="#0E0E0E"/>
</mask>
<g mask="url(#mask0_1314_873)">
<path d="M349.002 87.5723C353.398 87.5723 356.962 91.136 356.962 95.5317C356.962 99.4172 354.177 102.65 350.494 103.349L350.494 657.046C354.177 657.745 356.962 660.978 356.962 664.864C356.962 669.26 353.398 672.823 349.002 672.823C344.606 672.823 341.043 669.26 341.043 664.864C341.043 660.978 343.827 657.745 347.51 657.046L347.51 103.349C343.828 102.65 341.043 99.4172 341.043 95.5317C341.043 91.136 344.606 87.5723 349.002 87.5723Z" fill="#B7B7B7"/>
<path d="M357.21 582.038C357.21 586.572 353.535 590.246 349.002 590.246C344.469 590.246 340.794 586.572 340.794 582.038C340.794 577.505 344.469 573.831 349.002 573.831C353.535 573.831 357.21 577.505 357.21 582.038Z" fill="#B7B7B7"/>
<path d="M357.21 506.675C357.21 511.208 353.535 514.883 349.002 514.883C344.469 514.883 340.794 511.208 340.794 506.675C340.794 502.142 344.469 498.467 349.002 498.467C353.535 498.467 357.21 502.142 357.21 506.675Z" fill="#B7B7B7"/>
<path d="M357.21 425.341C357.21 429.875 353.535 433.549 349.002 433.549C344.469 433.549 340.794 429.875 340.794 425.341C340.794 420.808 344.469 417.134 349.002 417.134C353.535 417.134 357.21 420.808 357.21 425.341Z" fill="#B7B7B7"/>
<path d="M357.21 346.247C357.21 350.78 353.535 354.455 349.002 354.455C344.469 354.455 340.794 350.78 340.794 346.247C340.794 341.714 344.469 338.039 349.002 338.039C353.535 338.039 357.21 341.714 357.21 346.247Z" fill="#B7B7B7"/>
<path d="M357.21 201.489C357.21 206.022 353.535 209.697 349.002 209.697C344.469 209.697 340.794 206.022 340.794 201.489C340.794 196.956 344.469 193.281 349.002 193.281C353.535 193.281 357.21 196.956 357.21 201.489Z" fill="#B7B7B7"/>
<path d="M346.213 374.882L343.564 372.233L340.356 373.651C338.602 374.434 337.073 374.994 337.035 374.919C336.961 374.845 336.327 373.352 335.618 371.599L334.312 368.428H330.805H327.26L327.223 364.697L327.186 360.966L323.94 359.921C320.172 358.69 320.321 359.101 322.149 354.362L323.231 351.527L320.881 349.176C319.575 347.871 318.493 346.639 318.493 346.416C318.493 346.229 319.575 345.035 320.918 343.804L323.343 341.565L322.037 338.208C321.328 336.379 320.769 334.701 320.881 334.477C320.955 334.29 322.261 333.693 323.753 333.208C325.283 332.686 326.664 332.164 326.85 332.014C327.037 331.828 327.223 330.074 327.223 328.06L327.26 324.403L330.842 324.553L334.424 324.664L335.618 321.456C336.289 319.702 336.998 318.173 337.185 318.024C337.408 317.912 338.826 318.397 340.393 319.143C341.923 319.889 343.378 320.486 343.639 320.486C343.863 320.486 345.169 319.404 346.475 318.061C347.78 316.718 349.086 315.636 349.347 315.636C349.571 315.636 350.69 316.718 351.772 318.024C352.854 319.367 353.936 320.449 354.123 320.449C354.347 320.486 355.914 319.889 357.63 319.18C359.346 318.434 360.876 317.949 360.988 318.061C361.1 318.21 361.808 319.665 362.555 321.344L363.86 324.403L367.405 324.441H370.912L371.098 328.171L371.285 331.865L374.27 333.059C377.739 334.439 377.739 334.402 376.098 338.805L375.016 341.677L377.59 344.028L380.127 346.416L377.627 349.139L375.09 351.863L376.284 354.847C376.919 356.489 377.441 358.093 377.441 358.354C377.441 358.69 376.284 359.25 374.27 359.847L371.136 360.817L371.024 364.622L370.912 368.428H367.405H363.898L362.592 371.711C361.585 374.136 361.1 374.957 360.652 374.845C360.353 374.733 358.786 374.099 357.145 373.427L354.235 372.159L351.735 374.882C350.392 376.374 349.198 377.568 349.086 377.568C348.974 377.568 347.706 376.374 346.213 374.882ZM351.026 371.711C351.772 370.741 352.332 369.845 352.22 369.659C351.884 369.137 345.728 369.286 345.728 369.808C345.728 370.368 348.713 373.464 349.273 373.464C349.459 373.427 350.28 372.644 351.026 371.711ZM341.55 370.181C342.445 369.696 343.117 369.137 343.042 368.913C342.856 368.39 337.259 366.525 336.923 366.861C336.662 367.122 337.744 370.33 338.341 371.114C338.714 371.599 339.087 371.487 341.55 370.181ZM360.503 369.174C360.876 368.055 361.062 367.01 360.913 366.898C360.615 366.562 355.317 368.689 355.167 369.211C355.018 369.622 359.122 371.599 359.607 371.338C359.756 371.263 360.167 370.293 360.503 369.174ZM343.826 361.302C336.886 348.878 331.029 339.14 330.506 339.14C329.984 339.14 328.939 344.513 328.939 347.012C328.939 349.885 329.797 353.168 331.253 356.078C332.558 358.69 336.14 362.384 338.789 363.951C340.804 365.107 346.213 366.861 346.4 366.376C346.437 366.226 345.281 363.951 343.826 361.302ZM353.974 366.152C357.033 365.256 361.585 362.757 363.301 361.003C368.375 356.004 370.427 349.064 368.897 342.088C367.964 337.797 368.076 337.723 362.144 347.759C353.638 362.123 351.325 366.115 351.325 366.45C351.325 366.861 351.66 366.823 353.974 366.152ZM334.498 365.406C334.871 365.294 334.349 364.548 332.857 363.018C331.626 361.787 330.544 360.779 330.394 360.779C330.096 360.779 329.611 365.219 329.872 365.667C330.059 365.928 333.342 365.779 334.498 365.406ZM368.412 363.801C368.561 361.078 368.375 360.667 367.256 361.19C366.285 361.637 363.637 364.585 363.637 365.219C363.637 365.63 365.129 365.928 366.994 365.853L368.3 365.816L368.412 363.801ZM351.399 360.705C352.556 358.578 353.451 356.825 353.414 356.787C353.339 356.713 352.78 356.862 352.108 357.086C350.877 357.534 346.101 357.384 344.87 356.862C344.385 356.675 344.572 357.198 345.579 358.951C347.37 362.16 348.862 364.51 349.086 364.51C349.198 364.51 350.243 362.794 351.399 360.705ZM328.939 358.168C328.939 357.645 327.037 352.833 326.664 352.422C326.365 352.124 324.686 355.258 324.388 356.638C324.313 357.011 324.947 357.384 326.328 357.832C328.79 358.615 328.939 358.653 328.939 358.168ZM372.516 357.72C373.374 357.496 374.083 357.16 374.083 356.974C374.083 356.489 372.292 353.019 371.919 352.795C371.658 352.646 369.233 357.496 369.233 358.242C369.233 358.466 369.867 358.392 372.516 357.72ZM352.556 354.213C356.1 352.422 357.667 349.997 357.667 346.341C357.63 342.461 354.981 339.028 351.213 337.984C348.265 337.163 344.012 338.73 342.109 341.304C340.505 343.505 340.02 347.274 341.027 349.699C341.699 351.34 343.676 353.28 345.542 354.101C347.445 354.959 350.952 355.034 352.556 354.213ZM326.328 346.602C326.328 343.058 326.067 342.908 323.679 345.11L322.037 346.602L323.716 348.094C326.141 350.221 326.328 350.109 326.328 346.602ZM374.605 348.206C375.501 347.423 376.284 346.677 376.284 346.565C376.322 346.154 372.852 343.58 372.441 343.729C371.994 343.879 371.658 348.206 371.994 349.064C372.292 349.848 372.777 349.699 374.605 348.206ZM340.281 339.663C341.027 338.693 341.624 337.76 341.624 337.573C341.624 337.424 339.796 337.275 337.52 337.275C335.282 337.275 333.416 337.424 333.416 337.611C333.416 337.797 334.386 339.551 335.543 341.565L337.67 345.222L338.267 343.319C338.64 342.237 339.498 340.595 340.281 339.663ZM361.808 343.543C362.256 342.647 363.189 341.043 363.86 339.961C364.569 338.879 365.129 337.834 365.129 337.648C365.129 337.424 363.338 337.275 360.652 337.275C358.189 337.275 356.175 337.387 356.175 337.499C356.175 337.611 356.585 338.058 357.07 338.431C358.078 339.215 360.279 343.356 360.279 344.438C360.279 345.595 360.988 345.184 361.808 343.543ZM328.156 337.834C328.865 336.305 329.312 334.924 329.201 334.812C328.939 334.551 324.761 335.409 324.313 335.82C323.753 336.342 325.992 341.267 326.626 340.856C326.775 340.782 327.484 339.401 328.156 337.834ZM373.113 338.543C373.673 337.387 374.046 336.23 373.971 335.969C373.785 335.521 371.285 334.663 370.016 334.663C369.606 334.663 369.233 334.85 369.233 335.111C369.233 336.006 371.285 340.633 371.695 340.633C371.956 340.633 372.591 339.7 373.113 338.543ZM357.593 334.701C361.734 334.663 365.129 334.514 365.129 334.365C365.129 333.73 361.547 330.41 359.421 329.03C353.862 325.411 346.064 325.187 339.983 328.433C337.856 329.552 333.043 333.656 333.043 334.327C333.043 334.663 339.983 334.924 346.288 334.812C348.34 334.775 353.414 334.738 357.593 334.701ZM332.82 330.298C333.976 329.253 334.909 328.209 334.909 328.022C334.909 327.612 333.118 327.201 331.141 327.201C329.872 327.201 329.686 327.313 329.686 328.097C329.686 329.738 330.171 332.462 330.432 332.35C330.581 332.275 331.663 331.38 332.82 330.298ZM368.114 331.231C368.114 330.559 368.226 329.365 368.337 328.619L368.599 327.201H366.957C365.092 327.201 363.637 327.537 363.637 327.91C363.637 328.321 367.405 332.425 367.778 332.425C367.964 332.425 368.114 331.865 368.114 331.231ZM340.281 325.149C341.848 324.441 343.117 323.769 343.117 323.657C343.117 323.359 339.46 321.605 338.864 321.605C338.341 321.605 337.819 322.836 337.334 325.261C337.185 325.896 337.147 326.455 337.259 326.455C337.334 326.455 338.714 325.858 340.281 325.149ZM361.211 325.635C360.54 323.209 359.719 321.232 359.421 321.232C358.861 321.232 355.429 323.172 355.429 323.508C355.429 323.918 355.988 324.254 358.6 325.373C361.398 326.642 361.51 326.642 361.211 325.635ZM351.884 322.463C351.063 321.157 349.422 319.367 349.049 319.367C348.75 319.367 346.101 322.874 346.101 323.247C346.101 323.359 347.556 323.471 349.31 323.471H352.519L351.884 322.463Z" fill="#0F9EE2"/>
<path fill-rule="evenodd" clip-rule="evenodd" d="M403.048 214.74C403.068 214.652 403.089 214.56 403.111 214.464L403.108 214.48C403.087 214.57 403.067 214.657 403.048 214.74ZM612.485 636.273C612.535 636.414 612.585 636.557 612.635 636.7L612.622 636.661C612.576 636.531 612.53 636.402 612.485 636.273Z" fill="#696969"/>
<path d="M383.901 183.943L385.073 179.704L312.953 179.826L315.359 183.377L383.901 183.943Z" fill="#696969"/>
<path d="M300.09 162.06L303.237 165.329C303.237 165.329 310.438 145.899 347.755 145.899C385.073 145.899 392.273 162.58 392.273 162.58L394.028 158.485C394.028 158.485 385.073 141.795 347.755 141.795C310.438 141.795 300.09 162.06 300.09 162.06Z" fill="#696969"/>
<path d="M172.765 685.142C171.683 683.501 172.392 682.493 176.458 679.732C180.786 676.822 188.435 672.942 194.329 670.666C205.671 666.227 219.289 663.727 232.496 663.727C238.428 663.69 239.137 663.652 238.503 663.167C237.384 662.309 227.497 658.243 224.997 657.608C222.05 656.862 217.386 656.862 210.969 657.608C207.872 657.981 205 658.131 203.768 657.944C199.478 657.422 196.456 654.027 196.456 649.699C196.456 646.975 197.538 644.811 200.075 642.461C202.575 640.222 205.074 639.327 211.379 638.581C215.521 638.059 215.782 637.984 221.266 635.223C231.302 630.112 234.026 630.074 249.248 634.589C259.471 637.648 263.91 638.506 269.245 638.469C274.506 638.432 276.931 637.909 286.37 634.813C295.026 632.014 295.847 631.791 299.503 631.268C304.577 630.559 310.248 631.977 313.568 634.813C315.434 636.38 317.784 639.625 320.172 643.953C321.329 646.117 322.634 648.318 323.007 648.878C323.418 649.4 323.716 650.035 323.716 650.296C323.716 650.52 323.903 650.594 324.089 650.482C324.761 650.072 324.462 651.266 323.716 652.087C322.709 653.169 322.448 653.131 323.194 651.975C323.977 650.781 323.53 649.997 322.56 650.93C322.187 651.303 321.627 651.825 321.291 652.087C320.806 652.497 320.806 652.721 321.142 653.131C321.366 653.43 321.515 653.766 321.403 653.84C321.067 654.213 318.195 649.923 316.068 645.856C312.636 639.252 309.8 636.715 304.838 635.745C301.592 635.111 298.719 635.633 288.907 638.767C276.073 642.834 271.857 643.58 265.141 642.834C259.769 642.274 253.874 640.894 246.487 638.544C234.697 634.738 232.16 634.85 223.02 639.252C216.64 642.312 215.558 642.685 211.417 643.021C207.499 643.356 204.925 644.14 203.395 645.52C200.635 647.945 200.075 650.855 202.052 652.609C203.47 653.877 203.992 653.915 213.021 653.019C223.281 652.049 225.296 652.422 238.018 657.795C241.861 659.436 247.532 661.75 250.666 663.018L256.299 665.257L267.156 666.712C283.721 668.913 285.176 669.062 295.175 669.025C302.152 669.025 306.107 668.838 310.845 668.241C314.314 667.831 317.299 667.607 317.486 667.794C317.672 667.98 317.859 668.353 317.896 668.614C318.232 670.368 318.642 671.189 319.165 671.189C320.545 671.189 319.09 671.636 316.031 672.121C309.427 673.166 303.57 673.539 294.615 673.539C285.587 673.539 278.461 672.942 267.753 671.375C248.278 668.503 234.101 667.607 223.356 668.614C207.425 670.032 191.345 675.479 179.107 683.538C176.943 684.956 174.78 686.112 174.295 686.112C173.735 686.112 173.138 685.739 172.765 685.142Z" fill="#696969"/>
<path d="M342.93 284.744C341.251 284.184 341.065 283.998 341.065 282.991C341.065 281.685 341.102 281.685 346.176 282.394C349.347 282.841 350.131 282.804 355.429 281.834C356.623 281.647 356.809 281.722 357.182 282.543C358.078 284.483 355.391 285.416 348.9 285.378C346.027 285.378 344.236 285.192 342.93 284.744Z" fill="#696969"/>
<path d="M338.155 276.648C334.013 276.126 333.043 275.753 333.043 274.559C333.043 273.141 334.237 272.805 337.409 273.365C342.259 274.148 351.325 274.41 356.361 273.813C358.824 273.551 361.771 273.328 362.89 273.29C364.831 273.29 364.942 273.328 365.054 274.26C365.204 275.603 364.532 276.014 361.547 276.462C357.369 277.133 342.781 277.245 338.155 276.648Z" fill="#696969"/>
<path d="M344.311 261.874C341.475 260.755 340.356 260.12 340.057 259.449C339.759 258.814 339.759 258.441 340.132 257.994C340.804 257.173 341.624 257.285 344.46 258.628C348.303 260.419 350.093 260.419 353.712 258.628C355.317 257.807 356.958 257.248 357.331 257.322C358.115 257.546 358.525 258.553 358.189 259.449C357.816 260.419 350.765 263.403 348.937 263.403C348.489 263.403 346.437 262.695 344.311 261.874Z" fill="#696969"/>
<path d="M352.257 249.077C351.772 248.704 351.698 247.286 351.772 237.847L351.884 227.027H354.123L354.235 238.071C354.309 248.816 354.309 249.152 353.6 249.338C353.19 249.45 352.593 249.338 352.257 249.077Z" fill="#696969"/>
<path d="M323.156 237.399C317.597 236.168 314.314 233.78 315.956 232.139C316.627 231.467 317.56 231.579 319.538 232.586C323.679 234.676 328.827 234.788 333.566 232.81C335.841 231.84 336.513 231.728 337.147 232.064C337.707 232.363 337.893 232.773 337.819 233.482C337.744 234.303 337.259 234.713 335.319 235.646C334.013 236.317 332.036 237.026 330.879 237.25C328.865 237.66 324.649 237.735 323.156 237.399Z" fill="#696969"/>
<path d="M366.994 237.138C364.159 236.392 361.734 235.31 360.876 234.377C360.204 233.631 360.204 233.519 360.801 232.624C361.137 232.101 361.585 231.691 361.734 231.691C361.92 231.691 363.413 232.213 365.017 232.885C367.629 233.967 368.337 234.079 371.658 234.116C375.202 234.116 375.538 234.041 378.262 232.736C380.836 231.504 381.172 231.43 381.881 231.915C384.716 233.93 379.12 237.25 372.404 237.511C370.315 237.586 368.263 237.437 366.994 237.138Z" fill="#696969"/>
<path d="M358.376 223.334C357.406 222.849 357.107 222.028 357.443 220.685C357.704 219.64 360.017 218.633 365.278 217.327C372.068 215.611 379.605 216.208 385.723 218.931C388.447 220.2 389.081 221.095 388.111 222.513C387.253 223.819 386.432 223.856 383.41 222.625C378.97 220.871 374.531 220.237 370.165 220.797C368.151 221.058 365.353 221.692 363.86 222.177C359.271 223.819 359.309 223.819 358.376 223.334Z" fill="#696969"/>
<path d="M310.099 222.588C308.867 220.759 310.024 219.64 314.949 217.961C318.829 216.656 321.552 216.282 326.216 216.469C332.82 216.73 340.468 219.006 341.065 220.871C341.401 221.916 340.356 223.483 339.311 223.483C338.901 223.483 336.924 222.961 334.946 222.326C327.82 220.051 322.187 220.013 316.18 222.215C312.113 223.707 310.882 223.782 310.099 222.588Z" fill="#696969"/>
<path fill-rule="evenodd" clip-rule="evenodd" d="M228.206 749.873C200.075 755.73 165.378 759.909 153.775 758.864C137.657 757.447 122.734 750.507 115.011 740.919C111.877 737.001 107.81 728.905 106.206 723.421C104.378 717.19 103.52 711.594 103.445 705.811C103.408 702.118 103.296 700.663 102.96 700.663C102.736 700.663 102.438 700.812 102.326 700.998C101.841 701.745 98.5576 702.192 96.7668 701.782C94.6401 701.222 92.2151 699.208 91.6554 697.491C91.4316 696.782 91.0958 696.186 90.9466 696.186C90.7973 696.186 90.2004 696.708 89.5662 697.342C85.6487 701.483 79.4928 700.737 77.0304 695.85C75.8365 693.537 75.6873 691.298 76.5454 689.246C77.1423 687.791 79.9032 684.135 86.2457 676.412C88.5215 673.651 91.2824 670.219 92.4016 668.764L92.4821 668.662C93.5929 667.255 95.0697 665.384 95.834 664.51C96.6175 663.615 97.2518 662.757 97.2518 662.645C97.2518 662.496 95.3863 662.197 93.0732 661.936C88.0738 661.414 85.3876 660.294 84.0071 658.205C82.776 656.265 79.6793 646.453 79.4555 643.767C79.3062 642.051 79.4555 641.006 80.0897 639.29C80.5374 638.058 81.6567 634.962 82.5148 632.425C83.4102 629.888 84.2683 627.687 84.4922 627.463C84.6787 627.276 84.7533 625.933 84.6787 624.441C84.4175 620.71 85.1264 619.74 89.79 617.277C91.7674 616.27 94.6775 614.554 96.319 613.509C97.9606 612.465 99.8261 611.457 100.423 611.233C101.057 611.01 104.415 610.711 107.885 610.599C111.392 610.487 115.757 610.226 117.585 609.965C122.361 609.368 128.74 609.741 132.882 610.86C134.747 611.383 136.277 611.793 136.277 611.756C136.293 611.74 136.484 611.481 136.79 611.067L136.795 611.06C137.213 610.495 137.846 609.639 138.553 608.696C147.544 596.534 153.215 585.64 164.669 558.703C171.981 541.503 177.69 531.766 187.987 518.894C190.673 515.574 193.173 512.104 193.583 511.246C194.329 509.53 194.59 507.851 195.784 495.651C197.874 474.086 200.821 456.887 205.522 438.829C207.275 431.965 207.425 431.181 207.462 426.816C207.462 424.242 207.275 419.578 207.014 416.444C204.776 388.574 210.335 368.577 224.102 354.773C232.347 346.49 239.585 342.722 254.658 338.767C258.575 337.76 263.089 336.417 264.656 335.783C266.261 335.148 272.454 332.014 278.386 328.806C307.524 313.099 307.785 312.912 309.949 309.778C312.188 306.532 312.3 305.973 312.449 294.258L312.598 283.55L310.733 281.013C306.703 275.566 304.913 271.313 303.607 263.777C303.159 261.202 302.711 258.74 302.599 258.292C302.487 257.733 302.152 257.434 301.629 257.434C298.458 257.434 294.988 254.711 293.198 250.793C290.735 245.458 288.161 233.556 288.124 227.214C288.086 223.297 288.161 222.737 289.094 220.797C290.138 218.558 292.414 216.506 294.354 216.133C295.511 215.909 295.548 215.574 294.802 212.701C294.093 209.903 292.153 198.076 291.668 193.561C290.287 180.876 292.451 170.99 298.234 163.901C298.601 163.437 299.289 162.763 300.09 162.06L303.237 165.329C299.406 168.903 297.219 173.503 296.294 179.794C295.399 185.727 295.623 191.099 297.264 200.911C297.973 205.127 299.652 213.298 300.062 214.529C300.174 214.827 300.622 213.969 301.107 212.664C301.555 211.32 302.413 209.231 303.01 208C304.987 203.709 305.136 203.038 305.099 197.889C305.062 191.92 305.435 189.719 307.076 186.361C308.505 183.469 310.492 181.291 312.953 179.826L315.359 183.377C313.411 184.666 311.703 186.597 310.733 188.749C309.837 190.689 309.763 191.397 309.539 197.74L309.278 204.642L307.897 207.813C304.428 215.536 303.942 217.327 303.196 224.677C302.823 228.52 302.861 229.005 304.689 241.652C308.233 265.978 308.942 269.373 311.852 274.521C315.546 281.088 328.081 295.079 333.416 298.623C334.536 299.369 336.812 300.414 338.453 300.973C341.065 301.794 342.259 301.943 347.818 302.13C358.973 302.428 362.89 301.011 370.128 293.997C378.224 286.162 384.604 278.252 387.365 272.507C389.454 268.216 390.163 264.97 392.7 247.361L392.706 247.319L392.708 247.305C393.75 240.235 394.79 233.179 395.051 231.579C395.909 226.02 394.491 217.141 391.767 211.022C388.969 204.717 388.895 204.381 388.633 197.367C388.447 192.666 388.186 190.353 387.701 189.084C387.16 187.524 385.389 185.214 383.901 183.943L385.073 179.704C387.504 181.151 389.801 183.359 390.909 185.503C392.588 188.786 392.812 189.98 393.073 196.807L393.372 203.523L395.237 207.627C396.282 209.903 397.326 212.477 397.588 213.372C397.811 214.23 398.073 214.902 398.185 214.827C398.446 214.529 400.162 205.985 401.132 199.979C404.193 181.067 401.363 168.978 392.273 162.58L394.028 158.485C395.538 159.491 397.142 160.66 397.961 161.401C403.482 166.401 406.877 175.952 406.915 186.361C406.915 191.92 405.087 205.836 403.37 213.335L403.111 214.464L403.108 214.48L403.1 214.516C402.93 215.253 402.811 215.772 402.811 215.797C402.811 215.872 403.557 216.133 404.452 216.357C406.803 216.954 408.855 219.379 409.713 222.55C410.832 226.617 410.011 234.265 407.474 243.63C405.273 251.8 403.706 254.524 400.087 256.315C398.856 256.949 397.364 257.434 396.767 257.434C396.207 257.434 395.722 257.546 395.722 257.733C395.722 257.882 395.312 260.381 394.789 263.292C393.409 271.313 391.693 275.38 387.253 281.461L385.649 283.625V292.094C385.686 305.003 386.246 307.764 389.678 311.271C391.506 313.136 396.282 316.158 403.37 319.926C408.668 322.724 415.197 326.232 423.331 330.671C431.725 335.223 434.747 336.454 442.731 338.543C450.827 340.633 454.894 342.013 459.707 344.364C471.011 349.848 478.66 357.496 484.331 368.95C488.696 377.755 490.748 386.037 491.606 398.461C492.053 404.505 491.942 408.087 490.972 420.1C490.337 428.159 490.412 429.204 492.016 435.397C497.053 454.947 500 471.587 502.201 492.853C503.694 506.955 503.88 508.597 504.291 510.089C504.813 511.917 506.305 514.081 510.969 519.715C516.976 527.027 523.02 536.28 527.198 544.675C528.84 547.92 532.272 555.643 539.548 572.32C541.711 577.357 544.696 583.737 546.114 586.498C550.815 595.526 557.344 605.936 561.187 610.525L562.306 611.868L565.477 610.898C569.469 609.666 575.737 609.331 581.035 610.002C583.05 610.263 587.639 610.562 591.258 610.711L597.787 610.935L601.144 613.024C602.973 614.181 605.883 615.86 607.636 616.718C612.859 619.292 614.501 621.568 613.606 624.926C613.27 626.157 613.307 626.567 613.792 627.276C614.091 627.724 614.799 629.515 615.322 631.268C615.844 633.022 616.889 635.857 617.598 637.611C618.791 640.484 618.903 641.006 618.754 643.58C618.568 646.378 616.217 654.437 614.725 657.384C613.232 660.332 611.143 661.339 605.36 661.936C603.122 662.197 601.294 662.533 601.294 662.72C601.294 662.943 602.077 664.025 603.047 665.182C606.703 669.622 619.612 685.851 620.769 687.53C621.925 689.172 622 689.507 622 692.343C622 695.178 621.925 695.477 620.843 696.782C619.015 699.058 617.933 699.655 615.508 699.842C612.673 700.028 611.031 699.469 609.166 697.641C608.308 696.857 607.524 696.186 607.338 696.186C607.188 696.186 606.703 697.006 606.293 698.014C605.174 700.588 602.749 701.968 599.615 701.931C598.309 701.931 596.891 701.633 596.182 701.26C595.511 700.924 594.951 700.775 594.914 700.924C594.914 701.11 594.914 702.565 594.951 704.207C595.026 710.475 593.795 717.862 591.37 725.286C588.683 733.569 585.699 738.68 580.401 743.941C570.215 754.126 551.598 760.207 534.548 758.864C485.301 755.022 446.537 746.291 397.774 727.973C381.769 721.929 375.016 719.205 357.928 711.855L349.012 708.012L345.243 709.729C307.039 726.853 257.941 743.68 228.206 749.873ZM301.07 591.945L296.593 591.124C290.698 590.079 284.057 588.363 277.826 586.386L272.79 584.781L272.864 576.984C272.976 567.955 273.312 563.926 274.879 552.211C275.998 544.078 276.036 543.406 275.849 533.706C275.551 519.043 274.916 514.268 270.365 494.084C265.216 471.437 263.276 460.319 262.679 450.694L262.418 446.403L265.477 449.313C270.663 454.275 276.707 457.708 284.467 460.17C290.138 461.961 293.944 462.409 303.942 462.409C316.777 462.446 319.127 461.924 318.568 459.051C318.269 457.409 317.784 457.297 311.889 457.782C305.435 458.342 296.257 458.081 291.481 457.223C285.102 456.066 279.02 453.716 274.021 450.507C270.439 448.157 265.067 442.71 262.306 438.568C258.277 432.524 254.471 424.279 252.643 417.675C252.27 416.444 251.785 415.064 251.486 414.579C250.442 412.937 247.606 413.907 247.606 415.959C247.606 418.757 253.128 432.263 256.71 438.121L258.015 440.247L257.307 447.075C256.486 454.91 256.15 457.409 254.881 464.871C252.158 480.541 249.472 490.614 242.458 511.134C240.331 517.402 237.757 525.535 236.749 529.229C234.1 538.892 233.317 541.093 230.78 545.682C223.878 558.106 210.484 576.126 192.949 596.571C190.039 599.966 185.412 605.413 182.652 608.696C175.638 617.091 165.079 629.664 163.512 631.455L162.244 632.947L161.983 631.828C161.05 627.649 159.781 625.672 158.065 625.672C157.058 625.672 155.827 626.642 155.827 627.425C155.827 627.649 156.274 628.731 156.834 629.813C158.886 633.731 158.326 639.439 155.267 645.632C153.103 650.035 146.686 658.802 133.255 675.703C131.203 678.277 127.92 682.493 125.98 684.993C120.532 692.082 119.077 693.574 117.548 693.574C115.906 693.574 114.787 692.455 114.787 690.85C114.787 689.918 116.205 687.493 121.167 679.956C124.674 674.621 127.696 669.846 127.882 669.361C128.405 668.092 127.397 666.712 125.98 666.712C125.084 666.712 124.599 667.122 122.846 669.622C121.726 671.189 118.555 675.293 115.832 678.725C114.427 680.475 112.666 682.692 110.978 684.817C109.391 686.814 107.868 688.731 106.766 690.104C101.468 696.782 100.535 697.678 98.968 697.678C96.2444 697.678 94.6775 694.88 95.9833 692.417C96.6548 691.037 96.9906 690.589 108.37 675.591C113.593 668.689 115.906 665.368 115.906 664.697C115.906 663.578 114.451 662.458 113.518 662.831C113.145 662.981 109.191 667.458 104.714 672.83C88.2604 692.529 86.3576 694.693 85.2756 695.29C83.1864 696.335 80.724 695.029 80.2763 692.641C80.0151 691.112 80.6493 690.142 87.9246 681.225C104.564 660.817 106.206 658.69 106.206 657.683C106.206 655.444 103.37 655.183 101.729 657.31L100.983 658.243L95.5356 657.795C89.4542 657.272 88.5961 657.049 87.738 655.78C86.9172 654.474 83.8206 644.476 83.8206 643.021C83.8206 642.312 84.4922 639.924 85.2756 637.723C86.0964 635.521 86.9918 632.947 87.253 632.014C87.8126 630.074 88.6707 629.739 90.4989 630.671C92.1778 631.567 92.7001 633.581 92.0285 636.977C91.0958 641.901 91.1331 642.983 92.1405 645.222C92.6628 646.341 93.5582 647.535 94.1178 647.908C95.6475 648.953 98.8187 648.803 101.356 647.647C103.781 646.49 108.407 642.312 111.541 638.357C112.772 636.827 113.891 635.559 114.003 635.596C114.115 635.596 115.347 636.156 116.69 636.79C122.771 639.775 129.748 639.775 135.866 636.865C138.441 635.633 139.15 634.813 138.963 633.208C138.776 631.455 137.247 631.306 134.486 632.686C131.352 634.253 128.74 634.775 124.86 634.514C119.413 634.178 116.727 632.723 112.996 627.985C111.541 626.12 108.706 624.59 106.28 624.329C104.863 624.142 103.855 624.366 101.169 625.411C99.3411 626.12 96.9906 626.828 96.0206 626.978C92.2897 627.5 88.4842 625.635 88.7454 623.471C88.8573 622.65 89.5288 622.128 93.1478 620.225C95.4983 618.994 98.3337 617.389 99.453 616.718C101.465 615.414 101.505 615.412 107.261 615.115L107.288 615.114C110.496 614.964 115.533 614.591 118.518 614.293C126.166 613.547 130.121 614.143 137.657 617.128C141.164 618.546 141.425 618.583 142.283 618.024C142.768 617.688 143.291 617.165 143.403 616.867C143.739 616.009 142.806 614.591 141.612 614.069L140.53 613.659L141.612 612.278C143.664 609.666 148.775 601.757 151.536 596.944C156.386 588.475 159.483 582.021 167.243 564C176.869 541.652 180.301 535.646 191.233 521.953C193.956 518.558 196.568 515.014 197.09 514.044C198.433 511.432 198.956 508.522 199.814 499.382C202.015 476.25 204.515 461.177 209.439 441.441C211.864 431.741 211.939 431.368 211.939 426.629C211.939 423.981 211.752 419.503 211.491 416.78C210.932 410.549 210.894 398.909 211.454 394.059C213.058 379.173 218.58 366.376 226.974 358.056C231.489 353.579 235.07 351.005 240.331 348.468C245.666 345.893 247.233 345.334 257.045 342.685C266.298 340.222 267.977 339.513 278.573 333.731C281.702 332.014 286.385 329.479 290.704 327.14L290.717 327.133C292.778 326.017 294.757 324.946 296.443 324.03C310.434 316.531 312.635 314.852 314.911 310.189C316.441 307.092 316.963 303.361 317.001 295.75V289.147L322.298 294.482C330.245 302.503 332.82 304.219 339.349 305.861C342.967 306.756 355.727 306.756 359.309 305.824C365.092 304.369 370.725 300.451 376.918 293.698C379.12 291.31 381.022 289.37 381.134 289.445C381.246 289.482 381.284 291.833 381.209 294.668C381.134 298.884 381.47 303.66 382.03 307.129C382.104 307.465 383.746 309.405 385.686 311.42C387.589 313.435 389.865 315.972 390.685 317.016C391.767 318.434 392.924 319.367 394.789 320.337C398.185 322.128 404.975 325.746 418.107 332.835C423.965 336.006 430.084 339.103 431.762 339.775C433.441 340.446 437.956 341.827 441.836 342.834C454.297 346.08 459.408 348.393 467.019 354.101C475.563 360.518 482.316 371.711 485.189 384.097C487.39 393.425 487.875 406.333 486.606 420.399C485.823 429.017 485.823 429.055 489.218 442.859C493.732 461.252 495.859 473.75 497.948 494.345C499.366 508.261 499.478 509.343 500.224 511.656C500.634 513.037 501.604 514.827 502.686 516.245C509.327 524.789 515.745 533.445 517.535 536.317C520.222 540.571 526.116 552.397 529.437 560.195C536.936 577.73 541.861 588.288 546.189 596.011C548.427 600.003 553.725 608.174 556.038 611.233C557.605 613.285 557.792 614.106 556.747 614.106C556.038 614.106 555.031 615.337 555.031 616.233C555.031 617.165 556.15 618.21 557.195 618.21C557.605 618.21 559.284 617.688 560.888 617.091C568.089 614.293 574.319 613.509 580.96 614.442C582.415 614.666 586.333 614.927 589.728 615.076C596.443 615.337 596.891 615.449 600.995 617.949C602.525 618.882 604.95 620.225 606.405 620.971C609.427 622.463 610.061 623.21 609.39 624.553C608.755 625.858 606.853 626.828 604.428 627.052C602.599 627.239 601.704 627.052 597.525 625.635C592.899 624.068 592.675 624.03 590.959 624.478C588.497 625.15 585.81 626.94 584.542 628.806C581.856 632.611 578.722 634.253 573.499 634.551C569.507 634.738 567.044 634.29 563.91 632.723C561.411 631.455 560.59 631.38 559.769 632.313C558.836 633.358 558.985 634.44 560.254 635.484C562.231 637.163 568.536 639.066 572.081 639.103C574.916 639.103 579.431 638.021 581.968 636.715L584.467 635.447L585.96 637.387C586.78 638.432 589.168 641.006 591.332 643.095C595.772 647.498 597.675 648.542 601.032 648.542C603.644 648.542 604.838 647.796 606.069 645.446C607.039 643.468 607.114 641.565 606.293 637.611C605.398 633.096 606.442 630.522 609.166 630.41C610.248 630.335 610.434 630.485 610.845 631.641C611.07 632.252 611.821 634.387 612.622 636.661L612.635 636.7L613.009 637.76L614.725 642.535L614.165 645.035C613.419 648.281 611.442 654.325 610.658 655.631C609.949 656.899 608.793 657.198 603.346 657.758C601.107 657.981 598.869 658.242 598.421 658.317C597.824 658.466 597.19 658.093 596.108 657.011C595.287 656.19 594.466 655.519 594.28 655.519C593.571 655.519 591.966 657.086 591.966 657.758C591.966 658.168 593.198 659.959 594.69 661.75C596.182 663.54 599.503 667.644 602.04 670.816C603.925 673.172 606.923 676.91 609.579 680.22L612.15 683.426C615.434 687.53 617.709 690.701 617.859 691.373C618.306 693.649 616.702 695.812 614.613 695.812C612.971 695.812 612.71 695.551 595.884 675.442C592.787 671.786 589.206 667.458 587.937 665.891C586.669 664.324 585.288 662.906 584.878 662.794C583.87 662.496 582.677 663.205 582.415 664.287C582.229 665.07 583.684 667.159 591.631 677.718C596.854 684.583 601.48 690.85 601.928 691.634C602.413 692.417 602.786 693.649 602.786 694.432C602.786 697.156 600.062 698.536 597.637 697.081C596.63 696.484 581.221 677.457 575.998 670.405C573.237 666.637 572.64 666.227 571.036 667.085C569.544 667.905 570.141 669.286 575.289 677.009C581.52 686.373 583.758 690.142 583.758 691.223C583.758 693.238 581.035 694.246 579.095 692.977C577.229 691.746 550.069 656.937 545.405 649.811C541.973 644.513 539.809 637.872 540.294 634.066C540.406 633.059 540.928 631.194 541.45 629.925C542.532 627.202 542.532 627.09 541.674 626.306C540.704 625.411 539.622 625.523 538.54 626.605C537.645 627.5 536.376 630.671 536.376 632.052C536.376 632.462 536.227 632.761 536.078 632.761C535.779 632.761 526.042 621.307 517.386 610.786C515.26 608.211 512.499 604.928 511.23 603.51C509.999 602.093 507.611 599.295 505.97 597.317L505.443 596.683L505.438 596.677C503.608 594.472 500.269 590.447 497.538 587.244C484.629 571.723 474.033 557.098 468.138 546.615C465.005 541.056 464.072 538.668 462.169 531.467C461.274 528.184 458.177 518.297 455.23 509.455C452.282 500.65 449.186 490.913 448.365 487.816C445.417 477.183 442.582 461.177 441.239 448.007L440.455 440.284L442.657 436.255C445.604 430.845 447.246 427.114 448.85 421.966C450.641 416.332 450.827 415.176 450.006 414.392C449.298 413.646 447.954 413.571 447.134 414.243C446.798 414.467 446.089 416.22 445.529 418.048C443.627 424.428 439.747 432.748 436.202 438.233C427.024 452.373 412.474 458.864 392.066 457.969C380.5 457.447 380.314 457.484 379.829 458.454C379.269 459.573 379.567 460.692 380.575 461.327C381.657 462.036 388.447 462.632 395.125 462.632C411.728 462.595 424.338 458.118 433.18 449.052L436.09 446.03L435.829 449.201C434.934 460.916 433.106 471.325 428.367 491.92C423.405 513.372 422.51 520.237 422.435 535.758C422.398 545.533 422.473 546.95 423.405 553.106C424.823 562.545 425.159 566.276 425.457 576.051L425.681 584.632L424.375 585.155C423.666 585.453 420.57 586.46 417.51 587.393C407.81 590.341 397.065 592.467 384.156 593.959C378.075 594.668 375.687 595.079 377.553 595.079C378 595.079 378.112 595.377 378 596.31C377.963 596.981 378.112 597.84 378.411 598.25C378.896 598.884 379.157 598.922 383.671 598.474C397.14 597.168 412.511 594.034 422.473 590.527C424.786 589.744 426.838 589.147 427.024 589.259C427.472 589.557 430.904 597.951 433.255 604.555C434.374 607.652 435.531 610.413 435.904 610.748C436.277 611.121 439 612.017 441.985 612.763C470.526 620.076 494.292 628.172 515.521 637.76C522.833 641.08 530.146 644.849 539.436 650.072C540.406 650.594 541.6 652.049 543.316 654.586C546.3 658.989 553.762 668.689 572.044 691.746C576.11 696.894 577.379 697.79 580.774 697.976C584.057 698.126 585.773 697.156 587.191 694.395L588.198 692.417L588.832 693.387C590.176 695.439 590.81 703.535 590.138 709.617C587.862 729.204 580.438 741.441 566.783 748.045C555.74 753.417 545.442 755.283 532.757 754.201C504.925 751.85 480.786 748.045 458.961 742.598C436.314 736.927 411.951 728.831 382.291 717.153C377.292 715.176 360.577 708.087 357.518 706.669C355.914 705.886 354.72 705.177 354.906 705.028C355.093 704.916 357.406 703.983 360.018 702.938C365.353 700.812 405.609 684.806 416.018 681.187C425.346 677.942 431.8 675.442 436.799 673.129C441.09 671.151 442.881 670.592 447.88 669.734C454.484 668.54 461.572 668.092 469.407 668.316C479.816 668.652 487.838 670.069 498.135 673.464C504.664 675.628 514.849 680.479 519.849 683.836C523.468 686.261 524.177 686.485 525.258 685.478C526.229 684.62 526.079 683.239 524.923 682.045C523.468 680.628 517.573 677.046 512.499 674.509C497.837 667.159 483.323 663.801 465.863 663.69L458.961 663.652L463.363 661.488C468.773 658.839 472.84 657.459 476.272 657.161C477.876 657.011 481.756 657.16 486.196 657.571C492.128 658.131 493.845 658.168 495.449 657.795C499.254 656.937 501.754 653.84 501.754 649.96C501.754 647.274 501.045 645.595 499.03 643.394C496.344 640.483 493.77 639.476 486.719 638.543C482.652 638.021 482.241 637.909 477.354 635.372C467.169 630.149 464.035 630.074 449.149 634.589C439.038 637.685 435.046 638.469 429.3 638.469C423.891 638.469 421.54 637.984 411.914 634.85C404.154 632.35 401.766 631.716 398.11 631.268C392.85 630.597 387.776 632.052 384.119 635.335L379.791 640.67L379.045 642.2C378.635 643.058 377.441 645.259 376.359 647.087C375.314 648.878 374.568 650.557 374.717 650.818C374.867 651.042 374.68 651.005 374.344 650.706C373.785 650.258 373.71 650.296 373.71 651.005C373.71 651.49 373.971 652.087 374.27 652.422C374.605 652.721 374.979 653.467 375.09 654.064C375.202 654.661 375.538 655.146 375.799 655.146C376.471 655.146 376.434 654.474 375.762 653.28C375.464 652.758 375.24 652.012 375.24 651.602C375.24 650.93 375.277 650.967 375.762 651.788C376.06 652.31 376.284 653.057 376.322 653.467C376.359 655.556 382.664 645.744 382.664 643.617L386.768 638.842C388.708 637.014 391.581 635.932 394.864 635.783C398.632 635.633 401.543 636.23 410.086 638.991C420.421 642.312 423.517 642.946 428.927 642.946C435.792 642.983 440.941 641.939 452.059 638.394C463.401 634.775 466.087 634.887 475.153 639.215L476.141 639.694C479.507 641.326 480.868 641.986 482.301 642.36C483.273 642.614 484.278 642.736 485.965 642.942L486.004 642.947L486.017 642.949L486.639 643.025L486.905 643.058C489.367 643.356 492.054 643.916 492.874 644.289C496.195 645.744 498.359 649.587 497.053 651.602C496.717 652.124 495.859 652.833 495.15 653.168C493.919 653.765 493.285 653.728 486.084 653.131C473.026 652.049 471.944 652.31 446.649 663.839C430.867 671.002 424.525 673.539 407.102 679.583C406.507 679.79 405.882 680.007 405.241 680.23L405.185 680.249L405.174 680.253C401.204 681.633 396.595 683.235 394.23 684.097L383 688.09L370.912 693.089L370.613 691.186C370.464 690.142 369.979 687.716 369.569 685.814C368.823 682.456 368.785 682.381 367.815 682.493C367.181 682.568 366.584 683.053 366.211 683.724C365.577 684.806 365.689 686.448 366.771 693.835L366.92 694.992L362.219 697.156C359.607 698.312 355.914 700.028 354.011 700.924C353.417 701.187 352.85 701.439 352.349 701.663C351.212 702.169 350.406 702.528 350.355 702.528C350.281 702.528 346.004 704.412 340.773 706.717L340.542 706.819C328.716 712.042 308.196 720.287 295.138 725.063C249.472 741.702 216.64 749.462 174.668 753.417C169.332 753.94 163.288 754.425 161.236 754.536C149.148 755.096 134.038 750.843 125.383 744.388C116.279 737.636 111.168 728.159 108.594 713.348C107.4 706.557 107.997 695.589 109.676 693.201C110.198 692.455 110.235 692.455 110.683 693.574C111.914 696.559 114.265 698.051 117.697 698.051C119.488 698.051 120.197 697.864 121.428 697.044C122.808 696.074 128.591 689.06 138.702 676.039C139.486 675.038 140.456 673.793 141.483 672.475L141.535 672.408L141.553 672.385L141.559 672.377L141.574 672.358C143.356 670.07 145.296 667.58 146.723 665.779C151.2 660.033 153.775 656.564 156.162 653.019C157.953 650.296 158.625 649.885 170.564 643.729C193.658 631.865 221.005 621.941 254.508 613.173C257.381 612.427 260.329 611.681 261.075 611.495C262.642 611.084 263.089 610.189 265.626 602.914C267.156 598.511 270.365 590.639 271.073 589.557C271.335 589.147 272.379 589.371 276.558 590.714C283.012 592.84 287.489 593.959 295.361 595.452C298.757 596.086 301.741 596.795 301.965 597.019L312.15 597.989C313.27 598.063 314.277 598.213 314.351 598.287C314.426 598.362 315.433 598.436 316.59 598.436C317.933 598.436 318.493 598.324 318.157 598.101C317.597 597.728 317.896 595.079 318.493 595.079C318.717 595.079 318.866 594.929 318.866 594.78C318.866 594.444 301.368 591.684 301.07 591.945ZM601.891 634.738C601.891 636.641 602.04 639.215 602.189 640.484C602.45 642.2 602.376 642.983 602.04 643.394C601.517 644.028 599.727 644.102 598.309 643.543C596.929 642.983 589.579 635.41 588.646 633.544C587.862 632.052 587.862 631.902 588.422 631.044C589.168 629.888 591.146 628.657 592.228 628.657C592.675 628.657 594.168 629.067 595.585 629.589C596.966 630.074 598.98 630.671 599.988 630.895L601.891 631.306V634.738ZM109.452 633.954C107.736 636.454 101.468 642.759 99.8261 643.617C97.5129 644.849 95.7594 644.326 95.7594 642.349C95.7967 641.677 96.0206 639.7 96.2817 637.872C96.5802 636.006 96.6548 633.992 96.5056 633.134L96.4886 633.038C96.2064 631.455 96.2051 631.448 97.9979 631.082C98.7068 630.932 100.572 630.298 102.102 629.701C105.758 628.246 107.251 628.396 109.34 630.485L110.832 631.977L109.452 633.954ZM536.637 641.565C536.936 642.498 537.16 643.319 537.085 643.356C537.011 643.431 535.593 642.759 533.951 641.864C519.55 633.88 495.672 623.993 475.526 617.613C465.676 614.517 453.812 611.084 446.499 609.219C442.507 608.211 439.187 607.353 439.15 607.279C439.095 607.224 438.611 605.905 437.944 604.083L437.94 604.073C437.704 603.428 437.444 602.72 437.172 601.981C434.896 595.489 432.583 589.632 431.277 587.132C430.307 585.266 430.27 584.931 430.009 576.424C429.71 566.649 429.375 562.881 427.882 553.106C426.95 546.913 426.875 545.533 426.912 535.571C426.95 520.312 427.733 514.38 432.732 493.226C435.232 482.406 437.247 473.116 437.918 468.863C438.142 467.259 438.478 465.916 438.627 465.804C438.739 465.729 439.336 467.968 439.896 470.84C442.395 483.6 445.679 495.427 450.603 509.716C455.342 523.408 455.64 524.341 457.505 531.355C460.453 542.622 462.206 546.316 470.489 558.815C478.063 570.306 488.658 583.961 503.918 601.794C506.268 604.555 511.156 610.375 514.737 614.666C524.288 626.194 526.751 629.104 531.638 634.775C534.66 638.245 536.227 640.409 536.637 641.565ZM258.65 469.385C259.023 467.296 259.433 465.617 259.545 465.617C259.694 465.617 260.067 467.296 260.44 469.385C260.776 471.437 262.231 478.377 263.686 484.757C270.924 516.991 271.223 518.969 271.26 535.012C271.297 545.98 271.223 547.212 270.29 553.479C268.798 563.292 268.462 567.022 268.163 576.797L267.865 585.565L265.44 590.975C264.097 593.959 262.194 598.735 261.224 601.608C260.217 604.481 259.321 606.943 259.172 607.092C259.06 607.279 255.777 608.211 251.897 609.219C243.54 611.383 242.644 611.644 232.869 614.554C216.603 619.441 203.06 624.217 189.031 630.037C183.286 632.425 165.303 640.931 162.878 642.424C160.751 643.729 160.677 643.58 161.983 640.857C162.505 639.775 165.116 636.417 167.989 633.134C170.787 629.962 175.787 624.068 179.107 620.076C182.39 616.084 187.464 610.04 190.337 606.644C216.528 575.865 227.646 561.053 235.07 546.913C237.869 541.615 238.727 539.19 240.891 531.131C242.644 524.49 243.428 521.953 247.905 509.082C252.792 494.905 256.672 480.541 258.65 469.385ZM296.257 220.61C296.555 220.722 297.115 222.662 297.749 225.983C298.757 231.169 301.704 250.83 301.704 252.211C301.704 253.181 301.368 253.144 299.801 252.099C298.16 250.98 297.115 249.114 295.735 244.749C293.011 236.28 291.743 225.61 293.048 222.476C293.571 221.282 295.287 220.237 296.257 220.61ZM401.505 221.356C401.953 219.416 404.602 220.76 405.422 223.334C406.542 226.692 404.714 239.041 401.953 246.577C401.057 249.114 400.423 250.159 399.043 251.539C397.214 253.367 396.468 253.741 396.468 252.808C396.468 250.495 400.274 226.804 401.505 221.356Z" fill="#696969"/>
<path d="M346.145 215.384C344.713 215.022 342.603 214.09 341.274 213.21C340.831 212.926 339.998 212.796 338.539 212.796C336.742 212.796 336.221 212.693 334.945 212.046C333.121 211.14 331.246 209.302 329.474 206.74C328.745 205.653 327.443 203.996 326.609 203.064L325.124 201.356L325.776 200.735C326.583 200.01 329.266 196.568 330.673 194.498C332.757 191.443 336.429 189.554 339.503 189.968C340.337 190.072 340.831 189.916 342.446 189.062C343.514 188.493 344.999 187.872 345.754 187.665C347.604 187.173 351.251 187.199 352.996 187.716C354.402 188.131 356.695 189.192 357.372 189.735C357.58 189.89 358.622 190.02 359.716 190.02C363.545 190.046 366.176 191.625 368.703 195.455C369.536 196.672 370.969 198.561 371.907 199.622L373.626 201.589L372.193 203.039C371.412 203.841 370.083 205.497 369.224 206.714C366.098 211.191 363.832 212.744 360.237 212.822C358.492 212.848 358.049 212.977 356.59 213.78C355.679 214.271 354.35 214.893 353.621 215.126C351.824 215.721 347.995 215.85 346.145 215.384ZM347.005 212.434C346.692 212.02 345.494 210.001 344.296 207.956C339.06 198.975 338.018 197.37 337.784 197.785C337.68 198.017 337.497 199.208 337.419 200.45C337.028 206.455 340.493 211.735 345.728 213.184C346.64 213.443 347.396 213.521 347.448 213.417C347.5 213.288 347.291 212.848 347.005 212.434ZM355.653 212.071C357.945 210.726 360.211 207.697 360.914 205.006C361.383 203.246 361.435 200.036 361.019 198.561C360.732 197.577 360.706 197.552 360.341 198.043C359.873 198.69 356.148 204.954 353.569 209.406C352.501 211.269 351.511 212.9 351.381 213.055C350.86 213.599 351.225 213.65 352.814 213.21C353.725 212.951 355.002 212.434 355.653 212.071ZM352.423 207.413C354.038 204.695 356.148 201.175 357.059 199.648C357.997 198.095 358.7 196.801 358.648 196.723C358.57 196.672 354.35 196.646 349.271 196.672L339.998 196.749L342.42 200.89C343.749 203.168 345.781 206.61 346.953 208.526C348.099 210.441 349.063 212.097 349.063 212.227C349.063 212.874 349.766 211.864 352.423 207.413ZM338.643 210.984C338.643 210.933 338.175 210.156 337.601 209.276C334.345 204.281 334.476 198.043 337.914 193.074L338.669 191.961H337.862C335.882 191.961 334.007 193.436 331.272 197.137C330.282 198.483 329.11 199.985 328.641 200.45C328.068 201.072 327.912 201.382 328.094 201.641C329.553 203.686 332.678 207.62 333.616 208.603C334.919 209.975 335.778 210.493 337.263 210.829C338.513 211.114 338.643 211.14 338.643 210.984ZM362.92 210.441C364.197 209.768 365.655 208.319 367.192 206.093C368.026 204.954 369.172 203.401 369.797 202.676C370.787 201.512 370.891 201.304 370.552 201.02C370.318 200.839 369.146 199.363 367.921 197.785C364.691 193.514 363.259 192.323 360.81 191.858C359.951 191.702 359.951 191.702 360.367 192.298C361.357 193.618 362.894 197.137 363.285 198.949C363.988 202.262 363.129 206.403 361.149 209.354C360.654 210.079 360.159 210.803 360.081 210.933C359.846 211.295 361.956 210.933 362.92 210.441ZM358.987 194.058C358.544 193.229 356.07 191.185 354.689 190.486C352.006 189.14 348.151 188.933 345.26 189.968C343.306 190.667 340.31 192.867 339.659 194.083C339.425 194.523 339.79 194.549 349.323 194.549C358.961 194.549 359.221 194.523 358.987 194.058Z" fill="#833AF7"/>
<path d="M349.418 186.753C350.799 186.762 352.208 186.899 353.155 187.18L353.154 187.18C353.893 187.398 354.845 187.778 355.692 188.169C356.512 188.548 357.302 188.968 357.706 189.286C357.654 189.248 357.654 189.266 357.801 189.301C357.918 189.328 358.08 189.356 358.28 189.38C358.678 189.429 359.189 189.46 359.716 189.46H359.72C361.716 189.474 363.434 189.894 364.987 190.832C366.534 191.766 367.879 193.189 369.17 195.147C369.892 196.2 371.064 197.758 371.96 198.826L372.326 199.252L372.328 199.254L374.39 201.613L372.593 203.429L372.594 203.429C371.841 204.203 370.532 205.831 369.682 207.033L369.683 207.034C368.107 209.292 366.712 210.866 365.221 211.881C363.711 212.909 362.137 213.341 360.249 213.382H360.246C359.378 213.395 358.89 213.434 358.45 213.551C358.011 213.668 357.587 213.87 356.86 214.27L356.856 214.272C355.934 214.769 354.57 215.41 353.791 215.659L353.79 215.658C352.816 215.979 351.351 216.163 349.922 216.212C348.489 216.261 347.008 216.179 346.009 215.927C344.515 215.549 342.351 214.593 340.971 213.68C340.845 213.6 340.615 213.512 340.203 213.449C339.797 213.388 339.255 213.355 338.539 213.355C337.639 213.355 337.009 213.331 336.433 213.211C335.846 213.089 335.345 212.876 334.691 212.544C332.749 211.578 330.81 209.655 329.014 207.058L329.01 207.052C328.296 205.988 327.01 204.351 326.192 203.437L326.187 203.431L324.351 201.32L325.39 200.33L325.396 200.324L325.402 200.319C325.762 199.995 326.603 198.997 327.559 197.776C328.502 196.572 329.516 195.205 330.21 194.183L330.211 194.182C332.384 190.997 336.244 188.968 339.571 189.413C339.923 189.457 340.175 189.445 340.517 189.339C340.89 189.224 341.374 188.996 342.184 188.568C343.275 187.987 344.798 187.346 345.606 187.125L345.611 187.123C346.605 186.859 348.036 186.743 349.418 186.753ZM349.41 187.872C348.071 187.862 346.754 187.978 345.899 188.206L345.898 188.205C345.194 188.399 343.753 188.999 342.71 189.556L342.708 189.557C341.903 189.983 341.333 190.259 340.847 190.409C340.329 190.569 339.915 190.583 339.434 190.523L339.429 190.523C336.611 190.143 333.128 191.892 331.135 194.813C330.422 195.862 329.392 197.25 328.44 198.466C327.51 199.653 326.613 200.728 326.161 201.139L326.162 201.14L325.897 201.392L327.026 202.691C327.873 203.638 329.189 205.311 329.935 206.421C331.571 208.789 333.264 210.476 334.873 211.375L335.193 211.545L335.198 211.546C335.82 211.862 336.218 212.023 336.66 212.115C337.113 212.209 337.642 212.236 338.539 212.236C339.281 212.236 339.886 212.269 340.372 212.343C340.792 212.407 341.157 212.507 341.454 212.667L341.577 212.74L341.583 212.743C342.861 213.589 344.913 214.496 346.283 214.842C347.132 215.056 348.491 215.141 349.884 215.093C351.277 215.045 352.621 214.867 353.445 214.594L353.451 214.593C354.13 214.376 355.423 213.773 356.325 213.287C357.054 212.886 357.581 212.623 358.162 212.469C358.744 212.314 359.35 212.275 360.225 212.262L360.541 212.251C362.101 212.176 363.37 211.787 364.592 210.955C365.914 210.055 367.215 208.613 368.765 206.394L368.767 206.391C369.636 205.16 370.984 203.479 371.793 202.648L371.795 202.645L372.862 201.565L371.485 199.991C370.528 198.907 369.083 197 368.241 195.771L368.236 195.763C367.001 193.891 365.766 192.61 364.409 191.79C363.058 190.974 361.545 190.592 359.712 190.58C359.147 190.579 358.592 190.546 358.144 190.491C357.921 190.464 357.715 190.43 357.544 190.39C357.403 190.357 357.193 190.3 357.037 190.184L357.029 190.178L357.021 190.172C356.742 189.948 356.058 189.571 355.223 189.186C354.403 188.807 353.506 188.449 352.838 188.253H352.836C352.038 188.016 350.751 187.881 349.41 187.872ZM360.523 197.184C360.724 197.142 360.912 197.198 361.052 197.306C361.165 197.394 361.232 197.503 361.268 197.571C361.308 197.645 361.341 197.727 361.369 197.805C361.425 197.958 361.486 198.163 361.556 198.404L361.557 198.409C361.788 199.225 361.878 200.462 361.858 201.686C361.838 202.915 361.705 204.205 361.455 205.146L361.456 205.147C361.082 206.577 360.302 208.072 359.328 209.378C358.355 210.682 357.163 211.834 355.936 212.554L355.93 212.558L355.925 212.56C355.23 212.947 353.912 213.48 352.966 213.749L352.963 213.75C352.56 213.861 352.224 213.945 351.953 213.997C351.701 214.047 351.448 214.081 351.242 214.057C351.145 214.046 350.963 214.013 350.809 213.872C350.612 213.692 350.576 213.45 350.612 213.265C350.641 213.113 350.716 212.991 350.769 212.915C350.822 212.839 350.886 212.765 350.953 212.694C350.959 212.685 350.974 212.663 351.002 212.622C351.04 212.564 351.091 212.484 351.153 212.384C351.278 212.184 351.446 211.911 351.644 211.583C352.039 210.926 352.551 210.056 353.083 209.128L353.085 209.125C354.376 206.897 355.952 204.216 357.265 202.011C358.567 199.825 359.634 198.065 359.888 197.715L359.892 197.71C359.972 197.602 360.079 197.457 360.19 197.359C360.247 197.308 360.361 197.219 360.523 197.184ZM337.629 197.213C337.811 197.139 337.983 197.164 338.104 197.207C338.306 197.279 338.467 197.439 338.577 197.559C338.825 197.831 339.165 198.311 339.636 199.045C340.587 200.529 342.163 203.186 344.779 207.673C345.377 208.695 345.975 209.709 346.462 210.518C346.834 211.136 347.129 211.615 347.31 211.891L347.451 212.097L347.459 212.106L347.465 212.115C347.623 212.343 347.765 212.586 347.862 212.799C347.911 212.905 347.955 213.019 347.983 213.13C347.997 213.186 348.01 213.254 348.014 213.327C348.017 213.395 348.015 213.506 347.967 213.627L347.958 213.648L347.948 213.669C347.88 213.803 347.778 213.879 347.713 213.917C347.646 213.956 347.583 213.977 347.54 213.989C347.454 214.011 347.37 214.018 347.305 214.02C347.17 214.025 347.009 214.013 346.841 213.992C346.499 213.949 346.054 213.858 345.576 213.723C340.051 212.191 336.455 206.644 336.861 200.414C336.901 199.779 336.967 199.156 337.038 198.66C337.073 198.412 337.109 198.192 337.145 198.014C337.177 197.857 337.218 197.679 337.273 197.556L337.284 197.532L337.296 197.509C337.35 197.414 337.452 197.284 337.629 197.213ZM355.839 196.109C356.689 196.114 357.386 196.121 357.875 196.13C358.119 196.135 358.315 196.14 358.455 196.146C358.523 196.149 358.585 196.152 358.632 196.156C358.655 196.158 358.684 196.161 358.712 196.165C358.725 196.167 358.749 196.171 358.775 196.177C358.78 196.178 358.83 196.19 358.892 196.22L358.957 196.257L359.051 196.319L359.113 196.411C359.2 196.54 359.209 196.666 359.21 196.714C359.212 196.773 359.205 196.822 359.2 196.85C359.19 196.907 359.173 196.959 359.161 196.993C359.136 197.065 359.1 197.148 359.061 197.232C358.981 197.403 358.862 197.633 358.717 197.9C358.426 198.436 358.011 199.154 357.539 199.934C356.627 201.463 354.519 204.982 352.904 207.699L352.903 207.699C351.578 209.921 350.727 211.304 350.205 212.052C350.074 212.24 349.957 212.397 349.855 212.52C349.762 212.633 349.651 212.753 349.529 212.836C349.47 212.876 349.36 212.942 349.212 212.96C349.03 212.982 348.835 212.923 348.693 212.774C348.578 212.653 348.539 212.516 348.524 212.445C348.516 212.409 348.512 212.373 348.509 212.34C348.486 212.292 348.451 212.221 348.4 212.126C348.296 211.931 348.143 211.658 347.952 211.325C347.571 210.661 347.047 209.773 346.476 208.818L345.457 207.133C344.327 205.247 342.933 202.881 341.937 201.173L339.027 196.198L349.267 196.112H349.268C351.809 196.099 354.137 196.099 355.839 196.109ZM338.145 198.826C338.079 199.293 338.016 199.883 337.978 200.485V200.487C337.602 206.265 340.933 211.276 345.877 212.645L345.881 212.646C346.136 212.718 346.376 212.773 346.586 212.815C346.573 212.794 346.559 212.773 346.545 212.752C346.36 212.502 345.972 211.874 345.503 211.095C345.013 210.28 344.412 209.262 343.813 208.239L343.812 208.238C341.193 203.744 339.63 201.11 338.693 199.65C338.474 199.307 338.293 199.037 338.145 198.826ZM360.505 198.816C360.067 199.514 359.232 200.898 358.227 202.584C356.917 204.785 355.342 207.46 354.054 209.683L354.055 209.684C353.519 210.619 353.002 211.496 352.603 212.16C352.459 212.399 352.328 212.61 352.218 212.788C352.351 212.754 352.499 212.717 352.661 212.672L353.005 212.568C353.837 212.3 354.849 211.878 355.38 211.583C356.442 210.956 357.525 209.923 358.431 208.709C359.339 207.491 360.044 206.125 360.373 204.864L360.374 204.862C360.592 204.043 360.72 202.85 360.739 201.667C360.757 200.537 360.673 199.483 360.505 198.816ZM339.726 191.402L338.377 193.388L338.374 193.392C335.062 198.179 334.941 204.171 338.07 208.971L338.479 209.609C338.605 209.808 338.72 209.992 338.816 210.15C338.912 210.307 338.992 210.443 339.049 210.544C339.077 210.594 339.102 210.642 339.123 210.682C339.132 210.701 339.145 210.727 339.156 210.755C339.162 210.768 339.17 210.79 339.178 210.817C339.182 210.832 339.203 210.898 339.203 210.984C339.203 211.032 339.2 211.141 339.147 211.26C339.085 211.401 338.975 211.509 338.842 211.572C338.729 211.625 338.622 211.636 338.556 211.638C338.486 211.64 338.416 211.635 338.355 211.628C338.129 211.601 337.744 211.513 337.138 211.375C336.355 211.197 335.708 210.965 335.08 210.583C334.457 210.203 333.877 209.691 333.21 208.988C332.244 207.974 329.102 204.018 327.638 201.966L327.636 201.963C327.535 201.819 327.468 201.645 327.463 201.448C327.458 201.26 327.509 201.089 327.577 200.944C327.705 200.671 327.942 200.382 328.229 200.071L328.238 200.062L328.246 200.053C328.678 199.624 329.824 198.162 330.821 196.806L330.822 196.805C332.199 194.941 333.387 193.599 334.504 192.721C335.633 191.835 336.715 191.402 337.862 191.402H339.726ZM360.381 191.221C360.45 191.228 360.531 191.241 360.62 191.256L360.91 191.307L360.915 191.308C362.225 191.557 363.285 192.01 364.431 192.965C365.553 193.899 366.752 195.31 368.368 197.447C368.978 198.233 369.573 198.991 370.044 199.575C370.28 199.867 370.482 200.113 370.639 200.295C370.717 200.386 370.781 200.458 370.831 200.511L370.895 200.577L370.904 200.584L370.912 200.592C371.021 200.683 371.184 200.839 371.254 201.08C371.328 201.337 371.264 201.572 371.181 201.753C371.1 201.928 370.973 202.112 370.824 202.306C370.671 202.506 370.471 202.747 370.223 203.039L370.221 203.042C369.614 203.745 368.484 205.275 367.645 206.422C366.092 208.669 364.573 210.202 363.181 210.936L363.174 210.939C362.622 211.221 361.792 211.447 361.146 211.559C360.826 211.614 360.504 211.649 360.261 211.636C360.166 211.632 359.966 211.617 359.794 211.507C359.689 211.439 359.548 211.304 359.511 211.083C359.479 210.887 359.548 210.731 359.602 210.643C359.691 210.496 360.201 209.749 360.687 209.038C362.586 206.205 363.407 202.219 362.737 199.065C362.553 198.213 362.089 196.921 361.538 195.664C360.985 194.4 360.374 193.239 359.92 192.633L359.914 192.626L359.909 192.618C359.813 192.482 359.714 192.341 359.651 192.228C359.621 192.174 359.572 192.079 359.549 191.965C359.524 191.838 359.518 191.596 359.716 191.399C359.875 191.242 360.068 191.219 360.136 191.214C360.225 191.206 360.312 191.213 360.381 191.221ZM349.275 197.23L349.275 197.231L340.968 197.3L342.904 200.608C343.9 202.316 345.291 204.677 346.417 206.557L347.43 208.234L347.433 208.238C348.007 209.196 348.536 210.093 348.923 210.767C349.063 211.013 349.186 211.231 349.286 211.413L349.288 211.411C349.782 210.703 350.611 209.356 351.942 207.126C353.558 204.408 355.668 200.886 356.579 199.361L356.58 199.359C357.046 198.587 357.452 197.883 357.733 197.365C357.755 197.325 357.775 197.285 357.795 197.248C357.316 197.239 356.647 197.233 355.832 197.228C354.135 197.218 351.813 197.217 349.275 197.23ZM361.185 192.513C361.634 193.237 362.128 194.219 362.564 195.215C363.126 196.499 363.625 197.871 363.832 198.831L363.832 198.833C364.569 202.303 363.672 206.598 361.613 209.665L361.611 209.67C361.429 209.936 361.25 210.198 361.092 210.429C361.653 210.321 362.285 210.136 362.666 209.942C363.822 209.33 365.217 207.969 366.732 205.775L366.741 205.762C367.567 204.633 368.727 203.061 369.37 202.314C369.617 202.023 369.802 201.801 369.936 201.626C370.019 201.517 370.073 201.435 370.111 201.375C370.013 201.281 369.9 201.152 369.79 201.025C369.623 200.83 369.412 200.574 369.173 200.278C368.694 199.685 368.092 198.918 367.479 198.127L367.475 198.122C365.861 195.989 364.729 194.669 363.714 193.824C362.868 193.12 362.101 192.743 361.185 192.513ZM337.605 192.531C336.855 192.589 336.082 192.905 335.196 193.601C334.197 194.386 333.079 195.632 331.722 197.469C330.75 198.79 329.567 200.31 329.051 200.829L329.052 200.83C328.79 201.114 328.662 201.288 328.605 201.393C330.08 203.449 333.121 207.273 334.021 208.217L334.022 208.218C334.657 208.887 335.159 209.32 335.662 209.627C336.098 209.892 336.554 210.074 337.132 210.222L337.387 210.283C337.467 210.301 337.542 210.318 337.611 210.334C337.468 210.105 337.306 209.848 337.132 209.582C333.75 204.391 333.889 197.907 337.454 192.755L337.605 192.531ZM345.071 189.441C348.007 188.39 351.866 188.557 354.672 189.856L354.94 189.986L354.942 189.986C355.686 190.363 356.688 191.08 357.547 191.792C357.98 192.152 358.389 192.519 358.721 192.855C359 193.137 359.256 193.427 359.417 193.685L359.481 193.794L359.484 193.8L359.486 193.806C359.507 193.847 359.609 194.033 359.592 194.256C359.567 194.575 359.344 194.754 359.172 194.836C359.02 194.909 358.836 194.946 358.651 194.972C358.455 195 358.203 195.02 357.886 195.037C356.627 195.103 354.132 195.109 349.323 195.109C344.566 195.109 342.072 195.103 340.801 195.041C340.481 195.025 340.227 195.005 340.028 194.979C339.84 194.955 339.659 194.92 339.509 194.856C339.359 194.792 339.109 194.636 339.062 194.31C339.027 194.064 339.143 193.863 339.166 193.82C339.37 193.438 339.73 193.023 340.146 192.622C340.571 192.213 341.087 191.786 341.639 191.38C342.737 190.574 344.023 189.816 345.071 189.441ZM354.438 190.986C351.976 189.751 348.43 189.523 345.709 190.406L345.448 190.495C344.542 190.819 343.354 191.51 342.303 192.283C341.781 192.666 341.304 193.061 340.922 193.429C340.747 193.598 340.598 193.756 340.476 193.899C340.585 193.907 340.71 193.915 340.855 193.922C342.091 193.983 344.548 193.99 349.323 193.99C354.152 193.99 356.606 193.983 357.828 193.919C357.956 193.913 358.067 193.904 358.165 193.897C358.096 193.819 358.016 193.734 357.925 193.642C357.625 193.339 357.246 192.997 356.833 192.654C355.999 191.963 355.074 191.308 354.438 190.986Z" fill="#833AF7"/>
<path fill-rule="evenodd" clip-rule="evenodd" d="M348.592 137.964C347.995 137.329 346.353 136.061 344.935 135.128C343.555 134.233 342.025 133.076 341.54 132.554L340.719 131.658L335.72 132.218C332.959 132.554 330.273 132.964 329.713 133.188C328.445 133.71 328.072 133.449 327.773 131.957C327.661 131.285 326.803 129.121 325.871 127.181C324.938 125.241 324.192 123.376 324.192 123.077C324.192 122.485 323.988 122.111 323.59 121.958L316.824 119.071C316.504 118.885 315.999 118.675 315.29 118.417C315.155 118.368 315.014 118.317 314.864 118.265C313.074 117.668 312.812 117.481 312.924 116.698C312.999 116.213 313.186 113.862 313.372 111.474C313.521 109.087 313.894 106.736 314.118 106.251C314.529 105.505 314.491 105.318 313.633 104.721C313.074 104.311 311.88 102.707 310.91 101.14C309.977 99.5729 308.559 97.7074 307.813 96.9986L306.47 95.7674L307.664 94.76C308.298 94.2377 309.679 92.5215 310.686 90.9545C311.693 89.3876 312.999 87.7087 313.559 87.1864C314.379 86.4029 314.491 86.1044 314.193 85.5075C313.969 85.0971 313.671 83.1943 313.559 81.2543C313.447 79.3142 313.148 77.0011 312.924 76.143C312.477 74.3148 312.775 73.8298 314.454 73.8298C314.939 73.8298 316.618 73.1582 318.148 72.3001C319.677 71.442 321.617 70.5839 322.475 70.3228C323.819 69.9497 324.005 69.7258 324.266 68.4573C324.453 67.6739 325.199 65.8457 325.982 64.3907C326.729 62.9356 327.549 61.0702 327.736 60.2121C328.146 58.4959 327.475 58.6078 334.526 59.2421C336.839 59.4659 339.041 59.839 339.451 60.1002C340.085 60.4733 340.309 60.4733 340.682 59.9509C340.943 59.6151 342.697 58.3467 344.562 57.1155C346.428 55.8843 348.293 54.4292 348.741 53.9069C349.636 52.7503 349.972 52.713 350.905 53.7204C351.278 54.1681 353.106 55.5112 354.934 56.7051C356.725 57.9363 358.516 59.3167 358.889 59.7271C359.486 60.4733 359.635 60.5106 360.605 60.0256C361.202 59.7644 363.441 59.3913 365.604 59.2421C367.768 59.0928 370.081 58.8317 370.753 58.6824C371.798 58.4586 371.947 58.5332 371.947 59.2794C371.947 59.7271 372.768 61.8537 373.775 64.0549C374.782 66.2561 375.678 68.4573 375.752 68.9424C375.827 69.6139 376.237 69.9497 377.357 70.2855C378.215 70.5093 380.006 71.3301 381.349 72.1136C382.692 72.8598 384.557 73.6059 385.453 73.7552C386.87 74.0163 387.057 74.1656 386.982 74.9491C386.647 79.0903 386.05 83.9405 385.714 84.9478C385.341 86.0671 385.415 86.2163 386.609 87.3729C387.281 88.0071 388.587 89.798 389.445 91.2903C390.303 92.7827 391.422 94.2377 391.907 94.5735C393.101 95.357 393.064 95.8793 391.87 96.9613C391.348 97.4836 390.004 99.349 388.848 101.14C387.729 102.968 386.46 104.61 386.05 104.833C385.565 105.095 385.415 105.43 385.602 105.841C385.751 106.177 386.087 108.564 386.348 111.139C386.609 113.713 386.945 116.175 387.057 116.623C387.244 117.183 387.169 117.518 386.833 117.668C386.535 117.742 385.303 118.19 384.11 118.638L381.871 119.458L376.322 122.171C375.858 122.162 375.678 122.46 375.678 123.077C375.678 123.451 375.044 125.167 374.26 126.883C373.439 128.599 372.581 130.651 372.32 131.472C371.686 133.449 371.499 133.636 370.305 133.151C369.746 132.964 367.433 132.628 365.194 132.405C362.956 132.218 360.792 131.882 360.344 131.621C359.635 131.248 359.411 131.36 358.628 132.367C358.105 133.039 356.911 133.972 355.904 134.457C354.934 134.942 353.218 136.21 352.061 137.217C350.942 138.262 349.935 139.12 349.86 139.12C349.785 139.12 349.226 138.598 348.592 137.964ZM369.447 94.4989C368.738 94.7227 368.589 94.6108 368.403 93.3423C368.029 91.1038 366.761 87.5968 365.679 85.9552C365.157 85.1344 363.814 83.4928 362.694 82.2989L360.642 80.1723L361.463 79.2769C361.911 78.7919 362.955 78.2322 363.739 77.9711C365.53 77.4488 366.686 77.7099 371.387 79.7246L374.745 81.1796L374.633 85.0598C374.559 87.1864 374.409 89.2757 374.297 89.686C373.999 90.768 372.507 92.6707 371.313 93.5288C370.716 93.9392 369.895 94.3496 369.447 94.4989ZM340.496 70.6212C340.533 70.6586 340.048 71.7405 339.376 73.009C338.481 74.7625 337.996 75.2848 337.436 75.2475C337.206 75.2266 336.752 75.1939 336.226 75.156L336.226 75.1559L336.224 75.1558C335.814 75.1263 335.361 75.0936 334.937 75.061C333.929 74.9864 333.146 74.7625 333.146 74.576C333.146 74.3894 333.593 73.2702 334.153 72.1509L335.198 70.0616L337.809 70.3228C338.209 70.3649 338.595 70.404 338.942 70.4394C339.827 70.5292 340.469 70.5945 340.496 70.6212ZM360.493 65.0249C362.918 67.0023 363.03 67.3754 361.239 67.6739C360.456 67.7858 359.299 68.0096 358.665 68.1962C357.695 68.4573 357.135 68.2708 354.971 67.0023L352.434 65.5099L353.479 64.9503C354.076 64.6518 355.456 64.2041 356.576 63.943L358.59 63.458L360.493 65.0249ZM353.815 61.7418C352.397 62.1895 351.203 62.7491 351.129 62.9729C350.942 63.5699 349.897 63.458 348.89 62.7491C348.405 62.4133 347.025 61.8537 345.756 61.5179L343.48 60.921L345.308 59.839C346.316 59.2421 347.771 58.3093 348.592 57.7124C349.375 57.1528 350.233 56.817 350.457 56.9662C350.501 56.9953 350.589 57.0539 350.715 57.137C351.235 57.4811 352.389 58.2441 353.591 59.0555L356.315 60.921L353.815 61.7418ZM346.726 64.9876C347.323 65.4353 347.211 65.5846 345.308 66.8531C344.003 67.7112 342.846 68.1962 342.212 68.1589C337.996 67.8977 337.25 67.7858 337.25 67.5619C337.25 67.0396 341.204 63.3833 341.764 63.3833C342.697 63.3833 345.98 64.428 346.726 64.9876ZM369.97 62.861C370.902 64.2041 372.693 67.7112 372.693 68.2335C372.693 68.6439 372.171 68.6812 370.828 68.2335C370.305 68.0843 369.111 67.935 368.141 67.8977C366.574 67.8604 366.313 67.7485 365.791 66.7038C365.455 66.1069 364.522 64.913 363.702 64.0922C362.844 63.2341 362.284 62.4879 362.396 62.376C362.508 62.2641 364.075 62.0775 365.903 61.9656L369.223 61.7791L369.97 62.861ZM334.414 66.48C333.668 67.5992 333.295 67.8604 332.288 67.8604C331.653 67.8604 330.124 68.0842 328.967 68.3827C327.773 68.6439 326.803 68.7931 326.803 68.7185C326.803 68.1589 330.273 61.9283 330.646 61.8164C330.907 61.7418 332.661 61.8537 334.563 62.0775L338.033 62.4506L336.69 63.7564C335.907 64.4653 334.899 65.6965 334.414 66.48ZM366.5 74.0537C366.724 74.7625 366.574 74.8744 364.97 75.061C363.963 75.2102 362.806 75.3968 362.359 75.546C361.687 75.7326 361.5 75.6206 361.5 75.0983C361.5 74.6879 361.09 73.7179 360.568 72.8971C360.083 72.0763 359.635 71.2928 359.635 71.1809C359.635 70.8451 364.112 70.0616 364.56 70.3228C364.933 70.5466 366.127 72.8971 366.5 74.0537ZM373.626 72.1136C373.924 72.3375 374.409 73.7552 374.67 75.2475C375.044 77.113 375.081 77.9338 374.782 77.9338C374.559 77.9338 373.402 77.3741 372.208 76.7026C370.231 75.6206 369.932 75.2849 369.111 73.3075C368.626 72.0763 368.328 70.9943 368.403 70.9197C368.664 70.6586 372.992 71.6286 373.626 72.1136ZM330.534 73.6433C329.937 75.2848 329.639 75.6579 327.699 76.7026C327.643 76.7328 327.588 76.7625 327.535 76.7916C325.982 77.6354 325.276 78.019 325.049 77.8294C324.86 77.6713 325.004 77.1146 325.267 76.0938C325.269 76.0854 325.271 76.0769 325.274 76.0683C325.46 75.3595 325.721 74.1283 325.833 73.3821C326.057 72.1509 326.244 71.9644 327.848 71.4794C328.818 71.1436 330.086 70.8078 330.683 70.6586C331.616 70.472 331.728 70.5093 331.467 71.1063C331.38 71.3233 331.205 71.8053 331 72.3689C330.853 72.7742 330.69 73.2218 330.534 73.6433ZM357.695 78.568C350.606 76.9264 349.748 76.8891 345.793 77.8965C344.264 78.3069 342.734 78.7173 342.398 78.8665C341.466 79.2396 340.794 76.516 341.354 74.7625C341.951 72.9344 348.48 67.4873 350.084 67.4873C350.83 67.4873 356.24 71.554 357.508 73.0463C358.367 74.091 358.516 74.6133 358.516 76.516C358.516 78.6426 358.478 78.7546 357.695 78.568ZM383.923 76.516L383.662 79.538C383.363 83.3809 383.14 83.8286 382.17 82.7466C381.796 82.2989 380.714 81.4408 379.782 80.8439L378.103 79.7619L377.692 76.516C377.469 74.7252 377.319 73.1956 377.394 73.1209C377.469 73.0463 378.961 73.7925 380.714 74.7625L383.923 76.516ZM321.058 80.2469C320.61 80.4708 319.491 81.2916 318.521 82.0751C317.551 82.8958 316.693 83.5301 316.581 83.5301C316.469 83.5301 316.357 83.0824 316.357 82.5228C316.357 81.9258 316.245 80.3588 316.133 78.9784L315.872 76.516L319.342 74.7625L322.811 73.009L322.55 74.4641C322.44 75.0411 322.31 76.0228 322.189 76.9324C322.146 77.2578 322.104 77.574 322.065 77.8592C321.916 79.3515 321.655 79.9111 321.058 80.2469ZM382.02 89.1637C381.759 90.283 381.386 91.4769 381.199 91.85C380.864 92.4842 380.155 92.7454 380.155 92.223C380.155 92.0365 379.483 91.0292 378.662 89.9472C377.207 88.0445 377.17 87.9698 377.431 85.7686C377.543 84.5374 377.804 83.4182 378.028 83.2689C378.215 83.157 379.297 83.9778 380.416 85.1344L382.505 87.1864L382.02 89.1637ZM322.55 88.1937L320.722 90.3576C319.715 91.5142 318.819 92.4842 318.745 92.4842C318.67 92.4842 318.521 92.1111 318.409 91.6634C318.384 91.5553 318.361 91.4498 318.337 91.3466C317.796 88.942 317.552 87.8604 317.875 86.9876C318.138 86.274 318.78 85.7 319.946 84.6568C320.016 84.5939 320.088 84.5293 320.162 84.4628L322.14 82.672L322.326 85.4328L322.55 88.1937ZM331.989 91.5515C331.765 92.5961 331.504 93.6408 331.43 93.9019C331.131 94.9466 328.034 93.8273 326.99 92.2603C325.721 90.3203 324.341 80.9185 325.311 80.9185C325.572 80.9185 327.102 80.3215 328.743 79.6127C332.586 77.8965 334.302 77.5234 336.056 78.0084C337.436 78.3815 339.115 79.6127 339.115 80.2842C339.115 80.5081 338.145 81.6273 336.914 82.7839C334.563 85.0971 332.735 88.3429 331.989 91.5515ZM378.625 97.2224C378.177 98.0059 377.543 98.9386 377.245 99.3117C376.461 100.207 376.2 100.133 375.678 98.864C375.454 98.2671 374.857 97.409 374.335 96.924C373.85 96.4762 373.439 95.9166 373.439 95.7301C373.439 95.5808 374.074 94.4989 374.894 93.3796C374.957 93.2922 375.017 93.208 375.075 93.1274C375.691 92.2638 376.027 91.7918 376.377 91.7823C376.798 91.7709 377.237 92.4315 378.206 93.8883C378.28 94.0001 378.358 94.1165 378.439 94.2377L379.483 95.8047L378.625 97.2224ZM325.386 97.4836C324.527 98.4163 323.819 99.349 323.819 99.5729C323.819 100.431 323.11 99.834 321.804 97.894L320.423 95.8047L321.841 93.79C322.625 92.6707 323.371 91.738 323.52 91.738C323.669 91.738 323.968 92.1111 324.229 92.5961C324.453 93.0438 325.162 93.9393 325.796 94.6108L326.915 95.8047L325.386 97.4836ZM388.997 95.6181L387.132 98.7148C385.303 101.774 384.632 102.446 384.632 101.177C384.632 100.804 384.11 99.4236 383.513 98.1178L382.393 95.7674L383.102 94.5735C383.475 93.9393 383.998 92.7454 384.259 91.9246C384.968 89.6487 385.229 89.6114 386.274 91.5888C386.796 92.5961 387.617 93.9019 388.102 94.4989L388.997 95.6181ZM316.805 97.297C316.394 98.0432 315.834 99.349 315.573 100.244C315.312 101.103 315.014 101.811 314.902 101.811C314.79 101.811 313.783 100.431 312.701 98.7894C310.947 96.1405 310.76 95.6928 311.208 95.0958C311.469 94.76 312.439 93.3796 313.335 92.0738L315.014 89.7234L315.461 90.8053C315.723 91.4396 315.946 92.1484 315.984 92.4096C315.984 92.6707 316.319 93.5662 316.767 94.4243L317.551 95.9539L316.805 97.297ZM321.058 101.55C322.513 103.751 322.55 103.975 322.401 106.214C322.326 107.669 322.102 108.527 321.804 108.527C321.58 108.527 320.573 107.706 319.603 106.736C318.185 105.281 317.849 104.721 317.886 103.677C317.924 102.035 318.67 99.4983 319.155 99.349C319.379 99.2744 320.2 100.282 321.058 101.55ZM382.543 104.423L380.341 106.662C379.11 107.893 378.028 108.9 377.879 108.9C377.767 108.9 377.543 107.706 377.431 106.214C377.207 103.64 377.245 103.528 378.327 102.259C378.961 101.55 379.633 100.58 379.856 100.095C380.08 99.6102 380.416 99.1998 380.565 99.1998C380.714 99.1998 381.237 100.394 381.685 101.811L382.543 104.423ZM364.261 102.558C362.135 107.035 358.478 110.131 353.852 111.325C350.084 112.295 345.458 111.698 342.286 109.87C338.108 107.408 334.75 102.035 334.377 97.2597C333.855 90.5441 337.175 84.724 343.145 81.7766C345.905 80.3962 346.092 80.3588 349.897 80.3962C355.009 80.3962 357.247 81.217 360.53 84.3136C362.247 85.9179 363.217 87.1864 364.149 89.201C365.343 91.7753 365.418 92.1484 365.418 96.0285C365.418 99.834 365.343 100.319 364.261 102.558ZM375.044 109.795C375.118 110.392 374.372 110.877 371.014 112.332C368.776 113.303 366.425 114.086 365.791 114.086C364.224 114.049 362.396 113.34 361.426 112.332L360.568 111.474L362.284 109.907C365.306 107.109 367.358 103.416 368.253 99.1252C368.664 97.297 368.701 97.2597 369.858 97.4836C370.492 97.6328 371.648 98.3417 372.432 99.1252C372.459 99.1525 372.485 99.1794 372.511 99.2057C372.794 99.4952 373.019 99.7261 373.208 99.9838C373.953 100.999 374.13 102.43 375.007 109.497C375.019 109.596 375.031 109.695 375.044 109.795ZM336.951 109.273C339.526 111.81 339.563 112.258 337.212 113.452C336.504 113.825 335.459 114.123 334.825 114.123C333.444 114.123 329.34 112.668 327.139 111.474L325.497 110.542L325.535 106.438C325.572 102.968 325.684 102.035 326.356 100.655C327.326 98.7148 328.669 97.6328 330.236 97.5582C331.355 97.5209 331.392 97.5955 331.877 99.946C332.623 103.565 334.34 106.662 336.951 109.273ZM383.96 115.429L380.752 117.033C378.961 117.891 377.431 118.6 377.319 118.6C377.207 118.6 377.207 118.153 377.357 117.593C377.543 116.996 377.692 115.578 377.73 114.422C377.804 112.37 377.879 112.221 379.259 111.288C380.043 110.766 381.349 109.721 382.132 108.975L383.513 107.632V109.907C383.513 111.139 383.625 112.892 383.736 113.788L383.96 115.429ZM321.953 113.265C321.953 114.049 322.177 115.653 322.475 116.847C322.737 118.003 322.886 118.973 322.737 118.973C322.625 118.936 321.02 118.153 319.192 117.22L315.909 115.504L316.17 111.922C316.282 109.945 316.469 108.266 316.543 108.191C316.618 108.117 317.513 108.788 318.483 109.646C319.453 110.504 320.647 111.362 321.132 111.549C321.767 111.81 321.953 112.146 321.953 113.265ZM373.663 119.682C373.439 119.869 372.357 120.279 371.238 120.615C368.179 121.51 368.179 121.51 369.298 118.712C370.268 116.325 370.455 116.101 372.618 114.944C374.708 113.825 374.932 113.788 374.932 114.422C374.932 115.802 374.074 119.347 373.663 119.682ZM330.422 118.227C331.056 119.57 331.616 120.764 331.616 120.951C331.653 121.361 330.534 121.212 328.333 120.54L326.281 119.906L325.535 117.033C325.124 115.429 324.901 114.049 325.012 113.899C325.162 113.788 326.169 114.161 327.251 114.758C328.967 115.653 329.378 116.138 330.422 118.227ZM366.463 117.108C366.649 117.257 366.351 118.339 365.791 119.496L364.821 121.585L363.067 121.548C362.097 121.548 360.941 121.399 360.493 121.212L359.672 120.876L360.68 118.638L361.687 116.362L363.926 116.586C365.157 116.735 366.313 116.959 366.463 117.108ZM340.458 121.137L339.152 121.361C338.406 121.473 337.175 121.585 336.392 121.585C335.011 121.585 334.937 121.51 334.041 119.533C333.556 118.377 333.146 117.295 333.146 117.108C333.146 116.884 333.78 116.735 334.601 116.735C335.384 116.735 336.578 116.623 337.212 116.511C338.257 116.287 338.444 116.362 338.63 117.108C338.742 117.556 339.227 118.675 339.675 119.533L340.458 121.137ZM358.516 115.243C358.516 117.929 357.658 119.197 353.703 122.107C351.875 123.451 350.271 124.57 350.084 124.532C349.897 124.532 348.33 123.562 346.614 122.406C342.771 119.794 341.354 117.854 341.354 115.131C341.354 114.954 341.35 114.793 341.347 114.646C341.335 114.134 341.328 113.8 341.491 113.619C341.798 113.277 342.711 113.478 345.344 114.06C345.74 114.147 346.174 114.243 346.652 114.347C349.785 115.019 349.972 115.019 353.181 114.347C353.79 114.222 354.33 114.109 354.809 114.008L354.81 114.008C357.258 113.495 358.115 113.315 358.402 113.64C358.557 113.815 358.546 114.136 358.529 114.631C358.523 114.812 358.516 115.015 358.516 115.243ZM362.62 124.57C362.62 124.756 361.762 125.652 360.717 126.584C359.411 127.741 358.478 128.301 357.807 128.263C356.538 128.226 353.404 127.256 353.106 126.846C352.882 126.435 355.792 123.936 356.65 123.786C357.62 123.6 362.62 124.271 362.62 124.57ZM347.323 126.51C347.323 126.659 346.39 127.107 345.271 127.517C345.208 127.541 345.145 127.565 345.084 127.588C343.238 128.29 342.383 128.615 341.649 128.438C341.016 128.285 340.473 127.758 339.462 126.776C339.398 126.714 339.332 126.65 339.264 126.584L337.063 124.458L338.929 124.159C342.697 123.562 343.294 123.637 345.346 124.98C346.428 125.689 347.323 126.361 347.323 126.51ZM372.581 123.189C372.656 123.301 372.096 124.831 371.275 126.584L369.746 129.793L367.582 129.718C364.373 129.644 361.874 129.42 361.874 129.196C361.874 129.121 362.545 128.413 363.403 127.666C364.261 126.883 365.082 125.876 365.269 125.428C365.455 124.943 365.791 124.495 366.052 124.421C368.104 123.861 372.395 123.04 372.581 123.189ZM335.571 126.659C336.914 128.039 337.959 129.233 337.884 129.308C337.772 129.383 336.056 129.532 334.041 129.681L330.348 129.905L328.781 126.846C327.885 125.204 327.176 123.674 327.176 123.488C327.176 123.339 328.146 123.413 329.34 123.674C330.497 123.973 331.84 124.197 332.325 124.197C332.847 124.197 334.004 125.092 335.571 126.659ZM352.882 129.718C354.524 130.278 355.904 130.838 355.904 130.95C355.904 131.061 354.561 132.032 352.957 133.076C351.315 134.158 349.935 135.016 349.86 134.979C349.226 134.83 344.189 131.248 344.301 131.024C344.376 130.875 345.682 130.278 347.174 129.718L349.86 128.748L352.882 129.718Z" fill="#F9F9F7"/>
<rect width="699" height="383" rx="54" fill="url(#paint0_linear_1314_873)"/>
<path d="M0 54C0 24.1766 24.1766 0 54 0H645C674.823 0 699 24.1766 699 54V329C699 358.823 674.823 383 645 383H54C24.1766 383 0 358.823 0 329V54Z" fill="url(#paint1_linear_1314_873)"/>
<rect x="28" y="261" width="638" height="88" rx="44" fill="#0E0E0E" fill-opacity="0.31"/>
<path d="M82.8125 302H80.875C80.7604 301.443 80.5599 300.953 80.2734 300.531C79.9922 300.109 79.6484 299.755 79.2422 299.469C78.8411 299.177 78.3958 298.958 77.9063 298.812C77.4167 298.667 76.9063 298.594 76.375 298.594C75.4063 298.594 74.5286 298.839 73.7422 299.328C72.9609 299.818 72.3385 300.539 71.875 301.492C71.4167 302.445 71.1875 303.615 71.1875 305C71.1875 306.385 71.4167 307.555 71.875 308.508C72.3385 309.461 72.9609 310.182 73.7422 310.672C74.5286 311.161 75.4063 311.406 76.375 311.406C76.9063 311.406 77.4167 311.333 77.9063 311.187C78.3958 311.042 78.8411 310.826 79.2422 310.539C79.6484 310.247 79.9922 309.891 80.2734 309.469C80.5599 309.042 80.7604 308.552 80.875 308H82.8125C82.6667 308.818 82.401 309.549 82.0156 310.195C81.6302 310.841 81.151 311.391 80.5781 311.844C80.0052 312.292 79.362 312.633 78.6484 312.867C77.9401 313.102 77.1823 313.219 76.375 313.219C75.0104 313.219 73.7969 312.885 72.7344 312.219C71.6719 311.552 70.8359 310.604 70.2266 309.375C69.6172 308.146 69.3125 306.687 69.3125 305C69.3125 303.312 69.6172 301.854 70.2266 300.625C70.8359 299.396 71.6719 298.448 72.7344 297.781C73.7969 297.115 75.0104 296.781 76.375 296.781C77.1823 296.781 77.9401 296.898 78.6484 297.133C79.362 297.367 80.0052 297.711 80.5781 298.164C81.151 298.612 81.6302 299.159 82.0156 299.805C82.401 300.445 82.6667 301.177 82.8125 302ZM92.5959 308.094V301H94.4396V313H92.5959V310.969H92.4709C92.1896 311.578 91.7521 312.096 91.1584 312.523C90.5646 312.945 89.8146 313.156 88.9084 313.156C88.1584 313.156 87.4917 312.992 86.9084 312.664C86.325 312.331 85.8667 311.831 85.5334 311.164C85.2 310.492 85.0334 309.646 85.0334 308.625V301H86.8771V308.5C86.8771 309.375 87.1219 310.073 87.6115 310.594C88.1063 311.115 88.7365 311.375 89.5021 311.375C89.9604 311.375 90.4266 311.258 90.9005 311.023C91.3797 310.789 91.7808 310.43 92.1037 309.945C92.4318 309.461 92.5959 308.844 92.5959 308.094ZM97.1566 313V301H98.9378V302.812H99.0628C99.2816 302.219 99.6774 301.737 100.25 301.367C100.823 300.997 101.469 300.812 102.188 300.812C102.323 300.812 102.493 300.815 102.696 300.82C102.899 300.826 103.052 300.833 103.157 300.844V302.719C103.094 302.703 102.951 302.68 102.727 302.648C102.508 302.612 102.276 302.594 102.032 302.594C101.448 302.594 100.927 302.716 100.469 302.961C100.016 303.201 99.6566 303.534 99.3909 303.961C99.1305 304.383 99.0003 304.865 99.0003 305.406V313H97.1566ZM104.682 313V301H106.463V302.812H106.588C106.807 302.219 107.203 301.737 107.776 301.367C108.349 300.997 108.995 300.812 109.713 300.812C109.849 300.812 110.018 300.815 110.221 300.82C110.424 300.826 110.578 300.833 110.682 300.844V302.719C110.62 302.703 110.476 302.68 110.252 302.648C110.034 302.612 109.802 302.594 109.557 302.594C108.974 302.594 108.453 302.716 107.995 302.961C107.541 303.201 107.182 303.534 106.916 303.961C106.656 304.383 106.526 304.865 106.526 305.406V313H104.682ZM116.874 313.25C115.717 313.25 114.72 312.995 113.881 312.484C113.048 311.969 112.405 311.25 111.952 310.328C111.504 309.401 111.28 308.323 111.28 307.094C111.28 305.865 111.504 304.781 111.952 303.844C112.405 302.901 113.035 302.167 113.842 301.641C114.655 301.109 115.603 300.844 116.686 300.844C117.311 300.844 117.928 300.948 118.538 301.156C119.147 301.365 119.702 301.703 120.202 302.172C120.702 302.635 121.1 303.25 121.397 304.016C121.694 304.781 121.842 305.724 121.842 306.844V307.625H112.592V306.031H119.967C119.967 305.354 119.832 304.75 119.561 304.219C119.296 303.687 118.915 303.268 118.421 302.961C117.931 302.654 117.353 302.5 116.686 302.5C115.952 302.5 115.316 302.682 114.78 303.047C114.249 303.406 113.84 303.875 113.553 304.453C113.267 305.031 113.124 305.651 113.124 306.312V307.375C113.124 308.281 113.28 309.049 113.592 309.68C113.91 310.305 114.35 310.781 114.913 311.109C115.475 311.432 116.129 311.594 116.874 311.594C117.358 311.594 117.796 311.526 118.186 311.391C118.582 311.25 118.923 311.042 119.21 310.766C119.496 310.484 119.717 310.135 119.874 309.719L121.655 310.219C121.467 310.823 121.152 311.354 120.71 311.812C120.267 312.266 119.72 312.62 119.069 312.875C118.418 313.125 117.686 313.25 116.874 313.25ZM125.831 305.781V313H123.987V301H125.768V302.875H125.925C126.206 302.266 126.633 301.776 127.206 301.406C127.779 301.031 128.518 300.844 129.425 300.844C130.237 300.844 130.948 301.01 131.557 301.344C132.167 301.672 132.641 302.172 132.979 302.844C133.318 303.51 133.487 304.354 133.487 305.375V313H131.643V305.5C131.643 304.557 131.399 303.823 130.909 303.297C130.419 302.766 129.748 302.5 128.893 302.5C128.305 302.5 127.779 302.628 127.315 302.883C126.857 303.138 126.495 303.51 126.229 304C125.964 304.49 125.831 305.083 125.831 305.781ZM141.415 301V302.562H135.196V301H141.415ZM137.009 298.125H138.853V309.562C138.853 310.083 138.928 310.474 139.079 310.734C139.235 310.99 139.433 311.161 139.673 311.25C139.918 311.333 140.175 311.375 140.446 311.375C140.649 311.375 140.816 311.365 140.946 311.344C141.076 311.318 141.181 311.297 141.259 311.281L141.634 312.937C141.509 312.984 141.334 313.031 141.11 313.078C140.886 313.13 140.603 313.156 140.259 313.156C139.738 313.156 139.228 313.044 138.728 312.82C138.233 312.596 137.821 312.255 137.493 311.797C137.17 311.339 137.009 310.76 137.009 310.062V298.125ZM154.087 313.25C152.931 313.25 151.934 312.995 151.095 312.484C150.262 311.969 149.618 311.25 149.165 310.328C148.717 309.401 148.493 308.323 148.493 307.094C148.493 305.865 148.717 304.781 149.165 303.844C149.618 302.901 150.249 302.167 151.056 301.641C151.868 301.109 152.816 300.844 153.9 300.844C154.525 300.844 155.142 300.948 155.751 301.156C156.361 301.365 156.915 301.703 157.415 302.172C157.915 302.635 158.314 303.25 158.611 304.016C158.908 304.781 159.056 305.724 159.056 306.844V307.625H149.806V306.031H157.181C157.181 305.354 157.046 304.75 156.775 304.219C156.509 303.687 156.129 303.268 155.634 302.961C155.144 302.654 154.566 302.5 153.9 302.5C153.165 302.5 152.53 302.682 151.993 303.047C151.462 303.406 151.053 303.875 150.767 304.453C150.48 305.031 150.337 305.651 150.337 306.312V307.375C150.337 308.281 150.493 309.049 150.806 309.68C151.124 310.305 151.564 310.781 152.126 311.109C152.689 311.432 153.342 311.594 154.087 311.594C154.572 311.594 155.009 311.526 155.4 311.391C155.796 311.25 156.137 311.042 156.423 310.766C156.71 310.484 156.931 310.135 157.087 309.719L158.868 310.219C158.681 310.823 158.366 311.354 157.923 311.812C157.48 312.266 156.934 312.62 156.283 312.875C155.631 313.125 154.9 313.25 154.087 313.25ZM163.044 305.781V313H161.201V301H162.982V302.875H163.138C163.419 302.266 163.846 301.776 164.419 301.406C164.992 301.031 165.732 300.844 166.638 300.844C167.451 300.844 168.162 301.01 168.771 301.344C169.38 301.672 169.854 302.172 170.193 302.844C170.531 303.51 170.701 304.354 170.701 305.375V313H168.857V305.5C168.857 304.557 168.612 303.823 168.122 303.297C167.633 302.766 166.961 302.5 166.107 302.5C165.518 302.5 164.992 302.628 164.529 302.883C164.07 303.138 163.708 303.51 163.443 304C163.177 304.49 163.044 305.083 163.044 305.781ZM178.441 313.25C177.285 313.25 176.287 312.995 175.449 312.484C174.615 311.969 173.972 311.25 173.519 310.328C173.071 309.401 172.847 308.323 172.847 307.094C172.847 305.865 173.071 304.781 173.519 303.844C173.972 302.901 174.602 302.167 175.41 301.641C176.222 301.109 177.17 300.844 178.254 300.844C178.879 300.844 179.496 300.948 180.105 301.156C180.714 301.365 181.269 301.703 181.769 302.172C182.269 302.635 182.668 303.25 182.964 304.016C183.261 304.781 183.41 305.724 183.41 306.844V307.625H174.16V306.031H181.535C181.535 305.354 181.399 304.75 181.129 304.219C180.863 303.687 180.483 303.268 179.988 302.961C179.498 302.654 178.92 302.5 178.254 302.5C177.519 302.5 176.884 302.682 176.347 303.047C175.816 303.406 175.407 303.875 175.121 304.453C174.834 305.031 174.691 305.651 174.691 306.312V307.375C174.691 308.281 174.847 309.049 175.16 309.68C175.477 310.305 175.918 310.781 176.48 311.109C177.043 311.432 177.696 311.594 178.441 311.594C178.925 311.594 179.363 311.526 179.754 311.391C180.149 311.25 180.49 311.042 180.777 310.766C181.063 310.484 181.285 310.135 181.441 309.719L183.222 310.219C183.035 310.823 182.72 311.354 182.277 311.812C181.834 312.266 181.287 312.62 180.636 312.875C179.985 313.125 179.254 313.25 178.441 313.25ZM185.554 313V301H187.336V302.812H187.461C187.679 302.219 188.075 301.737 188.648 301.367C189.221 300.997 189.867 300.812 190.586 300.812C190.721 300.812 190.89 300.815 191.094 300.82C191.297 300.826 191.45 300.833 191.554 300.844V302.719C191.492 302.703 191.349 302.68 191.125 302.648C190.906 302.612 190.674 302.594 190.429 302.594C189.846 302.594 189.325 302.716 188.867 302.961C188.414 303.201 188.054 303.534 187.789 303.961C187.528 304.383 187.398 304.865 187.398 305.406V313H185.554ZM197.559 317.75C196.668 317.75 195.902 317.635 195.262 317.406C194.621 317.182 194.087 316.885 193.66 316.516C193.238 316.151 192.902 315.76 192.652 315.344L194.121 314.313C194.288 314.531 194.499 314.781 194.754 315.062C195.009 315.349 195.358 315.596 195.801 315.805C196.249 316.018 196.835 316.125 197.559 316.125C198.527 316.125 199.327 315.891 199.957 315.422C200.587 314.953 200.902 314.219 200.902 313.219V310.781H200.746C200.611 311 200.418 311.271 200.168 311.594C199.923 311.911 199.569 312.195 199.105 312.445C198.647 312.69 198.027 312.812 197.246 312.812C196.277 312.812 195.407 312.583 194.637 312.125C193.871 311.667 193.264 311 192.816 310.125C192.374 309.25 192.152 308.187 192.152 306.937C192.152 305.708 192.368 304.638 192.801 303.727C193.233 302.81 193.835 302.102 194.605 301.602C195.376 301.096 196.267 300.844 197.277 300.844C198.059 300.844 198.678 300.974 199.137 301.234C199.6 301.49 199.954 301.781 200.199 302.109C200.449 302.432 200.642 302.698 200.777 302.906H200.965V301H202.746V313.344C202.746 314.375 202.512 315.214 202.043 315.859C201.579 316.51 200.954 316.987 200.168 317.289C199.387 317.596 198.517 317.75 197.559 317.75ZM197.496 311.156C198.236 311.156 198.861 310.987 199.371 310.648C199.881 310.31 200.269 309.823 200.535 309.188C200.801 308.552 200.934 307.792 200.934 306.906C200.934 306.042 200.803 305.279 200.543 304.617C200.282 303.956 199.897 303.437 199.387 303.062C198.876 302.687 198.246 302.5 197.496 302.5C196.715 302.5 196.064 302.698 195.543 303.094C195.027 303.49 194.639 304.021 194.379 304.688C194.124 305.354 193.996 306.094 193.996 306.906C193.996 307.74 194.126 308.477 194.387 309.117C194.652 309.753 195.043 310.253 195.559 310.617C196.079 310.977 196.725 311.156 197.496 311.156ZM206.649 317.5C206.336 317.5 206.057 317.474 205.813 317.422C205.568 317.375 205.399 317.328 205.305 317.281L205.774 315.656C206.221 315.771 206.617 315.813 206.961 315.781C207.305 315.75 207.609 315.596 207.875 315.32C208.146 315.049 208.393 314.609 208.617 314L208.961 313.063L204.524 301H206.524L209.836 310.562H209.961L213.274 301H215.274L210.18 314.75C209.951 315.37 209.667 315.883 209.328 316.289C208.99 316.701 208.596 317.005 208.149 317.203C207.706 317.401 207.206 317.5 206.649 317.5ZM218.391 313.125C218.005 313.125 217.675 312.987 217.399 312.711C217.123 312.435 216.985 312.104 216.985 311.719C216.985 311.333 217.123 311.003 217.399 310.727C217.675 310.451 218.005 310.312 218.391 310.312C218.776 310.312 219.107 310.451 219.383 310.727C219.659 311.003 219.797 311.333 219.797 311.719C219.797 311.974 219.732 312.208 219.602 312.422C219.477 312.635 219.308 312.807 219.094 312.937C218.886 313.063 218.651 313.125 218.391 313.125ZM218.391 304.219C218.005 304.219 217.675 304.081 217.399 303.805C217.123 303.529 216.985 303.198 216.985 302.812C216.985 302.427 217.123 302.096 217.399 301.82C217.675 301.544 218.005 301.406 218.391 301.406C218.776 301.406 219.107 301.544 219.383 301.82C219.659 302.096 219.797 302.427 219.797 302.812C219.797 303.068 219.732 303.302 219.602 303.516C219.477 303.729 219.308 303.901 219.094 304.031C218.886 304.156 218.651 304.219 218.391 304.219Z" fill="#919191"/>
<path d="M241.098 302H239.161C239.046 301.443 238.846 300.953 238.559 300.531C238.278 300.109 237.934 299.755 237.528 299.469C237.127 299.177 236.682 298.958 236.192 298.812C235.702 298.667 235.192 298.594 234.661 298.594C233.692 298.594 232.814 298.839 232.028 299.328C231.247 299.818 230.624 300.539 230.161 301.492C229.702 302.445 229.473 303.615 229.473 305C229.473 306.385 229.702 307.555 230.161 308.508C230.624 309.461 231.247 310.182 232.028 310.672C232.814 311.161 233.692 311.406 234.661 311.406C235.192 311.406 235.702 311.333 236.192 311.187C236.682 311.042 237.127 310.826 237.528 310.539C237.934 310.247 238.278 309.891 238.559 309.469C238.846 309.042 239.046 308.552 239.161 308H241.098C240.952 308.818 240.687 309.549 240.301 310.195C239.916 310.841 239.437 311.391 238.864 311.844C238.291 312.292 237.648 312.633 236.934 312.867C236.226 313.102 235.468 313.219 234.661 313.219C233.296 313.219 232.083 312.885 231.02 312.219C229.958 311.552 229.122 310.604 228.512 309.375C227.903 308.146 227.598 306.687 227.598 305C227.598 303.312 227.903 301.854 228.512 300.625C229.122 299.396 229.958 298.448 231.02 297.781C232.083 297.115 233.296 296.781 234.661 296.781C235.468 296.781 236.226 296.898 236.934 297.133C237.648 297.367 238.291 297.711 238.864 298.164C239.437 298.612 239.916 299.159 240.301 299.805C240.687 300.445 240.952 301.177 241.098 302ZM243.319 313V301H245.1V302.812H245.225C245.444 302.219 245.84 301.737 246.413 301.367C246.986 300.997 247.632 300.812 248.35 300.812C248.486 300.812 248.655 300.815 248.858 300.82C249.061 300.826 249.215 300.833 249.319 300.844V302.719C249.257 302.703 249.113 302.68 248.889 302.648C248.671 302.612 248.439 302.594 248.194 302.594C247.611 302.594 247.09 302.716 246.632 302.961C246.178 303.201 245.819 303.534 245.553 303.961C245.293 304.383 245.163 304.865 245.163 305.406V313H243.319ZM255.354 313.25C254.271 313.25 253.321 312.992 252.503 312.477C251.69 311.961 251.055 311.24 250.597 310.312C250.143 309.385 249.917 308.302 249.917 307.062C249.917 305.812 250.143 304.721 250.597 303.789C251.055 302.857 251.69 302.133 252.503 301.617C253.321 301.102 254.271 300.844 255.354 300.844C256.438 300.844 257.386 301.102 258.198 301.617C259.016 302.133 259.651 302.857 260.104 303.789C260.563 304.721 260.792 305.812 260.792 307.062C260.792 308.302 260.563 309.385 260.104 310.312C259.651 311.24 259.016 311.961 258.198 312.477C257.386 312.992 256.438 313.25 255.354 313.25ZM255.354 311.594C256.177 311.594 256.854 311.383 257.386 310.961C257.917 310.539 258.31 309.984 258.565 309.297C258.821 308.609 258.948 307.865 258.948 307.062C258.948 306.26 258.821 305.513 258.565 304.82C258.31 304.128 257.917 303.568 257.386 303.141C256.854 302.714 256.177 302.5 255.354 302.5C254.531 302.5 253.854 302.714 253.323 303.141C252.792 303.568 252.399 304.128 252.143 304.82C251.888 305.513 251.761 306.26 251.761 307.062C251.761 307.865 251.888 308.609 252.143 309.297C252.399 309.984 252.792 310.539 253.323 310.961C253.854 311.383 254.531 311.594 255.354 311.594ZM265.257 313L261.601 301H263.538L266.132 310.188H266.257L268.819 301H270.788L273.319 310.156H273.444L276.038 301H277.976L274.319 313H272.507L269.882 303.781H269.694L267.069 313H265.257ZM281.597 305.781V313H279.753V301H281.534V302.875H281.691C281.972 302.266 282.399 301.776 282.972 301.406C283.545 301.031 284.284 300.844 285.191 300.844C286.003 300.844 286.714 301.01 287.323 301.344C287.933 301.672 288.407 302.172 288.745 302.844C289.084 303.51 289.253 304.354 289.253 305.375V313H287.409V305.5C287.409 304.557 287.165 303.823 286.675 303.297C286.185 302.766 285.514 302.5 284.659 302.5C284.071 302.5 283.545 302.628 283.081 302.883C282.623 303.138 282.261 303.51 281.995 304C281.73 304.49 281.597 305.083 281.597 305.781ZM310.615 302H308.677C308.563 301.443 308.362 300.953 308.076 300.531C307.794 300.109 307.451 299.755 307.044 299.469C306.643 299.177 306.198 298.958 305.709 298.812C305.219 298.667 304.709 298.594 304.177 298.594C303.209 298.594 302.331 298.839 301.544 299.328C300.763 299.818 300.141 300.539 299.677 301.492C299.219 302.445 298.99 303.615 298.99 305C298.99 306.385 299.219 307.555 299.677 308.508C300.141 309.461 300.763 310.182 301.544 310.672C302.331 311.161 303.209 311.406 304.177 311.406C304.709 311.406 305.219 311.333 305.709 311.187C306.198 311.042 306.643 310.826 307.044 310.539C307.451 310.247 307.794 309.891 308.076 309.469C308.362 309.042 308.563 308.552 308.677 308H310.615C310.469 308.818 310.203 309.549 309.818 310.195C309.432 310.841 308.953 311.391 308.38 311.844C307.807 312.292 307.164 312.633 306.451 312.867C305.742 313.102 304.985 313.219 304.177 313.219C302.813 313.219 301.599 312.885 300.537 312.219C299.474 311.552 298.638 310.604 298.029 309.375C297.419 308.146 297.115 306.687 297.115 305C297.115 303.312 297.419 301.854 298.029 300.625C298.638 299.396 299.474 298.448 300.537 297.781C301.599 297.115 302.813 296.781 304.177 296.781C304.985 296.781 305.742 296.898 306.451 297.133C307.164 297.367 307.807 297.711 308.38 298.164C308.953 298.612 309.432 299.159 309.818 299.805C310.203 300.445 310.469 301.177 310.615 302ZM314.679 305.781V313H312.836V297H314.679V302.875H314.836C315.117 302.255 315.539 301.763 316.101 301.398C316.669 301.029 317.424 300.844 318.367 300.844C319.185 300.844 319.901 301.008 320.515 301.336C321.13 301.659 321.606 302.156 321.945 302.828C322.289 303.495 322.461 304.344 322.461 305.375V313H320.617V305.5C320.617 304.547 320.369 303.81 319.875 303.289C319.385 302.763 318.705 302.5 317.836 302.5C317.231 302.5 316.69 302.628 316.211 302.883C315.737 303.138 315.362 303.51 315.086 304C314.815 304.49 314.679 305.083 314.679 305.781ZM328.705 313.281C327.945 313.281 327.254 313.138 326.635 312.852C326.015 312.56 325.523 312.141 325.158 311.594C324.793 311.042 324.611 310.375 324.611 309.594C324.611 308.906 324.747 308.349 325.017 307.922C325.288 307.49 325.65 307.151 326.103 306.906C326.556 306.661 327.056 306.479 327.603 306.359C328.155 306.234 328.71 306.135 329.267 306.063C329.997 305.969 330.588 305.898 331.041 305.852C331.499 305.799 331.833 305.714 332.041 305.594C332.254 305.474 332.361 305.266 332.361 304.969V304.906C332.361 304.135 332.15 303.536 331.728 303.109C331.312 302.682 330.679 302.469 329.83 302.469C328.95 302.469 328.26 302.661 327.76 303.047C327.26 303.432 326.908 303.844 326.705 304.281L324.955 303.656C325.267 302.927 325.684 302.359 326.205 301.953C326.731 301.542 327.304 301.255 327.924 301.094C328.549 300.927 329.163 300.844 329.767 300.844C330.153 300.844 330.596 300.891 331.096 300.984C331.601 301.073 332.088 301.258 332.556 301.539C333.03 301.82 333.424 302.245 333.736 302.812C334.049 303.38 334.205 304.141 334.205 305.094V313H332.361V311.375H332.267C332.142 311.635 331.934 311.914 331.642 312.211C331.351 312.508 330.963 312.76 330.478 312.969C329.994 313.177 329.403 313.281 328.705 313.281ZM328.986 311.625C329.715 311.625 330.33 311.482 330.83 311.195C331.335 310.909 331.715 310.539 331.971 310.086C332.231 309.633 332.361 309.156 332.361 308.656V306.969C332.283 307.062 332.111 307.148 331.846 307.227C331.585 307.299 331.283 307.365 330.939 307.422C330.601 307.474 330.27 307.521 329.947 307.562C329.629 307.599 329.372 307.63 329.174 307.656C328.695 307.719 328.247 307.82 327.83 307.961C327.418 308.096 327.085 308.302 326.83 308.578C326.58 308.849 326.455 309.219 326.455 309.687C326.455 310.328 326.692 310.812 327.166 311.141C327.645 311.464 328.252 311.625 328.986 311.625ZM338.629 308.625L338.598 306.344H338.973L344.223 301H346.504L340.91 306.656H340.754L338.629 308.625ZM336.91 313V297H338.754V313H336.91ZM344.535 313L339.848 307.062L341.16 305.781L346.879 313H344.535ZM348.217 313V301H349.998V302.812H350.123C350.342 302.219 350.738 301.737 351.311 301.367C351.884 300.997 352.529 300.812 353.248 300.812C353.384 300.812 353.553 300.815 353.756 300.82C353.959 300.826 354.113 300.833 354.217 300.844V302.719C354.154 302.703 354.011 302.68 353.787 302.648C353.569 302.612 353.337 302.594 353.092 302.594C352.509 302.594 351.988 302.716 351.529 302.961C351.076 303.201 350.717 303.534 350.451 303.961C350.191 304.383 350.061 304.865 350.061 305.406V313H348.217ZM359.274 313.281C358.513 313.281 357.823 313.138 357.203 312.852C356.584 312.56 356.091 312.141 355.727 311.594C355.362 311.042 355.18 310.375 355.18 309.594C355.18 308.906 355.315 308.349 355.586 307.922C355.857 307.49 356.219 307.151 356.672 306.906C357.125 306.661 357.625 306.479 358.172 306.359C358.724 306.234 359.279 306.135 359.836 306.063C360.565 305.969 361.157 305.898 361.61 305.852C362.068 305.799 362.401 305.714 362.61 305.594C362.823 305.474 362.93 305.266 362.93 304.969V304.906C362.93 304.135 362.719 303.536 362.297 303.109C361.881 302.682 361.248 302.469 360.399 302.469C359.519 302.469 358.828 302.661 358.328 303.047C357.828 303.432 357.477 303.844 357.274 304.281L355.524 303.656C355.836 302.927 356.253 302.359 356.774 301.953C357.3 301.542 357.873 301.255 358.492 301.094C359.117 300.927 359.732 300.844 360.336 300.844C360.722 300.844 361.164 300.891 361.664 300.984C362.17 301.073 362.657 301.258 363.125 301.539C363.599 301.82 363.992 302.245 364.305 302.812C364.617 303.38 364.774 304.141 364.774 305.094V313H362.93V311.375H362.836C362.711 311.635 362.503 311.914 362.211 312.211C361.92 312.508 361.532 312.76 361.047 312.969C360.563 313.177 359.972 313.281 359.274 313.281ZM359.555 311.625C360.284 311.625 360.899 311.482 361.399 311.195C361.904 310.909 362.284 310.539 362.539 310.086C362.8 309.633 362.93 309.156 362.93 308.656V306.969C362.852 307.062 362.68 307.148 362.414 307.227C362.154 307.299 361.852 307.365 361.508 307.422C361.17 307.474 360.839 307.521 360.516 307.562C360.198 307.599 359.94 307.63 359.742 307.656C359.263 307.719 358.815 307.82 358.399 307.961C357.987 308.096 357.654 308.302 357.399 308.578C357.149 308.849 357.024 309.219 357.024 309.687C357.024 310.328 357.261 310.812 357.735 311.141C358.214 311.464 358.821 311.625 359.555 311.625Z" fill="white"/>
</g>
<defs>
<linearGradient id="paint0_linear_1314_873" x1="349" y1="255.5" x2="349" y2="364.5" gradientUnits="userSpaceOnUse">
<stop stop-color="#0E0E0E" stop-opacity="0"/>
<stop offset="1" stop-color="#0E0E0E"/>
</linearGradient>
<linearGradient id="paint1_linear_1314_873" x1="349" y1="-6.65889e-06" x2="349" y2="65" gradientUnits="userSpaceOnUse">
<stop stop-color="#0E0E0E"/>
<stop offset="1" stop-color="#0E0E0E" stop-opacity="0"/>
</linearGradient>
</defs>
</svg>
