<svg width="699" height="383" viewBox="0 0 699 383" fill="none" xmlns="http://www.w3.org/2000/svg">
<rect width="699" height="383" rx="54" fill="#0E0E0E"/>
<mask id="mask0_1316_138" style="mask-type:alpha" maskUnits="userSpaceOnUse" x="0" y="0" width="699" height="383">
<rect width="699" height="383" rx="54" fill="#0E0E0E"/>
</mask>
<g mask="url(#mask0_1316_138)">
<path d="M349.002 -392.428C353.398 -392.428 356.962 -388.864 356.962 -384.468C356.962 -380.583 354.177 -377.35 350.494 -376.651L350.494 177.046C354.177 177.745 356.962 180.978 356.962 184.864C356.962 189.26 353.398 192.823 349.002 192.823C344.606 192.823 341.043 189.26 341.043 184.864C341.043 180.978 343.827 177.745 347.51 177.046L347.51 -376.651C343.828 -377.35 341.043 -380.583 341.043 -384.468C341.043 -388.864 344.606 -392.428 349.002 -392.428Z" fill="#B7B7B7"/>
<path d="M357.21 102.038C357.21 106.572 353.535 110.246 349.002 110.246C344.469 110.246 340.794 106.572 340.794 102.038C340.794 97.5053 344.469 93.8305 349.002 93.8305C353.535 93.8305 357.21 97.5053 357.21 102.038Z" fill="#B7B7B7"/>
<path d="M357.21 26.6747C357.21 31.2078 353.535 34.8826 349.002 34.8826C344.469 34.8826 340.794 31.2078 340.794 26.6747C340.794 22.1415 344.469 18.4667 349.002 18.4667C353.535 18.4667 357.21 22.1415 357.21 26.6747Z" fill="#B7B7B7"/>
<path d="M357.21 -54.6585C357.21 -50.1254 353.535 -46.4506 349.002 -46.4506C344.469 -46.4506 340.794 -50.1254 340.794 -54.6585C340.794 -59.1916 344.469 -62.8664 349.002 -62.8664C353.535 -62.8664 357.21 -59.1916 357.21 -54.6585Z" fill="#B7B7B7"/>
<path d="M357.21 -133.753C357.21 -129.22 353.535 -125.545 349.002 -125.545C344.469 -125.545 340.794 -129.22 340.794 -133.753C340.794 -138.286 344.469 -141.961 349.002 -141.961C353.535 -141.961 357.21 -138.286 357.21 -133.753Z" fill="#B7B7B7"/>
<path d="M357.21 -278.511C357.21 -273.978 353.535 -270.303 349.002 -270.303C344.469 -270.303 340.794 -273.978 340.794 -278.511C340.794 -283.044 344.469 -286.719 349.002 -286.719C353.535 -286.719 357.21 -283.044 357.21 -278.511Z" fill="#B7B7B7"/>
<path d="M348.713 57.2128C348.713 57.0263 348.564 56.9516 348.34 57.0636C348.154 57.1755 347.967 57.1382 347.967 56.9516C347.967 56.7278 346.699 55.6085 345.169 54.452C343.639 53.2581 342.371 52.1761 342.371 52.0642C342.371 51.9523 342.035 51.4299 341.662 50.9076C341.065 50.1614 340.841 50.0868 340.356 50.4972C339.983 50.7957 338.23 51.0569 335.767 51.2061C333.268 51.318 332.036 51.5046 332.484 51.6911C333.641 52.1388 332.559 52.0642 331.253 51.6165C330.581 51.3926 330.134 51.0569 330.246 50.9076C330.357 50.7584 330.059 49.4526 329.611 48.0349C329.164 46.6544 328.641 44.4159 328.417 43.1101L328.007 40.7223L326.291 40.1254C325.395 39.7896 324.052 39.0807 323.343 38.5584C321.739 37.3272 319.613 36.2452 319.613 36.6183C319.613 36.8049 319.426 36.6557 319.239 36.3572C318.754 35.4991 321.664 27.2539 322.709 26.5823C322.97 26.4331 322.784 25.6869 322.15 24.5303C321.627 23.5603 320.844 21.6202 320.359 20.2398C319.911 18.8594 319.389 17.6282 319.202 17.5162C318.456 17.0312 318.904 15.8374 320.06 15.2404C320.732 14.9046 322.112 13.9719 323.157 13.1884C324.164 12.4423 325.731 11.5842 326.627 11.323C328.082 10.9126 328.194 10.7633 328.194 9.53215C328.194 7.96518 329.984 1.28692 330.581 0.689983C330.992 0.279586 338.08 0.578047 340.207 1.10037C340.99 1.32422 341.214 1.21228 341.401 0.615338C341.55 0.204941 342.11 -0.429281 342.669 -0.802369C343.229 -1.13815 344.908 -2.44395 346.4 -3.63783L349.086 -5.80176L352.668 -2.9663C354.608 -1.39933 356.399 0.279558 356.66 0.801882C356.959 1.51075 357.257 1.66 357.817 1.47346C358.264 1.32422 359.869 1.06306 361.398 0.913826C362.928 0.727282 364.868 0.503429 365.726 0.354194C366.771 0.204959 367.368 0.279558 367.629 0.615338C368.301 1.51075 369.979 7.81597 369.979 9.42025C369.979 10.8007 370.054 10.9872 370.875 10.9872C371.323 10.9872 372.293 11.3976 373.001 11.8826C376.098 14.1212 378.598 15.8001 379.008 15.9493C379.381 16.0612 379.381 16.3597 378.971 17.367C378.71 18.0759 378.001 19.8667 377.441 21.3964C376.844 22.8887 376.023 24.493 375.613 24.9407L374.83 25.7615L375.762 27.03C376.285 27.7389 377.068 29.4177 377.516 30.8355C377.963 32.2159 378.411 33.2606 378.523 33.1859C378.635 33.1113 378.747 33.4471 378.784 33.8575C378.784 34.3052 378.934 34.9395 379.083 35.2379C379.269 35.6856 378.486 36.3572 375.986 37.9615C374.158 39.1181 372.031 40.3119 371.248 40.5731C369.905 41.0581 369.83 41.17 369.756 42.8489C369.681 43.8563 369.308 45.6471 368.86 46.841C368.45 48.0721 368.114 49.6391 368.114 50.348V51.6165L366.36 51.4673C365.353 51.3553 363.264 51.2061 361.66 51.0942C360.055 51.0195 358.414 50.7211 357.966 50.4972C357.294 50.1241 357.071 50.1987 356.511 50.9449C355.653 52.0269 355.578 52.6611 356.362 52.0269C356.847 51.6165 356.884 51.6538 356.697 52.1388C356.586 52.4373 356.25 52.8104 355.951 52.9223C355.616 53.0342 355.504 52.9596 355.616 52.7731C355.727 52.5492 355.69 52.4 355.466 52.4C355.28 52.4 355.056 52.5492 354.981 52.6985C354.832 53.0715 349.236 57.6232 348.937 57.6232C348.825 57.6232 348.713 57.4367 348.713 57.2128ZM350.43 53.0715C352.444 51.5792 354.683 49.266 354.683 48.6691C354.683 48.1841 353.899 48.1094 349.086 48.1468C346.027 48.1468 343.378 48.2587 343.266 48.4079C342.931 48.7437 348.228 53.8923 348.863 53.8923C349.161 53.8923 349.833 53.5193 350.43 53.0715ZM339.647 47.9602C341.028 47.5871 340.729 47.0648 338.379 45.6844C337.11 44.9755 335.096 43.4832 333.864 42.4385C332.633 41.3566 331.514 40.4612 331.402 40.4612C330.656 40.4612 331.551 46.356 332.521 47.8483C333.044 48.6691 333.23 48.6691 335.954 48.4452C337.521 48.296 339.2 48.0721 339.647 47.9602ZM365.241 48.1095C365.913 47.4752 366.845 44.7144 367.181 42.4385C367.517 40.3119 366.995 40.3492 364.197 42.737C363.003 43.7816 361.1 45.162 360.018 45.759C358.936 46.3559 358.041 47.0275 358.041 47.1767C358.041 47.3633 358.6 47.6618 359.272 47.8856C362.033 48.7437 364.532 48.8556 365.241 48.1095ZM346.214 43.9309C345.654 42.9236 344.497 41.0581 343.677 39.715C342.856 38.3719 341.662 36.4691 341.102 35.4245C337.931 29.9028 331.402 18.934 330.992 18.4863C330.581 18.0759 330.357 18.5982 329.723 21.3591C328.79 25.2765 328.753 26.6942 329.499 30.1266C330.954 37.0661 336.886 43.222 343.901 45.0875C347.296 46.0202 347.408 45.9456 346.214 43.9309ZM355.205 44.7517C359.794 43.5578 364.644 39.4911 366.808 35.0887C369.196 30.2385 369.681 26.6942 368.711 21.6948C368.226 19.0832 367.741 18.1878 367.069 18.5982C366.845 18.7101 365.875 20.3144 364.868 22.1052C359.458 31.6936 354.011 41.0954 351.773 44.4905C351.288 45.274 351.288 45.3113 352.146 45.3113C352.631 45.3113 354.011 45.0501 355.205 44.7517ZM353.452 36.7303C355.28 33.559 358.488 28.0373 360.578 24.4557C362.667 20.874 364.383 17.8147 364.383 17.6655C364.383 17.4789 357.481 17.3297 349.049 17.3297H333.753L335.693 20.986C336.775 22.9633 339.2 27.2165 341.065 30.3878C342.968 33.559 345.468 37.8869 346.661 40.0135C348.751 43.707 348.863 43.8563 349.46 43.1847C349.833 42.8116 351.623 39.9015 353.452 36.7303ZM328.716 35.723C328.007 34.3052 327.149 31.9548 326.776 30.4997C326.44 29.0074 325.955 27.7762 325.694 27.7762C325.172 27.7762 323.082 31.9174 322.746 33.5963C322.56 34.641 322.709 34.8648 324.537 36.2452C326.85 37.9614 327.224 38.148 328.828 38.1853L329.984 38.2226L328.716 35.723ZM373.001 36.6557C374.307 35.7976 375.501 34.9394 375.65 34.7156C376.135 34.0067 373.225 27.6269 372.516 27.8508C372.293 27.9254 371.77 29.3431 371.397 30.9474C371.024 32.589 370.203 34.7902 369.606 35.8722C368.972 36.9541 368.487 37.9242 368.487 38.0361C368.487 38.148 368.972 38.2226 369.569 38.2226C370.203 38.2226 371.621 37.5884 373.001 36.6557ZM325.955 24.2691C325.955 23.4483 328.417 16.2104 328.977 15.427C330.357 13.4496 329.574 13.0765 326.701 14.3823C324.351 15.4269 322.597 16.882 322.597 17.7028C322.597 18.5982 324.313 23.2245 324.873 23.9333C325.283 24.381 325.955 24.6049 325.955 24.2691ZM375.016 20.1279L376.023 17.5162L374.643 16.3224C372.964 14.9046 370.464 13.5988 369.308 13.5988C368.301 13.5988 368.3 13.5988 369.457 15.8746C369.979 16.9193 370.726 19.0459 371.136 20.6129C371.509 22.2172 371.957 23.7095 372.031 24.008C372.404 24.9407 373.897 22.9633 375.016 20.1279ZM365.129 14.4196C365.129 13.748 361.734 10.5395 359.421 9.00982C353.825 5.27894 345.318 5.16701 339.274 8.63673C337.409 9.75599 333.044 13.8227 333.044 14.4942C333.044 14.7927 338.08 14.9046 349.086 14.9046C361.958 14.9046 365.129 14.83 365.129 14.4196ZM366.995 9.60679C366.995 7.96521 366.174 4.08509 365.764 3.63739C365.652 3.56277 364.42 3.45081 363.003 3.4135C360.615 3.37619 357.667 4.01047 357.667 4.57011C357.667 4.71934 358.6 5.31627 359.757 5.91321C360.876 6.51016 362.779 7.96518 363.935 9.15906C365.092 10.3156 366.286 11.323 366.547 11.323C366.845 11.3603 366.995 10.7634 366.995 9.60679ZM334.275 8.89792C335.506 7.74135 337.409 6.3982 338.491 5.83857C341.849 4.19698 341.028 3.52544 335.767 3.52544C332.223 3.52544 332.26 3.48815 331.365 7.36827C330.805 9.75603 330.917 10.9872 331.626 10.9872C331.85 10.9872 333.006 10.0545 334.275 8.89792ZM354.645 3.3016C355.541 2.4808 350.019 -2.29473 348.713 -1.88433C347.669 -1.54855 342.968 3.0031 343.229 3.4135C343.416 3.74928 354.31 3.63738 354.645 3.3016Z" fill="#545454"/>
<path d="M347.743 137.053C347.146 136.419 345.243 135.001 343.49 133.845C339.386 131.159 338.416 130.226 337.67 128.248L337.035 126.607L335.431 126.868C333.379 127.166 330.544 126.308 327.633 124.555C326.402 123.771 324.388 122.876 323.156 122.54C320.918 121.906 320.918 121.906 321.03 120.563C321.104 119.593 320.993 119.145 320.507 118.884C319.948 118.585 319.911 118.399 320.321 117.914C320.955 117.168 320.507 115.078 319.724 115.078C318.717 115.078 319.463 114.668 320.582 114.593C321.627 114.519 321.664 114.407 321.888 112.094C322.112 109.519 322.783 107.878 324.052 106.721C324.835 106.012 324.835 105.975 324.126 105.229C322.559 103.475 322.112 101.946 321.813 97.1702C321.664 94.5959 321.366 91.947 321.142 91.2754C320.731 89.9323 320.881 89.8204 323.53 88.9623C324.35 88.7011 326.514 87.7311 328.342 86.761C331.252 85.2314 331.924 85.0449 334.274 84.9702L336.886 84.8956L337.371 83.5525C338.043 81.6124 339.423 80.2693 343.303 77.8816C345.169 76.7623 347.183 75.3072 347.855 74.673L349.049 73.5537L350.466 74.8595C351.287 75.5684 353.302 76.9488 354.944 77.9562C358.562 80.0828 360.652 82.0974 360.988 83.739L361.211 84.9329L364.01 85.0075C366.584 85.0448 367.069 85.1941 369.979 86.7983C371.732 87.7311 374.12 88.813 375.314 89.1488C377.59 89.8204 377.627 89.8577 377.068 91.4246C376.844 91.9843 376.545 94.5586 376.359 97.1329C376.06 101.946 375.389 104.147 373.896 105.378C373.374 105.826 373.411 105.975 374.232 106.833C375.463 108.102 375.986 109.557 376.284 112.28C376.508 114.481 376.545 114.519 377.739 114.631C378.709 114.743 378.933 114.929 378.933 115.638C378.933 116.123 379.12 116.645 379.306 116.757C379.53 116.869 379.679 117.392 379.679 117.877C379.679 118.585 379.418 118.772 378.15 118.996C376.956 119.22 376.695 119.369 376.918 119.854C377.59 121.533 377.329 121.906 374.904 122.615C373.598 123.025 371.77 123.809 370.837 124.443C368.263 126.047 365.353 127.017 363.114 127.017C361.249 127.017 361.099 127.092 360.838 128.025C360.391 129.815 359.159 131.084 355.914 133.099C354.123 134.143 351.884 135.748 350.914 136.643C349.944 137.501 349.086 138.21 349.011 138.21C348.937 138.21 348.377 137.688 347.743 137.053ZM350.019 134.106C350.168 133.882 351.735 132.725 353.488 131.532C357.033 129.144 358.189 128.062 358.6 126.681C358.824 125.898 358.786 125.823 358.189 126.047C357.779 126.196 356.137 126.681 354.533 127.092C350.69 128.062 345.131 127.913 341.848 126.719C340.617 126.271 339.572 125.973 339.46 126.047C339.237 126.271 340.132 127.838 341.027 128.808C341.438 129.293 343.191 130.524 344.833 131.532C346.512 132.539 348.079 133.621 348.34 133.919C348.862 134.554 349.683 134.666 350.019 134.106ZM352.295 124.741C359.234 123.473 365.8 117.541 367.591 110.825C368.114 108.848 368.225 103.252 367.778 101.647C367.554 100.901 367.442 101.2 367.218 103.028C367.032 104.595 366.472 106.348 365.427 108.4C361.883 115.452 355.205 119.294 347.444 118.697C339.684 118.138 332.819 111.609 331.066 103.14L330.544 100.715L330.245 102.132C330.096 102.953 330.059 105.229 330.133 107.206C330.282 110.042 330.506 111.273 331.252 112.914C335.244 121.645 343.602 126.308 352.295 124.741ZM333.864 121.458C332.484 120.115 330.805 118.063 330.17 116.944C328.939 114.78 327.447 110.378 327.447 108.922C327.447 107.654 326.701 107.356 325.955 108.288C325.208 109.184 324.611 112.168 324.276 116.608L324.015 119.779L325.432 120.414C326.253 120.749 328.118 121.682 329.648 122.503C332.334 123.958 333.864 124.368 335.543 124.07C336.326 123.958 336.14 123.659 333.864 121.458ZM369.867 121.943L374.046 119.854L373.859 117.168C373.449 110.937 373.374 110.527 372.404 109.034C371.844 108.214 371.359 107.617 371.285 107.691C371.21 107.766 370.874 109.072 370.576 110.601C369.718 114.668 368.188 117.466 364.942 120.861C363.413 122.466 362.144 123.958 362.144 124.144C362.144 125.003 365.95 123.921 369.867 121.943ZM355.54 114.593C361.696 111.795 365.614 104.595 364.495 98.1029C363.674 93.2901 361.659 90.7904 356.585 88.2907C354.085 87.0595 353.488 86.9103 350.168 86.7983C340.169 86.3879 333.789 91.947 333.789 101.125C333.789 104.595 334.722 107.132 337.073 110.042C339.162 112.653 341.065 114.034 343.863 115.078C346.885 116.198 352.518 115.974 355.54 114.593ZM327.298 103.252C328.566 97.3941 330.469 93.7378 333.901 90.3427C336.662 87.6564 336.662 87.1715 333.864 87.5819C332.521 87.8057 324.089 91.8351 324.089 92.2828C324.089 92.3947 324.276 94.4094 324.462 96.7225C324.91 102.282 326.626 106.199 327.298 103.252ZM372.591 102.692C373.262 101.573 373.449 100.267 373.859 94.2974C373.971 92.3201 373.896 91.5739 373.598 91.5739C373.337 91.5739 371.322 90.6412 369.121 89.5219C366.248 88.0669 364.644 87.4699 363.599 87.4699C362.816 87.4699 362.144 87.5818 362.144 87.6938C362.144 87.8057 363.338 89.1861 364.756 90.7531C367.703 93.887 369.979 98.1029 370.725 101.759C370.949 102.916 371.322 103.886 371.509 103.886C371.695 103.886 372.18 103.363 372.591 102.692ZM341.774 85.2314C346.213 83.6644 352.033 83.5898 356.137 85.0075C358.227 85.7537 358.413 85.7537 358.413 84.8583C358.413 83.7017 356.697 82.1348 352.63 79.6351C349.683 77.8069 348.788 77.4339 348.34 77.7323C348.041 77.9935 347.295 78.4412 346.736 78.8143C341.55 81.9482 340.132 83.2167 339.572 85.1568C339.274 86.1641 339.125 86.1268 341.774 85.2314Z" fill="#545454"/>
<path fill-rule="evenodd" clip-rule="evenodd" d="M403.048 -265.26C403.068 -265.348 403.089 -265.44 403.111 -265.536L403.108 -265.52C403.087 -265.43 403.067 -265.343 403.048 -265.26ZM612.485 156.273C612.535 156.414 612.585 156.557 612.635 156.7L612.622 156.661C612.576 156.531 612.53 156.402 612.485 156.273Z" fill="#696969"/>
<path d="M383.901 -296.057L385.073 -300.296L312.953 -300.174L315.359 -296.623L383.901 -296.057Z" fill="#696969"/>
<path d="M300.09 -317.94L303.237 -314.671C303.237 -314.671 310.438 -334.101 347.755 -334.101C385.073 -334.101 392.273 -317.42 392.273 -317.42L394.028 -321.515C394.028 -321.515 385.073 -338.205 347.755 -338.205C310.438 -338.205 300.09 -317.94 300.09 -317.94Z" fill="#696969"/>
<path d="M172.765 205.142C171.683 203.501 172.392 202.493 176.458 199.732C180.786 196.822 188.435 192.942 194.329 190.666C205.671 186.227 219.289 183.727 232.496 183.727C238.428 183.69 239.137 183.652 238.503 183.167C237.384 182.309 227.497 178.243 224.997 177.608C222.05 176.862 217.386 176.862 210.969 177.608C207.872 177.981 205 178.131 203.768 177.944C199.478 177.422 196.456 174.027 196.456 169.699C196.456 166.975 197.538 164.811 200.075 162.461C202.575 160.222 205.074 159.327 211.379 158.581C215.521 158.058 215.782 157.984 221.266 155.223C231.302 150.112 234.026 150.074 249.248 154.589C259.471 157.648 263.91 158.506 269.245 158.469C274.506 158.432 276.931 157.909 286.37 154.813C295.026 152.014 295.847 151.791 299.503 151.268C304.577 150.559 310.248 151.977 313.568 154.813C315.434 156.38 317.784 159.625 320.172 163.953C321.329 166.117 322.634 168.318 323.007 168.878C323.418 169.4 323.716 170.035 323.716 170.296C323.716 170.52 323.903 170.594 324.089 170.482C324.761 170.072 324.462 171.266 323.716 172.087C322.709 173.169 322.448 173.131 323.194 171.975C323.977 170.781 323.53 169.997 322.56 170.93C322.187 171.303 321.627 171.825 321.291 172.087C320.806 172.497 320.806 172.721 321.142 173.131C321.366 173.43 321.515 173.766 321.403 173.84C321.067 174.213 318.195 169.923 316.068 165.856C312.636 159.252 309.8 156.715 304.838 155.745C301.592 155.111 298.719 155.633 288.907 158.767C276.073 162.834 271.857 163.58 265.141 162.834C259.769 162.274 253.874 160.894 246.487 158.544C234.697 154.738 232.16 154.85 223.02 159.252C216.64 162.312 215.558 162.685 211.417 163.021C207.499 163.356 204.925 164.14 203.395 165.52C200.635 167.945 200.075 170.855 202.052 172.609C203.47 173.877 203.992 173.915 213.021 173.019C223.281 172.049 225.296 172.422 238.018 177.795C241.861 179.436 247.532 181.75 250.666 183.018L256.299 185.257L267.156 186.712C283.721 188.913 285.176 189.062 295.175 189.025C302.152 189.025 306.107 188.838 310.845 188.241C314.314 187.831 317.299 187.607 317.486 187.794C317.672 187.98 317.859 188.353 317.896 188.614C318.232 190.368 318.642 191.189 319.165 191.189C320.545 191.189 319.09 191.636 316.031 192.121C309.427 193.166 303.57 193.539 294.615 193.539C285.587 193.539 278.461 192.942 267.753 191.375C248.278 188.502 234.101 187.607 223.356 188.614C207.425 190.032 191.345 195.479 179.107 203.538C176.943 204.956 174.78 206.112 174.295 206.112C173.735 206.112 173.138 205.739 172.765 205.142Z" fill="#696969"/>
<path d="M342.93 -195.256C341.251 -195.816 341.065 -196.002 341.065 -197.009C341.065 -198.315 341.102 -198.315 346.176 -197.606C349.347 -197.159 350.131 -197.196 355.429 -198.166C356.623 -198.353 356.809 -198.278 357.182 -197.457C358.078 -195.517 355.391 -194.584 348.9 -194.622C346.027 -194.622 344.236 -194.808 342.93 -195.256Z" fill="#696969"/>
<path d="M338.155 -203.352C334.013 -203.874 333.043 -204.247 333.043 -205.441C333.043 -206.859 334.237 -207.195 337.409 -206.635C342.259 -205.852 351.325 -205.59 356.361 -206.187C358.824 -206.449 361.771 -206.672 362.89 -206.71C364.83 -206.71 364.942 -206.672 365.054 -205.74C365.204 -204.397 364.532 -203.986 361.547 -203.538C357.369 -202.867 342.781 -202.755 338.155 -203.352Z" fill="#696969"/>
<path d="M344.311 -218.126C341.475 -219.245 340.356 -219.88 340.057 -220.551C339.759 -221.186 339.759 -221.559 340.132 -222.006C340.804 -222.827 341.624 -222.715 344.46 -221.372C348.303 -219.581 350.093 -219.581 353.712 -221.372C355.317 -222.193 356.958 -222.752 357.331 -222.678C358.115 -222.454 358.525 -221.447 358.189 -220.551C357.816 -219.581 350.765 -216.597 348.937 -216.597C348.489 -216.597 346.437 -217.305 344.311 -218.126Z" fill="#696969"/>
<path d="M352.257 -230.923C351.772 -231.296 351.698 -232.714 351.772 -242.153L351.884 -252.973H354.123L354.235 -241.929C354.309 -231.184 354.309 -230.848 353.6 -230.662C353.19 -230.55 352.593 -230.662 352.257 -230.923Z" fill="#696969"/>
<path d="M323.156 -242.601C317.597 -243.832 314.314 -246.22 315.956 -247.861C316.627 -248.533 317.56 -248.421 319.538 -247.414C323.679 -245.324 328.827 -245.212 333.566 -247.19C335.841 -248.16 336.513 -248.272 337.147 -247.936C337.707 -247.637 337.893 -247.227 337.819 -246.518C337.744 -245.697 337.259 -245.287 335.319 -244.354C334.013 -243.683 332.036 -242.974 330.879 -242.75C328.865 -242.34 324.649 -242.265 323.156 -242.601Z" fill="#696969"/>
<path d="M366.994 -242.862C364.159 -243.608 361.734 -244.69 360.876 -245.623C360.204 -246.369 360.204 -246.481 360.801 -247.376C361.137 -247.899 361.585 -248.309 361.734 -248.309C361.92 -248.309 363.413 -247.787 365.017 -247.115C367.629 -246.033 368.337 -245.921 371.658 -245.884C375.202 -245.884 375.538 -245.959 378.262 -247.264C380.836 -248.496 381.172 -248.57 381.881 -248.085C384.716 -246.07 379.12 -242.75 372.404 -242.489C370.315 -242.414 368.263 -242.563 366.994 -242.862Z" fill="#696969"/>
<path d="M358.376 -256.666C357.406 -257.151 357.107 -257.972 357.443 -259.315C357.704 -260.36 360.017 -261.367 365.278 -262.673C372.068 -264.389 379.605 -263.792 385.723 -261.069C388.447 -259.8 389.081 -258.905 388.111 -257.487C387.253 -256.181 386.432 -256.144 383.41 -257.375C378.97 -259.129 374.531 -259.763 370.165 -259.203C368.151 -258.942 365.353 -258.308 363.86 -257.823C359.271 -256.181 359.309 -256.181 358.376 -256.666Z" fill="#696969"/>
<path d="M310.099 -257.412C308.867 -259.241 310.024 -260.36 314.949 -262.039C318.829 -263.344 321.552 -263.718 326.216 -263.531C332.82 -263.27 340.468 -260.994 341.065 -259.129C341.401 -258.084 340.356 -256.517 339.311 -256.517C338.901 -256.517 336.924 -257.039 334.946 -257.674C327.82 -259.949 322.187 -259.987 316.18 -257.785C312.113 -256.293 310.882 -256.218 310.099 -257.412Z" fill="#696969"/>
<path fill-rule="evenodd" clip-rule="evenodd" d="M228.206 269.873C200.075 275.73 165.378 279.909 153.775 278.864C137.657 277.447 122.734 270.507 115.011 260.919C111.877 257.001 107.81 248.905 106.206 243.421C104.378 237.19 103.52 231.594 103.445 225.811C103.408 222.118 103.296 220.663 102.96 220.663C102.736 220.663 102.438 220.812 102.326 220.998C101.841 221.745 98.5576 222.192 96.7668 221.782C94.6401 221.222 92.2151 219.208 91.6554 217.491C91.4316 216.782 91.0958 216.186 90.9466 216.186C90.7973 216.186 90.2004 216.708 89.5662 217.342C85.6487 221.483 79.4928 220.737 77.0304 215.85C75.8365 213.537 75.6873 211.298 76.5454 209.246C77.1423 207.791 79.9032 204.135 86.2457 196.412C88.5215 193.651 91.2824 190.219 92.4016 188.764L92.4821 188.662C93.5929 187.255 95.0697 185.384 95.834 184.51C96.6175 183.615 97.2518 182.757 97.2518 182.645C97.2518 182.496 95.3863 182.197 93.0732 181.936C88.0738 181.414 85.3876 180.294 84.0071 178.205C82.776 176.265 79.6793 166.453 79.4555 163.767C79.3062 162.051 79.4555 161.006 80.0897 159.29C80.5374 158.058 81.6567 154.962 82.5148 152.425C83.4102 149.888 84.2683 147.687 84.4922 147.463C84.6787 147.276 84.7533 145.933 84.6787 144.441C84.4175 140.71 85.1264 139.74 89.79 137.277C91.7674 136.27 94.6775 134.554 96.319 133.509C97.9606 132.465 99.8261 131.457 100.423 131.233C101.057 131.01 104.415 130.711 107.885 130.599C111.392 130.487 115.757 130.226 117.585 129.965C122.361 129.368 128.74 129.741 132.882 130.86C134.747 131.383 136.277 131.793 136.277 131.756C136.293 131.74 136.484 131.481 136.79 131.067L136.795 131.06C137.213 130.495 137.846 129.639 138.553 128.696C147.544 116.534 153.215 105.64 164.669 78.7026C171.981 61.5033 177.69 51.7657 187.987 38.8942C190.673 35.5737 193.173 32.1039 193.583 31.2459C194.329 29.5297 194.59 27.8507 195.784 15.6508C197.874 -5.91374 200.821 -23.1131 205.522 -41.1706C207.275 -48.0354 207.425 -48.8189 207.462 -53.184C207.462 -55.7583 207.275 -60.4219 207.014 -63.5558C204.776 -91.4255 210.335 -111.423 224.102 -125.227C232.347 -133.51 239.585 -137.278 254.658 -141.233C258.575 -142.24 263.089 -143.583 264.656 -144.217C266.261 -144.852 272.454 -147.986 278.386 -151.194C307.524 -166.901 307.785 -167.088 309.949 -170.222C312.188 -173.468 312.3 -174.027 312.449 -185.742L312.598 -196.45L310.733 -198.987C306.703 -204.434 304.913 -208.687 303.607 -216.223C303.159 -218.798 302.711 -221.26 302.599 -221.708C302.487 -222.267 302.152 -222.566 301.629 -222.566C298.458 -222.566 294.988 -225.289 293.198 -229.207C290.735 -234.542 288.161 -246.444 288.124 -252.786C288.086 -256.703 288.161 -257.263 289.094 -259.203C290.138 -261.442 292.414 -263.494 294.354 -263.867C295.511 -264.091 295.548 -264.426 294.802 -267.299C294.093 -270.097 292.153 -281.924 291.668 -286.439C290.287 -299.124 292.451 -309.01 298.234 -316.099C298.601 -316.563 299.289 -317.237 300.09 -317.94L303.237 -314.671C299.406 -311.097 297.219 -306.497 296.294 -300.206C295.399 -294.273 295.623 -288.901 297.264 -279.089C297.973 -274.873 299.652 -266.702 300.062 -265.471C300.174 -265.173 300.622 -266.031 301.107 -267.336C301.555 -268.68 302.413 -270.769 303.01 -272C304.987 -276.291 305.136 -276.962 305.099 -282.111C305.062 -288.08 305.435 -290.281 307.076 -293.639C308.505 -296.531 310.492 -298.709 312.953 -300.174L315.359 -296.623C313.411 -295.334 311.703 -293.403 310.733 -291.251C309.837 -289.311 309.763 -288.603 309.539 -282.26L309.278 -275.358L307.897 -272.187C304.428 -264.464 303.942 -262.673 303.196 -255.323C302.823 -251.48 302.861 -250.995 304.689 -238.348C308.233 -214.022 308.942 -210.627 311.852 -205.479C315.546 -198.912 328.081 -184.921 333.416 -181.377C334.536 -180.631 336.812 -179.586 338.453 -179.027C341.065 -178.206 342.259 -178.057 347.818 -177.87C358.973 -177.572 362.89 -178.989 370.128 -186.003C378.224 -193.838 384.604 -201.748 387.365 -207.493C389.454 -211.784 390.163 -215.03 392.7 -232.639L392.706 -232.681L392.708 -232.695C393.75 -239.765 394.79 -246.821 395.051 -248.421C395.909 -253.98 394.491 -262.859 391.767 -268.978C388.969 -275.283 388.895 -275.619 388.633 -282.633C388.447 -287.334 388.186 -289.647 387.701 -290.916C387.16 -292.476 385.389 -294.786 383.901 -296.057L385.073 -300.296C387.504 -298.849 389.801 -296.641 390.909 -294.497C392.588 -291.214 392.812 -290.02 393.073 -283.193L393.372 -276.477L395.237 -272.373C396.282 -270.097 397.326 -267.523 397.588 -266.628C397.811 -265.77 398.073 -265.098 398.185 -265.173C398.446 -265.471 400.162 -274.015 401.132 -280.021C404.193 -298.933 401.363 -311.022 392.273 -317.42L394.028 -321.515C395.538 -320.509 397.142 -319.34 397.961 -318.599C403.482 -313.599 406.877 -304.048 406.915 -293.639C406.915 -288.08 405.087 -274.164 403.37 -266.665L403.111 -265.536L403.108 -265.52L403.1 -265.484C402.93 -264.747 402.811 -264.228 402.811 -264.203C402.811 -264.128 403.557 -263.867 404.452 -263.643C406.803 -263.046 408.855 -260.621 409.713 -257.45C410.832 -253.383 410.011 -245.735 407.474 -236.37C405.273 -228.2 403.706 -225.476 400.087 -223.685C398.856 -223.051 397.364 -222.566 396.767 -222.566C396.207 -222.566 395.722 -222.454 395.722 -222.267C395.722 -222.118 395.312 -219.619 394.789 -216.708C393.409 -208.687 391.693 -204.62 387.253 -198.539L385.649 -196.375V-187.906C385.686 -174.997 386.246 -172.236 389.678 -168.729C391.506 -166.864 396.282 -163.842 403.37 -160.074C408.668 -157.276 415.197 -153.768 423.331 -149.329C431.725 -144.777 434.747 -143.546 442.731 -141.457C450.827 -139.367 454.894 -137.987 459.707 -135.636C471.011 -130.152 478.66 -122.504 484.331 -111.05C488.696 -102.245 490.748 -93.9625 491.606 -81.5387C492.053 -75.4947 491.942 -71.913 490.972 -59.8996C490.337 -51.8409 490.412 -50.7962 492.016 -44.6029C497.053 -25.0531 500 -8.41341 502.201 12.8526C503.694 26.9553 503.88 28.5969 504.291 30.0893C504.813 31.9174 506.305 34.0813 510.969 39.7149C516.976 47.0275 523.02 56.2801 527.198 64.6745C528.84 67.9204 532.272 75.6433 539.548 92.3204C541.711 97.357 544.696 103.737 546.114 106.498C550.815 115.526 557.344 125.936 561.187 130.525L562.306 131.868L565.477 130.898C569.469 129.666 575.737 129.331 581.035 130.002C583.05 130.263 587.639 130.562 591.258 130.711L597.787 130.935L601.144 133.024C602.973 134.181 605.883 135.86 607.636 136.718C612.859 139.292 614.501 141.568 613.606 144.926C613.27 146.157 613.307 146.567 613.792 147.276C614.091 147.724 614.799 149.515 615.322 151.268C615.844 153.022 616.889 155.857 617.598 157.611C618.791 160.484 618.903 161.006 618.754 163.58C618.568 166.378 616.217 174.437 614.725 177.384C613.232 180.332 611.143 181.339 605.36 181.936C603.122 182.197 601.294 182.533 601.294 182.72C601.294 182.943 602.077 184.025 603.047 185.182C606.703 189.622 619.612 205.851 620.769 207.53C621.925 209.172 622 209.507 622 212.343C622 215.178 621.925 215.477 620.843 216.782C619.015 219.058 617.933 219.655 615.508 219.842C612.673 220.028 611.031 219.469 609.166 217.641C608.308 216.857 607.524 216.186 607.338 216.186C607.188 216.186 606.703 217.006 606.293 218.014C605.174 220.588 602.749 221.968 599.615 221.931C598.309 221.931 596.891 221.633 596.182 221.26C595.511 220.924 594.951 220.775 594.914 220.924C594.914 221.11 594.914 222.565 594.951 224.207C595.026 230.475 593.795 237.862 591.369 245.286C588.683 253.569 585.699 258.68 580.401 263.941C570.215 274.126 551.598 280.207 534.548 278.864C485.301 275.022 446.537 266.291 397.774 247.973C381.769 241.929 375.016 239.205 357.928 231.855L349.011 228.012L345.243 229.729C307.039 246.853 257.941 263.68 228.206 269.873ZM301.07 111.945L296.593 111.124C290.698 110.079 284.057 108.363 277.826 106.386L272.79 104.781L272.864 96.984C272.976 87.9552 273.312 83.9259 274.879 72.2109C275.998 64.0776 276.036 63.406 275.849 53.7057C275.551 39.0434 274.916 34.2679 270.365 14.0838C265.216 -8.56265 263.276 -19.6807 262.679 -29.3063L262.418 -33.5969L265.477 -30.6867C270.663 -25.7247 276.707 -22.2923 284.467 -19.8299C290.138 -18.0391 293.944 -17.5914 303.942 -17.5914C316.777 -17.5541 319.127 -18.0764 318.568 -20.9492C318.269 -22.5908 317.784 -22.7027 311.889 -22.2177C305.435 -21.658 296.257 -21.9192 291.481 -22.7773C285.102 -23.9339 279.02 -26.2843 274.021 -29.4929C270.439 -31.8434 265.067 -37.2904 262.306 -41.4317C258.277 -47.4758 254.471 -55.721 252.643 -62.3246C252.27 -63.5558 251.785 -64.9363 251.486 -65.4213C250.442 -67.0629 247.606 -66.0928 247.606 -64.0408C247.606 -61.2427 253.128 -47.7369 256.71 -41.8794L258.015 -39.7528L257.306 -32.9253C256.486 -25.0904 256.15 -22.5908 254.881 -15.129C252.158 0.540702 249.472 10.6141 242.458 31.1339C240.331 37.4018 237.757 45.5351 236.749 49.2287C234.1 58.8917 233.317 61.0929 230.78 65.6819C223.878 78.1057 210.484 96.1258 192.949 116.571C190.039 119.966 185.412 125.413 182.652 128.696C175.638 137.091 165.079 149.664 163.512 151.455L162.244 152.947L161.983 151.828C161.05 147.649 159.781 145.672 158.065 145.672C157.058 145.672 155.827 146.642 155.827 147.425C155.827 147.649 156.274 148.731 156.834 149.813C158.886 153.731 158.326 159.439 155.267 165.632C153.103 170.035 146.686 178.802 133.255 195.703C131.203 198.277 127.92 202.493 125.98 204.993C120.532 212.082 119.077 213.574 117.548 213.574C115.906 213.574 114.787 212.455 114.787 210.85C114.787 209.918 116.205 207.493 121.167 199.956C124.674 194.621 127.696 189.846 127.882 189.361C128.405 188.092 127.397 186.712 125.98 186.712C125.084 186.712 124.599 187.122 122.846 189.622C121.726 191.189 118.555 195.293 115.832 198.725C114.427 200.475 112.666 202.692 110.978 204.817C109.391 206.814 107.868 208.731 106.766 210.104C101.468 216.782 100.535 217.678 98.968 217.678C96.2444 217.678 94.6775 214.88 95.9833 212.417C96.6548 211.037 96.9906 210.589 108.37 195.591C113.593 188.689 115.906 185.368 115.906 184.697C115.906 183.578 114.451 182.458 113.518 182.831C113.145 182.981 109.191 187.458 104.714 192.83C88.2604 212.529 86.3576 214.693 85.2756 215.29C83.1864 216.335 80.724 215.029 80.2763 212.641C80.0151 211.112 80.6493 210.142 87.9246 201.225C104.564 180.817 106.206 178.69 106.206 177.683C106.206 175.444 103.37 175.183 101.729 177.31L100.983 178.243L95.5356 177.795C89.4542 177.272 88.5961 177.049 87.738 175.78C86.9172 174.474 83.8206 164.476 83.8206 163.021C83.8206 162.312 84.4922 159.924 85.2756 157.723C86.0964 155.521 86.9918 152.947 87.253 152.014C87.8126 150.074 88.6707 149.739 90.4989 150.671C92.1778 151.567 92.7001 153.581 92.0285 156.977C91.0958 161.901 91.1331 162.983 92.1405 165.222C92.6628 166.341 93.5582 167.535 94.1178 167.908C95.6475 168.953 98.8187 168.803 101.356 167.647C103.781 166.49 108.407 162.312 111.541 158.357C112.772 156.827 113.891 155.559 114.003 155.596C114.115 155.596 115.347 156.156 116.69 156.79C122.771 159.775 129.748 159.775 135.866 156.865C138.441 155.633 139.15 154.813 138.963 153.208C138.776 151.455 137.247 151.306 134.486 152.686C131.352 154.253 128.74 154.775 124.86 154.514C119.413 154.178 116.727 152.723 112.996 147.985C111.541 146.12 108.706 144.59 106.28 144.329C104.863 144.142 103.855 144.366 101.169 145.411C99.3411 146.12 96.9906 146.828 96.0206 146.978C92.2897 147.5 88.4842 145.635 88.7454 143.471C88.8573 142.65 89.5288 142.128 93.1478 140.225C95.4983 138.994 98.3337 137.389 99.453 136.718C101.465 135.414 101.505 135.412 107.261 135.115L107.288 135.114C110.496 134.964 115.533 134.591 118.518 134.293C126.166 133.547 130.121 134.144 137.657 137.128C141.164 138.546 141.425 138.583 142.283 138.024C142.768 137.688 143.291 137.166 143.403 136.867C143.739 136.009 142.806 134.591 141.612 134.069L140.53 133.659L141.612 132.278C143.664 129.666 148.775 121.757 151.536 116.944C156.386 108.475 159.483 102.021 167.243 84.0005C176.869 61.6525 180.301 55.6458 191.233 41.9535C193.956 38.5584 196.568 35.014 197.09 34.044C198.433 31.4324 198.956 28.5223 199.814 19.3816C202.015 -3.74981 204.515 -18.8226 209.439 -38.5589C211.864 -48.2592 211.939 -48.6323 211.939 -53.3705C211.939 -56.0194 211.752 -60.4965 211.491 -63.22C210.932 -69.4506 210.894 -81.091 211.454 -85.9411C213.058 -100.827 218.58 -113.624 226.974 -121.944C231.489 -126.421 235.07 -128.995 240.331 -131.532C245.666 -134.107 247.233 -134.666 257.045 -137.315C266.298 -139.778 267.977 -140.487 278.573 -146.269C281.702 -147.986 286.385 -150.521 290.704 -152.86L290.717 -152.867C292.778 -153.983 294.757 -155.054 296.443 -155.97C310.434 -163.469 312.635 -165.148 314.911 -169.811C316.441 -172.908 316.963 -176.639 317.001 -184.25V-190.853L322.298 -185.518C330.245 -177.497 332.82 -175.781 339.349 -174.139C342.967 -173.244 355.727 -173.244 359.309 -174.176C365.092 -175.631 370.725 -179.549 376.918 -186.302C379.12 -188.69 381.022 -190.63 381.134 -190.555C381.246 -190.518 381.284 -188.167 381.209 -185.332C381.134 -181.116 381.47 -176.34 382.03 -172.871C382.104 -172.535 383.746 -170.595 385.686 -168.58C387.589 -166.565 389.865 -164.028 390.685 -162.984C391.767 -161.566 392.924 -160.633 394.789 -159.663C398.185 -157.872 404.975 -154.254 418.107 -147.165C423.965 -143.994 430.084 -140.897 431.762 -140.225C433.441 -139.554 437.956 -138.173 441.836 -137.166C454.297 -133.92 459.408 -131.607 467.019 -125.899C475.563 -119.482 482.316 -108.289 485.189 -95.9025C487.39 -86.5753 487.875 -73.6665 486.606 -59.6011C485.823 -50.9827 485.823 -50.9454 489.218 -37.1412C493.732 -18.748 495.859 -6.24953 497.948 14.345C499.366 28.2611 499.478 29.3431 500.224 31.6563C500.634 33.0367 501.604 34.8275 502.686 36.2452C509.327 44.7889 515.745 53.4446 517.535 56.3174C520.222 60.5706 526.116 72.3974 529.437 80.195C536.936 97.7301 541.861 108.288 546.189 116.011C548.427 120.003 553.725 128.174 556.038 131.233C557.605 133.285 557.792 134.106 556.747 134.106C556.038 134.106 555.031 135.337 555.031 136.233C555.031 137.166 556.15 138.21 557.195 138.21C557.605 138.21 559.284 137.688 560.888 137.091C568.089 134.293 574.319 133.509 580.96 134.442C582.415 134.666 586.333 134.927 589.728 135.076C596.443 135.337 596.891 135.449 600.995 137.949C602.525 138.882 604.95 140.225 606.405 140.971C609.427 142.463 610.061 143.21 609.39 144.553C608.755 145.858 606.853 146.828 604.428 147.052C602.599 147.239 601.704 147.052 597.525 145.635C592.899 144.068 592.675 144.03 590.959 144.478C588.497 145.15 585.81 146.94 584.542 148.806C581.856 152.611 578.722 154.253 573.499 154.551C569.507 154.738 567.044 154.29 563.91 152.723C561.411 151.455 560.59 151.38 559.769 152.313C558.836 153.358 558.985 154.44 560.254 155.484C562.231 157.163 568.536 159.066 572.081 159.103C574.916 159.103 579.431 158.021 581.968 156.715L584.467 155.447L585.96 157.387C586.78 158.432 589.168 161.006 591.332 163.095C595.772 167.498 597.675 168.542 601.032 168.542C603.644 168.542 604.838 167.796 606.069 165.446C607.039 163.468 607.114 161.565 606.293 157.611C605.398 153.096 606.442 150.522 609.166 150.41C610.248 150.335 610.434 150.485 610.845 151.641C611.07 152.252 611.821 154.387 612.622 156.661L612.635 156.7L613.009 157.76L614.725 162.535L614.165 165.035C613.419 168.281 611.442 174.325 610.658 175.631C609.949 176.899 608.793 177.198 603.346 177.758C601.107 177.981 598.869 178.242 598.421 178.317C597.824 178.466 597.19 178.093 596.108 177.011C595.287 176.191 594.466 175.519 594.28 175.519C593.571 175.519 591.966 177.086 591.966 177.758C591.966 178.168 593.198 179.959 594.69 181.75C596.182 183.54 599.503 187.644 602.04 190.816C603.925 193.172 606.923 196.91 609.579 200.22L612.15 203.426C615.434 207.53 617.709 210.701 617.859 211.373C618.306 213.649 616.702 215.812 614.613 215.812C612.971 215.812 612.71 215.551 595.884 195.442C592.787 191.786 589.206 187.458 587.937 185.891C586.669 184.324 585.288 182.906 584.878 182.794C583.87 182.496 582.677 183.205 582.415 184.287C582.229 185.07 583.684 187.159 591.631 197.718C596.854 204.583 601.48 210.85 601.928 211.634C602.413 212.417 602.786 213.649 602.786 214.432C602.786 217.156 600.062 218.536 597.637 217.081C596.63 216.484 581.221 197.457 575.998 190.405C573.237 186.637 572.64 186.227 571.036 187.085C569.544 187.905 570.141 189.286 575.289 197.009C581.52 206.373 583.758 210.142 583.758 211.223C583.758 213.238 581.035 214.246 579.095 212.977C577.229 211.746 550.069 176.937 545.405 169.811C541.973 164.513 539.809 157.872 540.294 154.066C540.406 153.059 540.928 151.194 541.45 149.925C542.532 147.202 542.532 147.09 541.674 146.306C540.704 145.411 539.622 145.523 538.54 146.605C537.645 147.5 536.376 150.671 536.376 152.052C536.376 152.462 536.227 152.761 536.078 152.761C535.779 152.761 526.042 141.307 517.386 130.786C515.26 128.211 512.499 124.928 511.23 123.51C509.999 122.093 507.611 119.295 505.97 117.317L505.443 116.683L505.438 116.677C503.608 114.472 500.269 110.447 497.538 107.244C484.629 91.7234 474.033 77.0983 468.139 66.6146C465.005 61.0556 464.072 58.6678 462.169 51.4672C461.274 48.184 458.177 38.2972 455.23 29.455C452.282 20.6502 449.186 10.9125 448.365 7.81592C445.417 -2.81709 442.582 -18.8226 441.239 -31.9926L440.455 -39.7155L442.657 -43.7448C445.604 -49.1546 447.246 -52.8855 448.85 -58.0341C450.641 -63.6677 450.827 -64.8243 450.006 -65.6078C449.298 -66.354 447.954 -66.4286 447.134 -65.757C446.798 -65.5332 446.089 -63.7797 445.529 -61.9515C443.627 -55.5717 439.747 -47.2519 436.202 -41.7675C427.024 -27.6274 412.474 -21.1357 392.066 -22.0311C380.5 -22.5535 380.314 -22.5161 379.829 -21.5461C379.269 -20.4268 379.567 -19.3076 380.575 -18.6733C381.657 -17.9645 388.447 -17.3675 395.125 -17.3675C411.728 -17.4048 424.338 -21.8819 433.18 -30.9479L436.09 -33.9699L435.829 -30.7987C434.934 -19.0837 433.106 -8.6746 428.367 11.9199C423.405 33.3724 422.51 40.2373 422.435 55.7577C422.398 65.5326 422.473 66.9504 423.405 73.1063C424.823 82.5454 425.159 86.2763 425.457 96.0512L425.681 104.632L424.375 105.155C423.666 105.453 420.57 106.46 417.51 107.393C407.81 110.341 397.065 112.467 384.156 113.959C378.075 114.668 375.687 115.079 377.553 115.079C378 115.079 378.112 115.377 378 116.31C377.963 116.981 378.112 117.84 378.411 118.25C378.896 118.884 379.157 118.921 383.671 118.474C397.14 117.168 412.511 114.034 422.473 110.527C424.786 109.744 426.838 109.147 427.024 109.259C427.472 109.557 430.904 117.951 433.255 124.555C434.374 127.652 435.531 130.413 435.904 130.748C436.277 131.122 439 132.017 441.985 132.763C470.526 140.076 494.292 148.172 515.521 157.76C522.833 161.08 530.146 164.849 539.436 170.072C540.406 170.594 541.6 172.049 543.316 174.586C546.3 178.989 553.762 188.689 572.044 211.746C576.11 216.894 577.379 217.79 580.774 217.976C584.057 218.126 585.773 217.156 587.191 214.395L588.198 212.417L588.832 213.387C590.176 215.439 590.81 223.535 590.138 229.617C587.862 249.204 580.438 261.441 566.783 268.045C555.74 273.417 545.442 275.283 532.757 274.201C504.925 271.85 480.786 268.045 458.961 262.598C436.314 256.927 411.951 248.831 382.291 237.153C377.292 235.176 360.577 228.087 357.518 226.669C355.914 225.886 354.72 225.177 354.906 225.028C355.093 224.916 357.406 223.983 360.018 222.938C365.353 220.812 405.609 204.806 416.018 201.187C425.346 197.942 431.8 195.442 436.799 193.129C441.09 191.151 442.881 190.592 447.88 189.734C454.484 188.54 461.572 188.092 469.407 188.316C479.816 188.652 487.838 190.069 498.135 193.464C504.664 195.628 514.849 200.479 519.849 203.836C523.468 206.261 524.177 206.485 525.258 205.478C526.229 204.62 526.079 203.239 524.923 202.045C523.468 200.628 517.573 197.046 512.499 194.509C497.837 187.159 483.323 183.801 465.863 183.69L458.961 183.652L463.363 181.488C468.773 178.839 472.84 177.459 476.272 177.161C477.876 177.011 481.756 177.16 486.196 177.571C492.128 178.131 493.845 178.168 495.449 177.795C499.254 176.937 501.754 173.84 501.754 169.96C501.754 167.274 501.045 165.595 499.03 163.394C496.344 160.483 493.77 159.476 486.719 158.543C482.652 158.021 482.241 157.909 477.354 155.372C467.169 150.149 464.035 150.074 449.149 154.589C439.038 157.685 435.046 158.469 429.3 158.469C423.891 158.469 421.54 157.984 411.914 154.85C404.154 152.35 401.766 151.716 398.11 151.268C392.85 150.597 387.776 152.052 384.119 155.335L379.791 160.67L379.045 162.2C378.635 163.058 377.441 165.259 376.359 167.087C375.314 168.878 374.568 170.557 374.717 170.818C374.867 171.042 374.68 171.005 374.344 170.706C373.785 170.258 373.71 170.296 373.71 171.005C373.71 171.49 373.971 172.087 374.27 172.422C374.605 172.721 374.979 173.467 375.09 174.064C375.202 174.661 375.538 175.146 375.799 175.146C376.471 175.146 376.434 174.474 375.762 173.28C375.463 172.758 375.24 172.012 375.24 171.602C375.24 170.93 375.277 170.967 375.762 171.788C376.06 172.31 376.284 173.057 376.322 173.467C376.359 175.556 382.664 165.744 382.664 163.617L386.768 158.842C388.708 157.014 391.581 155.932 394.864 155.783C398.632 155.633 401.543 156.23 410.086 158.991C420.421 162.312 423.517 162.946 428.927 162.946C435.792 162.983 440.941 161.939 452.059 158.394C463.401 154.775 466.087 154.887 475.153 159.215L476.141 159.694C479.507 161.326 480.868 161.986 482.301 162.36C483.273 162.614 484.278 162.736 485.965 162.942L486.004 162.947L486.017 162.949L486.639 163.025L486.905 163.058C489.367 163.356 492.054 163.916 492.874 164.289C496.195 165.744 498.359 169.587 497.053 171.602C496.717 172.124 495.859 172.833 495.15 173.168C493.919 173.765 493.285 173.728 486.084 173.131C473.026 172.049 471.944 172.31 446.649 183.839C430.867 191.002 424.525 193.539 407.102 199.583C406.507 199.79 405.882 200.007 405.241 200.23L405.185 200.249L405.174 200.253C401.204 201.633 396.595 203.235 394.23 204.097L383 208.09L370.912 213.089L370.613 211.186C370.464 210.142 369.979 207.716 369.569 205.814C368.823 202.456 368.785 202.381 367.815 202.493C367.181 202.568 366.584 203.053 366.211 203.724C365.577 204.806 365.689 206.448 366.771 213.835L366.92 214.992L362.219 217.156C359.607 218.312 355.914 220.028 354.011 220.924C353.417 221.187 352.85 221.439 352.349 221.663C351.212 222.169 350.406 222.528 350.355 222.528C350.281 222.528 346.004 224.412 340.773 226.717L340.542 226.819C328.716 232.042 308.196 240.287 295.138 245.063C249.472 261.702 216.64 269.462 174.668 273.417C169.332 273.94 163.288 274.425 161.236 274.536C149.148 275.096 134.038 270.843 125.383 264.389C116.279 257.636 111.168 248.159 108.594 233.348C107.4 226.557 107.997 215.589 109.676 213.201C110.198 212.455 110.235 212.455 110.683 213.574C111.914 216.559 114.265 218.051 117.697 218.051C119.488 218.051 120.197 217.864 121.428 217.044C122.808 216.074 128.591 209.06 138.702 196.039C139.486 195.038 140.456 193.793 141.483 192.475L141.535 192.408L141.553 192.385L141.559 192.377L141.574 192.358C143.356 190.07 145.296 187.58 146.723 185.779C151.2 180.033 153.775 176.564 156.162 173.019C157.953 170.296 158.625 169.885 170.564 163.729C193.658 151.865 221.005 141.941 254.508 133.173C257.381 132.427 260.329 131.681 261.075 131.495C262.642 131.084 263.089 130.189 265.626 122.914C267.156 118.511 270.365 110.639 271.073 109.557C271.335 109.147 272.379 109.37 276.558 110.714C283.012 112.84 287.489 113.959 295.361 115.452C298.757 116.086 301.741 116.795 301.965 117.019L312.15 117.989C313.27 118.063 314.277 118.213 314.351 118.287C314.426 118.362 315.433 118.436 316.59 118.436C317.933 118.436 318.493 118.324 318.157 118.101C317.597 117.728 317.896 115.079 318.493 115.079C318.717 115.079 318.866 114.929 318.866 114.78C318.866 114.444 301.368 111.684 301.07 111.945ZM601.891 154.738C601.891 156.641 602.04 159.215 602.189 160.484C602.45 162.2 602.376 162.983 602.04 163.394C601.517 164.028 599.727 164.102 598.309 163.543C596.928 162.983 589.579 155.41 588.646 153.544C587.862 152.052 587.862 151.902 588.422 151.044C589.168 149.888 591.146 148.657 592.228 148.657C592.675 148.657 594.168 149.067 595.585 149.589C596.966 150.074 598.98 150.671 599.988 150.895L601.891 151.306V154.738ZM109.452 153.954C107.736 156.454 101.468 162.759 99.8261 163.617C97.5129 164.849 95.7594 164.326 95.7594 162.349C95.7967 161.677 96.0206 159.7 96.2817 157.872C96.5802 156.006 96.6548 153.992 96.5056 153.134L96.4886 153.038C96.2064 151.455 96.2051 151.448 97.9979 151.082C98.7068 150.932 100.572 150.298 102.102 149.701C105.758 148.246 107.251 148.395 109.34 150.485L110.832 151.977L109.452 153.954ZM536.637 161.565C536.936 162.498 537.16 163.319 537.085 163.356C537.011 163.431 535.593 162.759 533.951 161.864C519.55 153.88 495.672 143.993 475.526 137.613C465.676 134.517 453.812 131.084 446.499 129.219C442.507 128.211 439.187 127.353 439.15 127.279C439.095 127.224 438.611 125.905 437.944 124.083L437.94 124.073C437.704 123.428 437.444 122.72 437.172 121.981C434.896 115.489 432.583 109.632 431.277 107.132C430.307 105.266 430.27 104.931 430.009 96.4243C429.71 86.6494 429.375 82.8812 427.882 73.1063C426.95 66.9131 426.875 65.5326 426.912 55.5712C426.95 40.3119 427.733 34.3798 432.732 13.2257C435.232 2.40614 437.247 -6.88376 437.918 -11.137C438.142 -12.7413 438.478 -14.0844 438.627 -14.1963C438.739 -14.2709 439.336 -12.0324 439.896 -9.15959C442.395 3.60001 445.679 15.4269 450.603 29.7162C455.342 43.4085 455.64 44.3412 457.505 51.3553C460.453 62.6225 462.206 66.3161 470.489 78.8146C478.063 90.3057 488.658 103.961 503.918 121.794C506.268 124.555 511.156 130.375 514.737 134.666C524.288 146.194 526.751 149.104 531.638 154.775C534.66 158.245 536.227 160.409 536.637 161.565ZM258.65 -10.6146C259.023 -12.7039 259.433 -14.3828 259.545 -14.3828C259.694 -14.3828 260.067 -12.7039 260.44 -10.6146C260.776 -8.56265 262.231 -1.62318 263.686 4.75661C270.924 36.9914 271.223 38.9688 271.26 55.0116C271.297 65.9803 271.223 67.2115 270.29 73.4794C268.798 83.2916 268.462 87.0225 268.163 96.7974L267.865 105.565L265.44 110.975C264.097 113.959 262.194 118.735 261.224 121.608C260.217 124.481 259.321 126.943 259.172 127.092C259.06 127.279 255.777 128.211 251.897 129.219C243.54 131.383 242.644 131.644 232.869 134.554C216.603 139.441 203.059 144.217 189.031 150.037C183.286 152.425 165.303 160.931 162.878 162.424C160.751 163.729 160.677 163.58 161.983 160.857C162.505 159.775 165.116 156.417 167.989 153.134C170.787 149.962 175.787 144.068 179.107 140.076C182.39 136.084 187.464 130.04 190.337 126.644C216.528 95.8647 227.646 81.0531 235.07 66.9131C237.869 61.6152 238.727 59.1901 240.891 51.1314C242.644 44.4904 243.428 41.9535 247.905 29.0819C252.792 14.9046 256.672 0.540702 258.65 -10.6146ZM296.257 -259.39C296.555 -259.278 297.115 -257.338 297.749 -254.017C298.757 -248.831 301.704 -229.17 301.704 -227.789C301.704 -226.819 301.368 -226.856 299.801 -227.901C298.16 -229.02 297.115 -230.886 295.735 -235.251C293.011 -243.72 291.743 -254.39 293.048 -257.524C293.571 -258.718 295.287 -259.763 296.257 -259.39ZM401.505 -258.644C401.953 -260.584 404.602 -259.24 405.422 -256.666C406.542 -253.308 404.714 -240.959 401.953 -233.423C401.057 -230.886 400.423 -229.841 399.043 -228.461C397.214 -226.633 396.468 -226.259 396.468 -227.192C396.468 -229.505 400.274 -253.196 401.505 -258.644Z" fill="#696969"/>
<path d="M347.183 214.842C346.437 214.096 343.975 212.567 341.289 211.223C335.095 208.127 333.006 206 332.372 202.269C332.111 200.814 332.036 200.74 330.208 200.329C326.701 199.546 324.5 197.606 322.41 193.427C321.851 192.308 321.291 191.301 321.142 191.189C321.03 191.077 320.508 190.069 319.985 188.95C319.463 187.831 318.418 186.189 317.635 185.331L316.18 183.764L317.933 181.6C318.903 180.406 320.209 178.354 320.806 177.011C321.44 175.668 322.336 173.803 322.783 172.87C323.268 171.9 323.604 170.743 323.492 170.258C323.38 169.55 323.38 169.512 323.641 170.035C323.903 170.669 323.977 170.669 324.835 169.885C326.663 168.281 329.051 166.975 330.618 166.714C332.148 166.49 332.222 166.416 332.446 164.961C332.782 162.946 334.237 160.483 335.767 159.327C336.401 158.842 338.975 157.424 341.438 156.193C344.311 154.775 346.437 153.395 347.37 152.462L348.788 150.97L351.101 152.873C352.444 154.029 354.608 155.335 356.361 156.118C362.517 158.73 364.681 160.745 365.577 164.625C366.099 166.677 366.024 166.639 368.897 167.124C369.718 167.236 370.986 167.983 372.404 169.176C373.635 170.221 374.755 171.042 374.904 171.042C375.053 171.042 375.202 171.266 375.202 171.527C375.202 172.087 377.03 176.638 378.112 178.765C378.56 179.586 379.567 181.003 380.425 181.899C381.246 182.794 381.918 183.578 381.918 183.652C381.918 183.727 381.172 184.66 380.239 185.742C379.343 186.824 377.739 189.472 376.732 191.674C374.046 197.457 371.285 200.105 367.405 200.74C365.95 200.964 365.875 201.075 365.875 202.232C365.875 205.217 362.666 208.463 356.996 211.186C354.645 212.305 352.071 213.872 351.175 214.693C350.28 215.514 349.31 216.186 349.011 216.186C348.713 216.186 347.892 215.589 347.183 214.842ZM350.653 211.634C351.175 211.261 353.488 210.03 355.727 208.91C360.577 206.523 362.405 205.068 362.741 203.314C363.114 201.299 362.816 201.187 360.838 202.605C358.488 204.284 357.033 204.881 353.824 205.59C347.631 206.896 341.363 205.664 336.774 202.195C335.207 201.038 334.983 201.449 335.841 203.724C336.588 205.664 337.856 206.634 343.303 209.395C345.355 210.44 347.444 211.634 347.967 212.044C348.9 212.79 348.974 212.79 350.653 211.634ZM355.652 202.456C356.697 202.083 357.966 201.449 358.451 201.113C359.271 200.553 358.712 200.516 349.347 200.516C343.863 200.516 339.386 200.628 339.386 200.74C339.386 201.001 342.594 202.419 344.609 202.978C347.034 203.687 353.227 203.426 355.652 202.456ZM331.551 197.68C331.551 197.568 331.141 196.934 330.655 196.3C328.081 192.868 326.701 188.39 326.701 183.466C326.701 178.354 327.783 174.959 330.618 171.266C331.364 170.258 331.924 169.438 331.849 169.363C331.775 169.326 330.954 169.475 329.947 169.736C327.148 170.445 326.029 171.788 323.716 177.198C323.007 178.839 321.888 180.891 321.216 181.749C320.545 182.645 319.985 183.54 319.985 183.727C319.985 183.913 320.657 184.958 321.478 186.04C322.298 187.122 323.418 189.099 323.977 190.442C325.582 194.36 326.663 195.74 328.902 196.897C330.917 197.904 331.551 198.091 331.551 197.68ZM362.778 197.419C363.189 196.971 363.413 173.952 363.002 171.602L362.704 169.736H335.468L335.356 183.615L335.282 197.494L337.595 197.643C342.035 197.904 362.443 197.718 362.778 197.419ZM369.606 196.934C371.285 196.113 372.516 194.434 374.605 190.069C375.725 187.719 377.068 185.294 377.59 184.697L378.523 183.652L377.441 182.272C376.844 181.526 375.501 179.138 374.456 176.937C373.411 174.735 372.106 172.385 371.546 171.751C370.464 170.445 368.673 169.55 367.181 169.55H366.211L367.554 171.228C370.501 174.81 372.329 182.16 371.509 187.122C371.024 189.995 369.196 194.434 367.517 196.598L366.509 197.942L367.591 197.68C368.188 197.531 369.084 197.195 369.606 196.934ZM367.591 190.89C368.934 187.607 369.27 181.973 368.3 178.653C367.703 176.489 366.323 173.653 365.912 173.653C365.8 173.653 365.688 178.242 365.688 183.876C365.688 195.069 365.763 195.33 367.591 190.89ZM332.558 183.69C332.633 172.534 332.596 172.31 330.581 176.75C329.76 178.616 329.499 179.735 329.387 182.496C329.312 184.398 329.424 186.749 329.648 187.719C330.096 189.584 331.924 193.8 332.26 193.8C332.372 193.8 332.521 189.249 332.558 183.69ZM359.159 166.901C359.159 166.49 355.652 165.11 352.929 164.476C348.9 163.543 342.855 164.401 340.095 166.341C339.311 166.863 339.348 166.901 340.729 167.013C343.676 167.236 359.159 167.162 359.159 166.901ZM337.595 164.699C341.102 162.424 344.348 161.528 349.086 161.528C353.862 161.528 357.219 162.461 360.614 164.737C361.883 165.595 363.04 166.192 363.151 166.042C363.674 165.52 362.032 162.424 360.652 161.342C359.346 160.297 354.048 157.611 353.302 157.611C353.153 157.611 352.108 156.939 351.026 156.118L349.049 154.589L347.892 155.559C347.258 156.118 345.131 157.275 343.154 158.208C338.602 160.334 337.11 161.379 336.14 163.132C335.282 164.662 334.759 166.192 335.058 166.192C335.17 166.192 336.289 165.52 337.595 164.699Z" fill="#A81312"/>
<path d="M340.436 192.443C337.003 187.331 336.929 182.444 340.249 180.205C342.04 178.974 345.174 178.937 347.525 180.056L349.166 180.877L351.255 179.87C353.382 178.825 353.755 178.377 353.755 176.81V175.915H346.293C338.869 175.915 338.794 175.915 338.496 175.094C337.862 173.341 338.048 173.303 346.331 173.303C353.009 173.303 354.128 173.229 354.128 172.744C354.128 171.997 355.844 171.997 356.106 172.706C356.255 173.079 357.001 173.303 358.307 173.378C360.247 173.49 360.284 173.527 360.21 174.572C360.098 175.99 359.948 176.064 358.232 175.989C356.814 175.878 356.74 175.952 356.703 177.034C356.665 177.631 356.628 178.303 356.591 178.527C356.553 178.713 357.15 179.198 357.859 179.571C359.799 180.616 360.918 182.742 360.732 185.13C360.583 187.257 358.904 190.95 357.188 193.04C356.255 194.159 356.031 194.234 355.322 193.86C354.166 193.263 354.277 192.741 356.068 189.868C357.299 187.891 357.673 186.958 357.784 185.279C357.896 183.414 357.822 183.078 356.964 182.295C356.292 181.66 355.583 181.362 354.725 181.399C353.494 181.437 350.994 182.742 350.062 183.899C349.39 184.72 348.793 184.645 347.935 183.712C346.331 181.922 343.197 181.287 341.592 182.444C339.839 183.638 340.249 187.704 342.413 190.913C343.868 193.077 343.906 193.972 342.562 194.122C341.816 194.196 341.406 193.823 340.436 192.443Z" fill="#A81312"/>
<rect width="699" height="383" rx="54" fill="url(#paint0_linear_1316_138)"/>
<path d="M0 54C0 24.1766 24.1766 0 54 0H645C674.823 0 699 24.1766 699 54V329C699 358.823 674.823 383 645 383H54C24.1766 383 0 358.823 0 329V54Z" fill="url(#paint1_linear_1316_138)"/>
<rect x="28" y="261" width="638" height="88" rx="44" fill="#0E0E0E" fill-opacity="0.31"/>
<path d="M82.8125 302H80.875C80.7604 301.443 80.5599 300.953 80.2734 300.531C79.9922 300.109 79.6484 299.755 79.2422 299.469C78.8411 299.177 78.3958 298.958 77.9063 298.812C77.4167 298.667 76.9063 298.594 76.375 298.594C75.4063 298.594 74.5286 298.839 73.7422 299.328C72.9609 299.818 72.3385 300.539 71.875 301.492C71.4167 302.445 71.1875 303.615 71.1875 305C71.1875 306.385 71.4167 307.555 71.875 308.508C72.3385 309.461 72.9609 310.182 73.7422 310.672C74.5286 311.161 75.4063 311.406 76.375 311.406C76.9063 311.406 77.4167 311.333 77.9063 311.187C78.3958 311.042 78.8411 310.826 79.2422 310.539C79.6484 310.247 79.9922 309.891 80.2734 309.469C80.5599 309.042 80.7604 308.552 80.875 308H82.8125C82.6667 308.818 82.401 309.549 82.0156 310.195C81.6302 310.841 81.151 311.391 80.5781 311.844C80.0052 312.292 79.362 312.633 78.6484 312.867C77.9401 313.102 77.1823 313.219 76.375 313.219C75.0104 313.219 73.7969 312.885 72.7344 312.219C71.6719 311.552 70.8359 310.604 70.2266 309.375C69.6172 308.146 69.3125 306.687 69.3125 305C69.3125 303.312 69.6172 301.854 70.2266 300.625C70.8359 299.396 71.6719 298.448 72.7344 297.781C73.7969 297.115 75.0104 296.781 76.375 296.781C77.1823 296.781 77.9401 296.898 78.6484 297.133C79.362 297.367 80.0052 297.711 80.5781 298.164C81.151 298.612 81.6302 299.159 82.0156 299.805C82.401 300.445 82.6667 301.177 82.8125 302ZM92.5959 308.094V301H94.4396V313H92.5959V310.969H92.4709C92.1896 311.578 91.7521 312.096 91.1584 312.523C90.5646 312.945 89.8146 313.156 88.9084 313.156C88.1584 313.156 87.4917 312.992 86.9084 312.664C86.325 312.331 85.8667 311.831 85.5334 311.164C85.2 310.492 85.0334 309.646 85.0334 308.625V301H86.8771V308.5C86.8771 309.375 87.1219 310.073 87.6115 310.594C88.1063 311.115 88.7365 311.375 89.5021 311.375C89.9604 311.375 90.4266 311.258 90.9005 311.023C91.3797 310.789 91.7808 310.43 92.1037 309.945C92.4318 309.461 92.5959 308.844 92.5959 308.094ZM97.1566 313V301H98.9378V302.812H99.0628C99.2816 302.219 99.6774 301.737 100.25 301.367C100.823 300.997 101.469 300.812 102.188 300.812C102.323 300.812 102.493 300.815 102.696 300.82C102.899 300.826 103.052 300.833 103.157 300.844V302.719C103.094 302.703 102.951 302.68 102.727 302.648C102.508 302.612 102.276 302.594 102.032 302.594C101.448 302.594 100.927 302.716 100.469 302.961C100.016 303.201 99.6566 303.534 99.3909 303.961C99.1305 304.383 99.0003 304.865 99.0003 305.406V313H97.1566ZM104.682 313V301H106.463V302.812H106.588C106.807 302.219 107.203 301.737 107.776 301.367C108.349 300.997 108.995 300.812 109.713 300.812C109.849 300.812 110.018 300.815 110.221 300.82C110.424 300.826 110.578 300.833 110.682 300.844V302.719C110.62 302.703 110.476 302.68 110.252 302.648C110.034 302.612 109.802 302.594 109.557 302.594C108.974 302.594 108.453 302.716 107.995 302.961C107.541 303.201 107.182 303.534 106.916 303.961C106.656 304.383 106.526 304.865 106.526 305.406V313H104.682ZM116.874 313.25C115.717 313.25 114.72 312.995 113.881 312.484C113.048 311.969 112.405 311.25 111.952 310.328C111.504 309.401 111.28 308.323 111.28 307.094C111.28 305.865 111.504 304.781 111.952 303.844C112.405 302.901 113.035 302.167 113.842 301.641C114.655 301.109 115.603 300.844 116.686 300.844C117.311 300.844 117.928 300.948 118.538 301.156C119.147 301.365 119.702 301.703 120.202 302.172C120.702 302.635 121.1 303.25 121.397 304.016C121.694 304.781 121.842 305.724 121.842 306.844V307.625H112.592V306.031H119.967C119.967 305.354 119.832 304.75 119.561 304.219C119.296 303.687 118.915 303.268 118.421 302.961C117.931 302.654 117.353 302.5 116.686 302.5C115.952 302.5 115.316 302.682 114.78 303.047C114.249 303.406 113.84 303.875 113.553 304.453C113.267 305.031 113.124 305.651 113.124 306.312V307.375C113.124 308.281 113.28 309.049 113.592 309.68C113.91 310.305 114.35 310.781 114.913 311.109C115.475 311.432 116.129 311.594 116.874 311.594C117.358 311.594 117.796 311.526 118.186 311.391C118.582 311.25 118.923 311.042 119.21 310.766C119.496 310.484 119.717 310.135 119.874 309.719L121.655 310.219C121.467 310.823 121.152 311.354 120.71 311.812C120.267 312.266 119.72 312.62 119.069 312.875C118.418 313.125 117.686 313.25 116.874 313.25ZM125.831 305.781V313H123.987V301H125.768V302.875H125.925C126.206 302.266 126.633 301.776 127.206 301.406C127.779 301.031 128.518 300.844 129.425 300.844C130.237 300.844 130.948 301.01 131.557 301.344C132.167 301.672 132.641 302.172 132.979 302.844C133.318 303.51 133.487 304.354 133.487 305.375V313H131.643V305.5C131.643 304.557 131.399 303.823 130.909 303.297C130.419 302.766 129.748 302.5 128.893 302.5C128.305 302.5 127.779 302.628 127.315 302.883C126.857 303.138 126.495 303.51 126.229 304C125.964 304.49 125.831 305.083 125.831 305.781ZM141.415 301V302.562H135.196V301H141.415ZM137.009 298.125H138.853V309.562C138.853 310.083 138.928 310.474 139.079 310.734C139.235 310.99 139.433 311.161 139.673 311.25C139.918 311.333 140.175 311.375 140.446 311.375C140.649 311.375 140.816 311.365 140.946 311.344C141.076 311.318 141.181 311.297 141.259 311.281L141.634 312.937C141.509 312.984 141.334 313.031 141.11 313.078C140.886 313.13 140.603 313.156 140.259 313.156C139.738 313.156 139.228 313.044 138.728 312.82C138.233 312.596 137.821 312.255 137.493 311.797C137.17 311.339 137.009 310.76 137.009 310.062V298.125ZM154.087 313.25C152.931 313.25 151.934 312.995 151.095 312.484C150.262 311.969 149.618 311.25 149.165 310.328C148.717 309.401 148.493 308.323 148.493 307.094C148.493 305.865 148.717 304.781 149.165 303.844C149.618 302.901 150.249 302.167 151.056 301.641C151.868 301.109 152.816 300.844 153.9 300.844C154.525 300.844 155.142 300.948 155.751 301.156C156.361 301.365 156.915 301.703 157.415 302.172C157.915 302.635 158.314 303.25 158.611 304.016C158.908 304.781 159.056 305.724 159.056 306.844V307.625H149.806V306.031H157.181C157.181 305.354 157.046 304.75 156.775 304.219C156.509 303.687 156.129 303.268 155.634 302.961C155.144 302.654 154.566 302.5 153.9 302.5C153.165 302.5 152.53 302.682 151.993 303.047C151.462 303.406 151.053 303.875 150.767 304.453C150.48 305.031 150.337 305.651 150.337 306.312V307.375C150.337 308.281 150.493 309.049 150.806 309.68C151.124 310.305 151.564 310.781 152.126 311.109C152.689 311.432 153.342 311.594 154.087 311.594C154.572 311.594 155.009 311.526 155.4 311.391C155.796 311.25 156.137 311.042 156.423 310.766C156.71 310.484 156.931 310.135 157.087 309.719L158.868 310.219C158.681 310.823 158.366 311.354 157.923 311.812C157.48 312.266 156.934 312.62 156.283 312.875C155.631 313.125 154.9 313.25 154.087 313.25ZM163.044 305.781V313H161.201V301H162.982V302.875H163.138C163.419 302.266 163.846 301.776 164.419 301.406C164.992 301.031 165.732 300.844 166.638 300.844C167.451 300.844 168.162 301.01 168.771 301.344C169.38 301.672 169.854 302.172 170.193 302.844C170.531 303.51 170.701 304.354 170.701 305.375V313H168.857V305.5C168.857 304.557 168.612 303.823 168.122 303.297C167.633 302.766 166.961 302.5 166.107 302.5C165.518 302.5 164.992 302.628 164.529 302.883C164.07 303.138 163.708 303.51 163.443 304C163.177 304.49 163.044 305.083 163.044 305.781ZM178.441 313.25C177.285 313.25 176.287 312.995 175.449 312.484C174.615 311.969 173.972 311.25 173.519 310.328C173.071 309.401 172.847 308.323 172.847 307.094C172.847 305.865 173.071 304.781 173.519 303.844C173.972 302.901 174.602 302.167 175.41 301.641C176.222 301.109 177.17 300.844 178.254 300.844C178.879 300.844 179.496 300.948 180.105 301.156C180.714 301.365 181.269 301.703 181.769 302.172C182.269 302.635 182.668 303.25 182.964 304.016C183.261 304.781 183.41 305.724 183.41 306.844V307.625H174.16V306.031H181.535C181.535 305.354 181.399 304.75 181.129 304.219C180.863 303.687 180.483 303.268 179.988 302.961C179.498 302.654 178.92 302.5 178.254 302.5C177.519 302.5 176.884 302.682 176.347 303.047C175.816 303.406 175.407 303.875 175.121 304.453C174.834 305.031 174.691 305.651 174.691 306.312V307.375C174.691 308.281 174.847 309.049 175.16 309.68C175.477 310.305 175.918 310.781 176.48 311.109C177.043 311.432 177.696 311.594 178.441 311.594C178.925 311.594 179.363 311.526 179.754 311.391C180.149 311.25 180.49 311.042 180.777 310.766C181.063 310.484 181.285 310.135 181.441 309.719L183.222 310.219C183.035 310.823 182.72 311.354 182.277 311.812C181.834 312.266 181.287 312.62 180.636 312.875C179.985 313.125 179.254 313.25 178.441 313.25ZM185.554 313V301H187.336V302.812H187.461C187.679 302.219 188.075 301.737 188.648 301.367C189.221 300.997 189.867 300.812 190.586 300.812C190.721 300.812 190.89 300.815 191.094 300.82C191.297 300.826 191.45 300.833 191.554 300.844V302.719C191.492 302.703 191.349 302.68 191.125 302.648C190.906 302.612 190.674 302.594 190.429 302.594C189.846 302.594 189.325 302.716 188.867 302.961C188.414 303.201 188.054 303.534 187.789 303.961C187.528 304.383 187.398 304.865 187.398 305.406V313H185.554ZM197.559 317.75C196.668 317.75 195.902 317.635 195.262 317.406C194.621 317.182 194.087 316.885 193.66 316.516C193.238 316.151 192.902 315.76 192.652 315.344L194.121 314.313C194.288 314.531 194.499 314.781 194.754 315.062C195.009 315.349 195.358 315.596 195.801 315.805C196.249 316.018 196.835 316.125 197.559 316.125C198.527 316.125 199.327 315.891 199.957 315.422C200.587 314.953 200.902 314.219 200.902 313.219V310.781H200.746C200.611 311 200.418 311.271 200.168 311.594C199.923 311.911 199.569 312.195 199.105 312.445C198.647 312.69 198.027 312.812 197.246 312.812C196.277 312.812 195.407 312.583 194.637 312.125C193.871 311.667 193.264 311 192.816 310.125C192.374 309.25 192.152 308.187 192.152 306.937C192.152 305.708 192.368 304.638 192.801 303.727C193.233 302.81 193.835 302.102 194.605 301.602C195.376 301.096 196.267 300.844 197.277 300.844C198.059 300.844 198.678 300.974 199.137 301.234C199.6 301.49 199.954 301.781 200.199 302.109C200.449 302.432 200.642 302.698 200.777 302.906H200.965V301H202.746V313.344C202.746 314.375 202.512 315.214 202.043 315.859C201.579 316.51 200.954 316.987 200.168 317.289C199.387 317.596 198.517 317.75 197.559 317.75ZM197.496 311.156C198.236 311.156 198.861 310.987 199.371 310.648C199.881 310.31 200.269 309.823 200.535 309.188C200.801 308.552 200.934 307.792 200.934 306.906C200.934 306.042 200.803 305.279 200.543 304.617C200.282 303.956 199.897 303.437 199.387 303.062C198.876 302.687 198.246 302.5 197.496 302.5C196.715 302.5 196.064 302.698 195.543 303.094C195.027 303.49 194.639 304.021 194.379 304.688C194.124 305.354 193.996 306.094 193.996 306.906C193.996 307.74 194.126 308.477 194.387 309.117C194.652 309.753 195.043 310.253 195.559 310.617C196.079 310.977 196.725 311.156 197.496 311.156ZM206.649 317.5C206.336 317.5 206.057 317.474 205.813 317.422C205.568 317.375 205.399 317.328 205.305 317.281L205.774 315.656C206.221 315.771 206.617 315.813 206.961 315.781C207.305 315.75 207.609 315.596 207.875 315.32C208.146 315.049 208.393 314.609 208.617 314L208.961 313.063L204.524 301H206.524L209.836 310.562H209.961L213.274 301H215.274L210.18 314.75C209.951 315.37 209.667 315.883 209.328 316.289C208.99 316.701 208.596 317.005 208.149 317.203C207.706 317.401 207.206 317.5 206.649 317.5ZM218.391 313.125C218.005 313.125 217.675 312.987 217.399 312.711C217.123 312.435 216.985 312.104 216.985 311.719C216.985 311.333 217.123 311.003 217.399 310.727C217.675 310.451 218.005 310.312 218.391 310.312C218.776 310.312 219.107 310.451 219.383 310.727C219.659 311.003 219.797 311.333 219.797 311.719C219.797 311.974 219.732 312.208 219.602 312.422C219.477 312.635 219.308 312.807 219.094 312.937C218.886 313.063 218.651 313.125 218.391 313.125ZM218.391 304.219C218.005 304.219 217.675 304.081 217.399 303.805C217.123 303.529 216.985 303.198 216.985 302.812C216.985 302.427 217.123 302.096 217.399 301.82C217.675 301.544 218.005 301.406 218.391 301.406C218.776 301.406 219.107 301.544 219.383 301.82C219.659 302.096 219.797 302.427 219.797 302.812C219.797 303.068 219.732 303.302 219.602 303.516C219.477 303.729 219.308 303.901 219.094 304.031C218.886 304.156 218.651 304.219 218.391 304.219Z" fill="#919191"/>
<path d="M228.223 313V297H233.629C234.879 297 235.905 297.214 236.708 297.641C237.51 298.062 238.103 298.643 238.489 299.383C238.874 300.122 239.067 300.964 239.067 301.906C239.067 302.849 238.874 303.685 238.489 304.414C238.103 305.143 237.512 305.716 236.715 306.133C235.919 306.544 234.9 306.75 233.661 306.75H229.286V305H233.598C234.452 305 235.14 304.875 235.661 304.625C236.187 304.375 236.567 304.021 236.801 303.562C237.041 303.099 237.161 302.547 237.161 301.906C237.161 301.266 237.041 300.706 236.801 300.227C236.562 299.747 236.179 299.378 235.653 299.117C235.127 298.852 234.432 298.719 233.567 298.719H230.161V313H228.223ZM235.754 305.812L239.692 313H237.442L233.567 305.812H235.754ZM246.132 313.25C245.048 313.25 244.098 312.992 243.28 312.477C242.467 311.961 241.832 311.24 241.374 310.312C240.921 309.385 240.694 308.302 240.694 307.062C240.694 305.812 240.921 304.721 241.374 303.789C241.832 302.857 242.467 302.133 243.28 301.617C244.098 301.102 245.048 300.844 246.132 300.844C247.215 300.844 248.163 301.102 248.975 301.617C249.793 302.133 250.428 302.857 250.882 303.789C251.34 304.721 251.569 305.812 251.569 307.062C251.569 308.302 251.34 309.385 250.882 310.312C250.428 311.24 249.793 311.961 248.975 312.477C248.163 312.992 247.215 313.25 246.132 313.25ZM246.132 311.594C246.954 311.594 247.632 311.383 248.163 310.961C248.694 310.539 249.087 309.984 249.342 309.297C249.598 308.609 249.725 307.865 249.725 307.062C249.725 306.26 249.598 305.513 249.342 304.82C249.087 304.128 248.694 303.568 248.163 303.141C247.632 302.714 246.954 302.5 246.132 302.5C245.309 302.5 244.632 302.714 244.1 303.141C243.569 303.568 243.176 304.128 242.921 304.82C242.665 305.513 242.538 306.26 242.538 307.062C242.538 307.865 242.665 308.609 242.921 309.297C243.176 309.984 243.569 310.539 244.1 310.961C244.632 311.383 245.309 311.594 246.132 311.594ZM258.599 313.25C257.515 313.25 256.565 312.992 255.747 312.477C254.934 311.961 254.299 311.24 253.841 310.312C253.388 309.385 253.161 308.302 253.161 307.062C253.161 305.812 253.388 304.721 253.841 303.789C254.299 302.857 254.934 302.133 255.747 301.617C256.565 301.102 257.515 300.844 258.599 300.844C259.682 300.844 260.63 301.102 261.442 301.617C262.26 302.133 262.895 302.857 263.349 303.789C263.807 304.721 264.036 305.812 264.036 307.062C264.036 308.302 263.807 309.385 263.349 310.312C262.895 311.24 262.26 311.961 261.442 312.477C260.63 312.992 259.682 313.25 258.599 313.25ZM258.599 311.594C259.421 311.594 260.099 311.383 260.63 310.961C261.161 310.539 261.554 309.984 261.809 309.297C262.065 308.609 262.192 307.865 262.192 307.062C262.192 306.26 262.065 305.513 261.809 304.82C261.554 304.128 261.161 303.568 260.63 303.141C260.099 302.714 259.421 302.5 258.599 302.5C257.776 302.5 257.099 302.714 256.567 303.141C256.036 303.568 255.643 304.128 255.388 304.82C255.132 305.513 255.005 306.26 255.005 307.062C255.005 307.865 255.132 308.609 255.388 309.297C255.643 309.984 256.036 310.539 256.567 310.961C257.099 311.383 257.776 311.594 258.599 311.594ZM271.409 301V302.562H265.19V301H271.409ZM267.003 298.125H268.847V309.562C268.847 310.083 268.922 310.474 269.073 310.734C269.23 310.99 269.427 311.161 269.667 311.25C269.912 311.333 270.17 311.375 270.44 311.375C270.644 311.375 270.81 311.365 270.94 311.344C271.071 311.318 271.175 311.297 271.253 311.281L271.628 312.937C271.503 312.984 271.328 313.031 271.105 313.078C270.881 313.13 270.597 313.156 270.253 313.156C269.732 313.156 269.222 313.044 268.722 312.82C268.227 312.596 267.815 312.255 267.487 311.797C267.164 311.339 267.003 310.76 267.003 310.062V298.125ZM292.175 302H290.238C290.123 301.443 289.923 300.953 289.636 300.531C289.355 300.109 289.011 299.755 288.605 299.469C288.204 299.177 287.758 298.958 287.269 298.812C286.779 298.667 286.269 298.594 285.738 298.594C284.769 298.594 283.891 298.839 283.105 299.328C282.324 299.818 281.701 300.539 281.238 301.492C280.779 302.445 280.55 303.615 280.55 305C280.55 306.385 280.779 307.555 281.238 308.508C281.701 309.461 282.324 310.182 283.105 310.672C283.891 311.161 284.769 311.406 285.738 311.406C286.269 311.406 286.779 311.333 287.269 311.187C287.758 311.042 288.204 310.826 288.605 310.539C289.011 310.247 289.355 309.891 289.636 309.469C289.923 309.042 290.123 308.552 290.238 308H292.175C292.029 308.818 291.764 309.549 291.378 310.195C290.993 310.841 290.514 311.391 289.941 311.844C289.368 312.292 288.725 312.633 288.011 312.867C287.303 313.102 286.545 313.219 285.738 313.219C284.373 313.219 283.16 312.885 282.097 312.219C281.035 311.552 280.199 310.604 279.589 309.375C278.98 308.146 278.675 306.687 278.675 305C278.675 303.312 278.98 301.854 279.589 300.625C280.199 299.396 281.035 298.448 282.097 297.781C283.16 297.115 284.373 296.781 285.738 296.781C286.545 296.781 287.303 296.898 288.011 297.133C288.725 297.367 289.368 297.711 289.941 298.164C290.514 298.612 290.993 299.159 291.378 299.805C291.764 300.445 292.029 301.177 292.175 302ZM296.24 305.781V313H294.396V297H296.24V302.875H296.396C296.677 302.255 297.099 301.763 297.662 301.398C298.229 301.029 298.985 300.844 299.927 300.844C300.745 300.844 301.461 301.008 302.076 301.336C302.69 301.659 303.167 302.156 303.505 302.828C303.849 303.495 304.021 304.344 304.021 305.375V313H302.177V305.5C302.177 304.547 301.93 303.81 301.435 303.289C300.945 302.763 300.266 302.5 299.396 302.5C298.792 302.5 298.25 302.628 297.771 302.883C297.297 303.138 296.922 303.51 296.646 304C296.375 304.49 296.24 305.083 296.24 305.781ZM310.265 313.281C309.505 313.281 308.815 313.138 308.195 312.852C307.575 312.56 307.083 312.141 306.718 311.594C306.354 311.042 306.172 310.375 306.172 309.594C306.172 308.906 306.307 308.349 306.578 307.922C306.849 307.49 307.211 307.151 307.664 306.906C308.117 306.661 308.617 306.479 309.164 306.359C309.716 306.234 310.271 306.135 310.828 306.063C311.557 305.969 312.148 305.898 312.601 305.852C313.06 305.799 313.393 305.714 313.601 305.594C313.815 305.474 313.922 305.266 313.922 304.969V304.906C313.922 304.135 313.711 303.536 313.289 303.109C312.872 302.682 312.239 302.469 311.39 302.469C310.51 302.469 309.82 302.661 309.32 303.047C308.82 303.432 308.468 303.844 308.265 304.281L306.515 303.656C306.828 302.927 307.244 302.359 307.765 301.953C308.291 301.542 308.864 301.255 309.484 301.094C310.109 300.927 310.724 300.844 311.328 300.844C311.713 300.844 312.156 300.891 312.656 300.984C313.161 301.073 313.648 301.258 314.117 301.539C314.591 301.82 314.984 302.245 315.297 302.812C315.609 303.38 315.765 304.141 315.765 305.094V313H313.922V311.375H313.828C313.703 311.635 313.494 311.914 313.203 312.211C312.911 312.508 312.523 312.76 312.039 312.969C311.554 313.177 310.963 313.281 310.265 313.281ZM310.547 311.625C311.276 311.625 311.89 311.482 312.39 311.195C312.896 310.909 313.276 310.539 313.531 310.086C313.791 309.633 313.922 309.156 313.922 308.656V306.969C313.843 307.062 313.672 307.148 313.406 307.227C313.146 307.299 312.843 307.365 312.5 307.422C312.161 307.474 311.83 307.521 311.507 307.562C311.19 307.599 310.932 307.63 310.734 307.656C310.255 307.719 309.807 307.82 309.39 307.961C308.979 308.096 308.646 308.302 308.39 308.578C308.14 308.849 308.015 309.219 308.015 309.687C308.015 310.328 308.252 310.812 308.726 311.141C309.205 311.464 309.812 311.625 310.547 311.625ZM320.189 308.625L320.158 306.344H320.533L325.783 301H328.064L322.471 306.656H322.314L320.189 308.625ZM318.471 313V297H320.314V313H318.471ZM326.096 313L321.408 307.062L322.721 305.781L328.439 313H326.096ZM329.777 313V301H331.559V302.812H331.684C331.902 302.219 332.298 301.737 332.871 301.367C333.444 300.997 334.09 300.812 334.809 300.812C334.944 300.812 335.113 300.815 335.316 300.82C335.52 300.826 335.673 300.833 335.777 300.844V302.719C335.715 302.703 335.572 302.68 335.348 302.648C335.129 302.612 334.897 302.594 334.652 302.594C334.069 302.594 333.548 302.716 333.09 302.961C332.637 303.201 332.277 303.534 332.012 303.961C331.751 304.383 331.621 304.865 331.621 305.406V313H329.777ZM340.834 313.281C340.074 313.281 339.384 313.138 338.764 312.852C338.144 312.56 337.652 312.141 337.287 311.594C336.923 311.042 336.74 310.375 336.74 309.594C336.74 308.906 336.876 308.349 337.147 307.922C337.417 307.49 337.779 307.151 338.233 306.906C338.686 306.661 339.186 306.479 339.733 306.359C340.285 306.234 340.839 306.135 341.397 306.063C342.126 305.969 342.717 305.898 343.17 305.852C343.628 305.799 343.962 305.714 344.17 305.594C344.384 305.474 344.49 305.266 344.49 304.969V304.906C344.49 304.135 344.279 303.536 343.858 303.109C343.441 302.682 342.808 302.469 341.959 302.469C341.079 302.469 340.389 302.661 339.889 303.047C339.389 303.432 339.037 303.844 338.834 304.281L337.084 303.656C337.397 302.927 337.813 302.359 338.334 301.953C338.86 301.542 339.433 301.255 340.053 301.094C340.678 300.927 341.292 300.844 341.897 300.844C342.282 300.844 342.725 300.891 343.225 300.984C343.73 301.073 344.217 301.258 344.686 301.539C345.16 301.82 345.553 302.245 345.865 302.812C346.178 303.38 346.334 304.141 346.334 305.094V313H344.49V311.375H344.397C344.272 311.635 344.063 311.914 343.772 312.211C343.48 312.508 343.092 312.76 342.608 312.969C342.123 313.177 341.532 313.281 340.834 313.281ZM341.115 311.625C341.845 311.625 342.459 311.482 342.959 311.195C343.464 310.909 343.845 310.539 344.1 310.086C344.36 309.633 344.49 309.156 344.49 308.656V306.969C344.412 307.062 344.24 307.148 343.975 307.227C343.714 307.299 343.412 307.365 343.069 307.422C342.73 307.474 342.399 307.521 342.076 307.562C341.759 307.599 341.501 307.63 341.303 307.656C340.824 307.719 340.376 307.82 339.959 307.961C339.548 308.096 339.214 308.302 338.959 308.578C338.709 308.849 338.584 309.219 338.584 309.687C338.584 310.328 338.821 310.812 339.295 311.141C339.774 311.464 340.381 311.625 341.115 311.625Z" fill="white"/>
</g>
<defs>
<linearGradient id="paint0_linear_1316_138" x1="349" y1="255.5" x2="349" y2="364.5" gradientUnits="userSpaceOnUse">
<stop stop-color="#0E0E0E" stop-opacity="0"/>
<stop offset="1" stop-color="#0E0E0E"/>
</linearGradient>
<linearGradient id="paint1_linear_1316_138" x1="349" y1="-6.65889e-06" x2="349" y2="65" gradientUnits="userSpaceOnUse">
<stop stop-color="#0E0E0E"/>
<stop offset="1" stop-color="#0E0E0E" stop-opacity="0"/>
</linearGradient>
</defs>
</svg>
