<svg width="699" height="383" viewBox="0 0 699 383" fill="none" xmlns="http://www.w3.org/2000/svg">
<rect width="699" height="383" rx="54" fill="#0E0E0E"/>
<mask id="mask0_1314_909" style="mask-type:alpha" maskUnits="userSpaceOnUse" x="0" y="0" width="699" height="383">
<rect width="699" height="383" rx="54" fill="#0E0E0E"/>
</mask>
<g mask="url(#mask0_1314_909)">
<path d="M349.002 -74.4277C353.398 -74.4277 356.962 -70.864 356.962 -66.4683C356.962 -62.5828 354.177 -59.3496 350.494 -58.6509L350.494 495.046C354.177 495.745 356.962 498.978 356.962 502.864C356.962 507.26 353.398 510.823 349.002 510.823C344.606 510.823 341.043 507.26 341.043 502.864C341.043 498.978 343.827 495.745 347.51 495.046L347.51 -58.6509C343.828 -59.3496 341.043 -62.5828 341.043 -66.4683C341.043 -70.864 344.606 -74.4277 349.002 -74.4277Z" fill="#B7B7B7"/>
<path d="M357.21 420.038C357.21 424.572 353.535 428.246 349.002 428.246C344.469 428.246 340.794 424.572 340.794 420.038C340.794 415.505 344.469 411.831 349.002 411.831C353.535 411.831 357.21 415.505 357.21 420.038Z" fill="#B7B7B7"/>
<path d="M357.21 344.675C357.21 349.208 353.535 352.883 349.002 352.883C344.469 352.883 340.794 349.208 340.794 344.675C340.794 340.142 344.469 336.467 349.002 336.467C353.535 336.467 357.21 340.142 357.21 344.675Z" fill="#B7B7B7"/>
<path d="M357.21 263.341C357.21 267.875 353.535 271.549 349.002 271.549C344.469 271.549 340.794 267.875 340.794 263.341C340.794 258.808 344.469 255.134 349.002 255.134C353.535 255.134 357.21 258.808 357.21 263.341Z" fill="#B7B7B7"/>
<path d="M357.21 184.247C357.21 188.78 353.535 192.455 349.002 192.455C344.469 192.455 340.794 188.78 340.794 184.247C340.794 179.714 344.469 176.039 349.002 176.039C353.535 176.039 357.21 179.714 357.21 184.247Z" fill="#B7B7B7"/>
<path d="M357.21 39.4887C357.21 44.0218 353.535 47.6966 349.002 47.6966C344.469 47.6966 340.794 44.0218 340.794 39.4887C340.794 34.9556 344.469 31.2808 349.002 31.2808C353.535 31.2808 357.21 34.9556 357.21 39.4887Z" fill="#B7B7B7"/>
<path d="M348.713 375.213C348.713 375.026 348.564 374.952 348.34 375.064C348.154 375.175 347.967 375.138 347.967 374.952C347.967 374.728 346.699 373.609 345.169 372.452C343.639 371.258 342.371 370.176 342.371 370.064C342.371 369.952 342.035 369.43 341.662 368.908C341.065 368.161 340.841 368.087 340.356 368.497C339.983 368.796 338.23 369.057 335.767 369.206C333.268 369.318 332.036 369.505 332.484 369.691C333.641 370.139 332.559 370.064 331.253 369.616C330.581 369.393 330.134 369.057 330.246 368.908C330.357 368.758 330.059 367.453 329.611 366.035C329.164 364.654 328.641 362.416 328.417 361.11L328.007 358.722L326.291 358.125C325.395 357.79 324.052 357.081 323.343 356.558C321.739 355.327 319.613 354.245 319.613 354.618C319.613 354.805 319.426 354.656 319.239 354.357C318.754 353.499 321.664 345.254 322.709 344.582C322.97 344.433 322.784 343.687 322.15 342.53C321.627 341.56 320.844 339.62 320.359 338.24C319.911 336.859 319.389 335.628 319.202 335.516C318.456 335.031 318.904 333.837 320.06 333.24C320.732 332.905 322.112 331.972 323.157 331.188C324.164 330.442 325.731 329.584 326.627 329.323C328.082 328.913 328.194 328.763 328.194 327.532C328.194 325.965 329.984 319.287 330.581 318.69C330.992 318.28 338.08 318.578 340.207 319.1C340.99 319.324 341.214 319.212 341.401 318.615C341.55 318.205 342.11 317.571 342.669 317.198C343.229 316.862 344.908 315.556 346.4 314.362L349.086 312.198L352.668 315.034C354.608 316.601 356.399 318.28 356.66 318.802C356.959 319.511 357.257 319.66 357.817 319.473C358.264 319.324 359.869 319.063 361.398 318.914C362.928 318.727 364.868 318.503 365.726 318.354C366.771 318.205 367.368 318.28 367.629 318.615C368.301 319.511 369.979 325.816 369.979 327.42C369.979 328.801 370.054 328.987 370.875 328.987C371.323 328.987 372.293 329.398 373.001 329.883C376.098 332.121 378.598 333.8 379.008 333.949C379.381 334.061 379.381 334.36 378.971 335.367C378.71 336.076 378.001 337.867 377.441 339.396C376.844 340.889 376.023 342.493 375.613 342.941L374.83 343.761L375.762 345.03C376.285 345.739 377.068 347.418 377.516 348.835C377.963 350.216 378.411 351.261 378.523 351.186C378.635 351.111 378.747 351.447 378.784 351.858C378.784 352.305 378.934 352.939 379.083 353.238C379.269 353.686 378.486 354.357 375.986 355.961C374.158 357.118 372.031 358.312 371.248 358.573C369.905 359.058 369.83 359.17 369.756 360.849C369.681 361.856 369.308 363.647 368.86 364.841C368.45 366.072 368.114 367.639 368.114 368.348V369.616L366.36 369.467C365.353 369.355 363.264 369.206 361.66 369.094C360.055 369.02 358.414 368.721 357.966 368.497C357.294 368.124 357.071 368.199 356.511 368.945C355.653 370.027 355.578 370.661 356.362 370.027C356.847 369.616 356.884 369.654 356.697 370.139C356.586 370.437 356.25 370.81 355.951 370.922C355.616 371.034 355.504 370.96 355.616 370.773C355.727 370.549 355.69 370.4 355.466 370.4C355.28 370.4 355.056 370.549 354.981 370.698C354.832 371.072 349.236 375.623 348.937 375.623C348.825 375.623 348.713 375.437 348.713 375.213ZM350.43 371.072C352.444 369.579 354.683 367.266 354.683 366.669C354.683 366.184 353.899 366.109 349.086 366.147C346.027 366.147 343.378 366.259 343.266 366.408C342.931 366.744 348.228 371.892 348.863 371.892C349.161 371.892 349.833 371.519 350.43 371.072ZM339.647 365.96C341.028 365.587 340.729 365.065 338.379 363.684C337.11 362.976 335.096 361.483 333.864 360.439C332.633 359.357 331.514 358.461 331.402 358.461C330.656 358.461 331.551 364.356 332.521 365.848C333.044 366.669 333.23 366.669 335.954 366.445C337.521 366.296 339.2 366.072 339.647 365.96ZM365.241 366.109C365.913 365.475 366.845 362.714 367.181 360.439C367.517 358.312 366.995 358.349 364.197 360.737C363.003 361.782 361.1 363.162 360.018 363.759C358.936 364.356 358.041 365.028 358.041 365.177C358.041 365.363 358.6 365.662 359.272 365.886C362.033 366.744 364.532 366.856 365.241 366.109ZM346.214 361.931C345.654 360.924 344.497 359.058 343.677 357.715C342.856 356.372 341.662 354.469 341.102 353.424C337.931 347.903 331.402 336.934 330.992 336.486C330.581 336.076 330.357 336.598 329.723 339.359C328.79 343.276 328.753 344.694 329.499 348.127C330.954 355.066 336.886 361.222 343.901 363.087C347.296 364.02 347.408 363.946 346.214 361.931ZM355.205 362.752C359.794 361.558 364.644 357.491 366.808 353.089C369.196 348.239 369.681 344.694 368.711 339.695C368.226 337.083 367.741 336.188 367.069 336.598C366.845 336.71 365.875 338.314 364.868 340.105C359.458 349.694 354.011 359.095 351.773 362.491C351.288 363.274 351.288 363.311 352.146 363.311C352.631 363.311 354.011 363.05 355.205 362.752ZM353.452 354.73C355.28 351.559 358.488 346.037 360.578 342.456C362.667 338.874 364.383 335.815 364.383 335.665C364.383 335.479 357.481 335.33 349.049 335.33H333.753L335.693 338.986C336.775 340.963 339.2 345.217 341.065 348.388C342.968 351.559 345.468 355.887 346.661 358.013C348.751 361.707 348.863 361.856 349.46 361.185C349.833 360.812 351.623 357.902 353.452 354.73ZM328.716 353.723C328.007 352.305 327.149 349.955 326.776 348.5C326.44 347.007 325.955 345.776 325.694 345.776C325.172 345.776 323.082 349.917 322.746 351.596C322.56 352.641 322.709 352.865 324.537 354.245C326.85 355.961 327.224 356.148 328.828 356.185L329.984 356.223L328.716 353.723ZM373.001 354.656C374.307 353.798 375.501 352.939 375.65 352.716C376.135 352.007 373.225 345.627 372.516 345.851C372.293 345.925 371.77 347.343 371.397 348.947C371.024 350.589 370.203 352.79 369.606 353.872C368.972 354.954 368.487 355.924 368.487 356.036C368.487 356.148 368.972 356.223 369.569 356.223C370.203 356.223 371.621 355.588 373.001 354.656ZM325.955 342.269C325.955 341.448 328.417 334.21 328.977 333.427C330.357 331.45 329.574 331.076 326.701 332.382C324.351 333.427 322.597 334.882 322.597 335.703C322.597 336.598 324.313 341.224 324.873 341.933C325.283 342.381 325.955 342.605 325.955 342.269ZM375.016 338.128L376.023 335.516L374.643 334.322C372.964 332.905 370.464 331.599 369.308 331.599C368.301 331.599 368.3 331.599 369.457 333.875C369.979 334.919 370.726 337.046 371.136 338.613C371.509 340.217 371.957 341.71 372.031 342.008C372.404 342.941 373.897 340.963 375.016 338.128ZM365.129 332.42C365.129 331.748 361.734 328.539 359.421 327.01C353.825 323.279 345.318 323.167 339.274 326.637C337.409 327.756 333.044 331.823 333.044 332.494C333.044 332.793 338.08 332.905 349.086 332.905C361.958 332.905 365.129 332.83 365.129 332.42ZM366.995 327.607C366.995 325.965 366.174 322.085 365.764 321.637C365.652 321.563 364.42 321.451 363.003 321.413C360.615 321.376 357.667 322.01 357.667 322.57C357.667 322.719 358.6 323.316 359.757 323.913C360.876 324.51 362.779 325.965 363.935 327.159C365.092 328.316 366.286 329.323 366.547 329.323C366.845 329.36 366.995 328.763 366.995 327.607ZM334.275 326.898C335.506 325.741 337.409 324.398 338.491 323.839C341.849 322.197 341.028 321.525 335.767 321.525C332.223 321.525 332.26 321.488 331.365 325.368C330.805 327.756 330.917 328.987 331.626 328.987C331.85 328.987 333.006 328.054 334.275 326.898ZM354.645 321.302C355.541 320.481 350.019 315.705 348.713 316.116C347.669 316.451 342.968 321.003 343.229 321.413C343.416 321.749 354.31 321.637 354.645 321.302Z" fill="#F09C22"/>
<path d="M346.213 212.882L343.564 210.233L340.356 211.651C338.602 212.434 337.073 212.994 337.035 212.919C336.961 212.845 336.327 211.352 335.618 209.599L334.312 206.428H330.805H327.26L327.223 202.697L327.186 198.966L323.94 197.921C320.172 196.69 320.321 197.101 322.149 192.362L323.231 189.527L320.881 187.176C319.575 185.871 318.493 184.639 318.493 184.416C318.493 184.229 319.575 183.035 320.918 181.804L323.343 179.565L322.037 176.208C321.328 174.379 320.769 172.701 320.881 172.477C320.955 172.29 322.261 171.693 323.753 171.208C325.283 170.686 326.664 170.164 326.85 170.014C327.037 169.828 327.223 168.074 327.223 166.06L327.26 162.403L330.842 162.553L334.424 162.664L335.618 159.456C336.289 157.702 336.998 156.173 337.185 156.024C337.408 155.912 338.826 156.397 340.393 157.143C341.923 157.889 343.378 158.486 343.639 158.486C343.863 158.486 345.169 157.404 346.475 156.061C347.78 154.718 349.086 153.636 349.347 153.636C349.571 153.636 350.69 154.718 351.772 156.024C352.854 157.367 353.936 158.449 354.123 158.449C354.347 158.486 355.914 157.889 357.63 157.18C359.346 156.434 360.876 155.949 360.988 156.061C361.1 156.21 361.808 157.665 362.555 159.344L363.86 162.403L367.405 162.441H370.912L371.098 166.171L371.285 169.865L374.27 171.059C377.739 172.439 377.739 172.402 376.098 176.805L375.016 179.677L377.59 182.028L380.127 184.416L377.627 187.139L375.09 189.863L376.284 192.847C376.919 194.489 377.441 196.093 377.441 196.354C377.441 196.69 376.284 197.25 374.27 197.847L371.136 198.817L371.024 202.622L370.912 206.428H367.405H363.898L362.592 209.711C361.585 212.136 361.1 212.957 360.652 212.845C360.353 212.733 358.786 212.099 357.145 211.427L354.235 210.159L351.735 212.882C350.392 214.374 349.198 215.568 349.086 215.568C348.974 215.568 347.706 214.374 346.213 212.882ZM351.026 209.711C351.772 208.741 352.332 207.845 352.22 207.659C351.884 207.137 345.728 207.286 345.728 207.808C345.728 208.368 348.713 211.464 349.273 211.464C349.459 211.427 350.28 210.644 351.026 209.711ZM341.55 208.181C342.445 207.696 343.117 207.137 343.042 206.913C342.856 206.39 337.259 204.525 336.923 204.861C336.662 205.122 337.744 208.33 338.341 209.114C338.714 209.599 339.087 209.487 341.55 208.181ZM360.503 207.174C360.876 206.055 361.062 205.01 360.913 204.898C360.615 204.562 355.317 206.689 355.167 207.211C355.018 207.622 359.122 209.599 359.607 209.338C359.756 209.263 360.167 208.293 360.503 207.174ZM343.826 199.302C336.886 186.878 331.029 177.14 330.506 177.14C329.984 177.14 328.939 182.513 328.939 185.012C328.939 187.885 329.797 191.168 331.253 194.078C332.558 196.69 336.14 200.384 338.789 201.951C340.804 203.107 346.213 204.861 346.4 204.376C346.437 204.226 345.281 201.951 343.826 199.302ZM353.974 204.152C357.033 203.256 361.585 200.757 363.301 199.003C368.375 194.004 370.427 187.064 368.897 180.088C367.964 175.797 368.076 175.723 362.144 185.759C353.638 200.123 351.325 204.115 351.325 204.45C351.325 204.861 351.66 204.823 353.974 204.152ZM334.498 203.406C334.871 203.294 334.349 202.548 332.857 201.018C331.626 199.787 330.544 198.779 330.394 198.779C330.096 198.779 329.611 203.219 329.872 203.667C330.059 203.928 333.342 203.779 334.498 203.406ZM368.412 201.801C368.561 199.078 368.375 198.667 367.256 199.19C366.285 199.637 363.637 202.585 363.637 203.219C363.637 203.63 365.129 203.928 366.994 203.853L368.3 203.816L368.412 201.801ZM351.399 198.705C352.556 196.578 353.451 194.825 353.414 194.787C353.339 194.713 352.78 194.862 352.108 195.086C350.877 195.534 346.101 195.384 344.87 194.862C344.385 194.675 344.572 195.198 345.579 196.951C347.37 200.16 348.862 202.51 349.086 202.51C349.198 202.51 350.243 200.794 351.399 198.705ZM328.939 196.168C328.939 195.645 327.037 190.833 326.664 190.422C326.365 190.124 324.686 193.258 324.388 194.638C324.313 195.011 324.947 195.384 326.328 195.832C328.79 196.615 328.939 196.653 328.939 196.168ZM372.516 195.72C373.374 195.496 374.083 195.16 374.083 194.974C374.083 194.489 372.292 191.019 371.919 190.795C371.658 190.646 369.233 195.496 369.233 196.242C369.233 196.466 369.867 196.392 372.516 195.72ZM352.556 192.213C356.1 190.422 357.667 187.997 357.667 184.341C357.63 180.461 354.981 177.028 351.213 175.984C348.265 175.163 344.012 176.73 342.109 179.304C340.505 181.505 340.02 185.274 341.027 187.699C341.699 189.34 343.676 191.28 345.542 192.101C347.445 192.959 350.952 193.034 352.556 192.213ZM326.328 184.602C326.328 181.058 326.067 180.908 323.679 183.11L322.037 184.602L323.716 186.094C326.141 188.221 326.328 188.109 326.328 184.602ZM374.605 186.206C375.501 185.423 376.284 184.677 376.284 184.565C376.322 184.154 372.852 181.58 372.441 181.729C371.994 181.879 371.658 186.206 371.994 187.064C372.292 187.848 372.777 187.699 374.605 186.206ZM340.281 177.663C341.027 176.693 341.624 175.76 341.624 175.573C341.624 175.424 339.796 175.275 337.52 175.275C335.282 175.275 333.416 175.424 333.416 175.611C333.416 175.797 334.386 177.551 335.543 179.565L337.67 183.222L338.267 181.319C338.64 180.237 339.498 178.595 340.281 177.663ZM361.808 181.543C362.256 180.647 363.189 179.043 363.86 177.961C364.569 176.879 365.129 175.834 365.129 175.648C365.129 175.424 363.338 175.275 360.652 175.275C358.189 175.275 356.175 175.387 356.175 175.499C356.175 175.611 356.585 176.058 357.07 176.431C358.078 177.215 360.279 181.356 360.279 182.438C360.279 183.595 360.988 183.184 361.808 181.543ZM328.156 175.834C328.865 174.305 329.312 172.924 329.201 172.812C328.939 172.551 324.761 173.409 324.313 173.82C323.753 174.342 325.992 179.267 326.626 178.856C326.775 178.782 327.484 177.401 328.156 175.834ZM373.113 176.543C373.673 175.387 374.046 174.23 373.971 173.969C373.785 173.521 371.285 172.663 370.016 172.663C369.606 172.663 369.233 172.85 369.233 173.111C369.233 174.006 371.285 178.633 371.695 178.633C371.956 178.633 372.591 177.7 373.113 176.543ZM357.593 172.701C361.734 172.663 365.129 172.514 365.129 172.365C365.129 171.73 361.547 168.41 359.421 167.03C353.862 163.411 346.064 163.187 339.983 166.433C337.856 167.552 333.043 171.656 333.043 172.327C333.043 172.663 339.983 172.924 346.288 172.812C348.34 172.775 353.414 172.738 357.593 172.701ZM332.82 168.298C333.976 167.253 334.909 166.209 334.909 166.022C334.909 165.612 333.118 165.201 331.141 165.201C329.872 165.201 329.686 165.313 329.686 166.097C329.686 167.738 330.171 170.462 330.432 170.35C330.581 170.275 331.663 169.38 332.82 168.298ZM368.114 169.231C368.114 168.559 368.226 167.365 368.337 166.619L368.599 165.201H366.957C365.092 165.201 363.637 165.537 363.637 165.91C363.637 166.321 367.405 170.425 367.778 170.425C367.964 170.425 368.114 169.865 368.114 169.231ZM340.281 163.149C341.848 162.441 343.117 161.769 343.117 161.657C343.117 161.359 339.46 159.605 338.864 159.605C338.341 159.605 337.819 160.836 337.334 163.261C337.185 163.896 337.147 164.455 337.259 164.455C337.334 164.455 338.714 163.858 340.281 163.149ZM361.211 163.635C360.54 161.209 359.719 159.232 359.421 159.232C358.861 159.232 355.429 161.172 355.429 161.508C355.429 161.918 355.988 162.254 358.6 163.373C361.398 164.642 361.51 164.642 361.211 163.635ZM351.884 160.463C351.063 159.157 349.422 157.367 349.049 157.367C348.75 157.367 346.101 160.874 346.101 161.247C346.101 161.359 347.556 161.471 349.31 161.471H352.519L351.884 160.463Z" fill="#0F9EE2"/>
<path d="M345.393 292.051C342.408 289.215 341.811 288.767 341.177 289.103C340.431 289.514 334.387 290.894 333.342 290.931C332.932 290.931 332.67 290.67 332.67 290.26C332.67 289.887 332.26 288.32 331.738 286.827C331.215 285.335 330.805 283.693 330.805 283.208C330.805 282.164 330.395 281.94 325.395 280.634C323.343 280.112 321.627 279.627 321.552 279.552C321.403 279.403 322.896 272.128 323.306 271.046C323.604 270.3 323.231 269.777 320.321 266.793L317.001 263.36L320.321 259.928C323.119 257.092 323.642 256.383 323.306 255.824C322.933 255.115 321.366 247.616 321.552 247.467C322 247.094 328.678 245.042 329.425 245.042C330.208 245.042 330.432 244.818 330.618 243.81C330.73 243.176 331.365 241.05 331.999 239.147C332.894 236.386 333.23 235.714 333.715 235.864C334.088 235.976 335.357 236.237 336.588 236.461C337.819 236.647 339.647 237.095 340.655 237.431C342.408 238.027 342.483 238.028 342.856 237.356C343.08 236.946 344.012 235.976 344.945 235.155C345.878 234.334 347.221 233.103 347.892 232.469L349.161 231.237L351.25 233.215C352.407 234.259 353.936 235.752 354.683 236.535L355.988 237.878L359.16 237.057C360.913 236.572 362.928 236.087 363.711 235.938L365.054 235.677L366.211 239.147C366.808 241.05 367.368 243.139 367.442 243.736C367.554 244.78 367.666 244.855 369.42 245.079C370.464 245.228 372.031 245.676 372.964 246.124C373.897 246.534 375.016 246.907 375.501 246.907C375.949 246.907 376.434 247.131 376.508 247.392C376.769 247.989 375.426 254.742 374.867 255.787C374.456 256.533 374.568 256.719 375.538 257.54C376.135 258.062 377.628 259.629 378.859 261.01L381.097 263.547L377.963 266.867L374.829 270.188L375.762 274.851C376.844 280.298 376.807 279.739 376.247 279.739C375.986 279.739 373.971 280.261 371.77 280.933L367.778 282.127L367.368 284.029C366.696 287.35 365.241 291.118 364.719 291.043C361.659 290.484 358.712 289.849 357.481 289.476L355.988 289.029L352.631 292.237C350.803 293.991 349.198 295.408 349.086 295.408C348.974 295.408 347.333 293.916 345.393 292.051ZM350.243 290.894C351.511 289.999 354.011 286.865 353.75 286.454C353.675 286.305 352.519 286.342 351.25 286.529C349.944 286.715 347.93 286.753 346.773 286.641C345.281 286.492 344.609 286.566 344.609 286.827C344.609 287.238 348.639 291.678 348.974 291.678C349.086 291.678 349.646 291.342 350.243 290.894ZM338.976 287.089C340.319 286.641 341.438 286.119 341.513 285.895C341.625 285.559 333.417 281.119 333.155 281.38C333.006 281.53 334.499 286.417 334.946 287.312C335.394 288.133 336.066 288.096 338.976 287.089ZM364.01 285.82C365.763 281.082 365.39 280.522 362.032 282.686C360.764 283.544 359.01 284.514 358.152 284.813C357.257 285.149 356.548 285.559 356.548 285.745C356.548 285.895 357.443 286.342 358.525 286.753C359.57 287.163 360.727 287.574 361.025 287.686C362.704 288.282 363.189 287.984 364.01 285.82ZM345.915 281.53C345.318 280.448 344.311 278.545 343.639 277.314L342.445 275.075L338.938 274.963C337.036 274.926 334.797 275.001 333.976 275.187L332.521 275.486L335.133 278.172C338.08 281.119 340.356 282.388 344.273 283.208C345.579 283.507 346.736 283.656 346.81 283.582C346.885 283.544 346.475 282.574 345.915 281.53ZM355.466 282.873C356.585 282.537 358.227 281.865 359.16 281.306C361.137 280.186 365.502 276.12 365.502 275.374C365.502 274.814 362.331 274.702 357.928 275.15L355.429 275.374L353.899 278.396C353.041 280.075 352.108 281.753 351.847 282.164C351.549 282.574 351.325 283.022 351.325 283.171C351.325 283.656 353.302 283.507 355.466 282.873ZM350.765 278.508C351.586 277.052 352.295 275.597 352.369 275.374C352.481 275.001 351.623 274.889 349.086 274.889C346.549 274.889 345.691 275.001 345.803 275.374C345.99 276.045 348.862 281.231 349.086 281.231C349.198 281.231 349.944 280 350.765 278.508ZM330.469 277.351C329.835 276.456 328.716 274.516 328.007 273.06C327.261 271.605 326.514 270.486 326.365 270.598C326.029 270.785 324.649 277.426 324.873 277.649C325.283 278.06 331.365 279.59 331.477 279.328C331.551 279.142 331.103 278.284 330.469 277.351ZM370.315 278.433C373.785 277.314 373.747 277.388 372.591 273.62C371.77 270.971 370.949 270.412 370.539 272.277C370.427 272.874 369.643 274.366 368.86 275.56C366.92 278.619 366.51 279.366 366.957 279.366C367.181 279.366 368.673 278.955 370.315 278.433ZM340.505 272.128C340.505 271.382 337.744 266.606 337.334 266.606C336.998 266.569 334.2 271.382 334.163 271.978C334.163 272.314 335.655 272.538 338.379 272.613C339.983 272.65 340.505 272.538 340.505 272.128ZM354.123 272.352C354.347 272.202 355.578 270.15 356.884 267.8L359.234 263.509L357.817 260.898C357.033 259.48 355.839 257.391 355.168 256.346L353.899 254.369H349.086H344.273L342.893 256.533C342.147 257.689 340.916 259.741 340.207 261.01L338.901 263.397L340.505 266.42C343.602 272.277 343.565 272.24 345.99 272.389C350.206 272.65 353.75 272.65 354.123 272.352ZM363.002 272.277H364.42L363.189 270.113C360.727 265.785 361.062 265.86 359.234 269.031C358.376 270.561 357.667 272.016 357.667 272.277C357.667 272.65 358.19 272.687 359.645 272.501C360.689 272.389 362.219 272.277 363.002 272.277ZM332.223 269.591C332.857 268.285 333.864 266.42 334.461 265.375L335.581 263.509L333.305 259.331C332.036 257.018 330.842 255.19 330.618 255.264C330.096 255.413 328.94 259.443 328.716 262.017C328.566 263.435 328.716 265.151 329.089 266.755C329.686 269.292 330.618 271.904 330.954 271.904C331.029 271.904 331.626 270.859 332.223 269.591ZM368.263 270.337C369.308 267.651 369.793 263.248 369.308 260.599C368.86 258.174 367.778 255.115 367.405 255.115C367.256 255.115 366.136 256.98 364.868 259.256L362.555 263.435L363.861 265.711C364.569 266.979 365.614 268.882 366.136 269.964C366.696 271.009 367.256 271.904 367.405 271.904C367.517 271.904 367.927 271.195 368.263 270.337ZM326.104 263.323C326.067 260.86 325.992 258.771 325.88 258.659C325.806 258.585 324.612 259.629 323.231 261.01L320.694 263.547L322.933 265.673C324.164 266.83 325.358 267.8 325.656 267.8C326.029 267.8 326.141 266.793 326.104 263.323ZM375.352 265.524L377.628 263.286L375.314 261.047C374.083 259.853 372.815 258.846 372.516 258.846C372.143 258.846 372.031 259.816 372.031 263.323C372.031 266.942 372.143 267.8 372.554 267.8C372.852 267.8 374.121 266.793 375.352 265.524ZM339.386 257.279L340.953 254.369H337.334C335.357 254.369 333.79 254.481 333.864 254.667C334.722 256.57 337.297 260.674 337.521 260.45C337.67 260.301 338.528 258.846 339.386 257.279ZM362.667 257.727C363.599 256.085 364.383 254.63 364.383 254.443C364.383 254.182 357.667 254.294 357.369 254.555C357.294 254.63 360.727 260.674 360.876 260.711C360.913 260.711 361.697 259.368 362.667 257.727ZM327.186 255.04C327.447 254.555 328.566 252.69 329.648 250.899C330.73 249.071 331.551 247.504 331.439 247.429C331.327 247.317 329.872 247.579 328.193 247.989C326.477 248.437 325.059 248.772 324.985 248.772C324.649 248.772 324.873 250.824 325.433 253.287C325.731 254.705 326.179 255.861 326.365 255.861C326.552 255.861 326.925 255.488 327.186 255.04ZM372.554 253.138C373.785 249.257 373.71 249.146 370.166 248.362C368.561 247.989 367.106 247.765 366.957 247.877C366.808 247.952 367.442 249.146 368.375 250.526C369.308 251.906 370.315 253.66 370.613 254.443C370.912 255.227 371.285 255.861 371.434 255.861C371.584 255.861 372.106 254.63 372.554 253.138ZM344.833 247.467C346.139 245.228 347.034 243.288 346.81 243.251C345.878 242.915 340.804 244.445 338.752 245.676C336.103 247.243 332.447 250.75 332.857 251.347C333.006 251.645 334.61 251.757 337.782 251.683L342.445 251.571L344.833 247.467ZM350.877 248.623C350.019 246.87 349.161 245.564 349.012 245.638C348.751 245.788 346.549 249.817 345.803 251.496C345.729 251.645 347.184 251.757 349.049 251.757H352.444L350.877 248.623ZM365.539 251.048C364.793 249.705 360.652 246.198 358.6 245.228C356.697 244.333 351.325 242.766 351.026 243.027C350.84 243.139 351.362 244.109 353.825 248.325L355.839 251.757H360.876C365.651 251.757 365.875 251.72 365.539 251.048ZM336.14 244.221C337.558 243.363 339.237 242.393 339.871 242.094C341.625 241.199 341.513 240.676 339.349 240.042C336.289 239.109 334.984 239.221 334.499 240.453C333.902 242.057 333.081 245.788 333.342 245.788C333.454 245.788 334.722 245.079 336.14 244.221ZM364.756 245.191C364.756 244.109 363.562 239.445 363.226 239.259C362.704 238.923 356.921 240.527 356.921 240.975C356.921 241.161 357.705 241.721 358.712 242.206C359.682 242.728 361.324 243.698 362.331 244.445C364.458 245.937 364.756 246.012 364.756 245.191ZM353.936 240.005C353.936 239.333 349.87 235.341 349.161 235.341C348.9 235.341 347.631 236.386 346.363 237.692L344.05 240.005L347.407 240.229C353.787 240.602 353.936 240.602 353.936 240.005Z" fill="#398D18"/>
<path fill-rule="evenodd" clip-rule="evenodd" d="M403.048 52.7399C403.068 52.6519 403.089 52.5598 403.111 52.4643L403.108 52.4796C403.087 52.5697 403.067 52.6566 403.048 52.7399ZM612.485 474.273C612.535 474.414 612.585 474.557 612.635 474.7L612.622 474.661C612.576 474.531 612.53 474.402 612.485 474.273Z" fill="#696969"/>
<path d="M383.901 21.9434L385.073 17.7043L312.953 17.8263L315.359 21.3774L383.901 21.9434Z" fill="#696969"/>
<path d="M300.09 0.0601406L303.237 3.32905C303.237 3.32905 310.438 -16.1011 347.755 -16.1011C385.073 -16.1011 392.273 0.579668 392.273 0.579668L394.028 -3.51481C394.028 -3.51481 385.073 -20.2051 347.755 -20.2051C310.438 -20.2051 300.09 0.0601406 300.09 0.0601406Z" fill="#696969"/>
<path d="M172.765 523.142C171.683 521.501 172.392 520.493 176.458 517.732C180.786 514.822 188.435 510.942 194.329 508.666C205.671 504.227 219.289 501.727 232.496 501.727C238.428 501.69 239.137 501.652 238.503 501.167C237.384 500.309 227.497 496.243 224.997 495.608C222.05 494.862 217.386 494.862 210.969 495.608C207.872 495.981 205 496.131 203.768 495.944C199.478 495.422 196.456 492.027 196.456 487.699C196.456 484.975 197.538 482.811 200.075 480.461C202.575 478.222 205.074 477.327 211.379 476.581C215.521 476.059 215.782 475.984 221.266 473.223C231.302 468.112 234.026 468.074 249.248 472.589C259.471 475.648 263.91 476.506 269.245 476.469C274.506 476.432 276.931 475.909 286.37 472.813C295.026 470.014 295.847 469.791 299.503 469.268C304.577 468.559 310.248 469.977 313.568 472.813C315.434 474.38 317.784 477.625 320.172 481.953C321.329 484.117 322.634 486.318 323.007 486.878C323.418 487.4 323.716 488.035 323.716 488.296C323.716 488.52 323.903 488.594 324.089 488.482C324.761 488.072 324.462 489.266 323.716 490.087C322.709 491.169 322.448 491.131 323.194 489.975C323.977 488.781 323.53 487.997 322.56 488.93C322.187 489.303 321.627 489.825 321.291 490.087C320.806 490.497 320.806 490.721 321.142 491.131C321.366 491.43 321.515 491.766 321.403 491.84C321.067 492.213 318.195 487.923 316.068 483.856C312.636 477.252 309.8 474.715 304.838 473.745C301.592 473.111 298.719 473.633 288.907 476.767C276.073 480.834 271.857 481.58 265.141 480.834C259.769 480.274 253.874 478.894 246.487 476.544C234.697 472.738 232.16 472.85 223.02 477.252C216.64 480.312 215.558 480.685 211.417 481.021C207.499 481.356 204.925 482.14 203.395 483.52C200.635 485.945 200.075 488.855 202.052 490.609C203.47 491.877 203.992 491.915 213.021 491.019C223.281 490.049 225.296 490.422 238.018 495.795C241.861 497.436 247.532 499.75 250.666 501.018L256.299 503.257L267.156 504.712C283.721 506.913 285.176 507.062 295.175 507.025C302.152 507.025 306.107 506.838 310.845 506.241C314.314 505.831 317.299 505.607 317.486 505.794C317.672 505.98 317.859 506.353 317.896 506.614C318.232 508.368 318.642 509.189 319.165 509.189C320.545 509.189 319.09 509.636 316.031 510.121C309.427 511.166 303.57 511.539 294.615 511.539C285.587 511.539 278.461 510.942 267.753 509.375C248.278 506.503 234.101 505.607 223.356 506.614C207.425 508.032 191.345 513.479 179.107 521.538C176.943 522.956 174.78 524.112 174.295 524.112C173.735 524.112 173.138 523.739 172.765 523.142Z" fill="#696969"/>
<path d="M342.93 122.744C341.251 122.184 341.065 121.998 341.065 120.991C341.065 119.685 341.102 119.685 346.176 120.394C349.347 120.841 350.131 120.804 355.429 119.834C356.623 119.647 356.809 119.722 357.182 120.543C358.078 122.483 355.391 123.416 348.9 123.378C346.027 123.378 344.236 123.192 342.93 122.744Z" fill="#696969"/>
<path d="M338.155 114.648C334.013 114.126 333.043 113.753 333.043 112.559C333.043 111.141 334.237 110.805 337.409 111.365C342.259 112.148 351.325 112.41 356.361 111.813C358.824 111.551 361.771 111.328 362.89 111.29C364.831 111.29 364.942 111.328 365.054 112.26C365.204 113.603 364.532 114.014 361.547 114.462C357.369 115.133 342.781 115.245 338.155 114.648Z" fill="#696969"/>
<path d="M344.311 99.8738C341.475 98.7545 340.356 98.1203 340.057 97.4487C339.759 96.8145 339.759 96.4414 340.132 95.9937C340.804 95.1729 341.624 95.2848 344.46 96.6279C348.303 98.4188 350.093 98.4188 353.712 96.6279C355.317 95.8071 356.958 95.2475 357.331 95.3221C358.115 95.546 358.525 96.5533 358.189 97.4487C357.816 98.4188 350.765 101.403 348.937 101.403C348.489 101.403 346.437 100.695 344.311 99.8738Z" fill="#696969"/>
<path d="M352.257 87.0769C351.772 86.7038 351.698 85.2861 351.772 75.8469L351.884 65.0274H354.123L354.235 76.0708C354.309 86.8157 354.309 87.1515 353.6 87.3381C353.19 87.45 352.593 87.338 352.257 87.0769Z" fill="#696969"/>
<path d="M323.156 75.3992C317.597 74.1681 314.314 71.7803 315.956 70.1387C316.627 69.4672 317.56 69.5791 319.538 70.5864C323.679 72.6757 328.827 72.7876 333.566 70.8103C335.841 69.8402 336.513 69.7283 337.147 70.0641C337.707 70.3626 337.893 70.773 337.819 71.4818C337.744 72.3026 337.259 72.713 335.319 73.6457C334.013 74.3173 332.036 75.0262 330.879 75.25C328.865 75.6604 324.649 75.735 323.156 75.3992Z" fill="#696969"/>
<path d="M366.994 75.1381C364.159 74.3919 361.734 73.3099 360.876 72.3772C360.204 71.6311 360.204 71.5191 360.801 70.6237C361.137 70.1014 361.585 69.691 361.734 69.691C361.92 69.691 363.413 70.2133 365.017 70.8849C367.629 71.9668 368.337 72.0788 371.658 72.1161C375.202 72.1161 375.538 72.0414 378.262 70.7356C380.836 69.5044 381.172 69.4298 381.881 69.9148C384.716 71.9295 379.12 75.25 372.404 75.5112C370.315 75.5858 368.263 75.4365 366.994 75.1381Z" fill="#696969"/>
<path d="M358.376 61.3338C357.406 60.8488 357.107 60.028 357.443 58.6849C357.704 57.6402 360.017 56.6329 365.278 55.3271C372.068 53.6109 379.605 54.2078 385.723 56.9314C388.447 58.1999 389.081 59.0953 388.111 60.513C387.253 61.8188 386.432 61.8561 383.41 60.625C378.97 58.8714 374.531 58.2372 370.165 58.7968C368.151 59.058 365.353 59.6922 363.86 60.1772C359.271 61.8188 359.309 61.8188 358.376 61.3338Z" fill="#696969"/>
<path d="M310.099 60.5876C308.867 58.7595 310.024 57.6403 314.949 55.9613C318.829 54.6555 321.552 54.2825 326.216 54.469C332.82 54.7302 340.468 57.006 341.065 58.8714C341.401 59.9161 340.356 61.483 339.311 61.483C338.901 61.483 336.924 60.9607 334.946 60.3265C327.82 58.0507 322.187 58.0133 316.18 60.2145C312.113 61.7069 310.882 61.7815 310.099 60.5876Z" fill="#696969"/>
<path fill-rule="evenodd" clip-rule="evenodd" d="M228.206 587.873C200.075 593.73 165.378 597.909 153.775 596.864C137.657 595.447 122.734 588.507 115.011 578.919C111.877 575.001 107.81 566.905 106.206 561.421C104.378 555.19 103.52 549.594 103.445 543.811C103.408 540.118 103.296 538.663 102.96 538.663C102.736 538.663 102.438 538.812 102.326 538.998C101.841 539.745 98.5576 540.192 96.7668 539.782C94.6401 539.222 92.2151 537.208 91.6554 535.491C91.4316 534.782 91.0958 534.186 90.9466 534.186C90.7973 534.186 90.2004 534.708 89.5662 535.342C85.6487 539.483 79.4928 538.737 77.0304 533.85C75.8365 531.537 75.6873 529.298 76.5454 527.246C77.1423 525.791 79.9032 522.135 86.2457 514.412C88.5215 511.651 91.2824 508.219 92.4016 506.764L92.4821 506.662C93.5929 505.255 95.0697 503.384 95.834 502.51C96.6175 501.615 97.2518 500.757 97.2518 500.645C97.2518 500.496 95.3863 500.197 93.0732 499.936C88.0738 499.414 85.3876 498.294 84.0071 496.205C82.776 494.265 79.6793 484.453 79.4555 481.767C79.3062 480.051 79.4555 479.006 80.0897 477.29C80.5374 476.058 81.6567 472.962 82.5148 470.425C83.4102 467.888 84.2683 465.687 84.4922 465.463C84.6787 465.276 84.7533 463.933 84.6787 462.441C84.4175 458.71 85.1264 457.74 89.79 455.277C91.7674 454.27 94.6775 452.554 96.319 451.509C97.9606 450.465 99.8261 449.457 100.423 449.233C101.057 449.01 104.415 448.711 107.885 448.599C111.392 448.487 115.757 448.226 117.585 447.965C122.361 447.368 128.74 447.741 132.882 448.86C134.747 449.383 136.277 449.793 136.277 449.756C136.293 449.74 136.484 449.481 136.79 449.067L136.795 449.06C137.213 448.495 137.846 447.639 138.553 446.696C147.544 434.534 153.215 423.64 164.669 396.703C171.981 379.503 177.69 369.766 187.987 356.894C190.673 353.574 193.173 350.104 193.583 349.246C194.329 347.53 194.59 345.851 195.784 333.651C197.874 312.086 200.821 294.887 205.522 276.829C207.275 269.965 207.425 269.181 207.462 264.816C207.462 262.242 207.275 257.578 207.014 254.444C204.776 226.574 210.335 206.577 224.102 192.773C232.347 184.49 239.585 180.722 254.658 176.767C258.575 175.76 263.089 174.417 264.656 173.783C266.261 173.148 272.454 170.014 278.386 166.806C307.524 151.099 307.785 150.912 309.949 147.778C312.188 144.532 312.3 143.973 312.449 132.258L312.598 121.55L310.733 119.013C306.703 113.566 304.913 109.313 303.607 101.777C303.159 99.2023 302.711 96.7399 302.599 96.2922C302.487 95.7325 302.152 95.4341 301.629 95.4341C298.458 95.4341 294.988 92.7105 293.198 88.7931C290.735 83.4579 288.161 71.5564 288.124 65.2139C288.086 61.2965 288.161 60.7369 289.094 58.7968C290.138 56.5583 292.414 54.5063 294.354 54.1332C295.511 53.9094 295.548 53.5736 294.802 50.7008C294.093 47.9026 292.153 36.0757 291.668 31.5614C290.287 18.8764 292.451 8.98957 298.234 1.9009C298.601 1.43707 299.289 0.762959 300.09 0.0601406L303.237 3.32905C299.406 6.90326 297.219 11.5028 296.294 17.7945C295.399 23.7266 295.623 29.099 297.264 38.9112C297.973 43.1271 299.652 51.2978 300.062 52.5289C300.174 52.8274 300.622 51.9693 301.107 50.6635C301.555 49.3204 302.413 47.2311 303.01 45.9999C304.987 41.7094 305.136 41.0378 305.099 35.8892C305.062 29.9198 305.435 27.7186 307.076 24.3608C308.505 21.4692 310.492 19.291 312.953 17.8263L315.359 21.3774C313.411 22.6661 311.703 24.5965 310.733 26.7486C309.837 28.6886 309.763 29.3975 309.539 35.74L309.278 42.6421L307.897 45.8134C304.428 53.5363 303.942 55.3271 303.196 62.6769C302.823 66.5197 302.861 67.0048 304.689 79.6525C308.233 103.978 308.942 107.373 311.852 112.521C315.546 119.088 328.081 133.079 333.416 136.623C334.536 137.369 336.812 138.414 338.453 138.973C341.065 139.794 342.259 139.943 347.818 140.13C358.973 140.428 362.89 139.011 370.128 131.997C378.224 124.162 384.604 116.252 387.365 110.507C389.454 106.216 390.163 102.97 392.7 85.3607L392.706 85.3189L392.708 85.3046C393.75 78.2346 394.79 71.1791 395.051 69.5791C395.909 64.0201 394.491 55.1406 391.767 49.0219C388.969 42.7167 388.895 42.3809 388.633 35.3669C388.447 30.666 388.186 28.3528 387.701 27.0843C387.16 25.5235 385.389 23.2141 383.901 21.9434L385.073 17.7043C387.504 19.1507 389.801 21.3592 390.909 23.5027C392.588 26.7859 392.812 27.9798 393.073 34.8073L393.372 41.5229L395.237 45.6268C396.282 47.9027 397.326 50.477 397.588 51.3724C397.811 52.2305 398.073 52.902 398.185 52.8274C398.446 52.5289 400.162 43.9852 401.132 37.9785C404.193 19.0674 401.363 6.978 392.273 0.579668L394.028 -3.51481C395.538 -2.50897 397.142 -1.33982 397.961 -0.598795C403.482 4.40059 406.877 13.9517 406.915 24.3608C406.915 29.9198 405.087 43.836 403.37 51.3351L403.111 52.4643L403.108 52.4796L403.1 52.5156C402.93 53.2528 402.811 53.7722 402.811 53.7975C402.811 53.8721 403.557 54.1332 404.452 54.3571C406.803 54.954 408.855 57.3791 409.713 60.5503C410.832 64.617 410.011 72.2653 407.474 81.6298C405.273 89.8004 403.706 92.524 400.087 94.3148C398.856 94.9491 397.364 95.4341 396.767 95.4341C396.207 95.4341 395.722 95.546 395.722 95.7325C395.722 95.8818 395.312 98.3815 394.789 101.292C393.409 109.313 391.693 113.38 387.253 119.461L385.649 121.625V130.094C385.686 143.003 386.246 145.764 389.678 149.271C391.506 151.136 396.282 154.158 403.37 157.926C408.668 160.724 415.197 164.232 423.331 168.671C431.725 173.223 434.747 174.454 442.731 176.543C450.827 178.633 454.894 180.013 459.707 182.364C471.011 187.848 478.66 195.496 484.331 206.95C488.696 215.755 490.748 224.037 491.606 236.461C492.053 242.505 491.942 246.087 490.972 258.1C490.337 266.159 490.412 267.204 492.016 273.397C497.053 292.947 500 309.587 502.201 330.853C503.694 344.955 503.88 346.597 504.291 348.089C504.813 349.917 506.305 352.081 510.969 357.715C516.976 365.027 523.02 374.28 527.198 382.675C528.84 385.92 532.272 393.643 539.548 410.32C541.711 415.357 544.696 421.737 546.114 424.498C550.815 433.526 557.344 443.936 561.187 448.525L562.306 449.868L565.477 448.898C569.469 447.666 575.737 447.331 581.035 448.002C583.05 448.263 587.639 448.562 591.258 448.711L597.787 448.935L601.144 451.024C602.973 452.181 605.883 453.86 607.636 454.718C612.859 457.292 614.501 459.568 613.606 462.926C613.27 464.157 613.307 464.567 613.792 465.276C614.091 465.724 614.799 467.515 615.322 469.268C615.844 471.022 616.889 473.857 617.598 475.611C618.791 478.484 618.903 479.006 618.754 481.58C618.568 484.378 616.217 492.437 614.725 495.384C613.232 498.332 611.143 499.339 605.36 499.936C603.122 500.197 601.294 500.533 601.294 500.72C601.294 500.943 602.077 502.025 603.047 503.182C606.703 507.622 619.612 523.851 620.769 525.53C621.925 527.172 622 527.507 622 530.343C622 533.178 621.925 533.477 620.843 534.782C619.015 537.058 617.933 537.655 615.508 537.842C612.673 538.028 611.031 537.469 609.166 535.641C608.308 534.857 607.524 534.186 607.338 534.186C607.188 534.186 606.703 535.006 606.293 536.014C605.174 538.588 602.749 539.968 599.615 539.931C598.309 539.931 596.891 539.633 596.182 539.26C595.511 538.924 594.951 538.775 594.914 538.924C594.914 539.11 594.914 540.565 594.951 542.207C595.026 548.475 593.795 555.862 591.37 563.286C588.683 571.569 585.699 576.68 580.401 581.941C570.215 592.126 551.598 598.207 534.548 596.864C485.301 593.022 446.537 584.291 397.774 565.973C381.769 559.929 375.016 557.205 357.928 549.855L349.012 546.012L345.243 547.729C307.039 564.853 257.941 581.68 228.206 587.873ZM301.07 429.945L296.593 429.124C290.698 428.079 284.057 426.363 277.826 424.386L272.79 422.781L272.864 414.984C272.976 405.955 273.312 401.926 274.879 390.211C275.998 382.078 276.036 381.406 275.849 371.706C275.551 357.043 274.916 352.268 270.365 332.084C265.216 309.437 263.276 298.319 262.679 288.694L262.418 284.403L265.477 287.313C270.663 292.275 276.707 295.708 284.467 298.17C290.138 299.961 293.944 300.409 303.942 300.409C316.777 300.446 319.127 299.924 318.568 297.051C318.269 295.409 317.784 295.297 311.889 295.782C305.435 296.342 296.257 296.081 291.481 295.223C285.102 294.066 279.02 291.716 274.021 288.507C270.439 286.157 265.067 280.71 262.306 276.568C258.277 270.524 254.471 262.279 252.643 255.675C252.27 254.444 251.785 253.064 251.486 252.579C250.442 250.937 247.606 251.907 247.606 253.959C247.606 256.757 253.128 270.263 256.71 276.121L258.015 278.247L257.307 285.075C256.486 292.91 256.15 295.409 254.881 302.871C252.158 318.541 249.472 328.614 242.458 349.134C240.331 355.402 237.757 363.535 236.749 367.229C234.1 376.892 233.317 379.093 230.78 383.682C223.878 396.106 210.484 414.126 192.949 434.571C190.039 437.966 185.412 443.413 182.652 446.696C175.638 455.091 165.079 467.664 163.512 469.455L162.244 470.947L161.983 469.828C161.05 465.649 159.781 463.672 158.065 463.672C157.058 463.672 155.827 464.642 155.827 465.425C155.827 465.649 156.274 466.731 156.834 467.813C158.886 471.731 158.326 477.439 155.267 483.632C153.103 488.035 146.686 496.802 133.255 513.703C131.203 516.277 127.92 520.493 125.98 522.993C120.532 530.082 119.077 531.574 117.548 531.574C115.906 531.574 114.787 530.455 114.787 528.85C114.787 527.918 116.205 525.493 121.167 517.956C124.674 512.621 127.696 507.846 127.882 507.361C128.405 506.092 127.397 504.712 125.98 504.712C125.084 504.712 124.599 505.122 122.846 507.622C121.726 509.189 118.555 513.293 115.832 516.725C114.427 518.475 112.666 520.692 110.978 522.817C109.391 524.814 107.868 526.731 106.766 528.104C101.468 534.782 100.535 535.678 98.968 535.678C96.2444 535.678 94.6775 532.88 95.9833 530.417C96.6548 529.037 96.9906 528.589 108.37 513.591C113.593 506.689 115.906 503.368 115.906 502.697C115.906 501.578 114.451 500.458 113.518 500.831C113.145 500.981 109.191 505.458 104.714 510.83C88.2604 530.529 86.3576 532.693 85.2756 533.29C83.1864 534.335 80.724 533.029 80.2763 530.641C80.0151 529.112 80.6493 528.142 87.9246 519.225C104.564 498.817 106.206 496.69 106.206 495.683C106.206 493.444 103.37 493.183 101.729 495.31L100.983 496.243L95.5356 495.795C89.4542 495.272 88.5961 495.049 87.738 493.78C86.9172 492.474 83.8206 482.476 83.8206 481.021C83.8206 480.312 84.4922 477.924 85.2756 475.723C86.0964 473.521 86.9918 470.947 87.253 470.014C87.8126 468.074 88.6707 467.739 90.4989 468.671C92.1778 469.567 92.7001 471.581 92.0285 474.977C91.0958 479.901 91.1331 480.983 92.1405 483.222C92.6628 484.341 93.5582 485.535 94.1178 485.908C95.6475 486.953 98.8187 486.803 101.356 485.647C103.781 484.49 108.407 480.312 111.541 476.357C112.772 474.827 113.891 473.559 114.003 473.596C114.115 473.596 115.347 474.156 116.69 474.79C122.771 477.775 129.748 477.775 135.866 474.865C138.441 473.633 139.15 472.813 138.963 471.208C138.776 469.455 137.247 469.306 134.486 470.686C131.352 472.253 128.74 472.775 124.86 472.514C119.413 472.178 116.727 470.723 112.996 465.985C111.541 464.12 108.706 462.59 106.28 462.329C104.863 462.142 103.855 462.366 101.169 463.411C99.3411 464.12 96.9906 464.828 96.0206 464.978C92.2897 465.5 88.4842 463.635 88.7454 461.471C88.8573 460.65 89.5288 460.128 93.1478 458.225C95.4983 456.994 98.3337 455.389 99.453 454.718C101.465 453.414 101.505 453.412 107.261 453.115L107.288 453.114C110.496 452.964 115.533 452.591 118.518 452.293C126.166 451.547 130.121 452.143 137.657 455.128C141.164 456.546 141.425 456.583 142.283 456.024C142.768 455.688 143.291 455.165 143.403 454.867C143.739 454.009 142.806 452.591 141.612 452.069L140.53 451.659L141.612 450.278C143.664 447.666 148.775 439.757 151.536 434.944C156.386 426.475 159.483 420.021 167.243 402C176.869 379.652 180.301 373.646 191.233 359.953C193.956 356.558 196.568 353.014 197.09 352.044C198.433 349.432 198.956 346.522 199.814 337.382C202.015 314.25 204.515 299.177 209.439 279.441C211.864 269.741 211.939 269.368 211.939 264.629C211.939 261.981 211.752 257.503 211.491 254.78C210.932 248.549 210.894 236.909 211.454 232.059C213.058 217.173 218.58 204.376 226.974 196.056C231.489 191.579 235.07 189.005 240.331 186.468C245.666 183.893 247.233 183.334 257.045 180.685C266.298 178.222 267.977 177.513 278.573 171.731C281.702 170.014 286.385 167.479 290.704 165.14L290.717 165.133C292.778 164.017 294.757 162.946 296.443 162.03C310.434 154.531 312.635 152.852 314.911 148.189C316.441 145.092 316.963 141.361 317.001 133.75V127.147L322.298 132.482C330.245 140.503 332.82 142.219 339.349 143.861C342.967 144.756 355.727 144.756 359.309 143.824C365.092 142.369 370.725 138.451 376.918 131.698C379.12 129.31 381.022 127.37 381.134 127.445C381.246 127.482 381.284 129.833 381.209 132.668C381.134 136.884 381.47 141.66 382.03 145.129C382.104 145.465 383.746 147.405 385.686 149.42C387.589 151.435 389.865 153.972 390.685 155.016C391.767 156.434 392.924 157.367 394.789 158.337C398.185 160.128 404.975 163.746 418.107 170.835C423.965 174.006 430.084 177.103 431.762 177.775C433.441 178.446 437.956 179.827 441.836 180.834C454.297 184.08 459.408 186.393 467.019 192.101C475.563 198.518 482.316 209.711 485.189 222.097C487.39 231.425 487.875 244.333 486.606 258.399C485.823 267.017 485.823 267.055 489.218 280.859C493.732 299.252 495.859 311.75 497.948 332.345C499.366 346.261 499.478 347.343 500.224 349.656C500.634 351.037 501.604 352.827 502.686 354.245C509.327 362.789 515.745 371.445 517.535 374.317C520.222 378.571 526.116 390.397 529.437 398.195C536.936 415.73 541.861 426.288 546.189 434.011C548.427 438.003 553.725 446.174 556.038 449.233C557.605 451.285 557.792 452.106 556.747 452.106C556.038 452.106 555.031 453.337 555.031 454.233C555.031 455.165 556.15 456.21 557.195 456.21C557.605 456.21 559.284 455.688 560.888 455.091C568.089 452.293 574.319 451.509 580.96 452.442C582.415 452.666 586.333 452.927 589.728 453.076C596.443 453.337 596.891 453.449 600.995 455.949C602.525 456.882 604.95 458.225 606.405 458.971C609.427 460.463 610.061 461.21 609.39 462.553C608.755 463.858 606.853 464.828 604.428 465.052C602.599 465.239 601.704 465.052 597.525 463.635C592.899 462.068 592.675 462.03 590.959 462.478C588.497 463.15 585.81 464.94 584.542 466.806C581.856 470.611 578.722 472.253 573.499 472.551C569.507 472.738 567.044 472.29 563.91 470.723C561.411 469.455 560.59 469.38 559.769 470.313C558.836 471.358 558.985 472.44 560.254 473.484C562.231 475.163 568.536 477.066 572.081 477.103C574.916 477.103 579.431 476.021 581.968 474.715L584.467 473.447L585.96 475.387C586.78 476.432 589.168 479.006 591.332 481.095C595.772 485.498 597.675 486.542 601.032 486.542C603.644 486.542 604.838 485.796 606.069 483.446C607.039 481.468 607.114 479.565 606.293 475.611C605.398 471.096 606.442 468.522 609.166 468.41C610.248 468.335 610.434 468.485 610.845 469.641C611.07 470.252 611.821 472.387 612.622 474.661L612.635 474.7L613.009 475.76L614.725 480.535L614.165 483.035C613.419 486.281 611.442 492.325 610.658 493.631C609.949 494.899 608.793 495.198 603.346 495.758C601.107 495.981 598.869 496.242 598.421 496.317C597.824 496.466 597.19 496.093 596.108 495.011C595.287 494.19 594.466 493.519 594.28 493.519C593.571 493.519 591.966 495.086 591.966 495.758C591.966 496.168 593.198 497.959 594.69 499.75C596.182 501.54 599.503 505.644 602.04 508.816C603.925 511.172 606.923 514.91 609.579 518.22L612.15 521.426C615.434 525.53 617.709 528.701 617.859 529.373C618.306 531.649 616.702 533.812 614.613 533.812C612.971 533.812 612.71 533.551 595.884 513.442C592.787 509.786 589.206 505.458 587.937 503.891C586.669 502.324 585.288 500.906 584.878 500.794C583.87 500.496 582.677 501.205 582.415 502.287C582.229 503.07 583.684 505.159 591.631 515.718C596.854 522.583 601.48 528.85 601.928 529.634C602.413 530.417 602.786 531.649 602.786 532.432C602.786 535.156 600.062 536.536 597.637 535.081C596.63 534.484 581.221 515.457 575.998 508.405C573.237 504.637 572.64 504.227 571.036 505.085C569.544 505.905 570.141 507.286 575.289 515.009C581.52 524.373 583.758 528.142 583.758 529.223C583.758 531.238 581.035 532.246 579.095 530.977C577.229 529.746 550.069 494.937 545.405 487.811C541.973 482.513 539.809 475.872 540.294 472.066C540.406 471.059 540.928 469.194 541.45 467.925C542.532 465.202 542.532 465.09 541.674 464.306C540.704 463.411 539.622 463.523 538.54 464.605C537.645 465.5 536.376 468.671 536.376 470.052C536.376 470.462 536.227 470.761 536.078 470.761C535.779 470.761 526.042 459.307 517.386 448.786C515.26 446.211 512.499 442.928 511.23 441.51C509.999 440.093 507.611 437.295 505.97 435.317L505.443 434.683L505.438 434.677C503.608 432.472 500.269 428.447 497.538 425.244C484.629 409.723 474.033 395.098 468.138 384.615C465.005 379.056 464.072 376.668 462.169 369.467C461.274 366.184 458.177 356.297 455.23 347.455C452.282 338.65 449.186 328.913 448.365 325.816C445.417 315.183 442.582 299.177 441.239 286.007L440.455 278.284L442.657 274.255C445.604 268.845 447.246 265.114 448.85 259.966C450.641 254.332 450.827 253.176 450.006 252.392C449.298 251.646 447.954 251.571 447.134 252.243C446.798 252.467 446.089 254.22 445.529 256.048C443.627 262.428 439.747 270.748 436.202 276.233C427.024 290.373 412.474 296.864 392.066 295.969C380.5 295.447 380.314 295.484 379.829 296.454C379.269 297.573 379.567 298.692 380.575 299.327C381.657 300.036 388.447 300.632 395.125 300.632C411.728 300.595 424.338 296.118 433.18 287.052L436.09 284.03L435.829 287.201C434.934 298.916 433.106 309.325 428.367 329.92C423.405 351.372 422.51 358.237 422.435 373.758C422.398 383.533 422.473 384.95 423.405 391.106C424.823 400.545 425.159 404.276 425.457 414.051L425.681 422.632L424.375 423.155C423.666 423.453 420.57 424.46 417.51 425.393C407.81 428.341 397.065 430.467 384.156 431.959C378.075 432.668 375.687 433.079 377.553 433.079C378 433.079 378.112 433.377 378 434.31C377.963 434.981 378.112 435.84 378.411 436.25C378.896 436.884 379.157 436.922 383.671 436.474C397.14 435.168 412.511 432.034 422.473 428.527C424.786 427.744 426.838 427.147 427.024 427.259C427.472 427.557 430.904 435.951 433.255 442.555C434.374 445.652 435.531 448.413 435.904 448.748C436.277 449.121 439 450.017 441.985 450.763C470.526 458.076 494.292 466.172 515.521 475.76C522.833 479.08 530.146 482.849 539.436 488.072C540.406 488.594 541.6 490.049 543.316 492.586C546.3 496.989 553.762 506.689 572.044 529.746C576.11 534.894 577.379 535.79 580.774 535.976C584.057 536.126 585.773 535.156 587.191 532.395L588.198 530.417L588.832 531.387C590.176 533.439 590.81 541.535 590.138 547.617C587.862 567.204 580.438 579.441 566.783 586.045C555.74 591.417 545.442 593.283 532.757 592.201C504.925 589.85 480.786 586.045 458.961 580.598C436.314 574.927 411.951 566.831 382.291 555.153C377.292 553.176 360.577 546.087 357.518 544.669C355.914 543.886 354.72 543.177 354.906 543.028C355.093 542.916 357.406 541.983 360.018 540.938C365.353 538.812 405.609 522.806 416.018 519.187C425.346 515.942 431.8 513.442 436.799 511.129C441.09 509.151 442.881 508.592 447.88 507.734C454.484 506.54 461.572 506.092 469.407 506.316C479.816 506.652 487.838 508.069 498.135 511.464C504.664 513.628 514.849 518.479 519.849 521.836C523.468 524.261 524.177 524.485 525.258 523.478C526.229 522.62 526.079 521.239 524.923 520.045C523.468 518.628 517.573 515.046 512.499 512.509C497.837 505.159 483.323 501.801 465.863 501.69L458.961 501.652L463.363 499.488C468.773 496.839 472.84 495.459 476.272 495.161C477.876 495.011 481.756 495.16 486.196 495.571C492.128 496.131 493.845 496.168 495.449 495.795C499.254 494.937 501.754 491.84 501.754 487.96C501.754 485.274 501.045 483.595 499.03 481.394C496.344 478.483 493.77 477.476 486.719 476.543C482.652 476.021 482.241 475.909 477.354 473.372C467.169 468.149 464.035 468.074 449.149 472.589C439.038 475.685 435.046 476.469 429.3 476.469C423.891 476.469 421.54 475.984 411.914 472.85C404.154 470.35 401.766 469.716 398.11 469.268C392.85 468.597 387.776 470.052 384.119 473.335L379.791 478.67L379.045 480.2C378.635 481.058 377.441 483.259 376.359 485.087C375.314 486.878 374.568 488.557 374.717 488.818C374.867 489.042 374.68 489.005 374.344 488.706C373.785 488.258 373.71 488.296 373.71 489.005C373.71 489.49 373.971 490.087 374.27 490.422C374.605 490.721 374.979 491.467 375.09 492.064C375.202 492.661 375.538 493.146 375.799 493.146C376.471 493.146 376.434 492.474 375.762 491.28C375.464 490.758 375.24 490.012 375.24 489.602C375.24 488.93 375.277 488.967 375.762 489.788C376.06 490.31 376.284 491.057 376.322 491.467C376.359 493.556 382.664 483.744 382.664 481.617L386.768 476.842C388.708 475.014 391.581 473.932 394.864 473.783C398.632 473.633 401.543 474.23 410.086 476.991C420.421 480.312 423.517 480.946 428.927 480.946C435.792 480.983 440.941 479.939 452.059 476.394C463.401 472.775 466.087 472.887 475.153 477.215L476.141 477.694C479.507 479.326 480.868 479.986 482.301 480.36C483.273 480.614 484.278 480.736 485.965 480.942L486.004 480.947L486.017 480.949L486.639 481.025L486.905 481.058C489.367 481.356 492.054 481.916 492.874 482.289C496.195 483.744 498.359 487.587 497.053 489.602C496.717 490.124 495.859 490.833 495.15 491.168C493.919 491.765 493.285 491.728 486.084 491.131C473.026 490.049 471.944 490.31 446.649 501.839C430.867 509.002 424.525 511.539 407.102 517.583C406.507 517.79 405.882 518.007 405.241 518.23L405.185 518.249L405.174 518.253C401.204 519.633 396.595 521.235 394.23 522.097L383 526.09L370.912 531.089L370.613 529.186C370.464 528.142 369.979 525.716 369.569 523.814C368.823 520.456 368.785 520.381 367.815 520.493C367.181 520.568 366.584 521.053 366.211 521.724C365.577 522.806 365.689 524.448 366.771 531.835L366.92 532.992L362.219 535.156C359.607 536.312 355.914 538.028 354.011 538.924C353.417 539.187 352.85 539.439 352.349 539.663C351.212 540.169 350.406 540.528 350.355 540.528C350.281 540.528 346.004 542.412 340.773 544.717L340.542 544.819C328.716 550.042 308.196 558.287 295.138 563.063C249.472 579.702 216.64 587.462 174.668 591.417C169.332 591.94 163.288 592.425 161.236 592.536C149.148 593.096 134.038 588.843 125.383 582.388C116.279 575.636 111.168 566.159 108.594 551.348C107.4 544.557 107.997 533.589 109.676 531.201C110.198 530.455 110.235 530.455 110.683 531.574C111.914 534.559 114.265 536.051 117.697 536.051C119.488 536.051 120.197 535.864 121.428 535.044C122.808 534.074 128.591 527.06 138.702 514.039C139.486 513.038 140.456 511.793 141.483 510.475L141.535 510.408L141.553 510.385L141.559 510.377L141.574 510.358C143.356 508.07 145.296 505.58 146.723 503.779C151.2 498.033 153.775 494.564 156.162 491.019C157.953 488.296 158.625 487.885 170.564 481.729C193.658 469.865 221.005 459.941 254.508 451.173C257.381 450.427 260.329 449.681 261.075 449.495C262.642 449.084 263.089 448.189 265.626 440.914C267.156 436.511 270.365 428.639 271.073 427.557C271.335 427.147 272.379 427.371 276.558 428.714C283.012 430.84 287.489 431.959 295.361 433.452C298.757 434.086 301.741 434.795 301.965 435.019L312.15 435.989C313.27 436.063 314.277 436.213 314.351 436.287C314.426 436.362 315.433 436.436 316.59 436.436C317.933 436.436 318.493 436.324 318.157 436.101C317.597 435.728 317.896 433.079 318.493 433.079C318.717 433.079 318.866 432.929 318.866 432.78C318.866 432.444 301.368 429.684 301.07 429.945ZM601.891 472.738C601.891 474.641 602.04 477.215 602.189 478.484C602.45 480.2 602.376 480.983 602.04 481.394C601.517 482.028 599.727 482.102 598.309 481.543C596.929 480.983 589.579 473.41 588.646 471.544C587.862 470.052 587.862 469.902 588.422 469.044C589.168 467.888 591.146 466.657 592.228 466.657C592.675 466.657 594.168 467.067 595.585 467.589C596.966 468.074 598.98 468.671 599.988 468.895L601.891 469.306V472.738ZM109.452 471.954C107.736 474.454 101.468 480.759 99.8261 481.617C97.5129 482.849 95.7594 482.326 95.7594 480.349C95.7967 479.677 96.0206 477.7 96.2817 475.872C96.5802 474.006 96.6548 471.992 96.5056 471.134L96.4886 471.038C96.2064 469.455 96.2051 469.448 97.9979 469.082C98.7068 468.932 100.572 468.298 102.102 467.701C105.758 466.246 107.251 466.396 109.34 468.485L110.832 469.977L109.452 471.954ZM536.637 479.565C536.936 480.498 537.16 481.319 537.085 481.356C537.011 481.431 535.593 480.759 533.951 479.864C519.55 471.88 495.672 461.993 475.526 455.613C465.676 452.517 453.812 449.084 446.499 447.219C442.507 446.211 439.187 445.353 439.15 445.279C439.095 445.224 438.611 443.905 437.944 442.083L437.94 442.073C437.704 441.428 437.444 440.72 437.172 439.981C434.896 433.489 432.583 427.632 431.277 425.132C430.307 423.266 430.27 422.931 430.009 414.424C429.71 404.649 429.375 400.881 427.882 391.106C426.95 384.913 426.875 383.533 426.912 373.571C426.95 358.312 427.733 352.38 432.732 331.226C435.232 320.406 437.247 311.116 437.918 306.863C438.142 305.259 438.478 303.916 438.627 303.804C438.739 303.729 439.336 305.968 439.896 308.84C442.395 321.6 445.679 333.427 450.603 347.716C455.342 361.408 455.64 362.341 457.505 369.355C460.453 380.622 462.206 384.316 470.489 396.815C478.063 408.306 488.658 421.961 503.918 439.794C506.268 442.555 511.156 448.375 514.737 452.666C524.288 464.194 526.751 467.104 531.638 472.775C534.66 476.245 536.227 478.409 536.637 479.565ZM258.65 307.385C259.023 305.296 259.433 303.617 259.545 303.617C259.694 303.617 260.067 305.296 260.44 307.385C260.776 309.437 262.231 316.377 263.686 322.757C270.924 354.991 271.223 356.969 271.26 373.012C271.297 383.98 271.223 385.212 270.29 391.479C268.798 401.292 268.462 405.022 268.163 414.797L267.865 423.565L265.44 428.975C264.097 431.959 262.194 436.735 261.224 439.608C260.217 442.481 259.321 444.943 259.172 445.092C259.06 445.279 255.777 446.211 251.897 447.219C243.54 449.383 242.644 449.644 232.869 452.554C216.603 457.441 203.06 462.217 189.031 468.037C183.286 470.425 165.303 478.931 162.878 480.424C160.751 481.729 160.677 481.58 161.983 478.857C162.505 477.775 165.116 474.417 167.989 471.134C170.787 467.962 175.787 462.068 179.107 458.076C182.39 454.084 187.464 448.04 190.337 444.644C216.528 413.865 227.646 399.053 235.07 384.913C237.869 379.615 238.727 377.19 240.891 369.131C242.644 362.49 243.428 359.953 247.905 347.082C252.792 332.905 256.672 318.541 258.65 307.385ZM296.257 58.6103C296.555 58.7222 297.115 60.6623 297.749 63.9827C298.757 69.1687 301.704 88.8304 301.704 90.2109C301.704 91.1809 301.368 91.1436 299.801 90.0989C298.16 88.9796 297.115 87.1142 295.735 82.7491C293.011 74.28 291.743 63.6097 293.048 60.4757C293.571 59.2818 295.287 58.2372 296.257 58.6103ZM401.505 59.3565C401.953 57.4164 404.602 58.7595 405.422 61.3338C406.542 64.6916 404.714 77.0409 401.953 84.5772C401.057 87.1142 400.423 88.1589 399.043 89.5393C397.214 91.3674 396.468 91.7405 396.468 90.8078C396.468 88.4946 400.274 64.8036 401.505 59.3565Z" fill="#696969"/>
<path d="M346.145 53.3844C344.713 53.022 342.603 52.0903 341.274 51.2103C340.831 50.9256 339.998 50.7962 338.539 50.7962C336.742 50.7962 336.221 50.6926 334.945 50.0456C333.121 49.1397 331.246 47.3021 329.474 44.7397C328.745 43.6527 327.443 41.9962 326.609 41.0645L325.124 39.3563L325.776 38.7351C326.583 38.0104 329.266 34.5681 330.673 32.4975C332.757 29.4434 336.429 27.554 339.503 27.9681C340.337 28.0717 340.831 27.9164 342.446 27.0623C343.514 26.4929 344.999 25.8717 345.754 25.6646C347.604 25.1729 351.251 25.1987 352.996 25.7164C354.402 26.1305 356.695 27.1917 357.372 27.7352C357.58 27.8905 358.622 28.0199 359.716 28.0199C363.545 28.0458 366.176 29.6246 368.703 33.4551C369.536 34.6716 370.969 36.561 371.907 37.6222L373.626 39.5892L372.193 41.0386C371.412 41.8409 370.083 43.4974 369.224 44.7139C366.098 49.1915 363.832 50.7444 360.237 50.822C358.492 50.8479 358.049 50.9773 356.59 51.7797C355.679 52.2714 354.35 52.8926 353.621 53.1255C351.824 53.7208 347.995 53.8502 346.145 53.3844ZM347.005 50.4338C346.692 50.0197 345.494 48.0009 344.296 45.9562C339.06 36.9751 338.018 35.3704 337.784 35.7845C337.68 36.0175 337.497 37.208 337.419 38.4504C337.028 44.455 340.493 49.735 345.728 51.1844C346.64 51.4432 347.396 51.5209 347.448 51.4173C347.5 51.2879 347.291 50.8479 347.005 50.4338ZM355.653 50.0715C357.945 48.7256 360.211 45.6974 360.914 43.0056C361.383 41.2457 361.435 38.0363 361.019 36.561C360.732 35.5775 360.706 35.5516 360.341 36.0434C359.873 36.6904 356.148 42.9539 353.569 47.4056C352.501 49.2691 351.511 50.8997 351.381 51.055C350.86 51.5985 351.225 51.6503 352.814 51.2103C353.725 50.9514 355.002 50.4338 355.653 50.0715ZM352.423 45.4127C354.038 42.6951 356.148 39.1751 357.059 37.648C357.997 36.0951 358.7 34.801 358.648 34.7234C358.57 34.6716 354.35 34.6457 349.271 34.6716L339.998 34.7492L342.42 38.8904C343.749 41.168 345.781 44.6103 346.953 46.5256C348.099 48.4409 349.063 50.0973 349.063 50.2267C349.063 50.8738 349.766 49.8644 352.423 45.4127ZM338.643 48.9844C338.643 48.9326 338.175 48.1562 337.601 47.2762C334.345 42.2809 334.476 36.0434 337.914 31.074L338.669 29.9611H337.862C335.882 29.9611 334.007 31.4363 331.272 35.1375C330.282 36.4833 329.11 37.9845 328.641 38.4504C328.068 39.0716 327.912 39.3822 328.094 39.641C329.553 41.6857 332.678 45.6197 333.616 46.6033C334.919 47.975 335.778 48.4927 337.263 48.8291C338.513 49.1138 338.643 49.1397 338.643 48.9844ZM362.92 48.4409C364.197 47.768 365.655 46.3185 367.192 44.0927C368.026 42.9539 369.172 41.401 369.797 40.6763C370.787 39.5116 370.891 39.3045 370.552 39.0198C370.318 38.8386 369.146 37.3633 367.921 35.7845C364.691 31.514 363.259 30.3234 360.81 29.8575C359.951 29.7022 359.951 29.7022 360.367 30.2975C361.357 31.6175 362.894 35.1375 363.285 36.9492C363.988 40.2621 363.129 44.4033 361.149 47.3538C360.654 48.0785 360.159 48.8032 360.081 48.9326C359.846 49.295 361.956 48.9327 362.92 48.4409ZM358.987 32.0575C358.544 31.2293 356.07 29.1846 354.689 28.4858C352.006 27.1399 348.151 26.9328 345.26 27.9681C343.306 28.667 340.31 30.8669 339.659 32.0834C339.425 32.5234 339.79 32.5493 349.323 32.5493C358.961 32.5493 359.221 32.5234 358.987 32.0575Z" fill="#545454"/>
<path d="M349.418 24.7525C350.799 24.7624 352.208 24.8987 353.155 25.1795L353.154 25.1803C353.893 25.3979 354.845 25.7778 355.692 26.1691C356.512 26.548 357.302 26.9681 357.706 27.2862C357.654 27.2482 357.654 27.266 357.801 27.3007C357.918 27.3284 358.08 27.3558 358.28 27.3802C358.678 27.4288 359.189 27.4603 359.716 27.4603H359.72C361.716 27.4739 363.434 27.8938 364.987 28.8317C366.534 29.7655 367.879 31.1891 369.17 33.147C369.892 34.1999 371.064 35.7582 371.96 36.8262L372.326 37.2517L372.328 37.2539L374.39 39.6127L372.593 41.4285L372.594 41.4293C371.841 42.2027 370.532 43.831 369.682 45.0334L369.683 45.0341C368.107 47.2919 366.712 48.8657 365.221 49.8806C363.711 50.9086 362.137 51.3409 360.249 51.3817H360.246C359.378 51.3946 358.89 51.4339 358.45 51.5507C358.011 51.6675 357.587 51.8699 356.86 52.27L356.856 52.2721C355.934 52.7692 354.57 53.4101 353.791 53.6588L353.79 53.6581C352.816 53.9793 351.351 54.1628 349.922 54.2119C348.489 54.2611 347.008 54.1788 346.009 53.927C344.515 53.5493 342.351 52.5932 340.971 51.6804C340.845 51.5995 340.615 51.5121 340.203 51.4495C339.797 51.3876 339.255 51.3555 338.539 51.3555C337.639 51.3554 337.009 51.3306 336.433 51.2112C335.846 51.0895 335.345 50.8758 334.691 50.5444C332.749 49.5781 330.81 47.6554 329.014 45.0581L329.01 45.0516C328.296 43.9879 327.01 42.3515 326.192 41.4373L326.187 41.4315L324.351 39.3204L325.39 38.3302L325.396 38.3243L325.402 38.3185C325.762 37.9955 326.603 36.9972 327.559 35.7761C328.502 34.5723 329.516 33.2045 330.21 32.183L330.211 32.1822C332.384 28.997 336.244 26.9678 339.571 27.413C339.923 27.4566 340.175 27.4449 340.517 27.3394C340.89 27.2242 341.374 26.9962 342.184 26.5677C343.275 25.9867 344.798 25.3465 345.606 25.1249L345.611 25.1234C346.605 24.8591 348.036 24.7427 349.418 24.7525ZM349.41 25.8718C348.071 25.8623 346.754 25.9782 345.899 26.2055L345.898 26.2048C345.194 26.3985 343.753 26.9994 342.71 27.5558L342.708 27.5572C341.903 27.9826 341.333 28.259 340.847 28.4091C340.329 28.5688 339.915 28.5833 339.434 28.5235L339.429 28.5228C336.611 28.1431 333.128 29.8923 331.135 32.8133C330.422 33.8621 329.392 35.2505 328.44 36.4662C327.51 37.6534 326.613 38.7282 326.161 39.139L326.162 39.1397L325.897 39.3919L327.026 40.6911C327.873 41.6385 329.189 43.3108 329.935 44.4213C331.571 46.7886 333.264 48.476 334.873 49.3749L335.193 49.5447L335.198 49.5461C335.82 49.8618 336.218 50.0234 336.66 50.1152C337.113 50.2092 337.642 50.2362 338.539 50.2362C339.281 50.2362 339.886 50.2693 340.372 50.3433C340.792 50.4073 341.157 50.5066 341.454 50.6668L341.577 50.7397L341.583 50.7434C342.861 51.5894 344.913 52.4955 346.283 52.842C347.132 53.056 348.491 53.1412 349.884 53.0934C351.277 53.0455 352.621 52.8669 353.445 52.5942L353.451 52.5928C354.13 52.3757 355.423 51.7734 356.325 51.287C357.054 50.8859 357.581 50.6233 358.162 50.4686C358.744 50.314 359.35 50.2755 360.225 50.2624L360.541 50.2515C362.101 50.1758 363.37 49.787 364.592 48.9552C365.914 48.0548 367.215 46.6132 368.765 44.3936L368.767 44.3907C369.636 43.1605 370.984 41.4788 371.793 40.6481L371.795 40.6452L372.862 39.5653L371.485 37.9906C370.528 36.9071 369.083 35 368.241 33.7715L368.236 33.7635C367.001 31.8909 365.766 30.6097 364.409 29.7899C363.058 28.9744 361.545 28.592 359.712 28.5796C359.147 28.5794 358.592 28.5461 358.144 28.4914C357.921 28.4641 357.715 28.4304 357.544 28.3901C357.403 28.357 357.193 28.2997 357.037 28.1839L357.029 28.1781L357.021 28.1715C356.742 27.9476 356.058 27.5714 355.223 27.1856C354.403 26.807 353.506 26.4494 352.838 26.2529H352.836C352.038 26.0162 350.751 25.8814 349.41 25.8718ZM360.523 35.1844C360.724 35.1416 360.912 35.1984 361.052 35.3061C361.165 35.394 361.232 35.5033 361.268 35.5706C361.308 35.6455 361.341 35.7272 361.369 35.8045C361.425 35.9583 361.486 36.1633 361.556 36.4042L361.557 36.4086C361.788 37.2254 361.878 38.4617 361.858 39.6855C361.838 40.9146 361.705 42.2053 361.455 43.1461L361.456 43.1468C361.082 44.5774 360.302 46.0721 359.328 47.3775C358.355 48.6821 357.163 49.8337 355.936 50.5539L355.93 50.5575L355.925 50.5605C355.23 50.9471 353.912 51.4804 352.966 51.7489L352.963 51.7497C352.56 51.8612 352.224 51.9448 351.953 51.9974C351.701 52.0466 351.448 52.0808 351.242 52.0572C351.145 52.046 350.963 52.013 350.809 51.8721C350.612 51.692 350.576 51.45 350.612 51.2651C350.641 51.1129 350.716 50.9906 350.769 50.9146C350.822 50.8389 350.886 50.765 350.953 50.6938C350.959 50.6854 350.974 50.6634 351.002 50.6217C351.04 50.5637 351.091 50.484 351.153 50.3841C351.278 50.1843 351.446 49.9108 351.644 49.5826C352.039 48.9262 352.551 48.056 353.083 47.1276L353.085 47.1254C354.376 44.8974 355.952 42.2162 357.265 40.0112C358.567 37.825 359.634 36.0651 359.888 35.7149L359.892 35.7098C359.972 35.6015 360.079 35.457 360.19 35.3586C360.247 35.3084 360.361 35.2192 360.523 35.1844ZM337.629 35.2128C337.811 35.1393 337.983 35.164 338.104 35.207C338.306 35.2792 338.467 35.4386 338.577 35.559C338.825 35.8312 339.165 36.3112 339.636 37.0448C340.587 38.5288 342.163 41.1865 344.779 45.6731C345.377 46.695 345.975 47.7087 346.462 48.5179C346.834 49.1363 347.129 49.6151 347.31 49.8908L347.451 50.097L347.459 50.1058L347.465 50.1152C347.623 50.3432 347.765 50.5855 347.862 50.7995C347.911 50.905 347.955 51.0193 347.983 51.1303C347.997 51.1858 348.01 51.2537 348.014 51.327C348.017 51.395 348.015 51.5064 347.967 51.6265L347.958 51.6477L347.948 51.6688C347.88 51.8032 347.778 51.8789 347.713 51.9173C347.646 51.9565 347.583 51.9772 347.54 51.9887C347.454 52.0114 347.37 52.0177 347.305 52.02C347.17 52.0247 347.009 52.0134 346.841 51.9923C346.499 51.9494 346.054 51.8584 345.576 51.7227C340.051 50.1914 336.455 44.6436 336.861 38.414C336.901 37.7785 336.967 37.156 337.038 36.66C337.073 36.4124 337.109 36.1918 337.145 36.0144C337.177 35.8568 337.218 35.6793 337.273 35.556L337.284 35.532L337.296 35.5087C337.35 35.4143 337.452 35.2843 337.629 35.2128ZM355.839 34.1089C356.689 34.1137 357.386 34.1206 357.875 34.13C358.119 34.1347 358.315 34.1402 358.455 34.146C358.523 34.1489 358.585 34.1523 358.632 34.1562C358.655 34.1581 358.684 34.1607 358.712 34.165C358.725 34.167 358.749 34.1708 358.775 34.1774C358.78 34.1785 358.83 34.1895 358.892 34.2196L358.957 34.2568L359.051 34.3187L359.113 34.4113C359.2 34.5399 359.209 34.6663 359.21 34.7144C359.212 34.7733 359.205 34.8217 359.2 34.85C359.19 34.9073 359.173 34.9587 359.161 34.9928C359.136 35.0652 359.1 35.1482 359.061 35.2318C358.981 35.4033 358.862 35.6328 358.717 35.9C358.426 36.4363 358.011 37.1542 357.539 37.9345C356.627 39.4631 354.519 42.9816 352.904 45.6987L352.903 45.6994C351.578 47.9205 350.727 49.3043 350.205 50.0518C350.074 50.2401 349.957 50.3969 349.855 50.5196C349.762 50.6326 349.651 50.753 349.529 50.8359C349.47 50.8761 349.36 50.942 349.212 50.9598C349.03 50.9816 348.835 50.9234 348.693 50.774C348.578 50.6532 348.539 50.5164 348.524 50.4453C348.516 50.4091 348.512 50.3734 348.509 50.3397C348.486 50.2917 348.451 50.2209 348.4 50.1262C348.296 49.9307 348.143 49.6578 347.952 49.3246C347.571 48.6605 347.047 47.7726 346.476 46.8179L345.457 45.1332C344.327 43.2468 342.933 40.8812 341.937 39.1725L339.027 34.1978L349.267 34.1118H349.268C351.809 34.0988 354.137 34.0992 355.839 34.1089ZM338.145 36.8262C338.079 37.2926 338.016 37.8827 337.978 38.4854V38.4868C337.602 44.265 340.933 49.276 345.877 50.645L345.881 50.6457C346.136 50.7181 346.376 50.7733 346.586 50.8148C346.573 50.7941 346.559 50.7729 346.545 50.7521C346.36 50.5018 345.972 49.8742 345.503 49.0951C345.013 48.2803 344.412 47.2621 343.813 46.2393L343.812 46.2379C341.193 41.7445 339.63 39.1095 338.693 37.6496C338.474 37.3074 338.293 37.0371 338.145 36.8262ZM360.505 36.8159C360.067 37.5138 359.232 38.8976 358.227 40.584C356.917 42.7846 355.342 45.4597 354.054 47.6829L354.055 47.6836C353.519 48.6187 353.002 49.4961 352.603 50.1597C352.459 50.3989 352.328 50.6101 352.218 50.7878C352.351 50.7542 352.499 50.7168 352.661 50.6719L353.005 50.5677C353.837 50.3002 354.849 49.8783 355.38 49.5826C356.442 48.9562 357.525 47.9233 358.431 46.7086C359.339 45.4906 360.044 44.125 360.373 42.8641L360.374 42.8619C360.592 42.0429 360.72 40.8503 360.739 39.6673C360.757 38.5373 360.673 37.4832 360.505 36.8159ZM339.726 29.4016L338.377 31.388L338.374 31.3923C335.062 36.1791 334.941 42.1706 338.07 46.9709L338.479 47.6085C338.605 47.8083 338.72 47.9918 338.816 48.15C338.912 48.3074 338.992 48.4427 339.049 48.5442C339.077 48.594 339.102 48.6417 339.123 48.6819C339.132 48.7012 339.145 48.7272 339.156 48.7548C339.162 48.7682 339.17 48.7902 339.178 48.8167C339.182 48.8319 339.203 48.8982 339.203 48.9843C339.203 49.0324 339.2 49.1408 339.147 49.2597C339.085 49.4013 338.975 49.5089 338.842 49.5716C338.729 49.6249 338.622 49.6356 338.556 49.6379C338.486 49.6405 338.416 49.6351 338.355 49.6277C338.129 49.6006 337.744 49.5129 337.138 49.3749C336.355 49.1974 335.708 48.9655 335.08 48.5828C334.457 48.2034 333.877 47.6912 333.21 46.9884C332.244 45.9742 329.102 42.0176 327.638 39.9661L327.636 39.9632C327.535 39.8189 327.468 39.6455 327.463 39.448C327.458 39.2598 327.509 39.0894 327.577 38.9444C327.705 38.6708 327.942 38.3819 328.229 38.0707L328.238 38.062L328.246 38.0533C328.678 37.6241 329.824 36.1617 330.821 34.8062L330.822 34.8048C332.199 32.9411 333.387 31.5992 334.504 30.7212C335.633 29.8345 336.715 29.4016 337.862 29.4016H339.726ZM360.381 29.2208C360.45 29.2284 360.531 29.2408 360.62 29.2558L360.91 29.3068L360.915 29.3076C362.225 29.5569 363.285 30.0095 364.431 30.9646C365.553 31.899 366.752 33.3101 368.368 35.4467C368.978 36.2334 369.573 36.9911 370.044 37.5745C370.28 37.8672 370.482 38.1131 370.639 38.2952C370.717 38.3863 370.781 38.4582 370.831 38.5109L370.895 38.5772L370.904 38.5837L370.912 38.5918C371.021 38.683 371.184 38.8386 371.254 39.08C371.328 39.3371 371.264 39.572 371.181 39.7526C371.1 39.9276 370.973 40.1118 370.824 40.3064C370.671 40.5063 370.471 40.7472 370.223 41.0387L370.221 41.0416C369.614 41.745 368.484 43.2754 367.645 44.422C366.092 46.6691 364.573 48.2021 363.181 48.9362L363.174 48.9391C362.622 49.2209 361.792 49.447 361.146 49.5585C360.826 49.6139 360.504 49.6491 360.261 49.6365C360.166 49.6315 359.966 49.6168 359.794 49.5068C359.689 49.4393 359.548 49.3039 359.511 49.0827C359.479 48.8868 359.548 48.7313 359.602 48.6433C359.691 48.4961 360.201 47.7491 360.687 47.038C362.586 44.205 363.407 40.2191 362.737 37.0652C362.553 36.2135 362.089 34.9212 361.538 33.6636C360.985 32.4002 360.374 31.239 359.92 30.633L359.914 30.6257L359.909 30.6185C359.813 30.4818 359.714 30.341 359.651 30.2279C359.621 30.1745 359.572 30.0791 359.549 29.9648C359.524 29.8384 359.518 29.5959 359.716 29.3994C359.875 29.2416 360.068 29.2193 360.136 29.2136C360.225 29.2062 360.312 29.2134 360.381 29.2208ZM349.275 35.2303L349.275 35.2311L340.968 35.3003L342.904 38.6078C343.9 40.3156 345.291 42.6773 346.417 44.5568L347.43 46.2335L347.433 46.2379C348.007 47.1963 348.536 48.0931 348.923 48.7672C349.063 49.0125 349.186 49.2314 349.286 49.4135L349.288 49.4113C349.782 48.7029 350.611 47.3561 351.942 45.1259C353.558 42.4079 355.668 38.8863 356.579 37.361L356.58 37.3588C357.046 36.5873 357.452 35.8829 357.733 35.3651C357.755 35.3249 357.775 35.2854 357.795 35.2478C357.316 35.2391 356.647 35.2328 355.832 35.2281C354.135 35.2184 351.813 35.2174 349.275 35.2303ZM361.185 30.5128C361.634 31.2366 362.128 32.2192 362.564 33.2148C363.126 34.4985 363.625 35.8713 363.832 36.8313L363.832 36.8327C364.569 40.3031 363.672 44.5975 361.613 47.6654L361.611 47.6698C361.429 47.9364 361.25 48.1979 361.092 48.429C361.653 48.3213 362.285 48.1363 362.666 47.9423C363.822 47.33 365.217 45.9692 366.732 43.7749L366.741 43.7618C367.567 42.6325 368.727 41.0606 369.37 40.3137C369.617 40.023 369.802 39.8011 369.936 39.6258C370.019 39.517 370.073 39.4349 370.111 39.3751C370.013 39.2809 369.9 39.152 369.79 39.0246C369.623 38.8298 369.412 38.5738 369.173 38.2777C368.694 37.6847 368.092 36.9177 367.479 36.1273L367.475 36.1222C365.861 33.9886 364.729 32.6694 363.714 31.8244C362.868 31.1196 362.101 30.7427 361.185 30.5128ZM337.605 30.531C336.855 30.5886 336.082 30.9048 335.196 31.6015C334.197 32.3863 333.079 33.632 331.722 35.4686C330.75 36.7901 329.567 38.3098 329.051 38.8293L329.052 38.83C328.79 39.1142 328.662 39.2875 328.605 39.3926C330.08 41.4492 333.121 45.2731 334.021 46.2167L334.022 46.2182C334.657 46.8871 335.159 47.3202 335.662 47.6268C336.098 47.892 336.554 48.0742 337.132 48.2221L337.387 48.2833C337.467 48.3015 337.542 48.3178 337.611 48.3336C337.468 48.105 337.306 47.8478 337.132 47.5816C333.75 42.3915 333.889 35.9073 337.454 30.7555L337.605 30.531ZM345.071 27.4414C348.007 26.3901 351.866 26.5566 354.672 27.856L354.94 27.9857L354.942 27.9864C355.686 28.3635 356.688 29.0797 357.547 29.7921C357.98 30.1515 358.389 30.5192 358.721 30.8546C359 31.1371 359.256 31.4269 359.417 31.6853L359.481 31.7938L359.484 31.7997L359.486 31.8062C359.507 31.847 359.609 32.033 359.592 32.2558C359.567 32.575 359.344 32.7537 359.172 32.8359C359.02 32.9085 358.836 32.9463 358.651 32.9721C358.455 32.9997 358.203 33.0205 357.886 33.037C356.627 33.1027 354.132 33.1091 349.323 33.1091C344.566 33.1091 342.072 33.103 340.801 33.0406C340.481 33.025 340.227 33.0052 340.028 32.9794C339.84 32.955 339.659 32.9201 339.509 32.8563C339.359 32.7916 339.109 32.6356 339.062 32.3097C339.027 32.0642 339.143 31.8632 339.166 31.8201C339.37 31.4382 339.73 31.0231 340.146 30.6221C340.571 30.2131 341.087 29.7862 341.639 29.3804C342.737 28.5743 344.023 27.8161 345.071 27.4414ZM354.438 28.9862C351.976 27.751 348.43 27.5234 345.709 28.4062L345.448 28.4951C344.542 28.8192 343.354 29.51 342.303 30.2825C341.781 30.666 341.304 31.0614 340.922 31.4288C340.747 31.5981 340.598 31.7562 340.476 31.8988C340.585 31.9071 340.71 31.915 340.855 31.9221C342.091 31.9827 344.548 31.9899 349.323 31.9899C354.152 31.9899 356.606 31.9829 357.828 31.9192C357.956 31.9125 358.067 31.9042 358.165 31.8966C358.096 31.8192 358.016 31.734 357.925 31.6423C357.625 31.3395 357.246 30.9967 356.833 30.6542C355.999 29.9632 355.074 29.3082 354.438 28.9862Z" fill="#545454"/>
<rect width="699" height="383" rx="54" fill="url(#paint0_linear_1314_909)"/>
<path d="M0 54C0 24.1766 24.1766 0 54 0H645C674.823 0 699 24.1766 699 54V329C699 358.823 674.823 383 645 383H54C24.1766 383 0 358.823 0 329V54Z" fill="url(#paint1_linear_1314_909)"/>
<rect x="28" y="261" width="638" height="88" rx="44" fill="#0E0E0E" fill-opacity="0.31"/>
<path d="M82.8125 302H80.875C80.7604 301.443 80.5599 300.953 80.2734 300.531C79.9922 300.109 79.6484 299.755 79.2422 299.469C78.8411 299.177 78.3958 298.958 77.9063 298.812C77.4167 298.667 76.9063 298.594 76.375 298.594C75.4063 298.594 74.5286 298.839 73.7422 299.328C72.9609 299.818 72.3385 300.539 71.875 301.492C71.4167 302.445 71.1875 303.615 71.1875 305C71.1875 306.385 71.4167 307.555 71.875 308.508C72.3385 309.461 72.9609 310.182 73.7422 310.672C74.5286 311.161 75.4063 311.406 76.375 311.406C76.9063 311.406 77.4167 311.333 77.9063 311.187C78.3958 311.042 78.8411 310.826 79.2422 310.539C79.6484 310.247 79.9922 309.891 80.2734 309.469C80.5599 309.042 80.7604 308.552 80.875 308H82.8125C82.6667 308.818 82.401 309.549 82.0156 310.195C81.6302 310.841 81.151 311.391 80.5781 311.844C80.0052 312.292 79.362 312.633 78.6484 312.867C77.9401 313.102 77.1823 313.219 76.375 313.219C75.0104 313.219 73.7969 312.885 72.7344 312.219C71.6719 311.552 70.8359 310.604 70.2266 309.375C69.6172 308.146 69.3125 306.687 69.3125 305C69.3125 303.312 69.6172 301.854 70.2266 300.625C70.8359 299.396 71.6719 298.448 72.7344 297.781C73.7969 297.115 75.0104 296.781 76.375 296.781C77.1823 296.781 77.9401 296.898 78.6484 297.133C79.362 297.367 80.0052 297.711 80.5781 298.164C81.151 298.612 81.6302 299.159 82.0156 299.805C82.401 300.445 82.6667 301.177 82.8125 302ZM92.5959 308.094V301H94.4396V313H92.5959V310.969H92.4709C92.1896 311.578 91.7521 312.096 91.1584 312.523C90.5646 312.945 89.8146 313.156 88.9084 313.156C88.1584 313.156 87.4917 312.992 86.9084 312.664C86.325 312.331 85.8667 311.831 85.5334 311.164C85.2 310.492 85.0334 309.646 85.0334 308.625V301H86.8771V308.5C86.8771 309.375 87.1219 310.073 87.6115 310.594C88.1063 311.115 88.7365 311.375 89.5021 311.375C89.9604 311.375 90.4266 311.258 90.9005 311.023C91.3797 310.789 91.7808 310.43 92.1037 309.945C92.4318 309.461 92.5959 308.844 92.5959 308.094ZM97.1566 313V301H98.9378V302.812H99.0628C99.2816 302.219 99.6774 301.737 100.25 301.367C100.823 300.997 101.469 300.812 102.188 300.812C102.323 300.812 102.493 300.815 102.696 300.82C102.899 300.826 103.052 300.833 103.157 300.844V302.719C103.094 302.703 102.951 302.68 102.727 302.648C102.508 302.612 102.276 302.594 102.032 302.594C101.448 302.594 100.927 302.716 100.469 302.961C100.016 303.201 99.6566 303.534 99.3909 303.961C99.1305 304.383 99.0003 304.865 99.0003 305.406V313H97.1566ZM104.682 313V301H106.463V302.812H106.588C106.807 302.219 107.203 301.737 107.776 301.367C108.349 300.997 108.995 300.812 109.713 300.812C109.849 300.812 110.018 300.815 110.221 300.82C110.424 300.826 110.578 300.833 110.682 300.844V302.719C110.62 302.703 110.476 302.68 110.252 302.648C110.034 302.612 109.802 302.594 109.557 302.594C108.974 302.594 108.453 302.716 107.995 302.961C107.541 303.201 107.182 303.534 106.916 303.961C106.656 304.383 106.526 304.865 106.526 305.406V313H104.682ZM116.874 313.25C115.717 313.25 114.72 312.995 113.881 312.484C113.048 311.969 112.405 311.25 111.952 310.328C111.504 309.401 111.28 308.323 111.28 307.094C111.28 305.865 111.504 304.781 111.952 303.844C112.405 302.901 113.035 302.167 113.842 301.641C114.655 301.109 115.603 300.844 116.686 300.844C117.311 300.844 117.928 300.948 118.538 301.156C119.147 301.365 119.702 301.703 120.202 302.172C120.702 302.635 121.1 303.25 121.397 304.016C121.694 304.781 121.842 305.724 121.842 306.844V307.625H112.592V306.031H119.967C119.967 305.354 119.832 304.75 119.561 304.219C119.296 303.687 118.915 303.268 118.421 302.961C117.931 302.654 117.353 302.5 116.686 302.5C115.952 302.5 115.316 302.682 114.78 303.047C114.249 303.406 113.84 303.875 113.553 304.453C113.267 305.031 113.124 305.651 113.124 306.312V307.375C113.124 308.281 113.28 309.049 113.592 309.68C113.91 310.305 114.35 310.781 114.913 311.109C115.475 311.432 116.129 311.594 116.874 311.594C117.358 311.594 117.796 311.526 118.186 311.391C118.582 311.25 118.923 311.042 119.21 310.766C119.496 310.484 119.717 310.135 119.874 309.719L121.655 310.219C121.467 310.823 121.152 311.354 120.71 311.812C120.267 312.266 119.72 312.62 119.069 312.875C118.418 313.125 117.686 313.25 116.874 313.25ZM125.831 305.781V313H123.987V301H125.768V302.875H125.925C126.206 302.266 126.633 301.776 127.206 301.406C127.779 301.031 128.518 300.844 129.425 300.844C130.237 300.844 130.948 301.01 131.557 301.344C132.167 301.672 132.641 302.172 132.979 302.844C133.318 303.51 133.487 304.354 133.487 305.375V313H131.643V305.5C131.643 304.557 131.399 303.823 130.909 303.297C130.419 302.766 129.748 302.5 128.893 302.5C128.305 302.5 127.779 302.628 127.315 302.883C126.857 303.138 126.495 303.51 126.229 304C125.964 304.49 125.831 305.083 125.831 305.781ZM141.415 301V302.562H135.196V301H141.415ZM137.009 298.125H138.853V309.562C138.853 310.083 138.928 310.474 139.079 310.734C139.235 310.99 139.433 311.161 139.673 311.25C139.918 311.333 140.175 311.375 140.446 311.375C140.649 311.375 140.816 311.365 140.946 311.344C141.076 311.318 141.181 311.297 141.259 311.281L141.634 312.937C141.509 312.984 141.334 313.031 141.11 313.078C140.886 313.13 140.603 313.156 140.259 313.156C139.738 313.156 139.228 313.044 138.728 312.82C138.233 312.596 137.821 312.255 137.493 311.797C137.17 311.339 137.009 310.76 137.009 310.062V298.125ZM154.087 313.25C152.931 313.25 151.934 312.995 151.095 312.484C150.262 311.969 149.618 311.25 149.165 310.328C148.717 309.401 148.493 308.323 148.493 307.094C148.493 305.865 148.717 304.781 149.165 303.844C149.618 302.901 150.249 302.167 151.056 301.641C151.868 301.109 152.816 300.844 153.9 300.844C154.525 300.844 155.142 300.948 155.751 301.156C156.361 301.365 156.915 301.703 157.415 302.172C157.915 302.635 158.314 303.25 158.611 304.016C158.908 304.781 159.056 305.724 159.056 306.844V307.625H149.806V306.031H157.181C157.181 305.354 157.046 304.75 156.775 304.219C156.509 303.687 156.129 303.268 155.634 302.961C155.144 302.654 154.566 302.5 153.9 302.5C153.165 302.5 152.53 302.682 151.993 303.047C151.462 303.406 151.053 303.875 150.767 304.453C150.48 305.031 150.337 305.651 150.337 306.312V307.375C150.337 308.281 150.493 309.049 150.806 309.68C151.124 310.305 151.564 310.781 152.126 311.109C152.689 311.432 153.342 311.594 154.087 311.594C154.572 311.594 155.009 311.526 155.4 311.391C155.796 311.25 156.137 311.042 156.423 310.766C156.71 310.484 156.931 310.135 157.087 309.719L158.868 310.219C158.681 310.823 158.366 311.354 157.923 311.812C157.48 312.266 156.934 312.62 156.283 312.875C155.631 313.125 154.9 313.25 154.087 313.25ZM163.044 305.781V313H161.201V301H162.982V302.875H163.138C163.419 302.266 163.846 301.776 164.419 301.406C164.992 301.031 165.732 300.844 166.638 300.844C167.451 300.844 168.162 301.01 168.771 301.344C169.38 301.672 169.854 302.172 170.193 302.844C170.531 303.51 170.701 304.354 170.701 305.375V313H168.857V305.5C168.857 304.557 168.612 303.823 168.122 303.297C167.633 302.766 166.961 302.5 166.107 302.5C165.518 302.5 164.992 302.628 164.529 302.883C164.07 303.138 163.708 303.51 163.443 304C163.177 304.49 163.044 305.083 163.044 305.781ZM178.441 313.25C177.285 313.25 176.287 312.995 175.449 312.484C174.615 311.969 173.972 311.25 173.519 310.328C173.071 309.401 172.847 308.323 172.847 307.094C172.847 305.865 173.071 304.781 173.519 303.844C173.972 302.901 174.602 302.167 175.41 301.641C176.222 301.109 177.17 300.844 178.254 300.844C178.879 300.844 179.496 300.948 180.105 301.156C180.714 301.365 181.269 301.703 181.769 302.172C182.269 302.635 182.668 303.25 182.964 304.016C183.261 304.781 183.41 305.724 183.41 306.844V307.625H174.16V306.031H181.535C181.535 305.354 181.399 304.75 181.129 304.219C180.863 303.687 180.483 303.268 179.988 302.961C179.498 302.654 178.92 302.5 178.254 302.5C177.519 302.5 176.884 302.682 176.347 303.047C175.816 303.406 175.407 303.875 175.121 304.453C174.834 305.031 174.691 305.651 174.691 306.312V307.375C174.691 308.281 174.847 309.049 175.16 309.68C175.477 310.305 175.918 310.781 176.48 311.109C177.043 311.432 177.696 311.594 178.441 311.594C178.925 311.594 179.363 311.526 179.754 311.391C180.149 311.25 180.49 311.042 180.777 310.766C181.063 310.484 181.285 310.135 181.441 309.719L183.222 310.219C183.035 310.823 182.72 311.354 182.277 311.812C181.834 312.266 181.287 312.62 180.636 312.875C179.985 313.125 179.254 313.25 178.441 313.25ZM185.554 313V301H187.336V302.812H187.461C187.679 302.219 188.075 301.737 188.648 301.367C189.221 300.997 189.867 300.812 190.586 300.812C190.721 300.812 190.89 300.815 191.094 300.82C191.297 300.826 191.45 300.833 191.554 300.844V302.719C191.492 302.703 191.349 302.68 191.125 302.648C190.906 302.612 190.674 302.594 190.429 302.594C189.846 302.594 189.325 302.716 188.867 302.961C188.414 303.201 188.054 303.534 187.789 303.961C187.528 304.383 187.398 304.865 187.398 305.406V313H185.554ZM197.559 317.75C196.668 317.75 195.902 317.635 195.262 317.406C194.621 317.182 194.087 316.885 193.66 316.516C193.238 316.151 192.902 315.76 192.652 315.344L194.121 314.313C194.288 314.531 194.499 314.781 194.754 315.062C195.009 315.349 195.358 315.596 195.801 315.805C196.249 316.018 196.835 316.125 197.559 316.125C198.527 316.125 199.327 315.891 199.957 315.422C200.587 314.953 200.902 314.219 200.902 313.219V310.781H200.746C200.611 311 200.418 311.271 200.168 311.594C199.923 311.911 199.569 312.195 199.105 312.445C198.647 312.69 198.027 312.812 197.246 312.812C196.277 312.812 195.407 312.583 194.637 312.125C193.871 311.667 193.264 311 192.816 310.125C192.374 309.25 192.152 308.187 192.152 306.937C192.152 305.708 192.368 304.638 192.801 303.727C193.233 302.81 193.835 302.102 194.605 301.602C195.376 301.096 196.267 300.844 197.277 300.844C198.059 300.844 198.678 300.974 199.137 301.234C199.6 301.49 199.954 301.781 200.199 302.109C200.449 302.432 200.642 302.698 200.777 302.906H200.965V301H202.746V313.344C202.746 314.375 202.512 315.214 202.043 315.859C201.579 316.51 200.954 316.987 200.168 317.289C199.387 317.596 198.517 317.75 197.559 317.75ZM197.496 311.156C198.236 311.156 198.861 310.987 199.371 310.648C199.881 310.31 200.269 309.823 200.535 309.188C200.801 308.552 200.934 307.792 200.934 306.906C200.934 306.042 200.803 305.279 200.543 304.617C200.282 303.956 199.897 303.437 199.387 303.062C198.876 302.687 198.246 302.5 197.496 302.5C196.715 302.5 196.064 302.698 195.543 303.094C195.027 303.49 194.639 304.021 194.379 304.688C194.124 305.354 193.996 306.094 193.996 306.906C193.996 307.74 194.126 308.477 194.387 309.117C194.652 309.753 195.043 310.253 195.559 310.617C196.079 310.977 196.725 311.156 197.496 311.156ZM206.649 317.5C206.336 317.5 206.057 317.474 205.813 317.422C205.568 317.375 205.399 317.328 205.305 317.281L205.774 315.656C206.221 315.771 206.617 315.813 206.961 315.781C207.305 315.75 207.609 315.596 207.875 315.32C208.146 315.049 208.393 314.609 208.617 314L208.961 313.063L204.524 301H206.524L209.836 310.562H209.961L213.274 301H215.274L210.18 314.75C209.951 315.37 209.667 315.883 209.328 316.289C208.99 316.701 208.596 317.005 208.149 317.203C207.706 317.401 207.206 317.5 206.649 317.5ZM218.391 313.125C218.005 313.125 217.675 312.987 217.399 312.711C217.123 312.435 216.985 312.104 216.985 311.719C216.985 311.333 217.123 311.003 217.399 310.727C217.675 310.451 218.005 310.312 218.391 310.312C218.776 310.312 219.107 310.451 219.383 310.727C219.659 311.003 219.797 311.333 219.797 311.719C219.797 311.974 219.732 312.208 219.602 312.422C219.477 312.635 219.308 312.807 219.094 312.937C218.886 313.063 218.651 313.125 218.391 313.125ZM218.391 304.219C218.005 304.219 217.675 304.081 217.399 303.805C217.123 303.529 216.985 303.198 216.985 302.812C216.985 302.427 217.123 302.096 217.399 301.82C217.675 301.544 218.005 301.406 218.391 301.406C218.776 301.406 219.107 301.544 219.383 301.82C219.659 302.096 219.797 302.427 219.797 302.812C219.797 303.068 219.732 303.302 219.602 303.516C219.477 303.729 219.308 303.901 219.094 304.031C218.886 304.156 218.651 304.219 218.391 304.219Z" fill="#919191"/>
<path d="M227.348 298.719V297H239.348V298.719H234.317V313H232.379V298.719H227.348ZM243.272 305.781V313H241.428V297H243.272V302.875H243.428C243.71 302.255 244.132 301.763 244.694 301.398C245.262 301.029 246.017 300.844 246.96 300.844C247.777 300.844 248.494 301.008 249.108 301.336C249.723 301.659 250.199 302.156 250.538 302.828C250.882 303.495 251.053 304.344 251.053 305.375V313H249.21V305.5C249.21 304.547 248.962 303.81 248.467 303.289C247.978 302.763 247.298 302.5 246.428 302.5C245.824 302.5 245.283 302.628 244.803 302.883C244.329 303.138 243.954 303.51 243.678 304C243.408 304.49 243.272 305.083 243.272 305.781ZM253.766 313V301H255.548V302.812H255.673C255.891 302.219 256.287 301.737 256.86 301.367C257.433 300.997 258.079 300.812 258.798 300.812C258.933 300.812 259.102 300.815 259.306 300.82C259.509 300.826 259.662 300.833 259.766 300.844V302.719C259.704 302.703 259.561 302.68 259.337 302.648C259.118 302.612 258.886 302.594 258.641 302.594C258.058 302.594 257.537 302.716 257.079 302.961C256.626 303.201 256.266 303.534 256.001 303.961C255.74 304.383 255.61 304.865 255.61 305.406V313H253.766ZM265.802 313.25C264.718 313.25 263.768 312.992 262.95 312.477C262.138 311.961 261.502 311.24 261.044 310.312C260.591 309.385 260.364 308.302 260.364 307.062C260.364 305.812 260.591 304.721 261.044 303.789C261.502 302.857 262.138 302.133 262.95 301.617C263.768 301.102 264.718 300.844 265.802 300.844C266.885 300.844 267.833 301.102 268.646 301.617C269.463 302.133 270.099 302.857 270.552 303.789C271.01 304.721 271.239 305.812 271.239 307.062C271.239 308.302 271.01 309.385 270.552 310.312C270.099 311.24 269.463 311.961 268.646 312.477C267.833 312.992 266.885 313.25 265.802 313.25ZM265.802 311.594C266.625 311.594 267.302 311.383 267.833 310.961C268.364 310.539 268.758 309.984 269.013 309.297C269.268 308.609 269.396 307.865 269.396 307.062C269.396 306.26 269.268 305.513 269.013 304.82C268.758 304.128 268.364 303.568 267.833 303.141C267.302 302.714 266.625 302.5 265.802 302.5C264.979 302.5 264.302 302.714 263.771 303.141C263.239 303.568 262.846 304.128 262.591 304.82C262.336 305.513 262.208 306.26 262.208 307.062C262.208 307.865 262.336 308.609 262.591 309.297C262.846 309.984 263.239 310.539 263.771 310.961C264.302 311.383 264.979 311.594 265.802 311.594ZM276.925 313.281C276.165 313.281 275.474 313.138 274.855 312.852C274.235 312.56 273.743 312.141 273.378 311.594C273.014 311.042 272.831 310.375 272.831 309.594C272.831 308.906 272.967 308.349 273.238 307.922C273.508 307.49 273.87 307.151 274.323 306.906C274.777 306.661 275.277 306.479 275.823 306.359C276.376 306.234 276.93 306.135 277.488 306.063C278.217 305.969 278.808 305.898 279.261 305.852C279.719 305.799 280.053 305.714 280.261 305.594C280.474 305.474 280.581 305.266 280.581 304.969V304.906C280.581 304.135 280.37 303.536 279.948 303.109C279.532 302.682 278.899 302.469 278.05 302.469C277.17 302.469 276.48 302.661 275.98 303.047C275.48 303.432 275.128 303.844 274.925 304.281L273.175 303.656C273.488 302.927 273.904 302.359 274.425 301.953C274.951 301.542 275.524 301.255 276.144 301.094C276.769 300.927 277.383 300.844 277.988 300.844C278.373 300.844 278.816 300.891 279.316 300.984C279.821 301.073 280.308 301.258 280.777 301.539C281.251 301.82 281.644 302.245 281.956 302.812C282.269 303.38 282.425 304.141 282.425 305.094V313H280.581V311.375H280.488C280.363 311.635 280.154 311.914 279.863 312.211C279.571 312.508 279.183 312.76 278.698 312.969C278.214 313.177 277.623 313.281 276.925 313.281ZM277.206 311.625C277.935 311.625 278.55 311.482 279.05 311.195C279.555 310.909 279.935 310.539 280.191 310.086C280.451 309.633 280.581 309.156 280.581 308.656V306.969C280.503 307.062 280.331 307.148 280.066 307.227C279.805 307.299 279.503 307.365 279.159 307.422C278.821 307.474 278.49 307.521 278.167 307.562C277.849 307.599 277.592 307.63 277.394 307.656C276.915 307.719 276.467 307.82 276.05 307.961C275.639 308.096 275.305 308.302 275.05 308.578C274.8 308.849 274.675 309.219 274.675 309.687C274.675 310.328 274.912 310.812 275.386 311.141C275.865 311.464 276.472 311.625 277.206 311.625ZM290.349 301V302.562H284.13V301H290.349ZM285.943 298.125H287.786V309.562C287.786 310.083 287.862 310.474 288.013 310.734C288.169 310.99 288.367 311.161 288.607 311.25C288.852 311.333 289.109 311.375 289.38 311.375C289.583 311.375 289.75 311.365 289.88 311.344C290.01 311.318 290.115 311.297 290.193 311.281L290.568 312.937C290.443 312.984 290.268 313.031 290.044 313.078C289.82 313.13 289.536 313.156 289.193 313.156C288.672 313.156 288.161 313.044 287.661 312.82C287.167 312.596 286.755 312.255 286.427 311.797C286.104 311.339 285.943 310.76 285.943 310.062V298.125ZM311.115 302H309.177C309.063 301.443 308.862 300.953 308.576 300.531C308.295 300.109 307.951 299.755 307.545 299.469C307.144 299.177 306.698 298.958 306.209 298.812C305.719 298.667 305.209 298.594 304.677 298.594C303.709 298.594 302.831 298.839 302.045 299.328C301.263 299.818 300.641 300.539 300.177 301.492C299.719 302.445 299.49 303.615 299.49 305C299.49 306.385 299.719 307.555 300.177 308.508C300.641 309.461 301.263 310.182 302.045 310.672C302.831 311.161 303.709 311.406 304.677 311.406C305.209 311.406 305.719 311.333 306.209 311.187C306.698 311.042 307.144 310.826 307.545 310.539C307.951 310.247 308.295 309.891 308.576 309.469C308.862 309.042 309.063 308.552 309.177 308H311.115C310.969 308.818 310.703 309.549 310.318 310.195C309.933 310.841 309.453 311.391 308.881 311.844C308.308 312.292 307.664 312.633 306.951 312.867C306.243 313.102 305.485 313.219 304.677 313.219C303.313 313.219 302.099 312.885 301.037 312.219C299.974 311.552 299.138 310.604 298.529 309.375C297.92 308.146 297.615 306.687 297.615 305C297.615 303.312 297.92 301.854 298.529 300.625C299.138 299.396 299.974 298.448 301.037 297.781C302.099 297.115 303.313 296.781 304.677 296.781C305.485 296.781 306.243 296.898 306.951 297.133C307.664 297.367 308.308 297.711 308.881 298.164C309.453 298.612 309.933 299.159 310.318 299.805C310.703 300.445 310.969 301.177 311.115 302ZM315.18 305.781V313H313.336V297H315.18V302.875H315.336C315.617 302.255 316.039 301.763 316.601 301.398C317.169 301.029 317.924 300.844 318.867 300.844C319.685 300.844 320.401 301.008 321.015 301.336C321.63 301.659 322.107 302.156 322.445 302.828C322.789 303.495 322.961 304.344 322.961 305.375V313H321.117V305.5C321.117 304.547 320.87 303.81 320.375 303.289C319.885 302.763 319.206 302.5 318.336 302.5C317.732 302.5 317.19 302.628 316.711 302.883C316.237 303.138 315.862 303.51 315.586 304C315.315 304.49 315.18 305.083 315.18 305.781ZM329.205 313.281C328.445 313.281 327.755 313.138 327.135 312.852C326.515 312.56 326.023 312.141 325.658 311.594C325.294 311.042 325.111 310.375 325.111 309.594C325.111 308.906 325.247 308.349 325.518 307.922C325.788 307.49 326.15 307.151 326.604 306.906C327.057 306.661 327.557 306.479 328.104 306.359C328.656 306.234 329.21 306.135 329.768 306.063C330.497 305.969 331.088 305.898 331.541 305.852C331.999 305.799 332.333 305.714 332.541 305.594C332.755 305.474 332.861 305.266 332.861 304.969V304.906C332.861 304.135 332.65 303.536 332.229 303.109C331.812 302.682 331.179 302.469 330.33 302.469C329.45 302.469 328.76 302.661 328.26 303.047C327.76 303.432 327.408 303.844 327.205 304.281L325.455 303.656C325.768 302.927 326.184 302.359 326.705 301.953C327.231 301.542 327.804 301.255 328.424 301.094C329.049 300.927 329.663 300.844 330.268 300.844C330.653 300.844 331.096 300.891 331.596 300.984C332.101 301.073 332.588 301.258 333.057 301.539C333.531 301.82 333.924 302.245 334.236 302.812C334.549 303.38 334.705 304.141 334.705 305.094V313H332.861V311.375H332.768C332.643 311.635 332.434 311.914 332.143 312.211C331.851 312.508 331.463 312.76 330.979 312.969C330.494 313.177 329.903 313.281 329.205 313.281ZM329.486 311.625C330.215 311.625 330.83 311.482 331.33 311.195C331.835 310.909 332.215 310.539 332.471 310.086C332.731 309.633 332.861 309.156 332.861 308.656V306.969C332.783 307.062 332.611 307.148 332.346 307.227C332.085 307.299 331.783 307.365 331.439 307.422C331.101 307.474 330.77 307.521 330.447 307.562C330.13 307.599 329.872 307.63 329.674 307.656C329.195 307.719 328.747 307.82 328.33 307.961C327.919 308.096 327.585 308.302 327.33 308.578C327.08 308.849 326.955 309.219 326.955 309.687C326.955 310.328 327.192 310.812 327.666 311.141C328.145 311.464 328.752 311.625 329.486 311.625ZM339.129 308.625L339.098 306.344H339.473L344.723 301H347.004L341.41 306.656H341.254L339.129 308.625ZM337.41 313V297H339.254V313H337.41ZM345.035 313L340.348 307.062L341.66 305.781L347.379 313H345.035ZM348.717 313V301H350.498V302.812H350.623C350.842 302.219 351.238 301.737 351.811 301.367C352.384 300.997 353.03 300.812 353.748 300.812C353.884 300.812 354.053 300.815 354.256 300.82C354.459 300.826 354.613 300.833 354.717 300.844V302.719C354.655 302.703 354.511 302.68 354.287 302.648C354.069 302.612 353.837 302.594 353.592 302.594C353.009 302.594 352.488 302.716 352.03 302.961C351.576 303.201 351.217 303.534 350.951 303.961C350.691 304.383 350.561 304.865 350.561 305.406V313H348.717ZM359.774 313.281C359.013 313.281 358.323 313.138 357.704 312.852C357.084 312.56 356.592 312.141 356.227 311.594C355.862 311.042 355.68 310.375 355.68 309.594C355.68 308.906 355.816 308.349 356.086 307.922C356.357 307.49 356.719 307.151 357.172 306.906C357.625 306.661 358.125 306.479 358.672 306.359C359.224 306.234 359.779 306.135 360.336 306.063C361.066 305.969 361.657 305.898 362.11 305.852C362.568 305.799 362.901 305.714 363.11 305.594C363.323 305.474 363.43 305.266 363.43 304.969V304.906C363.43 304.135 363.219 303.536 362.797 303.109C362.381 302.682 361.748 302.469 360.899 302.469C360.019 302.469 359.329 302.661 358.829 303.047C358.329 303.432 357.977 303.844 357.774 304.281L356.024 303.656C356.336 302.927 356.753 302.359 357.274 301.953C357.8 301.542 358.373 301.255 358.993 301.094C359.618 300.927 360.232 300.844 360.836 300.844C361.222 300.844 361.665 300.891 362.165 300.984C362.67 301.073 363.157 301.258 363.625 301.539C364.099 301.82 364.493 302.245 364.805 302.812C365.118 303.38 365.274 304.141 365.274 305.094V313H363.43V311.375H363.336C363.211 311.635 363.003 311.914 362.711 312.211C362.42 312.508 362.032 312.76 361.547 312.969C361.063 313.177 360.472 313.281 359.774 313.281ZM360.055 311.625C360.784 311.625 361.399 311.482 361.899 311.195C362.404 310.909 362.784 310.539 363.04 310.086C363.3 309.633 363.43 309.156 363.43 308.656V306.969C363.352 307.062 363.18 307.148 362.915 307.227C362.654 307.299 362.352 307.365 362.008 307.422C361.67 307.474 361.339 307.521 361.016 307.562C360.698 307.599 360.441 307.63 360.243 307.656C359.763 307.719 359.316 307.82 358.899 307.961C358.487 308.096 358.154 308.302 357.899 308.578C357.649 308.849 357.524 309.219 357.524 309.687C357.524 310.328 357.761 310.812 358.235 311.141C358.714 311.464 359.321 311.625 360.055 311.625Z" fill="white"/>
</g>
<defs>
<linearGradient id="paint0_linear_1314_909" x1="349" y1="255.5" x2="349" y2="364.5" gradientUnits="userSpaceOnUse">
<stop stop-color="#0E0E0E" stop-opacity="0"/>
<stop offset="1" stop-color="#0E0E0E"/>
</linearGradient>
<linearGradient id="paint1_linear_1314_909" x1="349" y1="-6.65889e-06" x2="349" y2="65" gradientUnits="userSpaceOnUse">
<stop stop-color="#0E0E0E"/>
<stop offset="1" stop-color="#0E0E0E" stop-opacity="0"/>
</linearGradient>
</defs>
</svg>
