<svg width="638" height="111" viewBox="0 0 638 111" fill="none" xmlns="http://www.w3.org/2000/svg">
<rect width="518.135" height="110.66" rx="55.3298" fill="#0E0E0E"/>
<circle cx="54" cy="53.8301" r="47" fill="#A81312"/>
<path d="M161.689 76.9715C161.235 76.5006 159.787 75.4481 158.452 74.5895C155.328 72.5952 154.589 71.9028 154.021 70.4348L153.539 69.2161L152.317 69.41C150.755 69.6316 148.597 68.9945 146.382 67.6928C145.444 67.1111 143.911 66.4464 142.974 66.1971C141.27 65.7262 141.27 65.7262 141.355 64.7291C141.412 64.0089 141.326 63.6766 140.957 63.4827C140.531 63.2611 140.503 63.1226 140.815 62.7626C141.298 62.2086 140.957 60.6575 140.361 60.6575C139.594 60.6575 140.162 60.3529 141.014 60.2975C141.809 60.2421 141.838 60.159 142.008 58.4417C142.178 56.5306 142.69 55.3119 143.655 54.4533C144.252 53.927 144.252 53.8993 143.712 53.3454C142.519 52.0436 142.178 50.908 141.951 47.3627C141.838 45.4516 141.61 43.485 141.44 42.9865C141.128 41.9893 141.241 41.9063 143.258 41.2692C143.882 41.0753 145.53 40.3552 146.921 39.635C149.137 38.4994 149.648 38.361 151.437 38.3056L153.425 38.2502L153.794 37.2531C154.305 35.8128 155.356 34.8157 158.31 33.043C159.73 32.2121 161.263 31.1319 161.775 30.661L162.683 29.8301L163.763 30.7995C164.387 31.3257 165.921 32.3506 167.171 33.0984C169.925 34.6772 171.516 36.1728 171.771 37.3915L171.942 38.2779L174.072 38.3333C176.032 38.361 176.401 38.4717 178.616 39.6627C179.951 40.3552 181.768 41.1584 182.677 41.4077C184.41 41.9063 184.438 41.9339 184.012 43.0972C183.842 43.5127 183.614 45.4239 183.472 47.335C183.245 50.908 182.734 52.5421 181.598 53.4562C181.2 53.7885 181.229 53.8993 181.854 54.5364C182.791 55.4781 183.188 56.5583 183.416 58.5802C183.586 60.2144 183.614 60.2421 184.523 60.3252C185.262 60.4083 185.432 60.5468 185.432 61.073C185.432 61.4331 185.574 61.8208 185.716 61.9039C185.886 61.987 186 62.3748 186 62.7349C186 63.2611 185.801 63.3996 184.836 63.5658C183.927 63.732 183.728 63.8428 183.898 64.2029C184.41 65.4493 184.211 65.7262 182.365 66.2525C181.371 66.5571 179.979 67.1388 179.269 67.6096C177.31 68.8006 175.094 69.5208 173.39 69.5208C171.97 69.5208 171.857 69.5762 171.658 70.2686C171.317 71.5981 170.38 72.5398 167.909 74.0355C166.546 74.811 164.842 76.002 164.103 76.6668C163.365 77.3038 162.712 77.8301 162.655 77.8301C162.598 77.8301 162.172 77.4423 161.689 76.9715ZM163.422 74.7833C163.535 74.6172 164.728 73.7585 166.063 72.8722C168.761 71.0995 169.641 70.2963 169.954 69.2715C170.124 68.6899 170.096 68.6345 169.641 68.8007C169.329 68.9114 168.079 69.2715 166.858 69.5762C163.933 70.2963 159.701 70.1855 157.202 69.2992C156.265 68.9668 155.47 68.7453 155.385 68.8007C155.214 68.9668 155.896 70.1302 156.577 70.8503C156.89 71.2104 158.225 72.1244 159.474 72.8722C160.752 73.62 161.945 74.4233 162.144 74.6449C162.541 75.1157 163.166 75.1988 163.422 74.7833ZM165.154 67.8312C170.437 66.8895 175.435 62.4856 176.798 57.5C177.196 56.032 177.281 51.8774 176.94 50.6864C176.77 50.1325 176.685 50.354 176.514 51.7112C176.372 52.8745 175.946 54.1763 175.151 55.6997C172.453 60.9345 167.369 63.7874 161.462 63.3442C155.555 62.9287 150.329 58.0817 148.994 51.7943L148.597 49.994L148.37 51.0465C148.256 51.6558 148.228 53.3454 148.284 54.8134C148.398 56.9184 148.568 57.8324 149.136 59.0511C152.175 65.5323 158.537 68.9945 165.154 67.8312ZM151.125 65.3938C150.074 64.3967 148.796 62.8734 148.313 62.0424C147.376 60.436 146.24 57.1676 146.24 56.0874C146.24 55.1457 145.672 54.9242 145.104 55.6166C144.536 56.2813 144.081 58.4971 143.826 61.7931L143.627 64.1474L144.706 64.6183C145.331 64.8676 146.751 65.56 147.915 66.1694C149.96 67.2496 151.125 67.5543 152.403 67.3327C152.999 67.2496 152.857 67.028 151.125 65.3938ZM178.531 65.7539L181.712 64.2029L181.57 62.2086C181.257 57.5831 181.2 57.2785 180.462 56.1705C180.036 55.5612 179.667 55.118 179.61 55.1734C179.553 55.2288 179.298 56.1982 179.07 57.3338C178.417 60.3529 177.253 62.4302 174.782 64.9507C173.617 66.1417 172.652 67.2496 172.652 67.3881C172.652 68.0251 175.549 67.2219 178.531 65.7539ZM167.625 60.2975C172.311 58.2201 175.293 52.8745 174.441 48.0551C173.816 44.4821 172.283 42.6264 168.42 40.7706C166.517 39.8566 166.063 39.7458 163.535 39.6627C155.924 39.3581 151.068 43.485 151.068 50.2986C151.068 52.8745 151.778 54.758 153.567 56.9184C155.157 58.8572 156.606 59.882 158.736 60.6575C161.036 61.4885 165.325 61.3223 167.625 60.2975ZM146.126 51.8774C147.092 47.5289 148.54 44.8145 151.153 42.294C153.255 40.2998 153.255 39.9397 151.125 40.2444C150.102 40.4106 143.684 43.4019 143.684 43.7343C143.684 43.8174 143.826 45.3131 143.968 47.0303C144.308 51.1573 145.615 54.0655 146.126 51.8774ZM180.604 51.462C181.115 50.631 181.257 49.6616 181.57 45.23C181.655 43.762 181.598 43.208 181.371 43.208C181.172 43.208 179.638 42.5156 177.963 41.6847C175.776 40.6045 174.555 40.1613 173.76 40.1613C173.163 40.1613 172.652 40.2444 172.652 40.3275C172.652 40.4106 173.561 41.4354 174.64 42.5987C176.884 44.9253 178.616 48.0551 179.184 50.7695C179.354 51.6281 179.638 52.3483 179.78 52.3483C179.922 52.3483 180.292 51.9605 180.604 51.462ZM157.145 38.4994C160.525 37.3361 164.955 37.2808 168.079 38.3333C169.67 38.8872 169.812 38.8872 169.812 38.2225C169.812 37.3638 168.505 36.2005 165.41 34.3448C163.166 32.9876 162.485 32.7107 162.144 32.9322C161.917 33.1261 161.349 33.4585 160.923 33.7355C156.975 36.0621 155.896 37.0038 155.47 38.4441C155.243 39.1919 155.129 39.1642 157.145 38.4994Z" fill="#919191"/>
<path d="M247.736 77.526C247.736 77.3877 247.623 77.3324 247.453 77.4154C247.311 77.4983 247.169 77.4707 247.169 77.3324C247.169 77.1665 246.203 76.3371 245.039 75.4801C243.875 74.5954 242.91 73.7936 242.91 73.7107C242.91 73.6277 242.654 73.2407 242.37 72.8536C241.916 72.3007 241.746 72.2454 241.377 72.5495C241.093 72.7707 239.758 72.9642 237.885 73.0748C235.982 73.1577 235.045 73.296 235.386 73.4342C236.266 73.766 235.443 73.7107 234.449 73.3789C233.938 73.213 233.597 72.9642 233.683 72.8536C233.768 72.743 233.541 71.7754 233.2 70.7248C232.859 69.7019 232.462 68.043 232.291 67.0754L231.979 65.3059L230.673 64.8636C229.992 64.6148 228.97 64.0895 228.43 63.7024C227.209 62.7901 225.591 61.9883 225.591 62.2648C225.591 62.403 225.449 62.2924 225.307 62.0713C224.938 61.4354 227.153 55.3254 227.947 54.8277C228.146 54.7172 228.004 54.1642 227.522 53.3072C227.124 52.5883 226.528 51.1507 226.159 50.1277C225.818 49.1048 225.421 48.1924 225.279 48.1095C224.711 47.7501 225.052 46.8654 225.932 46.423C226.443 46.1742 227.493 45.483 228.288 44.9024C229.055 44.3495 230.247 43.7136 230.929 43.5201C232.036 43.216 232.121 43.1054 232.121 42.193C232.121 41.0318 233.484 36.083 233.938 35.6407C234.25 35.3366 239.645 35.5577 241.263 35.9448C241.859 36.1107 242.03 36.0277 242.172 35.5854C242.285 35.2812 242.711 34.8113 243.137 34.5348C243.563 34.286 244.841 33.3183 245.976 32.4336L248.02 30.8301L250.746 32.9312C252.222 34.0924 253.585 35.3365 253.784 35.7236C254.011 36.2489 254.238 36.3595 254.664 36.2213C255.005 36.1107 256.226 35.9171 257.39 35.8065C258.554 35.6683 260.03 35.5024 260.683 35.3918C261.478 35.2813 261.932 35.3365 262.131 35.5854C262.642 36.2489 263.92 40.9213 263.92 42.1101C263.92 43.133 263.976 43.2713 264.601 43.2713C264.942 43.2713 265.68 43.5754 266.219 43.9348C268.576 45.5936 270.478 46.8377 270.79 46.9483C271.074 47.0313 271.074 47.2524 270.762 47.9989C270.563 48.5242 270.024 49.8513 269.598 50.9848C269.144 52.0907 268.519 53.2795 268.207 53.6113L267.611 54.2195L268.32 55.1595C268.718 55.6848 269.314 56.9289 269.655 57.9795C269.996 59.0024 270.336 59.7766 270.421 59.7213C270.507 59.666 270.592 59.9148 270.62 60.2189C270.62 60.5507 270.734 61.0207 270.847 61.2418C270.989 61.5736 270.393 62.0713 268.491 63.2601C267.1 64.1172 265.481 65.0019 264.885 65.1954C263.863 65.5548 263.806 65.6377 263.749 66.8819C263.693 67.6283 263.409 68.9554 263.068 69.8401C262.756 70.7524 262.5 71.9136 262.5 72.4389V73.3789L261.166 73.2683C260.399 73.1854 258.809 73.0748 257.588 72.9918C256.368 72.9366 255.118 72.7154 254.778 72.5495C254.267 72.273 254.096 72.3283 253.67 72.8812C253.017 73.683 252.961 74.153 253.557 73.683C253.926 73.3789 253.954 73.4066 253.812 73.766C253.727 73.9872 253.472 74.2636 253.244 74.3466C252.989 74.4295 252.904 74.3742 252.989 74.236C253.074 74.0701 253.046 73.9595 252.875 73.9595C252.733 73.9595 252.563 74.0701 252.506 74.1807C252.393 74.4572 248.134 77.8301 247.907 77.8301C247.822 77.8301 247.736 77.6919 247.736 77.526ZM249.042 74.4572C250.576 73.3513 252.279 71.6371 252.279 71.1948C252.279 70.8354 251.683 70.7801 248.02 70.8077C245.692 70.8077 243.676 70.8907 243.591 71.0013C243.336 71.2501 247.367 75.0654 247.85 75.0654C248.077 75.0654 248.588 74.7889 249.042 74.4572ZM240.837 70.6695C241.888 70.393 241.661 70.006 239.872 68.983C238.907 68.4577 237.374 67.3519 236.437 66.5777C235.5 65.776 234.648 65.1124 234.563 65.1124C233.995 65.1124 234.676 69.4807 235.414 70.5866C235.812 71.1948 235.954 71.1948 238.027 71.0289C239.219 70.9183 240.497 70.7524 240.837 70.6695ZM260.314 70.7801C260.825 70.3101 261.535 68.2642 261.79 66.5777C262.046 65.0019 261.648 65.0295 259.519 66.7989C258.61 67.573 257.162 68.5959 256.339 69.0383C255.516 69.4807 254.834 69.9783 254.834 70.0889C254.834 70.2271 255.26 70.4483 255.771 70.6142C257.872 71.2501 259.775 71.333 260.314 70.7801ZM245.834 67.6836C245.408 66.9372 244.528 65.5548 243.904 64.5595C243.279 63.5642 242.37 62.1542 241.945 61.3801C239.531 57.2883 234.563 49.1601 234.25 48.8283C233.938 48.5242 233.768 48.9113 233.285 50.9572C232.575 53.8601 232.547 54.9107 233.115 57.4542C234.222 62.5966 238.736 67.1583 244.074 68.5407C246.658 69.2319 246.743 69.1766 245.834 67.6836ZM252.677 68.2918C256.169 67.4071 259.86 64.3936 261.506 61.1312C263.323 57.5371 263.693 54.9107 262.954 51.2059C262.585 49.2707 262.216 48.6071 261.705 48.9113C261.535 48.9942 260.797 50.183 260.03 51.5101C255.913 58.6154 251.768 65.5824 250.065 68.0983C249.695 68.6789 249.695 68.7066 250.348 68.7066C250.718 68.7066 251.768 68.513 252.677 68.2918ZM251.342 62.3477C252.733 59.9977 255.175 55.906 256.765 53.2518C258.355 50.5977 259.661 48.3307 259.661 48.2201C259.661 48.0819 254.409 47.9713 247.992 47.9713H236.351L237.828 50.6807C238.651 52.146 240.497 55.2977 241.916 57.6477C243.364 59.9977 245.266 63.2048 246.175 64.7807C247.765 67.5177 247.85 67.6283 248.304 67.1307C248.588 66.8542 249.951 64.6977 251.342 62.3477ZM232.519 61.6013C231.979 60.5507 231.326 58.8089 231.042 57.7307C230.787 56.6248 230.418 55.7124 230.219 55.7124C229.821 55.7124 228.231 58.7812 227.976 60.0254C227.834 60.7995 227.947 60.9654 229.339 61.9883C231.099 63.2601 231.383 63.3983 232.604 63.426L233.484 63.4536L232.519 61.6013ZM266.219 62.2924C267.213 61.6566 268.122 61.0207 268.235 60.8548C268.604 60.3295 266.39 55.6018 265.85 55.7677C265.68 55.823 265.282 56.8736 264.999 58.0624C264.715 59.2789 264.09 60.9101 263.636 61.7118C263.153 62.5136 262.784 63.2324 262.784 63.3154C262.784 63.3983 263.153 63.4536 263.607 63.4536C264.09 63.4536 265.169 62.9836 266.219 62.2924ZM230.418 53.1136C230.418 52.5054 232.291 47.1419 232.717 46.5613C233.768 45.096 233.172 44.8195 230.985 45.7871C229.197 46.5612 227.862 47.6395 227.862 48.2477C227.862 48.9113 229.168 52.3395 229.594 52.8648C229.906 53.1965 230.418 53.3624 230.418 53.1136ZM267.753 50.0448L268.519 48.1095L267.469 47.2248C266.191 46.1742 264.289 45.2065 263.409 45.2065C262.642 45.2065 262.642 45.2065 263.522 46.893C263.92 47.6671 264.488 49.243 264.8 50.4042C265.084 51.593 265.424 52.6989 265.481 52.9201C265.765 53.6113 266.901 52.146 267.753 50.0448ZM260.229 45.8148C260.229 45.3171 257.645 42.9395 255.885 41.8059C251.626 39.0412 245.153 38.9583 240.553 41.5295C239.134 42.3589 235.812 45.3724 235.812 45.8701C235.812 46.0913 239.645 46.1742 248.02 46.1742C257.815 46.1742 260.229 46.1189 260.229 45.8148ZM261.648 42.2483C261.648 41.0319 261.024 38.1566 260.711 37.8248C260.626 37.7695 259.689 37.6865 258.61 37.6589C256.793 37.6312 254.55 38.1013 254.55 38.516C254.55 38.6266 255.26 39.0689 256.14 39.5113C256.992 39.9536 258.44 41.0318 259.32 41.9165C260.2 42.7736 261.109 43.5201 261.308 43.5201C261.535 43.5477 261.648 43.1054 261.648 42.2483ZM236.749 41.723C237.686 40.866 239.134 39.8707 239.957 39.4559C242.512 38.2395 241.888 37.7418 237.885 37.7418C235.187 37.7418 235.216 37.7142 234.534 40.5895C234.108 42.3589 234.194 43.2713 234.733 43.2713C234.903 43.2713 235.784 42.5801 236.749 41.723ZM252.251 37.576C252.932 36.9677 248.73 33.4289 247.736 33.733C246.941 33.9818 243.364 37.3548 243.563 37.6589C243.705 37.9077 251.995 37.8248 252.251 37.576Z" fill="#919191"/>
<path d="M331.262 75.3185C329.027 73.1975 328.58 72.8626 328.105 73.1138C327.546 73.4208 323.02 74.4533 322.237 74.4812C321.93 74.4812 321.735 74.2859 321.735 73.9789C321.735 73.6998 321.427 72.5278 321.036 71.4115C320.645 70.2952 320.338 69.0673 320.338 68.7045C320.338 67.9231 320.03 67.7557 316.286 66.7789C314.75 66.3882 313.464 66.0254 313.409 65.9696C313.297 65.858 314.414 60.4161 314.722 59.6068C314.945 59.0487 314.666 58.658 312.487 56.4254L310 53.858L312.487 51.2906C314.582 49.1696 314.973 48.6394 314.722 48.2208C314.442 47.6906 313.269 42.0812 313.409 41.9696C313.744 41.6905 318.745 40.1557 319.304 40.1557C319.891 40.1557 320.058 39.9882 320.198 39.2347C320.282 38.7603 320.757 37.1696 321.232 35.7463C321.902 33.6812 322.154 33.1789 322.517 33.2906C322.796 33.3743 323.746 33.5696 324.668 33.7371C325.59 33.8766 326.959 34.2115 327.714 34.4626C329.027 34.9091 329.083 34.9092 329.362 34.4068C329.53 34.0999 330.228 33.3743 330.927 32.7603C331.625 32.1464 332.631 31.2254 333.134 30.751L334.084 29.8301L335.648 31.3092C336.515 32.0906 337.66 33.2068 338.219 33.7929L339.197 34.7975L341.572 34.1836C342.885 33.8208 344.393 33.458 344.98 33.3464L345.986 33.151L346.852 35.7463C347.299 37.1696 347.718 38.7324 347.774 39.1789C347.858 39.9603 347.942 40.0161 349.255 40.1836C350.037 40.2952 351.211 40.6301 351.909 40.965C352.608 41.2719 353.446 41.551 353.809 41.551C354.144 41.551 354.508 41.7185 354.563 41.9138C354.759 42.3603 353.753 47.4115 353.334 48.1929C353.027 48.751 353.111 48.8905 353.837 49.5045C354.284 49.8952 355.402 51.0673 356.324 52.0999L358 53.9975L355.653 56.4812L353.306 58.965L354.005 62.4533C354.815 66.5278 354.787 66.1091 354.368 66.1091C354.172 66.1091 352.664 66.4998 351.015 67.0022L348.026 67.8952L347.718 69.3185C347.215 71.8022 346.126 74.6208 345.735 74.565C343.444 74.1464 341.236 73.6719 340.314 73.3929L339.197 73.058L336.682 75.458C335.313 76.7696 334.112 77.8301 334.028 77.8301C333.944 77.8301 332.715 76.7138 331.262 75.3185ZM334.894 74.4533C335.844 73.7836 337.716 71.4394 337.52 71.1324C337.464 71.0208 336.598 71.0487 335.648 71.1882C334.671 71.3277 333.162 71.3557 332.296 71.2719C331.178 71.1603 330.675 71.2161 330.675 71.4115C330.675 71.7185 333.693 75.0394 333.944 75.0394C334.028 75.0394 334.447 74.7882 334.894 74.4533ZM326.456 71.6068C327.462 71.2719 328.3 70.8812 328.356 70.7138C328.44 70.4626 322.293 67.1417 322.098 67.3371C321.986 67.4487 323.104 71.1045 323.439 71.7743C323.774 72.3882 324.277 72.3603 326.456 71.6068ZM345.204 70.658C346.517 67.1138 346.237 66.6952 343.723 68.3138C342.773 68.9557 341.46 69.6812 340.817 69.9045C340.147 70.1557 339.616 70.4626 339.616 70.6022C339.616 70.7138 340.286 71.0487 341.097 71.3557C341.879 71.6627 342.745 71.9696 342.969 72.0533C344.226 72.4999 344.589 72.2766 345.204 70.658ZM331.653 67.4487C331.206 66.6394 330.452 65.2161 329.949 64.2952L329.055 62.6208L326.428 62.537C325.003 62.5091 323.327 62.565 322.712 62.7045L321.623 62.9277L323.579 64.9371C325.786 67.1417 327.49 68.0906 330.424 68.7045C331.402 68.9278 332.268 69.0394 332.324 68.9836C332.38 68.9557 332.072 68.2301 331.653 67.4487ZM338.806 68.4533C339.644 68.2022 340.873 67.6998 341.572 67.2812C343.052 66.444 346.321 63.4022 346.321 62.844C346.321 62.4254 343.946 62.3417 340.65 62.6766L338.778 62.844L337.632 65.1045C336.99 66.3603 336.291 67.6161 336.095 67.9231C335.872 68.2301 335.704 68.565 335.704 68.6766C335.704 69.0394 337.185 68.9278 338.806 68.4533ZM335.285 65.1882C335.9 64.0998 336.431 63.0115 336.487 62.844C336.57 62.565 335.928 62.4812 334.028 62.4812C332.128 62.4812 331.485 62.565 331.569 62.844C331.709 63.3464 333.86 67.2254 334.028 67.2254C334.112 67.2254 334.671 66.3045 335.285 65.1882ZM320.086 64.3231C319.611 63.6533 318.773 62.2022 318.242 61.1138C317.683 60.0254 317.125 59.1882 317.013 59.2719C316.761 59.4115 315.728 64.3789 315.895 64.5464C316.203 64.8533 320.757 65.9975 320.841 65.8022C320.896 65.6626 320.561 65.0208 320.086 64.3231ZM349.926 65.1324C352.524 64.2952 352.496 64.351 351.63 61.5324C351.015 59.551 350.4 59.1324 350.093 60.5278C350.009 60.9743 349.423 62.0906 348.836 62.9836C347.383 65.272 347.076 65.8301 347.411 65.8301C347.579 65.8301 348.696 65.5231 349.926 65.1324ZM327.602 60.4161C327.602 59.858 325.534 56.2859 325.227 56.2859C324.976 56.258 322.88 59.858 322.852 60.3045C322.852 60.5556 323.97 60.7231 326.009 60.7789C327.211 60.8068 327.602 60.7231 327.602 60.4161ZM337.8 60.5836C337.967 60.4719 338.889 58.9371 339.867 57.1789L341.627 53.9696L340.566 52.0161C339.979 50.9557 339.085 49.3929 338.582 48.6115L337.632 47.1324H334.028H330.424L329.39 48.751C328.831 49.6161 327.909 51.151 327.378 52.0999L326.4 53.8859L327.602 56.1464C329.921 60.5278 329.893 60.4999 331.709 60.6115C334.866 60.8068 337.52 60.8068 337.8 60.5836ZM344.449 60.5278H345.511L344.589 58.9091C342.745 55.6719 342.997 55.7278 341.627 58.0999C340.985 59.244 340.454 60.3324 340.454 60.5278C340.454 60.8068 340.845 60.8347 341.935 60.6952C342.717 60.6115 343.863 60.5278 344.449 60.5278ZM321.399 58.5185C321.874 57.5417 322.629 56.1464 323.076 55.365L323.914 53.9696L322.21 50.844C321.26 49.1138 320.366 47.7464 320.198 47.8022C319.807 47.9138 318.941 50.9278 318.773 52.8533C318.661 53.9138 318.773 55.1975 319.052 56.3975C319.499 58.2952 320.198 60.2487 320.449 60.2487C320.505 60.2487 320.952 59.4673 321.399 58.5185ZM348.389 59.0766C349.171 57.0673 349.534 53.7743 349.171 51.7929C348.836 49.9789 348.026 47.6905 347.746 47.6905C347.634 47.6905 346.796 49.0859 345.846 50.7882L344.114 53.9138L345.092 55.6161C345.623 56.565 346.405 57.9882 346.796 58.7975C347.215 59.5789 347.634 60.2487 347.746 60.2487C347.83 60.2487 348.137 59.7185 348.389 59.0766ZM316.817 53.8301C316.789 51.9882 316.733 50.4254 316.65 50.3417C316.594 50.2859 315.7 51.0673 314.666 52.0999L312.766 53.9975L314.442 55.5882C315.364 56.4533 316.258 57.1789 316.482 57.1789C316.761 57.1789 316.845 56.4254 316.817 53.8301ZM353.697 55.4766L355.402 53.8022L353.669 52.1278C352.747 51.2347 351.797 50.4812 351.574 50.4812C351.295 50.4812 351.211 51.2068 351.211 53.8301C351.211 56.5371 351.295 57.1789 351.602 57.1789C351.825 57.1789 352.775 56.4254 353.697 55.4766ZM326.764 49.3092L327.937 47.1324H325.227C323.746 47.1324 322.573 47.2161 322.629 47.3557C323.271 48.7789 325.199 51.8487 325.367 51.6813C325.478 51.5696 326.121 50.4813 326.764 49.3092ZM344.198 49.644C344.896 48.4161 345.483 47.3277 345.483 47.1882C345.483 46.9929 340.454 47.0766 340.231 47.2719C340.175 47.3278 342.745 51.8487 342.857 51.8766C342.885 51.8766 343.471 50.8719 344.198 49.644ZM317.627 47.6347C317.823 47.272 318.661 45.8766 319.471 44.537C320.282 43.1696 320.896 41.9975 320.813 41.9417C320.729 41.858 319.639 42.0533 318.382 42.3603C317.097 42.6952 316.035 42.9464 315.979 42.9464C315.728 42.9464 315.895 44.4812 316.314 46.3231C316.538 47.3836 316.873 48.2487 317.013 48.2487C317.152 48.2487 317.432 47.9696 317.627 47.6347ZM351.602 46.2115C352.524 43.3091 352.468 43.2254 349.814 42.6394C348.612 42.3603 347.523 42.1929 347.411 42.2766C347.299 42.3324 347.774 43.2254 348.473 44.258C349.171 45.2905 349.925 46.6022 350.149 47.1882C350.373 47.7743 350.652 48.2487 350.764 48.2487C350.875 48.2487 351.267 47.3277 351.602 46.2115ZM330.843 41.9696C331.821 40.2952 332.491 38.844 332.324 38.8161C331.625 38.5649 327.825 39.7091 326.289 40.6301C324.305 41.8022 321.567 44.4254 321.874 44.8719C321.986 45.0952 323.187 45.1789 325.562 45.1231L329.055 45.0394L330.843 41.9696ZM335.369 42.8347C334.726 41.5231 334.084 40.5464 333.972 40.6022C333.776 40.7138 332.128 43.7278 331.569 44.9836C331.513 45.0952 332.603 45.1789 334 45.1789H336.542L335.369 42.8347ZM346.349 44.6487C345.79 43.644 342.689 41.0208 341.153 40.2952C339.728 39.6254 335.704 38.4533 335.481 38.6487C335.341 38.7324 335.732 39.458 337.576 42.6115L339.085 45.1789H342.857C346.433 45.1789 346.601 45.151 346.349 44.6487ZM324.333 39.5417C325.395 38.8999 326.652 38.1743 327.127 37.951C328.44 37.2812 328.356 36.8905 326.736 36.4161C324.445 35.7184 323.467 35.8022 323.104 36.7231C322.657 37.9231 322.042 40.7138 322.237 40.7138C322.321 40.7138 323.271 40.1836 324.333 39.5417ZM345.763 40.2673C345.763 39.458 344.868 35.9696 344.617 35.8301C344.226 35.5789 339.895 36.7789 339.895 37.1138C339.895 37.2533 340.482 37.6719 341.236 38.0347C341.963 38.4254 343.192 39.151 343.946 39.7092C345.539 40.8254 345.763 40.8812 345.763 40.2673ZM337.66 36.3882C337.66 35.8859 334.615 32.8998 334.084 32.8998C333.888 32.8998 332.938 33.6813 331.988 34.658L330.256 36.3882L332.771 36.5557C337.548 36.8347 337.66 36.8347 337.66 36.3882Z" fill="#919191"/>
<path d="M417.239 75.7915L415.305 73.7813L412.962 74.8572C411.682 75.4518 410.565 75.8765 410.538 75.8198C410.484 75.7632 410.021 74.6307 409.503 73.3L408.55 70.8933H405.989H403.401L403.374 68.062L403.347 65.2307L400.977 64.4379C398.226 63.5036 398.335 63.815 399.669 60.2192L400.459 58.0674L398.743 56.2837C397.79 55.2927 397 54.3584 397 54.1885C397 54.0469 397.79 53.1409 398.771 52.2066L400.541 50.5078L399.588 47.9596C399.07 46.5722 398.662 45.2982 398.743 45.1283C398.798 44.9867 399.751 44.5337 400.841 44.1656C401.958 43.7692 402.966 43.3729 403.102 43.2596C403.238 43.118 403.374 41.7873 403.374 40.2584L403.401 37.4837L406.016 37.597L408.631 37.6819L409.503 35.2469C409.993 33.9162 410.511 32.7554 410.647 32.6421C410.811 32.5572 411.846 32.9253 412.99 33.4915C414.107 34.0578 415.169 34.5108 415.36 34.5108C415.523 34.5108 416.476 33.6897 417.43 32.6704C418.383 31.6512 419.337 30.8301 419.527 30.8301C419.691 30.8301 420.508 31.6512 421.298 32.6421C422.088 33.6614 422.878 34.4825 423.014 34.4825C423.177 34.5108 424.321 34.0578 425.574 33.5198C426.827 32.9536 427.944 32.5855 428.026 32.6704C428.108 32.7837 428.625 33.8879 429.17 35.162L430.123 37.4837L432.711 37.512H435.272L435.408 40.3433L435.544 43.1463L437.723 44.0524C440.257 45.0999 440.257 45.0716 439.058 48.4126L438.268 50.5927L440.148 52.3765L442 54.1885L440.175 56.2554L438.323 58.3222L439.194 60.5873C439.657 61.8331 440.039 63.0506 440.039 63.2488C440.039 63.5036 439.194 63.9283 437.723 64.3813L435.435 65.1174L435.354 68.0054L435.272 70.8933H432.711H430.151L429.197 73.3849C428.462 75.2253 428.108 75.8481 427.781 75.7632C427.563 75.6783 426.419 75.197 425.22 74.6873L423.096 73.7247L421.271 75.7915C420.29 76.9241 419.418 77.8301 419.337 77.8301C419.255 77.8301 418.329 76.9241 417.239 75.7915ZM420.753 73.3849C421.298 72.6488 421.706 71.9692 421.625 71.8277C421.38 71.4313 416.885 71.5445 416.885 71.9409C416.885 72.3656 419.064 74.7156 419.473 74.7156C419.609 74.6873 420.208 74.0927 420.753 73.3849ZM413.834 72.224C414.488 71.856 414.978 71.4313 414.924 71.2614C414.788 70.865 410.702 69.4494 410.456 69.7042C410.266 69.9024 411.056 72.3373 411.492 72.9319C411.764 73.2999 412.036 73.215 413.834 72.224ZM427.672 71.4596C427.944 70.6102 428.081 69.8174 427.972 69.7325C427.754 69.4777 423.886 71.0915 423.777 71.4879C423.668 71.7993 426.664 73.3 427.018 73.1018C427.127 73.0452 427.427 72.309 427.672 71.4596ZM415.496 65.4855C410.429 56.0572 406.153 48.6674 405.771 48.6674C405.39 48.6674 404.627 52.7445 404.627 54.6415C404.627 56.8216 405.254 59.3132 406.316 61.5217C407.269 63.5036 409.884 66.3066 411.818 67.4957C413.289 68.3735 417.239 69.7042 417.375 69.3361C417.403 69.2228 416.558 67.4957 415.496 65.4855ZM422.905 69.1662C425.139 68.4867 428.462 66.5897 429.715 65.259C433.419 61.465 434.918 56.1988 433.801 50.9042C433.12 47.6482 433.202 47.5915 428.87 55.2078C422.66 66.1084 420.971 69.1379 420.971 69.3927C420.971 69.7042 421.216 69.6759 422.905 69.1662ZM408.686 68.6C408.958 68.515 408.577 67.9488 407.487 66.7879C406.588 65.8536 405.798 65.0891 405.689 65.0891C405.472 65.0891 405.117 68.4584 405.308 68.7981C405.444 68.9963 407.841 68.8831 408.686 68.6ZM433.447 67.3825C433.556 65.3156 433.419 65.0042 432.602 65.4006C431.894 65.7403 429.96 67.9771 429.96 68.4584C429.96 68.7698 431.05 68.9963 432.412 68.9397L433.365 68.9114L433.447 67.3825ZM421.025 65.0325C421.87 63.4186 422.524 62.0879 422.496 62.0596C422.442 62.003 422.033 62.1162 421.543 62.2861C420.644 62.6259 417.157 62.5126 416.258 62.1162C415.904 61.9747 416.041 62.371 416.776 63.7018C418.084 66.1367 419.173 67.9204 419.337 67.9204C419.418 67.9204 420.181 66.618 421.025 65.0325ZM404.627 63.1072C404.627 62.7108 403.238 59.0584 402.966 58.7469C402.748 58.5204 401.522 60.8988 401.304 61.9463C401.249 62.2295 401.712 62.5126 402.72 62.8524C404.518 63.4469 404.627 63.4753 404.627 63.1072ZM436.443 62.7674C437.07 62.5976 437.587 62.3427 437.587 62.2012C437.587 61.8331 436.28 59.2 436.007 59.0301C435.817 58.9168 434.046 62.5975 434.046 63.1638C434.046 63.3337 434.509 63.2771 436.443 62.7674ZM421.87 60.106C424.458 58.747 425.602 56.9066 425.602 54.1319C425.574 51.1873 423.64 48.5825 420.889 47.7897C418.737 47.1668 415.632 48.356 414.243 50.3096C413.071 51.9801 412.717 54.8397 413.453 56.6801C413.943 57.9259 415.387 59.3981 416.749 60.021C418.138 60.6722 420.699 60.7289 421.87 60.106ZM402.72 54.3301C402.72 51.6403 402.53 51.5271 400.786 53.1975L399.588 54.3301L400.814 55.4626C402.584 57.0765 402.72 56.9915 402.72 54.3301ZM437.969 55.5476C438.622 54.953 439.194 54.3867 439.194 54.3018C439.222 53.9903 436.688 52.0367 436.389 52.15C436.062 52.2632 435.817 55.5475 436.062 56.1987C436.28 56.7933 436.634 56.6801 437.969 55.5476ZM412.908 49.0638C413.453 48.3277 413.889 47.6199 413.889 47.4783C413.889 47.365 412.554 47.2518 410.892 47.2518C409.258 47.2518 407.896 47.365 407.896 47.5066C407.896 47.6482 408.604 48.9789 409.449 50.5078L411.001 53.2825L411.437 51.8385C411.709 51.0174 412.336 49.7717 412.908 49.0638ZM428.625 52.0084C428.952 51.3289 429.633 50.1114 430.123 49.2903C430.641 48.4692 431.05 47.6765 431.05 47.5349C431.05 47.365 429.742 47.2518 427.781 47.2518C425.983 47.2518 424.512 47.3367 424.512 47.4216C424.512 47.5066 424.812 47.8463 425.166 48.1295C425.901 48.724 427.508 51.8668 427.508 52.6879C427.508 53.5656 428.026 53.2542 428.625 52.0084ZM404.055 47.6765C404.573 46.5156 404.9 45.468 404.818 45.3831C404.627 45.1849 401.576 45.8361 401.249 46.1475C400.841 46.5439 402.475 50.2813 402.938 49.9698C403.047 49.9132 403.565 48.8656 404.055 47.6765ZM436.879 48.2144C437.288 47.3367 437.56 46.459 437.505 46.2608C437.369 45.921 435.544 45.2698 434.618 45.2698C434.318 45.2698 434.046 45.4114 434.046 45.6096C434.046 46.2891 435.544 49.8 435.844 49.8C436.034 49.8 436.498 49.0921 436.879 48.2144ZM425.547 45.2981C428.571 45.2698 431.05 45.1566 431.05 45.0433C431.05 44.562 428.435 42.0421 426.882 40.9945C422.823 38.2482 417.13 38.0783 412.69 40.5415C411.137 41.3909 407.623 44.5054 407.623 45.015C407.623 45.2698 412.69 45.468 417.294 45.3831C418.792 45.3548 422.496 45.3265 425.547 45.2981ZM407.46 41.9572C408.304 41.1644 408.985 40.3716 408.985 40.2301C408.985 39.9186 407.678 39.6072 406.234 39.6072C405.308 39.6072 405.172 39.6921 405.172 40.2867C405.172 41.5325 405.526 43.5994 405.717 43.5144C405.826 43.4578 406.616 42.7783 407.46 41.9572ZM433.229 42.665C433.229 42.1554 433.311 41.2494 433.392 40.6831L433.583 39.6072H432.384C431.022 39.6072 429.96 39.862 429.96 40.1451C429.96 40.4566 432.711 43.571 432.984 43.571C433.12 43.571 433.229 43.1464 433.229 42.665ZM412.908 38.05C414.052 37.512 414.978 37.0024 414.978 36.9174C414.978 36.6909 412.309 35.3602 411.873 35.3602C411.492 35.3602 411.11 36.2945 410.756 38.1349C410.647 38.6162 410.62 39.0409 410.702 39.0409C410.756 39.0409 411.764 38.5879 412.908 38.05ZM428.189 38.418C427.699 36.5777 427.1 35.0771 426.882 35.0771C426.473 35.0771 423.967 36.5493 423.967 36.8042C423.967 37.1156 424.376 37.3704 426.283 38.2198C428.326 39.1825 428.407 39.1825 428.189 38.418ZM421.38 36.0114C420.78 35.0204 419.582 33.6614 419.309 33.6614C419.091 33.6614 417.157 36.3229 417.157 36.606C417.157 36.6909 418.22 36.7759 419.5 36.7759H421.843L421.38 36.0114Z" fill="#919191"/>
<path d="M52.8999 77.4494C52.3247 76.8814 50.4265 75.717 48.3558 74.6947C43.5815 72.3375 41.971 70.7188 41.482 67.8789C41.2807 66.7713 41.2232 66.7145 39.8139 66.4021C37.1105 65.8058 35.4136 64.329 33.803 61.1483C33.3716 60.2963 32.9402 59.5296 32.8251 59.4444C32.7389 59.3592 32.3362 58.5924 31.9336 57.7404C31.5309 56.8884 30.7256 55.6389 30.1217 54.9857L29 53.7929L30.3517 52.1458C31.0995 51.237 32.1061 49.6751 32.5663 48.6527C33.0552 47.6303 33.7455 46.2104 34.0906 45.5004C34.4645 44.762 34.7233 43.8816 34.6371 43.5124C34.5508 42.9729 34.5508 42.9445 34.7521 43.3421C34.9534 43.8248 35.0109 43.8248 35.6724 43.2285C37.0817 42.0073 38.9224 41.0133 40.1303 40.8145C41.3095 40.6441 41.367 40.5873 41.5396 39.4798C41.7984 37.9462 42.9201 36.0719 44.0992 35.1915C44.5882 34.8223 46.5726 33.7431 48.4708 32.806C50.6854 31.7268 52.3247 30.676 53.0437 29.966L54.1366 28.8301L55.9198 30.2785C56.9552 31.1588 58.6233 32.1528 59.975 32.7492C64.7205 34.7371 66.3886 36.2707 67.0788 39.2242C67.4815 40.7861 67.4239 40.7577 69.6385 41.1269C70.2712 41.2121 71.2491 41.7801 72.342 42.6889C73.2911 43.484 74.1539 44.1088 74.2689 44.1088C74.384 44.1088 74.499 44.2792 74.499 44.478C74.499 44.904 75.9083 48.3687 76.7423 49.9874C77.0875 50.6122 77.864 51.6914 78.5255 52.373C79.1582 53.0545 79.6759 53.6509 79.6759 53.7077C79.6759 53.7645 79.1007 54.4745 78.3817 55.2981C77.6914 56.1217 76.4547 58.138 75.6782 59.8136C73.6074 64.2154 71.4792 66.2317 68.4881 66.7145C67.3664 66.8849 67.3089 66.9701 67.3089 67.8505C67.3089 70.1224 64.8355 72.5931 60.4639 74.6663C58.652 75.5183 56.6675 76.711 55.9773 77.3358C55.287 77.9606 54.5393 78.4718 54.3092 78.4718C54.0791 78.4718 53.4464 78.0174 52.8999 77.4494ZM55.5747 75.0071C55.9773 74.7231 57.7604 73.7859 59.4861 72.9339C63.2249 71.1164 64.6342 70.0088 64.893 68.6741C65.1806 67.1405 64.9506 67.0553 63.4262 68.1345C61.6143 69.4124 60.4927 69.8668 58.0193 70.4064C53.2451 71.4004 48.4133 70.4632 44.8758 67.8221C43.6678 66.9417 43.4953 67.2541 44.1568 68.9865C44.732 70.4632 45.7098 71.2016 49.9088 73.3031C51.4907 74.0983 53.1013 75.0071 53.5039 75.3195C54.2229 75.8875 54.2804 75.8875 55.5747 75.0071ZM59.4285 68.0209C60.2338 67.7369 61.2117 67.2541 61.5856 66.9985C62.2183 66.5725 61.7869 66.5441 54.568 66.5441C50.3403 66.5441 46.889 66.6293 46.889 66.7145C46.889 66.9133 49.3624 67.9925 50.9155 68.4185C52.7849 68.9581 57.5591 68.7593 59.4285 68.0209ZM40.8493 64.3858C40.8493 64.3006 40.5329 63.8178 40.159 63.335C38.1746 60.7223 37.1104 57.3144 37.1104 53.5657C37.1104 49.6751 37.9445 47.0907 40.1303 44.2792C40.7055 43.5124 41.1369 42.8877 41.0794 42.8309C41.0219 42.8025 40.3891 42.9161 39.6126 43.1149C37.4556 43.6544 36.5928 44.6768 34.8096 48.7947C34.2632 50.0442 33.4003 51.6062 32.8827 52.2594C32.365 52.9409 31.9336 53.6225 31.9336 53.7645C31.9336 53.9065 32.4513 54.7017 33.084 55.5253C33.7167 56.3488 34.5795 57.854 35.0109 58.8764C36.2476 61.8583 37.0817 62.9091 38.8073 63.7894C40.3604 64.5562 40.8493 64.6982 40.8493 64.3858ZM64.9218 64.187C65.2382 63.8462 65.4107 46.324 65.0944 44.5348L64.8643 43.1149H43.8692L43.7829 53.6793L43.7253 64.2438L45.5085 64.3574C48.931 64.5562 64.663 64.4142 64.9218 64.187ZM70.185 63.8178C71.4792 63.193 72.4283 61.9151 74.0389 58.5924C74.9017 56.8032 75.937 54.9573 76.3397 54.5029L77.0587 53.7077L76.2246 52.657C75.7645 52.089 74.7291 50.2714 73.9238 48.5959C73.1185 46.9204 72.1119 45.1312 71.6805 44.6484C70.8464 43.6544 69.4659 42.9729 68.3155 42.9729H67.5678L68.6031 44.2508C70.8752 46.9771 72.2845 52.5718 71.6517 56.3488C71.2778 58.5356 69.8686 61.9151 68.5744 63.5622L67.7978 64.5846L68.6319 64.3858C69.0921 64.2722 69.7823 64.0166 70.185 63.8178ZM68.6319 59.2171C69.6673 56.718 69.9261 52.4298 69.1783 49.9023C68.7182 48.2551 67.654 46.0968 67.3377 46.0968C67.2514 46.0968 67.1651 49.5899 67.1651 53.8781C67.1651 62.3979 67.2226 62.5966 68.6319 59.2171ZM41.6258 53.7361C41.6834 45.2448 41.6546 45.0744 40.1015 48.4539C39.4688 49.8739 39.2675 50.7258 39.1812 52.8273C39.1237 54.2757 39.21 56.0648 39.3825 56.8032C39.7277 58.2232 41.1369 61.4323 41.3958 61.4323C41.482 61.4323 41.5971 57.9676 41.6258 53.7361ZM62.132 40.9565C62.132 40.6441 59.4285 39.5934 57.329 39.1106C54.2229 38.4006 49.5637 39.0538 47.4355 40.5305C46.8315 40.9281 46.8602 40.9565 47.9244 41.0417C50.1964 41.2121 62.132 41.1553 62.132 40.9565ZM45.5085 39.281C48.212 37.5486 50.7141 36.867 54.3667 36.867C58.048 36.867 60.6365 37.577 63.2537 39.3094C64.2315 39.9625 65.1231 40.4169 65.2094 40.3033C65.612 39.9057 64.3466 37.5486 63.2824 36.7251C62.2758 35.9299 58.1918 33.8851 57.6166 33.8851C57.5016 33.8851 56.6963 33.374 55.8623 32.7492L54.338 31.5848L53.4464 32.3232C52.9574 32.7492 51.3181 33.6295 49.7938 34.3395C46.285 35.9583 45.1346 36.7535 44.3868 38.0882C43.7253 39.2526 43.3227 40.4169 43.5528 40.4169C43.6391 40.4169 44.5019 39.9058 45.5085 39.281Z" fill="#FEFEFE"/>
<path d="M47.6985 60.399C45.0525 56.5083 44.995 52.788 47.5547 51.084C48.9352 50.1469 51.3511 50.1184 53.163 50.9704L54.4284 51.5952L56.039 50.8284C57.6784 50.0332 57.966 49.6925 57.966 48.4997V47.8181H52.2139C46.4906 47.8181 46.433 47.8181 46.203 47.1934C45.714 45.8586 45.8578 45.8302 52.2426 45.8302C57.3908 45.8302 58.2536 45.7734 58.2536 45.4042C58.2536 44.8362 59.5766 44.8362 59.7779 45.3758C59.8929 45.6598 60.4681 45.8302 61.4748 45.887C62.9703 45.9722 62.9991 46.0006 62.9415 46.7958C62.8552 47.8749 62.7402 47.9317 61.4172 47.8749C60.3243 47.7897 60.2668 47.8465 60.2381 48.6701C60.2093 49.1245 60.1805 49.6357 60.1518 49.8061C60.123 49.9481 60.5832 50.3173 61.1296 50.6013C62.6252 51.3964 63.488 53.0151 63.3442 54.8327C63.2291 56.4514 61.9349 59.263 60.6119 60.8533C59.8929 61.7053 59.7204 61.7621 59.1739 61.4781C58.2823 61.0237 58.3686 60.6261 59.7491 58.4394C60.6982 56.9343 60.9858 56.2243 61.0721 54.9463C61.1584 53.5263 61.1009 53.2707 60.4394 52.6744C59.9217 52.1916 59.3752 51.9644 58.7137 51.9928C57.7646 52.0212 55.8377 53.0152 55.1187 53.8955C54.601 54.5203 54.1408 54.4635 53.4794 53.7535C52.2427 52.3904 49.8268 51.9076 48.5901 52.788C47.2383 53.6967 47.5547 56.7922 49.2228 59.2346C50.3445 60.8817 50.3732 61.5633 49.3378 61.6769C48.7626 61.7337 48.4463 61.4497 47.6985 60.399Z" fill="#FEFEFE"/>
<circle cx="582.5" cy="55.5" r="55.5" fill="#0E0E0E"/>
<path d="M582 42V68.8893" stroke="#919191" stroke-width="2" stroke-linecap="round"/>
<path d="M565.929 44.1818V66H563.287V46.9517H563.159L557.832 50.4886V47.804L563.287 44.1818H565.929Z" fill="white"/>
<path d="M598.24 66L607.999 46.696V46.5256H596.749V44.1818H610.726V46.6534L601.01 66H598.24Z" fill="#919191"/>
</svg>
