<svg width="699" height="173" viewBox="0 0 699 173" fill="none" xmlns="http://www.w3.org/2000/svg">
<rect width="699" height="173" rx="54" fill="#0E0E0E"/>
<path d="M131.594 116H129.563L135.438 100H137.438L143.313 116H141.281L136.5 102.531H136.375L131.594 116ZM132.344 109.75H140.531V111.469H132.344V109.75ZM155.766 104V105.562H149.297V104H155.766ZM151.235 116V102.344C151.235 101.656 151.396 101.083 151.719 100.625C152.042 100.167 152.461 99.8229 152.977 99.5937C153.493 99.3646 154.037 99.25 154.61 99.25C155.063 99.25 155.433 99.2865 155.719 99.3594C156.006 99.4323 156.219 99.5 156.36 99.5625L155.828 101.156C155.735 101.125 155.604 101.086 155.438 101.039C155.276 100.992 155.063 100.969 154.797 100.969C154.188 100.969 153.748 101.122 153.477 101.43C153.211 101.737 153.078 102.187 153.078 102.781V116H151.235ZM165.252 111.094V104H167.096V116H165.252V113.969H165.127C164.846 114.578 164.409 115.096 163.815 115.523C163.221 115.945 162.471 116.156 161.565 116.156C160.815 116.156 160.148 115.992 159.565 115.664C158.982 115.331 158.523 114.831 158.19 114.164C157.857 113.492 157.69 112.646 157.69 111.625V104H159.534V111.5C159.534 112.375 159.778 113.073 160.268 113.594C160.763 114.115 161.393 114.375 162.159 114.375C162.617 114.375 163.083 114.258 163.557 114.023C164.036 113.789 164.437 113.43 164.76 112.945C165.088 112.461 165.252 111.844 165.252 111.094ZM171.657 108.781V116H169.813V104H171.594V105.875H171.751C172.032 105.266 172.459 104.776 173.032 104.406C173.605 104.031 174.344 103.844 175.251 103.844C176.063 103.844 176.774 104.01 177.383 104.344C177.993 104.672 178.467 105.172 178.805 105.844C179.144 106.51 179.313 107.354 179.313 108.375V116H177.469V108.5C177.469 107.557 177.225 106.823 176.735 106.297C176.245 105.766 175.574 105.5 174.719 105.5C174.131 105.5 173.605 105.628 173.141 105.883C172.683 106.138 172.321 106.51 172.055 107C171.79 107.49 171.657 108.083 171.657 108.781ZM192.894 104V105.562H186.425V104H192.894ZM188.362 116V102.344C188.362 101.656 188.524 101.083 188.847 100.625C189.17 100.167 189.589 99.8229 190.104 99.5937C190.62 99.3646 191.164 99.25 191.737 99.25C192.19 99.25 192.56 99.2865 192.847 99.3594C193.133 99.4323 193.347 99.5 193.487 99.5625L192.956 101.156C192.862 101.125 192.732 101.086 192.565 101.039C192.404 100.992 192.19 100.969 191.925 100.969C191.315 100.969 190.875 101.122 190.604 101.43C190.339 101.737 190.206 102.187 190.206 102.781V116H188.362ZM198.005 116.281C197.245 116.281 196.554 116.138 195.935 115.852C195.315 115.56 194.823 115.141 194.458 114.594C194.094 114.042 193.911 113.375 193.911 112.594C193.911 111.906 194.047 111.349 194.318 110.922C194.588 110.49 194.95 110.151 195.403 109.906C195.857 109.661 196.357 109.479 196.903 109.359C197.456 109.234 198.01 109.135 198.568 109.063C199.297 108.969 199.888 108.898 200.341 108.852C200.799 108.799 201.133 108.714 201.341 108.594C201.554 108.474 201.661 108.266 201.661 107.969V107.906C201.661 107.135 201.45 106.536 201.028 106.109C200.612 105.682 199.979 105.469 199.13 105.469C198.25 105.469 197.56 105.661 197.06 106.047C196.56 106.432 196.208 106.844 196.005 107.281L194.255 106.656C194.568 105.927 194.984 105.359 195.505 104.953C196.031 104.542 196.604 104.255 197.224 104.094C197.849 103.927 198.463 103.844 199.068 103.844C199.453 103.844 199.896 103.891 200.396 103.984C200.901 104.073 201.388 104.258 201.857 104.539C202.331 104.82 202.724 105.245 203.036 105.812C203.349 106.38 203.505 107.141 203.505 108.094V116H201.661V114.375H201.568C201.443 114.635 201.234 114.914 200.943 115.211C200.651 115.508 200.263 115.76 199.778 115.969C199.294 116.177 198.703 116.281 198.005 116.281ZM198.286 114.625C199.015 114.625 199.63 114.482 200.13 114.195C200.635 113.909 201.015 113.539 201.271 113.086C201.531 112.633 201.661 112.156 201.661 111.656V109.969C201.583 110.062 201.411 110.148 201.146 110.227C200.885 110.299 200.583 110.365 200.239 110.422C199.901 110.474 199.57 110.521 199.247 110.562C198.929 110.599 198.672 110.63 198.474 110.656C197.995 110.719 197.547 110.82 197.13 110.961C196.719 111.096 196.385 111.302 196.13 111.578C195.88 111.849 195.755 112.219 195.755 112.687C195.755 113.328 195.992 113.812 196.466 114.141C196.945 114.464 197.552 114.625 198.286 114.625ZM211.085 116.25C209.96 116.25 208.991 115.984 208.179 115.453C207.366 114.922 206.741 114.19 206.304 113.258C205.866 112.326 205.648 111.26 205.648 110.062C205.648 108.844 205.872 107.768 206.32 106.836C206.773 105.898 207.403 105.167 208.21 104.641C209.023 104.109 209.971 103.844 211.054 103.844C211.898 103.844 212.658 104 213.335 104.312C214.012 104.625 214.567 105.062 214.999 105.625C215.432 106.187 215.7 106.844 215.804 107.594H213.96C213.82 107.047 213.507 106.562 213.023 106.141C212.544 105.714 211.898 105.5 211.085 105.5C210.366 105.5 209.736 105.687 209.195 106.062C208.658 106.432 208.239 106.956 207.937 107.633C207.64 108.305 207.491 109.094 207.491 110C207.491 110.927 207.637 111.734 207.929 112.422C208.226 113.109 208.643 113.643 209.179 114.023C209.721 114.404 210.356 114.594 211.085 114.594C211.564 114.594 211.999 114.51 212.39 114.344C212.781 114.177 213.111 113.938 213.382 113.625C213.653 113.312 213.846 112.937 213.96 112.5H215.804C215.7 113.208 215.442 113.846 215.031 114.414C214.624 114.977 214.085 115.424 213.413 115.758C212.747 116.086 211.971 116.25 211.085 116.25ZM223.058 104V105.562H216.839V104H223.058ZM218.652 101.125H220.496V112.562C220.496 113.083 220.571 113.474 220.722 113.734C220.878 113.99 221.076 114.161 221.316 114.25C221.561 114.333 221.818 114.375 222.089 114.375C222.292 114.375 222.459 114.365 222.589 114.344C222.72 114.318 222.824 114.297 222.902 114.281L223.277 115.937C223.152 115.984 222.977 116.031 222.753 116.078C222.529 116.13 222.246 116.156 221.902 116.156C221.381 116.156 220.871 116.044 220.371 115.82C219.876 115.596 219.464 115.255 219.136 114.797C218.813 114.339 218.652 113.76 218.652 113.062V101.125ZM234.23 116.281C233.47 116.281 232.78 116.138 232.16 115.852C231.54 115.56 231.048 115.141 230.683 114.594C230.319 114.042 230.136 113.375 230.136 112.594C230.136 111.906 230.272 111.349 230.543 110.922C230.814 110.49 231.176 110.151 231.629 109.906C232.082 109.661 232.582 109.479 233.129 109.359C233.681 109.234 234.235 109.135 234.793 109.063C235.522 108.969 236.113 108.898 236.566 108.852C237.025 108.799 237.358 108.714 237.566 108.594C237.78 108.474 237.886 108.266 237.886 107.969V107.906C237.886 107.135 237.676 106.536 237.254 106.109C236.837 105.682 236.204 105.469 235.355 105.469C234.475 105.469 233.785 105.661 233.285 106.047C232.785 106.432 232.433 106.844 232.23 107.281L230.48 106.656C230.793 105.927 231.209 105.359 231.73 104.953C232.256 104.542 232.829 104.255 233.449 104.094C234.074 103.927 234.689 103.844 235.293 103.844C235.678 103.844 236.121 103.891 236.621 103.984C237.126 104.073 237.613 104.258 238.082 104.539C238.556 104.82 238.949 105.245 239.261 105.812C239.574 106.38 239.73 107.141 239.73 108.094V116H237.886V114.375H237.793C237.668 114.635 237.459 114.914 237.168 115.211C236.876 115.508 236.488 115.76 236.004 115.969C235.519 116.177 234.928 116.281 234.23 116.281ZM234.511 114.625C235.241 114.625 235.855 114.482 236.355 114.195C236.86 113.909 237.241 113.539 237.496 113.086C237.756 112.633 237.886 112.156 237.886 111.656V109.969C237.808 110.062 237.636 110.148 237.371 110.227C237.11 110.299 236.808 110.365 236.465 110.422C236.126 110.474 235.795 110.521 235.472 110.562C235.155 110.599 234.897 110.63 234.699 110.656C234.22 110.719 233.772 110.82 233.355 110.961C232.944 111.096 232.61 111.302 232.355 111.578C232.105 111.849 231.98 112.219 231.98 112.687C231.98 113.328 232.217 113.812 232.691 114.141C233.17 114.464 233.777 114.625 234.511 114.625ZM242.685 116V100H244.529V105.906H244.685C244.821 105.698 245.008 105.432 245.248 105.109C245.493 104.781 245.842 104.49 246.295 104.234C246.753 103.974 247.373 103.844 248.154 103.844C249.165 103.844 250.055 104.096 250.826 104.602C251.597 105.107 252.198 105.823 252.631 106.75C253.063 107.677 253.279 108.771 253.279 110.031C253.279 111.302 253.063 112.404 252.631 113.336C252.198 114.263 251.6 114.982 250.834 115.492C250.068 115.997 249.185 116.25 248.185 116.25C247.415 116.25 246.797 116.122 246.334 115.867C245.87 115.607 245.514 115.312 245.264 114.984C245.014 114.651 244.821 114.375 244.685 114.156H244.467V116H242.685ZM244.498 110C244.498 110.906 244.631 111.706 244.896 112.398C245.162 113.086 245.55 113.625 246.06 114.016C246.571 114.401 247.196 114.594 247.935 114.594C248.706 114.594 249.35 114.391 249.865 113.984C250.386 113.573 250.777 113.021 251.037 112.328C251.303 111.63 251.435 110.854 251.435 110C251.435 109.156 251.305 108.396 251.045 107.719C250.79 107.036 250.402 106.497 249.881 106.102C249.365 105.701 248.717 105.5 247.935 105.5C247.185 105.5 246.555 105.69 246.045 106.07C245.534 106.445 245.149 106.971 244.889 107.648C244.628 108.32 244.498 109.104 244.498 110ZM260.315 116.25C259.231 116.25 258.281 115.992 257.463 115.477C256.65 114.961 256.015 114.24 255.557 113.312C255.104 112.385 254.877 111.302 254.877 110.062C254.877 108.812 255.104 107.721 255.557 106.789C256.015 105.857 256.65 105.133 257.463 104.617C258.281 104.102 259.231 103.844 260.315 103.844C261.398 103.844 262.346 104.102 263.158 104.617C263.976 105.133 264.611 105.857 265.065 106.789C265.523 107.721 265.752 108.812 265.752 110.062C265.752 111.302 265.523 112.385 265.065 113.312C264.611 114.24 263.976 114.961 263.158 115.477C262.346 115.992 261.398 116.25 260.315 116.25ZM260.315 114.594C261.137 114.594 261.815 114.383 262.346 113.961C262.877 113.539 263.27 112.984 263.525 112.297C263.781 111.609 263.908 110.865 263.908 110.062C263.908 109.26 263.781 108.513 263.525 107.82C263.27 107.128 262.877 106.568 262.346 106.141C261.815 105.714 261.137 105.5 260.315 105.5C259.492 105.5 258.815 105.714 258.283 106.141C257.752 106.568 257.359 107.128 257.104 107.82C256.848 108.513 256.721 109.26 256.721 110.062C256.721 110.865 256.848 111.609 257.104 112.297C257.359 112.984 257.752 113.539 258.283 113.961C258.815 114.383 259.492 114.594 260.315 114.594ZM275.469 111.094V104H277.313V116H275.469V113.969H275.344C275.063 114.578 274.625 115.096 274.031 115.523C273.438 115.945 272.688 116.156 271.781 116.156C271.031 116.156 270.365 115.992 269.781 115.664C269.198 115.331 268.74 114.831 268.406 114.164C268.073 113.492 267.906 112.646 267.906 111.625V104H269.75V111.5C269.75 112.375 269.995 113.073 270.485 113.594C270.979 114.115 271.61 114.375 272.375 114.375C272.834 114.375 273.3 114.258 273.774 114.023C274.253 113.789 274.654 113.43 274.977 112.945C275.305 112.461 275.469 111.844 275.469 111.094ZM285.248 104V105.562H279.03V104H285.248ZM280.842 101.125H282.686V112.562C282.686 113.083 282.761 113.474 282.913 113.734C283.069 113.99 283.267 114.161 283.506 114.25C283.751 114.333 284.009 114.375 284.28 114.375C284.483 114.375 284.649 114.365 284.78 114.344C284.91 114.318 285.014 114.297 285.092 114.281L285.467 115.937C285.342 115.984 285.168 116.031 284.944 116.078C284.72 116.13 284.436 116.156 284.092 116.156C283.571 116.156 283.061 116.044 282.561 115.82C282.066 115.596 281.655 115.255 281.327 114.797C281.004 114.339 280.842 113.76 280.842 113.062V101.125ZM294.077 120.5C293.764 120.5 293.486 120.474 293.241 120.422C292.996 120.375 292.827 120.328 292.733 120.281L293.202 118.656C293.65 118.771 294.046 118.813 294.389 118.781C294.733 118.75 295.038 118.596 295.303 118.32C295.574 118.049 295.822 117.609 296.046 117L296.389 116.063L291.952 104H293.952L297.264 113.562H297.389L300.702 104H302.702L297.608 117.75C297.379 118.37 297.095 118.883 296.757 119.289C296.418 119.701 296.025 120.005 295.577 120.203C295.134 120.401 294.634 120.5 294.077 120.5ZM308.921 116.25C307.837 116.25 306.887 115.992 306.069 115.477C305.257 114.961 304.621 114.24 304.163 113.312C303.71 112.385 303.483 111.302 303.483 110.062C303.483 108.812 303.71 107.721 304.163 106.789C304.621 105.857 305.257 105.133 306.069 104.617C306.887 104.102 307.837 103.844 308.921 103.844C310.004 103.844 310.952 104.102 311.765 104.617C312.582 105.133 313.218 105.857 313.671 106.789C314.129 107.721 314.358 108.812 314.358 110.062C314.358 111.302 314.129 112.385 313.671 113.312C313.218 114.24 312.582 114.961 311.765 115.477C310.952 115.992 310.004 116.25 308.921 116.25ZM308.921 114.594C309.744 114.594 310.421 114.383 310.952 113.961C311.483 113.539 311.877 112.984 312.132 112.297C312.387 111.609 312.515 110.865 312.515 110.062C312.515 109.26 312.387 108.513 312.132 107.82C311.877 107.128 311.483 106.568 310.952 106.141C310.421 105.714 309.744 105.5 308.921 105.5C308.098 105.5 307.421 105.714 306.89 106.141C306.358 106.568 305.965 107.128 305.71 107.82C305.455 108.513 305.327 109.26 305.327 110.062C305.327 110.865 305.455 111.609 305.71 112.297C305.965 112.984 306.358 113.539 306.89 113.961C307.421 114.383 308.098 114.594 308.921 114.594ZM324.075 111.094V104H325.919V116H324.075V113.969H323.95C323.669 114.578 323.231 115.096 322.638 115.523C322.044 115.945 321.294 116.156 320.388 116.156C319.638 116.156 318.971 115.992 318.388 115.664C317.804 115.331 317.346 114.831 317.013 114.164C316.679 113.492 316.513 112.646 316.513 111.625V104H318.356V111.5C318.356 112.375 318.601 113.073 319.091 113.594C319.586 114.115 320.216 114.375 320.981 114.375C321.44 114.375 321.906 114.258 322.38 114.023C322.859 113.789 323.26 113.43 323.583 112.945C323.911 112.461 324.075 111.844 324.075 111.094ZM328.636 116V104H330.417V105.812H330.542C330.761 105.219 331.157 104.737 331.73 104.367C332.303 103.997 332.948 103.812 333.667 103.812C333.803 103.812 333.972 103.815 334.175 103.82C334.378 103.826 334.532 103.833 334.636 103.844V105.719C334.573 105.703 334.43 105.68 334.206 105.648C333.988 105.612 333.756 105.594 333.511 105.594C332.928 105.594 332.407 105.716 331.948 105.961C331.495 106.201 331.136 106.534 330.87 106.961C330.61 107.383 330.48 107.865 330.48 108.406V116H328.636ZM346.22 116.25C345.22 116.25 344.337 115.997 343.572 115.492C342.806 114.982 342.207 114.263 341.775 113.336C341.343 112.404 341.126 111.302 341.126 110.031C341.126 108.771 341.343 107.677 341.775 106.75C342.207 105.823 342.809 105.107 343.58 104.602C344.35 104.096 345.241 103.844 346.251 103.844C347.033 103.844 347.65 103.974 348.103 104.234C348.561 104.49 348.91 104.781 349.15 105.109C349.395 105.432 349.585 105.698 349.72 105.906H349.876V100H351.72V116H349.939V114.156H349.72C349.585 114.375 349.392 114.651 349.142 114.984C348.892 115.312 348.535 115.607 348.072 115.867C347.608 116.122 346.991 116.25 346.22 116.25ZM346.47 114.594C347.21 114.594 347.835 114.401 348.345 114.016C348.856 113.625 349.244 113.086 349.509 112.398C349.775 111.706 349.908 110.906 349.908 110C349.908 109.104 349.778 108.32 349.517 107.648C349.257 106.971 348.871 106.445 348.361 106.07C347.85 105.69 347.22 105.5 346.47 105.5C345.689 105.5 345.038 105.701 344.517 106.102C344.001 106.497 343.613 107.036 343.353 107.719C343.098 108.396 342.97 109.156 342.97 110C342.97 110.854 343.1 111.63 343.361 112.328C343.626 113.021 344.017 113.573 344.533 113.984C345.054 114.391 345.699 114.594 346.47 114.594ZM358.224 116.281C357.464 116.281 356.774 116.138 356.154 115.852C355.534 115.56 355.042 115.141 354.677 114.594C354.313 114.042 354.131 113.375 354.131 112.594C354.131 111.906 354.266 111.349 354.537 110.922C354.808 110.49 355.17 110.151 355.623 109.906C356.076 109.661 356.576 109.479 357.123 109.359C357.675 109.234 358.229 109.135 358.787 109.063C359.516 108.969 360.107 108.898 360.56 108.852C361.019 108.799 361.352 108.714 361.56 108.594C361.774 108.474 361.881 108.266 361.881 107.969V107.906C361.881 107.135 361.67 106.536 361.248 106.109C360.831 105.682 360.198 105.469 359.349 105.469C358.469 105.469 357.779 105.661 357.279 106.047C356.779 106.432 356.427 106.844 356.224 107.281L354.474 106.656C354.787 105.927 355.203 105.359 355.724 104.953C356.25 104.542 356.823 104.255 357.443 104.094C358.068 103.927 358.683 103.844 359.287 103.844C359.672 103.844 360.115 103.891 360.615 103.984C361.12 104.073 361.607 104.258 362.076 104.539C362.55 104.82 362.943 105.245 363.256 105.812C363.568 106.38 363.724 107.141 363.724 108.094V116H361.881V114.375H361.787C361.662 114.635 361.453 114.914 361.162 115.211C360.87 115.508 360.482 115.76 359.998 115.969C359.513 116.177 358.922 116.281 358.224 116.281ZM358.506 114.625C359.235 114.625 359.849 114.482 360.349 114.195C360.854 113.909 361.235 113.539 361.49 113.086C361.75 112.633 361.881 112.156 361.881 111.656V109.969C361.802 110.062 361.631 110.148 361.365 110.227C361.104 110.299 360.802 110.365 360.459 110.422C360.12 110.474 359.789 110.521 359.466 110.562C359.149 110.599 358.891 110.63 358.693 110.656C358.214 110.719 357.766 110.82 357.349 110.961C356.938 111.096 356.604 111.302 356.349 111.578C356.099 111.849 355.974 112.219 355.974 112.687C355.974 113.328 356.211 113.812 356.685 114.141C357.164 114.464 357.771 114.625 358.506 114.625ZM367.187 120.5C366.875 120.5 366.596 120.474 366.351 120.422C366.107 120.375 365.937 120.328 365.844 120.281L366.312 118.656C366.76 118.771 367.156 118.813 367.5 118.781C367.844 118.75 368.148 118.596 368.414 118.32C368.685 118.049 368.932 117.609 369.156 117L369.5 116.063L365.062 104H367.062L370.375 113.562H370.5L373.812 104H375.812L370.719 117.75C370.489 118.37 370.206 118.883 369.867 119.289C369.528 119.701 369.135 120.005 368.687 120.203C368.245 120.401 367.745 120.5 367.187 120.5ZM387.988 116.25C386.905 116.25 385.955 115.992 385.137 115.477C384.324 114.961 383.689 114.24 383.231 113.312C382.777 112.385 382.551 111.302 382.551 110.062C382.551 108.812 382.777 107.721 383.231 106.789C383.689 105.857 384.324 105.133 385.137 104.617C385.955 104.102 386.905 103.844 387.988 103.844C389.072 103.844 390.02 104.102 390.832 104.617C391.65 105.133 392.285 105.857 392.738 106.789C393.197 107.721 393.426 108.812 393.426 110.062C393.426 111.302 393.197 112.385 392.738 113.312C392.285 114.24 391.65 114.961 390.832 115.477C390.02 115.992 389.072 116.25 387.988 116.25ZM387.988 114.594C388.811 114.594 389.488 114.383 390.02 113.961C390.551 113.539 390.944 112.984 391.199 112.297C391.455 111.609 391.582 110.865 391.582 110.062C391.582 109.26 391.455 108.513 391.199 107.82C390.944 107.128 390.551 106.568 390.02 106.141C389.488 105.714 388.811 105.5 387.988 105.5C387.166 105.5 386.488 105.714 385.957 106.141C385.426 106.568 385.033 107.128 384.777 107.82C384.522 108.513 384.395 109.26 384.395 110.062C384.395 110.865 384.522 111.609 384.777 112.297C385.033 112.984 385.426 113.539 385.957 113.961C386.488 114.383 387.166 114.594 387.988 114.594ZM400.924 104V105.562H394.455V104H400.924ZM396.393 116V102.344C396.393 101.656 396.554 101.083 396.877 100.625C397.2 100.167 397.619 99.8229 398.135 99.5937C398.651 99.3646 399.195 99.25 399.768 99.25C400.221 99.25 400.591 99.2865 400.877 99.3594C401.164 99.4323 401.377 99.5 401.518 99.5625L400.987 101.156C400.893 101.125 400.763 101.086 400.596 101.039C400.435 100.992 400.221 100.969 399.955 100.969C399.346 100.969 398.906 101.122 398.635 101.43C398.369 101.737 398.237 102.187 398.237 102.781V116H396.393ZM413.594 104V105.562H407.376V104H413.594ZM409.188 101.125H411.032V112.562C411.032 113.083 411.107 113.474 411.258 113.734C411.415 113.99 411.613 114.161 411.852 114.25C412.097 114.333 412.355 114.375 412.626 114.375C412.829 114.375 412.995 114.365 413.126 114.344C413.256 114.318 413.36 114.297 413.438 114.281L413.813 115.937C413.688 115.984 413.514 116.031 413.29 116.078C413.066 116.13 412.782 116.156 412.438 116.156C411.917 116.156 411.407 116.044 410.907 115.82C410.412 115.596 410.001 115.255 409.672 114.797C409.35 114.339 409.188 113.76 409.188 113.062V101.125ZM415.708 116V104H417.489V105.812H417.614C417.833 105.219 418.229 104.737 418.802 104.367C419.374 103.997 420.02 103.812 420.739 103.812C420.874 103.812 421.044 103.815 421.247 103.82C421.45 103.826 421.604 103.833 421.708 103.844V105.719C421.645 105.703 421.502 105.68 421.278 105.648C421.059 105.612 420.828 105.594 420.583 105.594C419.999 105.594 419.479 105.716 419.02 105.961C418.567 106.201 418.208 106.534 417.942 106.961C417.682 107.383 417.552 107.865 417.552 108.406V116H415.708ZM426.765 116.281C426.004 116.281 425.314 116.138 424.694 115.852C424.075 115.56 423.582 115.141 423.218 114.594C422.853 114.042 422.671 113.375 422.671 112.594C422.671 111.906 422.806 111.349 423.077 110.922C423.348 110.49 423.71 110.151 424.163 109.906C424.616 109.661 425.116 109.479 425.663 109.359C426.215 109.234 426.77 109.135 427.327 109.063C428.056 108.969 428.647 108.898 429.101 108.852C429.559 108.799 429.892 108.714 430.101 108.594C430.314 108.474 430.421 108.266 430.421 107.969V107.906C430.421 107.135 430.21 106.536 429.788 106.109C429.371 105.682 428.739 105.469 427.89 105.469C427.009 105.469 426.319 105.661 425.819 106.047C425.319 106.432 424.968 106.844 424.765 107.281L423.015 106.656C423.327 105.927 423.744 105.359 424.265 104.953C424.791 104.542 425.364 104.255 425.983 104.094C426.608 103.927 427.223 103.844 427.827 103.844C428.213 103.844 428.655 103.891 429.155 103.984C429.66 104.073 430.147 104.258 430.616 104.539C431.09 104.82 431.483 105.245 431.796 105.812C432.108 106.38 432.265 107.141 432.265 108.094V116H430.421V114.375H430.327C430.202 114.635 429.994 114.914 429.702 115.211C429.41 115.508 429.022 115.76 428.538 115.969C428.054 116.177 427.463 116.281 426.765 116.281ZM427.046 114.625C427.775 114.625 428.39 114.482 428.89 114.195C429.395 113.909 429.775 113.539 430.03 113.086C430.291 112.633 430.421 112.156 430.421 111.656V109.969C430.343 110.062 430.171 110.148 429.905 110.227C429.645 110.299 429.343 110.365 428.999 110.422C428.66 110.474 428.33 110.521 428.007 110.562C427.689 110.599 427.431 110.63 427.233 110.656C426.754 110.719 426.306 110.82 425.89 110.961C425.478 111.096 425.145 111.302 424.89 111.578C424.64 111.849 424.515 112.219 424.515 112.687C424.515 113.328 424.752 113.812 425.226 114.141C425.705 114.464 426.311 114.625 427.046 114.625ZM436.814 108.781V116H434.97V104H436.751V105.875H436.907C437.189 105.266 437.616 104.776 438.189 104.406C438.762 104.031 439.501 103.844 440.407 103.844C441.22 103.844 441.931 104.01 442.54 104.344C443.15 104.672 443.623 105.172 443.962 105.844C444.301 106.51 444.47 107.354 444.47 108.375V116H442.626V108.5C442.626 107.557 442.381 106.823 441.892 106.297C441.402 105.766 440.73 105.5 439.876 105.5C439.288 105.5 438.762 105.628 438.298 105.883C437.84 106.138 437.478 106.51 437.212 107C436.946 107.49 436.814 108.083 436.814 108.781ZM455.679 106.687L454.023 107.156C453.919 106.88 453.765 106.612 453.562 106.352C453.364 106.086 453.093 105.867 452.749 105.695C452.406 105.523 451.965 105.437 451.429 105.437C450.695 105.437 450.083 105.607 449.593 105.945C449.109 106.279 448.866 106.703 448.866 107.219C448.866 107.677 449.033 108.039 449.366 108.305C449.7 108.57 450.221 108.792 450.929 108.969L452.71 109.406C453.783 109.667 454.583 110.065 455.109 110.602C455.635 111.133 455.898 111.818 455.898 112.656C455.898 113.344 455.7 113.958 455.304 114.5C454.913 115.042 454.366 115.469 453.663 115.781C452.96 116.094 452.143 116.25 451.21 116.25C449.986 116.25 448.973 115.984 448.171 115.453C447.369 114.922 446.861 114.146 446.648 113.125L448.398 112.687C448.564 113.333 448.88 113.818 449.343 114.141C449.812 114.464 450.424 114.625 451.179 114.625C452.038 114.625 452.721 114.443 453.226 114.078C453.736 113.708 453.991 113.266 453.991 112.75C453.991 112.333 453.846 111.984 453.554 111.703C453.262 111.417 452.814 111.203 452.21 111.062L450.21 110.594C449.111 110.333 448.304 109.93 447.788 109.383C447.278 108.831 447.023 108.141 447.023 107.312C447.023 106.635 447.213 106.036 447.593 105.516C447.978 104.995 448.502 104.586 449.163 104.289C449.83 103.992 450.585 103.844 451.429 103.844C452.616 103.844 453.549 104.104 454.226 104.625C454.908 105.146 455.393 105.833 455.679 106.687ZM458.013 116V104H459.794V105.875H459.951C460.201 105.234 460.604 104.737 461.162 104.383C461.719 104.023 462.388 103.844 463.169 103.844C463.961 103.844 464.62 104.023 465.146 104.383C465.677 104.737 466.091 105.234 466.388 105.875H466.513C466.82 105.255 467.281 104.763 467.896 104.398C468.511 104.029 469.247 103.844 470.107 103.844C471.18 103.844 472.057 104.18 472.74 104.852C473.422 105.518 473.763 106.557 473.763 107.969V116H471.919V107.969C471.919 107.083 471.677 106.451 471.193 106.07C470.708 105.69 470.138 105.5 469.482 105.5C468.638 105.5 467.984 105.755 467.521 106.266C467.057 106.771 466.826 107.411 466.826 108.187V116H464.951V107.781C464.951 107.099 464.729 106.549 464.287 106.133C463.844 105.711 463.274 105.5 462.576 105.5C462.096 105.5 461.649 105.628 461.232 105.883C460.82 106.138 460.487 106.492 460.232 106.945C459.982 107.393 459.857 107.911 459.857 108.5V116H458.013ZM484.037 111.094V104H485.88V116H484.037V113.969H483.912C483.63 114.578 483.193 115.096 482.599 115.523C482.005 115.945 481.255 116.156 480.349 116.156C479.599 116.156 478.933 115.992 478.349 115.664C477.766 115.331 477.308 114.831 476.974 114.164C476.641 113.492 476.474 112.646 476.474 111.625V104H478.318V111.5C478.318 112.375 478.563 113.073 479.052 113.594C479.547 114.115 480.177 114.375 480.943 114.375C481.401 114.375 481.867 114.258 482.341 114.023C482.821 113.789 483.222 113.43 483.545 112.945C483.873 112.461 484.037 111.844 484.037 111.094ZM493.816 104V105.562H487.597V104H493.816ZM489.41 101.125H491.254V112.562C491.254 113.083 491.329 113.474 491.48 113.734C491.636 113.99 491.834 114.161 492.074 114.25C492.319 114.333 492.577 114.375 492.847 114.375C493.051 114.375 493.217 114.365 493.347 114.344C493.478 114.318 493.582 114.297 493.66 114.281L494.035 115.937C493.91 115.984 493.735 116.031 493.511 116.078C493.288 116.13 493.004 116.156 492.66 116.156C492.139 116.156 491.629 116.044 491.129 115.82C490.634 115.596 490.222 115.255 489.894 114.797C489.571 114.339 489.41 113.76 489.41 113.062V101.125ZM499.461 116.281C498.7 116.281 498.01 116.138 497.391 115.852C496.771 115.56 496.279 115.141 495.914 114.594C495.549 114.042 495.367 113.375 495.367 112.594C495.367 111.906 495.503 111.349 495.773 110.922C496.044 110.49 496.406 110.151 496.859 109.906C497.312 109.661 497.812 109.479 498.359 109.359C498.911 109.234 499.466 109.135 500.023 109.063C500.753 108.969 501.344 108.898 501.797 108.852C502.255 108.799 502.588 108.714 502.797 108.594C503.01 108.474 503.117 108.266 503.117 107.969V107.906C503.117 107.135 502.906 106.536 502.484 106.109C502.068 105.682 501.435 105.469 500.586 105.469C499.706 105.469 499.016 105.661 498.516 106.047C498.016 106.432 497.664 106.844 497.461 107.281L495.711 106.656C496.023 105.927 496.44 105.359 496.961 104.953C497.487 104.542 498.06 104.255 498.68 104.094C499.305 103.927 499.919 103.844 500.523 103.844C500.909 103.844 501.351 103.891 501.851 103.984C502.357 104.073 502.844 104.258 503.312 104.539C503.786 104.82 504.18 105.245 504.492 105.812C504.805 106.38 504.961 107.141 504.961 108.094V116H503.117V114.375H503.023C502.898 114.635 502.69 114.914 502.398 115.211C502.107 115.508 501.719 115.76 501.234 115.969C500.75 116.177 500.159 116.281 499.461 116.281ZM499.742 114.625C500.471 114.625 501.086 114.482 501.586 114.195C502.091 113.909 502.471 113.539 502.726 113.086C502.987 112.633 503.117 112.156 503.117 111.656V109.969C503.039 110.062 502.867 110.148 502.601 110.227C502.341 110.299 502.039 110.365 501.695 110.422C501.357 110.474 501.026 110.521 500.703 110.562C500.385 110.599 500.128 110.63 499.93 110.656C499.45 110.719 499.003 110.82 498.586 110.961C498.174 111.096 497.841 111.302 497.586 111.578C497.336 111.849 497.211 112.219 497.211 112.687C497.211 113.328 497.448 113.812 497.922 114.141C498.401 114.464 499.008 114.625 499.742 114.625ZM512.885 104V105.562H506.666V104H512.885ZM508.479 101.125H510.322V112.562C510.322 113.083 510.398 113.474 510.549 113.734C510.705 113.99 510.903 114.161 511.143 114.25C511.387 114.333 511.645 114.375 511.916 114.375C512.119 114.375 512.286 114.365 512.416 114.344C512.546 114.318 512.65 114.297 512.729 114.281L513.104 115.937C512.979 115.984 512.804 116.031 512.58 116.078C512.356 116.13 512.072 116.156 511.729 116.156C511.208 116.156 510.697 116.044 510.197 115.82C509.703 115.596 509.291 115.255 508.963 114.797C508.64 114.339 508.479 113.76 508.479 113.062V101.125ZM514.998 116V104H516.842V116H514.998ZM515.936 102C515.576 102 515.267 101.878 515.006 101.633C514.751 101.388 514.623 101.094 514.623 100.75C514.623 100.406 514.751 100.112 515.006 99.8672C515.267 99.6224 515.576 99.5 515.936 99.5C516.295 99.5 516.602 99.6224 516.858 99.8672C517.118 100.112 517.248 100.406 517.248 100.75C517.248 101.094 517.118 101.388 516.858 101.633C516.602 101.878 516.295 102 515.936 102ZM524.434 116.25C523.351 116.25 522.4 115.992 521.582 115.477C520.77 114.961 520.135 114.24 519.676 113.312C519.223 112.385 518.996 111.302 518.996 110.062C518.996 108.812 519.223 107.721 519.676 106.789C520.135 105.857 520.77 105.133 521.582 104.617C522.4 104.102 523.351 103.844 524.434 103.844C525.517 103.844 526.465 104.102 527.278 104.617C528.095 105.133 528.731 105.857 529.184 106.789C529.642 107.721 529.871 108.812 529.871 110.062C529.871 111.302 529.642 112.385 529.184 113.312C528.731 114.24 528.095 114.961 527.278 115.477C526.465 115.992 525.517 116.25 524.434 116.25ZM524.434 114.594C525.257 114.594 525.934 114.383 526.465 113.961C526.996 113.539 527.39 112.984 527.645 112.297C527.9 111.609 528.028 110.865 528.028 110.062C528.028 109.26 527.9 108.513 527.645 107.82C527.39 107.128 526.996 106.568 526.465 106.141C525.934 105.714 525.257 105.5 524.434 105.5C523.611 105.5 522.934 105.714 522.403 106.141C521.871 106.568 521.478 107.128 521.223 107.82C520.968 108.513 520.84 109.26 520.84 110.062C520.84 110.865 520.968 111.609 521.223 112.297C521.478 112.984 521.871 113.539 522.403 113.961C522.934 114.383 523.611 114.594 524.434 114.594ZM533.87 108.781V116H532.026V104H533.807V105.875H533.963C534.245 105.266 534.672 104.776 535.245 104.406C535.818 104.031 536.557 103.844 537.463 103.844C538.276 103.844 538.987 104.01 539.596 104.344C540.206 104.672 540.68 105.172 541.018 105.844C541.357 106.51 541.526 107.354 541.526 108.375V116H539.682V108.5C539.682 107.557 539.437 106.823 538.948 106.297C538.458 105.766 537.786 105.5 536.932 105.5C536.344 105.5 535.818 105.628 535.354 105.883C534.896 106.138 534.534 106.51 534.268 107C534.003 107.49 533.87 108.083 533.87 108.781Z" fill="#919191"/>
<path d="M132.537 79H129.767L137.778 57.1818H140.506L148.517 79H145.747L139.227 60.6335H139.057L132.537 79ZM133.56 70.4773H144.724V72.821H133.56V70.4773ZM156.854 79.3409C155.49 79.3409 154.286 78.9964 153.242 78.3075C152.198 77.6115 151.381 76.6314 150.792 75.3672C150.202 74.0959 149.908 72.5938 149.908 70.8608C149.908 69.142 150.202 67.6506 150.792 66.3864C151.381 65.1222 152.202 64.1456 153.253 63.4567C154.304 62.7678 155.518 62.4233 156.896 62.4233C157.962 62.4233 158.803 62.6009 159.421 62.956C160.046 63.304 160.522 63.7017 160.849 64.1491C161.182 64.5895 161.442 64.9517 161.626 65.2358H161.839V57.1818H164.354V79H161.925V76.4858H161.626C161.442 76.7841 161.179 77.1605 160.838 77.6151C160.497 78.0625 160.011 78.4638 159.378 78.8189C158.746 79.1669 157.905 79.3409 156.854 79.3409ZM157.194 77.0824C158.203 77.0824 159.055 76.8196 159.751 76.294C160.447 75.7614 160.976 75.0263 161.339 74.0888C161.701 73.1442 161.882 72.054 161.882 70.8182C161.882 69.5966 161.704 68.5277 161.349 67.6115C160.994 66.6882 160.469 65.9709 159.773 65.4595C159.077 64.9411 158.217 64.6818 157.194 64.6818C156.129 64.6818 155.241 64.9553 154.531 65.5021C153.828 66.0419 153.299 66.777 152.944 67.7074C152.596 68.6307 152.422 69.6676 152.422 70.8182C152.422 71.983 152.599 73.0412 152.954 73.9929C153.317 74.9375 153.849 75.6903 154.552 76.2514C155.263 76.8054 156.143 77.0824 157.194 77.0824ZM174.586 79.3409C173.223 79.3409 172.019 78.9964 170.975 78.3075C169.931 77.6115 169.114 76.6314 168.525 75.3672C167.935 74.0959 167.64 72.5938 167.64 70.8608C167.64 69.142 167.935 67.6506 168.525 66.3864C169.114 65.1222 169.934 64.1456 170.986 63.4567C172.037 62.7678 173.251 62.4233 174.629 62.4233C175.694 62.4233 176.536 62.6009 177.154 62.956C177.779 63.304 178.255 63.7017 178.581 64.1491C178.915 64.5895 179.174 64.9517 179.359 65.2358H179.572V57.1818H182.086V79H179.657V76.4858H179.359C179.174 76.7841 178.912 77.1605 178.571 77.6151C178.23 78.0625 177.743 78.4638 177.111 78.8189C176.479 79.1669 175.638 79.3409 174.586 79.3409ZM174.927 77.0824C175.936 77.0824 176.788 76.8196 177.484 76.294C178.18 75.7614 178.709 75.0263 179.071 74.0888C179.434 73.1442 179.615 72.054 179.615 70.8182C179.615 69.5966 179.437 68.5277 179.082 67.6115C178.727 66.6882 178.201 65.9709 177.505 65.4595C176.809 64.9411 175.95 64.6818 174.927 64.6818C173.862 64.6818 172.974 64.9553 172.264 65.5021C171.561 66.0419 171.032 66.777 170.677 67.7074C170.329 68.6307 170.155 69.6676 170.155 70.8182C170.155 71.983 170.332 73.0412 170.687 73.9929C171.049 74.9375 171.582 75.6903 172.285 76.2514C172.995 76.8054 173.876 77.0824 174.927 77.0824ZM200.794 62.6364V64.767H192.314V62.6364H200.794ZM194.786 58.7159H197.3V74.3125C197.3 75.0227 197.403 75.5554 197.609 75.9105C197.822 76.2585 198.092 76.4929 198.418 76.6136C198.752 76.7273 199.104 76.7841 199.473 76.7841C199.75 76.7841 199.977 76.7699 200.155 76.7415C200.333 76.706 200.475 76.6776 200.581 76.6562L201.092 78.9148C200.922 78.9787 200.684 79.0426 200.379 79.1065C200.073 79.1776 199.686 79.2131 199.217 79.2131C198.507 79.2131 197.811 79.0604 197.129 78.755C196.455 78.4496 195.894 77.9844 195.446 77.3594C195.006 76.7344 194.786 75.946 194.786 74.9943V58.7159ZM210.148 79.3409C208.671 79.3409 207.375 78.9893 206.26 78.2862C205.152 77.5831 204.285 76.5994 203.66 75.3352C203.042 74.071 202.733 72.5937 202.733 70.9034C202.733 69.1989 203.042 67.7109 203.66 66.4396C204.285 65.1683 205.152 64.1811 206.26 63.478C207.375 62.7749 208.671 62.4233 210.148 62.4233C211.625 62.4233 212.918 62.7749 214.026 63.478C215.141 64.1811 216.007 65.1683 216.625 66.4396C217.25 67.7109 217.563 69.1989 217.563 70.9034C217.563 72.5937 217.25 74.071 216.625 75.3352C216.007 76.5994 215.141 77.5831 214.026 78.2862C212.918 78.9893 211.625 79.3409 210.148 79.3409ZM210.148 77.0824C211.27 77.0824 212.194 76.7947 212.918 76.2195C213.642 75.6442 214.179 74.8878 214.527 73.9503C214.875 73.0128 215.049 71.9972 215.049 70.9034C215.049 69.8097 214.875 68.7905 214.527 67.8459C214.179 66.9013 213.642 66.1378 212.918 65.5554C212.194 64.973 211.27 64.6818 210.148 64.6818C209.026 64.6818 208.103 64.973 207.378 65.5554C206.654 66.1378 206.118 66.9013 205.77 67.8459C205.422 68.7905 205.248 69.8097 205.248 70.9034C205.248 71.9972 205.422 73.0128 205.77 73.9503C206.118 74.8878 206.654 75.6442 207.378 76.2195C208.103 76.7947 209.026 77.0824 210.148 77.0824ZM226.68 79.3409C225.316 79.3409 224.112 78.9964 223.068 78.3075C222.024 77.6115 221.207 76.6314 220.618 75.3672C220.028 74.0959 219.734 72.5938 219.734 70.8608C219.734 69.142 220.028 67.6506 220.618 66.3864C221.207 65.1222 222.028 64.1456 223.079 63.4567C224.13 62.7678 225.344 62.4233 226.722 62.4233C227.788 62.4233 228.629 62.6009 229.247 62.956C229.872 63.304 230.348 63.7017 230.675 64.1491C231.009 64.5895 231.268 64.9517 231.452 65.2358H231.666V57.1818H234.18V79H231.751V76.4858H231.452C231.268 76.7841 231.005 77.1605 230.664 77.6151C230.323 78.0625 229.837 78.4638 229.205 78.8189C228.572 79.1669 227.731 79.3409 226.68 79.3409ZM227.021 77.0824C228.029 77.0824 228.881 76.8196 229.577 76.294C230.273 75.7614 230.803 75.0263 231.165 74.0888C231.527 73.1442 231.708 72.054 231.708 70.8182C231.708 69.5966 231.531 68.5277 231.175 67.6115C230.82 66.6882 230.295 65.9709 229.599 65.4595C228.903 64.9411 228.043 64.6818 227.021 64.6818C225.955 64.6818 225.068 64.9553 224.357 65.5021C223.654 66.0419 223.125 66.777 222.77 67.7074C222.422 68.6307 222.248 69.6676 222.248 70.8182C222.248 71.983 222.425 73.0412 222.781 73.9929C223.143 74.9375 223.675 75.6903 224.379 76.2514C225.089 76.8054 225.969 77.0824 227.021 77.0824ZM243.049 79.3835C242.012 79.3835 241.071 79.1882 240.226 78.7976C239.381 78.3999 238.709 77.8281 238.212 77.0824C237.715 76.3295 237.467 75.4205 237.467 74.3551C237.467 73.4176 237.651 72.6577 238.02 72.0753C238.39 71.4858 238.883 71.0241 239.501 70.6903C240.119 70.3565 240.801 70.108 241.547 69.9446C242.3 69.7741 243.056 69.6392 243.816 69.5398C244.81 69.4119 245.616 69.3161 246.234 69.2521C246.859 69.1811 247.314 69.0639 247.598 68.9006C247.889 68.7372 248.035 68.4531 248.035 68.0483V67.9631C248.035 66.9119 247.747 66.0952 247.172 65.5128C246.604 64.9304 245.741 64.6392 244.583 64.6392C243.383 64.6392 242.442 64.902 241.76 65.4276C241.078 65.9531 240.599 66.5142 240.322 67.1108L237.935 66.2585C238.361 65.2642 238.93 64.4901 239.64 63.9361C240.357 63.375 241.138 62.9844 241.984 62.7642C242.836 62.5369 243.674 62.4233 244.498 62.4233C245.023 62.4233 245.627 62.4872 246.309 62.6151C246.998 62.7358 247.662 62.9879 248.301 63.3714C248.947 63.755 249.484 64.3338 249.91 65.108C250.336 65.8821 250.549 66.919 250.549 68.2188V79H248.035V76.7841H247.907C247.736 77.1392 247.452 77.5192 247.055 77.924C246.657 78.3288 246.128 78.6733 245.467 78.9574C244.807 79.2415 244.001 79.3835 243.049 79.3835ZM243.432 77.125C244.427 77.125 245.265 76.9297 245.947 76.5391C246.636 76.1484 247.154 75.6442 247.502 75.0263C247.857 74.4084 248.035 73.7585 248.035 73.0767V70.7756C247.928 70.9034 247.694 71.0206 247.332 71.1271C246.976 71.2266 246.565 71.3153 246.096 71.3935C245.634 71.4645 245.183 71.5284 244.743 71.5852C244.31 71.6349 243.958 71.6776 243.688 71.7131C243.035 71.7983 242.424 71.9368 241.856 72.1286C241.295 72.3132 240.84 72.5937 240.492 72.9702C240.151 73.3395 239.981 73.8437 239.981 74.483C239.981 75.3565 240.304 76.017 240.95 76.4645C241.604 76.9048 242.431 77.125 243.432 77.125ZM255.271 85.1364C254.845 85.1364 254.465 85.1009 254.131 85.0298C253.798 84.9659 253.567 84.902 253.439 84.8381L254.078 82.6222C254.689 82.7784 255.229 82.8352 255.697 82.7926C256.166 82.75 256.582 82.5405 256.944 82.1641C257.313 81.7947 257.651 81.1946 257.956 80.3636L258.425 79.0852L252.374 62.6364H255.101L259.618 75.6761H259.788L264.305 62.6364H267.033L260.087 81.3864C259.774 82.2315 259.387 82.9311 258.925 83.4851C258.464 84.0462 257.927 84.4616 257.317 84.7315C256.713 85.0014 256.031 85.1364 255.271 85.1364ZM271.624 57.1818V64.6818H269.281V57.1818H271.624ZM286.792 66.3011L284.534 66.9403C284.392 66.5639 284.182 66.1982 283.905 65.843C283.635 65.4808 283.266 65.1825 282.797 64.9482C282.329 64.7138 281.729 64.5966 280.997 64.5966C279.996 64.5966 279.161 64.8274 278.493 65.2891C277.833 65.7436 277.503 66.3224 277.503 67.0256C277.503 67.6506 277.73 68.1442 278.184 68.5064C278.639 68.8686 279.349 69.1705 280.315 69.4119L282.744 70.0085C284.207 70.3636 285.297 70.907 286.015 71.6385C286.732 72.3629 287.091 73.2969 287.091 74.4403C287.091 75.3778 286.821 76.2159 286.281 76.9545C285.748 77.6932 285.003 78.2756 284.044 78.7017C283.085 79.1278 281.97 79.3409 280.699 79.3409C279.03 79.3409 277.648 78.9787 276.555 78.2543C275.461 77.5298 274.768 76.4716 274.477 75.0795L276.863 74.483C277.091 75.3636 277.52 76.0241 278.153 76.4645C278.792 76.9048 279.626 77.125 280.656 77.125C281.828 77.125 282.758 76.8764 283.447 76.3793C284.143 75.875 284.491 75.2713 284.491 74.5682C284.491 74 284.292 73.5241 283.895 73.1406C283.497 72.75 282.886 72.4588 282.062 72.267L279.335 71.6278C277.836 71.2727 276.736 70.7223 276.032 69.9766C275.336 69.2237 274.988 68.2827 274.988 67.1534C274.988 66.2301 275.248 65.4134 275.766 64.7031C276.292 63.9929 277.006 63.4354 277.907 63.0305C278.817 62.6257 279.846 62.4233 280.997 62.4233C282.616 62.4233 283.888 62.7784 284.811 63.4886C285.741 64.1989 286.402 65.1364 286.792 66.3011ZM300.027 69.1562V79H297.513V62.6364H299.942V65.1932H300.155C300.538 64.3622 301.121 63.6946 301.902 63.1903C302.683 62.679 303.692 62.4233 304.928 62.4233C306.036 62.4233 307.005 62.6506 307.836 63.1051C308.667 63.5526 309.313 64.2344 309.775 65.1506C310.237 66.0597 310.467 67.2102 310.467 68.6023V79H307.953V68.7727C307.953 67.4872 307.619 66.4858 306.952 65.7685C306.284 65.044 305.368 64.6818 304.203 64.6818C303.401 64.6818 302.683 64.8558 302.051 65.2038C301.426 65.5518 300.933 66.0597 300.57 66.7273C300.208 67.3949 300.027 68.2045 300.027 69.1562ZM320.809 79.3409C319.332 79.3409 318.036 78.9893 316.921 78.2862C315.813 77.5831 314.946 76.5994 314.321 75.3352C313.704 74.071 313.395 72.5937 313.395 70.9034C313.395 69.1989 313.704 67.7109 314.321 66.4396C314.946 65.1683 315.813 64.1811 316.921 63.478C318.036 62.7749 319.332 62.4233 320.809 62.4233C322.287 62.4233 323.579 62.7749 324.687 63.478C325.802 64.1811 326.669 65.1683 327.287 66.4396C327.912 67.7109 328.224 69.1989 328.224 70.9034C328.224 72.5937 327.912 74.071 327.287 75.3352C326.669 76.5994 325.802 77.5831 324.687 78.2862C323.579 78.9893 322.287 79.3409 320.809 79.3409ZM320.809 77.0824C321.932 77.0824 322.855 76.7947 323.579 76.2195C324.304 75.6442 324.84 74.8878 325.188 73.9503C325.536 73.0128 325.71 71.9972 325.71 70.9034C325.71 69.8097 325.536 68.7905 325.188 67.8459C324.84 66.9013 324.304 66.1378 323.579 65.5554C322.855 64.973 321.932 64.6818 320.809 64.6818C319.687 64.6818 318.764 64.973 318.04 65.5554C317.315 66.1378 316.779 66.9013 316.431 67.8459C316.083 68.7905 315.909 69.8097 315.909 70.9034C315.909 71.9972 316.083 73.0128 316.431 73.9503C316.779 74.8878 317.315 75.6442 318.04 76.2195C318.764 76.7947 319.687 77.0824 320.809 77.0824ZM338.279 62.6364V64.767H329.798V62.6364H338.279ZM332.27 58.7159H334.784V74.3125C334.784 75.0227 334.887 75.5554 335.093 75.9105C335.306 76.2585 335.576 76.4929 335.903 76.6136C336.237 76.7273 336.588 76.7841 336.958 76.7841C337.235 76.7841 337.462 76.7699 337.639 76.7415C337.817 76.706 337.959 76.6776 338.065 76.6562L338.577 78.9148C338.406 78.9787 338.168 79.0426 337.863 79.1065C337.558 79.1776 337.171 79.2131 336.702 79.2131C335.992 79.2131 335.296 79.0604 334.614 78.755C333.939 78.4496 333.378 77.9844 332.931 77.3594C332.49 76.7344 332.27 75.946 332.27 74.9943V58.7159ZM347.846 79.3409C346.269 79.3409 344.909 78.9929 343.765 78.2969C342.629 77.5938 341.752 76.6136 341.134 75.3565C340.523 74.0923 340.218 72.6222 340.218 70.946C340.218 69.2699 340.523 67.7926 341.134 66.5142C341.752 65.2287 342.611 64.2273 343.712 63.5099C344.82 62.7855 346.113 62.4233 347.59 62.4233C348.442 62.4233 349.284 62.5653 350.115 62.8494C350.946 63.1335 351.702 63.5952 352.384 64.2344C353.066 64.8665 353.609 65.7045 354.014 66.7486C354.419 67.7926 354.621 69.0781 354.621 70.6051V71.6705H342.007V69.4972H352.064C352.064 68.5739 351.88 67.75 351.51 67.0256C351.148 66.3011 350.63 65.7294 349.955 65.3104C349.287 64.8913 348.499 64.6818 347.59 64.6818C346.588 64.6818 345.722 64.9304 344.99 65.4276C344.266 65.9176 343.708 66.5568 343.318 67.3452C342.927 68.1335 342.732 68.9787 342.732 69.8807V71.3295C342.732 72.5653 342.945 73.6129 343.371 74.4723C343.804 75.3246 344.404 75.9744 345.172 76.4219C345.939 76.8622 346.83 77.0824 347.846 77.0824C348.506 77.0824 349.103 76.9901 349.635 76.8054C350.175 76.6136 350.64 76.3295 351.031 75.9531C351.422 75.5696 351.723 75.0937 351.936 74.5256L354.365 75.2074C354.11 76.0312 353.68 76.7557 353.076 77.3807C352.473 77.9986 351.727 78.4815 350.839 78.8295C349.951 79.1705 348.953 79.3409 347.846 79.3409Z" fill="white"/>
<path d="M644 86.5L633.361 97L632 95.5117L641.129 86.5L632 77.4883L633.361 76L644 86.5Z" fill="#919191"/>
<path d="M84.6481 77.1518L79.8482 72.3519C79.7368 72.2404 79.6044 72.1519 79.4588 72.0915C79.3131 72.0311 79.1569 72 78.9992 72C78.8416 72 78.6854 72.0311 78.5397 72.0915C78.3941 72.1519 78.2617 72.2404 78.1503 72.3519L63.7507 86.7515C63.6393 86.863 63.551 86.9954 63.4908 87.141C63.4305 87.2867 63.3996 87.4428 63.3997 87.6005V92.4003C63.3997 92.7186 63.5262 93.0238 63.7512 93.2488C63.9762 93.4738 64.2814 93.6003 64.5997 93.6003H69.3995C69.5572 93.6004 69.7133 93.5695 69.859 93.5092C70.0046 93.449 70.137 93.3607 70.2485 93.2493L84.6481 78.8497C84.7596 78.7383 84.8481 78.6059 84.9085 78.4603C84.9689 78.3146 85 78.1584 85 78.0008C85 77.8431 84.9689 77.6869 84.9085 77.5412C84.8481 77.3956 84.7596 77.2632 84.6481 77.1518ZM68.9031 91.2003H65.7997V88.0969L75.3994 78.4972L78.5028 81.6006L68.9031 91.2003ZM80.1992 79.9042L77.0958 76.8008L78.9992 74.8974L82.1026 78.0008L80.1992 79.9042ZM83.7991 87.6005V99.6001C83.7991 100.237 83.5462 100.847 83.0962 101.297C82.6461 101.747 82.0357 102 81.3992 102H57.3999C56.7634 102 56.153 101.747 55.7029 101.297C55.2528 100.847 55 100.237 55 99.6001V75.6008C55 74.9643 55.2528 74.3539 55.7029 73.9038C56.153 73.4538 56.7634 73.2009 57.3999 73.2009H69.3995C69.7178 73.2009 70.023 73.3273 70.248 73.5524C70.4731 73.7774 70.5995 74.0826 70.5995 74.4009C70.5995 74.7191 70.4731 75.0243 70.248 75.2494C70.023 75.4744 69.7178 75.6008 69.3995 75.6008H57.3999V99.6001H81.3992V87.6005C81.3992 87.2822 81.5256 86.977 81.7506 86.752C81.9757 86.5269 82.2809 86.4005 82.5991 86.4005C82.9174 86.4005 83.2226 86.5269 83.4476 86.752C83.6727 86.977 83.7991 87.2822 83.7991 87.6005Z" fill="#919191"/>
</svg>
