<svg width="643" height="136" viewBox="0 0 643 136" fill="none" xmlns="http://www.w3.org/2000/svg">
<rect width="643" height="136" rx="68" fill="#1B1B1B" fill-opacity="0.66"/>
<ellipse cx="574.818" cy="68.463" rx="60.6068" ry="60.4024" fill="#232323"/>
<path d="M571.316 51.5785C572.268 47.6639 577.856 47.6639 578.809 51.5785C578.952 52.1666 579.232 52.7127 579.627 53.1724C580.022 53.6321 580.52 53.9924 581.081 54.224C581.642 54.4556 582.249 54.552 582.855 54.5052C583.46 54.4584 584.046 54.2699 584.564 53.9549C588.016 51.8594 591.968 55.7962 589.865 59.2382C589.55 59.7546 589.361 60.3379 589.314 60.9408C589.267 61.5437 589.364 62.149 589.596 62.7077C589.828 63.2664 590.189 63.7626 590.65 64.156C591.111 64.5494 591.658 64.8289 592.248 64.9718C596.175 65.9214 596.175 71.49 592.248 72.4397C591.658 72.5822 591.11 72.8615 590.648 73.255C590.187 73.6484 589.825 74.1448 589.593 74.7038C589.361 75.2628 589.264 75.8686 589.311 76.4719C589.358 77.0752 589.547 77.6589 589.863 78.1755C591.966 81.6153 588.016 85.5543 584.562 83.4588C584.044 83.1443 583.458 82.956 582.853 82.9094C582.249 82.8627 581.641 82.9589 581.081 83.1903C580.52 83.4216 580.022 83.7815 579.627 84.2407C579.233 84.6999 578.952 85.2454 578.809 85.833C577.856 89.7475 572.268 89.7475 571.316 85.833C571.173 85.2449 570.892 84.6988 570.498 84.2391C570.103 83.7794 569.605 83.419 569.044 83.1874C568.483 82.9558 567.875 82.8595 567.27 82.9063C566.664 82.953 566.079 83.1416 565.56 83.4566C562.109 85.5521 558.156 81.6153 560.259 78.1733C560.575 77.6569 560.763 77.0735 560.81 76.4707C560.857 75.8678 560.761 75.2624 560.528 74.7038C560.296 74.1451 559.935 73.6489 559.474 73.2555C559.014 72.8621 558.466 72.5826 557.877 72.4397C553.949 71.49 553.949 65.9214 557.877 64.9718C558.467 64.8293 559.015 64.5499 559.476 64.1565C559.937 63.7631 560.299 63.2666 560.531 62.7076C560.764 62.1486 560.86 61.5428 560.813 60.9395C560.766 60.3363 560.577 59.7526 560.261 59.2359C558.159 55.7962 562.109 51.8571 565.562 53.9526C567.799 55.308 570.698 54.1087 571.316 51.5785Z" stroke="#919191" stroke-width="2.5" stroke-linecap="round" stroke-linejoin="round"/>
<path d="M568.189 68.5433C568.189 70.317 568.896 72.0181 570.154 73.2723C571.413 74.5264 573.12 75.231 574.899 75.231C576.679 75.231 578.386 74.5264 579.644 73.2723C580.903 72.0181 581.61 70.317 581.61 68.5433C581.61 66.7696 580.903 65.0686 579.644 63.8144C578.386 62.5602 576.679 61.8556 574.899 61.8556C573.12 61.8556 571.413 62.5602 570.154 63.8144C568.896 65.0686 568.189 66.7696 568.189 68.5433Z" stroke="#919191" stroke-width="2.5" stroke-linecap="round" stroke-linejoin="round"/>
<ellipse cx="195.078" cy="68.463" rx="60.6068" ry="60.4024" fill="#232323"/>
<path d="M188.448 48.6426H182.057C181.492 48.6426 180.95 48.8722 180.55 49.281C180.151 49.6898 179.927 50.2442 179.927 50.8223V81.3381C179.927 81.9162 180.151 82.4706 180.55 82.8794C180.95 83.2881 181.492 83.5178 182.057 83.5178H188.448M188.448 48.6426H205.49C206.62 48.6426 207.704 49.1019 208.503 49.9194C209.302 50.737 209.751 51.8458 209.751 53.002V79.1584C209.751 80.3146 209.302 81.4234 208.503 82.2409C207.704 83.0585 206.62 83.5178 205.49 83.5178H188.448M188.448 48.6426V83.5178M188.448 83.5178V87.8772M196.969 57.3614H201.229M196.969 66.0802H201.229" stroke="#919191" stroke-width="2.5" stroke-linecap="round" stroke-linejoin="round"/>
<ellipse cx="447.922" cy="68.463" rx="60.6068" ry="60.4024" fill="#232323"/>
<path d="M447.476 74.9598C444.053 74.9598 440.77 73.5735 438.35 71.1057C435.93 68.638 434.57 65.2911 434.57 61.8012C434.57 58.3113 435.93 54.9644 438.35 52.4966C440.77 50.0289 444.053 48.6426 447.476 48.6426C450.898 48.6426 454.181 50.0289 456.601 52.4966C459.021 54.9644 460.381 58.3113 460.381 61.8012C460.381 65.2911 459.021 68.638 456.601 71.1057C454.181 73.5735 450.898 74.9598 447.476 74.9598ZM447.476 74.9598L454.788 87.8772L458.226 80.7869L465.964 81.2957L458.651 68.3805M436.295 68.3805L428.982 81.2979L436.721 80.7869L440.158 87.875L447.471 74.9598" stroke="#919191" stroke-width="2.5" stroke-linecap="round" stroke-linejoin="round"/>
<ellipse cx="69.1297" cy="68.463" rx="60.6068" ry="60.4024" fill="#363636"/>
<path d="M67.1929 50.4204C68.5226 49.3104 70.4604 49.3104 71.79 50.4204L86.5646 62.7555C87.4537 63.4977 87.9273 64.6233 87.8345 65.7754L86.4411 83.0207C86.441 84.2713 85.9312 85.4708 85.0233 86.3552C84.1151 87.2398 82.8826 87.7369 81.5982 87.7369H57.3847C56.1003 87.7369 54.8678 87.2398 53.9596 86.3552C53.0517 85.4708 52.542 84.2714 52.5418 83.0207L51.1485 65.7754C51.0556 64.6233 51.5292 63.4977 52.4183 62.7555L67.1929 50.4204ZM69.4915 68.7141C67.8443 68.7141 66.5091 70.0448 66.5091 71.6864V78.82C66.5091 80.4615 67.8443 81.7923 69.4915 81.7923C71.1385 81.7922 72.4739 80.4615 72.4739 78.82V71.6864C72.4739 70.0449 71.1385 68.7142 69.4915 68.7141Z" fill="#FEFEFE"/>
<path d="M321.973 8.56055C355.171 8.56055 382.081 35.3813 382.081 68.4629C382.081 101.544 355.171 128.365 321.973 128.365C288.776 128.365 261.867 101.544 261.867 68.4629C261.867 35.3814 288.776 8.56073 321.973 8.56055Z" fill="url(#paint0_radial_1311_652)" stroke="url(#paint1_linear_1311_652)"/>
<path d="M321.974 48.6426C332.957 48.6426 341.861 57.5161 341.861 68.4621C341.861 79.4082 332.957 88.2817 321.974 88.2817C310.991 88.2817 302.087 79.4082 302.087 68.4621C302.087 57.5161 310.991 48.6426 321.974 48.6426ZM322.127 53.8628C322.003 53.3909 321.363 53.41 321.267 53.8883C320.635 57.0163 319.432 63.5887 319.416 68.2971C319.4 73.1417 320.628 79.9162 321.267 83.1096C321.363 83.5885 322.003 83.6074 322.126 83.1346C322.954 79.9585 324.553 73.1803 324.532 68.2971C324.511 63.5494 322.944 56.9736 322.127 53.8628Z" fill="#FEFEFE"/>
<defs>
<radialGradient id="paint0_radial_1311_652" cx="0" cy="0" r="1" gradientTransform="matrix(85.2095 -75.3535 75.6085 84.9222 287.77 98.3652)" gradientUnits="userSpaceOnUse">
<stop stop-color="#431414"/>
<stop offset="0.620192" stop-color="#A81312"/>
<stop offset="1" stop-color="#F18585"/>
</radialGradient>
<linearGradient id="paint1_linear_1311_652" x1="278.769" y1="143.218" x2="353.442" y2="38.3222" gradientUnits="userSpaceOnUse">
<stop stop-color="#F18585"/>
<stop offset="1" stop-color="#441111" stop-opacity="0"/>
</linearGradient>
</defs>
</svg>
