<svg width="336" height="276" viewBox="0 0 336 276" fill="none" xmlns="http://www.w3.org/2000/svg">
<rect width="336" height="276" rx="54" fill="#0E0E0E"/>
<path d="M100.219 212.25C99.2188 212.25 98.3359 211.997 97.5703 211.492C96.8047 210.982 96.2057 210.263 95.7734 209.336C95.3411 208.404 95.125 207.302 95.125 206.031C95.125 204.771 95.3411 203.677 95.7734 202.75C96.2057 201.823 96.8073 201.107 97.5781 200.602C98.349 200.096 99.2396 199.844 100.25 199.844C101.031 199.844 101.648 199.974 102.102 200.234C102.56 200.49 102.909 200.781 103.148 201.109C103.393 201.432 103.583 201.698 103.719 201.906H103.875V196H105.719V212H103.938V210.156H103.719C103.583 210.375 103.391 210.651 103.141 210.984C102.891 211.312 102.534 211.607 102.07 211.867C101.607 212.122 100.99 212.25 100.219 212.25ZM100.469 210.594C101.208 210.594 101.833 210.401 102.344 210.016C102.854 209.625 103.242 209.086 103.508 208.398C103.773 207.706 103.906 206.906 103.906 206C103.906 205.104 103.776 204.32 103.516 203.648C103.255 202.971 102.87 202.445 102.359 202.07C101.849 201.69 101.219 201.5 100.469 201.5C99.6875 201.5 99.0365 201.701 98.5156 202.102C98 202.497 97.612 203.036 97.3516 203.719C97.0964 204.396 96.9688 205.156 96.9688 206C96.9688 206.854 97.099 207.63 97.3594 208.328C97.625 209.021 98.0156 209.573 98.5313 209.984C99.0521 210.391 99.6979 210.594 100.469 210.594ZM112.223 212.281C111.462 212.281 110.772 212.138 110.153 211.852C109.533 211.56 109.041 211.141 108.676 210.594C108.311 210.042 108.129 209.375 108.129 208.594C108.129 207.906 108.264 207.349 108.535 206.922C108.806 206.49 109.168 206.151 109.621 205.906C110.074 205.661 110.574 205.479 111.121 205.359C111.673 205.234 112.228 205.135 112.785 205.063C113.514 204.969 114.106 204.898 114.559 204.852C115.017 204.799 115.35 204.714 115.559 204.594C115.772 204.474 115.879 204.266 115.879 203.969V203.906C115.879 203.135 115.668 202.536 115.246 202.109C114.83 201.682 114.197 201.469 113.348 201.469C112.468 201.469 111.778 201.661 111.278 202.047C110.778 202.432 110.426 202.844 110.223 203.281L108.473 202.656C108.785 201.927 109.202 201.359 109.723 200.953C110.249 200.542 110.822 200.255 111.442 200.094C112.067 199.927 112.681 199.844 113.285 199.844C113.671 199.844 114.113 199.891 114.613 199.984C115.119 200.073 115.606 200.258 116.074 200.539C116.548 200.82 116.942 201.245 117.254 201.812C117.567 202.38 117.723 203.141 117.723 204.094V212H115.879V210.375H115.785C115.66 210.635 115.452 210.914 115.16 211.211C114.869 211.508 114.481 211.76 113.996 211.969C113.512 212.177 112.921 212.281 112.223 212.281ZM112.504 210.625C113.233 210.625 113.848 210.482 114.348 210.195C114.853 209.909 115.233 209.539 115.488 209.086C115.749 208.633 115.879 208.156 115.879 207.656V205.969C115.801 206.062 115.629 206.148 115.363 206.227C115.103 206.299 114.801 206.365 114.457 206.422C114.119 206.474 113.788 206.521 113.465 206.562C113.147 206.599 112.889 206.63 112.692 206.656C112.212 206.719 111.764 206.82 111.348 206.961C110.936 207.096 110.603 207.302 110.348 207.578C110.098 207.849 109.973 208.219 109.973 208.687C109.973 209.328 110.21 209.812 110.684 210.141C111.163 210.464 111.77 210.625 112.504 210.625ZM121.186 216.5C120.873 216.5 120.595 216.474 120.35 216.422C120.105 216.375 119.936 216.328 119.842 216.281L120.311 214.656C120.759 214.771 121.155 214.813 121.498 214.781C121.842 214.75 122.147 214.596 122.412 214.32C122.683 214.049 122.931 213.609 123.155 213L123.498 212.063L119.061 200H121.061L124.373 209.562H124.498L127.811 200H129.811L124.717 213.75C124.488 214.37 124.204 214.883 123.866 215.289C123.527 215.701 123.134 216.005 122.686 216.203C122.243 216.401 121.743 216.5 121.186 216.5ZM140.084 202.687L138.428 203.156C138.324 202.88 138.17 202.612 137.967 202.352C137.769 202.086 137.499 201.867 137.155 201.695C136.811 201.523 136.371 201.437 135.834 201.437C135.1 201.437 134.488 201.607 133.999 201.945C133.514 202.279 133.272 202.703 133.272 203.219C133.272 203.677 133.439 204.039 133.772 204.305C134.105 204.57 134.626 204.792 135.334 204.969L137.116 205.406C138.189 205.667 138.988 206.065 139.514 206.602C140.04 207.133 140.303 207.818 140.303 208.656C140.303 209.344 140.105 209.958 139.709 210.5C139.319 211.042 138.772 211.469 138.069 211.781C137.366 212.094 136.548 212.25 135.616 212.25C134.392 212.25 133.379 211.984 132.577 211.453C131.775 210.922 131.267 210.146 131.053 209.125L132.803 208.687C132.97 209.333 133.285 209.818 133.749 210.141C134.217 210.464 134.829 210.625 135.584 210.625C136.444 210.625 137.126 210.443 137.631 210.078C138.142 209.708 138.397 209.266 138.397 208.75C138.397 208.333 138.251 207.984 137.959 207.703C137.668 207.417 137.22 207.203 136.616 207.062L134.616 206.594C133.517 206.333 132.709 205.93 132.194 205.383C131.683 204.831 131.428 204.141 131.428 203.312C131.428 202.635 131.618 202.036 131.999 201.516C132.384 200.995 132.907 200.586 133.569 200.289C134.235 199.992 134.991 199.844 135.834 199.844C137.022 199.844 137.954 200.104 138.631 200.625C139.314 201.146 139.798 201.833 140.084 202.687ZM147.946 212V200H149.727V201.812H149.852C150.071 201.219 150.467 200.737 151.04 200.367C151.613 199.997 152.259 199.812 152.977 199.812C153.113 199.812 153.282 199.815 153.485 199.82C153.688 199.826 153.842 199.833 153.946 199.844V201.719C153.884 201.703 153.74 201.68 153.516 201.648C153.298 201.612 153.066 201.594 152.821 201.594C152.238 201.594 151.717 201.716 151.259 201.961C150.805 202.201 150.446 202.534 150.18 202.961C149.92 203.383 149.79 203.865 149.79 204.406V212H147.946ZM160.138 212.25C158.981 212.25 157.984 211.995 157.145 211.484C156.312 210.969 155.669 210.25 155.216 209.328C154.768 208.401 154.544 207.323 154.544 206.094C154.544 204.865 154.768 203.781 155.216 202.844C155.669 201.901 156.299 201.167 157.106 200.641C157.919 200.109 158.867 199.844 159.95 199.844C160.575 199.844 161.192 199.948 161.802 200.156C162.411 200.365 162.966 200.703 163.466 201.172C163.966 201.635 164.364 202.25 164.661 203.016C164.958 203.781 165.106 204.724 165.106 205.844V206.625H155.856V205.031H163.231C163.231 204.354 163.096 203.75 162.825 203.219C162.56 202.687 162.179 202.268 161.685 201.961C161.195 201.654 160.617 201.5 159.95 201.5C159.216 201.5 158.58 201.682 158.044 202.047C157.513 202.406 157.104 202.875 156.817 203.453C156.531 204.031 156.388 204.651 156.388 205.312V206.375C156.388 207.281 156.544 208.049 156.856 208.68C157.174 209.305 157.614 209.781 158.177 210.109C158.739 210.432 159.393 210.594 160.138 210.594C160.622 210.594 161.06 210.526 161.45 210.391C161.846 210.25 162.187 210.042 162.474 209.766C162.76 209.484 162.981 209.135 163.138 208.719L164.919 209.219C164.731 209.823 164.416 210.354 163.974 210.812C163.531 211.266 162.984 211.62 162.333 211.875C161.682 212.125 160.95 212.25 160.138 212.25ZM167.251 212V200H169.032V201.875H169.189C169.439 201.234 169.842 200.737 170.4 200.383C170.957 200.023 171.626 199.844 172.407 199.844C173.199 199.844 173.858 200.023 174.384 200.383C174.915 200.737 175.329 201.234 175.626 201.875H175.751C176.058 201.255 176.519 200.763 177.134 200.398C177.748 200.029 178.485 199.844 179.345 199.844C180.418 199.844 181.295 200.18 181.978 200.852C182.66 201.518 183.001 202.557 183.001 203.969V212H181.157V203.969C181.157 203.083 180.915 202.451 180.431 202.07C179.946 201.69 179.376 201.5 178.72 201.5C177.876 201.5 177.222 201.755 176.759 202.266C176.295 202.771 176.064 203.411 176.064 204.187V212H174.189V203.781C174.189 203.099 173.967 202.549 173.525 202.133C173.082 201.711 172.512 201.5 171.814 201.5C171.334 201.5 170.887 201.628 170.47 201.883C170.058 202.138 169.725 202.492 169.47 202.945C169.22 203.393 169.095 203.911 169.095 204.5V212H167.251ZM189.243 212.281C188.483 212.281 187.793 212.138 187.173 211.852C186.553 211.56 186.061 211.141 185.697 210.594C185.332 210.042 185.15 209.375 185.15 208.594C185.15 207.906 185.285 207.349 185.556 206.922C185.827 206.49 186.189 206.151 186.642 205.906C187.095 205.661 187.595 205.479 188.142 205.359C188.694 205.234 189.249 205.135 189.806 205.063C190.535 204.969 191.126 204.898 191.579 204.852C192.038 204.799 192.371 204.714 192.579 204.594C192.793 204.474 192.9 204.266 192.9 203.969V203.906C192.9 203.135 192.689 202.536 192.267 202.109C191.85 201.682 191.217 201.469 190.368 201.469C189.488 201.469 188.798 201.661 188.298 202.047C187.798 202.432 187.447 202.844 187.243 203.281L185.493 202.656C185.806 201.927 186.223 201.359 186.743 200.953C187.269 200.542 187.842 200.255 188.462 200.094C189.087 199.927 189.702 199.844 190.306 199.844C190.691 199.844 191.134 199.891 191.634 199.984C192.139 200.073 192.626 200.258 193.095 200.539C193.569 200.82 193.962 201.245 194.275 201.812C194.587 202.38 194.743 203.141 194.743 204.094V212H192.9V210.375H192.806C192.681 210.635 192.473 210.914 192.181 211.211C191.889 211.508 191.501 211.76 191.017 211.969C190.533 212.177 189.941 212.281 189.243 212.281ZM189.525 210.625C190.254 210.625 190.868 210.482 191.368 210.195C191.874 209.909 192.254 209.539 192.509 209.086C192.769 208.633 192.9 208.156 192.9 207.656V205.969C192.822 206.062 192.65 206.148 192.384 206.227C192.124 206.299 191.822 206.365 191.478 206.422C191.139 206.474 190.809 206.521 190.486 206.562C190.168 206.599 189.91 206.63 189.712 206.656C189.233 206.719 188.785 206.82 188.368 206.961C187.957 207.096 187.624 207.302 187.368 207.578C187.118 207.849 186.993 208.219 186.993 208.687C186.993 209.328 187.23 209.812 187.704 210.141C188.184 210.464 188.79 210.625 189.525 210.625ZM197.449 212V200H199.292V212H197.449ZM198.386 198C198.027 198 197.717 197.878 197.456 197.633C197.201 197.388 197.074 197.094 197.074 196.75C197.074 196.406 197.201 196.112 197.456 195.867C197.717 195.622 198.027 195.5 198.386 195.5C198.746 195.5 199.053 195.622 199.308 195.867C199.568 196.112 199.699 196.406 199.699 196.75C199.699 197.094 199.568 197.388 199.308 197.633C199.053 197.878 198.746 198 198.386 198ZM203.853 204.781V212H202.009V200H203.791V201.875H203.947C204.228 201.266 204.655 200.776 205.228 200.406C205.801 200.031 206.541 199.844 207.447 199.844C208.259 199.844 208.97 200.01 209.58 200.344C210.189 200.672 210.663 201.172 211.002 201.844C211.34 202.51 211.509 203.354 211.509 204.375V212H209.666V204.5C209.666 203.557 209.421 202.823 208.931 202.297C208.442 201.766 207.77 201.5 206.916 201.5C206.327 201.5 205.801 201.628 205.338 201.883C204.879 202.138 204.517 202.51 204.252 203C203.986 203.49 203.853 204.083 203.853 204.781ZM214.219 212V200H216.062V212H214.219ZM215.156 198C214.797 198 214.487 197.878 214.226 197.633C213.971 197.388 213.844 197.094 213.844 196.75C213.844 196.406 213.971 196.112 214.226 195.867C214.487 195.622 214.797 195.5 215.156 195.5C215.515 195.5 215.823 195.622 216.078 195.867C216.338 196.112 216.469 196.406 216.469 196.75C216.469 197.094 216.338 197.388 216.078 197.633C215.823 197.878 215.515 198 215.156 198ZM220.623 204.781V212H218.779V200H220.56V201.875H220.717C220.998 201.266 221.425 200.776 221.998 200.406C222.571 200.031 223.31 199.844 224.217 199.844C225.029 199.844 225.74 200.01 226.35 200.344C226.959 200.672 227.433 201.172 227.771 201.844C228.11 202.51 228.279 203.354 228.279 204.375V212H226.435V204.5C226.435 203.557 226.191 202.823 225.701 202.297C225.212 201.766 224.54 201.5 223.685 201.5C223.097 201.5 222.571 201.628 222.107 201.883C221.649 202.138 221.287 202.51 221.021 203C220.756 203.49 220.623 204.083 220.623 204.781ZM235.832 216.75C234.941 216.75 234.176 216.635 233.535 216.406C232.895 216.182 232.361 215.885 231.934 215.516C231.512 215.151 231.176 214.76 230.926 214.344L232.395 213.313C232.561 213.531 232.772 213.781 233.027 214.062C233.283 214.349 233.632 214.596 234.074 214.805C234.522 215.018 235.108 215.125 235.832 215.125C236.801 215.125 237.6 214.891 238.231 214.422C238.861 213.953 239.176 213.219 239.176 212.219V209.781H239.02C238.884 210 238.691 210.271 238.441 210.594C238.197 210.911 237.843 211.195 237.379 211.445C236.921 211.69 236.301 211.812 235.52 211.812C234.551 211.812 233.681 211.583 232.91 211.125C232.145 210.667 231.538 210 231.09 209.125C230.647 208.25 230.426 207.187 230.426 205.937C230.426 204.708 230.642 203.638 231.074 202.727C231.507 201.81 232.108 201.102 232.879 200.602C233.65 200.096 234.54 199.844 235.551 199.844C236.332 199.844 236.952 199.974 237.41 200.234C237.874 200.49 238.228 200.781 238.473 201.109C238.723 201.432 238.915 201.698 239.051 201.906H239.238V200H241.02V212.344C241.02 213.375 240.785 214.214 240.316 214.859C239.853 215.51 239.228 215.987 238.441 216.289C237.66 216.596 236.79 216.75 235.832 216.75ZM235.77 210.156C236.509 210.156 237.134 209.987 237.645 209.648C238.155 209.31 238.543 208.823 238.809 208.188C239.074 207.552 239.207 206.792 239.207 205.906C239.207 205.042 239.077 204.279 238.816 203.617C238.556 202.956 238.171 202.437 237.66 202.062C237.15 201.687 236.52 201.5 235.77 201.5C234.988 201.5 234.337 201.698 233.816 202.094C233.301 202.49 232.913 203.021 232.652 203.688C232.397 204.354 232.27 205.094 232.27 205.906C232.27 206.74 232.4 207.477 232.66 208.117C232.926 208.753 233.316 209.253 233.832 209.617C234.353 209.977 234.999 210.156 235.77 210.156Z" fill="#919191"/>
<path d="M152.879 162V156.75L169.121 139.922C170.855 138.094 172.285 136.492 173.41 135.117C174.551 133.727 175.402 132.406 175.965 131.156C176.527 129.906 176.809 128.578 176.809 127.172C176.809 125.578 176.434 124.203 175.684 123.047C174.934 121.875 173.91 120.977 172.613 120.352C171.316 119.711 169.855 119.391 168.23 119.391C166.512 119.391 165.012 119.742 163.73 120.445C162.449 121.148 161.465 122.141 160.777 123.422C160.09 124.703 159.746 126.203 159.746 127.922H152.832C152.832 125 153.504 122.445 154.848 120.258C156.191 118.07 158.035 116.375 160.379 115.172C162.723 113.953 165.387 113.344 168.371 113.344C171.387 113.344 174.043 113.945 176.34 115.148C178.652 116.336 180.457 117.961 181.754 120.023C183.051 122.07 183.699 124.383 183.699 126.961C183.699 128.742 183.363 130.484 182.691 132.187C182.035 133.891 180.887 135.789 179.246 137.883C177.605 139.961 175.324 142.484 172.402 145.453L162.863 155.437V155.789H184.473V162H152.879Z" fill="white"/>
<path d="M167.625 63V79H165.75L157.031 66.4375H156.875V79H154.938V63H156.812L165.563 75.5937H165.719V63H167.625ZM175.467 79.25C174.384 79.25 173.433 78.9922 172.615 78.4766C171.803 77.9609 171.167 77.2396 170.709 76.3125C170.256 75.3854 170.029 74.3021 170.029 73.0625C170.029 71.8125 170.256 70.7214 170.709 69.7891C171.167 68.8568 171.803 68.1328 172.615 67.6172C173.433 67.1016 174.384 66.8438 175.467 66.8438C176.55 66.8438 177.498 67.1016 178.311 67.6172C179.128 68.1328 179.764 68.8568 180.217 69.7891C180.675 70.7214 180.904 71.8125 180.904 73.0625C180.904 74.3021 180.675 75.3854 180.217 76.3125C179.764 77.2396 179.128 77.9609 178.311 78.4766C177.498 78.9922 176.55 79.25 175.467 79.25ZM175.467 77.5938C176.29 77.5938 176.967 77.3828 177.498 76.9609C178.029 76.5391 178.423 75.9844 178.678 75.2969C178.933 74.6094 179.061 73.8646 179.061 73.0625C179.061 72.2604 178.933 71.513 178.678 70.8203C178.423 70.1276 178.029 69.5677 177.498 69.1406C176.967 68.7135 176.29 68.5 175.467 68.5C174.644 68.5 173.967 68.7135 173.436 69.1406C172.904 69.5677 172.511 70.1276 172.256 70.8203C172.001 71.513 171.873 72.2604 171.873 73.0625C171.873 73.8646 172.001 74.6094 172.256 75.2969C172.511 75.9844 172.904 76.5391 173.436 76.9609C173.967 77.3828 174.644 77.5938 175.467 77.5938ZM188.278 67V68.5625H182.059V67H188.278ZM183.871 64.125H185.715V75.5625C185.715 76.0833 185.791 76.474 185.942 76.7344C186.098 76.9896 186.296 77.1615 186.535 77.25C186.78 77.3333 187.038 77.375 187.309 77.375C187.512 77.375 187.679 77.3646 187.809 77.3437C187.939 77.3177 188.043 77.2969 188.121 77.2812L188.496 78.9375C188.371 78.9844 188.197 79.0313 187.973 79.0781C187.749 79.1302 187.465 79.1563 187.121 79.1563C186.601 79.1563 186.09 79.0443 185.59 78.8203C185.095 78.5964 184.684 78.2552 184.356 77.7969C184.033 77.3385 183.871 76.7604 183.871 76.0625V64.125ZM195.293 79.25C194.137 79.25 193.14 78.9948 192.301 78.4844C191.468 77.9688 190.825 77.25 190.372 76.3281C189.924 75.401 189.7 74.3229 189.7 73.0938C189.7 71.8646 189.924 70.7812 190.372 69.8437C190.825 68.901 191.455 68.1667 192.262 67.6406C193.075 67.1094 194.023 66.8438 195.106 66.8438C195.731 66.8438 196.348 66.9479 196.958 67.1562C197.567 67.3646 198.122 67.7031 198.622 68.1719C199.122 68.6354 199.52 69.25 199.817 70.0156C200.114 70.7812 200.262 71.724 200.262 72.8437V73.625H191.012V72.0312H198.387C198.387 71.3542 198.252 70.75 197.981 70.2187C197.715 69.6875 197.335 69.2682 196.84 68.9609C196.351 68.6536 195.773 68.5 195.106 68.5C194.372 68.5 193.736 68.6823 193.2 69.0469C192.668 69.4062 192.26 69.875 191.973 70.4531C191.687 71.0312 191.543 71.651 191.543 72.3125V73.375C191.543 74.2813 191.7 75.0495 192.012 75.6797C192.33 76.3047 192.77 76.7812 193.333 77.1094C193.895 77.4323 194.549 77.5938 195.293 77.5938C195.778 77.5938 196.215 77.526 196.606 77.3906C197.002 77.25 197.343 77.0417 197.629 76.7656C197.916 76.4844 198.137 76.1354 198.293 75.7187L200.075 76.2188C199.887 76.8229 199.572 77.3542 199.129 77.8125C198.687 78.2656 198.14 78.6198 197.489 78.875C196.838 79.125 196.106 79.25 195.293 79.25ZM210.907 69.6875L209.251 70.1562C209.146 69.8802 208.993 69.612 208.79 69.3516C208.592 69.0859 208.321 68.8672 207.977 68.6953C207.633 68.5234 207.193 68.4375 206.657 68.4375C205.923 68.4375 205.311 68.6068 204.821 68.9453C204.337 69.2786 204.094 69.7031 204.094 70.2187C204.094 70.6771 204.261 71.0391 204.594 71.3047C204.928 71.5703 205.449 71.7917 206.157 71.9687L207.938 72.4063C209.011 72.6667 209.811 73.0651 210.337 73.6016C210.863 74.1328 211.126 74.8177 211.126 75.6562C211.126 76.3437 210.928 76.9583 210.532 77.5C210.141 78.0417 209.594 78.4688 208.891 78.7813C208.188 79.0938 207.37 79.25 206.438 79.25C205.214 79.25 204.201 78.9844 203.399 78.4531C202.597 77.9219 202.089 77.1458 201.876 76.125L203.626 75.6875C203.792 76.3333 204.107 76.8177 204.571 77.1406C205.04 77.4635 205.652 77.625 206.407 77.625C207.266 77.625 207.949 77.4427 208.454 77.0781C208.964 76.7083 209.219 76.2656 209.219 75.75C209.219 75.3333 209.074 74.9844 208.782 74.7031C208.49 74.4167 208.042 74.2031 207.438 74.0625L205.438 73.5937C204.339 73.3333 203.532 72.9297 203.016 72.3828C202.506 71.8307 202.251 71.1406 202.251 70.3125C202.251 69.6354 202.441 69.0365 202.821 68.5156C203.206 67.9948 203.73 67.5859 204.391 67.2891C205.058 66.9922 205.813 66.8438 206.657 66.8438C207.844 66.8438 208.777 67.1042 209.454 67.625C210.136 68.1458 210.62 68.8333 210.907 69.6875Z" fill="#919191"/>
<path d="M130.286 65.2222H136.714M130.286 69.4444H136.714M130.286 73.6667H134.571M126 63.1111C126 62.5512 126.226 62.0142 126.628 61.6183C127.029 61.2224 127.575 61 128.143 61H138.857C139.425 61 139.971 61.2224 140.372 61.6183C140.774 62.0142 141 62.5512 141 63.1111V77.8889C141 78.4488 140.774 78.9858 140.372 79.3817C139.971 79.7776 139.425 80 138.857 80H128.143C127.575 80 127.029 79.7776 126.628 79.3817C126.226 78.9858 126 78.4488 126 77.8889V63.1111Z" stroke="#919191" stroke-width="1.5" stroke-linecap="round" stroke-linejoin="round"/>
</svg>
