<svg width="336" height="276" viewBox="0 0 336 276" fill="none" xmlns="http://www.w3.org/2000/svg">
<rect width="336" height="276" rx="54" fill="#0E0E0E"/>
<path d="M100.219 212.25C99.2188 212.25 98.3359 211.997 97.5703 211.492C96.8047 210.982 96.2057 210.263 95.7734 209.336C95.3411 208.404 95.125 207.302 95.125 206.031C95.125 204.771 95.3411 203.677 95.7734 202.75C96.2057 201.823 96.8073 201.107 97.5781 200.602C98.349 200.096 99.2396 199.844 100.25 199.844C101.031 199.844 101.648 199.974 102.102 200.234C102.56 200.49 102.909 200.781 103.148 201.109C103.393 201.432 103.583 201.698 103.719 201.906H103.875V196H105.719V212H103.938V210.156H103.719C103.583 210.375 103.391 210.651 103.141 210.984C102.891 211.312 102.534 211.607 102.07 211.867C101.607 212.122 100.99 212.25 100.219 212.25ZM100.469 210.594C101.208 210.594 101.833 210.401 102.344 210.016C102.854 209.625 103.242 209.086 103.508 208.398C103.773 207.706 103.906 206.906 103.906 206C103.906 205.104 103.776 204.32 103.516 203.648C103.255 202.971 102.87 202.445 102.359 202.07C101.849 201.69 101.219 201.5 100.469 201.5C99.6875 201.5 99.0365 201.701 98.5156 202.102C98 202.497 97.612 203.036 97.3516 203.719C97.0964 204.396 96.9688 205.156 96.9688 206C96.9688 206.854 97.099 207.63 97.3594 208.328C97.625 209.021 98.0156 209.573 98.5313 209.984C99.0521 210.391 99.6979 210.594 100.469 210.594ZM112.223 212.281C111.462 212.281 110.772 212.138 110.153 211.852C109.533 211.56 109.041 211.141 108.676 210.594C108.311 210.042 108.129 209.375 108.129 208.594C108.129 207.906 108.264 207.349 108.535 206.922C108.806 206.49 109.168 206.151 109.621 205.906C110.074 205.661 110.574 205.479 111.121 205.359C111.673 205.234 112.228 205.135 112.785 205.063C113.514 204.969 114.106 204.898 114.559 204.852C115.017 204.799 115.35 204.714 115.559 204.594C115.772 204.474 115.879 204.266 115.879 203.969V203.906C115.879 203.135 115.668 202.536 115.246 202.109C114.83 201.682 114.197 201.469 113.348 201.469C112.468 201.469 111.778 201.661 111.278 202.047C110.778 202.432 110.426 202.844 110.223 203.281L108.473 202.656C108.785 201.927 109.202 201.359 109.723 200.953C110.249 200.542 110.822 200.255 111.442 200.094C112.067 199.927 112.681 199.844 113.285 199.844C113.671 199.844 114.113 199.891 114.613 199.984C115.119 200.073 115.606 200.258 116.074 200.539C116.548 200.82 116.942 201.245 117.254 201.812C117.567 202.38 117.723 203.141 117.723 204.094V212H115.879V210.375H115.785C115.66 210.635 115.452 210.914 115.16 211.211C114.869 211.508 114.481 211.76 113.996 211.969C113.512 212.177 112.921 212.281 112.223 212.281ZM112.504 210.625C113.233 210.625 113.848 210.482 114.348 210.195C114.853 209.909 115.233 209.539 115.488 209.086C115.749 208.633 115.879 208.156 115.879 207.656V205.969C115.801 206.062 115.629 206.148 115.363 206.227C115.103 206.299 114.801 206.365 114.457 206.422C114.119 206.474 113.788 206.521 113.465 206.562C113.147 206.599 112.889 206.63 112.692 206.656C112.212 206.719 111.764 206.82 111.348 206.961C110.936 207.096 110.603 207.302 110.348 207.578C110.098 207.849 109.973 208.219 109.973 208.687C109.973 209.328 110.21 209.812 110.684 210.141C111.163 210.464 111.77 210.625 112.504 210.625ZM121.186 216.5C120.873 216.5 120.595 216.474 120.35 216.422C120.105 216.375 119.936 216.328 119.842 216.281L120.311 214.656C120.759 214.771 121.155 214.813 121.498 214.781C121.842 214.75 122.147 214.596 122.412 214.32C122.683 214.049 122.931 213.609 123.155 213L123.498 212.063L119.061 200H121.061L124.373 209.562H124.498L127.811 200H129.811L124.717 213.75C124.488 214.37 124.204 214.883 123.866 215.289C123.527 215.701 123.134 216.005 122.686 216.203C122.243 216.401 121.743 216.5 121.186 216.5ZM140.084 202.687L138.428 203.156C138.324 202.88 138.17 202.612 137.967 202.352C137.769 202.086 137.499 201.867 137.155 201.695C136.811 201.523 136.371 201.437 135.834 201.437C135.1 201.437 134.488 201.607 133.999 201.945C133.514 202.279 133.272 202.703 133.272 203.219C133.272 203.677 133.439 204.039 133.772 204.305C134.105 204.57 134.626 204.792 135.334 204.969L137.116 205.406C138.189 205.667 138.988 206.065 139.514 206.602C140.04 207.133 140.303 207.818 140.303 208.656C140.303 209.344 140.105 209.958 139.709 210.5C139.319 211.042 138.772 211.469 138.069 211.781C137.366 212.094 136.548 212.25 135.616 212.25C134.392 212.25 133.379 211.984 132.577 211.453C131.775 210.922 131.267 210.146 131.053 209.125L132.803 208.687C132.97 209.333 133.285 209.818 133.749 210.141C134.217 210.464 134.829 210.625 135.584 210.625C136.444 210.625 137.126 210.443 137.631 210.078C138.142 209.708 138.397 209.266 138.397 208.75C138.397 208.333 138.251 207.984 137.959 207.703C137.668 207.417 137.22 207.203 136.616 207.062L134.616 206.594C133.517 206.333 132.709 205.93 132.194 205.383C131.683 204.831 131.428 204.141 131.428 203.312C131.428 202.635 131.618 202.036 131.999 201.516C132.384 200.995 132.907 200.586 133.569 200.289C134.235 199.992 134.991 199.844 135.834 199.844C137.022 199.844 137.954 200.104 138.631 200.625C139.314 201.146 139.798 201.833 140.084 202.687ZM147.946 212V200H149.727V201.812H149.852C150.071 201.219 150.467 200.737 151.04 200.367C151.613 199.997 152.259 199.812 152.977 199.812C153.113 199.812 153.282 199.815 153.485 199.82C153.688 199.826 153.842 199.833 153.946 199.844V201.719C153.884 201.703 153.74 201.68 153.516 201.648C153.298 201.612 153.066 201.594 152.821 201.594C152.238 201.594 151.717 201.716 151.259 201.961C150.805 202.201 150.446 202.534 150.18 202.961C149.92 203.383 149.79 203.865 149.79 204.406V212H147.946ZM160.138 212.25C158.981 212.25 157.984 211.995 157.145 211.484C156.312 210.969 155.669 210.25 155.216 209.328C154.768 208.401 154.544 207.323 154.544 206.094C154.544 204.865 154.768 203.781 155.216 202.844C155.669 201.901 156.299 201.167 157.106 200.641C157.919 200.109 158.867 199.844 159.95 199.844C160.575 199.844 161.192 199.948 161.802 200.156C162.411 200.365 162.966 200.703 163.466 201.172C163.966 201.635 164.364 202.25 164.661 203.016C164.958 203.781 165.106 204.724 165.106 205.844V206.625H155.856V205.031H163.231C163.231 204.354 163.096 203.75 162.825 203.219C162.56 202.687 162.179 202.268 161.685 201.961C161.195 201.654 160.617 201.5 159.95 201.5C159.216 201.5 158.58 201.682 158.044 202.047C157.513 202.406 157.104 202.875 156.817 203.453C156.531 204.031 156.388 204.651 156.388 205.312V206.375C156.388 207.281 156.544 208.049 156.856 208.68C157.174 209.305 157.614 209.781 158.177 210.109C158.739 210.432 159.393 210.594 160.138 210.594C160.622 210.594 161.06 210.526 161.45 210.391C161.846 210.25 162.187 210.042 162.474 209.766C162.76 209.484 162.981 209.135 163.138 208.719L164.919 209.219C164.731 209.823 164.416 210.354 163.974 210.812C163.531 211.266 162.984 211.62 162.333 211.875C161.682 212.125 160.95 212.25 160.138 212.25ZM167.251 212V200H169.032V201.875H169.189C169.439 201.234 169.842 200.737 170.4 200.383C170.957 200.023 171.626 199.844 172.407 199.844C173.199 199.844 173.858 200.023 174.384 200.383C174.915 200.737 175.329 201.234 175.626 201.875H175.751C176.058 201.255 176.519 200.763 177.134 200.398C177.748 200.029 178.485 199.844 179.345 199.844C180.418 199.844 181.295 200.18 181.978 200.852C182.66 201.518 183.001 202.557 183.001 203.969V212H181.157V203.969C181.157 203.083 180.915 202.451 180.431 202.07C179.946 201.69 179.376 201.5 178.72 201.5C177.876 201.5 177.222 201.755 176.759 202.266C176.295 202.771 176.064 203.411 176.064 204.187V212H174.189V203.781C174.189 203.099 173.967 202.549 173.525 202.133C173.082 201.711 172.512 201.5 171.814 201.5C171.334 201.5 170.887 201.628 170.47 201.883C170.058 202.138 169.725 202.492 169.47 202.945C169.22 203.393 169.095 203.911 169.095 204.5V212H167.251ZM189.243 212.281C188.483 212.281 187.793 212.138 187.173 211.852C186.553 211.56 186.061 211.141 185.697 210.594C185.332 210.042 185.15 209.375 185.15 208.594C185.15 207.906 185.285 207.349 185.556 206.922C185.827 206.49 186.189 206.151 186.642 205.906C187.095 205.661 187.595 205.479 188.142 205.359C188.694 205.234 189.249 205.135 189.806 205.063C190.535 204.969 191.126 204.898 191.579 204.852C192.038 204.799 192.371 204.714 192.579 204.594C192.793 204.474 192.9 204.266 192.9 203.969V203.906C192.9 203.135 192.689 202.536 192.267 202.109C191.85 201.682 191.217 201.469 190.368 201.469C189.488 201.469 188.798 201.661 188.298 202.047C187.798 202.432 187.447 202.844 187.243 203.281L185.493 202.656C185.806 201.927 186.223 201.359 186.743 200.953C187.269 200.542 187.842 200.255 188.462 200.094C189.087 199.927 189.702 199.844 190.306 199.844C190.691 199.844 191.134 199.891 191.634 199.984C192.139 200.073 192.626 200.258 193.095 200.539C193.569 200.82 193.962 201.245 194.275 201.812C194.587 202.38 194.743 203.141 194.743 204.094V212H192.9V210.375H192.806C192.681 210.635 192.473 210.914 192.181 211.211C191.889 211.508 191.501 211.76 191.017 211.969C190.533 212.177 189.941 212.281 189.243 212.281ZM189.525 210.625C190.254 210.625 190.868 210.482 191.368 210.195C191.874 209.909 192.254 209.539 192.509 209.086C192.769 208.633 192.9 208.156 192.9 207.656V205.969C192.822 206.062 192.65 206.148 192.384 206.227C192.124 206.299 191.822 206.365 191.478 206.422C191.139 206.474 190.809 206.521 190.486 206.562C190.168 206.599 189.91 206.63 189.712 206.656C189.233 206.719 188.785 206.82 188.368 206.961C187.957 207.096 187.624 207.302 187.368 207.578C187.118 207.849 186.993 208.219 186.993 208.687C186.993 209.328 187.23 209.812 187.704 210.141C188.184 210.464 188.79 210.625 189.525 210.625ZM197.449 212V200H199.292V212H197.449ZM198.386 198C198.027 198 197.717 197.878 197.456 197.633C197.201 197.388 197.074 197.094 197.074 196.75C197.074 196.406 197.201 196.112 197.456 195.867C197.717 195.622 198.027 195.5 198.386 195.5C198.746 195.5 199.053 195.622 199.308 195.867C199.568 196.112 199.699 196.406 199.699 196.75C199.699 197.094 199.568 197.388 199.308 197.633C199.053 197.878 198.746 198 198.386 198ZM203.853 204.781V212H202.009V200H203.791V201.875H203.947C204.228 201.266 204.655 200.776 205.228 200.406C205.801 200.031 206.541 199.844 207.447 199.844C208.259 199.844 208.97 200.01 209.58 200.344C210.189 200.672 210.663 201.172 211.002 201.844C211.34 202.51 211.509 203.354 211.509 204.375V212H209.666V204.5C209.666 203.557 209.421 202.823 208.931 202.297C208.442 201.766 207.77 201.5 206.916 201.5C206.327 201.5 205.801 201.628 205.338 201.883C204.879 202.138 204.517 202.51 204.252 203C203.986 203.49 203.853 204.083 203.853 204.781ZM214.219 212V200H216.062V212H214.219ZM215.156 198C214.797 198 214.487 197.878 214.226 197.633C213.971 197.388 213.844 197.094 213.844 196.75C213.844 196.406 213.971 196.112 214.226 195.867C214.487 195.622 214.797 195.5 215.156 195.5C215.515 195.5 215.823 195.622 216.078 195.867C216.338 196.112 216.469 196.406 216.469 196.75C216.469 197.094 216.338 197.388 216.078 197.633C215.823 197.878 215.515 198 215.156 198ZM220.623 204.781V212H218.779V200H220.56V201.875H220.717C220.998 201.266 221.425 200.776 221.998 200.406C222.571 200.031 223.31 199.844 224.217 199.844C225.029 199.844 225.74 200.01 226.35 200.344C226.959 200.672 227.433 201.172 227.771 201.844C228.11 202.51 228.279 203.354 228.279 204.375V212H226.435V204.5C226.435 203.557 226.191 202.823 225.701 202.297C225.212 201.766 224.54 201.5 223.685 201.5C223.097 201.5 222.571 201.628 222.107 201.883C221.649 202.138 221.287 202.51 221.021 203C220.756 203.49 220.623 204.083 220.623 204.781ZM235.832 216.75C234.941 216.75 234.176 216.635 233.535 216.406C232.895 216.182 232.361 215.885 231.934 215.516C231.512 215.151 231.176 214.76 230.926 214.344L232.395 213.313C232.561 213.531 232.772 213.781 233.027 214.062C233.283 214.349 233.632 214.596 234.074 214.805C234.522 215.018 235.108 215.125 235.832 215.125C236.801 215.125 237.6 214.891 238.231 214.422C238.861 213.953 239.176 213.219 239.176 212.219V209.781H239.02C238.884 210 238.691 210.271 238.441 210.594C238.197 210.911 237.843 211.195 237.379 211.445C236.921 211.69 236.301 211.812 235.52 211.812C234.551 211.812 233.681 211.583 232.91 211.125C232.145 210.667 231.538 210 231.09 209.125C230.647 208.25 230.426 207.187 230.426 205.937C230.426 204.708 230.642 203.638 231.074 202.727C231.507 201.81 232.108 201.102 232.879 200.602C233.65 200.096 234.54 199.844 235.551 199.844C236.332 199.844 236.952 199.974 237.41 200.234C237.874 200.49 238.228 200.781 238.473 201.109C238.723 201.432 238.915 201.698 239.051 201.906H239.238V200H241.02V212.344C241.02 213.375 240.785 214.214 240.316 214.859C239.853 215.51 239.228 215.987 238.441 216.289C237.66 216.596 236.79 216.75 235.832 216.75ZM235.77 210.156C236.509 210.156 237.134 209.987 237.645 209.648C238.155 209.31 238.543 208.823 238.809 208.188C239.074 207.552 239.207 206.792 239.207 205.906C239.207 205.042 239.077 204.279 238.816 203.617C238.556 202.956 238.171 202.437 237.66 202.062C237.15 201.687 236.52 201.5 235.77 201.5C234.988 201.5 234.337 201.698 233.816 202.094C233.301 202.49 232.913 203.021 232.652 203.688C232.397 204.354 232.27 205.094 232.27 205.906C232.27 206.74 232.4 207.477 232.66 208.117C232.926 208.753 233.316 209.253 233.832 209.617C234.353 209.977 234.999 210.156 235.77 210.156Z" fill="#919191"/>
<path d="M147.996 162.656C144.636 162.656 141.668 162.078 139.09 160.922C136.527 159.766 134.519 158.172 133.066 156.141C131.613 154.109 130.894 151.797 130.91 149.203C130.894 147.172 131.308 145.305 132.152 143.602C133.011 141.883 134.176 140.453 135.644 139.312C137.113 138.156 138.754 137.422 140.566 137.109V136.828C138.176 136.25 136.261 134.969 134.824 132.984C133.386 131 132.676 128.719 132.691 126.141C132.676 123.687 133.324 121.5 134.636 119.578C135.965 117.641 137.785 116.117 140.097 115.008C142.41 113.898 145.043 113.344 147.996 113.344C150.918 113.344 153.527 113.906 155.824 115.031C158.136 116.141 159.957 117.664 161.285 119.602C162.613 121.523 163.285 123.703 163.301 126.141C163.285 128.719 162.551 131 161.097 132.984C159.644 134.969 157.754 136.25 155.426 136.828V137.109C157.222 137.422 158.84 138.156 160.277 139.312C161.73 140.453 162.886 141.883 163.746 143.602C164.621 145.305 165.066 147.172 165.082 149.203C165.066 151.797 164.332 154.109 162.879 156.141C161.426 158.172 159.41 159.766 156.832 160.922C154.269 162.078 151.324 162.656 147.996 162.656ZM147.996 156.727C149.98 156.727 151.699 156.398 153.152 155.742C154.605 155.07 155.73 154.141 156.527 152.953C157.324 151.75 157.73 150.344 157.746 148.734C157.73 147.062 157.293 145.586 156.433 144.305C155.59 143.023 154.441 142.016 152.988 141.281C151.535 140.547 149.871 140.18 147.996 140.18C146.105 140.18 144.426 140.547 142.957 141.281C141.488 142.016 140.332 143.023 139.488 144.305C138.644 145.586 138.23 147.062 138.246 148.734C138.23 150.344 138.613 151.75 139.394 152.953C140.191 154.141 141.324 155.07 142.793 155.742C144.261 156.398 145.996 156.727 147.996 156.727ZM147.996 134.391C149.59 134.391 151.004 134.07 152.238 133.43C153.472 132.789 154.441 131.898 155.144 130.758C155.863 129.617 156.23 128.281 156.246 126.75C156.23 125.25 155.871 123.938 155.168 122.812C154.48 121.687 153.519 120.82 152.285 120.211C151.051 119.586 149.621 119.273 147.996 119.273C146.34 119.273 144.886 119.586 143.636 120.211C142.402 120.82 141.441 121.687 140.754 122.812C140.066 123.938 139.73 125.25 139.746 126.75C139.73 128.281 140.074 129.617 140.777 130.758C141.48 131.898 142.449 132.789 143.683 133.43C144.933 134.07 146.371 134.391 147.996 134.391ZM188.256 162.656C186.115 162.625 184.006 162.234 181.928 161.484C179.865 160.734 177.99 159.484 176.303 157.734C174.615 155.984 173.264 153.633 172.248 150.68C171.248 147.727 170.748 144.039 170.748 139.617C170.748 135.43 171.162 131.711 171.99 128.461C172.834 125.211 174.045 122.469 175.623 120.234C177.201 117.984 179.108 116.273 181.342 115.102C183.576 113.93 186.084 113.344 188.865 113.344C191.725 113.344 194.264 113.906 196.483 115.031C198.701 116.156 200.498 117.711 201.873 119.695C203.264 121.68 204.147 123.937 204.522 126.469H197.373C196.889 124.469 195.928 122.836 194.49 121.57C193.053 120.305 191.178 119.672 188.865 119.672C185.35 119.672 182.608 121.203 180.639 124.266C178.686 127.328 177.701 131.586 177.686 137.039H178.037C178.865 135.68 179.881 134.523 181.084 133.57C182.303 132.602 183.662 131.859 185.162 131.344C186.678 130.812 188.272 130.547 189.944 130.547C192.725 130.547 195.24 131.227 197.49 132.586C199.756 133.93 201.561 135.789 202.905 138.164C204.248 140.539 204.92 143.258 204.92 146.32C204.92 149.383 204.225 152.156 202.834 154.641C201.459 157.125 199.522 159.094 197.022 160.547C194.522 161.984 191.6 162.688 188.256 162.656ZM188.233 156.562C190.076 156.562 191.725 156.109 193.178 155.203C194.631 154.297 195.78 153.078 196.623 151.547C197.467 150.016 197.889 148.305 197.889 146.414C197.889 144.57 197.475 142.891 196.647 141.375C195.834 139.859 194.709 138.656 193.272 137.766C191.85 136.875 190.225 136.43 188.397 136.43C187.006 136.43 185.717 136.695 184.53 137.227C183.358 137.758 182.326 138.492 181.436 139.43C180.545 140.367 179.842 141.445 179.326 142.664C178.826 143.867 178.576 145.141 178.576 146.484C178.576 148.281 178.99 149.945 179.819 151.477C180.662 153.008 181.811 154.242 183.264 155.18C184.733 156.102 186.389 156.562 188.233 156.562Z" fill="white"/>
<path d="M172.875 68C172.703 67.474 172.477 67.0026 172.195 66.5859C171.919 66.1641 171.589 65.8047 171.203 65.5078C170.823 65.2109 170.391 64.9844 169.906 64.8281C169.422 64.6719 168.891 64.5937 168.312 64.5937C167.365 64.5937 166.503 64.8385 165.727 65.3281C164.951 65.8177 164.333 66.5391 163.875 67.4922C163.417 68.4453 163.188 69.6146 163.188 71C163.188 72.3854 163.419 73.5547 163.883 74.5078C164.346 75.4609 164.974 76.1823 165.766 76.6719C166.557 77.1615 167.448 77.4062 168.438 77.4062C169.354 77.4062 170.161 77.2109 170.859 76.8203C171.563 76.4245 172.109 75.8672 172.5 75.1484C172.896 74.4245 173.094 73.5729 173.094 72.5937L173.688 72.7187H168.875V71H174.969V72.7187C174.969 74.0365 174.688 75.1823 174.125 76.1562C173.568 77.1302 172.797 77.8854 171.812 78.4219C170.833 78.9531 169.708 79.2187 168.438 79.2187C167.021 79.2187 165.776 78.8854 164.703 78.2188C163.635 77.5521 162.802 76.6042 162.203 75.375C161.609 74.1458 161.313 72.6875 161.313 71C161.313 69.7344 161.482 68.5964 161.82 67.5859C162.164 66.5703 162.648 65.7057 163.273 64.9922C163.898 64.2786 164.638 63.7318 165.492 63.3516C166.346 62.9714 167.286 62.7812 168.312 62.7812C169.156 62.7812 169.943 62.9089 170.672 63.1641C171.406 63.4141 172.06 63.7708 172.633 64.2344C173.211 64.6927 173.693 65.2422 174.078 65.8828C174.464 66.5182 174.729 67.224 174.875 68H172.875ZM182.252 79.25C181.169 79.25 180.218 78.9922 179.401 78.4766C178.588 77.9609 177.953 77.2396 177.494 76.3125C177.041 75.3854 176.815 74.3021 176.815 73.0625C176.815 71.8125 177.041 70.7214 177.494 69.7891C177.953 68.8568 178.588 68.1328 179.401 67.6172C180.218 67.1016 181.169 66.8438 182.252 66.8438C183.335 66.8438 184.283 67.1016 185.096 67.6172C185.914 68.1328 186.549 68.8568 187.002 69.7891C187.46 70.7214 187.69 71.8125 187.69 73.0625C187.69 74.3021 187.46 75.3854 187.002 76.3125C186.549 77.2396 185.914 77.9609 185.096 78.4766C184.283 78.9922 183.335 79.25 182.252 79.25ZM182.252 77.5938C183.075 77.5938 183.752 77.3828 184.283 76.9609C184.815 76.5391 185.208 75.9844 185.463 75.2969C185.718 74.6094 185.846 73.8646 185.846 73.0625C185.846 72.2604 185.718 71.513 185.463 70.8203C185.208 70.1276 184.815 69.5677 184.283 69.1406C183.752 68.7135 183.075 68.5 182.252 68.5C181.429 68.5 180.752 68.7135 180.221 69.1406C179.69 69.5677 179.296 70.1276 179.041 70.8203C178.786 71.513 178.658 72.2604 178.658 73.0625C178.658 73.8646 178.786 74.6094 179.041 75.2969C179.296 75.9844 179.69 76.5391 180.221 76.9609C180.752 77.3828 181.429 77.5938 182.252 77.5938ZM193.375 79.2813C192.615 79.2813 191.925 79.138 191.305 78.8516C190.685 78.5599 190.193 78.1406 189.828 77.5938C189.464 77.0417 189.282 76.375 189.282 75.5937C189.282 74.9062 189.417 74.349 189.688 73.9219C189.959 73.4896 190.321 73.151 190.774 72.9062C191.227 72.6615 191.727 72.4792 192.274 72.3594C192.826 72.2344 193.381 72.1354 193.938 72.0625C194.667 71.9687 195.258 71.8984 195.711 71.8516C196.17 71.7995 196.503 71.7135 196.711 71.5937C196.925 71.474 197.032 71.2656 197.032 70.9687V70.9062C197.032 70.1354 196.821 69.5365 196.399 69.1094C195.982 68.6823 195.349 68.4687 194.5 68.4687C193.62 68.4687 192.93 68.6615 192.43 69.0469C191.93 69.4323 191.578 69.8437 191.375 70.2812L189.625 69.6562C189.938 68.9271 190.354 68.3594 190.875 67.9531C191.401 67.5417 191.974 67.2552 192.594 67.0937C193.219 66.9271 193.834 66.8438 194.438 66.8438C194.823 66.8438 195.266 66.8906 195.766 66.9844C196.271 67.0729 196.758 67.2578 197.227 67.5391C197.701 67.8203 198.094 68.2448 198.407 68.8125C198.719 69.3802 198.875 70.1406 198.875 71.0938V79H197.032V77.375H196.938C196.813 77.6354 196.604 77.9141 196.313 78.2109C196.021 78.5078 195.633 78.7604 195.149 78.9687C194.664 79.1771 194.073 79.2813 193.375 79.2813ZM193.657 77.625C194.386 77.625 195 77.4818 195.5 77.1953C196.006 76.9089 196.386 76.5391 196.641 76.0859C196.901 75.6328 197.032 75.1562 197.032 74.6562V72.9687C196.953 73.0625 196.782 73.1484 196.516 73.2266C196.256 73.2995 195.953 73.3646 195.61 73.4219C195.271 73.474 194.94 73.5208 194.618 73.5625C194.3 73.599 194.042 73.6302 193.844 73.6562C193.365 73.7187 192.917 73.8203 192.5 73.9609C192.089 74.0964 191.756 74.3021 191.5 74.5781C191.25 74.849 191.125 75.2187 191.125 75.6875C191.125 76.3281 191.362 76.8125 191.836 77.1406C192.315 77.4635 192.922 77.625 193.657 77.625ZM203.424 63V79H201.581V63H203.424Z" fill="#919191"/>
<path d="M139 71.0002V68.0002M139 68.0002V60L147 64.0001L139 68.0002ZM147.561 68.2222C148.093 69.8624 148.143 71.6209 147.704 73.2885C147.266 74.9562 146.357 76.4628 145.087 77.6291C143.817 78.7954 142.239 79.5722 140.54 79.8673C138.841 80.1623 137.093 79.9631 135.504 79.2933C133.915 78.6236 132.552 77.5114 131.577 76.0893C130.602 74.6671 130.056 72.9947 130.004 71.2712C129.952 69.5476 130.396 67.8454 131.284 66.367C132.171 64.8887 133.465 63.6964 135.011 62.9321M135.002 67.9972C134.501 68.6642 134.174 69.446 134.053 70.2714C133.931 71.0968 134.018 71.9395 134.305 72.7227C134.593 73.506 135.071 74.2049 135.698 74.7557C136.325 75.3066 137.079 75.6919 137.893 75.8765C138.706 76.0612 139.553 76.0393 140.356 75.8129C141.159 75.5866 141.893 75.1628 142.49 74.5804C143.087 73.998 143.529 73.2753 143.776 72.4783C144.022 71.6813 144.066 70.8352 143.902 70.0172" stroke="#919191" stroke-width="1.5" stroke-linecap="round" stroke-linejoin="round"/>
</svg>
