<svg width="716" height="209" viewBox="0 0 716 209" fill="none" xmlns="http://www.w3.org/2000/svg">
<g filter="url(#filter0_d_1361_197)">
<rect x="36.1" y="32.0996" width="643" height="136" rx="68" fill="white"/>
</g>
<ellipse cx="610.917" cy="100.563" rx="60.6068" ry="60.4024" fill="#F5F5F5"/>
<path d="M607.415 83.6781C608.368 79.7636 613.956 79.7636 614.909 83.6781C615.052 84.2662 615.332 84.8123 615.727 85.272C616.121 85.7317 616.62 86.092 617.181 86.3236C617.741 86.5552 618.349 86.6516 618.955 86.6048C619.56 86.558 620.146 86.3695 620.664 86.0545C624.115 83.959 628.068 87.8958 625.965 91.3378C625.65 91.8542 625.461 92.4375 625.414 93.0404C625.367 93.6433 625.464 94.2486 625.696 94.8073C625.928 95.366 626.289 95.8622 626.75 96.2556C627.21 96.649 627.758 96.9285 628.347 97.0714C632.275 98.021 632.275 103.59 628.347 104.539C627.757 104.682 627.209 104.961 626.748 105.355C626.287 105.748 625.925 106.244 625.693 106.803C625.461 107.362 625.364 107.968 625.411 108.572C625.458 109.175 625.647 109.759 625.963 110.275C628.066 113.715 624.115 117.654 620.662 115.558C620.144 115.244 619.558 115.056 618.953 115.009C618.348 114.962 617.741 115.059 617.18 115.29C616.62 115.521 616.122 115.881 615.727 116.34C615.333 116.799 615.052 117.345 614.909 117.933C613.956 121.847 608.368 121.847 607.415 117.933C607.272 117.345 606.992 116.798 606.597 116.339C606.203 115.879 605.704 115.519 605.144 115.287C604.583 115.055 603.975 114.959 603.369 115.006C602.764 115.053 602.178 115.241 601.66 115.556C598.209 117.652 594.256 113.715 596.359 110.273C596.674 109.757 596.863 109.173 596.91 108.57C596.957 107.967 596.86 107.362 596.628 106.803C596.396 106.245 596.035 105.749 595.574 105.355C595.114 104.962 594.566 104.682 593.977 104.539C590.049 103.59 590.049 98.021 593.977 97.0714C594.567 96.9289 595.115 96.6495 595.576 96.2561C596.037 95.8627 596.399 95.3662 596.631 94.8072C596.864 94.2482 596.96 93.6424 596.913 93.0391C596.866 92.4359 596.677 91.8522 596.361 91.3355C594.258 87.8958 598.209 83.9568 601.662 86.0522C603.899 87.4076 606.798 86.2083 607.415 83.6781Z" stroke="#555555" stroke-width="2.5" stroke-linecap="round" stroke-linejoin="round"/>
<path d="M604.289 100.643C604.289 102.417 604.996 104.118 606.254 105.372C607.513 106.626 609.219 107.331 610.999 107.331C612.779 107.331 614.486 106.626 615.744 105.372C617.003 104.118 617.709 102.417 617.709 100.643C617.709 98.8692 617.003 97.1682 615.744 95.914C614.486 94.6598 612.779 93.9552 610.999 93.9552C609.219 93.9552 607.513 94.6598 606.254 95.914C604.996 97.1682 604.289 98.8692 604.289 100.643Z" stroke="#555555" stroke-width="2.5" stroke-linecap="round" stroke-linejoin="round"/>
<ellipse cx="231.178" cy="100.563" rx="60.6068" ry="60.4024" fill="#F5F5F5"/>
<path d="M224.548 80.7422H218.157C217.592 80.7422 217.05 80.9718 216.65 81.3806C216.251 81.7894 216.026 82.3438 216.026 82.9219V113.438C216.026 114.016 216.251 114.57 216.65 114.979C217.05 115.388 217.592 115.617 218.157 115.617H224.548M224.548 80.7422H241.59C242.72 80.7422 243.804 81.2015 244.603 82.019C245.402 82.8366 245.851 83.9454 245.851 85.1016V111.258C245.851 112.414 245.402 113.523 244.603 114.341C243.804 115.158 242.72 115.617 241.59 115.617H224.548M224.548 80.7422V115.617M224.548 115.617V119.977M233.069 89.461H237.329M233.069 98.1798H237.329" stroke="#555555" stroke-width="2.5" stroke-linecap="round" stroke-linejoin="round"/>
<ellipse cx="484.022" cy="100.563" rx="60.6068" ry="60.4024" fill="#F5F5F5"/>
<path d="M483.575 107.059C480.153 107.059 476.87 105.673 474.45 103.205C472.03 100.738 470.67 97.3907 470.67 93.9008C470.67 90.4109 472.03 87.064 474.45 84.5963C476.87 82.1285 480.153 80.7422 483.575 80.7422C486.998 80.7422 490.28 82.1285 492.701 84.5963C495.121 87.064 496.48 90.4109 496.48 93.9008C496.48 97.3907 495.121 100.738 492.701 103.205C490.28 105.673 486.998 107.059 483.575 107.059ZM483.575 107.059L490.888 119.977L494.325 112.886L502.064 113.395L494.751 100.48M472.395 100.48L465.082 113.397L472.821 112.886L476.258 119.975L483.571 107.059" stroke="#555555" stroke-width="2.5" stroke-linecap="round" stroke-linejoin="round"/>
<ellipse cx="105.23" cy="100.563" rx="60.6068" ry="60.4024" fill="#191817"/>
<path d="M103.293 82.52C104.623 81.41 106.56 81.41 107.89 82.52L122.665 94.8551C123.554 95.5973 124.027 96.7229 123.934 97.875L122.541 115.12C122.541 116.371 122.031 117.57 121.123 118.455C120.215 119.339 118.983 119.837 117.698 119.837H93.4847C92.2003 119.837 90.9678 119.339 90.0596 118.455C89.1516 117.57 88.6419 116.371 88.6418 115.12L87.2484 97.875C87.1556 96.7229 87.6292 95.5973 88.5183 94.8551L103.293 82.52ZM105.591 100.814C103.944 100.814 102.609 102.144 102.609 103.786V110.92C102.609 112.561 103.944 113.892 105.591 113.892C107.239 113.892 108.574 112.561 108.574 110.92V103.786C108.574 102.144 107.239 100.814 105.591 100.814Z" fill="white"/>
<path d="M358.073 41.1602C390.996 41.1602 417.68 67.7587 417.681 100.562C417.681 133.366 390.996 159.965 358.073 159.965C325.15 159.965 298.467 133.366 298.467 100.562C298.467 67.7588 325.15 41.1603 358.073 41.1602Z" fill="url(#paint0_radial_1361_197)" stroke="url(#paint1_linear_1361_197)" stroke-width="2"/>
<path d="M358.074 80.7422C369.057 80.7422 377.961 89.6157 377.961 100.562C377.961 111.508 369.057 120.381 358.074 120.381C347.091 120.381 338.187 111.508 338.187 100.562C338.187 89.6157 347.091 80.7422 358.074 80.7422ZM358.227 85.9624C358.103 85.4905 357.463 85.5096 357.367 85.9879C356.735 89.116 355.532 95.6883 355.516 100.397C355.5 105.241 356.728 112.016 357.367 115.209C357.463 115.688 358.103 115.707 358.226 115.234C359.054 112.058 360.653 105.28 360.632 100.397C360.611 95.649 359.044 89.0732 358.227 85.9624Z" fill="white"/>
<defs>
<filter id="filter0_d_1361_197" x="-2.28882e-05" y="-0.000389099" width="715.2" height="208.2" filterUnits="userSpaceOnUse" color-interpolation-filters="sRGB">
<feFlood flood-opacity="0" result="BackgroundImageFix"/>
<feColorMatrix in="SourceAlpha" type="matrix" values="0 0 0 0 0 0 0 0 0 0 0 0 0 0 0 0 0 0 127 0" result="hardAlpha"/>
<feOffset dy="4"/>
<feGaussianBlur stdDeviation="18.05"/>
<feComposite in2="hardAlpha" operator="out"/>
<feColorMatrix type="matrix" values="0 0 0 0 0 0 0 0 0 0 0 0 0 0 0 0 0 0 0.14 0"/>
<feBlend mode="normal" in2="BackgroundImageFix" result="effect1_dropShadow_1361_197"/>
<feBlend mode="normal" in="BackgroundImageFix" in2="effect1_dropShadow_1361_197" result="BackgroundImageFix"/>
<feBlend mode="normal" in="SourceGraphic" in2="BackgroundImageFix" result="shape"/>
</filter>
<radialGradient id="paint0_radial_1361_197" cx="0" cy="0" r="1" gradientTransform="matrix(85.2095 -75.3535 75.6085 84.9222 323.87 130.465)" gradientUnits="userSpaceOnUse">
<stop stop-color="#431414"/>
<stop offset="0.620192" stop-color="#A81312"/>
<stop offset="1" stop-color="#F18585"/>
</radialGradient>
<linearGradient id="paint1_linear_1361_197" x1="314.869" y1="175.318" x2="389.542" y2="70.4218" gradientUnits="userSpaceOnUse">
<stop stop-color="#FFE6E6"/>
<stop offset="1" stop-color="#441111" stop-opacity="0"/>
</linearGradient>
</defs>
</svg>
