<svg width="699" height="237" viewBox="0 0 699 237" fill="none" xmlns="http://www.w3.org/2000/svg">
<rect width="699" height="237" rx="54" fill="white"/>
<circle cx="569" cy="119" r="92" fill="#F5F5F5"/>
<path d="M553.875 163H548.938V147H554.094C555.646 147 556.974 147.32 558.078 147.961C559.182 148.596 560.029 149.51 560.617 150.703C561.206 151.891 561.5 153.312 561.5 154.969C561.5 156.635 561.203 158.07 560.609 159.273C560.016 160.471 559.151 161.393 558.016 162.039C556.88 162.68 555.5 163 553.875 163ZM550.875 161.281H553.75C555.073 161.281 556.169 161.026 557.039 160.516C557.909 160.005 558.557 159.279 558.984 158.336C559.411 157.393 559.625 156.271 559.625 154.969C559.625 153.677 559.414 152.565 558.992 151.633C558.57 150.695 557.94 149.977 557.102 149.477C556.263 148.971 555.219 148.719 553.969 148.719H550.875V161.281ZM563.84 163V151H565.684V163H563.84ZM564.778 149C564.418 149 564.108 148.878 563.848 148.633C563.593 148.388 563.465 148.094 563.465 147.75C563.465 147.406 563.593 147.112 563.848 146.867C564.108 146.622 564.418 146.5 564.778 146.5C565.137 146.5 565.444 146.622 565.699 146.867C565.96 147.112 566.09 147.406 566.09 147.75C566.09 148.094 565.96 148.388 565.699 148.633C565.444 148.878 565.137 149 564.778 149ZM571.932 163.281C571.172 163.281 570.481 163.138 569.862 162.852C569.242 162.56 568.75 162.141 568.385 161.594C568.02 161.042 567.838 160.375 567.838 159.594C567.838 158.906 567.974 158.349 568.244 157.922C568.515 157.49 568.877 157.151 569.33 156.906C569.784 156.661 570.284 156.479 570.83 156.359C571.382 156.234 571.937 156.135 572.494 156.063C573.224 155.969 573.815 155.898 574.268 155.852C574.726 155.799 575.06 155.714 575.268 155.594C575.481 155.474 575.588 155.266 575.588 154.969V154.906C575.588 154.135 575.377 153.536 574.955 153.109C574.539 152.682 573.906 152.469 573.057 152.469C572.177 152.469 571.487 152.661 570.987 153.047C570.487 153.432 570.135 153.844 569.932 154.281L568.182 153.656C568.494 152.927 568.911 152.359 569.432 151.953C569.958 151.542 570.531 151.255 571.151 151.094C571.776 150.927 572.39 150.844 572.994 150.844C573.38 150.844 573.823 150.891 574.323 150.984C574.828 151.073 575.315 151.258 575.784 151.539C576.257 151.82 576.651 152.245 576.963 152.812C577.276 153.38 577.432 154.141 577.432 155.094V163H575.588V161.375H575.494C575.369 161.635 575.161 161.914 574.869 162.211C574.578 162.508 574.19 162.76 573.705 162.969C573.221 163.177 572.63 163.281 571.932 163.281ZM572.213 161.625C572.942 161.625 573.557 161.482 574.057 161.195C574.562 160.909 574.942 160.539 575.198 160.086C575.458 159.633 575.588 159.156 575.588 158.656V156.969C575.51 157.062 575.338 157.148 575.073 157.227C574.812 157.299 574.51 157.365 574.166 157.422C573.828 157.474 573.497 157.521 573.174 157.562C572.856 157.599 572.599 157.63 572.401 157.656C571.922 157.719 571.474 157.82 571.057 157.961C570.645 158.096 570.312 158.302 570.057 158.578C569.807 158.849 569.682 159.219 569.682 159.687C569.682 160.328 569.919 160.812 570.393 161.141C570.872 161.464 571.479 161.625 572.213 161.625ZM588.637 153.687L586.981 154.156C586.877 153.88 586.723 153.612 586.52 153.352C586.322 153.086 586.051 152.867 585.708 152.695C585.364 152.523 584.924 152.437 584.387 152.437C583.653 152.437 583.041 152.607 582.551 152.945C582.067 153.279 581.825 153.703 581.825 154.219C581.825 154.677 581.991 155.039 582.325 155.305C582.658 155.57 583.179 155.792 583.887 155.969L585.668 156.406C586.741 156.667 587.541 157.065 588.067 157.602C588.593 158.133 588.856 158.818 588.856 159.656C588.856 160.344 588.658 160.958 588.262 161.5C587.872 162.042 587.325 162.469 586.622 162.781C585.918 163.094 585.101 163.25 584.168 163.25C582.944 163.25 581.931 162.984 581.129 162.453C580.327 161.922 579.819 161.146 579.606 160.125L581.356 159.687C581.523 160.333 581.838 160.818 582.301 161.141C582.77 161.464 583.382 161.625 584.137 161.625C584.997 161.625 585.679 161.443 586.184 161.078C586.694 160.708 586.95 160.266 586.95 159.75C586.95 159.333 586.804 158.984 586.512 158.703C586.221 158.417 585.773 158.203 585.168 158.062L583.168 157.594C582.069 157.333 581.262 156.93 580.747 156.383C580.236 155.831 579.981 155.141 579.981 154.312C579.981 153.635 580.171 153.036 580.551 152.516C580.937 151.995 581.46 151.586 582.122 151.289C582.788 150.992 583.543 150.844 584.387 150.844C585.575 150.844 586.507 151.104 587.184 151.625C587.866 152.146 588.351 152.833 588.637 153.687Z" fill="#555555"/>
<path d="M568.559 134.656C565.34 134.656 562.465 134.102 559.934 132.992C557.418 131.883 555.426 130.344 553.957 128.375C552.504 126.391 551.723 124.094 551.613 121.484H558.973C559.066 122.906 559.543 124.141 560.402 125.187C561.277 126.219 562.418 127.016 563.824 127.578C565.23 128.141 566.793 128.422 568.512 128.422C570.402 128.422 572.074 128.094 573.527 127.437C574.996 126.781 576.145 125.867 576.973 124.695C577.801 123.508 578.215 122.141 578.215 120.594C578.215 118.984 577.801 117.57 576.973 116.352C576.16 115.117 574.965 114.148 573.387 113.445C571.824 112.742 569.934 112.391 567.715 112.391H563.66V106.484H567.715C569.496 106.484 571.059 106.164 572.402 105.523C573.762 104.883 574.824 103.992 575.59 102.852C576.355 101.695 576.738 100.344 576.738 98.7969C576.738 97.3125 576.402 96.0234 575.73 94.9297C575.074 93.8203 574.137 92.9531 572.918 92.3281C571.715 91.7031 570.293 91.3906 568.652 91.3906C567.09 91.3906 565.629 91.6797 564.27 92.2578C562.926 92.8203 561.832 93.6328 560.988 94.6953C560.145 95.7422 559.691 97 559.629 98.4687H552.621C552.699 95.875 553.465 93.5937 554.918 91.625C556.387 89.6562 558.324 88.1172 560.73 87.0078C563.137 85.8984 565.809 85.3437 568.746 85.3437C571.824 85.3437 574.48 85.9453 576.715 87.1484C578.965 88.3359 580.699 89.9219 581.918 91.9062C583.152 93.8906 583.762 96.0625 583.746 98.4219C583.762 101.109 583.012 103.391 581.496 105.266C579.996 107.141 577.996 108.398 575.496 109.039V109.414C578.684 109.898 581.152 111.164 582.902 113.211C584.668 115.258 585.543 117.797 585.527 120.828C585.543 123.469 584.809 125.836 583.324 127.93C581.855 130.023 579.848 131.672 577.301 132.875C574.754 134.062 571.84 134.656 568.559 134.656Z" fill="#191817"/>
<path d="M107.688 97C107.594 96.2083 107.214 95.5938 106.547 95.1562C105.88 94.7187 105.063 94.5 104.094 94.5C103.385 94.5 102.766 94.6146 102.234 94.8437C101.708 95.0729 101.297 95.388 101 95.7891C100.708 96.1901 100.563 96.6458 100.563 97.1562C100.563 97.5833 100.664 97.9505 100.867 98.2578C101.076 98.5599 101.341 98.8125 101.664 99.0156C101.987 99.2135 102.326 99.3776 102.68 99.5078C103.034 99.6328 103.359 99.7344 103.656 99.8125L105.281 100.25C105.698 100.359 106.161 100.51 106.672 100.703C107.188 100.896 107.68 101.159 108.148 101.492C108.622 101.82 109.013 102.242 109.32 102.758C109.628 103.273 109.781 103.906 109.781 104.656C109.781 105.521 109.555 106.302 109.102 107C108.654 107.698 107.997 108.253 107.133 108.664C106.273 109.076 105.229 109.281 104 109.281C102.854 109.281 101.862 109.096 101.023 108.727C100.19 108.357 99.5339 107.841 99.0547 107.18C98.5807 106.518 98.3125 105.75 98.25 104.875H100.25C100.302 105.479 100.505 105.979 100.859 106.375C101.219 106.766 101.672 107.057 102.219 107.25C102.771 107.437 103.365 107.531 104 107.531C104.74 107.531 105.404 107.411 105.992 107.172C106.581 106.927 107.047 106.589 107.391 106.156C107.734 105.719 107.906 105.208 107.906 104.625C107.906 104.094 107.758 103.661 107.461 103.328C107.164 102.995 106.773 102.724 106.289 102.516C105.805 102.307 105.281 102.125 104.719 101.969L102.75 101.406C101.5 101.047 100.51 100.534 99.7812 99.8672C99.0521 99.2005 98.6875 98.3281 98.6875 97.25C98.6875 96.3542 98.9297 95.5729 99.4141 94.9062C99.9036 94.2344 100.56 93.7135 101.383 93.3437C102.211 92.9687 103.135 92.7812 104.156 92.7812C105.188 92.7812 106.104 92.9661 106.906 93.3359C107.708 93.7005 108.344 94.2005 108.812 94.8359C109.286 95.4714 109.536 96.1927 109.563 97H107.688ZM112.057 109V97H113.901V109H112.057ZM112.994 95C112.635 95 112.325 94.8776 112.065 94.6328C111.809 94.388 111.682 94.0938 111.682 93.75C111.682 93.4063 111.809 93.112 112.065 92.8672C112.325 92.6224 112.635 92.5 112.994 92.5C113.354 92.5 113.661 92.6224 113.916 92.8672C114.177 93.112 114.307 93.4063 114.307 93.75C114.307 94.0938 114.177 94.388 113.916 94.6328C113.661 94.8776 113.354 95 112.994 95ZM118.461 101.781V109H116.618V97H118.399V98.875H118.555C118.836 98.2656 119.263 97.776 119.836 97.4063C120.409 97.0313 121.149 96.8438 122.055 96.8438C122.868 96.8438 123.578 97.0104 124.188 97.3437C124.797 97.6719 125.271 98.1719 125.61 98.8437C125.948 99.5104 126.118 100.354 126.118 101.375V109H124.274V101.5C124.274 100.557 124.029 99.8229 123.539 99.2969C123.05 98.7656 122.378 98.5 121.524 98.5C120.935 98.5 120.409 98.6276 119.946 98.8828C119.487 99.138 119.125 99.5104 118.86 100C118.594 100.49 118.461 101.083 118.461 101.781ZM133.702 109.25C132.577 109.25 131.608 108.984 130.795 108.453C129.983 107.922 129.358 107.19 128.92 106.258C128.483 105.326 128.264 104.26 128.264 103.062C128.264 101.844 128.488 100.768 128.936 99.8359C129.389 98.8984 130.019 98.1667 130.827 97.6406C131.639 97.1094 132.587 96.8438 133.67 96.8438C134.514 96.8438 135.275 97 135.952 97.3125C136.629 97.625 137.183 98.0625 137.616 98.625C138.048 99.1875 138.316 99.8437 138.42 100.594H136.577C136.436 100.047 136.124 99.5625 135.639 99.1406C135.16 98.7135 134.514 98.5 133.702 98.5C132.983 98.5 132.353 98.6875 131.811 99.0625C131.275 99.4323 130.855 99.9557 130.553 100.633C130.256 101.305 130.108 102.094 130.108 103C130.108 103.927 130.254 104.734 130.545 105.422C130.842 106.109 131.259 106.643 131.795 107.023C132.337 107.404 132.972 107.594 133.702 107.594C134.181 107.594 134.616 107.51 135.006 107.344C135.397 107.177 135.728 106.938 135.999 106.625C136.269 106.312 136.462 105.937 136.577 105.5H138.42C138.316 106.208 138.058 106.846 137.647 107.414C137.241 107.977 136.702 108.424 136.03 108.758C135.363 109.086 134.587 109.25 133.702 109.25ZM145.487 109.25C144.331 109.25 143.333 108.995 142.495 108.484C141.661 107.969 141.018 107.25 140.565 106.328C140.117 105.401 139.893 104.323 139.893 103.094C139.893 101.865 140.117 100.781 140.565 99.8437C141.018 98.901 141.648 98.1667 142.456 97.6406C143.268 97.1094 144.216 96.8438 145.299 96.8438C145.924 96.8438 146.542 96.9479 147.151 97.1562C147.76 97.3646 148.315 97.7031 148.815 98.1719C149.315 98.6354 149.714 99.25 150.01 100.016C150.307 100.781 150.456 101.724 150.456 102.844V103.625H141.206V102.031H148.581C148.581 101.354 148.445 100.75 148.174 100.219C147.909 99.6875 147.529 99.2682 147.034 98.9609C146.544 98.6536 145.966 98.5 145.299 98.5C144.565 98.5 143.93 98.6823 143.393 99.0469C142.862 99.4062 142.453 99.875 142.167 100.453C141.88 101.031 141.737 101.651 141.737 102.312V103.375C141.737 104.281 141.893 105.049 142.206 105.68C142.523 106.305 142.964 106.781 143.526 107.109C144.089 107.432 144.742 107.594 145.487 107.594C145.971 107.594 146.409 107.526 146.799 107.391C147.195 107.25 147.536 107.042 147.823 106.766C148.109 106.484 148.331 106.135 148.487 105.719L150.268 106.219C150.081 106.823 149.766 107.354 149.323 107.812C148.88 108.266 148.333 108.62 147.682 108.875C147.031 109.125 146.299 109.25 145.487 109.25ZM164.503 93H166.44V104.437C166.44 105.458 166.253 106.326 165.878 107.039C165.503 107.753 164.974 108.294 164.292 108.664C163.61 109.034 162.805 109.219 161.878 109.219C161.003 109.219 160.224 109.06 159.542 108.742C158.86 108.419 158.323 107.961 157.933 107.367C157.542 106.773 157.347 106.068 157.347 105.25H159.253C159.253 105.703 159.365 106.099 159.589 106.437C159.818 106.771 160.13 107.031 160.526 107.219C160.922 107.406 161.373 107.5 161.878 107.5C162.435 107.5 162.909 107.383 163.3 107.148C163.69 106.914 163.987 106.57 164.19 106.117C164.399 105.659 164.503 105.099 164.503 104.437V93ZM176.976 104.094V97H178.819V109H176.976V106.969H176.851C176.569 107.578 176.132 108.096 175.538 108.523C174.944 108.945 174.194 109.156 173.288 109.156C172.538 109.156 171.872 108.992 171.288 108.664C170.705 108.331 170.247 107.831 169.913 107.164C169.58 106.492 169.413 105.646 169.413 104.625V97H171.257V104.5C171.257 105.375 171.502 106.073 171.991 106.594C172.486 107.115 173.116 107.375 173.882 107.375C174.34 107.375 174.806 107.258 175.28 107.023C175.76 106.789 176.161 106.43 176.484 105.945C176.812 105.461 176.976 104.844 176.976 104.094ZM183.38 101.781V109H181.536V97H183.318V98.875H183.474C183.755 98.2656 184.182 97.776 184.755 97.4063C185.328 97.0313 186.068 96.8438 186.974 96.8438C187.786 96.8438 188.497 97.0104 189.107 97.3437C189.716 97.6719 190.19 98.1719 190.529 98.8437C190.867 99.5104 191.036 100.354 191.036 101.375V109H189.193V101.5C189.193 100.557 188.948 99.8229 188.458 99.2969C187.969 98.7656 187.297 98.5 186.443 98.5C185.854 98.5 185.328 98.6276 184.865 98.8828C184.406 99.138 184.044 99.5104 183.779 100C183.513 100.49 183.38 101.083 183.38 101.781ZM198.777 109.25C197.621 109.25 196.623 108.995 195.785 108.484C194.951 107.969 194.308 107.25 193.855 106.328C193.407 105.401 193.183 104.323 193.183 103.094C193.183 101.865 193.407 100.781 193.855 99.8437C194.308 98.901 194.938 98.1667 195.746 97.6406C196.558 97.1094 197.506 96.8438 198.589 96.8438C199.214 96.8438 199.831 96.9479 200.441 97.1562C201.05 97.3646 201.605 97.7031 202.105 98.1719C202.605 98.6354 203.003 99.25 203.3 100.016C203.597 100.781 203.746 101.724 203.746 102.844V103.625H194.496V102.031H201.871C201.871 101.354 201.735 100.75 201.464 100.219C201.199 99.6875 200.818 99.2682 200.324 98.9609C199.834 98.6536 199.256 98.5 198.589 98.5C197.855 98.5 197.22 98.6823 196.683 99.0469C196.152 99.4062 195.743 99.875 195.456 100.453C195.17 101.031 195.027 101.651 195.027 102.312V103.375C195.027 104.281 195.183 105.049 195.496 105.68C195.813 106.305 196.253 106.781 196.816 107.109C197.378 107.432 198.032 107.594 198.777 107.594C199.261 107.594 199.699 107.526 200.089 107.391C200.485 107.25 200.826 107.042 201.113 106.766C201.399 106.484 201.621 106.135 201.777 105.719L203.558 106.219C203.371 106.823 203.055 107.354 202.613 107.812C202.17 108.266 201.623 108.62 200.972 108.875C200.321 109.125 199.589 109.25 198.777 109.25ZM211.386 109V107.594L216.668 101.812C217.288 101.135 217.798 100.547 218.199 100.047C218.6 99.5417 218.897 99.0677 219.09 98.625C219.288 98.1771 219.386 97.7083 219.386 97.2187C219.386 96.6563 219.251 96.1693 218.98 95.7578C218.715 95.3464 218.35 95.0286 217.886 94.8047C217.423 94.5807 216.902 94.4687 216.324 94.4687C215.709 94.4687 215.173 94.5964 214.715 94.8516C214.261 95.1016 213.91 95.4531 213.66 95.9062C213.415 96.3594 213.293 96.8906 213.293 97.5H211.449C211.449 96.5625 211.665 95.7396 212.097 95.0312C212.53 94.3229 213.118 93.7708 213.863 93.375C214.613 92.9792 215.454 92.7812 216.386 92.7812C217.324 92.7812 218.155 92.9792 218.879 93.375C219.603 93.7708 220.17 94.3047 220.582 94.9766C220.993 95.6484 221.199 96.3958 221.199 97.2187C221.199 97.8073 221.092 98.3828 220.879 98.9453C220.67 99.5026 220.306 100.125 219.785 100.812C219.269 101.495 218.553 102.328 217.636 103.312L214.043 107.156V107.281H221.48V109H211.386ZM229.047 109.219C228.13 109.219 227.305 109.036 226.57 108.672C225.836 108.307 225.247 107.807 224.805 107.172C224.362 106.536 224.12 105.812 224.078 105H225.953C226.026 105.724 226.354 106.323 226.937 106.797C227.526 107.266 228.229 107.5 229.047 107.5C229.703 107.5 230.286 107.346 230.797 107.039C231.312 106.732 231.716 106.31 232.008 105.773C232.305 105.232 232.453 104.62 232.453 103.937C232.453 103.24 232.299 102.617 231.992 102.07C231.69 101.518 231.273 101.083 230.742 100.766C230.211 100.448 229.604 100.286 228.922 100.281C228.432 100.276 227.93 100.352 227.414 100.508C226.898 100.659 226.474 100.854 226.141 101.094L224.328 100.875L225.297 93H233.609V94.7187H226.922L226.359 99.4375H226.453C226.781 99.1771 227.193 98.9609 227.687 98.7891C228.182 98.6172 228.698 98.5312 229.234 98.5312C230.213 98.5312 231.086 98.7656 231.851 99.2344C232.622 99.6979 233.226 100.333 233.664 101.141C234.107 101.948 234.328 102.87 234.328 103.906C234.328 104.927 234.099 105.839 233.641 106.641C233.187 107.437 232.562 108.068 231.766 108.531C230.969 108.99 230.062 109.219 229.047 109.219ZM238.951 106.812L238.826 107.656C238.738 108.25 238.602 108.885 238.42 109.563C238.243 110.24 238.058 110.878 237.865 111.477C237.673 112.076 237.514 112.552 237.389 112.906H235.982C236.05 112.573 236.139 112.133 236.248 111.586C236.357 111.039 236.467 110.427 236.576 109.75C236.691 109.078 236.785 108.391 236.857 107.687L236.951 106.812H238.951ZM247.204 109V107.594L252.485 101.812C253.105 101.135 253.615 100.547 254.016 100.047C254.417 99.5417 254.714 99.0677 254.907 98.625C255.105 98.1771 255.204 97.7083 255.204 97.2187C255.204 96.6563 255.068 96.1693 254.797 95.7578C254.532 95.3464 254.167 95.0286 253.704 94.8047C253.24 94.5807 252.719 94.4687 252.141 94.4687C251.526 94.4687 250.99 94.5964 250.532 94.8516C250.079 95.1016 249.727 95.4531 249.477 95.9062C249.232 96.3594 249.11 96.8906 249.11 97.5H247.266C247.266 96.5625 247.482 95.7396 247.914 95.0312C248.347 94.3229 248.935 93.7708 249.68 93.375C250.43 92.9792 251.271 92.7812 252.204 92.7812C253.141 92.7812 253.972 92.9792 254.696 93.375C255.42 93.7708 255.987 94.3047 256.399 94.9766C256.81 95.6484 257.016 96.3958 257.016 97.2187C257.016 97.8073 256.909 98.3828 256.696 98.9453C256.487 99.5026 256.123 100.125 255.602 100.812C255.086 101.495 254.37 102.328 253.454 103.312L249.86 107.156V107.281H257.297V109H247.204ZM265.083 109.219C263.905 109.219 262.903 108.898 262.075 108.258C261.247 107.612 260.614 106.677 260.176 105.453C259.739 104.224 259.52 102.74 259.52 101C259.52 99.2708 259.739 97.7943 260.176 96.5703C260.619 95.3411 261.254 94.4036 262.083 93.7578C262.916 93.1068 263.916 92.7812 265.083 92.7812C266.249 92.7812 267.247 93.1068 268.075 93.7578C268.908 94.4036 269.544 95.3411 269.981 96.5703C270.424 97.7943 270.645 99.2708 270.645 101C270.645 102.74 270.426 104.224 269.989 105.453C269.551 106.677 268.919 107.612 268.09 108.258C267.262 108.898 266.26 109.219 265.083 109.219ZM265.083 107.5C266.249 107.5 267.155 106.937 267.801 105.812C268.447 104.687 268.77 103.083 268.77 101C268.77 99.6146 268.622 98.4349 268.325 97.4609C268.033 96.487 267.611 95.7448 267.059 95.2344C266.512 94.724 265.853 94.4687 265.083 94.4687C263.926 94.4687 263.023 95.0391 262.372 96.1797C261.721 97.3151 261.395 98.9219 261.395 101C261.395 102.385 261.541 103.562 261.833 104.531C262.124 105.5 262.544 106.237 263.09 106.742C263.642 107.247 264.307 107.5 265.083 107.5ZM272.954 109V107.594L278.235 101.812C278.855 101.135 279.365 100.547 279.766 100.047C280.167 99.5417 280.464 99.0677 280.657 98.625C280.855 98.1771 280.954 97.7083 280.954 97.2187C280.954 96.6563 280.818 96.1693 280.548 95.7578C280.282 95.3464 279.917 95.0286 279.454 94.8047C278.99 94.5807 278.469 94.4687 277.891 94.4687C277.277 94.4687 276.74 94.5964 276.282 94.8516C275.829 95.1016 275.477 95.4531 275.227 95.9062C274.982 96.3594 274.86 96.8906 274.86 97.5H273.016C273.016 96.5625 273.232 95.7396 273.665 95.0312C274.097 94.3229 274.686 93.7708 275.43 93.375C276.18 92.9792 277.022 92.7812 277.954 92.7812C278.891 92.7812 279.722 92.9792 280.446 93.375C281.17 93.7708 281.738 94.3047 282.149 94.9766C282.561 95.6484 282.766 96.3958 282.766 97.2187C282.766 97.8073 282.66 98.3828 282.446 98.9453C282.238 99.5026 281.873 100.125 281.352 100.812C280.837 101.495 280.12 102.328 279.204 103.312L275.61 107.156V107.281H283.048V109H272.954ZM290.927 109.219C290.27 109.208 289.614 109.083 288.958 108.844C288.302 108.604 287.703 108.201 287.161 107.633C286.619 107.06 286.184 106.286 285.856 105.312C285.528 104.333 285.364 103.104 285.364 101.625C285.364 100.208 285.497 98.9531 285.763 97.8594C286.028 96.7604 286.414 95.8359 286.919 95.0859C287.424 94.3307 288.033 93.7578 288.747 93.3672C289.466 92.9766 290.276 92.7812 291.177 92.7812C292.072 92.7812 292.869 92.9609 293.567 93.3203C294.27 93.6745 294.843 94.1693 295.286 94.8047C295.729 95.4401 296.015 96.1719 296.145 97H294.239C294.062 96.2812 293.718 95.6849 293.208 95.2109C292.697 94.737 292.02 94.5 291.177 94.5C289.937 94.5 288.96 95.0391 288.247 96.1172C287.539 97.1953 287.182 98.7083 287.177 100.656H287.302C287.593 100.214 287.94 99.8359 288.341 99.5234C288.747 99.2057 289.195 98.9609 289.684 98.7891C290.174 98.6172 290.692 98.5312 291.239 98.5312C292.156 98.5312 292.994 98.7604 293.755 99.2187C294.515 99.6719 295.125 100.299 295.583 101.102C296.041 101.898 296.27 102.812 296.27 103.844C296.27 104.833 296.049 105.74 295.606 106.562C295.164 107.38 294.541 108.031 293.739 108.516C292.942 108.995 292.005 109.229 290.927 109.219ZM290.927 107.5C291.583 107.5 292.171 107.336 292.692 107.008C293.218 106.68 293.632 106.24 293.934 105.687C294.242 105.135 294.395 104.521 294.395 103.844C294.395 103.182 294.247 102.581 293.95 102.039C293.658 101.492 293.255 101.057 292.739 100.734C292.229 100.411 291.645 100.25 290.989 100.25C290.494 100.25 290.033 100.349 289.606 100.547C289.179 100.74 288.804 101.005 288.481 101.344C288.164 101.682 287.914 102.07 287.731 102.508C287.549 102.94 287.458 103.396 287.458 103.875C287.458 104.51 287.606 105.104 287.903 105.656C288.205 106.208 288.617 106.654 289.138 106.992C289.664 107.331 290.26 107.5 290.927 107.5Z" fill="#191817"/>
<path d="M82.625 131V147H80.75L72.0313 134.437H71.875V147H69.9375V131H71.8125L80.5625 143.594H80.7188V131H82.625ZM90.6232 147.25C89.467 147.25 88.4696 146.995 87.631 146.484C86.7977 145.969 86.1545 145.25 85.7013 144.328C85.2534 143.401 85.0295 142.323 85.0295 141.094C85.0295 139.865 85.2534 138.781 85.7013 137.844C86.1545 136.901 86.7847 136.167 87.592 135.641C88.4045 135.109 89.3524 134.844 90.4357 134.844C91.0607 134.844 91.6779 134.948 92.2873 135.156C92.8966 135.365 93.4513 135.703 93.9513 136.172C94.4513 136.635 94.8498 137.25 95.1466 138.016C95.4435 138.781 95.592 139.724 95.592 140.844V141.625H86.342V140.031H93.717C93.717 139.354 93.5815 138.75 93.3107 138.219C93.0451 137.687 92.6649 137.268 92.1701 136.961C91.6805 136.654 91.1024 136.5 90.4357 136.5C89.7013 136.5 89.0659 136.682 88.5295 137.047C87.9982 137.406 87.5893 137.875 87.3029 138.453C87.0164 139.031 86.8732 139.651 86.8732 140.312V141.375C86.8732 142.281 87.0295 143.049 87.342 143.68C87.6597 144.305 88.0998 144.781 88.6623 145.109C89.2248 145.432 89.8784 145.594 90.6232 145.594C91.1076 145.594 91.5451 145.526 91.9357 145.391C92.3315 145.25 92.6727 145.042 92.9591 144.766C93.2456 144.484 93.467 144.135 93.6232 143.719L95.4045 144.219C95.217 144.823 94.9018 145.354 94.4591 145.812C94.0164 146.266 93.4696 146.62 92.8185 146.875C92.1675 147.125 91.4357 147.25 90.6232 147.25ZM98.7894 135L101.664 139.906L104.539 135H106.664L102.789 141L106.664 147H104.539L101.664 142.344L98.7894 147H96.6644L100.477 141L96.6644 135H98.7894ZM113.854 135V136.562H107.635V135H113.854ZM109.448 132.125H111.291V143.562C111.291 144.083 111.367 144.474 111.518 144.734C111.674 144.99 111.872 145.161 112.112 145.25C112.357 145.333 112.614 145.375 112.885 145.375C113.088 145.375 113.255 145.365 113.385 145.344C113.515 145.318 113.62 145.297 113.698 145.281L114.073 146.937C113.948 146.984 113.773 147.031 113.549 147.078C113.325 147.13 113.041 147.156 112.698 147.156C112.177 147.156 111.666 147.044 111.166 146.82C110.672 146.596 110.26 146.255 109.932 145.797C109.609 145.339 109.448 144.76 109.448 144.062V132.125ZM126.526 147.25C125.37 147.25 124.373 146.995 123.534 146.484C122.701 145.969 122.057 145.25 121.604 144.328C121.156 143.401 120.932 142.323 120.932 141.094C120.932 139.865 121.156 138.781 121.604 137.844C122.057 136.901 122.688 136.167 123.495 135.641C124.307 135.109 125.255 134.844 126.339 134.844C126.964 134.844 127.581 134.948 128.19 135.156C128.8 135.365 129.354 135.703 129.854 136.172C130.354 136.635 130.753 137.25 131.05 138.016C131.346 138.781 131.495 139.724 131.495 140.844V141.625H122.245V140.031H129.62C129.62 139.354 129.485 138.75 129.214 138.219C128.948 137.687 128.568 137.268 128.073 136.961C127.583 136.654 127.005 136.5 126.339 136.5C125.604 136.5 124.969 136.682 124.432 137.047C123.901 137.406 123.492 137.875 123.206 138.453C122.919 139.031 122.776 139.651 122.776 140.312V141.375C122.776 142.281 122.932 143.049 123.245 143.68C123.563 144.305 124.003 144.781 124.565 145.109C125.128 145.432 125.781 145.594 126.526 145.594C127.011 145.594 127.448 145.526 127.839 145.391C128.235 145.25 128.576 145.042 128.862 144.766C129.149 144.484 129.37 144.135 129.526 143.719L131.307 144.219C131.12 144.823 130.805 145.354 130.362 145.812C129.919 146.266 129.373 146.62 128.721 146.875C128.07 147.125 127.339 147.25 126.526 147.25ZM135.483 139.781V147H133.64V135H135.421V136.875H135.577C135.858 136.266 136.285 135.776 136.858 135.406C137.431 135.031 138.171 134.844 139.077 134.844C139.89 134.844 140.601 135.01 141.21 135.344C141.819 135.672 142.293 136.172 142.632 136.844C142.97 137.51 143.14 138.354 143.14 139.375V147H141.296V139.5C141.296 138.557 141.051 137.823 140.561 137.297C140.072 136.766 139.4 136.5 138.546 136.5C137.957 136.5 137.431 136.628 136.968 136.883C136.509 137.138 136.147 137.51 135.882 138C135.616 138.49 135.483 139.083 135.483 139.781ZM150.88 147.25C149.724 147.25 148.726 146.995 147.888 146.484C147.054 145.969 146.411 145.25 145.958 144.328C145.51 143.401 145.286 142.323 145.286 141.094C145.286 139.865 145.51 138.781 145.958 137.844C146.411 136.901 147.041 136.167 147.849 135.641C148.661 135.109 149.609 134.844 150.692 134.844C151.317 134.844 151.935 134.948 152.544 135.156C153.153 135.365 153.708 135.703 154.208 136.172C154.708 136.635 155.107 137.25 155.403 138.016C155.7 138.781 155.849 139.724 155.849 140.844V141.625H146.599V140.031H153.974C153.974 139.354 153.838 138.75 153.567 138.219C153.302 137.687 152.922 137.268 152.427 136.961C151.937 136.654 151.359 136.5 150.692 136.5C149.958 136.5 149.323 136.682 148.786 137.047C148.255 137.406 147.846 137.875 147.56 138.453C147.273 139.031 147.13 139.651 147.13 140.312V141.375C147.13 142.281 147.286 143.049 147.599 143.68C147.916 144.305 148.357 144.781 148.919 145.109C149.482 145.432 150.135 145.594 150.88 145.594C151.364 145.594 151.802 145.526 152.192 145.391C152.588 145.25 152.929 145.042 153.216 144.766C153.502 144.484 153.724 144.135 153.88 143.719L155.661 144.219C155.474 144.823 155.159 145.354 154.716 145.812C154.273 146.266 153.726 146.62 153.075 146.875C152.424 147.125 151.692 147.25 150.88 147.25ZM157.993 147V135H159.775V136.812H159.9C160.118 136.219 160.514 135.737 161.087 135.367C161.66 134.997 162.306 134.812 163.025 134.812C163.16 134.812 163.329 134.815 163.533 134.82C163.736 134.826 163.889 134.833 163.993 134.844V136.719C163.931 136.703 163.788 136.68 163.564 136.648C163.345 136.612 163.113 136.594 162.868 136.594C162.285 136.594 161.764 136.716 161.306 136.961C160.853 137.201 160.493 137.534 160.228 137.961C159.967 138.383 159.837 138.865 159.837 139.406V147H157.993ZM169.997 151.75C169.107 151.75 168.341 151.635 167.701 151.406C167.06 151.182 166.526 150.885 166.099 150.516C165.677 150.151 165.341 149.76 165.091 149.344L166.56 148.313C166.727 148.531 166.938 148.781 167.193 149.062C167.448 149.349 167.797 149.596 168.24 149.805C168.688 150.018 169.274 150.125 169.997 150.125C170.966 150.125 171.766 149.891 172.396 149.422C173.026 148.953 173.341 148.219 173.341 147.219V144.781H173.185C173.05 145 172.857 145.271 172.607 145.594C172.362 145.911 172.008 146.195 171.544 146.445C171.086 146.69 170.466 146.812 169.685 146.812C168.716 146.812 167.846 146.583 167.076 146.125C166.31 145.667 165.703 145 165.255 144.125C164.813 143.25 164.591 142.187 164.591 140.937C164.591 139.708 164.807 138.638 165.24 137.727C165.672 136.81 166.274 136.102 167.044 135.602C167.815 135.096 168.706 134.844 169.716 134.844C170.497 134.844 171.117 134.974 171.576 135.234C172.039 135.49 172.393 135.781 172.638 136.109C172.888 136.432 173.081 136.698 173.216 136.906H173.404V135H175.185V147.344C175.185 148.375 174.951 149.214 174.482 149.859C174.018 150.51 173.393 150.987 172.607 151.289C171.826 151.596 170.956 151.75 169.997 151.75ZM169.935 145.156C170.675 145.156 171.3 144.987 171.81 144.648C172.32 144.31 172.708 143.823 172.974 143.188C173.24 142.552 173.372 141.792 173.372 140.906C173.372 140.042 173.242 139.279 172.982 138.617C172.721 137.956 172.336 137.437 171.826 137.062C171.315 136.687 170.685 136.5 169.935 136.5C169.154 136.5 168.503 136.698 167.982 137.094C167.466 137.49 167.078 138.021 166.818 138.688C166.563 139.354 166.435 140.094 166.435 140.906C166.435 141.74 166.565 142.477 166.826 143.117C167.091 143.753 167.482 144.253 167.997 144.617C168.518 144.977 169.164 145.156 169.935 145.156ZM179.088 151.5C178.775 151.5 178.496 151.474 178.252 151.422C178.007 151.375 177.838 151.328 177.744 151.281L178.213 149.656C178.66 149.771 179.056 149.813 179.4 149.781C179.744 149.75 180.048 149.596 180.314 149.32C180.585 149.049 180.832 148.609 181.056 148L181.4 147.063L176.963 135H178.963L182.275 144.562H182.4L185.713 135H187.713L182.619 148.75C182.39 149.37 182.106 149.883 181.767 150.289C181.429 150.701 181.035 151.005 180.588 151.203C180.145 151.401 179.645 151.5 179.088 151.5ZM195.014 147V135H196.857V147H195.014ZM195.951 133C195.592 133 195.282 132.878 195.021 132.633C194.766 132.388 194.639 132.094 194.639 131.75C194.639 131.406 194.766 131.112 195.021 130.867C195.282 130.622 195.592 130.5 195.951 130.5C196.31 130.5 196.618 130.622 196.873 130.867C197.133 131.112 197.264 131.406 197.264 131.75C197.264 132.094 197.133 132.388 196.873 132.633C196.618 132.878 196.31 133 195.951 133ZM201.418 139.781V147H199.574V135H201.356V136.875H201.512C201.793 136.266 202.22 135.776 202.793 135.406C203.366 135.031 204.106 134.844 205.012 134.844C205.824 134.844 206.535 135.01 207.145 135.344C207.754 135.672 208.228 136.172 208.566 136.844C208.905 137.51 209.074 138.354 209.074 139.375V147H207.231V139.5C207.231 138.557 206.986 137.823 206.496 137.297C206.007 136.766 205.335 136.5 204.481 136.5C203.892 136.5 203.366 136.628 202.902 136.883C202.444 137.138 202.082 137.51 201.816 138C201.551 138.49 201.418 139.083 201.418 139.781ZM217.28 147V145.594L222.561 139.812C223.181 139.135 223.691 138.547 224.092 138.047C224.493 137.542 224.79 137.068 224.983 136.625C225.181 136.177 225.28 135.708 225.28 135.219C225.28 134.656 225.144 134.169 224.873 133.758C224.608 133.346 224.243 133.029 223.78 132.805C223.316 132.581 222.795 132.469 222.217 132.469C221.603 132.469 221.066 132.596 220.608 132.852C220.155 133.102 219.803 133.453 219.553 133.906C219.308 134.359 219.186 134.891 219.186 135.5H217.342C217.342 134.562 217.558 133.74 217.991 133.031C218.423 132.323 219.011 131.771 219.756 131.375C220.506 130.979 221.347 130.781 222.28 130.781C223.217 130.781 224.048 130.979 224.772 131.375C225.496 131.771 226.064 132.305 226.475 132.977C226.886 133.648 227.092 134.396 227.092 135.219C227.092 135.807 226.985 136.383 226.772 136.945C226.564 137.503 226.199 138.125 225.678 138.812C225.163 139.495 224.446 140.328 223.53 141.312L219.936 145.156V145.281H227.373V147H217.28ZM240.03 147.25C239.03 147.25 238.147 146.997 237.382 146.492C236.616 145.982 236.017 145.263 235.585 144.336C235.152 143.404 234.936 142.302 234.936 141.031C234.936 139.771 235.152 138.677 235.585 137.75C236.017 136.823 236.619 136.107 237.389 135.602C238.16 135.096 239.051 134.844 240.061 134.844C240.842 134.844 241.46 134.974 241.913 135.234C242.371 135.49 242.72 135.781 242.96 136.109C243.204 136.432 243.395 136.698 243.53 136.906H243.686V131H245.53V147H243.749V145.156H243.53C243.395 145.375 243.202 145.651 242.952 145.984C242.702 146.312 242.345 146.607 241.882 146.867C241.418 147.122 240.801 147.25 240.03 147.25ZM240.28 145.594C241.02 145.594 241.645 145.401 242.155 145.016C242.665 144.625 243.053 144.086 243.319 143.398C243.585 142.706 243.717 141.906 243.717 141C243.717 140.104 243.587 139.32 243.327 138.648C243.066 137.971 242.681 137.445 242.171 137.07C241.66 136.69 241.03 136.5 240.28 136.5C239.499 136.5 238.848 136.701 238.327 137.102C237.811 137.497 237.423 138.036 237.163 138.719C236.908 139.396 236.78 140.156 236.78 141C236.78 141.854 236.91 142.63 237.171 143.328C237.436 144.021 237.827 144.573 238.342 144.984C238.863 145.391 239.509 145.594 240.28 145.594ZM252.034 147.281C251.274 147.281 250.584 147.138 249.964 146.852C249.344 146.56 248.852 146.141 248.487 145.594C248.123 145.042 247.94 144.375 247.94 143.594C247.94 142.906 248.076 142.349 248.347 141.922C248.617 141.49 248.979 141.151 249.432 140.906C249.886 140.661 250.386 140.479 250.932 140.359C251.485 140.234 252.039 140.135 252.597 140.063C253.326 139.969 253.917 139.898 254.37 139.852C254.828 139.799 255.162 139.714 255.37 139.594C255.584 139.474 255.69 139.266 255.69 138.969V138.906C255.69 138.135 255.479 137.536 255.057 137.109C254.641 136.682 254.008 136.469 253.159 136.469C252.279 136.469 251.589 136.661 251.089 137.047C250.589 137.432 250.237 137.844 250.034 138.281L248.284 137.656C248.597 136.927 249.013 136.359 249.534 135.953C250.06 135.542 250.633 135.255 251.253 135.094C251.878 134.927 252.492 134.844 253.097 134.844C253.482 134.844 253.925 134.891 254.425 134.984C254.93 135.073 255.417 135.258 255.886 135.539C256.36 135.82 256.753 136.245 257.065 136.812C257.378 137.38 257.534 138.141 257.534 139.094V147H255.69V145.375H255.597C255.472 145.635 255.263 145.914 254.972 146.211C254.68 146.508 254.292 146.76 253.807 146.969C253.323 147.177 252.732 147.281 252.034 147.281ZM252.315 145.625C253.044 145.625 253.659 145.482 254.159 145.195C254.664 144.909 255.044 144.539 255.3 144.086C255.56 143.633 255.69 143.156 255.69 142.656V140.969C255.612 141.062 255.44 141.148 255.175 141.227C254.914 141.299 254.612 141.365 254.268 141.422C253.93 141.474 253.599 141.521 253.276 141.562C252.959 141.599 252.701 141.63 252.503 141.656C252.024 141.719 251.576 141.82 251.159 141.961C250.748 142.096 250.414 142.302 250.159 142.578C249.909 142.849 249.784 143.219 249.784 143.687C249.784 144.328 250.021 144.812 250.495 145.141C250.974 145.464 251.581 145.625 252.315 145.625ZM260.997 151.5C260.685 151.5 260.406 151.474 260.161 151.422C259.916 151.375 259.747 151.328 259.653 151.281L260.122 149.656C260.57 149.771 260.966 149.813 261.31 149.781C261.653 149.75 261.958 149.596 262.224 149.32C262.495 149.049 262.742 148.609 262.966 148L263.31 147.063L258.872 135H260.872L264.185 144.562H264.31L267.622 135H269.622L264.528 148.75C264.299 149.37 264.015 149.883 263.677 150.289C263.338 150.701 262.945 151.005 262.497 151.203C262.054 151.401 261.554 151.5 260.997 151.5ZM279.896 137.687L278.239 138.156C278.135 137.88 277.982 137.612 277.779 137.352C277.581 137.086 277.31 136.867 276.966 136.695C276.622 136.523 276.182 136.437 275.646 136.437C274.911 136.437 274.299 136.607 273.81 136.945C273.325 137.279 273.083 137.703 273.083 138.219C273.083 138.677 273.25 139.039 273.583 139.305C273.917 139.57 274.437 139.792 275.146 139.969L276.927 140.406C278 140.667 278.799 141.065 279.325 141.602C279.851 142.133 280.114 142.818 280.114 143.656C280.114 144.344 279.917 144.958 279.521 145.5C279.13 146.042 278.583 146.469 277.88 146.781C277.177 147.094 276.359 147.25 275.427 147.25C274.203 147.25 273.19 146.984 272.388 146.453C271.586 145.922 271.078 145.146 270.864 144.125L272.614 143.687C272.781 144.333 273.096 144.818 273.56 145.141C274.029 145.464 274.64 145.625 275.396 145.625C276.255 145.625 276.937 145.443 277.443 145.078C277.953 144.708 278.208 144.266 278.208 143.75C278.208 143.333 278.062 142.984 277.771 142.703C277.479 142.417 277.031 142.203 276.427 142.062L274.427 141.594C273.328 141.333 272.521 140.93 272.005 140.383C271.495 139.831 271.239 139.141 271.239 138.312C271.239 137.635 271.43 137.036 271.81 136.516C272.195 135.995 272.719 135.586 273.38 135.289C274.047 134.992 274.802 134.844 275.646 134.844C276.833 134.844 277.765 135.104 278.443 135.625C279.125 136.146 279.609 136.833 279.896 137.687Z" fill="#555555"/>
<path d="M80 91V95M72 91V95M68 99H84M71 102H71.013M74.01 102H74.015M77.01 102H77.015M80.015 102H80.02M77.015 105H77.02M71.01 105H71.015M74.01 105H74.015M68 95C68 94.4696 68.2107 93.9609 68.5858 93.5858C68.9609 93.2107 69.4696 93 70 93H82C82.5304 93 83.0391 93.2107 83.4142 93.5858C83.7893 93.9609 84 94.4696 84 95V107C84 107.53 83.7893 108.039 83.4142 108.414C83.0391 108.789 82.5304 109 82 109H70C69.4696 109 68.9609 108.789 68.5858 108.414C68.2107 108.039 68 107.53 68 107V95Z" stroke="#191817" stroke-width="2" stroke-linecap="round" stroke-linejoin="round"/>
</svg>
