<svg width="229" height="88" viewBox="0 0 229 88" fill="none" xmlns="http://www.w3.org/2000/svg">
<path d="M5.27344 86.5V38.5H35.3672V44.7344H12.5156V59.3594H33.7969V65.5703H12.5156V80.2656H35.6484V86.5H5.27344ZM55.9751 87.2031C53.0688 87.2031 50.4751 86.4609 48.1938 84.9766C45.9282 83.4766 44.147 81.3437 42.8501 78.5781C41.5688 75.7969 40.9282 72.4609 40.9282 68.5703C40.9282 64.6797 41.5766 61.3516 42.8735 58.5859C44.186 55.8203 45.9829 53.7031 48.2641 52.2344C50.5454 50.7656 53.1313 50.0313 56.022 50.0313C58.2563 50.0313 60.0532 50.4062 61.4126 51.1562C62.7876 51.8906 63.8501 52.75 64.6001 53.7344C65.3657 54.7187 65.9595 55.5859 66.3813 56.3359H66.8032V38.5H73.811V86.5H66.9673V80.8984H66.3813C65.9595 81.6641 65.3501 82.5391 64.5532 83.5234C63.772 84.5078 62.6938 85.3672 61.3188 86.1016C59.9438 86.8359 58.1626 87.2031 55.9751 87.2031ZM57.522 81.2266C59.5376 81.2266 61.2407 80.6953 62.6313 79.6328C64.0376 78.5547 65.1001 77.0625 65.8188 75.1562C66.5532 73.25 66.9204 71.0312 66.9204 68.5C66.9204 66 66.561 63.8125 65.8423 61.9375C65.1235 60.0625 64.0688 58.6016 62.6782 57.5547C61.2876 56.5078 59.5688 55.9844 57.522 55.9844C55.4126 55.9844 53.6548 56.5312 52.2485 57.625C50.8423 58.7187 49.7798 60.2109 49.061 62.1016C48.3579 63.9922 48.0063 66.125 48.0063 68.5C48.0063 70.9062 48.3657 73.0703 49.0845 74.9922C49.8032 76.9141 50.8657 78.4375 52.272 79.5625C53.6938 80.6719 55.4438 81.2266 57.522 81.2266ZM89.6377 86.5L79.0439 50.5H86.2861L93.3408 76.9375H93.6923L100.77 50.5H108.013L115.044 76.8203H115.395L122.403 50.5H129.645L119.075 86.5H111.927L104.614 60.5078H104.075L96.7627 86.5H89.6377ZM144.792 87.2969C142.511 87.2969 140.449 86.875 138.605 86.0312C136.761 85.1719 135.3 83.9297 134.222 82.3047C133.16 80.6797 132.628 78.6875 132.628 76.3281C132.628 74.2969 133.019 72.625 133.8 71.3125C134.581 70 135.636 68.9609 136.964 68.1953C138.292 67.4297 139.777 66.8516 141.417 66.4609C143.058 66.0703 144.73 65.7734 146.433 65.5703C148.589 65.3203 150.339 65.1172 151.683 64.9609C153.027 64.7891 154.003 64.5156 154.613 64.1406C155.222 63.7656 155.527 63.1562 155.527 62.3125V62.1484C155.527 60.1016 154.949 58.5156 153.792 57.3906C152.652 56.2656 150.949 55.7031 148.683 55.7031C146.324 55.7031 144.464 56.2266 143.105 57.2734C141.761 58.3047 140.831 59.4531 140.316 60.7188L133.73 59.2187C134.511 57.0312 135.652 55.2656 137.152 53.9219C138.667 52.5625 140.41 51.5781 142.378 50.9687C144.347 50.3437 146.417 50.0313 148.589 50.0313C150.027 50.0313 151.55 50.2031 153.16 50.5469C154.785 50.875 156.3 51.4844 157.706 52.375C159.128 53.2656 160.292 54.5391 161.199 56.1953C162.105 57.8359 162.558 59.9688 162.558 62.5938V86.5H155.714V81.5781H155.433C154.98 82.4844 154.3 83.375 153.394 84.25C152.488 85.125 151.324 85.8516 149.902 86.4297C148.48 87.0078 146.777 87.2969 144.792 87.2969ZM146.316 81.6719C148.253 81.6719 149.91 81.2891 151.285 80.5234C152.675 79.7578 153.73 78.7578 154.449 77.5234C155.183 76.2734 155.55 74.9375 155.55 73.5156V68.875C155.3 69.125 154.816 69.3594 154.097 69.5781C153.394 69.7812 152.589 69.9609 151.683 70.1172C150.777 70.2578 149.894 70.3906 149.035 70.5156C148.175 70.625 147.456 70.7187 146.878 70.7969C145.519 70.9687 144.277 71.2578 143.152 71.6641C142.042 72.0703 141.152 72.6562 140.48 73.4219C139.824 74.1719 139.496 75.1719 139.496 76.4219C139.496 78.1562 140.136 79.4687 141.417 80.3594C142.699 81.2344 144.331 81.6719 146.316 81.6719ZM169.912 86.5V50.5H176.685V56.2187H177.06C177.717 54.2812 178.873 52.7578 180.529 51.6484C182.201 50.5234 184.092 49.9609 186.201 49.9609C186.639 49.9609 187.154 49.9766 187.748 50.0078C188.357 50.0391 188.834 50.0781 189.178 50.125V56.8281C188.896 56.75 188.396 56.6641 187.678 56.5703C186.959 56.4609 186.24 56.4062 185.521 56.4062C183.865 56.4062 182.389 56.7578 181.092 57.4609C179.81 58.1484 178.795 59.1094 178.045 60.3437C177.295 61.5625 176.92 62.9531 176.92 64.5156V86.5H169.912ZM205.45 87.2031C202.543 87.2031 199.95 86.4609 197.668 84.9766C195.403 83.4766 193.621 81.3437 192.325 78.5781C191.043 75.7969 190.403 72.4609 190.403 68.5703C190.403 64.6797 191.051 61.3516 192.348 58.5859C193.661 55.8203 195.457 53.7031 197.739 52.2344C200.02 50.7656 202.606 50.0313 205.496 50.0313C207.731 50.0313 209.528 50.4062 210.887 51.1562C212.262 51.8906 213.325 52.75 214.075 53.7344C214.84 54.7187 215.434 55.5859 215.856 56.3359H216.278V38.5H223.286V86.5H216.442V80.8984H215.856C215.434 81.6641 214.825 82.5391 214.028 83.5234C213.246 84.5078 212.168 85.3672 210.793 86.1016C209.418 86.8359 207.637 87.2031 205.45 87.2031ZM206.996 81.2266C209.012 81.2266 210.715 80.6953 212.106 79.6328C213.512 78.5547 214.575 77.0625 215.293 75.1562C216.028 73.25 216.395 71.0312 216.395 68.5C216.395 66 216.036 63.8125 215.317 61.9375C214.598 60.0625 213.543 58.6016 212.153 57.5547C210.762 56.5078 209.043 55.9844 206.996 55.9844C204.887 55.9844 203.129 56.5312 201.723 57.625C200.317 58.7187 199.254 60.2109 198.536 62.1016C197.832 63.9922 197.481 66.125 197.481 68.5C197.481 70.9062 197.84 73.0703 198.559 74.9922C199.278 76.9141 200.34 78.4375 201.746 79.5625C203.168 80.6719 204.918 81.2266 206.996 81.2266Z" fill="#191817"/>
<path d="M17.5568 7.5C17.3224 6.78267 17.0135 6.13991 16.63 5.57173C16.2536 4.99645 15.8026 4.50639 15.277 4.10156C14.7585 3.69673 14.169 3.38778 13.5085 3.17471C12.848 2.96165 12.1236 2.85511 11.3352 2.85511C10.0426 2.85511 8.86719 3.18892 7.80895 3.85653C6.75071 4.52415 5.90909 5.50781 5.28409 6.80753C4.65909 8.10724 4.34659 9.7017 4.34659 11.5909C4.34659 13.4801 4.66264 15.0746 5.29474 16.3743C5.92685 17.674 6.78267 18.6577 7.86222 19.3253C8.94176 19.9929 10.1563 20.3267 11.5057 20.3267C12.7557 20.3267 13.8565 20.0604 14.8082 19.5277C15.767 18.9879 16.5128 18.228 17.0455 17.2479C17.5852 16.2607 17.8551 15.0994 17.8551 13.7642L18.6648 13.9347H12.1023V11.5909H20.4119V13.9347C20.4119 15.7315 20.0284 17.294 19.2614 18.6222C18.5014 19.9503 17.4503 20.9801 16.108 21.7116C14.7727 22.4361 13.2386 22.7983 11.5057 22.7983C9.57386 22.7983 7.87642 22.3438 6.41335 21.4347C4.95739 20.5256 3.82102 19.233 3.00426 17.5568C2.1946 15.8807 1.78977 13.892 1.78977 11.5909C1.78977 9.86506 2.0206 8.31321 2.48224 6.93537C2.95099 5.55043 3.61151 4.37145 4.46378 3.39844C5.31605 2.42543 6.32457 1.67969 7.48935 1.16122C8.65412 0.642755 9.93608 0.383522 11.3352 0.383522C12.4858 0.383522 13.5582 0.557528 14.5526 0.905539C15.554 1.24645 16.4453 1.73295 17.2266 2.36506C18.0149 2.99006 18.6719 3.73935 19.1974 4.61293C19.723 5.4794 20.0852 6.44176 20.2841 7.5H17.5568ZM30.3438 22.8409C28.8665 22.8409 27.5703 22.4893 26.4553 21.7862C25.3473 21.0831 24.4809 20.0994 23.8559 18.8352C23.238 17.571 22.929 16.0937 22.929 14.4034C22.929 12.6989 23.238 11.2109 23.8559 9.93963C24.4809 8.66832 25.3473 7.68111 26.4553 6.97798C27.5703 6.27486 28.8665 5.9233 30.3438 5.9233C31.8211 5.9233 33.1137 6.27486 34.2216 6.97798C35.3367 7.68111 36.2032 8.66832 36.8211 9.93963C37.4461 11.2109 37.7586 12.6989 37.7586 14.4034C37.7586 16.0937 37.4461 17.571 36.8211 18.8352C36.2032 20.0994 35.3367 21.0831 34.2216 21.7862C33.1137 22.4893 31.8211 22.8409 30.3438 22.8409ZM30.3438 20.5824C31.4659 20.5824 32.3892 20.2947 33.1137 19.7195C33.8381 19.1442 34.3743 18.3878 34.7223 17.4503C35.0703 16.5128 35.2444 15.4972 35.2444 14.4034C35.2444 13.3097 35.0703 12.2905 34.7223 11.3459C34.3743 10.4013 33.8381 9.63778 33.1137 9.0554C32.3892 8.47301 31.4659 8.18182 30.3438 8.18182C29.2216 8.18182 28.2983 8.47301 27.5739 9.0554C26.8495 9.63778 26.3132 10.4013 25.9652 11.3459C25.6172 12.2905 25.4432 13.3097 25.4432 14.4034C25.4432 15.4972 25.6172 16.5128 25.9652 17.4503C26.3132 18.3878 26.8495 19.1442 27.5739 19.7195C28.2983 20.2947 29.2216 20.5824 30.3438 20.5824ZM47.3442 22.8409C45.8669 22.8409 44.5707 22.4893 43.4557 21.7862C42.3477 21.0831 41.4813 20.0994 40.8563 18.8352C40.2384 17.571 39.9294 16.0937 39.9294 14.4034C39.9294 12.6989 40.2384 11.2109 40.8563 9.93963C41.4813 8.66832 42.3477 7.68111 43.4557 6.97798C44.5707 6.27486 45.8669 5.9233 47.3442 5.9233C48.8214 5.9233 50.1141 6.27486 51.222 6.97798C52.3371 7.68111 53.2036 8.66832 53.8215 9.93963C54.4465 11.2109 54.759 12.6989 54.759 14.4034C54.759 16.0937 54.4465 17.571 53.8215 18.8352C53.2036 20.0994 52.3371 21.0831 51.222 21.7862C50.1141 22.4893 48.8214 22.8409 47.3442 22.8409ZM47.3442 20.5824C48.4663 20.5824 49.3896 20.2947 50.1141 19.7195C50.8385 19.1442 51.3747 18.3878 51.7227 17.4503C52.0707 16.5128 52.2447 15.4972 52.2447 14.4034C52.2447 13.3097 52.0707 12.2905 51.7227 11.3459C51.3747 10.4013 50.8385 9.63778 50.1141 9.0554C49.3896 8.47301 48.4663 8.18182 47.3442 8.18182C46.222 8.18182 45.2987 8.47301 44.5743 9.0554C43.8499 9.63778 43.3136 10.4013 42.9656 11.3459C42.6176 12.2905 42.4436 13.3097 42.4436 14.4034C42.4436 15.4972 42.6176 16.5128 42.9656 17.4503C43.3136 18.3878 43.8499 19.1442 44.5743 19.7195C45.2987 20.2947 46.222 20.5824 47.3442 20.5824ZM63.8758 22.8409C62.5122 22.8409 61.3083 22.4964 60.2643 21.8075C59.2203 21.1115 58.4035 20.1314 57.814 18.8672C57.2245 17.5959 56.9298 16.0938 56.9298 14.3608C56.9298 12.642 57.2245 11.1506 57.814 9.88636C58.4035 8.62216 59.2238 7.6456 60.275 6.95668C61.3261 6.26776 62.5406 5.9233 63.9184 5.9233C64.9838 5.9233 65.8254 6.10085 66.4433 6.45597C67.0683 6.80398 67.5441 7.2017 67.8708 7.64915C68.2047 8.08949 68.4639 8.4517 68.6485 8.73579H68.8616V0.681818H71.3758V22.5H68.9468V19.9858H68.6485C68.4639 20.2841 68.2011 20.6605 67.8602 21.1151C67.5193 21.5625 67.0328 21.9638 66.4007 22.3189C65.7686 22.6669 64.927 22.8409 63.8758 22.8409ZM64.2167 20.5824C65.2252 20.5824 66.0775 20.3196 66.7735 19.794C67.4696 19.2614 67.9987 18.5263 68.3609 17.5888C68.7231 16.6442 68.9042 15.554 68.9042 14.3182C68.9042 13.0966 68.7267 12.0277 68.3716 11.1115C68.0164 10.1882 67.4909 9.47088 66.7949 8.95952C66.0988 8.44105 65.2395 8.18182 64.2167 8.18182C63.1514 8.18182 62.2636 8.45526 61.5534 9.00213C60.8502 9.5419 60.3211 10.277 59.966 11.2074C59.618 12.1307 59.444 13.1676 59.444 14.3182C59.444 15.483 59.6216 16.5412 59.9767 17.4929C60.3389 18.4375 60.8716 19.1903 61.5747 19.7514C62.2849 20.3054 63.1656 20.5824 64.2167 20.5824ZM83.3081 0.681818H86.4615L93.8762 18.7926H94.1319L101.547 0.681818H104.7V22.5H102.229V5.9233H102.015L95.1973 22.5H92.8109L85.9927 5.9233H85.7797V22.5H83.3081V0.681818ZM115.404 22.8409C113.927 22.8409 112.631 22.4893 111.516 21.7862C110.408 21.0831 109.541 20.0994 108.916 18.8352C108.299 17.571 107.99 16.0937 107.99 14.4034C107.99 12.6989 108.299 11.2109 108.916 9.93963C109.541 8.66832 110.408 7.68111 111.516 6.97798C112.631 6.27486 113.927 5.9233 115.404 5.9233C116.882 5.9233 118.174 6.27486 119.282 6.97798C120.397 7.68111 121.264 8.66832 121.882 9.93963C122.507 11.2109 122.819 12.6989 122.819 14.4034C122.819 16.0937 122.507 17.571 121.882 18.8352C121.264 20.0994 120.397 21.0831 119.282 21.7862C118.174 22.4893 116.882 22.8409 115.404 22.8409ZM115.404 20.5824C116.526 20.5824 117.45 20.2947 118.174 19.7195C118.899 19.1442 119.435 18.3878 119.783 17.4503C120.131 16.5128 120.305 15.4972 120.305 14.4034C120.305 13.3097 120.131 12.2905 119.783 11.3459C119.435 10.4013 118.899 9.63778 118.174 9.0554C117.45 8.47301 116.526 8.18182 115.404 8.18182C114.282 8.18182 113.359 8.47301 112.634 9.0554C111.91 9.63778 111.374 10.4013 111.026 11.3459C110.678 12.2905 110.504 13.3097 110.504 14.4034C110.504 15.4972 110.678 16.5128 111.026 17.4503C111.374 18.3878 111.91 19.1442 112.634 19.7195C113.359 20.2947 114.282 20.5824 115.404 20.5824ZM125.757 22.5V6.13636H128.186V8.60795H128.356C128.655 7.7983 129.194 7.14134 129.976 6.63707C130.757 6.13281 131.638 5.88068 132.618 5.88068C132.802 5.88068 133.033 5.88423 133.31 5.89133C133.587 5.89844 133.797 5.90909 133.939 5.9233V8.48011C133.854 8.45881 133.658 8.42685 133.353 8.38423C133.055 8.33452 132.739 8.30966 132.405 8.30966C131.609 8.30966 130.899 8.47656 130.274 8.81037C129.656 9.13707 129.166 9.59162 128.804 10.174C128.449 10.7493 128.271 11.4062 128.271 12.1449V22.5H125.757ZM138.533 12.6562V22.5H136.019V6.13636H138.448V8.69318H138.661C139.045 7.86222 139.627 7.1946 140.408 6.69034C141.19 6.17898 142.198 5.9233 143.434 5.9233C144.542 5.9233 145.511 6.15057 146.342 6.60511C147.173 7.05256 147.82 7.73438 148.281 8.65057C148.743 9.55966 148.974 10.7102 148.974 12.1023V22.5H146.459V12.2727C146.459 10.9872 146.126 9.9858 145.458 9.26847C144.79 8.54403 143.874 8.18182 142.709 8.18182C141.907 8.18182 141.19 8.35582 140.557 8.70383C139.932 9.05185 139.439 9.55966 139.077 10.2273C138.714 10.8949 138.533 11.7045 138.533 12.6562ZM152.668 22.5V6.13636H155.182V22.5H152.668ZM153.946 3.40909C153.456 3.40909 153.034 3.24219 152.679 2.90838C152.331 2.57457 152.157 2.1733 152.157 1.70455C152.157 1.2358 152.331 0.834517 152.679 0.500709C153.034 0.166903 153.456 0 153.946 0C154.436 0 154.855 0.166903 155.203 0.500709C155.559 0.834517 155.736 1.2358 155.736 1.70455C155.736 2.1733 155.559 2.57457 155.203 2.90838C154.855 3.24219 154.436 3.40909 153.946 3.40909ZM161.401 12.6562V22.5H158.887V6.13636H161.316V8.69318H161.529C161.913 7.86222 162.495 7.1946 163.276 6.69034C164.058 6.17898 165.066 5.9233 166.302 5.9233C167.41 5.9233 168.379 6.15057 169.21 6.60511C170.041 7.05256 170.688 7.73438 171.149 8.65057C171.611 9.55966 171.842 10.7102 171.842 12.1023V22.5H169.327V12.2727C169.327 10.9872 168.994 9.9858 168.326 9.26847C167.658 8.54403 166.742 8.18182 165.577 8.18182C164.775 8.18182 164.058 8.35582 163.425 8.70383C162.8 9.05185 162.307 9.55966 161.945 10.2273C161.582 10.8949 161.401 11.7045 161.401 12.6562ZM182.141 28.9773C180.927 28.9773 179.882 28.821 179.009 28.5085C178.135 28.2031 177.407 27.7983 176.825 27.294C176.25 26.7969 175.792 26.2642 175.451 25.696L177.454 24.2898C177.681 24.5881 177.968 24.929 178.316 25.3125C178.664 25.7031 179.14 26.0405 179.744 26.3246C180.355 26.6158 181.154 26.7614 182.141 26.7614C183.462 26.7614 184.552 26.4418 185.412 25.8026C186.271 25.1634 186.701 24.1619 186.701 22.7983V19.4744H186.488C186.303 19.7727 186.04 20.142 185.699 20.5824C185.365 21.0156 184.882 21.4027 184.25 21.7436C183.625 22.0774 182.78 22.2443 181.715 22.2443C180.394 22.2443 179.208 21.9318 178.157 21.3068C177.113 20.6818 176.285 19.7727 175.674 18.5795C175.071 17.3864 174.769 15.9375 174.769 14.233C174.769 12.5568 175.064 11.0973 175.653 9.8544C176.243 8.6044 177.063 7.63849 178.114 6.95668C179.165 6.26776 180.38 5.9233 181.757 5.9233C182.823 5.9233 183.668 6.10085 184.293 6.45597C184.925 6.80398 185.408 7.2017 185.742 7.64915C186.083 8.08949 186.346 8.4517 186.53 8.73579H186.786V6.13636H189.215V22.9688C189.215 24.375 188.895 25.5185 188.256 26.3991C187.624 27.2869 186.772 27.9368 185.699 28.3487C184.634 28.7678 183.448 28.9773 182.141 28.9773ZM182.056 19.9858C183.064 19.9858 183.917 19.755 184.613 19.2933C185.309 18.8317 185.838 18.1676 186.2 17.3011C186.562 16.4347 186.743 15.3977 186.743 14.1903C186.743 13.0114 186.566 11.9709 186.211 11.0689C185.856 10.1669 185.33 9.46023 184.634 8.94886C183.938 8.4375 183.079 8.18182 182.056 8.18182C180.99 8.18182 180.103 8.4517 179.392 8.99148C178.689 9.53125 178.16 10.2557 177.805 11.1648C177.457 12.0739 177.283 13.0824 177.283 14.1903C177.283 15.3267 177.461 16.3317 177.816 17.2053C178.178 18.0717 178.711 18.7536 179.414 19.2507C180.124 19.7408 181.005 19.9858 182.056 19.9858ZM196.667 19.517L196.497 20.6676C196.376 21.4773 196.191 22.3438 195.943 23.267C195.701 24.1903 195.449 25.0604 195.186 25.8771C194.924 26.6939 194.707 27.3438 194.536 27.8267H192.619C192.711 27.3722 192.832 26.772 192.981 26.0263C193.13 25.2805 193.279 24.446 193.429 23.5227C193.585 22.6065 193.713 21.669 193.812 20.7102L193.94 19.517H196.667Z" fill="#555555"/>
</svg>
