<svg width="170" height="22" viewBox="0 0 170 22" fill="none" xmlns="http://www.w3.org/2000/svg">
<path d="M1.19209e-07 16.5V0.5H1.9375V8.4375H2.125L9.3125 0.5H11.8438L5.125 7.71875L11.8438 16.5H9.5L3.9375 9.0625L1.9375 11.3125V16.5H1.19209e-07ZM17.592 16.75C16.4357 16.75 15.4383 16.4948 14.5998 15.9844C13.7664 15.4688 13.1232 14.75 12.6701 13.8281C12.2222 12.901 11.9982 11.8229 11.9982 10.5938C11.9982 9.36458 12.2222 8.28125 12.6701 7.34375C13.1232 6.40104 13.7534 5.66667 14.5607 5.14062C15.3732 4.60937 16.3211 4.34375 17.4045 4.34375C18.0295 4.34375 18.6466 4.44792 19.256 4.65625C19.8654 4.86458 20.4201 5.20312 20.9201 5.67188C21.4201 6.13542 21.8185 6.75 22.1154 7.51562C22.4123 8.28125 22.5607 9.22396 22.5607 10.3437V11.125H13.3107V9.53125H20.6857C20.6857 8.85417 20.5503 8.25 20.2795 7.71875C20.0138 7.1875 19.6336 6.76823 19.1388 6.46094C18.6492 6.15365 18.0711 6 17.4045 6C16.6701 6 16.0347 6.18229 15.4982 6.54687C14.967 6.90625 14.5581 7.375 14.2716 7.95312C13.9852 8.53125 13.842 9.15104 13.842 9.8125V10.875C13.842 11.7813 13.9982 12.5495 14.3107 13.1797C14.6284 13.8047 15.0685 14.2812 15.631 14.6094C16.1935 14.9323 16.8472 15.0938 17.592 15.0938C18.0763 15.0938 18.5138 15.026 18.9045 14.8906C19.3003 14.75 19.6414 14.5417 19.9279 14.2656C20.2143 13.9844 20.4357 13.6354 20.592 13.2187L22.3732 13.7188C22.1857 14.3229 21.8706 14.8542 21.4279 15.3125C20.9852 15.7656 20.4383 16.1198 19.7873 16.375C19.1362 16.625 18.4045 16.75 17.592 16.75ZM29.7366 16.75C28.5804 16.75 27.583 16.4948 26.7445 15.9844C25.9111 15.4688 25.2679 14.75 24.8148 13.8281C24.3668 12.901 24.1429 11.8229 24.1429 10.5938C24.1429 9.36458 24.3668 8.28125 24.8148 7.34375C25.2679 6.40104 25.8981 5.66667 26.7054 5.14062C27.5179 4.60937 28.4658 4.34375 29.5491 4.34375C30.1741 4.34375 30.7913 4.44792 31.4007 4.65625C32.0101 4.86458 32.5648 5.20312 33.0648 5.67188C33.5648 6.13542 33.9632 6.75 34.2601 7.51562C34.557 8.28125 34.7054 9.22396 34.7054 10.3437V11.125H25.4554V9.53125H32.8304C32.8304 8.85417 32.695 8.25 32.4241 7.71875C32.1585 7.1875 31.7783 6.76823 31.2835 6.46094C30.7939 6.15365 30.2158 6 29.5491 6C28.8148 6 28.1793 6.18229 27.6429 6.54687C27.1116 6.90625 26.7028 7.375 26.4163 7.95312C26.1299 8.53125 25.9866 9.15104 25.9866 9.8125V10.875C25.9866 11.7813 26.1429 12.5495 26.4554 13.1797C26.7731 13.8047 27.2132 14.2812 27.7757 14.6094C28.3382 14.9323 28.9918 15.0938 29.7366 15.0938C30.221 15.0938 30.6585 15.026 31.0491 14.8906C31.445 14.75 31.7861 14.5417 32.0726 14.2656C32.359 13.9844 32.5804 13.6354 32.7366 13.2187L34.5179 13.7188C34.3304 14.3229 34.0153 14.8542 33.5726 15.3125C33.1299 15.7656 32.583 16.1198 31.932 16.375C31.2809 16.625 30.5491 16.75 29.7366 16.75ZM36.8501 21V4.5H38.6313V6.40625H38.8501C38.9855 6.19792 39.173 5.93229 39.4126 5.60937C39.6574 5.28125 40.0063 4.98958 40.4595 4.73438C40.9178 4.47396 41.5376 4.34375 42.3188 4.34375C43.3292 4.34375 44.2199 4.59635 44.9907 5.10156C45.7615 5.60677 46.3631 6.32292 46.7954 7.25C47.2277 8.17708 47.4438 9.27083 47.4438 10.5313C47.4438 11.8021 47.2277 12.9036 46.7954 13.8359C46.3631 14.763 45.7641 15.4818 44.9985 15.9922C44.2329 16.4974 43.3501 16.75 42.3501 16.75C41.5792 16.75 40.9621 16.6224 40.4985 16.3672C40.035 16.1068 39.6782 15.8125 39.4282 15.4844C39.1782 15.151 38.9855 14.875 38.8501 14.6562H38.6938V21H36.8501ZM38.6626 10.5C38.6626 11.4062 38.7954 12.2057 39.061 12.8984C39.3266 13.5859 39.7147 14.125 40.2251 14.5156C40.7355 14.901 41.3605 15.0938 42.1001 15.0938C42.8709 15.0938 43.5141 14.8906 44.0298 14.4844C44.5506 14.0729 44.9412 13.5208 45.2016 12.8281C45.4673 12.1302 45.6001 11.3542 45.6001 10.5C45.6001 9.65625 45.4699 8.89583 45.2095 8.21875C44.9542 7.53646 44.5662 6.9974 44.0454 6.60156C43.5298 6.20052 42.8813 6 42.1001 6C41.3501 6 40.7199 6.1901 40.2095 6.57031C39.699 6.94531 39.3136 7.47135 39.0532 8.14844C38.7928 8.82031 38.6626 9.60417 38.6626 10.5ZM60.3426 4.5V6.0625H54.1238V4.5H60.3426ZM55.9363 1.625H57.7801V13.0625C57.7801 13.5833 57.8556 13.974 58.0066 14.2344C58.1629 14.4896 58.3608 14.6615 58.6004 14.75C58.8452 14.8333 59.103 14.875 59.3738 14.875C59.577 14.875 59.7436 14.8646 59.8738 14.8437C60.004 14.8177 60.1082 14.7969 60.1863 14.7812L60.5613 16.4375C60.4363 16.4844 60.2618 16.5313 60.0379 16.5781C59.8139 16.6302 59.5301 16.6563 59.1863 16.6563C58.6655 16.6563 58.1551 16.5443 57.6551 16.3203C57.1603 16.0964 56.7488 15.7552 56.4207 15.2969C56.0978 14.8385 55.9363 14.2604 55.9363 13.5625V1.625ZM62.456 16.5V4.5H64.2373V6.3125H64.3623C64.581 5.71875 64.9768 5.23698 65.5498 4.86719C66.1227 4.49739 66.7685 4.3125 67.4873 4.3125C67.6227 4.3125 67.792 4.3151 67.9951 4.32031C68.1982 4.32552 68.3519 4.33333 68.456 4.34375V6.21875C68.3935 6.20312 68.2503 6.17969 68.0263 6.14844C67.8076 6.11198 67.5758 6.09375 67.331 6.09375C66.7477 6.09375 66.2269 6.21615 65.7685 6.46094C65.3154 6.70052 64.956 7.03385 64.6904 7.46094C64.43 7.88281 64.2998 8.36458 64.2998 8.90625V16.5H62.456ZM73.5128 16.7813C72.7524 16.7813 72.0623 16.638 71.4425 16.3516C70.8227 16.0599 70.3305 15.6406 69.9659 15.0938C69.6014 14.5417 69.4191 13.875 69.4191 13.0937C69.4191 12.4062 69.5545 11.849 69.8253 11.4219C70.0961 10.9896 70.4581 10.651 70.9112 10.4062C71.3644 10.1615 71.8644 9.97917 72.4112 9.85937C72.9633 9.73438 73.518 9.63542 74.0753 9.5625C74.8045 9.46875 75.3956 9.39844 75.8487 9.35156C76.3071 9.29948 76.6404 9.21354 76.8487 9.09375C77.0623 8.97396 77.1691 8.76562 77.1691 8.46875V8.40625C77.1691 7.63542 76.9581 7.03646 76.5362 6.60937C76.1196 6.18229 75.4868 5.96875 74.6378 5.96875C73.7576 5.96875 73.0675 6.16146 72.5675 6.54687C72.0675 6.93229 71.7159 7.34375 71.5128 7.78125L69.7628 7.15625C70.0753 6.42708 70.492 5.85937 71.0128 5.45312C71.5389 5.04167 72.1118 4.75521 72.7316 4.59375C73.3566 4.42708 73.9711 4.34375 74.5753 4.34375C74.9607 4.34375 75.4034 4.39062 75.9034 4.48437C76.4086 4.57292 76.8956 4.75781 77.3644 5.03906C77.8383 5.32031 78.2316 5.74479 78.5441 6.3125C78.8566 6.88021 79.0128 7.64062 79.0128 8.59375V16.5H77.1691V14.875H77.0753C76.9503 15.1354 76.742 15.4141 76.4503 15.7109C76.1586 16.0078 75.7706 16.2604 75.2862 16.4687C74.8019 16.6771 74.2107 16.7813 73.5128 16.7813ZM73.7941 15.125C74.5232 15.125 75.1378 14.9818 75.6378 14.6953C76.143 14.4089 76.5232 14.0391 76.7784 13.5859C77.0389 13.1328 77.1691 12.6562 77.1691 12.1562V10.4687C77.0909 10.5625 76.9191 10.6484 76.6534 10.7266C76.393 10.7995 76.0909 10.8646 75.7472 10.9219C75.4086 10.974 75.0779 11.0208 74.755 11.0625C74.4373 11.099 74.1795 11.1302 73.9816 11.1562C73.5024 11.2187 73.0545 11.3203 72.6378 11.4609C72.2264 11.5964 71.893 11.8021 71.6378 12.0781C71.3878 12.349 71.2628 12.7187 71.2628 13.1875C71.2628 13.8281 71.4998 14.3125 71.9737 14.6406C72.4529 14.9635 73.0597 15.125 73.7941 15.125ZM83.5618 9.28125V16.5H81.718V4.5H83.4993V6.375H83.6555C83.9368 5.76563 84.3639 5.27604 84.9368 4.90625C85.5097 4.53125 86.2493 4.34375 87.1555 4.34375C87.968 4.34375 88.679 4.51042 89.2884 4.84375C89.8977 5.17188 90.3717 5.67188 90.7102 6.34375C91.0488 7.01042 91.218 7.85417 91.218 8.875V16.5H89.3743V9C89.3743 8.05729 89.1295 7.32292 88.6399 6.79687C88.1503 6.26562 87.4785 6 86.6243 6C86.0358 6 85.5097 6.1276 85.0462 6.38281C84.5878 6.63802 84.2259 7.01042 83.9602 7.5C83.6946 7.98958 83.5618 8.58333 83.5618 9.28125ZM102.427 7.1875L100.771 7.65625C100.667 7.38021 100.513 7.11198 100.31 6.85156C100.112 6.58594 99.8412 6.36719 99.4975 6.19531C99.1537 6.02344 98.7136 5.9375 98.1772 5.9375C97.4428 5.9375 96.8308 6.10677 96.3412 6.44531C95.8569 6.77865 95.6147 7.20312 95.6147 7.71875C95.6147 8.17708 95.7814 8.53906 96.1147 8.80469C96.448 9.07031 96.9689 9.29167 97.6772 9.46875L99.4584 9.90625C100.531 10.1667 101.331 10.5651 101.857 11.1016C102.383 11.6328 102.646 12.3177 102.646 13.1562C102.646 13.8437 102.448 14.4583 102.052 15C101.662 15.5417 101.115 15.9688 100.412 16.2813C99.7084 16.5938 98.8907 16.75 97.9584 16.75C96.7345 16.75 95.7215 16.4844 94.9194 15.9531C94.1173 15.4219 93.6095 14.6458 93.3959 13.625L95.1459 13.1875C95.3126 13.8333 95.6277 14.3177 96.0912 14.6406C96.56 14.9635 97.172 15.125 97.9272 15.125C98.7866 15.125 99.4689 14.9427 99.9741 14.5781C100.484 14.2083 100.74 13.7656 100.74 13.25C100.74 12.8333 100.594 12.4844 100.302 12.2031C100.011 11.9167 99.5626 11.7031 98.9584 11.5625L96.9584 11.0937C95.8595 10.8333 95.0522 10.4297 94.5366 9.88281C94.0261 9.33073 93.7709 8.64062 93.7709 7.8125C93.7709 7.13542 93.961 6.53646 94.3412 6.01562C94.7267 5.49479 95.2501 5.08594 95.9116 4.78906C96.5782 4.49219 97.3334 4.34375 98.1772 4.34375C99.3647 4.34375 100.297 4.60417 100.974 5.125C101.656 5.64583 102.141 6.33333 102.427 7.1875ZM104.761 16.5V4.5H106.543V6.375H106.699C106.949 5.73437 107.352 5.23698 107.91 4.88281C108.467 4.52344 109.136 4.34375 109.918 4.34375C110.709 4.34375 111.368 4.52344 111.894 4.88281C112.425 5.23698 112.839 5.73437 113.136 6.375H113.261C113.569 5.75521 114.03 5.26302 114.644 4.89844C115.259 4.52865 115.996 4.34375 116.855 4.34375C117.928 4.34375 118.806 4.67969 119.488 5.35156C120.17 6.01823 120.511 7.05729 120.511 8.46875V16.5H118.668V8.46875C118.668 7.58333 118.425 6.95052 117.941 6.57031C117.457 6.1901 116.886 6 116.23 6C115.386 6 114.733 6.25521 114.269 6.76562C113.806 7.27083 113.574 7.91146 113.574 8.6875V16.5H111.699V8.28125C111.699 7.59896 111.477 7.04948 111.035 6.63281C110.592 6.21094 110.022 6 109.324 6C108.845 6 108.397 6.1276 107.98 6.38281C107.569 6.63802 107.235 6.99219 106.98 7.44531C106.73 7.89323 106.605 8.41146 106.605 9V16.5H104.761ZM130.785 11.5937V4.5H132.629V16.5H130.785V14.4687H130.66C130.379 15.0781 129.941 15.5964 129.347 16.0234C128.754 16.4453 128.004 16.6563 127.097 16.6563C126.347 16.6563 125.681 16.4922 125.097 16.1641C124.514 15.8307 124.056 15.3307 123.722 14.6641C123.389 13.9922 123.222 13.1458 123.222 12.125V4.5H125.066V12C125.066 12.875 125.311 13.5729 125.801 14.0938C126.295 14.6146 126.926 14.875 127.691 14.875C128.15 14.875 128.616 14.7578 129.09 14.5234C129.569 14.2891 129.97 13.9297 130.293 13.4453C130.621 12.9609 130.785 12.3437 130.785 11.5937ZM140.564 4.5V6.0625H134.346V4.5H140.564ZM136.158 1.625H138.002V13.0625C138.002 13.5833 138.077 13.974 138.228 14.2344C138.385 14.4896 138.583 14.6615 138.822 14.75C139.067 14.8333 139.325 14.875 139.596 14.875C139.799 14.875 139.965 14.8646 140.096 14.8437C140.226 14.8177 140.33 14.7969 140.408 14.7812L140.783 16.4375C140.658 16.4844 140.484 16.5313 140.26 16.5781C140.036 16.6302 139.752 16.6563 139.408 16.6563C138.887 16.6563 138.377 16.5443 137.877 16.3203C137.382 16.0964 136.971 15.7552 136.643 15.2969C136.32 14.8385 136.158 14.2604 136.158 13.5625V1.625ZM142.678 16.5V4.5H144.522V16.5H142.678ZM143.615 2.5C143.256 2.5 142.946 2.3776 142.686 2.13281C142.43 1.88802 142.303 1.59375 142.303 1.25C142.303 0.90625 142.43 0.611979 142.686 0.367187C142.946 0.122396 143.256 0 143.615 0C143.975 0 144.282 0.122396 144.537 0.367187C144.798 0.611979 144.928 0.90625 144.928 1.25C144.928 1.59375 144.798 1.88802 144.537 2.13281C144.282 2.3776 143.975 2.5 143.615 2.5ZM149.082 9.28125V16.5H147.239V4.5H149.02V6.375H149.176C149.457 5.76563 149.884 5.27604 150.457 4.90625C151.03 4.53125 151.77 4.34375 152.676 4.34375C153.489 4.34375 154.199 4.51042 154.809 4.84375C155.418 5.17188 155.892 5.67188 156.231 6.34375C156.569 7.01042 156.739 7.85417 156.739 8.875V16.5H154.895V9C154.895 8.05729 154.65 7.32292 154.16 6.79687C153.671 6.26562 152.999 6 152.145 6C151.556 6 151.03 6.1276 150.567 6.38281C150.108 6.63802 149.746 7.01042 149.481 7.5C149.215 7.98958 149.082 8.58333 149.082 9.28125ZM164.291 21.25C163.401 21.25 162.635 21.1354 161.995 20.9063C161.354 20.6823 160.82 20.3854 160.393 20.0156C159.971 19.651 159.635 19.2604 159.385 18.8438L160.854 17.8125C161.021 18.0313 161.232 18.2813 161.487 18.5625C161.742 18.849 162.091 19.0964 162.534 19.3047C162.982 19.5182 163.567 19.625 164.291 19.625C165.26 19.625 166.06 19.3906 166.69 18.9219C167.32 18.4531 167.635 17.7187 167.635 16.7187V14.2812H167.479C167.343 14.5 167.151 14.7708 166.901 15.0938C166.656 15.4115 166.302 15.6953 165.838 15.9453C165.38 16.1901 164.76 16.3125 163.979 16.3125C163.01 16.3125 162.14 16.0833 161.37 15.625C160.604 15.1667 159.997 14.5 159.549 13.625C159.107 12.75 158.885 11.6875 158.885 10.4375C158.885 9.20833 159.101 8.13802 159.534 7.22656C159.966 6.3099 160.567 5.60156 161.338 5.10156C162.109 4.59635 163 4.34375 164.01 4.34375C164.791 4.34375 165.411 4.47396 165.87 4.73438C166.333 4.98958 166.687 5.28125 166.932 5.60937C167.182 5.93229 167.375 6.19792 167.51 6.40625H167.698V4.5H169.479V16.8438C169.479 17.875 169.245 18.7135 168.776 19.3594C168.312 20.0104 167.687 20.487 166.901 20.7891C166.12 21.0964 165.25 21.25 164.291 21.25ZM164.229 14.6562C164.968 14.6562 165.593 14.487 166.104 14.1484C166.614 13.8099 167.002 13.3229 167.268 12.6875C167.534 12.0521 167.666 11.2917 167.666 10.4062C167.666 9.54167 167.536 8.77865 167.276 8.11719C167.015 7.45573 166.63 6.9375 166.12 6.5625C165.609 6.1875 164.979 6 164.229 6C163.448 6 162.797 6.19792 162.276 6.59375C161.76 6.98958 161.372 7.52083 161.112 8.1875C160.857 8.85417 160.729 9.59375 160.729 10.4062C160.729 11.2396 160.859 11.9766 161.12 12.6172C161.385 13.2526 161.776 13.7526 162.291 14.1172C162.812 14.4766 163.458 14.6562 164.229 14.6562Z" fill="#555555"/>
</svg>
