<svg width="699" height="237" viewBox="0 0 699 237" fill="none" xmlns="http://www.w3.org/2000/svg">
<rect width="699" height="237" rx="54" fill="white"/>
<path d="M359.288 95V143H352.022V102.266H351.741L340.257 109.766V102.828L352.233 95H359.288ZM392.881 121.625V143H385.873V95H392.787V112.859H393.232C394.076 110.922 395.365 109.383 397.099 108.242C398.834 107.102 401.099 106.531 403.896 106.531C406.365 106.531 408.521 107.039 410.365 108.055C412.224 109.07 413.662 110.586 414.678 112.602C415.709 114.602 416.224 117.102 416.224 120.102V143H409.217V120.945C409.217 118.305 408.537 116.258 407.178 114.805C405.818 113.336 403.928 112.602 401.506 112.602C399.849 112.602 398.365 112.953 397.053 113.656C395.756 114.359 394.732 115.391 393.982 116.75C393.248 118.094 392.881 119.719 392.881 121.625ZM457.2 95V143H449.934V102.266H449.653L438.169 109.766V102.828L450.145 95H457.2ZM486.415 95V143H479.15V102.266H478.868L467.384 109.766V102.828L479.361 95H486.415ZM513 143V107H519.727V112.859H520.172C520.922 110.875 522.149 109.328 523.852 108.219C525.555 107.094 527.594 106.531 529.969 106.531C532.375 106.531 534.391 107.094 536.016 108.219C537.656 109.344 538.867 110.891 539.649 112.859H540.024C540.883 110.937 542.25 109.406 544.125 108.266C546 107.109 548.235 106.531 550.828 106.531C554.094 106.531 556.758 107.555 558.821 109.602C560.899 111.648 561.938 114.734 561.938 118.859V143H554.93V119.516C554.93 117.078 554.266 115.312 552.938 114.219C551.61 113.125 550.024 112.578 548.18 112.578C545.899 112.578 544.125 113.281 542.86 114.687C541.594 116.078 540.961 117.867 540.961 120.055V143H533.977V119.07C533.977 117.117 533.367 115.547 532.149 114.359C530.93 113.172 529.344 112.578 527.391 112.578C526.063 112.578 524.836 112.93 523.711 113.633C522.602 114.32 521.703 115.281 521.016 116.516C520.344 117.75 520.008 119.18 520.008 120.805V143H513ZM569.35 143V107H576.358V143H569.35ZM572.889 101.445C571.671 101.445 570.624 101.039 569.749 100.227C568.889 99.3984 568.46 98.4141 568.46 97.2734C568.46 96.1172 568.889 95.1328 569.749 94.3203C570.624 93.4922 571.671 93.0781 572.889 93.0781C574.108 93.0781 575.147 93.4922 576.007 94.3203C576.882 95.1328 577.319 96.1172 577.319 97.2734C577.319 98.4141 576.882 99.3984 576.007 100.227C575.147 101.039 574.108 101.445 572.889 101.445ZM590.814 121.625V143H583.806V107H590.532V112.859H590.978C591.806 110.953 593.103 109.422 594.868 108.266C596.65 107.109 598.892 106.531 601.595 106.531C604.048 106.531 606.196 107.047 608.04 108.078C609.884 109.094 611.314 110.609 612.329 112.625C613.345 114.641 613.853 117.133 613.853 120.102V143H606.845V120.945C606.845 118.336 606.165 116.297 604.806 114.828C603.446 113.344 601.579 112.602 599.204 112.602C597.579 112.602 596.134 112.953 594.868 113.656C593.618 114.359 592.626 115.391 591.892 116.75C591.173 118.094 590.814 119.719 590.814 121.625Z" fill="#555555"/>
<path d="M99.9375 128V112H105.344C106.594 112 107.62 112.214 108.422 112.641C109.224 113.062 109.818 113.643 110.203 114.383C110.589 115.122 110.781 115.964 110.781 116.906C110.781 117.849 110.589 118.685 110.203 119.414C109.818 120.143 109.227 120.716 108.43 121.133C107.633 121.544 106.615 121.75 105.375 121.75H101V120H105.313C106.167 120 106.854 119.875 107.375 119.625C107.901 119.375 108.281 119.021 108.516 118.562C108.755 118.099 108.875 117.547 108.875 116.906C108.875 116.266 108.755 115.706 108.516 115.227C108.276 114.747 107.893 114.378 107.367 114.117C106.841 113.852 106.146 113.719 105.281 113.719H101.875V128H99.9375ZM107.469 120.812L111.406 128H109.156L105.281 120.812H107.469ZM118.002 128.25C116.846 128.25 115.848 127.995 115.01 127.484C114.177 126.969 113.533 126.25 113.08 125.328C112.632 124.401 112.408 123.323 112.408 122.094C112.408 120.865 112.632 119.781 113.08 118.844C113.533 117.901 114.164 117.167 114.971 116.641C115.783 116.109 116.731 115.844 117.815 115.844C118.44 115.844 119.057 115.948 119.666 116.156C120.276 116.365 120.83 116.703 121.33 117.172C121.83 117.635 122.229 118.25 122.526 119.016C122.822 119.781 122.971 120.724 122.971 121.844V122.625H113.721V121.031H121.096C121.096 120.354 120.96 119.75 120.69 119.219C120.424 118.687 120.044 118.268 119.549 117.961C119.059 117.654 118.481 117.5 117.815 117.5C117.08 117.5 116.445 117.682 115.908 118.047C115.377 118.406 114.968 118.875 114.682 119.453C114.395 120.031 114.252 120.651 114.252 121.312V122.375C114.252 123.281 114.408 124.049 114.721 124.68C115.039 125.305 115.479 125.781 116.041 126.109C116.604 126.432 117.257 126.594 118.002 126.594C118.486 126.594 118.924 126.526 119.315 126.391C119.71 126.25 120.052 126.042 120.338 125.766C120.625 125.484 120.846 125.135 121.002 124.719L122.783 125.219C122.596 125.823 122.281 126.354 121.838 126.812C121.395 127.266 120.848 127.62 120.197 127.875C119.546 128.125 118.815 128.25 118.002 128.25ZM129.991 128.25C128.866 128.25 127.897 127.984 127.084 127.453C126.272 126.922 125.647 126.19 125.209 125.258C124.772 124.326 124.553 123.26 124.553 122.062C124.553 120.844 124.777 119.768 125.225 118.836C125.678 117.898 126.308 117.167 127.116 116.641C127.928 116.109 128.876 115.844 129.959 115.844C130.803 115.844 131.563 116 132.241 116.312C132.918 116.625 133.472 117.062 133.905 117.625C134.337 118.187 134.605 118.844 134.709 119.594H132.866C132.725 119.047 132.412 118.562 131.928 118.141C131.449 117.714 130.803 117.5 129.991 117.5C129.272 117.5 128.642 117.687 128.1 118.062C127.563 118.432 127.144 118.956 126.842 119.633C126.545 120.305 126.397 121.094 126.397 122C126.397 122.927 126.543 123.734 126.834 124.422C127.131 125.109 127.548 125.643 128.084 126.023C128.626 126.404 129.261 126.594 129.991 126.594C130.47 126.594 130.905 126.51 131.295 126.344C131.686 126.177 132.017 125.938 132.287 125.625C132.558 125.312 132.751 124.937 132.866 124.5H134.709C134.605 125.208 134.347 125.846 133.936 126.414C133.53 126.977 132.991 127.424 132.319 127.758C131.652 128.086 130.876 128.25 129.991 128.25ZM141.62 128.25C140.536 128.25 139.586 127.992 138.768 127.477C137.956 126.961 137.32 126.24 136.862 125.312C136.409 124.385 136.182 123.302 136.182 122.062C136.182 120.812 136.409 119.721 136.862 118.789C137.32 117.857 137.956 117.133 138.768 116.617C139.586 116.102 140.536 115.844 141.62 115.844C142.703 115.844 143.651 116.102 144.463 116.617C145.281 117.133 145.916 117.857 146.37 118.789C146.828 119.721 147.057 120.812 147.057 122.062C147.057 123.302 146.828 124.385 146.37 125.312C145.916 126.24 145.281 126.961 144.463 127.477C143.651 127.992 142.703 128.25 141.62 128.25ZM141.62 126.594C142.443 126.594 143.12 126.383 143.651 125.961C144.182 125.539 144.575 124.984 144.831 124.297C145.086 123.609 145.213 122.865 145.213 122.062C145.213 121.26 145.086 120.513 144.831 119.82C144.575 119.128 144.182 118.568 143.651 118.141C143.12 117.714 142.443 117.5 141.62 117.5C140.797 117.5 140.12 117.714 139.588 118.141C139.057 118.568 138.664 119.128 138.409 119.82C138.153 120.513 138.026 121.26 138.026 122.062C138.026 122.865 138.153 123.609 138.409 124.297C138.664 124.984 139.057 125.539 139.588 125.961C140.12 126.383 140.797 126.594 141.62 126.594ZM158.594 116L154.157 128H152.282L147.844 116H149.844L153.157 125.562H153.282L156.594 116H158.594ZM164.97 128.25C163.813 128.25 162.816 127.995 161.977 127.484C161.144 126.969 160.501 126.25 160.048 125.328C159.6 124.401 159.376 123.323 159.376 122.094C159.376 120.865 159.6 119.781 160.048 118.844C160.501 117.901 161.131 117.167 161.938 116.641C162.751 116.109 163.699 115.844 164.782 115.844C165.407 115.844 166.024 115.948 166.634 116.156C167.243 116.365 167.798 116.703 168.298 117.172C168.798 117.635 169.196 118.25 169.493 119.016C169.79 119.781 169.938 120.724 169.938 121.844V122.625H160.688V121.031H168.063C168.063 120.354 167.928 119.75 167.657 119.219C167.391 118.687 167.011 118.268 166.516 117.961C166.027 117.654 165.449 117.5 164.782 117.5C164.048 117.5 163.412 117.682 162.876 118.047C162.345 118.406 161.936 118.875 161.649 119.453C161.363 120.031 161.22 120.651 161.22 121.312V122.375C161.22 123.281 161.376 124.049 161.688 124.68C162.006 125.305 162.446 125.781 163.009 126.109C163.571 126.432 164.225 126.594 164.97 126.594C165.454 126.594 165.891 126.526 166.282 126.391C166.678 126.25 167.019 126.042 167.305 125.766C167.592 125.484 167.813 125.135 167.97 124.719L169.751 125.219C169.563 125.823 169.248 126.354 168.805 126.812C168.363 127.266 167.816 127.62 167.165 127.875C166.514 128.125 165.782 128.25 164.97 128.25ZM172.083 128V116H173.864V117.812H173.989C174.208 117.219 174.604 116.737 175.177 116.367C175.75 115.997 176.395 115.812 177.114 115.812C177.25 115.812 177.419 115.815 177.622 115.82C177.825 115.826 177.979 115.833 178.083 115.844V117.719C178.02 117.703 177.877 117.68 177.653 117.648C177.435 117.612 177.203 117.594 176.958 117.594C176.375 117.594 175.854 117.716 175.395 117.961C174.942 118.201 174.583 118.534 174.317 118.961C174.057 119.383 173.927 119.865 173.927 120.406V128H172.083ZM184.275 128.25C183.118 128.25 182.121 127.995 181.282 127.484C180.449 126.969 179.806 126.25 179.353 125.328C178.905 124.401 178.681 123.323 178.681 122.094C178.681 120.865 178.905 119.781 179.353 118.844C179.806 117.901 180.436 117.167 181.243 116.641C182.056 116.109 183.004 115.844 184.087 115.844C184.712 115.844 185.329 115.948 185.939 116.156C186.548 116.365 187.103 116.703 187.603 117.172C188.103 117.635 188.501 118.25 188.798 119.016C189.095 119.781 189.243 120.724 189.243 121.844V122.625H179.993V121.031H187.368C187.368 120.354 187.233 119.75 186.962 119.219C186.696 118.687 186.316 118.268 185.821 117.961C185.332 117.654 184.754 117.5 184.087 117.5C183.353 117.5 182.717 117.682 182.181 118.047C181.65 118.406 181.241 118.875 180.954 119.453C180.668 120.031 180.525 120.651 180.525 121.312V122.375C180.525 123.281 180.681 124.049 180.993 124.68C181.311 125.305 181.751 125.781 182.314 126.109C182.876 126.432 183.53 126.594 184.275 126.594C184.759 126.594 185.196 126.526 185.587 126.391C185.983 126.25 186.324 126.042 186.61 125.766C186.897 125.484 187.118 125.135 187.275 124.719L189.056 125.219C188.868 125.823 188.553 126.354 188.11 126.812C187.668 127.266 187.121 127.62 186.47 127.875C185.819 128.125 185.087 128.25 184.275 128.25ZM195.919 128.25C194.919 128.25 194.036 127.997 193.271 127.492C192.505 126.982 191.906 126.263 191.474 125.336C191.042 124.404 190.825 123.302 190.825 122.031C190.825 120.771 191.042 119.677 191.474 118.75C191.906 117.823 192.508 117.107 193.279 116.602C194.049 116.096 194.94 115.844 195.95 115.844C196.732 115.844 197.349 115.974 197.802 116.234C198.26 116.49 198.609 116.781 198.849 117.109C199.094 117.432 199.284 117.698 199.419 117.906H199.575V112H201.419V128H199.638V126.156H199.419C199.284 126.375 199.091 126.651 198.841 126.984C198.591 127.312 198.234 127.607 197.771 127.867C197.307 128.122 196.69 128.25 195.919 128.25ZM196.169 126.594C196.909 126.594 197.534 126.401 198.044 126.016C198.555 125.625 198.943 125.086 199.208 124.398C199.474 123.706 199.607 122.906 199.607 122C199.607 121.104 199.477 120.32 199.216 119.648C198.956 118.971 198.57 118.445 198.06 118.07C197.549 117.69 196.919 117.5 196.169 117.5C195.388 117.5 194.737 117.701 194.216 118.102C193.7 118.497 193.312 119.036 193.052 119.719C192.797 120.396 192.669 121.156 192.669 122C192.669 122.854 192.799 123.63 193.06 124.328C193.325 125.021 193.716 125.573 194.232 125.984C194.753 126.391 195.398 126.594 196.169 126.594ZM215.138 116V117.562H208.92V116H215.138ZM210.732 113.125H212.576V124.562C212.576 125.083 212.651 125.474 212.802 125.734C212.959 125.99 213.157 126.161 213.396 126.25C213.641 126.333 213.899 126.375 214.17 126.375C214.373 126.375 214.539 126.365 214.67 126.344C214.8 126.318 214.904 126.297 214.982 126.281L215.357 127.937C215.232 127.984 215.058 128.031 214.834 128.078C214.61 128.13 214.326 128.156 213.982 128.156C213.461 128.156 212.951 128.044 212.451 127.82C211.956 127.596 211.545 127.255 211.216 126.797C210.893 126.339 210.732 125.76 210.732 125.062V113.125ZM217.252 128V116H219.095V128H217.252ZM218.189 114C217.83 114 217.52 113.878 217.26 113.633C217.004 113.388 216.877 113.094 216.877 112.75C216.877 112.406 217.004 112.112 217.26 111.867C217.52 111.622 217.83 111.5 218.189 111.5C218.549 111.5 218.856 111.622 219.111 111.867C219.372 112.112 219.502 112.406 219.502 112.75C219.502 113.094 219.372 113.388 219.111 113.633C218.856 113.878 218.549 114 218.189 114ZM221.812 128V116H223.594V117.875H223.75C224 117.234 224.404 116.737 224.961 116.383C225.518 116.023 226.187 115.844 226.969 115.844C227.76 115.844 228.419 116.023 228.945 116.383C229.476 116.737 229.891 117.234 230.187 117.875H230.312C230.62 117.255 231.081 116.763 231.695 116.398C232.31 116.029 233.047 115.844 233.906 115.844C234.979 115.844 235.857 116.18 236.539 116.852C237.221 117.518 237.562 118.557 237.562 119.969V128H235.719V119.969C235.719 119.083 235.476 118.451 234.992 118.07C234.508 117.69 233.937 117.5 233.281 117.5C232.437 117.5 231.784 117.755 231.32 118.266C230.857 118.771 230.625 119.411 230.625 120.187V128H228.75V119.781C228.75 119.099 228.529 118.549 228.086 118.133C227.643 117.711 227.073 117.5 226.375 117.5C225.896 117.5 225.448 117.628 225.031 117.883C224.62 118.138 224.286 118.492 224.031 118.945C223.781 119.393 223.656 119.911 223.656 120.5V128H221.812ZM245.305 128.25C244.149 128.25 243.151 127.995 242.313 127.484C241.479 126.969 240.836 126.25 240.383 125.328C239.935 124.401 239.711 123.323 239.711 122.094C239.711 120.865 239.935 119.781 240.383 118.844C240.836 117.901 241.466 117.167 242.274 116.641C243.086 116.109 244.034 115.844 245.117 115.844C245.742 115.844 246.359 115.948 246.969 116.156C247.578 116.365 248.133 116.703 248.633 117.172C249.133 117.635 249.531 118.25 249.828 119.016C250.125 119.781 250.274 120.724 250.274 121.844V122.625H241.024V121.031H248.399C248.399 120.354 248.263 119.75 247.992 119.219C247.727 118.687 247.346 118.268 246.852 117.961C246.362 117.654 245.784 117.5 245.117 117.5C244.383 117.5 243.747 117.682 243.211 118.047C242.68 118.406 242.271 118.875 241.984 119.453C241.698 120.031 241.555 120.651 241.555 121.312V122.375C241.555 123.281 241.711 124.049 242.024 124.68C242.341 125.305 242.781 125.781 243.344 126.109C243.906 126.432 244.56 126.594 245.305 126.594C245.789 126.594 246.227 126.526 246.617 126.391C247.013 126.25 247.354 126.042 247.641 125.766C247.927 125.484 248.149 125.135 248.305 124.719L250.086 125.219C249.899 125.823 249.583 126.354 249.141 126.812C248.698 127.266 248.151 127.62 247.5 127.875C246.849 128.125 246.117 128.25 245.305 128.25Z" fill="#555555"/>
<path fill-rule="evenodd" clip-rule="evenodd" d="M83.7072 119.5C83.7072 115.876 80.8504 112.278 76.4031 112.278C72.8113 112.278 71.0361 114.907 70.2796 116.304H72.5247C72.8817 116.304 73.1711 116.591 73.1711 116.944C73.1711 117.297 72.8817 117.583 72.5247 117.583H68.6464C68.2894 117.583 68 117.297 68 116.944V113.109C68 112.756 68.2894 112.47 68.6464 112.47C69.0034 112.47 69.2928 112.756 69.2928 113.109V115.427C70.2036 113.839 72.3102 111 76.4031 111C81.6553 111 85 115.263 85 119.5C85 123.737 81.6553 128 76.4031 128C73.8901 128 71.7979 127.017 70.3082 125.518C69.5106 124.716 68.8877 123.768 68.463 122.748C68.3271 122.421 68.4846 122.048 68.8148 121.913C69.1449 121.779 69.5226 121.935 69.6585 122.261C70.0216 123.133 70.5532 123.941 71.2303 124.622C72.4866 125.886 74.2505 126.722 76.4031 126.722C80.8504 126.722 83.7072 123.124 83.7072 119.5ZM75.7567 122.695V116.305H77.0494V122.695H75.7567Z" fill="#555555" stroke="#555555" stroke-width="0.5"/>
</svg>
