<svg width="104" height="104" viewBox="0 0 104 104" fill="none" xmlns="http://www.w3.org/2000/svg">
<circle cx="52" cy="52" r="52" fill="#F5F5F5"/>
<path fill-rule="evenodd" clip-rule="evenodd" d="M52.0058 43.4651C48.3935 43.4651 45.4651 46.3935 45.4651 50.0058C45.4651 52.1472 46.4946 54.0467 48.0814 55.2387V56.9826C48.0814 58.6683 49.448 60.0349 51.1337 60.0349H52.8779C54.5637 60.0349 55.9302 58.6683 55.9302 56.9826V55.2387C57.5169 54.0467 58.5465 52.1472 58.5465 50.0058C58.5465 46.3935 55.6182 43.4651 52.0058 43.4651ZM48.0814 50.0058C48.0814 47.8384 49.8385 46.0814 52.0058 46.0814C54.1731 46.0814 55.9302 47.8384 55.9302 50.0058C55.9302 51.4568 55.1434 52.7255 53.9671 53.4059C53.5628 53.6398 53.314 54.0713 53.314 54.5384V56.9826C53.314 57.2234 53.1188 57.4186 52.8779 57.4186H51.1337C50.8928 57.4186 50.6977 57.2234 50.6977 56.9826V54.5384C50.6977 54.0713 50.4488 53.6398 50.0445 53.4059C48.8682 52.7255 48.0814 51.4568 48.0814 50.0058Z" fill="#555555"/>
<path fill-rule="evenodd" clip-rule="evenodd" d="M52.0058 33C50.3706 33 48.8092 33.5347 46.2908 34.3973L45.022 34.8316C42.4383 35.716 40.4443 36.3986 39.0169 36.9785C38.2979 37.2706 37.6797 37.5535 37.1819 37.8426C36.7029 38.1208 36.2224 38.4677 35.8959 38.9329C35.5731 39.3927 35.4063 39.958 35.3014 40.5021C35.1924 41.0678 35.1267 41.7465 35.0842 42.5256C35 44.0727 35 46.1922 35 48.9412V51.735C35 62.3763 43.0373 67.4782 47.8169 69.5662L47.8641 69.5867C48.4568 69.8458 49.0138 70.0891 49.654 70.253C50.3298 70.426 51.0477 70.5 52.0058 70.5C52.9639 70.5 53.6818 70.426 54.3577 70.253C54.9978 70.0891 55.5549 69.8458 56.1474 69.5867L56.1948 69.5662C60.9744 67.4782 69.0116 62.3763 69.0116 51.735V48.9415C69.0116 46.1923 69.0116 44.0728 68.9274 42.5256C68.885 41.7465 68.8192 41.0678 68.7102 40.5021C68.6054 39.958 68.4385 39.3927 68.1158 38.9329C67.7893 38.4677 67.3088 38.1208 66.8297 37.8426C66.3319 37.5535 65.7137 37.2706 64.9948 36.9785C63.5673 36.3986 61.5734 35.716 58.9895 34.8316L57.7208 34.3973C55.2024 33.5347 53.641 33 52.0058 33ZM46.9139 36.9494C49.7298 35.9854 50.8587 35.6163 52.0058 35.6163C53.153 35.6163 54.2818 35.9854 57.0978 36.9494L58.0969 37.2913C60.7351 38.1944 62.6591 38.8536 64.01 39.4024C64.6843 39.6763 65.1728 39.9058 65.5158 40.105C65.6851 40.2033 65.8018 40.2845 65.8796 40.3478C65.9457 40.4014 65.9708 40.4318 65.9745 40.4363C65.9778 40.4417 65.9996 40.478 66.0301 40.5637C66.065 40.6616 66.1035 40.8019 66.1412 40.9972C66.2174 41.3925 66.2752 41.9355 66.3149 42.6679C66.3948 44.1351 66.3953 46.1831 66.3953 48.9884V51.735C66.3953 60.7613 59.6455 65.2038 55.1474 67.1686C54.4995 67.4517 54.1253 67.6118 53.7088 67.7184C53.311 67.8202 52.8256 67.8837 52.0058 67.8837C51.186 67.8837 50.7006 67.8202 50.3028 67.7184C49.8863 67.6118 49.5122 67.4517 48.8642 67.1686C44.3661 65.2038 37.6163 60.7613 37.6163 51.735V48.9884C37.6163 46.1831 37.6168 44.1351 37.6967 42.6679C37.7365 41.9355 37.7943 41.3925 37.8704 40.9972C37.9081 40.8019 37.9467 40.6616 37.9816 40.5637C38.0121 40.478 38.0338 40.4418 38.0371 40.4363C38.0407 40.4319 38.0659 40.4015 38.132 40.3478C38.2099 40.2845 38.3265 40.2033 38.4959 40.105C38.8388 39.9058 39.3273 39.6763 40.0016 39.4024C41.3525 38.8536 43.2765 38.1944 45.9148 37.2913L46.9139 36.9494Z" fill="#555555"/>
<circle cx="67" cy="39" r="7" fill="#13A83D"/>
</svg>
