<svg width="442" height="298" viewBox="0 0 442 298" fill="none" xmlns="http://www.w3.org/2000/svg">
<path d="M47.3003 141.9C21.1905 141.9 0 120.71 0 94.6001V47.2998C0 21.0954 21.1905 -0.000564575 47.3003 -0.000564575H141.901V47.2998H107.601C100.421 47.2998 94.6006 53.12 94.6006 60.2998V70.9499V81.6001C94.6006 88.7798 100.421 94.6001 107.601 94.6001H141.901V141.9H47.3003Z" fill="#F1F1F1" fill-opacity="1"/>
<path d="M197.31 141.9C171.2 141.9 150.009 120.71 150.009 94.6001V47.2997C150.009 21.0954 171.2 -0.000564575 197.31 -0.000564575H244.61C270.814 -0.000564575 291.91 21.19 291.91 47.2997V94.6001C291.91 120.71 270.72 141.9 244.61 141.9H197.31Z" fill="#F1F1F1" fill-opacity="1"/>
<path d="M300.019 141.9V-0.000564575H394.62C420.824 -0.000564575 441.92 21.19 441.92 47.2997C441.92 73.4095 420.729 94.6001 394.62 94.6001H441.92V141.9H394.62C368.51 141.9 347.319 120.71 347.319 94.6001V141.9H300.019Z" fill="#F1F1F1" fill-opacity="1"/>
<path d="M47.3003 297.996V256.696C47.3003 253.382 44.6141 250.696 41.3003 250.696H0V156.095H141.901V250.696H100.601C97.2869 250.696 94.6007 253.382 94.6007 256.696V297.996H47.3003Z" fill="#F1F1F1" fill-opacity="1"/>
<path d="M197.31 297.996C171.2 297.996 150.009 276.806 150.009 250.696V156.095H291.91C291.91 182.205 270.72 203.395 244.61 203.395H291.91C291.91 229.505 270.72 250.696 244.61 250.696H291.91V297.996H197.31Z" fill="#F1F1F1" fill-opacity="1"/>
<path d="M300.019 297.996V250.696C300.019 237.641 310.614 227.046 323.669 227.046C310.614 227.046 300.019 216.45 300.019 203.395V156.095H347.319C360.374 156.095 370.97 166.69 370.97 179.745C370.97 166.69 381.565 156.095 394.62 156.095H441.92V203.395C441.92 216.45 431.325 227.046 418.27 227.046C431.325 227.046 441.92 237.641 441.92 250.696V297.996H394.62C381.565 297.996 370.97 287.401 370.97 274.346C370.97 287.401 360.374 297.996 347.319 297.996H300.019Z" fill="#F1F1F1" fill-opacity="1"/>
</svg>
