<svg width="131" height="88" viewBox="0 0 131 88" fill="none" xmlns="http://www.w3.org/2000/svg">
<path d="M13.9683 41.9043C6.25778 41.9043 0 35.6465 0 27.936V13.9678C0 6.22937 6.25778 -0.000465393 13.9683 -0.000465393H41.9048V13.9678H34.9206C31.0634 13.9678 27.9365 17.0947 27.9365 20.9519C27.9365 24.8091 31.0634 27.936 34.9206 27.936H41.9048V41.9043H13.9683Z" fill="#F1F1F1"/>
<path d="M58.2676 41.9043C50.5571 41.9043 44.2993 35.6465 44.2993 27.936V13.9678C44.2993 6.22937 50.5571 -0.000465393 58.2676 -0.000465393H72.2358C79.9742 -0.000465393 86.2041 6.25731 86.2041 13.9678V27.936C86.2041 35.6465 79.9463 41.9043 72.2358 41.9043H58.2676Z" fill="#F1F1F1"/>
<path d="M88.5986 41.9043V-0.000465393H116.535C124.274 -0.000465393 130.503 6.25731 130.503 13.9678C130.503 21.6783 124.246 27.936 116.535 27.936H130.503V41.9043H116.535C108.825 41.9043 102.567 35.6465 102.567 27.936V41.9043H88.5986Z" fill="#F1F1F1"/>
<path d="M13.9683 88V80.0317C13.9683 76.718 11.282 74.0317 7.96826 74.0317H0V46.0952H41.9048V74.0317H33.9365C30.6228 74.0317 27.9365 76.718 27.9365 80.0317V88H13.9683Z" fill="#F1F1F1"/>
<path d="M58.2676 88C50.5571 88 44.2993 81.7422 44.2993 74.0317V46.0952H86.2041C86.2041 53.8057 79.9463 60.0635 72.2358 60.0635H86.2041C86.2041 67.774 79.9463 74.0317 72.2358 74.0317H86.2041V88H58.2676Z" fill="#F1F1F1"/>
<path d="M88.5986 88V74.0317C88.5986 70.1765 91.7275 67.0476 95.5828 67.0476C91.7275 67.0476 88.5986 63.9187 88.5986 60.0635V46.0952H102.567C106.422 46.0952 109.551 49.2241 109.551 53.0794C109.551 49.2241 112.68 46.0952 116.535 46.0952H130.503V60.0635C130.503 63.9187 127.375 67.0476 123.519 67.0476C127.375 67.0476 130.503 70.1765 130.503 74.0317V88H116.535C112.68 88 109.551 84.8711 109.551 81.0159C109.551 84.8711 106.422 88 102.567 88H88.5986Z" fill="#F1F1F1"/>
</svg>
