<svg width="64" height="64" viewBox="0 0 64 64" fill="none" xmlns="http://www.w3.org/2000/svg">
<g clip-path="url(#clip0_1382_424)">
<rect width="64" height="64" rx="16" fill="black"/>
<path d="M19.4694 48.8672V48.5274L19.824 48.5609C20.0154 48.5776 20.3587 48.611 20.5838 48.6277C20.9553 48.6611 20.9891 48.6723 20.9891 48.7892C20.9891 48.9006 20.9497 48.9173 20.6458 48.9508C20.46 48.973 20.1617 48.973 19.9929 48.9508L19.6777 48.9118L19.7058 49.0622C19.7283 49.1847 19.7171 49.207 19.6045 49.207C19.4751 49.207 19.4694 49.1847 19.4694 48.8672Z" fill="#F1F1F1"/>
<path d="M17.0718 48.6555C17.0155 48.5107 16.9367 48.4717 16.2838 48.2601C15.085 47.8646 14.3702 47.4245 14.933 47.4245C15.0399 47.4245 15.1412 47.4468 15.1581 47.4747C15.175 47.5025 15.2707 47.5359 15.372 47.5471C15.5803 47.5749 16.9254 47.9593 17.038 48.0261C17.1337 48.0762 17.2744 48.455 17.2744 48.6667C17.2744 48.8672 17.1449 48.8616 17.0718 48.6555Z" fill="#F1F1F1"/>
<path d="M46.4179 46.3383C46.4067 46.3328 46.0577 46.3105 45.6412 46.2938C44.296 46.2325 42.0391 45.9206 40.2774 45.553C39.9116 45.475 39.5908 45.4304 39.5626 45.4471C39.5288 45.4694 39.5063 45.4137 39.5063 45.3246C39.5063 45.202 39.5682 45.1129 39.7709 44.9458C39.9172 44.8233 40.1029 44.6896 40.1817 44.645C40.4913 44.4779 41.1836 44.1493 41.4312 44.049C41.5832 43.9933 41.7014 43.9265 41.7014 43.9042C41.7014 43.8763 41.7858 43.8596 41.8871 43.8596C41.9884 43.8596 42.1685 43.8095 42.2924 43.7482C42.4162 43.6869 42.5513 43.6368 42.6019 43.6368C42.6469 43.6368 42.8214 43.5867 42.9846 43.5254C43.3336 43.3917 43.615 43.3806 43.615 43.492C43.615 43.531 43.5587 43.5867 43.4912 43.609C43.3392 43.6591 43.6319 43.7092 44.5718 43.8039C44.8983 43.8318 45.2923 43.8708 45.4442 43.8875C45.9564 43.9376 48.2471 43.9209 48.9619 43.8596C50.4591 43.7259 51.9281 43.4251 53.3295 42.9517C54.2807 42.6286 54.4383 42.5506 54.3933 42.4058C54.3651 42.3222 54.382 42.3 54.489 42.3C54.6972 42.3 55.1644 43.1355 55.3445 43.8318C55.5077 44.4556 55.5471 45.0126 55.412 44.8344C55.3388 44.7341 55.3276 44.7341 55.0405 44.879C54.883 44.9625 54.7028 45.0294 54.6522 45.0294C54.6015 45.0294 54.534 45.0516 54.5059 45.0795C54.292 45.2689 52.1982 45.8147 50.8756 46.032C49.9131 46.188 49.6205 46.2214 48.7087 46.2826C48.1796 46.3161 46.4461 46.3606 46.4179 46.3383Z" fill="#F1F1F1"/>
<path d="M36.6922 45.2076C36.6922 45.1853 36.7316 45.1073 36.7822 45.0349C36.8554 44.9347 36.861 44.8957 36.8047 44.8622C36.6246 44.7508 34.8292 44.6227 34.4858 44.6896L34.3283 44.723L34.5815 44.8567C35.105 45.1296 34.7166 45.1797 34.1256 44.9124C33.9118 44.8177 33.636 44.6896 33.5121 44.6339C33.3883 44.5782 33.135 44.4946 32.9493 44.4501C32.7636 44.4055 32.4709 44.3275 32.3021 44.2829C31.6942 44.1103 30.6473 44.1938 29.6849 44.4835C29.3753 44.5726 29.032 44.6729 28.925 44.6951C28.8181 44.723 28.5367 44.8233 28.3059 44.9179C27.8444 45.1073 27.3491 45.1965 27.3491 45.0906C27.3491 45.0572 27.4392 44.9848 27.5461 44.9347C27.653 44.879 28.3904 44.5058 29.1896 44.1047C29.9888 43.7036 30.8725 43.2803 31.1482 43.1689C31.4297 43.0519 31.7674 42.9127 31.9081 42.857C32.0488 42.7957 32.3415 42.6954 32.5553 42.6342C32.7748 42.5729 33.0281 42.4949 33.1182 42.4671C33.4108 42.3779 34.5421 42.2443 34.9924 42.2443C35.741 42.2443 37.2888 42.4559 38.4932 42.7177C38.724 42.7679 38.9604 42.8124 39.0167 42.8124C39.0786 42.8068 39.1123 42.8514 39.1123 42.9461C39.1123 43.0519 39.0842 43.0798 38.9716 43.0798C38.8928 43.0798 38.8309 43.1132 38.8253 43.1522C38.8253 43.1856 38.6733 43.3472 38.482 43.4976C38.2962 43.6535 37.9416 44.0044 37.6884 44.2774C37.4351 44.5559 37.1987 44.8121 37.1593 44.8511C37.1199 44.8901 37.0861 44.9625 37.0861 45.0071C37.0861 45.0516 37.0636 45.0851 37.0299 45.0851C37.0017 45.0851 36.9736 45.124 36.9736 45.1686C36.9736 45.2187 36.9229 45.2522 36.8329 45.2522C36.7541 45.2522 36.6922 45.2354 36.6922 45.2076Z" fill="#F1F1F1"/>
<path d="M14.2069 45.0962C12.2652 44.489 9.77744 43.6535 8.94444 43.3304C7.85255 42.9015 5.79257 41.9323 5.79257 41.8488C5.79257 41.8209 5.75317 41.7986 5.70815 41.7986C5.66312 41.7986 5.5787 41.7485 5.52804 41.6872C5.47176 41.626 5.39859 41.5758 5.35356 41.5758C5.10029 41.5758 4.00839 40.64 3.24856 39.7655C2.88272 39.3422 2.52814 38.7573 2.52814 38.5679C2.52814 38.5178 2.50562 38.4565 2.47185 38.4231C2.2636 38.217 2.19606 36.4457 2.37617 35.7828C2.51688 35.2537 2.58442 35.1144 2.70262 35.1144C2.77578 35.1144 2.81518 35.1868 2.86584 35.4375C2.98403 36.0112 3.28233 36.4735 3.96336 37.1587C4.30106 37.504 4.60499 37.7881 4.62751 37.7881C4.67816 37.7881 4.88641 37.9608 5.10592 38.1947C5.19034 38.2783 5.28039 38.3451 5.31416 38.3451C5.37608 38.3451 5.46613 38.4064 5.79257 38.6682C5.877 38.735 5.97268 38.7907 6.00645 38.7907C6.04022 38.7907 6.07399 38.8075 6.08525 38.8353C6.11339 38.8966 6.60868 39.2196 6.74376 39.2642C6.80567 39.2809 6.86196 39.3199 6.86196 39.3422C6.86196 39.37 6.94075 39.4202 7.03081 39.4592C7.12649 39.4982 7.19966 39.5483 7.19966 39.5761C7.19966 39.604 7.25594 39.6486 7.32911 39.6764C7.39665 39.7043 7.53736 39.7934 7.6443 39.8714C7.75123 39.9493 7.85817 40.0162 7.88069 40.0162C7.9032 40.0162 8.30844 40.2724 8.78685 40.5843C9.7099 41.1971 9.74367 41.2193 9.90689 41.3697C9.96317 41.4199 10.0363 41.4644 10.0589 41.4644C10.1039 41.4644 10.2108 41.5368 10.5204 41.7875C10.6048 41.8543 10.6949 41.91 10.7117 41.91C10.7511 41.91 10.7962 41.9435 11.0551 42.1551C11.3421 42.4002 11.4603 42.4893 11.5954 42.5785C11.6629 42.623 11.7586 42.7066 11.8093 42.7623C11.8543 42.8124 11.9275 42.857 11.9612 42.857C12.0006 42.857 12.04 42.8737 12.0513 42.9015C12.0625 42.9238 12.1807 43.0297 12.3214 43.1355C12.4622 43.2413 12.5972 43.3583 12.6197 43.3973C12.6423 43.4363 12.7042 43.4697 12.7436 43.4697C12.7886 43.4697 12.828 43.492 12.828 43.5198C12.828 43.5477 12.873 43.5867 12.9293 43.6034C13.0194 43.6368 13.2895 43.8429 13.509 44.0546C13.5597 44.0991 13.616 44.1381 13.6385 44.1381C13.661 44.1381 13.7398 44.1827 13.813 44.2384C13.8805 44.2885 13.9987 44.3721 14.0662 44.4166C14.1394 44.4612 14.2407 44.5392 14.2914 44.5893C14.3476 44.6394 14.4152 44.6896 14.4377 44.7007C14.5953 44.7676 15.1356 45.1185 15.1356 45.1519C15.1356 45.2299 14.4996 45.1909 14.2069 45.0962ZM5.96142 41.665C5.96142 41.6538 5.80946 41.5424 5.62372 41.4199C5.43799 41.2973 5.28602 41.2138 5.28602 41.2305C5.28602 41.2528 5.37045 41.3196 5.47176 41.3865C5.56744 41.4477 5.71378 41.5424 5.79257 41.5925C5.95017 41.6928 5.96142 41.6984 5.96142 41.665Z" fill="#F1F1F1"/>
<path d="M57.32 43.375C57.2694 43.1355 57.2018 42.9183 57.1793 42.8848C57.1568 42.857 57.123 42.7623 57.1061 42.6843C57.0836 42.6063 56.9429 42.3501 56.7853 42.1106C56.6334 41.8766 56.5039 41.6483 56.5039 41.6037C56.5039 41.5591 56.4814 41.5201 56.4476 41.5201C56.4195 41.5201 56.3913 41.431 56.3913 41.3252C56.3913 41.0968 56.4533 41.0745 56.5602 41.2695C56.5996 41.3475 56.6502 41.4087 56.6728 41.4087C56.6896 41.4087 56.8979 41.2862 57.1287 41.1414C57.3594 40.9965 57.6239 40.8239 57.7253 40.7682C58.0461 40.5676 59.1098 39.7265 59.5094 39.3533C60.4325 38.4844 61.1135 37.5709 61.4118 36.8133C61.5188 36.5348 61.5413 36.3789 61.5356 35.8942C61.5356 35.2927 61.5075 35.1924 61.1867 34.5685C61.0516 34.3123 60.4494 33.6662 60.1567 33.4712C60.0216 33.3765 59.8528 33.254 59.7852 33.1927C59.7121 33.1314 59.3519 32.9086 58.9748 32.697C58.395 32.3683 58.2712 32.3238 58.1868 32.3795C58.0911 32.4352 58.0798 32.424 58.0798 32.2959C58.0798 32.2068 58.1699 32.0452 58.3331 31.867C58.4738 31.7055 58.5864 31.5328 58.5864 31.4827C58.5864 31.427 58.6258 31.3824 58.6708 31.3824C58.7158 31.3824 58.7552 31.3323 58.7552 31.271C58.7552 31.2097 58.7946 31.1596 58.8397 31.1596C58.8847 31.1596 58.9241 31.115 58.9241 31.0537C58.9241 30.998 58.9691 30.9368 59.031 30.9201C59.0873 30.9089 59.2337 30.7418 59.3519 30.558C59.5094 30.3073 59.6051 30.2127 59.6952 30.2127C59.8077 30.2127 59.8134 30.2294 59.7683 30.3575C59.7346 30.4355 59.7346 30.4856 59.7571 30.4689C59.819 30.4299 60.5 30.7585 60.5 30.8198C60.5 30.8477 60.5563 30.8811 60.6295 30.9034C60.8715 30.9591 61.8846 31.7612 62.4474 32.3405C62.9878 32.8975 63.4774 33.5938 63.59 33.9837C63.6181 34.0672 63.68 34.2288 63.7307 34.3402C63.7757 34.4516 63.832 34.6187 63.8433 34.7022C63.8602 34.7913 63.8996 34.9974 63.9333 35.1646C64.2091 36.5905 63.6181 38.3507 62.3686 39.8435C61.3612 41.0411 59.8978 42.2721 58.35 43.2246C57.9504 43.4641 57.6296 43.6981 57.6296 43.7371C57.6296 43.7705 57.5789 43.8039 57.5226 43.8039C57.4326 43.8039 57.3988 43.7259 57.32 43.375Z" fill="#F1F1F1"/>
<path d="M0.501934 34.2733C0.501934 33.85 0.794607 33.137 1.27302 32.4129C1.72328 31.7222 2.77016 30.7251 3.63692 30.1514C4.11533 29.8395 4.13221 29.8339 4.1491 29.962C4.17161 30.1514 4.14347 30.1904 3.59189 30.6917C2.52814 31.6498 1.52629 32.8975 1.00848 33.8945C0.794607 34.3067 0.693297 34.446 0.6145 34.446C0.524447 34.446 0.501934 34.407 0.501934 34.2733Z" fill="#F1F1F1"/>
<path d="M55.5977 31.5495C55.7047 31.4604 55.7835 31.3768 55.7666 31.3657C55.7553 31.3545 55.6315 31.3155 55.4908 31.2766C55.3501 31.2431 55.0968 31.1763 54.928 31.1262C54.1006 30.9034 51.8999 30.441 51.6354 30.4355C51.5341 30.4355 51.5228 30.4633 51.5397 30.6304C51.5622 30.7975 51.5453 30.8254 51.444 30.8254C51.3427 30.8254 51.3258 30.792 51.3258 30.5914C51.3258 30.2739 51.1345 29.2323 50.9881 28.7087C50.8362 28.1851 50.7799 27.7061 50.8699 27.7061C50.9037 27.7061 50.9319 27.7451 50.9319 27.7896C50.9319 27.8843 50.9262 27.8843 52.0857 28.0737C52.5753 28.1517 53.1494 28.2575 53.352 28.3021C53.7348 28.3856 54.5452 28.5639 54.9843 28.653C55.3051 28.7254 55.654 28.8257 56.6671 29.1376C57.4382 29.3771 57.4832 29.3827 57.5564 29.288C57.6239 29.1989 57.6296 29.2044 57.6296 29.3604C57.6296 29.5721 57.5283 29.767 57.2975 30.0177C57.2018 30.1235 57.123 30.2349 57.123 30.2628C57.123 30.2906 56.9204 30.5246 56.6784 30.7752C56.4307 31.0315 56.1662 31.31 56.0874 31.3991C56.0086 31.4827 55.9186 31.5495 55.8848 31.5495C55.8566 31.5495 55.8285 31.5885 55.8285 31.633C55.8285 31.6943 55.7666 31.7166 55.6203 31.7166L55.4064 31.711L55.5977 31.5495Z" fill="#F1F1F1"/>
<path d="M5.96142 31.3155C5.96142 31.1986 5.99519 31.1429 6.07399 31.1206C6.1359 31.1039 6.18656 31.0705 6.18656 31.0482C6.18656 31.0092 7.13212 30.3352 8.26904 29.5721C8.62363 29.3326 9.11329 28.9983 9.35531 28.8368C9.87875 28.4859 10.1151 28.4469 10.2446 28.6976C10.2896 28.7811 10.3346 28.8591 10.3515 28.8758C10.4922 28.9984 10.6329 29.288 10.6329 29.444C10.6273 29.6166 10.6273 29.6222 10.5485 29.5219C10.4641 29.4161 10.4585 29.4161 10.1433 29.5554C9.96317 29.6334 9.62547 29.7782 9.39471 29.8784C8.63488 30.1959 7.8244 30.5691 6.88447 31.0315L5.96142 31.4882V31.3155Z" fill="#F1F1F1"/>
<path d="M48.9901 30.1347C48.9507 30.079 48.7762 30.04 48.4272 30.0177C48.1515 30.001 47.8306 29.9731 47.7237 29.962C47.6168 29.9453 47.1721 29.9119 46.7387 29.8784C46.3054 29.845 45.827 29.8116 45.6694 29.7949C45.5174 29.7837 45.2135 29.7559 44.994 29.7392C42.979 29.5721 42.5231 29.5052 41.8646 29.2936C41.3806 29.132 40.9022 28.7588 40.6601 28.3578C40.4519 27.9957 40.3787 27.422 40.4913 26.9485C40.5701 26.5976 40.6095 26.4862 40.8177 26.035C40.9472 25.7454 41.4594 24.8708 41.8421 24.2971C42.5681 23.1942 42.7539 22.8934 43.131 22.1749C43.4856 21.5064 43.5024 21.4563 43.3955 21.4285C43.328 21.4118 43.2773 21.3616 43.2773 21.3226C43.2773 21.2558 43.5531 21.2446 44.8814 21.2446H46.4855V21.4396C46.4855 21.6624 46.4236 21.6903 46.2997 21.512C46.2153 21.3839 46.2153 21.3839 46.1027 21.6346C45.7482 22.3977 45.6131 22.6762 45.2529 23.3502C44.8532 24.0854 44.6506 24.4252 43.857 25.6284C43.3336 26.4305 42.9903 27.0376 43.024 27.0933C43.0691 27.1602 43.9471 27.2493 47.3579 27.5111C47.5774 27.5278 47.8588 27.5557 47.9939 27.5724C48.2134 27.5947 48.2359 27.5891 48.2077 27.4944C48.1796 27.4053 48.1965 27.3886 48.2978 27.4108C48.3878 27.4276 48.461 27.5222 48.5511 27.7228C48.8663 28.4525 49.1308 29.4774 49.1308 29.962C49.1308 30.2182 49.0858 30.2739 48.9901 30.1347Z" fill="#F1F1F1"/>
<path d="M12.6591 28.7366C12.6591 28.692 12.6029 28.5973 12.5353 28.5193C12.3496 28.3244 12.2652 28.2185 12.2652 28.1795C12.2652 28.1628 12.2426 28.1183 12.2089 28.0793C11.9443 27.7618 11.8712 27.6559 11.8712 27.6002C11.8712 27.5668 11.8487 27.539 11.8149 27.539C11.7868 27.539 11.7586 27.4387 11.7586 27.3162C11.7586 27.1936 11.7811 27.0933 11.8093 27.0933C11.9218 27.0933 12.9406 26.0684 13.4359 25.4557C13.8974 24.882 14.8092 23.4894 15.1356 22.86C15.2594 22.6205 16.0418 21.5733 16.3119 21.2836C16.5033 21.0775 17.128 20.5651 17.3588 20.4258C17.4207 20.3868 17.8147 20.1807 18.2312 19.9691C18.9629 19.6014 19.3625 19.4566 21.7489 18.7046C22.9196 18.337 24.231 17.8078 24.7207 17.507C25.3679 17.106 25.6381 16.9278 25.7957 16.7996C25.9364 16.6882 26.0039 16.6715 26.1897 16.6994C26.3191 16.7217 26.5724 16.7551 26.7581 16.7774C27.017 16.8052 27.1015 16.8386 27.1127 16.9166C27.124 16.9667 27.0958 17.0113 27.0564 17.0113C27.0114 17.0113 26.7356 17.2007 26.443 17.4291C25.2047 18.415 24.0228 19.128 21.9009 20.1863C19.492 21.3895 19.2893 21.5009 18.7096 21.9298C17.6233 22.7319 17.3757 23.055 16.2557 25.0881C15.4227 26.6032 14.6347 27.4053 13.2501 28.1461C13.0025 28.2798 12.7886 28.3968 12.7773 28.4079C12.7661 28.419 12.8111 28.5137 12.873 28.6251L12.9912 28.8201H12.828C12.7154 28.8201 12.6591 28.7923 12.6591 28.7366Z" fill="#F1F1F1"/>
<path d="M44.1778 19.1335C44.1778 19.0389 44.2116 19.0166 44.3692 19.0166C44.5606 19.0166 44.5662 19.011 44.6788 18.6434C45.2303 16.8498 45.2416 14.8556 44.7069 13.5188C44.403 12.7557 43.66 11.8533 43.0634 11.5135C42.9171 11.4355 42.7595 11.3353 42.7145 11.2963C42.5794 11.1849 41.662 10.8284 41.2793 10.7448C40.5419 10.5777 39.6752 10.5276 38.966 10.6C37.1537 10.795 35.4933 11.2907 34.03 12.0705C32.9212 12.6666 32.4709 12.9172 32.0488 13.1902C31.4972 13.5466 31.289 13.6803 31.1651 13.7527C30.9569 13.8697 29.9438 14.644 29.9381 14.6885C29.9381 14.7108 30.0057 14.7275 30.0845 14.7275C30.2139 14.7275 30.2196 14.7331 30.1408 14.8166C30.0676 14.8891 29.9719 14.9002 29.6398 14.8724C29.4203 14.8556 29.0883 14.8389 28.9138 14.8445H28.5873V14.6217C28.5873 14.41 28.6211 14.371 29.6455 13.4018C30.2252 12.8504 30.7768 12.3379 30.8668 12.2711C30.9625 12.1987 31.1989 11.9981 31.4015 11.8255C31.8856 11.4133 33.6585 10.1043 33.7373 10.1043C33.7485 10.1043 33.9118 10.0096 34.0919 9.8926C34.4746 9.65308 35.3414 9.21861 35.7916 9.04593C35.9605 8.97909 36.18 8.88997 36.27 8.85098C36.3657 8.81199 36.5402 8.75071 36.664 8.72286C36.7878 8.68944 37.0693 8.61146 37.2888 8.55019C38.1499 8.31624 38.7859 8.2494 39.8665 8.28282C40.4294 8.29953 40.9472 8.33295 41.026 8.36637C41.1048 8.39422 41.2793 8.44992 41.42 8.48891C42.298 8.72286 43.1535 9.17962 43.8064 9.7812C44.1666 10.1098 44.69 10.7616 44.932 11.1905C45.0221 11.3464 45.1628 11.5971 45.2472 11.7475C45.5737 12.3268 45.9283 13.3684 46.114 14.2819C46.3335 15.3737 46.5305 17.8914 46.463 18.6991L46.4179 19.1837H45.6468C45.2191 19.1837 44.7125 19.2004 44.5212 19.2171C44.1947 19.2561 44.1778 19.2505 44.1778 19.1335Z" fill="#F1F1F1"/>
<path d="M25.2103 57.9467C24.6982 57.9077 23.7132 57.6626 23.308 57.4788C23.1447 57.4008 22.9984 57.3396 22.9815 57.3396C22.8971 57.3396 22.3061 57.0388 22.0697 56.8717C21.9178 56.7714 21.7095 56.6433 21.6082 56.5876C21.5069 56.5319 21.3437 56.4149 21.248 56.3146C21.1523 56.22 20.9497 56.0417 20.8034 55.9192C20.4882 55.6629 19.7171 54.7606 19.385 54.2592C18.3269 52.6662 17.7415 51.2848 17.1843 49.0678C17.0211 48.4161 16.9761 48.288 16.8691 48.1933C16.8072 48.1376 16.7735 48.0708 16.796 48.0373C16.8635 47.9315 17.1449 47.9705 18.1749 48.2323C18.3438 48.2769 18.6984 48.3381 18.9629 48.3716C19.5539 48.444 19.8071 48.522 19.8071 48.6278C19.8071 48.6723 19.7677 48.7058 19.7227 48.7058C19.582 48.7058 19.6495 49.0288 20.0435 50.2042C20.3137 51.0118 20.8146 52.059 21.248 52.694C21.4168 52.9391 21.5519 53.1563 21.5519 53.1731C21.5519 53.3179 22.807 54.5266 23.1673 54.7271C23.3474 54.8274 23.5275 54.9444 23.5669 54.9834C23.6063 55.0224 23.6682 55.0558 23.6963 55.0558C23.7301 55.0558 23.8933 55.1171 24.0565 55.195C25.1709 55.6964 26.7469 55.7075 27.9964 55.2118C29.5611 54.5935 30.3715 54.0142 32.0206 52.3375L33.1801 51.1678L34.1087 49.5524L35.0431 47.9371L34.9249 47.8201L34.8123 47.7031H35.0093C35.2907 47.7031 37.1987 48.9509 37.1987 49.1402C37.1987 49.2071 37.1649 49.2628 37.1312 49.2628C37.0918 49.2628 36.9792 49.4076 36.8835 49.5859C36.7878 49.7585 36.3488 50.5161 35.9154 51.2681L35.1218 52.6328L33.878 53.9028C32.0263 55.7799 30.9906 56.5542 29.4316 57.217C29.2909 57.2783 29.077 57.3674 28.9532 57.4231C28.7337 57.5178 28.0921 57.7072 27.5742 57.8297C27.214 57.9189 26.2234 58.0191 25.9026 57.9968C25.7563 57.9913 25.4411 57.969 25.2103 57.9467Z" fill="#F1F1F1"/>
<path d="M20.8202 48.8729C20.8202 48.845 20.7808 48.8172 20.7358 48.8172C20.6401 48.8172 20.6289 48.7169 20.702 48.6055C20.7358 48.5442 20.8428 48.5387 21.1354 48.5665C21.7827 48.6278 21.8333 48.6445 21.8333 48.7949C21.8333 48.9286 21.8277 48.9286 21.3268 48.9286C21.0285 48.9286 20.8202 48.9063 20.8202 48.8729Z" fill="#F1F1F1"/>
<path d="M22.6213 48.7113C22.6213 48.6334 22.6551 48.5944 22.7339 48.5944C22.7958 48.5944 22.8464 48.5665 22.8464 48.5331C22.8464 48.4885 22.9478 48.4774 23.156 48.4941C23.3868 48.5164 23.4656 48.4997 23.4656 48.444C23.4656 48.3938 23.5444 48.3716 23.7188 48.3716C23.9327 48.3716 23.9721 48.3883 23.9721 48.4774C23.9721 48.5387 23.9271 48.5999 23.8764 48.6166C23.7413 48.6501 23.4262 48.7113 23.2798 48.7336C23.2123 48.7392 23.0378 48.767 22.8915 48.7893C22.6382 48.8283 22.6213 48.8227 22.6213 48.7113Z" fill="#F1F1F1"/>
<path d="M38.2118 47.3411C38.1837 47.2631 38.1161 47.2018 38.0542 47.2018C37.9979 47.2018 37.5645 46.94 37.0861 46.6169C36.6077 46.2939 36.1687 46.0154 36.1181 45.9987C36.0562 45.9764 36.0168 45.9095 36.0168 45.8316C36.0168 45.6812 36.0336 45.6756 36.1856 45.7536C36.27 45.7981 36.3263 45.7424 36.5852 45.3525C36.7541 45.1019 36.8835 44.8846 36.8779 44.8679C36.8723 44.8512 36.8948 44.8011 36.9285 44.7676C36.9623 44.7287 36.9679 44.6952 36.9398 44.6897C36.9117 44.6897 36.9285 44.673 36.9792 44.6507C37.0242 44.6284 37.2662 44.3889 37.5195 44.1104C37.7728 43.8374 38.1274 43.4865 38.3131 43.3305C38.5045 43.1801 38.6564 43.0186 38.6564 42.9852C38.6621 42.9462 38.7127 42.9128 38.7803 42.9128C38.8422 42.9128 38.9716 42.8571 39.0673 42.7958C39.5345 42.4616 40.6601 41.9993 42.2586 41.4701C43.1873 41.1582 44.0822 40.8462 44.2454 40.7738C44.4086 40.7014 44.6731 40.5844 44.8251 40.5176C45.7707 40.0998 46.8007 39.3089 48.4272 37.7325C49.0801 37.1031 49.7837 36.4346 49.9919 36.2397C50.2002 36.0503 50.3578 35.8665 50.3409 35.8386C50.324 35.8052 50.3634 35.7829 50.4366 35.7829C50.5435 35.7829 50.611 35.8609 50.7799 36.1896C50.8925 36.4068 51.1007 36.7689 51.2414 36.9805C51.3765 37.1978 51.5453 37.4763 51.6185 37.61C51.6861 37.7381 51.7648 37.8439 51.7874 37.8439C51.8099 37.8439 51.8324 37.933 51.8324 38.0389C51.8324 38.2561 51.793 38.2784 51.6917 38.1391C51.6016 38.0221 51.6185 38.011 49.8625 39.6988C48.855 40.668 47.7969 41.5759 47.3804 41.8266C46.1253 42.5786 46.0014 42.6454 45.1797 42.9908C44.6394 43.2191 42.889 43.804 42.7539 43.804C42.7201 43.804 42.585 43.8597 42.4443 43.921C42.3092 43.9878 42.1291 44.038 42.0503 44.038C41.9659 44.038 41.8871 44.0547 41.8702 44.0769C41.8533 44.0937 41.5888 44.2218 41.2793 44.361C40.9697 44.4947 40.6207 44.6618 40.5082 44.7342C40.39 44.8066 40.2718 44.8623 40.2436 44.8623C40.2155 44.8623 39.9397 45.1074 39.6358 45.4082C39.2474 45.787 38.9604 46.1379 38.6902 46.5557C38.285 47.1851 38.2906 47.1628 38.5664 47.3188C38.724 47.4079 38.679 47.4803 38.4651 47.4803C38.3019 47.4803 38.2568 47.4525 38.2118 47.3411Z" fill="#F1F1F1"/>
<path d="M18.8447 46.3663C18.794 46.3384 18.3775 46.227 17.916 46.1156C17.4545 46.0098 16.9142 45.8705 16.7116 45.8093C16.5089 45.748 16.2782 45.6979 16.1937 45.6979C16.0643 45.6979 16.0362 45.6756 16.0362 45.5586C16.0362 45.4361 16.0474 45.4249 16.1825 45.4751C16.2613 45.5085 16.3345 45.5308 16.3513 45.5308C16.4189 45.5308 16.2219 44.7231 15.9405 43.8319C15.6197 42.8236 15.0231 41.6261 14.3139 40.5454C14.1957 40.3616 14.0662 40.1611 14.0325 40.0998C13.9987 40.0386 13.8355 39.7656 13.6722 39.4871C12.9743 38.3007 12.4847 36.9192 12.3552 35.7551C12.3327 35.5713 12.3046 35.3596 12.2933 35.2816C12.2821 35.2036 12.2595 34.758 12.237 34.2901C12.1639 32.5244 12.0344 31.9673 11.4547 30.9146C11.1958 30.4467 10.2615 29.0876 10.1714 29.0541C10.1489 29.043 10.1264 29.004 10.1264 28.9706C10.1264 28.9316 10.087 28.8536 10.042 28.7979C9.97443 28.7088 9.94629 28.7032 9.87312 28.7645C9.79995 28.8258 9.7887 28.8091 9.7887 28.6364C9.7887 28.4637 9.82247 28.4191 10.0532 28.2687C10.2052 28.1796 10.5541 27.9345 10.8299 27.734C11.1114 27.5335 11.3759 27.3552 11.4209 27.333C11.4659 27.3162 11.5279 27.2661 11.5504 27.2215C11.5729 27.1826 11.646 27.1491 11.7023 27.1491C11.7642 27.1491 11.8149 27.1269 11.8149 27.0934C11.8149 27.0656 11.9106 27.0377 12.0288 27.0377L12.237 27.0433L12.0682 27.1881C11.9612 27.2828 11.9275 27.3441 11.9725 27.3608C12.0063 27.3719 12.04 27.4054 12.04 27.4388C12.04 27.4889 12.1188 27.5948 12.3777 27.9123C12.4115 27.9512 12.434 27.9958 12.434 28.0125C12.434 28.0292 12.4565 28.0738 12.4903 28.1128C12.7436 28.4191 12.828 28.5361 12.828 28.5751C12.828 28.5974 12.873 28.6698 12.9293 28.7311C13.0644 28.8815 13.5315 29.639 13.7623 30.0735C14.0493 30.6194 14.3308 31.427 14.4546 32.0788C14.5953 32.8029 14.6066 32.9254 14.6572 34.0562C14.6797 34.5296 14.7022 34.9975 14.7135 35.0867C14.8261 36.028 15.0231 36.7856 15.327 37.4206C15.5803 37.9497 16.1093 38.88 16.3739 39.2643C16.4583 39.3868 16.5821 39.5762 16.644 39.6821C16.7003 39.7879 16.8973 40.1221 17.0774 40.4285C17.2519 40.7293 17.4376 41.069 17.4826 41.1804C17.5333 41.2918 17.6515 41.5592 17.7528 41.7709C18.113 42.5563 18.5014 43.7929 18.7603 45.0016C19.0023 46.1268 19.0192 46.188 19.1655 46.2215C19.3738 46.2772 19.34 46.422 19.1205 46.422C19.0192 46.422 18.8954 46.3941 18.8447 46.3663Z" fill="#F1F1F1"/>
<path d="M56.7853 42.0494C56.7853 41.8099 56.8529 41.8043 57.0048 42.016C57.1568 42.2276 57.1568 42.2443 56.9542 42.2443C56.7966 42.2443 56.7853 42.2276 56.7853 42.0494Z" fill="#F1F1F1"/>
<path d="M55.9523 40.8629C55.8679 40.8072 55.7891 40.2391 55.8623 40.2391C55.9186 40.2391 56.2788 40.7905 56.2788 40.8685C56.2788 40.9242 56.0424 40.9186 55.9523 40.8629Z" fill="#F1F1F1"/>
<path d="M3.6932 40.3672C3.63692 40.3171 3.64255 39.9606 3.69883 39.9606C3.72135 39.9606 3.84517 40.0608 3.96336 40.1834L4.18287 40.4062H3.95774C3.82828 40.4062 3.71009 40.3895 3.6932 40.3672Z" fill="#F1F1F1"/>
<path d="M53.2451 36.4959C52.4909 35.315 52.1138 34.5853 52.1138 34.3124C52.1138 34.0896 52.1476 34.0617 52.2545 34.2066C52.3164 34.2901 52.3614 34.2678 52.7104 34.0005C52.9243 33.8334 53.11 33.683 53.1269 33.6663C53.1438 33.6495 53.3577 33.4713 53.6053 33.2763C54.1963 32.8029 55.6371 31.5329 55.8679 31.2822C55.9692 31.1764 56.0368 31.065 56.0199 31.0427C56.003 31.0149 56.0255 30.9926 56.0762 30.9926C56.1887 30.9926 56.9654 30.1515 56.9317 30.0623C56.9148 30.0234 56.926 29.9899 56.9598 29.9899C57.033 29.9899 57.32 29.6557 57.32 29.5777C57.32 29.5443 57.3594 29.483 57.4101 29.4496C57.5339 29.3605 58.0855 28.4414 58.2712 28.0181C58.6145 27.255 58.7158 25.985 58.4795 25.4502C58.4513 25.389 58.3838 25.2274 58.3331 25.0882C58.1418 24.5813 57.669 24.0187 57.0105 23.5285C56.6671 23.2667 55.7441 22.771 55.2375 22.5649C53.8473 22.0079 51.8436 21.6179 49.7499 21.4954C49.4235 21.4787 49.0858 21.4508 49.0013 21.4341C48.8719 21.4063 48.8381 21.423 48.81 21.5177C48.7762 21.6514 48.703 21.6681 48.6017 21.5622C48.5117 21.4731 48.4554 20.2588 48.5004 19.3342C48.5229 18.7493 48.5398 18.6825 48.6299 18.6825C48.7087 18.6825 48.7368 18.7214 48.7368 18.8496C48.7368 18.9442 48.7537 19.0167 48.7818 19.0167C50.763 19.1225 52.519 19.3342 53.8023 19.6238C55.1644 19.9302 55.896 20.1864 57.0386 20.7546C57.5958 21.0331 58.108 21.3339 58.3387 21.5232C58.4344 21.6012 58.5695 21.7015 58.6427 21.7461C58.7665 21.824 59.6164 22.654 59.8809 22.9548C59.9372 23.0216 60.0273 23.1609 60.0835 23.2611C60.1342 23.3614 60.2355 23.5285 60.3143 23.6288C60.3875 23.729 60.5113 23.9797 60.5845 24.1858C60.652 24.3919 60.7533 24.6481 60.7983 24.754C60.8434 24.8598 60.8996 25.0882 60.9165 25.2553C60.939 25.4224 60.9784 25.6897 61.0122 25.8513C61.0966 26.2913 61.0235 27.2048 60.8377 27.9011C60.6407 28.6698 60.3931 29.2491 59.9034 30.0846C59.47 30.8422 59.2787 31.104 59.1717 31.104C59.1267 31.104 59.1098 31.1374 59.1267 31.1875C59.1492 31.2377 59.1155 31.2878 59.0367 31.3156C58.9691 31.3379 58.9185 31.3769 58.9185 31.3992C58.9354 31.5162 58.9185 31.5496 58.8397 31.5496C58.7946 31.5496 58.7721 31.583 58.789 31.622C58.8284 31.7278 57.4382 33.1649 56.5039 33.9838C55.7497 34.641 54.14 35.9612 53.701 36.2842C53.5772 36.3734 53.5209 36.4569 53.5378 36.5182C53.5772 36.6686 53.3408 36.6463 53.2451 36.4959Z" fill="#F1F1F1"/>
<path d="M6.69311 30.7753C6.69311 30.6416 6.71562 30.6027 6.80005 30.6027C6.87322 30.6027 6.91824 30.5581 6.9295 30.4801C6.94076 30.3743 6.98578 30.3464 7.19403 30.3353C7.51485 30.313 7.48671 30.3798 7.04207 30.6973L6.69311 30.9424L6.69311 30.7753Z" fill="#F1F1F1"/>
<path d="M8.49981 26.7704C8.55609 26.6812 8.51669 26.5921 8.25779 26.1966C8.08894 25.9404 7.77375 25.3667 7.55424 24.9211C7.17152 24.1412 6.63683 22.8768 6.63683 22.732C6.63683 22.6986 6.57491 22.4758 6.49612 22.2362C6.42295 22.0023 6.34415 21.6904 6.32727 21.54C6.30475 21.3951 6.27661 21.2113 6.26536 21.1333C6.1753 20.6989 6.1753 19.6238 6.27098 19.0445C6.66497 16.5101 8.03828 14.9226 10.92 13.6804C11.1958 13.5634 12.6366 13.1958 13.025 13.1457C15.5071 12.8226 17.6008 12.9173 20.6795 13.4799C21.8052 13.686 22.1373 13.7528 23.9383 14.1149C25.1259 14.3544 25.3736 14.3767 25.4805 14.2709C25.5312 14.2207 25.548 14.243 25.548 14.3823C25.548 14.4937 25.5199 14.5605 25.4692 14.5605C25.4298 14.5605 25.3342 14.6218 25.2554 14.6942C25.1766 14.761 25.0696 14.839 25.019 14.8557C24.9683 14.878 24.9289 14.917 24.9289 14.9504C24.9289 14.9783 24.8952 15.0061 24.8558 15.0061C24.8164 15.0061 24.7432 15.0507 24.6925 15.1064C24.5518 15.2512 24.4336 15.3403 24.3774 15.3403C24.3548 15.3403 24.2817 15.3849 24.2198 15.4406C24.1635 15.4963 24.0284 15.5743 23.9327 15.6133C23.8314 15.6523 23.747 15.7024 23.747 15.7247C23.747 15.747 23.6232 15.8082 23.4656 15.8695C23.3136 15.9308 23.1841 15.9921 23.1841 16.0143C23.1841 16.0366 23.0097 16.109 22.7902 16.1814C22.5763 16.2483 22.3962 16.3263 22.3962 16.3541C22.3962 16.3764 22.3061 16.3987 22.1992 16.3987C22.0641 16.3987 22.0022 16.4265 22.0022 16.4822C22.0022 16.5435 21.9403 16.5658 21.7996 16.5658C21.5294 16.5658 21.5744 16.4544 21.8784 16.343C22.0078 16.2984 22.1148 16.2483 22.1148 16.2316C22.1148 16.2037 20.7752 15.9363 20.0041 15.8082C19.9141 15.7915 19.6327 15.7414 19.385 15.6968C18.991 15.63 18.4507 15.5576 17.3307 15.4183C16.7228 15.3459 14.4602 15.3793 13.7567 15.474C12.6817 15.6133 11.6123 15.9308 10.9425 16.304C9.53542 17.0894 8.83751 18.0642 8.6574 19.5124C8.5786 20.1251 8.64614 20.9718 8.81499 21.5344C8.86002 21.6959 8.90505 21.8575 8.91067 21.8853C8.93319 21.9911 9.00636 22.2195 9.05701 22.3309C9.08515 22.3922 9.18646 22.6373 9.28215 22.8712C9.48477 23.4004 10.0138 24.4532 10.2727 24.8542C10.3797 25.0158 10.4641 25.1717 10.4641 25.2051C10.4641 25.2441 10.526 25.2553 10.6048 25.2441C10.7174 25.2219 10.7455 25.2386 10.7455 25.3221C10.7455 25.4335 10.5429 25.6396 10.4303 25.6452C10.3966 25.6452 10.3178 25.7065 10.2615 25.7844C10.2052 25.8624 10.1264 25.9237 10.087 25.9237C10.0476 25.9237 10.0138 25.9515 10.0138 25.9794C10.0138 26.0128 9.97443 26.0351 9.9294 26.0351C9.88438 26.0351 9.84498 26.0574 9.84498 26.0852C9.84498 26.1131 9.78307 26.1521 9.7099 26.1688C9.63673 26.1855 9.50165 26.2691 9.4116 26.3526C9.31591 26.4417 9.17521 26.542 9.09641 26.5866C9.01199 26.6311 8.89379 26.7091 8.83751 26.7704C8.77559 26.8261 8.6574 26.8706 8.5786 26.8706C8.45478 26.8706 8.44352 26.8595 8.49981 26.7704Z" fill="#F1F1F1"/>
<path d="M46.3166 21.4954C46.3166 21.4286 46.0408 21.4174 44.4593 21.4118C41.3299 21.4063 40.5588 21.2782 38.7746 20.4482C38.482 20.3145 37.7447 19.88 37.1424 19.479C36.5402 19.0779 35.8929 18.6713 35.7072 18.5655C35.5215 18.4652 35.2907 18.326 35.195 18.2647C35.0937 18.1978 34.8067 18.0642 34.5478 17.9583C34.2889 17.8581 34.0525 17.7578 34.0187 17.7355C33.9005 17.6464 32.6398 17.3512 32.0206 17.2676C31.4015 17.1841 30.8556 17.1562 28.8406 17.0949C27.7037 17.0615 26.3979 16.9613 26.246 16.9C26.1841 16.8777 26.0884 16.8777 26.0377 16.9111C25.9533 16.9557 25.942 16.9334 25.942 16.7663C25.942 16.6159 25.9814 16.5491 26.1053 16.4599C26.1953 16.3931 26.2854 16.343 26.3079 16.343C26.3304 16.343 26.3979 16.2817 26.4598 16.2037C26.5217 16.1257 26.6062 16.0645 26.6512 16.0645C26.6962 16.0645 26.73 16.0422 26.73 16.0143C26.73 15.992 26.9157 15.8138 27.1409 15.6244C27.3604 15.4295 27.7431 15.0897 27.9795 14.8613C28.3791 14.4825 28.4298 14.4491 28.6493 14.4491C28.8406 14.4491 28.8744 14.4658 28.8237 14.5159C28.7112 14.6274 28.7449 14.6441 29.077 14.6552C29.2571 14.6608 29.5554 14.6775 29.7412 14.6942C29.9269 14.7053 30.4334 14.7332 30.8668 14.7555C31.6492 14.7889 33.0788 14.9616 33.3996 15.0618C33.4953 15.0897 33.8217 15.1788 34.1313 15.2568C34.711 15.4072 35.2288 15.6133 36.1012 16.0422C36.8723 16.421 37.9867 17.1005 37.9867 17.1841C37.9867 17.2119 38.0204 17.2342 38.0655 17.2342C38.1105 17.2342 38.1837 17.2676 38.2231 17.3066C38.2962 17.3735 38.5383 17.535 39.0279 17.8358C39.1855 17.9305 39.3375 18.0363 39.3712 18.0642C39.405 18.092 39.557 18.17 39.7089 18.2368C39.8609 18.2981 40.086 18.4039 40.2099 18.4652C40.6939 18.7103 41.5719 18.9164 42.4612 18.9832C42.8721 19.0167 43.812 19.0278 45.3485 19.0222L46.2603 19.0167V18.7939C46.2603 18.6045 46.2772 18.571 46.3785 18.571C46.4967 18.571 46.5024 18.5878 46.4686 19.0334C46.4461 19.284 46.4292 19.958 46.4292 20.5373C46.4292 21.1946 46.4067 21.5789 46.3729 21.5789C46.3448 21.5789 46.3166 21.54 46.3166 21.4954Z" fill="#F1F1F1"/>
<path d="M18.6252 19.8243C18.6252 19.6294 18.6252 19.6294 18.8785 19.6294C19.0473 19.6294 19.1317 19.6517 19.1317 19.7018C19.1317 19.7408 19.0192 19.8299 18.8785 19.8968L18.6252 20.0193V19.8243Z" fill="#F1F1F1"/>
<path d="M49.5248 54.2927C48.8156 54.2202 47.6562 54.003 46.7387 53.7691C45.4949 53.4571 45.4836 53.4515 44.8532 53.2176C44.5887 53.1229 44.2116 52.9837 44.009 52.9112C43.8064 52.8388 43.5081 52.7274 43.3392 52.6606C43.0409 52.5436 40.7614 51.4129 40.435 51.2179C40.3449 51.1622 39.9791 50.9561 39.6302 50.7611C39.2812 50.5662 38.8647 50.3267 38.7015 50.2264C38.5439 50.1261 38.3187 49.998 38.2062 49.9368C38.0992 49.8755 37.8122 49.7028 37.5758 49.5468C37.3394 49.3909 37.1199 49.2628 37.0918 49.2628C37.0636 49.2628 37.0299 49.2405 37.0186 49.2126C36.9961 49.1569 35.3076 48.0429 34.666 47.6641C33.9399 47.2297 32.7579 46.6615 32.4428 46.5835C32.2908 46.5501 32.1163 46.4944 32.06 46.4665C31.8743 46.3718 31.0582 46.4053 30.5573 46.5222C30.062 46.6392 28.638 47.1071 28.1652 47.3076C27.8444 47.4413 26.7187 47.8591 26.2797 47.9983C25.3173 48.3158 23.8033 48.6723 23.8033 48.5888C23.8033 48.4997 23.6457 48.5331 23.6119 48.6278C23.5838 48.7057 23.5218 48.7169 23.2967 48.689C23.1447 48.6723 23.0153 48.6779 23.004 48.7113C22.9928 48.7447 21.884 48.923 21.6195 48.9286C21.6082 48.9286 21.6138 48.9063 21.6307 48.8784C21.6757 48.8116 21.3606 48.7447 21.2199 48.7893C21.1579 48.806 21.0566 48.7949 20.9891 48.7615C20.9159 48.7225 20.8765 48.7225 20.8765 48.7615C20.8765 48.845 20.3475 48.8283 19.8634 48.7336C19.6327 48.6835 19.1486 48.5999 18.794 48.5442C18.4395 48.4885 18.0455 48.4161 17.9216 48.3827C17.4883 48.2657 17.19 48.2044 16.993 48.1821C16.8804 48.1654 16.4752 48.0596 16.0924 47.9482C15.7041 47.8312 15.2932 47.7365 15.1806 47.7421C15.0624 47.7421 14.978 47.7198 14.9837 47.692C14.9893 47.6586 14.9274 47.6307 14.8486 47.6196C14.7641 47.6084 14.6234 47.5639 14.539 47.5193C14.449 47.4747 14.1507 47.3689 13.8692 47.2909C12.586 46.9121 9.14706 45.7591 8.18462 45.3803C7.04769 44.9347 5.06089 43.9767 4.43051 43.5756C4.21664 43.4419 3.94085 43.2692 3.81703 43.1913C3.49621 43.0019 2.91086 42.5284 2.33114 41.9937C1.98219 41.6706 1.21111 40.707 0.912803 40.2335C0.580731 39.6932 0.181118 38.7295 0.130463 38.3508C0.113578 38.2115 0.0798087 38.0166 0.051667 37.9219C0.0291536 37.8272 0.00664059 37.4595 0.00101225 37.1086C-0.0327578 35.1256 0.777724 33.3097 2.53939 31.3992C2.82644 31.0928 3.25419 30.6639 3.48495 30.4578C3.71572 30.2517 3.94085 30.0345 3.98025 29.9788C4.01965 29.9231 4.22227 29.7615 4.43051 29.6167C4.63876 29.4775 4.86953 29.3048 4.94832 29.2324C5.16783 29.043 5.98957 28.4693 7.25594 27.6226C7.89194 27.1992 8.48855 26.7759 8.58423 26.6812C8.68554 26.5865 8.83188 26.4696 8.92193 26.425C9.00636 26.3804 9.14706 26.2746 9.24275 26.1855C9.3328 26.1019 9.46788 26.0184 9.54105 26.0017C9.61422 25.9849 9.67613 25.946 9.67613 25.9181C9.67613 25.8903 9.71553 25.868 9.76055 25.868C9.80558 25.868 9.84498 25.8457 9.84498 25.8123C9.84498 25.7844 9.87875 25.7566 9.91815 25.7566C9.95754 25.7566 10.0363 25.6953 10.0926 25.6173C10.1489 25.5393 10.2164 25.4781 10.2446 25.4781C10.3459 25.4781 10.7905 25.1327 11.0888 24.8263C11.7642 24.1301 12.2258 23.4839 13.1094 21.9967C13.4978 21.3394 14.1056 20.4983 14.5559 19.9859C15.7885 18.5877 17.4601 17.7076 20.764 16.7162C21.5744 16.4711 22.081 16.2872 22.1035 16.2204C22.1148 16.1981 22.1485 16.187 22.1767 16.2093C22.2048 16.226 22.2273 16.2148 22.2273 16.187C22.2273 16.1647 22.4018 16.0812 22.6213 16.0143C22.8408 15.9419 23.0153 15.8695 23.0153 15.8472C23.0153 15.8249 23.1391 15.7637 23.2967 15.7024C23.4543 15.6411 23.5781 15.5798 23.5781 15.5576C23.5781 15.5353 23.6626 15.4851 23.7639 15.4461C23.8595 15.4072 23.9946 15.3292 24.0509 15.2735C24.1128 15.2178 24.186 15.1732 24.2085 15.1732C24.2648 15.1732 24.383 15.0841 24.5237 14.9337C24.5743 14.8836 24.6475 14.839 24.6813 14.839C24.7207 14.839 24.7601 14.8 24.7826 14.7554C24.7995 14.7109 24.8389 14.6719 24.8726 14.6719C24.9458 14.6719 25.1878 14.4324 25.1653 14.3767C25.1597 14.3488 25.1991 14.3433 25.2554 14.36C25.3736 14.399 26.1278 13.7417 27.8725 12.0706C28.5311 11.4412 29.3584 10.6836 29.713 10.3884C30.3546 9.85368 32.0825 8.54469 32.2458 8.47227C32.2908 8.44999 32.5216 8.31074 32.7523 8.15477C33.1801 7.87626 34.4971 7.20784 35.0599 6.98503C35.2288 6.91819 35.4821 6.81236 35.6228 6.75665C35.9999 6.60626 36.9792 6.33889 37.649 6.20521C38.1555 6.10494 39.9228 5.96012 40.0129 6.01025C40.0298 6.01582 40.2042 6.04367 40.4069 6.06038C41.3243 6.1495 42.2473 6.37788 42.9678 6.70652C43.1873 6.80122 43.4518 6.92376 43.5587 6.96832C43.9865 7.15214 44.9039 7.80942 45.3767 8.26061C45.872 8.73964 46.5192 9.53618 46.7781 9.99851C46.8569 10.1322 46.9695 10.3327 47.0314 10.4385C47.5548 11.3576 48.1121 12.7836 48.2021 13.4409C48.219 13.5467 48.2697 13.7695 48.3091 13.9422C48.5342 14.8334 48.7087 16.6994 48.7087 18.1254C48.703 19.0612 48.6918 20.6153 48.6861 21.0163C48.6805 21.1834 48.703 21.3338 48.7312 21.3506C48.7537 21.3673 48.7931 21.6123 48.81 21.8853C48.8437 22.3699 48.9845 23.2611 49.0407 23.3502C49.0576 23.3781 49.0801 23.4561 49.097 23.5341C49.1308 23.7067 49.3728 24.3306 49.5135 24.6147C50.8868 27.3162 51.3821 28.809 51.5228 30.6583C51.5453 30.9201 51.5679 31.1931 51.5791 31.2711C51.5904 31.349 51.6129 31.5106 51.6298 31.6331C51.6467 31.7557 51.6748 31.9952 51.6917 32.1623C51.7649 32.7973 52.187 34.1508 52.519 34.8081C52.7836 35.3317 53.0819 35.8163 53.7404 36.8245C54.4158 37.855 54.9674 38.7184 55.6315 39.7934C55.8116 40.0831 56.003 40.3895 56.0649 40.4786C56.1381 40.5844 56.1493 40.629 56.0987 40.629C56.0536 40.629 56.0593 40.6513 56.1212 40.6847C56.2056 40.7348 56.6728 41.4199 56.6728 41.4924C56.6728 41.5146 56.7459 41.6372 56.8416 41.7653C56.9317 41.899 56.988 42.0215 56.9711 42.0438C56.9486 42.0605 56.9654 42.0772 56.9992 42.0772C57.0611 42.0772 57.1793 42.2945 57.3538 42.7178C57.3819 42.7791 57.4551 43.0409 57.517 43.3027C57.6746 43.9321 57.6577 43.8708 57.8266 44.4724C57.911 44.7621 57.9842 45.0517 58.001 45.113C58.0123 45.1742 58.0742 45.4639 58.1361 45.7535C58.2712 46.3551 58.2881 46.5055 58.3331 47.2854C58.4063 48.6612 57.9504 50.3378 57.1906 51.4908C56.9373 51.8752 56.1437 52.6494 55.7103 52.9447C55.3501 53.1842 54.4439 53.6632 54.3426 53.6632C54.3089 53.6632 54.2075 53.7022 54.1119 53.7523C53.9318 53.847 52.6541 54.1812 52.2264 54.2481C51.945 54.2871 49.8343 54.3261 49.5248 54.2927ZM52.3952 51.7471C53.5265 51.4741 54.1569 51.1678 54.7985 50.5829C55.412 50.0259 55.8454 48.8951 55.9129 47.7031C55.9298 47.3912 55.8341 46.4832 55.7497 46.1713C55.7047 45.9875 55.654 45.7758 55.6428 45.6978C55.609 45.514 55.4402 44.918 55.3782 44.7788C55.3557 44.7175 55.2657 44.3944 55.1869 44.0546C55.0574 43.5366 54.9843 43.3584 54.6916 42.8849C54.5059 42.5785 54.1513 42.0048 53.9036 41.6038C53.656 41.2083 53.2676 40.5788 53.0369 40.2112C52.8061 39.8436 52.5697 39.4704 52.519 39.3813C52.2658 38.9635 51.6073 37.9887 51.6073 38.0388C51.6073 38.0723 51.5453 37.972 51.4665 37.816C51.3878 37.6656 51.2133 37.3648 51.0726 37.1476C50.7574 36.663 50.2114 35.5991 50.0088 35.0866C49.9244 34.8694 49.8343 34.6466 49.8062 34.5853C49.7612 34.4906 49.6824 34.2065 49.5529 33.7219C49.5417 33.6774 49.4966 33.4936 49.446 33.3153C49.3728 33.0368 49.3278 32.775 49.2152 31.9116C49.1871 31.7278 49.0858 30.8199 49.052 30.4634C49.0238 30.1793 48.8775 29.405 48.7931 29.0875C48.5792 28.291 48.3766 27.812 47.4535 25.9237C46.9414 24.882 46.6149 23.8906 46.508 23.055C46.4911 22.9325 46.4686 22.7932 46.4517 22.7487C46.4348 22.7041 46.4067 22.4924 46.3954 22.2752C46.3785 22.0635 46.3504 21.7962 46.3279 21.6903C46.311 21.5845 46.2941 20.593 46.2885 19.4901C46.2885 17.7355 46.2547 16.8387 46.1759 16.1201C46.0408 14.9058 45.9508 14.3878 45.7763 13.7027C45.6581 13.2459 45.2697 12.2489 45.0784 11.9146C44.994 11.7643 44.8533 11.5136 44.7632 11.3576C44.0146 10.0319 42.7314 9.046 41.2511 8.65609C41.1104 8.6171 40.9359 8.56697 40.8628 8.53354C40.784 8.50569 40.3449 8.4667 39.8722 8.44999C38.966 8.41657 38.2962 8.48898 37.4576 8.71736C37.2381 8.77863 36.9567 8.85662 36.8329 8.89004C36.709 8.91789 36.5346 8.97916 36.4389 9.01815C36.3488 9.05714 36.1293 9.14627 35.9605 9.21311C35.5102 9.38578 34.6434 9.82026 34.2607 10.0653C34.0806 10.1768 33.9174 10.2714 33.9061 10.2714C33.8273 10.2714 32.0938 11.5526 31.4634 12.0762C30.9963 12.4661 29.3078 14.0258 28.9307 14.4157C28.8237 14.5271 28.6999 14.6162 28.6549 14.6162C28.6155 14.6162 28.3847 14.8 28.1483 15.0284C27.9119 15.2568 27.5292 15.5965 27.3097 15.7915C27.0846 15.9809 26.8988 16.1591 26.8988 16.1814C26.8988 16.2093 26.8651 16.2315 26.82 16.2315C26.775 16.2315 26.6906 16.2928 26.6287 16.3708C26.5668 16.4488 26.4936 16.5101 26.4711 16.5101C26.3923 16.5156 26.139 16.7217 26.139 16.7774C26.139 16.8721 25.8238 17.0949 24.8895 17.6742C24.3999 17.975 23.0828 18.5042 21.9178 18.8718C21.5463 18.9888 20.7471 19.2506 20.1448 19.4455C19.5426 19.6461 18.991 19.802 18.9235 19.802C18.8503 19.802 18.794 19.8299 18.794 19.8689C18.794 19.9079 18.5351 20.0694 18.2199 20.2309C17.8991 20.3869 17.5896 20.554 17.5277 20.5874C17.2913 20.7378 16.6722 21.2447 16.4808 21.4508C16.2106 21.7405 15.4283 22.7877 15.3045 23.0272C14.978 23.6566 14.0662 25.0492 13.6047 25.6229C13.0081 26.3581 12.2145 27.138 11.905 27.2828C11.7924 27.3329 11.7023 27.3998 11.7023 27.4221C11.7023 27.4499 11.6573 27.4833 11.6066 27.5056C11.5504 27.5223 11.2802 27.7006 10.9988 27.9011C10.723 28.1016 10.374 28.3411 10.2277 28.4358C10.087 28.525 9.95755 28.6364 9.94066 28.6753C9.92378 28.7143 9.72678 28.8759 9.49602 29.0263C9.27089 29.1767 8.88253 29.4385 8.63489 29.6056C7.58239 30.3241 7.27845 30.5135 7.21654 30.5024C7.17714 30.4968 7.12649 30.5302 7.09272 30.5859C7.06458 30.6416 6.88447 30.7976 6.69874 30.9313C6.50737 31.0705 6.35541 31.1986 6.35541 31.2265C6.35541 31.2488 6.31601 31.2711 6.27098 31.2711C6.23158 31.2711 6.16967 31.3045 6.14716 31.3379C6.12464 31.3769 6.01771 31.4716 5.91077 31.544C5.61247 31.7501 4.92581 32.3907 4.31795 33.0368C3.47932 33.9169 2.77015 35.0755 2.55065 35.9222C2.3818 36.5794 2.43808 38.0555 2.6407 38.2561C2.67447 38.2895 2.69699 38.3508 2.69699 38.4009C2.69699 38.6237 3.06283 39.1919 3.55249 39.7433C3.72697 39.9438 3.86205 40.1277 3.83954 40.1444C3.82265 40.1666 3.85642 40.2001 3.91271 40.2168C3.96899 40.2391 4.18287 40.4173 4.38549 40.6067C4.72319 40.9298 4.96521 41.108 5.80383 41.6205C6.36666 41.9602 8.07205 42.7568 9.11329 43.1634C10.5598 43.726 14.5615 45.0294 14.8486 45.0294C14.9161 45.0294 15.0681 45.0796 15.1806 45.1353C15.4114 45.2578 16.2725 45.5307 16.4133 45.5307C16.4639 45.5307 16.7228 45.592 16.9873 45.67C17.6571 45.865 19.0023 46.1936 19.2724 46.2326C19.3963 46.2493 19.7283 46.2994 20.0041 46.3384C20.6908 46.4443 22.5763 46.4108 23.2686 46.2827C24.0622 46.1379 25.261 45.8092 25.9139 45.5642C26.1334 45.4806 26.4092 45.3748 26.533 45.3246C26.6568 45.2801 26.8707 45.191 27.0114 45.1353C27.1521 45.0796 27.411 44.9904 27.5911 44.9459C27.7656 44.8957 27.9119 44.8345 27.9119 44.8066C27.9119 44.7788 27.9682 44.7231 28.0414 44.6896C28.154 44.6284 28.1596 44.6284 28.0864 44.7175C28.0189 44.7955 28.047 44.7955 28.2778 44.6952C28.4241 44.6339 28.638 44.556 28.7506 44.5337C28.8631 44.5058 29.2065 44.4056 29.516 44.3164C30.5967 43.9934 31.7167 43.9154 32.4709 44.1159C32.6398 44.1605 32.9606 44.244 33.1801 44.3053C33.3996 44.361 33.681 44.4613 33.7992 44.5225C33.9174 44.5894 34.0356 44.6395 34.0581 44.6395C34.0975 44.6395 34.8517 44.996 35.0881 45.1297C35.15 45.1631 35.4427 45.3302 35.7353 45.5029C36.028 45.6756 36.2982 45.8315 36.3376 45.8538C36.377 45.8761 36.7822 46.1435 37.2381 46.4443C37.694 46.7506 38.1218 47.0124 38.1893 47.0236C38.2568 47.0347 38.3244 47.0904 38.3413 47.1461C38.3581 47.2074 38.4538 47.2909 38.5551 47.3355C38.6621 47.3856 38.8591 47.497 38.9998 47.5917C39.1405 47.6808 39.3656 47.8201 39.5063 47.8981C39.647 47.9761 39.9003 48.1264 40.0692 48.2323C41.2342 48.9397 43.3505 50.0537 44.1272 50.3712C44.2341 50.4158 44.3974 50.4826 44.4874 50.5216C45.6243 51.0062 47.8138 51.6245 48.9901 51.7916C49.9019 51.9253 49.8681 51.9197 50.8756 51.9086C51.6579 51.8975 51.8999 51.8696 52.3952 51.7471Z" fill="#F1F1F1"/>
</g>
<defs>
<clipPath id="clip0_1382_424">
<rect width="64" height="64" fill="white"/>
</clipPath>
</defs>
</svg>
