<svg width="699" height="383" viewBox="0 0 699 383" fill="none" xmlns="http://www.w3.org/2000/svg">
<rect width="699" height="383" rx="54" fill="#FFFFFF"/>
<mask id="mask0_1314_981" style="mask-type:alpha" maskUnits="userSpaceOnUse" x="0" y="0" width="699" height="383">
<rect width="699" height="383" rx="54" fill="#0E0E0E"/>
</mask>
<g mask="url(#mask0_1314_981)">
<path d="M349.002 -329.428C353.398 -329.428 356.962 -325.864 356.962 -321.468C356.962 -317.583 354.177 -314.35 350.494 -313.651L350.494 240.046C354.177 240.745 356.962 243.978 356.962 247.864C356.962 252.26 353.398 255.823 349.002 255.823C344.606 255.823 341.043 252.26 341.043 247.864C341.043 243.978 343.827 240.745 347.51 240.046L347.51 -313.651C343.828 -314.35 341.043 -317.583 341.043 -321.468C341.043 -325.864 344.606 -329.428 349.002 -329.428Z" fill="#B7B7B7"/>
<path d="M357.21 165.038C357.21 169.572 353.535 173.246 349.002 173.246C344.469 173.246 340.794 169.572 340.794 165.038C340.794 160.505 344.469 156.831 349.002 156.831C353.535 156.831 357.21 160.505 357.21 165.038Z" fill="#B7B7B7"/>
<path d="M357.21 89.6747C357.21 94.2078 353.535 97.8826 349.002 97.8826C344.469 97.8826 340.794 94.2078 340.794 89.6747C340.794 85.1415 344.469 81.4667 349.002 81.4667C353.535 81.4667 357.21 85.1415 357.21 89.6747Z" fill="#B7B7B7"/>
<path d="M357.21 8.34149C357.21 12.8746 353.535 16.5494 349.002 16.5494C344.469 16.5494 340.794 12.8746 340.794 8.34149C340.794 3.80838 344.469 0.133545 349.002 0.133545C353.535 0.133545 357.21 3.80838 357.21 8.34149Z" fill="#B7B7B7"/>
<path d="M357.21 -70.7532C357.21 -66.22 353.535 -62.5452 349.002 -62.5452C344.469 -62.5452 340.794 -66.22 340.794 -70.7532C340.794 -75.2863 344.469 -78.9611 349.002 -78.9611C353.535 -78.9611 357.21 -75.2863 357.21 -70.7532Z" fill="#B7B7B7"/>
<path d="M357.21 -215.511C357.21 -210.978 353.535 -207.303 349.002 -207.303C344.469 -207.303 340.794 -210.978 340.794 -215.511C340.794 -220.044 344.469 -223.719 349.002 -223.719C353.535 -223.719 357.21 -220.044 357.21 -215.511Z" fill="#B7B7B7"/>
<path d="M348.713 120.213C348.713 120.026 348.564 119.952 348.34 120.064C348.154 120.175 347.967 120.138 347.967 119.952C347.967 119.728 346.699 118.609 345.169 117.452C343.639 116.258 342.371 115.176 342.371 115.064C342.371 114.952 342.035 114.43 341.662 113.908C341.065 113.161 340.841 113.087 340.356 113.497C339.983 113.796 338.23 114.057 335.767 114.206C333.268 114.318 332.036 114.505 332.484 114.691C333.641 115.139 332.559 115.064 331.253 114.616C330.581 114.393 330.134 114.057 330.246 113.908C330.357 113.758 330.059 112.453 329.611 111.035C329.164 109.654 328.641 107.416 328.417 106.11L328.007 103.722L326.291 103.125C325.395 102.79 324.052 102.081 323.343 101.558C321.739 100.327 319.613 99.2452 319.613 99.6183C319.613 99.8049 319.426 99.6557 319.239 99.3572C318.754 98.4991 321.664 90.2539 322.709 89.5823C322.97 89.4331 322.784 88.6869 322.15 87.5303C321.627 86.5603 320.844 84.6202 320.359 83.2398C319.911 81.8594 319.389 80.6282 319.202 80.5162C318.456 80.0312 318.904 78.8374 320.06 78.2404C320.732 77.9046 322.112 76.9719 323.157 76.1884C324.164 75.4423 325.731 74.5842 326.627 74.323C328.082 73.9126 328.194 73.7633 328.194 72.5322C328.194 70.9652 329.984 64.2869 330.581 63.69C330.992 63.2796 338.08 63.578 340.207 64.1004C340.99 64.3242 341.214 64.2123 341.401 63.6153C341.55 63.2049 342.11 62.5707 342.669 62.1976C343.229 61.8619 344.908 60.5561 346.4 59.3622L349.086 57.1982L352.668 60.0337C354.608 61.6007 356.399 63.2796 356.66 63.8019C356.959 64.5107 357.257 64.66 357.817 64.4735C358.264 64.3242 359.869 64.0631 361.398 63.9138C362.928 63.7273 364.868 63.5034 365.726 63.3542C366.771 63.205 367.368 63.2796 367.629 63.6153C368.301 64.5107 369.979 70.816 369.979 72.4203C369.979 73.8007 370.054 73.9872 370.875 73.9872C371.323 73.9872 372.293 74.3976 373.001 74.8826C376.098 77.1212 378.598 78.8001 379.008 78.9493C379.381 79.0612 379.381 79.3597 378.971 80.367C378.71 81.0759 378.001 82.8667 377.441 84.3964C376.844 85.8887 376.023 87.493 375.613 87.9407L374.83 88.7615L375.762 90.03C376.285 90.7389 377.068 92.4177 377.516 93.8355C377.963 95.2159 378.411 96.2606 378.523 96.1859C378.635 96.1113 378.747 96.4471 378.784 96.8575C378.784 97.3052 378.934 97.9395 379.083 98.2379C379.269 98.6856 378.486 99.3572 375.986 100.961C374.158 102.118 372.031 103.312 371.248 103.573C369.905 104.058 369.83 104.17 369.756 105.849C369.681 106.856 369.308 108.647 368.86 109.841C368.45 111.072 368.114 112.639 368.114 113.348V114.616L366.36 114.467C365.353 114.355 363.264 114.206 361.66 114.094C360.055 114.02 358.414 113.721 357.966 113.497C357.294 113.124 357.071 113.199 356.511 113.945C355.653 115.027 355.578 115.661 356.362 115.027C356.847 114.616 356.884 114.654 356.697 115.139C356.586 115.437 356.25 115.81 355.951 115.922C355.616 116.034 355.504 115.96 355.616 115.773C355.727 115.549 355.69 115.4 355.466 115.4C355.28 115.4 355.056 115.549 354.981 115.698C354.832 116.072 349.236 120.623 348.937 120.623C348.825 120.623 348.713 120.437 348.713 120.213ZM350.43 116.072C352.444 114.579 354.683 112.266 354.683 111.669C354.683 111.184 353.899 111.109 349.086 111.147C346.027 111.147 343.378 111.259 343.266 111.408C342.931 111.744 348.228 116.892 348.863 116.892C349.161 116.892 349.833 116.519 350.43 116.072ZM339.647 110.96C341.028 110.587 340.729 110.065 338.379 108.684C337.11 107.976 335.096 106.483 333.864 105.439C332.633 104.357 331.514 103.461 331.402 103.461C330.656 103.461 331.551 109.356 332.521 110.848C333.044 111.669 333.23 111.669 335.954 111.445C337.521 111.296 339.2 111.072 339.647 110.96ZM365.241 111.109C365.913 110.475 366.845 107.714 367.181 105.439C367.517 103.312 366.995 103.349 364.197 105.737C363.003 106.782 361.1 108.162 360.018 108.759C358.936 109.356 358.041 110.028 358.041 110.177C358.041 110.363 358.6 110.662 359.272 110.886C362.033 111.744 364.532 111.856 365.241 111.109ZM346.214 106.931C345.654 105.924 344.497 104.058 343.677 102.715C342.856 101.372 341.662 99.4691 341.102 98.4245C337.931 92.9028 331.402 81.934 330.992 81.4863C330.581 81.0759 330.357 81.5982 329.723 84.3591C328.79 88.2765 328.753 89.6942 329.499 93.1266C330.954 100.066 336.886 106.222 343.901 108.087C347.296 109.02 347.408 108.946 346.214 106.931ZM355.205 107.752C359.794 106.558 364.644 102.491 366.808 98.0887C369.196 93.2385 369.681 89.6942 368.711 84.6948C368.226 82.0832 367.741 81.1878 367.069 81.5982C366.845 81.7101 365.875 83.3144 364.868 85.1052C359.458 94.6936 354.011 104.095 351.773 107.491C351.288 108.274 351.288 108.311 352.146 108.311C352.631 108.311 354.011 108.05 355.205 107.752ZM353.452 99.7303C355.28 96.559 358.488 91.0373 360.578 87.4557C362.667 83.874 364.383 80.8147 364.383 80.6655C364.383 80.4789 357.481 80.3297 349.049 80.3297H333.753L335.693 83.986C336.775 85.9633 339.2 90.2165 341.065 93.3878C342.968 96.559 345.468 100.887 346.661 103.013C348.751 106.707 348.863 106.856 349.46 106.185C349.833 105.812 351.623 102.902 353.452 99.7303ZM328.716 98.723C328.007 97.3052 327.149 94.9548 326.776 93.4997C326.44 92.0074 325.955 90.7762 325.694 90.7762C325.172 90.7762 323.082 94.9174 322.746 96.5963C322.56 97.641 322.709 97.8648 324.537 99.2452C326.85 100.961 327.224 101.148 328.828 101.185L329.984 101.223L328.716 98.723ZM373.001 99.6557C374.307 98.7976 375.501 97.9394 375.65 97.7156C376.135 97.0067 373.225 90.6269 372.516 90.8508C372.293 90.9254 371.77 92.3431 371.397 93.9474C371.024 95.589 370.203 97.7902 369.606 98.8722C368.972 99.9541 368.487 100.924 368.487 101.036C368.487 101.148 368.972 101.223 369.569 101.223C370.203 101.223 371.621 100.588 373.001 99.6557ZM325.955 87.2691C325.955 86.4483 328.417 79.2104 328.977 78.427C330.357 76.4496 329.574 76.0765 326.701 77.3823C324.351 78.4269 322.597 79.882 322.597 80.7028C322.597 81.5982 324.313 86.2245 324.873 86.9333C325.283 87.381 325.955 87.6049 325.955 87.2691ZM375.016 83.1279L376.023 80.5162L374.643 79.3224C372.964 77.9046 370.464 76.5988 369.308 76.5988C368.301 76.5988 368.3 76.5988 369.457 78.8746C369.979 79.9193 370.726 82.0459 371.136 83.6129C371.509 85.2172 371.957 86.7095 372.031 87.008C372.404 87.9407 373.897 85.9633 375.016 83.1279ZM365.129 77.4196C365.129 76.748 361.734 73.5395 359.421 72.0098C353.825 68.2789 345.318 68.167 339.274 71.6367C337.409 72.756 333.044 76.8227 333.044 77.4942C333.044 77.7927 338.08 77.9046 349.086 77.9046C361.958 77.9046 365.129 77.83 365.129 77.4196ZM366.995 72.6068C366.995 70.9652 366.174 67.0851 365.764 66.6374C365.652 66.5628 364.42 66.4508 363.003 66.4135C360.615 66.3762 357.667 67.0105 357.667 67.5701C357.667 67.7193 358.6 68.3163 359.757 68.9132C360.876 69.5102 362.779 70.9652 363.935 72.1591C365.092 73.3156 366.286 74.323 366.547 74.323C366.845 74.3603 366.995 73.7634 366.995 72.6068ZM334.275 71.8979C335.506 70.7413 337.409 69.3982 338.491 68.8386C341.849 67.197 341.028 66.5254 335.767 66.5254C332.223 66.5254 332.26 66.4882 331.365 70.3683C330.805 72.756 330.917 73.9872 331.626 73.9872C331.85 73.9872 333.006 73.0545 334.275 71.8979ZM354.645 66.3016C355.541 65.4808 350.019 60.7053 348.713 61.1157C347.669 61.4514 342.968 66.0031 343.229 66.4135C343.416 66.7493 354.31 66.6374 354.645 66.3016Z" fill="#545454"/>
<path d="M347.743 200.053C347.146 199.419 345.243 198.001 343.49 196.845C339.386 194.159 338.416 193.226 337.67 191.248L337.035 189.607L335.431 189.868C333.379 190.166 330.544 189.308 327.633 187.555C326.402 186.771 324.388 185.876 323.156 185.54C320.918 184.906 320.918 184.906 321.03 183.563C321.104 182.593 320.993 182.145 320.507 181.884C319.948 181.585 319.911 181.399 320.321 180.914C320.955 180.168 320.507 178.078 319.724 178.078C318.717 178.078 319.463 177.668 320.582 177.593C321.627 177.519 321.664 177.407 321.888 175.094C322.112 172.519 322.783 170.878 324.052 169.721C324.835 169.012 324.835 168.975 324.126 168.229C322.559 166.475 322.112 164.946 321.813 160.17C321.664 157.596 321.366 154.947 321.142 154.275C320.731 152.932 320.881 152.82 323.53 151.962C324.35 151.701 326.514 150.731 328.342 149.761C331.252 148.231 331.924 148.045 334.274 147.97L336.886 147.896L337.371 146.552C338.043 144.612 339.423 143.269 343.303 140.882C345.169 139.762 347.183 138.307 347.855 137.673L349.049 136.554L350.466 137.86C351.287 138.568 353.302 139.949 354.944 140.956C358.562 143.083 360.652 145.097 360.988 146.739L361.211 147.933L364.01 148.008C366.584 148.045 367.069 148.194 369.979 149.798C371.732 150.731 374.12 151.813 375.314 152.149C377.59 152.82 377.627 152.858 377.068 154.425C376.844 154.984 376.545 157.559 376.359 160.133C376.06 164.946 375.389 167.147 373.896 168.378C373.374 168.826 373.411 168.975 374.232 169.833C375.463 171.102 375.986 172.557 376.284 175.28C376.508 177.481 376.545 177.519 377.739 177.631C378.709 177.743 378.933 177.929 378.933 178.638C378.933 179.123 379.12 179.645 379.306 179.757C379.53 179.869 379.679 180.392 379.679 180.877C379.679 181.585 379.418 181.772 378.15 181.996C376.956 182.22 376.695 182.369 376.918 182.854C377.59 184.533 377.329 184.906 374.904 185.615C373.598 186.025 371.77 186.809 370.837 187.443C368.263 189.047 365.353 190.017 363.114 190.017C361.249 190.017 361.099 190.092 360.838 191.025C360.391 192.815 359.159 194.084 355.914 196.099C354.123 197.143 351.884 198.748 350.914 199.643C349.944 200.501 349.086 201.21 349.011 201.21C348.937 201.21 348.377 200.688 347.743 200.053ZM350.019 197.106C350.168 196.882 351.735 195.725 353.488 194.532C357.033 192.144 358.189 191.062 358.6 189.681C358.824 188.898 358.786 188.823 358.189 189.047C357.779 189.196 356.137 189.681 354.533 190.092C350.69 191.062 345.131 190.913 341.848 189.719C340.617 189.271 339.572 188.973 339.46 189.047C339.237 189.271 340.132 190.838 341.027 191.808C341.438 192.293 343.191 193.524 344.833 194.532C346.512 195.539 348.079 196.621 348.34 196.919C348.862 197.554 349.683 197.666 350.019 197.106ZM352.295 187.741C359.234 186.473 365.8 180.541 367.591 173.825C368.114 171.848 368.225 166.252 367.778 164.647C367.554 163.901 367.442 164.2 367.218 166.028C367.032 167.595 366.472 169.348 365.427 171.4C361.883 178.452 355.205 182.294 347.444 181.697C339.684 181.138 332.819 174.609 331.066 166.14L330.544 163.715L330.245 165.132C330.096 165.953 330.059 168.229 330.133 170.206C330.282 173.042 330.506 174.273 331.252 175.914C335.244 184.645 343.602 189.308 352.295 187.741ZM333.864 184.458C332.484 183.115 330.805 181.063 330.17 179.944C328.939 177.78 327.447 173.378 327.447 171.922C327.447 170.654 326.701 170.356 325.955 171.288C325.208 172.184 324.611 175.168 324.276 179.608L324.015 182.779L325.432 183.414C326.253 183.749 328.118 184.682 329.648 185.503C332.334 186.958 333.864 187.368 335.543 187.07C336.326 186.958 336.14 186.659 333.864 184.458ZM369.867 184.943L374.046 182.854L373.859 180.168C373.449 173.937 373.374 173.527 372.404 172.034C371.844 171.214 371.359 170.617 371.285 170.691C371.21 170.766 370.874 172.072 370.576 173.601C369.718 177.668 368.188 180.466 364.942 183.861C363.413 185.466 362.144 186.958 362.144 187.144C362.144 188.003 365.95 186.921 369.867 184.943ZM355.54 177.593C361.696 174.795 365.614 167.595 364.495 161.103C363.674 156.29 361.659 153.79 356.585 151.291C354.085 150.059 353.488 149.91 350.168 149.798C340.169 149.388 333.789 154.947 333.789 164.125C333.789 167.595 334.722 170.132 337.073 173.042C339.162 175.653 341.065 177.034 343.863 178.078C346.885 179.198 352.518 178.974 355.54 177.593ZM327.298 166.252C328.566 160.394 330.469 156.738 333.901 153.343C336.662 150.656 336.662 150.171 333.864 150.582C332.521 150.806 324.089 154.835 324.089 155.283C324.089 155.395 324.276 157.409 324.462 159.723C324.91 165.282 326.626 169.199 327.298 166.252ZM372.591 165.692C373.262 164.573 373.449 163.267 373.859 157.297C373.971 155.32 373.896 154.574 373.598 154.574C373.337 154.574 371.322 153.641 369.121 152.522C366.248 151.067 364.644 150.47 363.599 150.47C362.816 150.47 362.144 150.582 362.144 150.694C362.144 150.806 363.338 152.186 364.756 153.753C367.703 156.887 369.979 161.103 370.725 164.759C370.949 165.916 371.322 166.886 371.509 166.886C371.695 166.886 372.18 166.363 372.591 165.692ZM341.774 148.231C346.213 146.664 352.033 146.59 356.137 148.008C358.227 148.754 358.413 148.754 358.413 147.858C358.413 146.702 356.697 145.135 352.63 142.635C349.683 140.807 348.788 140.434 348.34 140.732C348.041 140.993 347.295 141.441 346.736 141.814C341.55 144.948 340.132 146.217 339.572 148.157C339.274 149.164 339.125 149.127 341.774 148.231Z" fill="#D05D02"/>
<path d="M345.393 37.0506C342.408 34.2152 341.811 33.7675 341.177 34.1032C340.431 34.5136 334.387 35.8941 333.342 35.9314C332.932 35.9314 332.67 35.6702 332.67 35.2598C332.67 34.8867 332.26 33.3198 331.738 31.8274C331.215 30.3351 330.805 28.6935 330.805 28.2085C330.805 27.1638 330.395 26.94 325.395 25.6342C323.343 25.1118 321.627 24.6268 321.552 24.5522C321.403 24.403 322.896 17.1277 323.306 16.0458C323.604 15.2996 323.231 14.7773 320.321 11.7926L317.001 8.36017L320.321 4.92778C323.119 2.09231 323.642 1.38345 323.306 0.823812C322.933 0.114946 321.366 -7.38413 321.552 -7.53337C322 -7.90646 328.678 -9.95844 329.425 -9.95844C330.208 -9.95844 330.432 -10.1823 330.618 -11.1896C330.73 -11.8239 331.365 -13.9505 331.999 -15.8532C332.894 -18.6141 333.23 -19.2856 333.715 -19.1364C334.088 -19.0245 335.357 -18.7633 336.588 -18.5395C337.819 -18.3529 339.647 -17.9052 340.655 -17.5694C342.408 -16.9725 342.483 -16.9725 342.856 -17.644C343.08 -18.0544 344.012 -19.0245 344.945 -19.8453C345.878 -20.6661 347.221 -21.8972 347.892 -22.5315L349.161 -23.7627L351.25 -21.7853C352.407 -20.7407 353.936 -19.2483 354.683 -18.4649L355.988 -17.1217L359.16 -17.9425C360.913 -18.4275 362.928 -18.9126 363.711 -19.0618L365.054 -19.3229L366.211 -15.8532C366.808 -13.9505 367.368 -11.8612 367.442 -11.2642C367.554 -10.2196 367.666 -10.145 369.42 -9.92114C370.464 -9.7719 372.031 -9.32418 372.964 -8.87648C373.897 -8.46608 375.016 -8.093 375.501 -8.093C375.949 -8.093 376.434 -7.86913 376.508 -7.60797C376.769 -7.01103 375.426 -0.258133 374.867 0.786514C374.456 1.53269 374.568 1.71922 375.538 2.54001C376.135 3.06233 377.628 4.62932 378.859 6.00974L381.097 8.54671L377.963 11.8672L374.829 15.1877L375.762 19.8513C376.844 25.2984 376.807 24.7387 376.247 24.7387C375.986 24.7387 373.971 25.2611 371.77 25.9326L367.778 27.1265L367.368 29.0293C366.696 32.3497 365.241 36.1179 364.719 36.0433C361.659 35.4837 358.712 34.8494 357.481 34.4763L355.988 34.0286L352.631 37.2372C350.803 38.9907 349.198 40.4084 349.086 40.4084C348.974 40.4084 347.333 38.9161 345.393 37.0506ZM350.243 35.8941C351.511 34.9987 354.011 31.8647 353.75 31.4543C353.675 31.3051 352.519 31.3424 351.25 31.5289C349.944 31.7155 347.93 31.7528 346.773 31.6409C345.281 31.4916 344.609 31.5663 344.609 31.8274C344.609 32.2378 348.639 36.6776 348.974 36.6776C349.086 36.6776 349.646 36.3418 350.243 35.8941ZM338.976 32.0886C340.319 31.6409 341.438 31.1185 341.513 30.8947C341.625 30.5589 333.417 26.1192 333.155 26.3803C333.006 26.5296 334.499 31.417 334.946 32.3125C335.394 33.1332 336.066 33.0959 338.976 32.0886ZM364.01 30.8201C365.763 26.0819 365.39 25.5222 362.032 27.6861C360.764 28.5443 359.01 29.5143 358.152 29.8127C357.257 30.1485 356.548 30.5589 356.548 30.7455C356.548 30.8947 357.443 31.3424 358.525 31.7528C359.57 32.1632 360.727 32.5736 361.025 32.6855C362.704 33.2825 363.189 32.984 364.01 30.8201ZM345.915 26.5296C345.318 25.4476 344.311 23.5449 343.639 22.3137L342.445 20.0751L338.938 19.9632C337.036 19.9259 334.797 20.0005 333.976 20.1871L332.521 20.4855L335.133 23.1718C338.08 26.1192 340.356 27.3877 344.273 28.2085C345.579 28.507 346.736 28.6562 346.81 28.5816C346.885 28.5443 346.475 27.5742 345.915 26.5296ZM355.466 27.8727C356.585 27.5369 358.227 26.8653 359.16 26.3057C361.137 25.1864 365.502 21.1198 365.502 20.3736C365.502 19.814 362.331 19.702 357.928 20.1497L355.429 20.3736L353.899 23.3956C353.041 25.0745 352.108 26.7534 351.847 27.1638C351.549 27.5742 351.325 28.0219 351.325 28.1711C351.325 28.6562 353.302 28.5069 355.466 27.8727ZM350.765 23.5075C351.586 22.0525 352.295 20.5975 352.369 20.3736C352.481 20.0005 351.623 19.8886 349.086 19.8886C346.549 19.8886 345.691 20.0005 345.803 20.3736C345.99 21.0452 348.862 26.2311 349.086 26.2311C349.198 26.2311 349.944 24.9999 350.765 23.5075ZM330.469 22.351C329.835 21.4556 328.716 19.5155 328.007 18.0605C327.261 16.6054 326.514 15.4862 326.365 15.5981C326.029 15.7846 324.649 22.4256 324.873 22.6495C325.283 23.0599 331.365 24.5895 331.477 24.3284C331.551 24.1418 331.103 23.2837 330.469 22.351ZM370.315 23.4329C373.785 22.3137 373.747 22.3883 372.591 18.6201C371.77 15.9712 370.949 15.4115 370.539 17.277C370.427 17.8739 369.643 19.3663 368.86 20.5602C366.92 23.6195 366.51 24.3657 366.957 24.3657C367.181 24.3657 368.673 23.9553 370.315 23.4329ZM340.505 17.1277C340.505 16.3816 337.744 11.6061 337.334 11.6061C336.998 11.5688 334.2 16.3816 334.163 16.9785C334.163 17.3143 335.655 17.5382 338.379 17.6128C339.983 17.6501 340.505 17.5381 340.505 17.1277ZM354.123 17.3516C354.347 17.2024 355.578 15.1504 356.884 12.7999L359.234 8.50942L357.817 5.8978C357.033 4.48007 355.839 2.39079 355.168 1.34615L353.899 -0.631239H349.086H344.273L342.893 1.53269C342.147 2.68926 340.916 4.74125 340.207 6.00974L338.901 8.39747L340.505 11.4195C343.602 17.277 343.565 17.2397 345.99 17.3889C350.206 17.6501 353.75 17.6501 354.123 17.3516ZM363.002 17.277H364.42L363.189 15.1131C360.727 10.7852 361.062 10.8599 359.234 14.0311C358.376 15.5608 357.667 17.0158 357.667 17.277C357.667 17.6501 358.19 17.6874 359.645 17.5008C360.689 17.3889 362.219 17.277 363.002 17.277ZM332.223 14.5908C332.857 13.285 333.864 11.4195 334.461 10.3749L335.581 8.50942L333.305 4.33085C332.036 2.0177 330.842 0.189564 330.618 0.264181C330.096 0.413416 328.94 4.44276 328.716 7.01707C328.566 8.4348 328.716 10.151 329.089 11.7553C329.686 14.2923 330.618 16.9039 330.954 16.9039C331.029 16.9039 331.626 15.8593 332.223 14.5908ZM368.263 15.3369C369.308 12.6507 369.793 8.24824 369.308 5.59931C368.86 3.17424 367.778 0.114937 367.405 0.114937C367.256 0.114937 366.136 1.98037 364.868 4.2562L362.555 8.43482L363.861 10.7106C364.569 11.9791 365.614 13.8819 366.136 14.9639C366.696 16.0085 367.256 16.9039 367.405 16.9039C367.517 16.9039 367.927 16.195 368.263 15.3369ZM326.104 8.32287C326.067 5.86049 325.992 3.7712 325.88 3.65927C325.806 3.58466 324.612 4.62932 323.231 6.00974L320.694 8.54671L322.933 10.6733C324.164 11.8299 325.358 12.7999 325.656 12.7999C326.029 12.7999 326.141 11.7926 326.104 8.32287ZM375.352 10.5241L377.628 8.28557L375.314 6.04704C374.083 4.85316 372.815 3.84582 372.516 3.84582C372.143 3.84582 372.031 4.81585 372.031 8.32287C372.031 11.9418 372.143 12.7999 372.554 12.7999C372.852 12.7999 374.121 11.7926 375.352 10.5241ZM339.386 2.27887L340.953 -0.631239H337.334C335.357 -0.631239 333.79 -0.519295 333.864 -0.33275C334.722 1.57 337.297 5.67397 337.521 5.45011C337.67 5.30088 338.528 3.84583 339.386 2.27887ZM362.667 2.72655C363.599 1.08496 364.383 -0.370096 364.383 -0.556641C364.383 -0.817801 357.667 -0.705856 357.369 -0.444695C357.294 -0.370077 360.727 5.67395 360.876 5.71126C360.913 5.71126 361.697 4.36814 362.667 2.72655ZM327.186 0.0403366C327.447 -0.444677 328.566 -2.31015 329.648 -4.10098C330.73 -5.92911 331.551 -7.49605 331.439 -7.57067C331.327 -7.68259 329.872 -7.42143 328.193 -7.01103C326.477 -6.56333 325.059 -6.22756 324.985 -6.22756C324.649 -6.22756 324.873 -4.17558 325.433 -1.7132C325.731 -0.295469 326.179 0.861113 326.365 0.861113C326.552 0.861113 326.925 0.488043 327.186 0.0403366ZM372.554 -1.86245C373.785 -5.74256 373.71 -5.85446 370.166 -6.63795C368.561 -7.01103 367.106 -7.23491 366.957 -7.12298C366.808 -7.04836 367.442 -5.85449 368.375 -4.47406C369.308 -3.09364 370.315 -1.34012 370.613 -0.556641C370.912 0.226845 371.285 0.861113 371.434 0.861113C371.584 0.861113 372.106 -0.370096 372.554 -1.86245ZM344.833 -7.53337C346.139 -9.7719 347.034 -11.712 346.81 -11.7493C345.878 -12.0851 340.804 -10.5554 338.752 -9.32421C336.103 -7.75724 332.447 -4.25018 332.857 -3.65324C333.006 -3.35477 334.61 -3.24284 337.782 -3.31746L342.445 -3.4294L344.833 -7.53337ZM350.877 -6.3768C350.019 -8.13032 349.161 -9.43612 349.012 -9.36151C348.751 -9.21227 346.549 -5.18289 345.803 -3.504C345.729 -3.35476 347.184 -3.24286 349.049 -3.24286H352.444L350.877 -6.3768ZM365.539 -3.95173C364.793 -5.29485 360.652 -8.80187 358.6 -9.7719C356.697 -10.6673 351.325 -12.2343 351.026 -11.9731C350.84 -11.8612 351.362 -10.8911 353.825 -6.67525L355.839 -3.24286H360.876C365.651 -3.24286 365.875 -3.28017 365.539 -3.95173ZM336.14 -10.7792C337.558 -11.6373 339.237 -12.6074 339.871 -12.9058C341.625 -13.8013 341.513 -14.3236 339.349 -14.9578C336.289 -15.8905 334.984 -15.7786 334.499 -14.5474C333.902 -12.9432 333.081 -9.21226 333.342 -9.21226C333.454 -9.21226 334.722 -9.92111 336.14 -10.7792ZM364.756 -9.80919C364.756 -10.8912 363.562 -15.5548 363.226 -15.7413C362.704 -16.0771 356.921 -14.4728 356.921 -14.0251C356.921 -13.8386 357.705 -13.2789 358.712 -12.7939C359.682 -12.2716 361.324 -11.3015 362.331 -10.5554C364.458 -9.06302 364.756 -8.9884 364.756 -9.80919ZM353.936 -14.9951C353.936 -15.6667 349.87 -19.6587 349.161 -19.6587C348.9 -19.6587 347.631 -18.6141 346.363 -17.3083L344.05 -14.9951L347.407 -14.7713C353.787 -14.3982 353.936 -14.3982 353.936 -14.9951Z" fill="#545454"/>
<path fill-rule="evenodd" clip-rule="evenodd" d="M403.048 -202.26C403.068 -202.348 403.089 -202.44 403.111 -202.536L403.108 -202.52C403.087 -202.43 403.067 -202.343 403.048 -202.26ZM612.485 219.273C612.535 219.414 612.585 219.557 612.635 219.7L612.622 219.661C612.576 219.531 612.53 219.402 612.485 219.273Z" fill="#696969"/>
<path d="M383.901 -233.057L385.073 -237.296L312.953 -237.174L315.359 -233.623L383.901 -233.057Z" fill="#696969"/>
<path d="M300.09 -254.94L303.237 -251.671C303.237 -251.671 310.438 -271.101 347.755 -271.101C385.073 -271.101 392.273 -254.42 392.273 -254.42L394.028 -258.515C394.028 -258.515 385.073 -275.205 347.755 -275.205C310.438 -275.205 300.09 -254.94 300.09 -254.94Z" fill="#696969"/>
<path d="M172.765 268.142C171.683 266.501 172.392 265.493 176.458 262.732C180.786 259.822 188.435 255.942 194.329 253.666C205.671 249.227 219.289 246.727 232.496 246.727C238.428 246.69 239.137 246.652 238.503 246.167C237.384 245.309 227.497 241.243 224.997 240.608C222.05 239.862 217.386 239.862 210.969 240.608C207.872 240.981 205 241.131 203.768 240.944C199.478 240.422 196.456 237.027 196.456 232.699C196.456 229.975 197.538 227.811 200.075 225.461C202.575 223.222 205.074 222.327 211.379 221.581C215.521 221.059 215.782 220.984 221.266 218.223C231.302 213.112 234.026 213.074 249.248 217.589C259.471 220.648 263.91 221.506 269.245 221.469C274.506 221.432 276.931 220.909 286.37 217.813C295.026 215.014 295.847 214.791 299.503 214.268C304.577 213.559 310.248 214.977 313.568 217.813C315.434 219.38 317.784 222.625 320.172 226.953C321.329 229.117 322.634 231.318 323.007 231.878C323.418 232.4 323.716 233.035 323.716 233.296C323.716 233.52 323.903 233.594 324.089 233.482C324.761 233.072 324.462 234.266 323.716 235.087C322.709 236.169 322.448 236.131 323.194 234.975C323.977 233.781 323.53 232.997 322.56 233.93C322.187 234.303 321.627 234.825 321.291 235.087C320.806 235.497 320.806 235.721 321.142 236.131C321.366 236.43 321.515 236.766 321.403 236.84C321.067 237.213 318.195 232.923 316.068 228.856C312.636 222.252 309.8 219.715 304.838 218.745C301.592 218.111 298.719 218.633 288.907 221.767C276.073 225.834 271.857 226.58 265.141 225.834C259.769 225.274 253.874 223.894 246.487 221.544C234.697 217.738 232.16 217.85 223.02 222.252C216.64 225.312 215.558 225.685 211.417 226.021C207.499 226.356 204.925 227.14 203.395 228.52C200.635 230.945 200.075 233.855 202.052 235.609C203.47 236.877 203.992 236.915 213.021 236.019C223.281 235.049 225.296 235.422 238.018 240.795C241.861 242.436 247.532 244.75 250.666 246.018L256.299 248.257L267.156 249.712C283.721 251.913 285.176 252.062 295.175 252.025C302.152 252.025 306.107 251.838 310.845 251.241C314.314 250.831 317.299 250.607 317.486 250.794C317.672 250.98 317.859 251.353 317.896 251.614C318.232 253.368 318.642 254.189 319.165 254.189C320.545 254.189 319.09 254.636 316.031 255.121C309.427 256.166 303.57 256.539 294.615 256.539C285.587 256.539 278.461 255.942 267.753 254.375C248.278 251.503 234.101 250.607 223.356 251.614C207.425 253.032 191.345 258.479 179.107 266.538C176.943 267.956 174.78 269.112 174.295 269.112C173.735 269.112 173.138 268.739 172.765 268.142Z" fill="#696969"/>
<path d="M342.93 -132.256C341.251 -132.816 341.065 -133.002 341.065 -134.009C341.065 -135.315 341.102 -135.315 346.176 -134.606C349.347 -134.159 350.131 -134.196 355.429 -135.166C356.623 -135.353 356.809 -135.278 357.182 -134.457C358.078 -132.517 355.391 -131.584 348.9 -131.622C346.027 -131.622 344.236 -131.808 342.93 -132.256Z" fill="#696969"/>
<path d="M338.155 -140.352C334.013 -140.874 333.043 -141.247 333.043 -142.441C333.043 -143.859 334.237 -144.195 337.409 -143.635C342.259 -142.852 351.325 -142.59 356.361 -143.187C358.824 -143.449 361.771 -143.672 362.89 -143.71C364.831 -143.71 364.942 -143.672 365.054 -142.74C365.204 -141.397 364.532 -140.986 361.547 -140.538C357.369 -139.867 342.781 -139.755 338.155 -140.352Z" fill="#696969"/>
<path d="M344.311 -155.126C341.475 -156.245 340.356 -156.88 340.057 -157.551C339.759 -158.186 339.759 -158.559 340.132 -159.006C340.804 -159.827 341.624 -159.715 344.46 -158.372C348.303 -156.581 350.093 -156.581 353.712 -158.372C355.317 -159.193 356.958 -159.752 357.331 -159.678C358.115 -159.454 358.525 -158.447 358.189 -157.551C357.816 -156.581 350.765 -153.597 348.937 -153.597C348.489 -153.597 346.437 -154.305 344.311 -155.126Z" fill="#696969"/>
<path d="M352.257 -167.923C351.772 -168.296 351.698 -169.714 351.772 -179.153L351.884 -189.973H354.123L354.235 -178.929C354.309 -168.184 354.309 -167.848 353.6 -167.662C353.19 -167.55 352.593 -167.662 352.257 -167.923Z" fill="#696969"/>
<path d="M323.156 -179.601C317.597 -180.832 314.314 -183.22 315.956 -184.861C316.627 -185.533 317.56 -185.421 319.538 -184.414C323.679 -182.324 328.827 -182.212 333.566 -184.19C335.841 -185.16 336.513 -185.272 337.147 -184.936C337.707 -184.637 337.893 -184.227 337.819 -183.518C337.744 -182.697 337.259 -182.287 335.319 -181.354C334.013 -180.683 332.036 -179.974 330.879 -179.75C328.865 -179.34 324.649 -179.265 323.156 -179.601Z" fill="#696969"/>
<path d="M366.994 -179.862C364.159 -180.608 361.734 -181.69 360.876 -182.623C360.204 -183.369 360.204 -183.481 360.801 -184.376C361.137 -184.899 361.585 -185.309 361.734 -185.309C361.92 -185.309 363.413 -184.787 365.017 -184.115C367.629 -183.033 368.337 -182.921 371.658 -182.884C375.202 -182.884 375.538 -182.959 378.262 -184.264C380.836 -185.496 381.172 -185.57 381.881 -185.085C384.716 -183.07 379.12 -179.75 372.404 -179.489C370.315 -179.414 368.263 -179.563 366.994 -179.862Z" fill="#696969"/>
<path d="M358.376 -193.666C357.406 -194.151 357.107 -194.972 357.443 -196.315C357.704 -197.36 360.017 -198.367 365.278 -199.673C372.068 -201.389 379.605 -200.792 385.723 -198.069C388.447 -196.8 389.081 -195.905 388.111 -194.487C387.253 -193.181 386.432 -193.144 383.41 -194.375C378.97 -196.129 374.531 -196.763 370.165 -196.203C368.151 -195.942 365.353 -195.308 363.86 -194.823C359.271 -193.181 359.309 -193.181 358.376 -193.666Z" fill="#696969"/>
<path d="M310.099 -194.412C308.867 -196.241 310.024 -197.36 314.949 -199.039C318.829 -200.344 321.552 -200.718 326.216 -200.531C332.82 -200.27 340.468 -197.994 341.065 -196.129C341.401 -195.084 340.356 -193.517 339.311 -193.517C338.901 -193.517 336.924 -194.039 334.946 -194.674C327.82 -196.949 322.187 -196.987 316.18 -194.785C312.113 -193.293 310.882 -193.218 310.099 -194.412Z" fill="#696969"/>
<path fill-rule="evenodd" clip-rule="evenodd" d="M228.206 332.873C200.075 338.73 165.378 342.909 153.775 341.864C137.657 340.447 122.734 333.507 115.011 323.919C111.877 320.001 107.81 311.905 106.206 306.421C104.378 300.19 103.52 294.594 103.445 288.811C103.408 285.118 103.296 283.663 102.96 283.663C102.736 283.663 102.438 283.812 102.326 283.998C101.841 284.745 98.5576 285.192 96.7668 284.782C94.6401 284.222 92.2151 282.208 91.6554 280.491C91.4316 279.782 91.0958 279.186 90.9466 279.186C90.7973 279.186 90.2004 279.708 89.5662 280.342C85.6487 284.483 79.4928 283.737 77.0304 278.85C75.8365 276.537 75.6873 274.298 76.5454 272.246C77.1423 270.791 79.9032 267.135 86.2457 259.412C88.5215 256.651 91.2824 253.219 92.4016 251.764L92.4821 251.662C93.5929 250.255 95.0697 248.384 95.834 247.51C96.6175 246.615 97.2518 245.757 97.2518 245.645C97.2518 245.496 95.3863 245.197 93.0732 244.936C88.0738 244.414 85.3876 243.294 84.0071 241.205C82.776 239.265 79.6793 229.453 79.4555 226.767C79.3062 225.051 79.4555 224.006 80.0897 222.29C80.5374 221.058 81.6567 217.962 82.5148 215.425C83.4102 212.888 84.2683 210.687 84.4922 210.463C84.6787 210.276 84.7533 208.933 84.6787 207.441C84.4175 203.71 85.1264 202.74 89.79 200.277C91.7674 199.27 94.6775 197.554 96.319 196.509C97.9606 195.465 99.8261 194.457 100.423 194.233C101.057 194.01 104.415 193.711 107.885 193.599C111.392 193.487 115.757 193.226 117.585 192.965C122.361 192.368 128.74 192.741 132.882 193.86C134.747 194.383 136.277 194.793 136.277 194.756C136.293 194.74 136.484 194.481 136.79 194.067L136.795 194.06C137.213 193.495 137.846 192.639 138.553 191.696C147.544 179.534 153.215 168.64 164.669 141.703C171.981 124.503 177.69 114.766 187.987 101.894C190.673 98.5737 193.173 95.1039 193.583 94.2458C194.329 92.5297 194.59 90.8507 195.784 78.6508C197.874 57.0863 200.821 39.8869 205.522 21.8294C207.275 14.9646 207.425 14.1812 207.462 9.81604C207.462 7.2417 207.275 2.57812 207.014 -0.555847C204.776 -28.4255 210.335 -48.423 224.102 -62.2272C232.347 -70.5098 239.585 -74.278 254.658 -78.2327C258.575 -79.2401 263.089 -80.5832 264.656 -81.2175C266.261 -81.8517 272.454 -84.9856 278.386 -88.1942C307.524 -103.901 307.785 -104.088 309.949 -107.222C312.188 -110.468 312.3 -111.027 312.449 -122.742L312.598 -133.45L310.733 -135.987C306.703 -141.434 304.913 -145.687 303.607 -153.223C303.159 -155.798 302.711 -158.26 302.599 -158.708C302.487 -159.267 302.152 -159.566 301.629 -159.566C298.458 -159.566 294.988 -162.289 293.198 -166.207C290.735 -171.542 288.161 -183.444 288.124 -189.786C288.086 -193.703 288.161 -194.263 289.094 -196.203C290.138 -198.442 292.414 -200.494 294.354 -200.867C295.511 -201.091 295.548 -201.426 294.802 -204.299C294.093 -207.097 292.153 -218.924 291.668 -223.439C290.287 -236.124 292.451 -246.01 298.234 -253.099C298.601 -253.563 299.289 -254.237 300.09 -254.94L303.237 -251.671C299.406 -248.097 297.219 -243.497 296.294 -237.206C295.399 -231.273 295.623 -225.901 297.264 -216.089C297.973 -211.873 299.652 -203.702 300.062 -202.471C300.174 -202.173 300.622 -203.031 301.107 -204.336C301.555 -205.68 302.413 -207.769 303.01 -209C304.987 -213.291 305.136 -213.962 305.099 -219.111C305.062 -225.08 305.435 -227.281 307.076 -230.639C308.505 -233.531 310.492 -235.709 312.953 -237.174L315.359 -233.623C313.411 -232.334 311.703 -230.403 310.733 -228.251C309.837 -226.311 309.763 -225.603 309.539 -219.26L309.278 -212.358L307.897 -209.187C304.428 -201.464 303.942 -199.673 303.196 -192.323C302.823 -188.48 302.861 -187.995 304.689 -175.348C308.233 -151.022 308.942 -147.627 311.852 -142.479C315.546 -135.912 328.081 -121.921 333.416 -118.377C334.536 -117.631 336.812 -116.586 338.453 -116.027C341.065 -115.206 342.259 -115.057 347.818 -114.87C358.973 -114.572 362.89 -115.989 370.128 -123.003C378.224 -130.838 384.604 -138.748 387.365 -144.493C389.454 -148.784 390.163 -152.03 392.7 -169.639L392.706 -169.681L392.708 -169.695C393.75 -176.765 394.79 -183.821 395.051 -185.421C395.909 -190.98 394.491 -199.859 391.767 -205.978C388.969 -212.283 388.895 -212.619 388.633 -219.633C388.447 -224.334 388.186 -226.647 387.701 -227.916C387.16 -229.476 385.389 -231.786 383.901 -233.057L385.073 -237.296C387.504 -235.849 389.801 -233.641 390.909 -231.497C392.588 -228.214 392.812 -227.02 393.073 -220.193L393.372 -213.477L395.237 -209.373C396.282 -207.097 397.326 -204.523 397.588 -203.628C397.811 -202.77 398.073 -202.098 398.185 -202.173C398.446 -202.471 400.162 -211.015 401.132 -217.021C404.193 -235.933 401.363 -248.022 392.273 -254.42L394.028 -258.515C395.538 -257.509 397.142 -256.34 397.961 -255.599C403.482 -250.599 406.877 -241.048 406.915 -230.639C406.915 -225.08 405.087 -211.164 403.37 -203.665L403.111 -202.536L403.108 -202.52L403.1 -202.484C402.93 -201.747 402.811 -201.228 402.811 -201.203C402.811 -201.128 403.557 -200.867 404.452 -200.643C406.803 -200.046 408.855 -197.621 409.713 -194.45C410.832 -190.383 410.011 -182.735 407.474 -173.37C405.273 -165.2 403.706 -162.476 400.087 -160.685C398.856 -160.051 397.364 -159.566 396.767 -159.566C396.207 -159.566 395.722 -159.454 395.722 -159.267C395.722 -159.118 395.312 -156.619 394.789 -153.708C393.409 -145.687 391.693 -141.62 387.253 -135.539L385.649 -133.375V-124.906C385.686 -111.997 386.246 -109.236 389.678 -105.729C391.506 -103.864 396.282 -100.842 403.37 -97.0737C408.668 -94.2755 415.197 -90.7685 423.331 -86.3287C431.725 -81.7771 434.747 -80.5459 442.731 -78.4566C450.827 -76.3673 454.894 -74.9869 459.707 -72.6364C471.011 -67.152 478.66 -59.5037 484.331 -48.0499C488.696 -39.245 490.748 -30.9625 491.606 -18.5387C492.053 -12.4947 491.942 -8.91302 490.972 3.10043C490.337 11.1591 490.412 12.2038 492.016 18.3971C497.053 37.9469 500 54.5866 502.201 75.8526C503.694 89.9553 503.88 91.5969 504.291 93.0893C504.813 94.9174 506.305 97.0813 510.969 102.715C516.976 110.027 523.02 119.28 527.198 127.675C528.84 130.92 532.272 138.643 539.548 155.32C541.711 160.357 544.696 166.737 546.114 169.498C550.815 178.526 557.344 188.936 561.187 193.525L562.306 194.868L565.477 193.898C569.469 192.666 575.737 192.331 581.035 193.002C583.05 193.263 587.639 193.562 591.258 193.711L597.787 193.935L601.144 196.024C602.973 197.181 605.883 198.86 607.636 199.718C612.859 202.292 614.501 204.568 613.606 207.926C613.27 209.157 613.307 209.567 613.792 210.276C614.091 210.724 614.799 212.515 615.322 214.268C615.844 216.022 616.889 218.857 617.598 220.611C618.791 223.484 618.903 224.006 618.754 226.58C618.568 229.378 616.217 237.437 614.725 240.384C613.232 243.332 611.143 244.339 605.36 244.936C603.122 245.197 601.294 245.533 601.294 245.72C601.294 245.943 602.077 247.025 603.047 248.182C606.703 252.622 619.612 268.851 620.769 270.53C621.925 272.172 622 272.507 622 275.343C622 278.178 621.925 278.477 620.843 279.782C619.015 282.058 617.933 282.655 615.508 282.842C612.673 283.028 611.031 282.469 609.166 280.641C608.308 279.857 607.524 279.186 607.338 279.186C607.188 279.186 606.703 280.006 606.293 281.014C605.174 283.588 602.749 284.968 599.615 284.931C598.309 284.931 596.891 284.633 596.182 284.26C595.511 283.924 594.951 283.775 594.914 283.924C594.914 284.11 594.914 285.565 594.951 287.207C595.026 293.475 593.795 300.862 591.37 308.286C588.683 316.569 585.699 321.68 580.401 326.941C570.215 337.126 551.598 343.207 534.548 341.864C485.301 338.022 446.537 329.291 397.774 310.973C381.769 304.929 375.016 302.205 357.928 294.855L349.012 291.012L345.243 292.729C307.039 309.853 257.941 326.68 228.206 332.873ZM301.07 174.945L296.593 174.124C290.698 173.079 284.057 171.363 277.826 169.386L272.79 167.781L272.864 159.984C272.976 150.955 273.312 146.926 274.879 135.211C275.998 127.078 276.036 126.406 275.849 116.706C275.551 102.043 274.916 97.2679 270.365 77.0838C265.216 54.4373 263.276 43.3193 262.679 33.6937L262.418 29.4031L265.477 32.3133C270.663 37.2753 276.707 40.7077 284.467 43.1701C290.138 44.9609 293.944 45.4086 303.942 45.4086C316.777 45.4459 319.127 44.9236 318.568 42.0508C318.269 40.4092 317.784 40.2973 311.889 40.7823C305.435 41.342 296.257 41.0808 291.481 40.2227C285.102 39.0661 279.02 36.7157 274.021 33.5071C270.439 31.1566 265.067 25.7096 262.306 21.5683C258.277 15.5243 254.471 7.27902 252.643 0.675385C252.27 -0.555847 251.785 -1.93628 251.486 -2.42126C250.442 -4.06287 247.606 -3.0928 247.606 -1.04083C247.606 1.75732 253.128 15.2631 256.71 21.1206L258.015 23.2472L257.307 30.0747C256.486 37.9096 256.15 40.4092 254.881 47.871C252.158 63.5407 249.472 73.6141 242.458 94.1339C240.331 100.402 237.757 108.535 236.749 112.229C234.1 121.892 233.317 124.093 230.78 128.682C223.878 141.106 210.484 159.126 192.949 179.571C190.039 182.966 185.412 188.413 182.652 191.696C175.638 200.091 165.079 212.664 163.512 214.455L162.244 215.947L161.983 214.828C161.05 210.649 159.781 208.672 158.065 208.672C157.058 208.672 155.827 209.642 155.827 210.425C155.827 210.649 156.274 211.731 156.834 212.813C158.886 216.731 158.326 222.439 155.267 228.632C153.103 233.035 146.686 241.802 133.255 258.703C131.203 261.277 127.92 265.493 125.98 267.993C120.532 275.082 119.077 276.574 117.548 276.574C115.906 276.574 114.787 275.455 114.787 273.85C114.787 272.918 116.205 270.493 121.167 262.956C124.674 257.621 127.696 252.846 127.882 252.361C128.405 251.092 127.397 249.712 125.98 249.712C125.084 249.712 124.599 250.122 122.846 252.622C121.726 254.189 118.555 258.293 115.832 261.725C114.427 263.475 112.666 265.692 110.978 267.817C109.391 269.814 107.868 271.731 106.766 273.104C101.468 279.782 100.535 280.678 98.968 280.678C96.2444 280.678 94.6775 277.88 95.9833 275.417C96.6548 274.037 96.9906 273.589 108.37 258.591C113.593 251.689 115.906 248.368 115.906 247.697C115.906 246.578 114.451 245.458 113.518 245.831C113.145 245.981 109.191 250.458 104.714 255.83C88.2604 275.529 86.3576 277.693 85.2756 278.29C83.1864 279.335 80.724 278.029 80.2763 275.641C80.0151 274.112 80.6493 273.142 87.9246 264.225C104.564 243.817 106.206 241.69 106.206 240.683C106.206 238.444 103.37 238.183 101.729 240.31L100.983 241.243L95.5356 240.795C89.4542 240.272 88.5961 240.049 87.738 238.78C86.9172 237.474 83.8206 227.476 83.8206 226.021C83.8206 225.312 84.4922 222.924 85.2756 220.723C86.0964 218.521 86.9918 215.947 87.253 215.014C87.8126 213.074 88.6707 212.739 90.4989 213.671C92.1778 214.567 92.7001 216.581 92.0285 219.977C91.0958 224.901 91.1331 225.983 92.1405 228.222C92.6628 229.341 93.5582 230.535 94.1178 230.908C95.6475 231.953 98.8187 231.803 101.356 230.647C103.781 229.49 108.407 225.312 111.541 221.357C112.772 219.827 113.891 218.559 114.003 218.596C114.115 218.596 115.347 219.156 116.69 219.79C122.771 222.775 129.748 222.775 135.866 219.865C138.441 218.633 139.15 217.813 138.963 216.208C138.776 214.455 137.247 214.306 134.486 215.686C131.352 217.253 128.74 217.775 124.86 217.514C119.413 217.178 116.727 215.723 112.996 210.985C111.541 209.12 108.706 207.59 106.28 207.329C104.863 207.142 103.855 207.366 101.169 208.411C99.3411 209.12 96.9906 209.828 96.0206 209.978C92.2897 210.5 88.4842 208.635 88.7454 206.471C88.8573 205.65 89.5288 205.128 93.1478 203.225C95.4983 201.994 98.3337 200.389 99.453 199.718C101.465 198.414 101.505 198.412 107.261 198.115L107.288 198.114C110.496 197.964 115.533 197.591 118.518 197.293C126.166 196.547 130.121 197.143 137.657 200.128C141.164 201.546 141.425 201.583 142.283 201.024C142.768 200.688 143.291 200.165 143.403 199.867C143.739 199.009 142.806 197.591 141.612 197.069L140.53 196.659L141.612 195.278C143.664 192.666 148.775 184.757 151.536 179.944C156.386 171.475 159.483 165.021 167.243 147C176.869 124.652 180.301 118.646 191.233 104.953C193.956 101.558 196.568 98.014 197.09 97.044C198.433 94.4324 198.956 91.5223 199.814 82.3817C202.015 59.2502 204.515 44.1774 209.439 24.4411C211.864 14.7408 211.939 14.3677 211.939 9.62949C211.939 6.98056 211.752 2.50348 211.491 -0.220032C210.932 -6.45065 210.894 -18.091 211.454 -22.9411C213.058 -37.8273 218.58 -50.6243 226.974 -58.9441C231.489 -63.4212 235.07 -65.9955 240.331 -68.5325C245.666 -71.1068 247.233 -71.6664 257.045 -74.3153C266.298 -76.7777 267.977 -77.4866 278.573 -83.2694C281.702 -84.9855 286.385 -87.5211 290.704 -89.8598L290.717 -89.8665C292.778 -90.9828 294.757 -92.0541 296.443 -92.9697C310.434 -100.469 312.635 -102.148 314.911 -106.811C316.441 -109.908 316.963 -113.639 317.001 -121.25V-127.853L322.298 -122.518C330.245 -114.497 332.82 -112.781 339.349 -111.139C342.967 -110.244 355.727 -110.244 359.309 -111.176C365.092 -112.631 370.725 -116.549 376.918 -123.302C379.12 -125.69 381.022 -127.63 381.134 -127.555C381.246 -127.518 381.284 -125.167 381.209 -122.332C381.134 -118.116 381.47 -113.34 382.03 -109.871C382.104 -109.535 383.746 -107.595 385.686 -105.58C387.589 -103.565 389.865 -101.028 390.685 -99.9838C391.767 -98.566 392.924 -97.6333 394.789 -96.6633C398.185 -94.8725 404.975 -91.2535 418.107 -84.1648C423.965 -80.9936 430.084 -77.897 431.762 -77.2254C433.441 -76.5539 437.956 -75.1734 441.836 -74.1661C454.297 -70.9202 459.408 -68.6071 467.019 -62.8988C475.563 -56.4817 482.316 -45.2891 485.189 -32.9025C487.39 -23.5753 487.875 -10.6665 486.606 3.39893C485.823 12.0173 485.823 12.0546 489.218 25.8588C493.732 44.252 495.859 56.7505 497.948 77.345C499.366 91.2611 499.478 92.3431 500.224 94.6562C500.634 96.0367 501.604 97.8275 502.686 99.2452C509.327 107.789 515.745 116.445 517.535 119.317C520.222 123.571 526.116 135.397 529.437 143.195C536.936 160.73 541.861 171.288 546.189 179.011C548.427 183.003 553.725 191.174 556.038 194.233C557.605 196.285 557.792 197.106 556.747 197.106C556.038 197.106 555.031 198.337 555.031 199.233C555.031 200.165 556.15 201.21 557.195 201.21C557.605 201.21 559.284 200.688 560.888 200.091C568.089 197.293 574.319 196.509 580.96 197.442C582.415 197.666 586.333 197.927 589.728 198.076C596.443 198.337 596.891 198.449 600.995 200.949C602.525 201.882 604.95 203.225 606.405 203.971C609.427 205.463 610.061 206.21 609.39 207.553C608.755 208.858 606.853 209.828 604.428 210.052C602.599 210.239 601.704 210.052 597.525 208.635C592.899 207.068 592.675 207.03 590.959 207.478C588.497 208.15 585.81 209.94 584.542 211.806C581.856 215.611 578.722 217.253 573.499 217.551C569.507 217.738 567.044 217.29 563.91 215.723C561.411 214.455 560.59 214.38 559.769 215.313C558.836 216.358 558.985 217.44 560.254 218.484C562.231 220.163 568.536 222.066 572.081 222.103C574.916 222.103 579.431 221.021 581.968 219.715L584.467 218.447L585.96 220.387C586.78 221.432 589.168 224.006 591.332 226.095C595.772 230.498 597.675 231.542 601.032 231.542C603.644 231.542 604.838 230.796 606.069 228.446C607.039 226.468 607.114 224.565 606.293 220.611C605.398 216.096 606.442 213.522 609.166 213.41C610.248 213.335 610.434 213.485 610.845 214.641C611.07 215.252 611.821 217.387 612.622 219.661L612.635 219.7L613.009 220.76L614.725 225.535L614.165 228.035C613.419 231.281 611.442 237.325 610.658 238.631C609.949 239.899 608.793 240.198 603.346 240.758C601.107 240.981 598.869 241.242 598.421 241.317C597.824 241.466 597.19 241.093 596.108 240.011C595.287 239.19 594.466 238.519 594.28 238.519C593.571 238.519 591.966 240.086 591.966 240.758C591.966 241.168 593.198 242.959 594.69 244.75C596.182 246.54 599.503 250.644 602.04 253.816C603.925 256.172 606.923 259.91 609.579 263.22L612.15 266.426C615.434 270.53 617.709 273.701 617.859 274.373C618.306 276.649 616.702 278.812 614.613 278.812C612.971 278.812 612.71 278.551 595.884 258.442C592.787 254.786 589.206 250.458 587.937 248.891C586.669 247.324 585.288 245.906 584.878 245.794C583.87 245.496 582.677 246.205 582.415 247.287C582.229 248.07 583.684 250.159 591.631 260.718C596.854 267.583 601.48 273.85 601.928 274.634C602.413 275.417 602.786 276.649 602.786 277.432C602.786 280.156 600.062 281.536 597.637 280.081C596.63 279.484 581.221 260.457 575.998 253.405C573.237 249.637 572.64 249.227 571.036 250.085C569.544 250.905 570.141 252.286 575.289 260.009C581.52 269.373 583.758 273.142 583.758 274.223C583.758 276.238 581.035 277.246 579.095 275.977C577.229 274.746 550.069 239.937 545.405 232.811C541.973 227.513 539.809 220.872 540.294 217.066C540.406 216.059 540.928 214.194 541.45 212.925C542.532 210.202 542.532 210.09 541.674 209.306C540.704 208.411 539.622 208.523 538.54 209.605C537.645 210.5 536.376 213.671 536.376 215.052C536.376 215.462 536.227 215.761 536.078 215.761C535.779 215.761 526.042 204.307 517.386 193.786C515.26 191.211 512.499 187.928 511.23 186.51C509.999 185.093 507.611 182.295 505.97 180.317L505.443 179.683L505.438 179.677C503.608 177.472 500.269 173.447 497.538 170.244C484.629 154.723 474.033 140.098 468.138 129.615C465.005 124.056 464.072 121.668 462.169 114.467C461.274 111.184 458.177 101.297 455.23 92.455C452.282 83.6501 449.186 73.9125 448.365 70.8159C445.417 60.1829 442.582 44.1774 441.239 31.0074L440.455 23.2845L442.657 19.2552C445.604 13.8454 447.246 10.1145 448.85 4.96588C450.641 -0.667725 450.827 -1.82434 450.006 -2.60782C449.298 -3.354 447.954 -3.42859 447.134 -2.75702C446.798 -2.53317 446.089 -0.779694 445.529 1.04846C443.627 7.42825 439.747 15.7481 436.202 21.2325C427.024 35.3726 412.474 41.8643 392.066 40.9689C380.5 40.4465 380.314 40.4839 379.829 41.4539C379.269 42.5732 379.567 43.6924 380.575 44.3267C381.657 45.0356 388.447 45.6325 395.125 45.6325C411.728 45.5952 424.338 41.1181 433.18 32.0521L436.09 29.0301L435.829 32.2013C434.934 43.9163 433.106 54.3254 428.367 74.9199C423.405 96.3724 422.51 103.237 422.435 118.758C422.398 128.533 422.473 129.95 423.405 136.106C424.823 145.545 425.159 149.276 425.457 159.051L425.681 167.632L424.375 168.155C423.666 168.453 420.57 169.46 417.51 170.393C407.81 173.341 397.065 175.467 384.156 176.959C378.075 177.668 375.687 178.079 377.553 178.079C378 178.079 378.112 178.377 378 179.31C377.963 179.981 378.112 180.84 378.411 181.25C378.896 181.884 379.157 181.922 383.671 181.474C397.14 180.168 412.511 177.034 422.473 173.527C424.786 172.744 426.838 172.147 427.024 172.259C427.472 172.557 430.904 180.951 433.255 187.555C434.374 190.652 435.531 193.413 435.904 193.748C436.277 194.121 439 195.017 441.985 195.763C470.526 203.076 494.292 211.172 515.521 220.76C522.833 224.08 530.146 227.849 539.436 233.072C540.406 233.594 541.6 235.049 543.316 237.586C546.3 241.989 553.762 251.689 572.044 274.746C576.11 279.894 577.379 280.79 580.774 280.976C584.057 281.126 585.773 280.156 587.191 277.395L588.198 275.417L588.832 276.387C590.176 278.439 590.81 286.535 590.138 292.617C587.862 312.204 580.438 324.441 566.783 331.045C555.74 336.417 545.442 338.283 532.757 337.201C504.925 334.85 480.786 331.045 458.961 325.598C436.314 319.927 411.951 311.831 382.291 300.153C377.292 298.176 360.577 291.087 357.518 289.669C355.914 288.886 354.72 288.177 354.906 288.028C355.093 287.916 357.406 286.983 360.018 285.938C365.353 283.812 405.609 267.806 416.018 264.187C425.346 260.942 431.8 258.442 436.799 256.129C441.09 254.151 442.881 253.592 447.88 252.734C454.484 251.54 461.572 251.092 469.407 251.316C479.816 251.652 487.838 253.069 498.135 256.464C504.664 258.628 514.849 263.479 519.849 266.836C523.468 269.261 524.177 269.485 525.258 268.478C526.229 267.62 526.079 266.239 524.923 265.045C523.468 263.628 517.573 260.046 512.499 257.509C497.837 250.159 483.323 246.801 465.863 246.69L458.961 246.652L463.363 244.488C468.773 241.839 472.84 240.459 476.272 240.161C477.876 240.011 481.756 240.16 486.196 240.571C492.128 241.131 493.845 241.168 495.449 240.795C499.254 239.937 501.754 236.84 501.754 232.96C501.754 230.274 501.045 228.595 499.03 226.394C496.344 223.483 493.77 222.476 486.719 221.543C482.652 221.021 482.241 220.909 477.354 218.372C467.169 213.149 464.035 213.074 449.149 217.589C439.038 220.685 435.046 221.469 429.3 221.469C423.891 221.469 421.54 220.984 411.914 217.85C404.154 215.35 401.766 214.716 398.11 214.268C392.85 213.597 387.776 215.052 384.119 218.335L379.791 223.67L379.045 225.2C378.635 226.058 377.441 228.259 376.359 230.087C375.314 231.878 374.568 233.557 374.717 233.818C374.867 234.042 374.68 234.005 374.344 233.706C373.785 233.258 373.71 233.296 373.71 234.005C373.71 234.49 373.971 235.087 374.27 235.422C374.605 235.721 374.979 236.467 375.09 237.064C375.202 237.661 375.538 238.146 375.799 238.146C376.471 238.146 376.434 237.474 375.762 236.28C375.464 235.758 375.24 235.012 375.24 234.602C375.24 233.93 375.277 233.967 375.762 234.788C376.06 235.31 376.284 236.057 376.322 236.467C376.359 238.556 382.664 228.744 382.664 226.617L386.768 221.842C388.708 220.014 391.581 218.932 394.864 218.783C398.632 218.633 401.543 219.23 410.086 221.991C420.421 225.312 423.517 225.946 428.927 225.946C435.792 225.983 440.941 224.939 452.059 221.394C463.401 217.775 466.087 217.887 475.153 222.215L476.141 222.694C479.507 224.326 480.868 224.986 482.301 225.36C483.273 225.614 484.278 225.736 485.965 225.942L486.004 225.947L486.017 225.949L486.639 226.025L486.905 226.058C489.367 226.356 492.054 226.916 492.874 227.289C496.195 228.744 498.359 232.587 497.053 234.602C496.717 235.124 495.859 235.833 495.15 236.168C493.919 236.765 493.285 236.728 486.084 236.131C473.026 235.049 471.944 235.31 446.649 246.839C430.867 254.002 424.525 256.539 407.102 262.583C406.507 262.79 405.882 263.007 405.241 263.23L405.185 263.249L405.174 263.253C401.204 264.633 396.595 266.235 394.23 267.097L383 271.09L370.912 276.089L370.613 274.186C370.464 273.142 369.979 270.716 369.569 268.814C368.823 265.456 368.785 265.381 367.815 265.493C367.181 265.568 366.584 266.053 366.211 266.724C365.577 267.806 365.689 269.448 366.771 276.835L366.92 277.992L362.219 280.156C359.607 281.312 355.914 283.028 354.011 283.924C353.417 284.187 352.85 284.439 352.349 284.663C351.212 285.169 350.406 285.528 350.355 285.528C350.281 285.528 346.004 287.412 340.773 289.717L340.542 289.819C328.716 295.042 308.196 303.287 295.138 308.063C249.472 324.702 216.64 332.462 174.668 336.417C169.332 336.94 163.288 337.425 161.236 337.536C149.148 338.096 134.038 333.843 125.383 327.388C116.279 320.636 111.168 311.159 108.594 296.348C107.4 289.557 107.997 278.589 109.676 276.201C110.198 275.455 110.235 275.455 110.683 276.574C111.914 279.559 114.265 281.051 117.697 281.051C119.488 281.051 120.197 280.864 121.428 280.044C122.808 279.074 128.591 272.06 138.702 259.039C139.486 258.038 140.456 256.793 141.483 255.475L141.535 255.408L141.553 255.385L141.559 255.377L141.574 255.358C143.356 253.07 145.296 250.58 146.723 248.779C151.2 243.033 153.775 239.564 156.162 236.019C157.953 233.296 158.625 232.885 170.564 226.729C193.658 214.865 221.005 204.941 254.508 196.173C257.381 195.427 260.329 194.681 261.075 194.495C262.642 194.084 263.089 193.189 265.626 185.914C267.156 181.511 270.365 173.639 271.073 172.557C271.335 172.147 272.379 172.371 276.558 173.714C283.012 175.84 287.489 176.959 295.361 178.452C298.757 179.086 301.741 179.795 301.965 180.019L312.15 180.989C313.27 181.063 314.277 181.213 314.351 181.287C314.426 181.362 315.433 181.436 316.59 181.436C317.933 181.436 318.493 181.324 318.157 181.101C317.597 180.728 317.896 178.079 318.493 178.079C318.717 178.079 318.866 177.929 318.866 177.78C318.866 177.444 301.368 174.684 301.07 174.945ZM601.891 217.738C601.891 219.641 602.04 222.215 602.189 223.484C602.45 225.2 602.376 225.983 602.04 226.394C601.517 227.028 599.727 227.102 598.309 226.543C596.929 225.983 589.579 218.41 588.646 216.544C587.862 215.052 587.862 214.902 588.422 214.044C589.168 212.888 591.146 211.657 592.228 211.657C592.675 211.657 594.168 212.067 595.585 212.589C596.966 213.074 598.98 213.671 599.988 213.895L601.891 214.306V217.738ZM109.452 216.954C107.736 219.454 101.468 225.759 99.8261 226.617C97.5129 227.849 95.7594 227.326 95.7594 225.349C95.7967 224.677 96.0206 222.7 96.2817 220.872C96.5802 219.006 96.6548 216.992 96.5056 216.134L96.4886 216.038C96.2064 214.455 96.2051 214.448 97.9979 214.082C98.7068 213.932 100.572 213.298 102.102 212.701C105.758 211.246 107.251 211.396 109.34 213.485L110.832 214.977L109.452 216.954ZM536.637 224.565C536.936 225.498 537.16 226.319 537.085 226.356C537.011 226.431 535.593 225.759 533.951 224.864C519.55 216.88 495.672 206.993 475.526 200.613C465.676 197.517 453.812 194.084 446.499 192.219C442.507 191.211 439.187 190.353 439.15 190.279C439.095 190.224 438.611 188.905 437.944 187.083L437.94 187.073C437.704 186.428 437.444 185.72 437.172 184.981C434.896 178.489 432.583 172.632 431.277 170.132C430.307 168.266 430.27 167.931 430.009 159.424C429.71 149.649 429.375 145.881 427.882 136.106C426.95 129.913 426.875 128.533 426.912 118.571C426.95 103.312 427.733 97.3798 432.732 76.2257C435.232 65.4061 437.247 56.1162 437.918 51.863C438.142 50.2587 438.478 48.9156 438.627 48.8037C438.739 48.7291 439.336 50.9676 439.896 53.8404C442.395 66.6 445.679 78.4269 450.603 92.7162C455.342 106.408 455.64 107.341 457.505 114.355C460.453 125.622 462.206 129.316 470.489 141.815C478.063 153.306 488.658 166.961 503.918 184.794C506.268 187.555 511.156 193.375 514.737 197.666C524.288 209.194 526.751 212.104 531.638 217.775C534.66 221.245 536.227 223.409 536.637 224.565ZM258.65 52.3854C259.023 50.2961 259.433 48.6172 259.545 48.6172C259.694 48.6172 260.067 50.2961 260.44 52.3854C260.776 54.4373 262.231 61.3768 263.686 67.7566C270.924 99.9914 271.223 101.969 271.26 118.012C271.297 128.98 271.223 130.212 270.29 136.479C268.798 146.292 268.462 150.022 268.163 159.797L267.865 168.565L265.44 173.975C264.097 176.959 262.194 181.735 261.224 184.608C260.217 187.481 259.321 189.943 259.172 190.092C259.06 190.279 255.777 191.211 251.897 192.219C243.54 194.383 242.644 194.644 232.869 197.554C216.603 202.441 203.06 207.217 189.031 213.037C183.286 215.425 165.303 223.931 162.878 225.424C160.751 226.729 160.677 226.58 161.983 223.857C162.505 222.775 165.116 219.417 167.989 216.134C170.787 212.962 175.787 207.068 179.107 203.076C182.39 199.084 187.464 193.04 190.337 189.644C216.528 158.865 227.646 144.053 235.07 129.913C237.869 124.615 238.727 122.19 240.891 114.131C242.644 107.49 243.428 104.953 247.905 92.0819C252.792 77.9046 256.672 63.5407 258.65 52.3854ZM296.257 -196.39C296.555 -196.278 297.115 -194.338 297.749 -191.017C298.757 -185.831 301.704 -166.17 301.704 -164.789C301.704 -163.819 301.368 -163.856 299.801 -164.901C298.16 -166.02 297.115 -167.886 295.735 -172.251C293.011 -180.72 291.743 -191.39 293.048 -194.524C293.571 -195.718 295.287 -196.763 296.257 -196.39ZM401.505 -195.644C401.953 -197.584 404.602 -196.24 405.422 -193.666C406.542 -190.308 404.714 -177.959 401.953 -170.423C401.057 -167.886 400.423 -166.841 399.043 -165.461C397.214 -163.633 396.468 -163.259 396.468 -164.192C396.468 -166.505 400.274 -190.196 401.505 -195.644Z" fill="#696969"/>
<path d="M347.183 277.842C346.437 277.096 343.975 275.567 341.289 274.223C335.095 271.127 333.006 269 332.372 265.269C332.111 263.814 332.036 263.74 330.208 263.329C326.701 262.546 324.5 260.606 322.41 256.427C321.851 255.308 321.291 254.301 321.142 254.189C321.03 254.077 320.508 253.069 319.985 251.95C319.463 250.831 318.418 249.189 317.635 248.331L316.18 246.764L317.933 244.6C318.903 243.406 320.209 241.354 320.806 240.011C321.44 238.668 322.336 236.803 322.783 235.87C323.268 234.9 323.604 233.743 323.492 233.258C323.38 232.55 323.38 232.512 323.641 233.035C323.903 233.669 323.977 233.669 324.835 232.885C326.663 231.281 329.051 229.975 330.618 229.714C332.148 229.49 332.222 229.416 332.446 227.961C332.782 225.946 334.237 223.483 335.767 222.327C336.401 221.842 338.975 220.424 341.438 219.193C344.311 217.775 346.437 216.395 347.37 215.462L348.788 213.97L351.101 215.873C352.444 217.029 354.608 218.335 356.361 219.118C362.517 221.73 364.681 223.745 365.577 227.625C366.099 229.677 366.024 229.639 368.897 230.124C369.718 230.236 370.986 230.983 372.404 232.176C373.635 233.221 374.755 234.042 374.904 234.042C375.053 234.042 375.202 234.266 375.202 234.527C375.202 235.087 377.03 239.638 378.112 241.765C378.56 242.586 379.567 244.003 380.425 244.899C381.246 245.794 381.918 246.578 381.918 246.652C381.918 246.727 381.172 247.66 380.239 248.742C379.343 249.824 377.739 252.472 376.732 254.674C374.046 260.457 371.285 263.105 367.405 263.74C365.95 263.964 365.875 264.075 365.875 265.232C365.875 268.217 362.666 271.463 356.996 274.186C354.645 275.305 352.071 276.872 351.175 277.693C350.28 278.514 349.31 279.186 349.011 279.186C348.713 279.186 347.892 278.589 347.183 277.842ZM350.653 274.634C351.175 274.261 353.488 273.03 355.727 271.91C360.577 269.523 362.405 268.068 362.741 266.314C363.114 264.299 362.816 264.187 360.838 265.605C358.488 267.284 357.033 267.881 353.824 268.59C347.631 269.896 341.363 268.664 336.774 265.195C335.207 264.038 334.983 264.449 335.841 266.724C336.588 268.664 337.856 269.634 343.303 272.395C345.355 273.44 347.444 274.634 347.967 275.044C348.9 275.79 348.974 275.79 350.653 274.634ZM355.652 265.456C356.697 265.083 357.966 264.449 358.451 264.113C359.271 263.553 358.712 263.516 349.347 263.516C343.863 263.516 339.386 263.628 339.386 263.74C339.386 264.001 342.594 265.419 344.609 265.978C347.034 266.687 353.227 266.426 355.652 265.456ZM331.551 260.68C331.551 260.568 331.141 259.934 330.655 259.3C328.081 255.868 326.701 251.39 326.701 246.466C326.701 241.354 327.783 237.959 330.618 234.266C331.364 233.258 331.924 232.438 331.849 232.363C331.775 232.326 330.954 232.475 329.947 232.736C327.148 233.445 326.029 234.788 323.716 240.198C323.007 241.839 321.888 243.891 321.216 244.749C320.545 245.645 319.985 246.54 319.985 246.727C319.985 246.913 320.657 247.958 321.478 249.04C322.298 250.122 323.418 252.099 323.977 253.442C325.582 257.36 326.663 258.74 328.902 259.897C330.917 260.904 331.551 261.091 331.551 260.68ZM362.778 260.419C363.189 259.971 363.413 236.952 363.002 234.602L362.704 232.736H335.468L335.356 246.615L335.282 260.494L337.595 260.643C342.035 260.904 362.443 260.718 362.778 260.419ZM369.606 259.934C371.285 259.113 372.516 257.434 374.605 253.069C375.725 250.719 377.068 248.294 377.59 247.697L378.523 246.652L377.441 245.272C376.844 244.526 375.501 242.138 374.456 239.937C373.411 237.735 372.106 235.385 371.546 234.751C370.464 233.445 368.673 232.55 367.181 232.55H366.211L367.554 234.228C370.501 237.81 372.329 245.16 371.509 250.122C371.024 252.995 369.196 257.434 367.517 259.598L366.509 260.942L367.591 260.68C368.188 260.531 369.084 260.195 369.606 259.934ZM367.591 253.89C368.934 250.607 369.27 244.973 368.3 241.653C367.703 239.489 366.323 236.653 365.912 236.653C365.8 236.653 365.688 241.242 365.688 246.876C365.688 258.069 365.763 258.33 367.591 253.89ZM332.558 246.69C332.633 235.534 332.596 235.31 330.581 239.75C329.76 241.616 329.499 242.735 329.387 245.496C329.312 247.398 329.424 249.749 329.648 250.719C330.096 252.584 331.924 256.8 332.26 256.8C332.372 256.8 332.521 252.249 332.558 246.69ZM359.159 229.901C359.159 229.49 355.652 228.11 352.929 227.476C348.9 226.543 342.855 227.401 340.095 229.341C339.311 229.863 339.348 229.901 340.729 230.013C343.676 230.236 359.159 230.162 359.159 229.901ZM337.595 227.699C341.102 225.424 344.348 224.528 349.086 224.528C353.862 224.528 357.219 225.461 360.614 227.737C361.883 228.595 363.04 229.192 363.151 229.042C363.674 228.52 362.032 225.424 360.652 224.342C359.346 223.297 354.048 220.611 353.302 220.611C353.153 220.611 352.108 219.939 351.026 219.118L349.049 217.589L347.892 218.559C347.258 219.118 345.131 220.275 343.154 221.208C338.602 223.334 337.11 224.379 336.14 226.132C335.282 227.662 334.759 229.192 335.058 229.192C335.17 229.192 336.289 228.52 337.595 227.699Z" fill="#A81312"/>
<path d="M340.436 255.443C337.003 250.331 336.929 245.444 340.249 243.205C342.04 241.974 345.174 241.937 347.525 243.056L349.166 243.877L351.255 242.87C353.382 241.825 353.755 241.377 353.755 239.81V238.915H346.293C338.869 238.915 338.794 238.915 338.496 238.094C337.862 236.341 338.048 236.303 346.331 236.303C353.009 236.303 354.128 236.229 354.128 235.744C354.128 234.997 355.844 234.997 356.106 235.706C356.255 236.079 357.001 236.303 358.307 236.378C360.247 236.49 360.284 236.527 360.21 237.572C360.098 238.99 359.948 239.064 358.232 238.989C356.814 238.878 356.74 238.952 356.703 240.034C356.665 240.631 356.628 241.303 356.591 241.527C356.553 241.713 357.15 242.198 357.859 242.571C359.799 243.616 360.918 245.742 360.732 248.13C360.583 250.257 358.904 253.95 357.188 256.04C356.255 257.159 356.031 257.234 355.322 256.86C354.166 256.263 354.277 255.741 356.068 252.868C357.299 250.891 357.673 249.958 357.784 248.279C357.896 246.414 357.822 246.078 356.964 245.295C356.292 244.66 355.583 244.362 354.725 244.399C353.494 244.437 350.994 245.742 350.062 246.899C349.39 247.72 348.793 247.645 347.935 246.712C346.331 244.922 343.197 244.287 341.592 245.444C339.839 246.638 340.249 250.704 342.413 253.913C343.868 256.077 343.906 256.972 342.562 257.122C341.816 257.196 341.406 256.823 340.436 255.443Z" fill="#A81312"/>
<rect width="699" height="383" rx="54" fill="url(#paint0_linear_1314_981)"/>
<path d="M0 54C0 24.1766 24.1766 0 54 0H645C674.823 0 699 24.1766 699 54V329C699 358.823 674.823 383 645 383H54C24.1766 383 0 358.823 0 329V54Z" fill="url(#paint1_linear_1314_981)"/>
</g>
<defs>
<linearGradient id="paint0_linear_1314_981" x1="349" y1="255.5" x2="349" y2="364.5" gradientUnits="userSpaceOnUse">
<stop stop-color="#FFFFFF" stop-opacity="0"/>
<stop offset="1" stop-color="#FFFFFF"/>
</linearGradient>
<linearGradient id="paint1_linear_1314_981" x1="349" y1="-6.65889e-06" x2="349" y2="65" gradientUnits="userSpaceOnUse">
<stop stop-color="#FFFFFF"/>
<stop offset="1" stop-color="#FFFFFF" stop-opacity="0"/>
</linearGradient>
</defs>
</svg>
