<svg width="699" height="383" viewBox="0 0 699 383" fill="none" xmlns="http://www.w3.org/2000/svg">
<rect width="699" height="383" rx="54" fill="#FFFFFF"/>
<mask id="mask0_1314_927" style="mask-type:alpha" maskUnits="userSpaceOnUse" x="0" y="0" width="699" height="383">
<rect width="699" height="383" rx="54" fill="#0E0E0E"/>
</mask>
<g mask="url(#mask0_1314_927)">
<path d="M349.002 -161.428C353.398 -161.428 356.962 -157.864 356.962 -153.468C356.962 -149.583 354.177 -146.35 350.494 -145.651L350.494 408.046C354.177 408.745 356.962 411.978 356.962 415.864C356.962 420.26 353.398 423.823 349.002 423.823C344.606 423.823 341.043 420.26 341.043 415.864C341.043 411.978 343.827 408.745 347.51 408.046L347.51 -145.651C343.828 -146.35 341.043 -149.583 341.043 -153.468C341.043 -157.864 344.606 -161.428 349.002 -161.428Z" fill="#B7B7B7"/>
<path d="M357.21 333.038C357.21 337.572 353.535 341.246 349.002 341.246C344.469 341.246 340.794 337.572 340.794 333.038C340.794 328.505 344.469 324.831 349.002 324.831C353.535 324.831 357.21 328.505 357.21 333.038Z" fill="#B7B7B7"/>
<path d="M357.21 257.675C357.21 262.208 353.535 265.883 349.002 265.883C344.469 265.883 340.794 262.208 340.794 257.675C340.794 253.142 344.469 249.467 349.002 249.467C353.535 249.467 357.21 253.142 357.21 257.675Z" fill="#B7B7B7"/>
<path d="M357.21 176.341C357.21 180.875 353.535 184.549 349.002 184.549C344.469 184.549 340.794 180.875 340.794 176.341C340.794 171.808 344.469 168.134 349.002 168.134C353.535 168.134 357.21 171.808 357.21 176.341Z" fill="#B7B7B7"/>
<path d="M357.21 97.2468C357.21 101.78 353.535 105.455 349.002 105.455C344.469 105.455 340.794 101.78 340.794 97.2468C340.794 92.7137 344.469 89.0389 349.002 89.0389C353.535 89.0389 357.21 92.7137 357.21 97.2468Z" fill="#B7B7B7"/>
<path d="M357.21 -47.5113C357.21 -42.9782 353.535 -39.3034 349.002 -39.3034C344.469 -39.3034 340.794 -42.9782 340.794 -47.5113C340.794 -52.0444 344.469 -55.7192 349.002 -55.7192C353.535 -55.7192 357.21 -52.0444 357.21 -47.5113Z" fill="#B7B7B7"/>
<path d="M348.713 288.213C348.713 288.026 348.564 287.952 348.34 288.064C348.154 288.175 347.967 288.138 347.967 287.952C347.967 287.728 346.699 286.609 345.169 285.452C343.639 284.258 342.371 283.176 342.371 283.064C342.371 282.952 342.035 282.43 341.662 281.908C341.065 281.161 340.841 281.087 340.356 281.497C339.983 281.796 338.23 282.057 335.767 282.206C333.268 282.318 332.036 282.505 332.484 282.691C333.641 283.139 332.559 283.064 331.253 282.616C330.581 282.393 330.134 282.057 330.246 281.908C330.357 281.758 330.059 280.453 329.611 279.035C329.164 277.654 328.641 275.416 328.417 274.11L328.007 271.722L326.291 271.125C325.395 270.79 324.052 270.081 323.343 269.558C321.739 268.327 319.613 267.245 319.613 267.618C319.613 267.805 319.426 267.656 319.239 267.357C318.754 266.499 321.664 258.254 322.709 257.582C322.97 257.433 322.784 256.687 322.15 255.53C321.627 254.56 320.844 252.62 320.359 251.24C319.911 249.859 319.389 248.628 319.202 248.516C318.456 248.031 318.904 246.837 320.06 246.24C320.732 245.905 322.112 244.972 323.157 244.188C324.164 243.442 325.731 242.584 326.627 242.323C328.082 241.913 328.194 241.763 328.194 240.532C328.194 238.965 329.984 232.287 330.581 231.69C330.992 231.28 338.08 231.578 340.207 232.1C340.99 232.324 341.214 232.212 341.401 231.615C341.55 231.205 342.11 230.571 342.669 230.198C343.229 229.862 344.908 228.556 346.4 227.362L349.086 225.198L352.668 228.034C354.608 229.601 356.399 231.28 356.66 231.802C356.959 232.511 357.257 232.66 357.817 232.473C358.264 232.324 359.869 232.063 361.398 231.914C362.928 231.727 364.868 231.503 365.726 231.354C366.771 231.205 367.368 231.28 367.629 231.615C368.301 232.511 369.979 238.816 369.979 240.42C369.979 241.801 370.054 241.987 370.875 241.987C371.323 241.987 372.293 242.398 373.001 242.883C376.098 245.121 378.598 246.8 379.008 246.949C379.381 247.061 379.381 247.36 378.971 248.367C378.71 249.076 378.001 250.867 377.441 252.396C376.844 253.889 376.023 255.493 375.613 255.941L374.83 256.761L375.762 258.03C376.285 258.739 377.068 260.418 377.516 261.835C377.963 263.216 378.411 264.261 378.523 264.186C378.635 264.111 378.747 264.447 378.784 264.858C378.784 265.305 378.934 265.939 379.083 266.238C379.269 266.686 378.486 267.357 375.986 268.961C374.158 270.118 372.031 271.312 371.248 271.573C369.905 272.058 369.83 272.17 369.756 273.849C369.681 274.856 369.308 276.647 368.86 277.841C368.45 279.072 368.114 280.639 368.114 281.348V282.616L366.36 282.467C365.353 282.355 363.264 282.206 361.66 282.094C360.055 282.02 358.414 281.721 357.966 281.497C357.294 281.124 357.071 281.199 356.511 281.945C355.653 283.027 355.578 283.661 356.362 283.027C356.847 282.616 356.884 282.654 356.697 283.139C356.586 283.437 356.25 283.81 355.951 283.922C355.616 284.034 355.504 283.96 355.616 283.773C355.727 283.549 355.69 283.4 355.466 283.4C355.28 283.4 355.056 283.549 354.981 283.698C354.832 284.072 349.236 288.623 348.937 288.623C348.825 288.623 348.713 288.437 348.713 288.213ZM350.43 284.072C352.444 282.579 354.683 280.266 354.683 279.669C354.683 279.184 353.899 279.109 349.086 279.147C346.027 279.147 343.378 279.259 343.266 279.408C342.931 279.744 348.228 284.892 348.863 284.892C349.161 284.892 349.833 284.519 350.43 284.072ZM339.647 278.96C341.028 278.587 340.729 278.065 338.379 276.684C337.11 275.976 335.096 274.483 333.864 273.439C332.633 272.357 331.514 271.461 331.402 271.461C330.656 271.461 331.551 277.356 332.521 278.848C333.044 279.669 333.23 279.669 335.954 279.445C337.521 279.296 339.2 279.072 339.647 278.96ZM365.241 279.109C365.913 278.475 366.845 275.714 367.181 273.439C367.517 271.312 366.995 271.349 364.197 273.737C363.003 274.782 361.1 276.162 360.018 276.759C358.936 277.356 358.041 278.028 358.041 278.177C358.041 278.363 358.6 278.662 359.272 278.886C362.033 279.744 364.532 279.856 365.241 279.109ZM346.214 274.931C345.654 273.924 344.497 272.058 343.677 270.715C342.856 269.372 341.662 267.469 341.102 266.424C337.931 260.903 331.402 249.934 330.992 249.486C330.581 249.076 330.357 249.598 329.723 252.359C328.79 256.276 328.753 257.694 329.499 261.127C330.954 268.066 336.886 274.222 343.901 276.087C347.296 277.02 347.408 276.946 346.214 274.931ZM355.205 275.752C359.794 274.558 364.644 270.491 366.808 266.089C369.196 261.239 369.681 257.694 368.711 252.695C368.226 250.083 367.741 249.188 367.069 249.598C366.845 249.71 365.875 251.314 364.868 253.105C359.458 262.694 354.011 272.095 351.773 275.491C351.288 276.274 351.288 276.311 352.146 276.311C352.631 276.311 354.011 276.05 355.205 275.752ZM353.452 267.73C355.28 264.559 358.488 259.037 360.578 255.456C362.667 251.874 364.383 248.815 364.383 248.665C364.383 248.479 357.481 248.33 349.049 248.33H333.753L335.693 251.986C336.775 253.963 339.2 258.217 341.065 261.388C342.968 264.559 345.468 268.887 346.661 271.013C348.751 274.707 348.863 274.856 349.46 274.185C349.833 273.812 351.623 270.902 353.452 267.73ZM328.716 266.723C328.007 265.305 327.149 262.955 326.776 261.5C326.44 260.007 325.955 258.776 325.694 258.776C325.172 258.776 323.082 262.917 322.746 264.596C322.56 265.641 322.709 265.865 324.537 267.245C326.85 268.961 327.224 269.148 328.828 269.185L329.984 269.223L328.716 266.723ZM373.001 267.656C374.307 266.798 375.501 265.939 375.65 265.716C376.135 265.007 373.225 258.627 372.516 258.851C372.293 258.925 371.77 260.343 371.397 261.947C371.024 263.589 370.203 265.79 369.606 266.872C368.972 267.954 368.487 268.924 368.487 269.036C368.487 269.148 368.972 269.223 369.569 269.223C370.203 269.223 371.621 268.588 373.001 267.656ZM325.955 255.269C325.955 254.448 328.417 247.21 328.977 246.427C330.357 244.45 329.574 244.076 326.701 245.382C324.351 246.427 322.597 247.882 322.597 248.703C322.597 249.598 324.313 254.224 324.873 254.933C325.283 255.381 325.955 255.605 325.955 255.269ZM375.016 251.128L376.023 248.516L374.643 247.322C372.964 245.905 370.464 244.599 369.308 244.599C368.301 244.599 368.3 244.599 369.457 246.875C369.979 247.919 370.726 250.046 371.136 251.613C371.509 253.217 371.957 254.71 372.031 255.008C372.404 255.941 373.897 253.963 375.016 251.128ZM365.129 245.42C365.129 244.748 361.734 241.539 359.421 240.01C353.825 236.279 345.318 236.167 339.274 239.637C337.409 240.756 333.044 244.823 333.044 245.494C333.044 245.793 338.08 245.905 349.086 245.905C361.958 245.905 365.129 245.83 365.129 245.42ZM366.995 240.607C366.995 238.965 366.174 235.085 365.764 234.637C365.652 234.563 364.42 234.451 363.003 234.413C360.615 234.376 357.667 235.01 357.667 235.57C357.667 235.719 358.6 236.316 359.757 236.913C360.876 237.51 362.779 238.965 363.935 240.159C365.092 241.316 366.286 242.323 366.547 242.323C366.845 242.36 366.995 241.763 366.995 240.607ZM334.275 239.898C335.506 238.741 337.409 237.398 338.491 236.839C341.849 235.197 341.028 234.525 335.767 234.525C332.223 234.525 332.26 234.488 331.365 238.368C330.805 240.756 330.917 241.987 331.626 241.987C331.85 241.987 333.006 241.054 334.275 239.898ZM354.645 234.302C355.541 233.481 350.019 228.705 348.713 229.116C347.669 229.451 342.968 234.003 343.229 234.413C343.416 234.749 354.31 234.637 354.645 234.302Z" fill="#F09C22"/>
<path d="M347.743 368.053C347.146 367.419 345.243 366.001 343.49 364.845C339.386 362.159 338.416 361.226 337.67 359.248L337.035 357.607L335.431 357.868C333.379 358.166 330.544 357.308 327.633 355.555C326.402 354.771 324.388 353.876 323.156 353.54C320.918 352.906 320.918 352.906 321.03 351.563C321.104 350.593 320.993 350.145 320.507 349.884C319.948 349.585 319.911 349.399 320.321 348.914C320.955 348.168 320.507 346.078 319.724 346.078C318.717 346.078 319.463 345.668 320.582 345.593C321.627 345.519 321.664 345.407 321.888 343.094C322.112 340.519 322.783 338.878 324.052 337.721C324.835 337.012 324.835 336.975 324.126 336.229C322.559 334.475 322.112 332.946 321.813 328.17C321.664 325.596 321.366 322.947 321.142 322.275C320.731 320.932 320.881 320.82 323.53 319.962C324.35 319.701 326.514 318.731 328.342 317.761C331.252 316.231 331.924 316.045 334.274 315.97L336.886 315.896L337.371 314.552C338.043 312.612 339.423 311.269 343.303 308.882C345.169 307.762 347.183 306.307 347.855 305.673L349.049 304.554L350.466 305.86C351.287 306.568 353.302 307.949 354.944 308.956C358.562 311.083 360.652 313.097 360.988 314.739L361.211 315.933L364.01 316.008C366.584 316.045 367.069 316.194 369.979 317.798C371.732 318.731 374.12 319.813 375.314 320.149C377.59 320.82 377.627 320.858 377.068 322.425C376.844 322.984 376.545 325.559 376.359 328.133C376.06 332.946 375.389 335.147 373.896 336.378C373.374 336.826 373.411 336.975 374.232 337.833C375.463 339.102 375.986 340.557 376.284 343.28C376.508 345.481 376.545 345.519 377.739 345.631C378.709 345.743 378.933 345.929 378.933 346.638C378.933 347.123 379.12 347.645 379.306 347.757C379.53 347.869 379.679 348.392 379.679 348.877C379.679 349.585 379.418 349.772 378.15 349.996C376.956 350.22 376.695 350.369 376.918 350.854C377.59 352.533 377.329 352.906 374.904 353.615C373.598 354.025 371.77 354.809 370.837 355.443C368.263 357.047 365.353 358.017 363.114 358.017C361.249 358.017 361.099 358.092 360.838 359.025C360.391 360.815 359.159 362.084 355.914 364.099C354.123 365.143 351.884 366.748 350.914 367.643C349.944 368.501 349.086 369.21 349.011 369.21C348.937 369.21 348.377 368.688 347.743 368.053ZM350.019 365.106C350.168 364.882 351.735 363.725 353.488 362.532C357.033 360.144 358.189 359.062 358.6 357.681C358.824 356.898 358.786 356.823 358.189 357.047C357.779 357.196 356.137 357.681 354.533 358.092C350.69 359.062 345.131 358.913 341.848 357.719C340.617 357.271 339.572 356.973 339.46 357.047C339.237 357.271 340.132 358.838 341.027 359.808C341.438 360.293 343.191 361.524 344.833 362.532C346.512 363.539 348.079 364.621 348.34 364.919C348.862 365.554 349.683 365.666 350.019 365.106ZM352.295 355.741C359.234 354.473 365.8 348.541 367.591 341.825C368.114 339.848 368.225 334.252 367.778 332.647C367.554 331.901 367.442 332.2 367.218 334.028C367.032 335.595 366.472 337.348 365.427 339.4C361.883 346.452 355.205 350.294 347.444 349.697C339.684 349.138 332.819 342.609 331.066 334.14L330.544 331.715L330.245 333.132C330.096 333.953 330.059 336.229 330.133 338.206C330.282 341.042 330.506 342.273 331.252 343.914C335.244 352.645 343.602 357.308 352.295 355.741ZM333.864 352.458C332.484 351.115 330.805 349.063 330.17 347.944C328.939 345.78 327.447 341.378 327.447 339.922C327.447 338.654 326.701 338.356 325.955 339.288C325.208 340.184 324.611 343.168 324.276 347.608L324.015 350.779L325.432 351.414C326.253 351.749 328.118 352.682 329.648 353.503C332.334 354.958 333.864 355.368 335.543 355.07C336.326 354.958 336.14 354.659 333.864 352.458ZM369.867 352.943L374.046 350.854L373.859 348.168C373.449 341.937 373.374 341.527 372.404 340.034C371.844 339.214 371.359 338.617 371.285 338.691C371.21 338.766 370.874 340.072 370.576 341.601C369.718 345.668 368.188 348.466 364.942 351.861C363.413 353.466 362.144 354.958 362.144 355.144C362.144 356.003 365.95 354.921 369.867 352.943ZM355.54 345.593C361.696 342.795 365.614 335.595 364.495 329.103C363.674 324.29 361.659 321.79 356.585 319.291C354.085 318.059 353.488 317.91 350.168 317.798C340.169 317.388 333.789 322.947 333.789 332.125C333.789 335.595 334.722 338.132 337.073 341.042C339.162 343.653 341.065 345.034 343.863 346.078C346.885 347.198 352.518 346.974 355.54 345.593ZM327.298 334.252C328.566 328.394 330.469 324.738 333.901 321.343C336.662 318.656 336.662 318.171 333.864 318.582C332.521 318.806 324.089 322.835 324.089 323.283C324.089 323.395 324.276 325.409 324.462 327.723C324.91 333.282 326.626 337.199 327.298 334.252ZM372.591 333.692C373.262 332.573 373.449 331.267 373.859 325.297C373.971 323.32 373.896 322.574 373.598 322.574C373.337 322.574 371.322 321.641 369.121 320.522C366.248 319.067 364.644 318.47 363.599 318.47C362.816 318.47 362.144 318.582 362.144 318.694C362.144 318.806 363.338 320.186 364.756 321.753C367.703 324.887 369.979 329.103 370.725 332.759C370.949 333.916 371.322 334.886 371.509 334.886C371.695 334.886 372.18 334.363 372.591 333.692ZM341.774 316.231C346.213 314.664 352.033 314.59 356.137 316.008C358.227 316.754 358.413 316.754 358.413 315.858C358.413 314.702 356.697 313.135 352.63 310.635C349.683 308.807 348.788 308.434 348.34 308.732C348.041 308.993 347.295 309.441 346.736 309.814C341.55 312.948 340.132 314.217 339.572 316.157C339.274 317.164 339.125 317.127 341.774 316.231Z" fill="#D05D02"/>
<path d="M346.213 125.882L343.564 123.233L340.356 124.651C338.602 125.434 337.073 125.994 337.035 125.919C336.961 125.845 336.327 124.352 335.618 122.599L334.312 119.428H330.805H327.26L327.223 115.697L327.186 111.966L323.94 110.921C320.172 109.69 320.321 110.101 322.149 105.362L323.231 102.527L320.881 100.176C319.575 98.8706 318.493 97.6394 318.493 97.4155C318.493 97.229 319.575 96.0351 320.918 94.8039L323.343 92.5654L322.037 89.2076C321.328 87.3794 320.769 85.7005 320.881 85.4767C320.955 85.2901 322.261 84.6932 323.753 84.2082C325.283 83.6859 326.664 83.1636 326.85 83.0143C327.037 82.8278 327.223 81.0743 327.223 79.0596L327.26 75.4033L330.842 75.5526L334.424 75.6645L335.618 72.4559C336.289 70.7024 336.998 69.1728 337.185 69.0235C337.408 68.9116 338.826 69.3966 340.393 70.1428C341.923 70.889 343.378 71.4859 343.639 71.4859C343.863 71.4859 345.169 70.4039 346.475 69.0608C347.78 67.7177 349.086 66.6357 349.347 66.6357C349.571 66.6357 350.69 67.7177 351.772 69.0235C352.854 70.3666 353.936 71.4486 354.123 71.4486C354.347 71.4859 355.914 70.8889 357.63 70.1801C359.346 69.4339 360.876 68.9489 360.988 69.0608C361.1 69.21 361.808 70.6651 362.555 72.344L363.86 75.4033L367.405 75.4406H370.912L371.098 79.1715L371.285 82.8651L374.27 84.0589C377.739 85.4394 377.739 85.4021 376.098 89.8045L375.016 92.6773L377.59 95.0277L380.127 97.4155L377.627 100.139L375.09 102.863L376.284 105.847C376.919 107.489 377.441 109.093 377.441 109.354C377.441 109.69 376.284 110.25 374.27 110.847L371.136 111.817L371.024 115.622L370.912 119.428H367.405H363.898L362.592 122.711C361.585 125.136 361.1 125.957 360.652 125.845C360.353 125.733 358.786 125.099 357.145 124.427L354.235 123.159L351.735 125.882C350.392 127.374 349.198 128.568 349.086 128.568C348.974 128.568 347.706 127.374 346.213 125.882ZM351.026 122.711C351.772 121.741 352.332 120.845 352.22 120.659C351.884 120.137 345.728 120.286 345.728 120.808C345.728 121.368 348.713 124.464 349.273 124.464C349.459 124.427 350.28 123.644 351.026 122.711ZM341.55 121.181C342.445 120.696 343.117 120.137 343.042 119.913C342.856 119.39 337.259 117.525 336.923 117.861C336.662 118.122 337.744 121.33 338.341 122.114C338.714 122.599 339.087 122.487 341.55 121.181ZM360.503 120.174C360.876 119.055 361.062 118.01 360.913 117.898C360.615 117.562 355.317 119.689 355.167 120.211C355.018 120.622 359.122 122.599 359.607 122.338C359.756 122.263 360.167 121.293 360.503 120.174ZM343.826 112.302C336.886 99.8779 331.029 90.1403 330.506 90.1403C329.984 90.1403 328.939 95.5127 328.939 98.0124C328.939 100.885 329.797 104.168 331.253 107.078C332.558 109.69 336.14 113.384 338.789 114.951C340.804 116.107 346.213 117.861 346.4 117.376C346.437 117.226 345.281 114.951 343.826 112.302ZM353.974 117.152C357.033 116.256 361.585 113.757 363.301 112.003C368.375 107.004 370.427 100.064 368.897 93.0877C367.964 88.7972 368.076 88.7225 362.144 98.7586C353.638 113.123 351.325 117.115 351.325 117.45C351.325 117.861 351.66 117.823 353.974 117.152ZM334.498 116.406C334.871 116.294 334.349 115.548 332.857 114.018C331.626 112.787 330.544 111.779 330.394 111.779C330.096 111.779 329.611 116.219 329.872 116.667C330.059 116.928 333.342 116.779 334.498 116.406ZM368.412 114.801C368.561 112.078 368.375 111.667 367.256 112.19C366.285 112.637 363.637 115.585 363.637 116.219C363.637 116.63 365.129 116.928 366.994 116.853L368.3 116.816L368.412 114.801ZM351.399 111.705C352.556 109.578 353.451 107.825 353.414 107.787C353.339 107.713 352.78 107.862 352.108 108.086C350.877 108.534 346.101 108.384 344.87 107.862C344.385 107.675 344.572 108.198 345.579 109.951C347.37 113.16 348.862 115.51 349.086 115.51C349.198 115.51 350.243 113.794 351.399 111.705ZM328.939 109.168C328.939 108.645 327.037 103.833 326.664 103.422C326.365 103.124 324.686 106.258 324.388 107.638C324.313 108.011 324.947 108.384 326.328 108.832C328.79 109.615 328.939 109.653 328.939 109.168ZM372.516 108.72C373.374 108.496 374.083 108.16 374.083 107.974C374.083 107.489 372.292 104.019 371.919 103.795C371.658 103.646 369.233 108.496 369.233 109.242C369.233 109.466 369.867 109.392 372.516 108.72ZM352.556 105.213C356.1 103.422 357.667 100.997 357.667 97.3409C357.63 93.4608 354.981 90.0284 351.213 88.9837C348.265 88.1629 344.012 89.7299 342.109 92.3042C340.505 94.5054 340.02 98.2736 341.027 100.699C341.699 102.34 343.676 104.28 345.542 105.101C347.445 105.959 350.952 106.034 352.556 105.213ZM326.328 97.6021C326.328 94.0577 326.067 93.9085 323.679 96.1097L322.037 97.6021L323.716 99.0944C326.141 101.221 326.328 101.109 326.328 97.6021ZM374.605 99.2063C375.501 98.4229 376.284 97.6767 376.284 97.5648C376.322 97.1544 372.852 94.5801 372.441 94.7293C371.994 94.8785 371.658 99.2063 371.994 100.064C372.292 100.848 372.777 100.699 374.605 99.2063ZM340.281 90.6626C341.027 89.6926 341.624 88.7599 341.624 88.5733C341.624 88.4241 339.796 88.2748 337.52 88.2748C335.282 88.2748 333.416 88.4241 333.416 88.6106C333.416 88.7972 334.386 90.5507 335.543 92.5654L337.67 96.2216L338.267 94.3189C338.64 93.2369 339.498 91.5953 340.281 90.6626ZM361.808 94.5427C362.256 93.6473 363.189 92.043 363.86 90.9611C364.569 89.8791 365.129 88.8345 365.129 88.6479C365.129 88.4241 363.338 88.2748 360.652 88.2748C358.189 88.2748 356.175 88.3868 356.175 88.4987C356.175 88.6106 356.585 89.0583 357.07 89.4314C358.078 90.2149 360.279 94.3562 360.279 95.4381C360.279 96.5947 360.988 96.1843 361.808 94.5427ZM328.156 88.8345C328.865 87.3048 329.312 85.9244 329.201 85.8125C328.939 85.5513 324.761 86.4094 324.313 86.8198C323.753 87.3421 325.992 92.2669 326.626 91.8565C326.775 91.7819 327.484 90.4015 328.156 88.8345ZM373.113 89.5434C373.673 88.3868 374.046 87.2302 373.971 86.969C373.785 86.5213 371.285 85.6632 370.016 85.6632C369.606 85.6632 369.233 85.8498 369.233 86.1109C369.233 87.0063 371.285 91.6326 371.695 91.6326C371.956 91.6326 372.591 90.6999 373.113 89.5434ZM357.593 85.7005C361.734 85.6632 365.129 85.514 365.129 85.3647C365.129 84.7305 361.547 81.41 359.421 80.0296C353.862 76.4107 346.064 76.1868 339.983 79.4327C337.856 80.5519 333.043 84.6559 333.043 85.3274C333.043 85.6632 339.983 85.9244 346.288 85.8125C348.34 85.7752 353.414 85.7378 357.593 85.7005ZM332.82 81.2981C333.976 80.2535 334.909 79.2088 334.909 79.0222C334.909 78.6119 333.118 78.2015 331.141 78.2015C329.872 78.2015 329.686 78.3134 329.686 79.0969C329.686 80.7385 330.171 83.462 330.432 83.3501C330.581 83.2755 331.663 82.3801 332.82 81.2981ZM368.114 82.2308C368.114 81.5593 368.226 80.3654 368.337 79.6192L368.599 78.2015H366.957C365.092 78.2015 363.637 78.5373 363.637 78.9103C363.637 79.3207 367.405 83.4247 367.778 83.4247C367.964 83.4247 368.114 82.8651 368.114 82.2308ZM340.281 76.1495C341.848 75.4406 343.117 74.7691 343.117 74.6571C343.117 74.3587 339.46 72.6052 338.864 72.6052C338.341 72.6052 337.819 73.8364 337.334 76.2614C337.185 76.8957 337.147 77.4553 337.259 77.4553C337.334 77.4553 338.714 76.8584 340.281 76.1495ZM361.211 76.6345C360.54 74.2094 359.719 72.2321 359.421 72.2321C358.861 72.2321 355.429 74.1721 355.429 74.5079C355.429 74.9183 355.988 75.2541 358.6 76.3733C361.398 77.6418 361.51 77.6419 361.211 76.6345ZM351.884 73.4632C351.063 72.1574 349.422 70.3666 349.049 70.3666C348.75 70.3666 346.101 73.8737 346.101 74.2467C346.101 74.3587 347.556 74.4706 349.31 74.4706H352.519L351.884 73.4632Z" fill="#545454"/>
<path d="M345.393 205.051C342.408 202.215 341.811 201.767 341.177 202.103C340.431 202.514 334.387 203.894 333.342 203.931C332.932 203.931 332.67 203.67 332.67 203.26C332.67 202.887 332.26 201.32 331.738 199.827C331.215 198.335 330.805 196.693 330.805 196.208C330.805 195.164 330.395 194.94 325.395 193.634C323.343 193.112 321.627 192.627 321.552 192.552C321.403 192.403 322.896 185.128 323.306 184.046C323.604 183.3 323.231 182.777 320.321 179.793L317.001 176.36L320.321 172.928C323.119 170.092 323.642 169.383 323.306 168.824C322.933 168.115 321.366 160.616 321.552 160.467C322 160.094 328.678 158.042 329.425 158.042C330.208 158.042 330.432 157.818 330.618 156.81C330.73 156.176 331.365 154.05 331.999 152.147C332.894 149.386 333.23 148.714 333.715 148.864C334.088 148.976 335.357 149.237 336.588 149.461C337.819 149.647 339.647 150.095 340.655 150.431C342.408 151.027 342.483 151.028 342.856 150.356C343.08 149.946 344.012 148.976 344.945 148.155C345.878 147.334 347.221 146.103 347.892 145.469L349.161 144.237L351.25 146.215C352.407 147.259 353.936 148.752 354.683 149.535L355.988 150.878L359.16 150.057C360.913 149.572 362.928 149.087 363.711 148.938L365.054 148.677L366.211 152.147C366.808 154.05 367.368 156.139 367.442 156.736C367.554 157.78 367.666 157.855 369.42 158.079C370.464 158.228 372.031 158.676 372.964 159.124C373.897 159.534 375.016 159.907 375.501 159.907C375.949 159.907 376.434 160.131 376.508 160.392C376.769 160.989 375.426 167.742 374.867 168.787C374.456 169.533 374.568 169.719 375.538 170.54C376.135 171.062 377.628 172.629 378.859 174.01L381.097 176.547L377.963 179.867L374.829 183.188L375.762 187.851C376.844 193.298 376.807 192.739 376.247 192.739C375.986 192.739 373.971 193.261 371.77 193.933L367.778 195.127L367.368 197.029C366.696 200.35 365.241 204.118 364.719 204.043C361.659 203.484 358.712 202.849 357.481 202.476L355.988 202.029L352.631 205.237C350.803 206.991 349.198 208.408 349.086 208.408C348.974 208.408 347.333 206.916 345.393 205.051ZM350.243 203.894C351.511 202.999 354.011 199.865 353.75 199.454C353.675 199.305 352.519 199.342 351.25 199.529C349.944 199.715 347.93 199.753 346.773 199.641C345.281 199.492 344.609 199.566 344.609 199.827C344.609 200.238 348.639 204.678 348.974 204.678C349.086 204.678 349.646 204.342 350.243 203.894ZM338.976 200.089C340.319 199.641 341.438 199.119 341.513 198.895C341.625 198.559 333.417 194.119 333.155 194.38C333.006 194.53 334.499 199.417 334.946 200.312C335.394 201.133 336.066 201.096 338.976 200.089ZM364.01 198.82C365.763 194.082 365.39 193.522 362.032 195.686C360.764 196.544 359.01 197.514 358.152 197.813C357.257 198.149 356.548 198.559 356.548 198.745C356.548 198.895 357.443 199.342 358.525 199.753C359.57 200.163 360.727 200.574 361.025 200.686C362.704 201.282 363.189 200.984 364.01 198.82ZM345.915 194.53C345.318 193.448 344.311 191.545 343.639 190.314L342.445 188.075L338.938 187.963C337.036 187.926 334.797 188.001 333.976 188.187L332.521 188.486L335.133 191.172C338.08 194.119 340.356 195.388 344.273 196.208C345.579 196.507 346.736 196.656 346.81 196.582C346.885 196.544 346.475 195.574 345.915 194.53ZM355.466 195.873C356.585 195.537 358.227 194.865 359.16 194.306C361.137 193.186 365.502 189.12 365.502 188.374C365.502 187.814 362.331 187.702 357.928 188.15L355.429 188.374L353.899 191.396C353.041 193.075 352.108 194.753 351.847 195.164C351.549 195.574 351.325 196.022 351.325 196.171C351.325 196.656 353.302 196.507 355.466 195.873ZM350.765 191.508C351.586 190.052 352.295 188.597 352.369 188.374C352.481 188.001 351.623 187.889 349.086 187.889C346.549 187.889 345.691 188.001 345.803 188.374C345.99 189.045 348.862 194.231 349.086 194.231C349.198 194.231 349.944 193 350.765 191.508ZM330.469 190.351C329.835 189.456 328.716 187.516 328.007 186.06C327.261 184.605 326.514 183.486 326.365 183.598C326.029 183.785 324.649 190.426 324.873 190.649C325.283 191.06 331.365 192.59 331.477 192.328C331.551 192.142 331.103 191.284 330.469 190.351ZM370.315 191.433C373.785 190.314 373.747 190.388 372.591 186.62C371.77 183.971 370.949 183.412 370.539 185.277C370.427 185.874 369.643 187.366 368.86 188.56C366.92 191.619 366.51 192.366 366.957 192.366C367.181 192.366 368.673 191.955 370.315 191.433ZM340.505 185.128C340.505 184.382 337.744 179.606 337.334 179.606C336.998 179.569 334.2 184.382 334.163 184.978C334.163 185.314 335.655 185.538 338.379 185.613C339.983 185.65 340.505 185.538 340.505 185.128ZM354.123 185.352C354.347 185.202 355.578 183.15 356.884 180.8L359.234 176.509L357.817 173.898C357.033 172.48 355.839 170.391 355.168 169.346L353.899 167.369H349.086H344.273L342.893 169.533C342.147 170.689 340.916 172.741 340.207 174.01L338.901 176.397L340.505 179.42C343.602 185.277 343.565 185.24 345.99 185.389C350.206 185.65 353.75 185.65 354.123 185.352ZM363.002 185.277H364.42L363.189 183.113C360.727 178.785 361.062 178.86 359.234 182.031C358.376 183.561 357.667 185.016 357.667 185.277C357.667 185.65 358.19 185.687 359.645 185.501C360.689 185.389 362.219 185.277 363.002 185.277ZM332.223 182.591C332.857 181.285 333.864 179.42 334.461 178.375L335.581 176.509L333.305 172.331C332.036 170.018 330.842 168.19 330.618 168.264C330.096 168.413 328.94 172.443 328.716 175.017C328.566 176.435 328.716 178.151 329.089 179.755C329.686 182.292 330.618 184.904 330.954 184.904C331.029 184.904 331.626 183.859 332.223 182.591ZM368.263 183.337C369.308 180.651 369.793 176.248 369.308 173.599C368.86 171.174 367.778 168.115 367.405 168.115C367.256 168.115 366.136 169.98 364.868 172.256L362.555 176.435L363.861 178.711C364.569 179.979 365.614 181.882 366.136 182.964C366.696 184.009 367.256 184.904 367.405 184.904C367.517 184.904 367.927 184.195 368.263 183.337ZM326.104 176.323C326.067 173.86 325.992 171.771 325.88 171.659C325.806 171.585 324.612 172.629 323.231 174.01L320.694 176.547L322.933 178.673C324.164 179.83 325.358 180.8 325.656 180.8C326.029 180.8 326.141 179.793 326.104 176.323ZM375.352 178.524L377.628 176.286L375.314 174.047C374.083 172.853 372.815 171.846 372.516 171.846C372.143 171.846 372.031 172.816 372.031 176.323C372.031 179.942 372.143 180.8 372.554 180.8C372.852 180.8 374.121 179.793 375.352 178.524ZM339.386 170.279L340.953 167.369H337.334C335.357 167.369 333.79 167.481 333.864 167.667C334.722 169.57 337.297 173.674 337.521 173.45C337.67 173.301 338.528 171.846 339.386 170.279ZM362.667 170.727C363.599 169.085 364.383 167.63 364.383 167.443C364.383 167.182 357.667 167.294 357.369 167.555C357.294 167.63 360.727 173.674 360.876 173.711C360.913 173.711 361.697 172.368 362.667 170.727ZM327.186 168.04C327.447 167.555 328.566 165.69 329.648 163.899C330.73 162.071 331.551 160.504 331.439 160.429C331.327 160.317 329.872 160.579 328.193 160.989C326.477 161.437 325.059 161.772 324.985 161.772C324.649 161.772 324.873 163.824 325.433 166.287C325.731 167.705 326.179 168.861 326.365 168.861C326.552 168.861 326.925 168.488 327.186 168.04ZM372.554 166.138C373.785 162.257 373.71 162.146 370.166 161.362C368.561 160.989 367.106 160.765 366.957 160.877C366.808 160.952 367.442 162.146 368.375 163.526C369.308 164.906 370.315 166.66 370.613 167.443C370.912 168.227 371.285 168.861 371.434 168.861C371.584 168.861 372.106 167.63 372.554 166.138ZM344.833 160.467C346.139 158.228 347.034 156.288 346.81 156.251C345.878 155.915 340.804 157.445 338.752 158.676C336.103 160.243 332.447 163.75 332.857 164.347C333.006 164.645 334.61 164.757 337.782 164.683L342.445 164.571L344.833 160.467ZM350.877 161.623C350.019 159.87 349.161 158.564 349.012 158.638C348.751 158.788 346.549 162.817 345.803 164.496C345.729 164.645 347.184 164.757 349.049 164.757H352.444L350.877 161.623ZM365.539 164.048C364.793 162.705 360.652 159.198 358.6 158.228C356.697 157.333 351.325 155.766 351.026 156.027C350.84 156.139 351.362 157.109 353.825 161.325L355.839 164.757H360.876C365.651 164.757 365.875 164.72 365.539 164.048ZM336.14 157.221C337.558 156.363 339.237 155.393 339.871 155.094C341.625 154.199 341.513 153.676 339.349 153.042C336.289 152.109 334.984 152.221 334.499 153.453C333.902 155.057 333.081 158.788 333.342 158.788C333.454 158.788 334.722 158.079 336.14 157.221ZM364.756 158.191C364.756 157.109 363.562 152.445 363.226 152.259C362.704 151.923 356.921 153.527 356.921 153.975C356.921 154.161 357.705 154.721 358.712 155.206C359.682 155.728 361.324 156.698 362.331 157.445C364.458 158.937 364.756 159.012 364.756 158.191ZM353.936 153.005C353.936 152.333 349.87 148.341 349.161 148.341C348.9 148.341 347.631 149.386 346.363 150.692L344.05 153.005L347.407 153.229C353.787 153.602 353.936 153.602 353.936 153.005Z" fill="#398D18"/>
<path fill-rule="evenodd" clip-rule="evenodd" d="M403.048 -34.2601C403.068 -34.3481 403.089 -34.4402 403.111 -34.5357L403.108 -34.5204C403.087 -34.4303 403.067 -34.3434 403.048 -34.2601ZM612.485 387.273C612.535 387.414 612.585 387.557 612.635 387.7L612.622 387.661C612.576 387.531 612.53 387.402 612.485 387.273Z" fill="#696969"/>
<path d="M383.901 -65.0566L385.073 -69.2957L312.953 -69.1737L315.359 -65.6226L383.901 -65.0566Z" fill="#696969"/>
<path d="M300.09 -86.9399L303.237 -83.671C303.237 -83.671 310.438 -103.101 347.755 -103.101C385.073 -103.101 392.273 -86.4203 392.273 -86.4203L394.028 -90.5148C394.028 -90.5148 385.073 -107.205 347.755 -107.205C310.438 -107.205 300.09 -86.9399 300.09 -86.9399Z" fill="#696969"/>
<path d="M172.765 436.142C171.683 434.501 172.392 433.493 176.458 430.732C180.786 427.822 188.435 423.942 194.329 421.666C205.671 417.227 219.289 414.727 232.496 414.727C238.428 414.69 239.137 414.652 238.503 414.167C237.384 413.309 227.497 409.243 224.997 408.608C222.05 407.862 217.386 407.862 210.969 408.608C207.872 408.981 205 409.131 203.768 408.944C199.478 408.422 196.456 405.027 196.456 400.699C196.456 397.975 197.538 395.811 200.075 393.461C202.575 391.222 205.074 390.327 211.379 389.581C215.521 389.059 215.782 388.984 221.266 386.223C231.302 381.112 234.026 381.074 249.248 385.589C259.471 388.648 263.91 389.506 269.245 389.469C274.506 389.432 276.931 388.909 286.37 385.813C295.026 383.014 295.847 382.791 299.503 382.268C304.577 381.559 310.248 382.977 313.568 385.813C315.434 387.38 317.784 390.625 320.172 394.953C321.329 397.117 322.634 399.318 323.007 399.878C323.418 400.4 323.716 401.035 323.716 401.296C323.716 401.52 323.903 401.594 324.089 401.482C324.761 401.072 324.462 402.266 323.716 403.087C322.709 404.169 322.448 404.131 323.194 402.975C323.977 401.781 323.53 400.997 322.56 401.93C322.187 402.303 321.627 402.825 321.291 403.087C320.806 403.497 320.806 403.721 321.142 404.131C321.366 404.43 321.515 404.766 321.403 404.84C321.067 405.213 318.195 400.923 316.068 396.856C312.636 390.252 309.8 387.715 304.838 386.745C301.592 386.111 298.719 386.633 288.907 389.767C276.073 393.834 271.857 394.58 265.141 393.834C259.769 393.274 253.874 391.894 246.487 389.544C234.697 385.738 232.16 385.85 223.02 390.252C216.64 393.312 215.558 393.685 211.417 394.021C207.499 394.356 204.925 395.14 203.395 396.52C200.635 398.945 200.075 401.855 202.052 403.609C203.47 404.877 203.992 404.915 213.021 404.019C223.281 403.049 225.296 403.422 238.018 408.795C241.861 410.436 247.532 412.75 250.666 414.018L256.299 416.257L267.156 417.712C283.721 419.913 285.176 420.062 295.175 420.025C302.152 420.025 306.107 419.838 310.845 419.241C314.314 418.831 317.299 418.607 317.486 418.794C317.672 418.98 317.859 419.353 317.896 419.614C318.232 421.368 318.642 422.189 319.165 422.189C320.545 422.189 319.09 422.636 316.031 423.121C309.427 424.166 303.57 424.539 294.615 424.539C285.587 424.539 278.461 423.942 267.753 422.375C248.278 419.503 234.101 418.607 223.356 419.614C207.425 421.032 191.345 426.479 179.107 434.538C176.943 435.956 174.78 437.112 174.295 437.112C173.735 437.112 173.138 436.739 172.765 436.142Z" fill="#696969"/>
<path d="M342.93 35.7441C341.251 35.1845 341.065 34.9979 341.065 33.9906C341.065 32.6848 341.102 32.6848 346.176 33.3937C349.347 33.8414 350.131 33.8041 355.429 32.834C356.623 32.6475 356.809 32.7221 357.182 33.5429C358.078 35.4829 355.391 36.4157 348.9 36.3784C346.027 36.3784 344.236 36.1918 342.93 35.7441Z" fill="#696969"/>
<path d="M338.155 27.6481C334.013 27.1258 333.043 26.7527 333.043 25.5588C333.043 24.1411 334.237 23.8053 337.409 24.3649C342.259 25.1484 351.325 25.4096 356.361 24.8127C358.824 24.5515 361.771 24.3276 362.89 24.2903C364.831 24.2903 364.942 24.3276 365.054 25.2603C365.204 26.6035 364.532 27.0139 361.547 27.4616C357.369 28.1331 342.781 28.2451 338.155 27.6481Z" fill="#696969"/>
<path d="M344.311 12.8738C341.475 11.7545 340.356 11.1203 340.057 10.4487C339.759 9.81449 339.759 9.44139 340.132 8.99368C340.804 8.17289 341.624 8.28482 344.46 9.62794C348.303 11.4188 350.093 11.4188 353.712 9.62794C355.317 8.80714 356.958 8.24751 357.331 8.32213C358.115 8.54598 358.525 9.55333 358.189 10.4487C357.816 11.4188 350.765 14.4035 348.937 14.4035C348.489 14.4035 346.437 13.6946 344.311 12.8738Z" fill="#696969"/>
<path d="M352.257 0.0768814C351.772 -0.296204 351.698 -1.71393 351.772 -11.1531L351.884 -21.9726H354.123L354.235 -10.9292C354.309 -0.18428 354.309 0.151505 353.6 0.338051C353.19 0.449974 352.593 0.338043 352.257 0.0768814Z" fill="#696969"/>
<path d="M323.156 -11.6008C317.597 -12.8319 314.314 -15.2197 315.956 -16.8613C316.627 -17.5328 317.56 -17.4209 319.538 -16.4136C323.679 -14.3243 328.827 -14.2124 333.566 -16.1897C335.841 -17.1598 336.513 -17.2717 337.147 -16.9359C337.707 -16.6374 337.893 -16.227 337.819 -15.5182C337.744 -14.6974 337.259 -14.287 335.319 -13.3543C334.013 -12.6827 332.036 -11.9738 330.879 -11.75C328.865 -11.3396 324.649 -11.265 323.156 -11.6008Z" fill="#696969"/>
<path d="M366.994 -11.8619C364.159 -12.6081 361.734 -13.6901 360.876 -14.6228C360.204 -15.3689 360.204 -15.4809 360.801 -16.3763C361.137 -16.8986 361.585 -17.309 361.734 -17.309C361.92 -17.309 363.413 -16.7867 365.017 -16.1151C367.629 -15.0332 368.337 -14.9212 371.658 -14.8839C375.202 -14.8839 375.538 -14.9586 378.262 -16.2644C380.836 -17.4956 381.172 -17.5702 381.881 -17.0852C384.716 -15.0705 379.12 -11.75 372.404 -11.4888C370.315 -11.4142 368.263 -11.5635 366.994 -11.8619Z" fill="#696969"/>
<path d="M358.376 -25.6662C357.406 -26.1512 357.107 -26.972 357.443 -28.3151C357.704 -29.3598 360.017 -30.3671 365.278 -31.6729C372.068 -33.3891 379.605 -32.7922 385.723 -30.0686C388.447 -28.8001 389.081 -27.9047 388.111 -26.487C387.253 -25.1812 386.432 -25.1439 383.41 -26.375C378.97 -28.1286 374.531 -28.7628 370.165 -28.2032C368.151 -27.942 365.353 -27.3078 363.86 -26.8228C359.271 -25.1812 359.309 -25.1812 358.376 -25.6662Z" fill="#696969"/>
<path d="M310.099 -26.4124C308.867 -28.2405 310.024 -29.3597 314.949 -31.0387C318.829 -32.3445 321.552 -32.7175 326.216 -32.531C332.82 -32.2698 340.468 -29.994 341.065 -28.1286C341.401 -27.0839 340.356 -25.517 339.311 -25.517C338.901 -25.517 336.924 -26.0393 334.946 -26.6735C327.82 -28.9493 322.187 -28.9867 316.18 -26.7855C312.113 -25.2931 310.882 -25.2185 310.099 -26.4124Z" fill="#696969"/>
<path fill-rule="evenodd" clip-rule="evenodd" d="M228.206 500.873C200.075 506.73 165.378 510.909 153.775 509.864C137.657 508.447 122.734 501.507 115.011 491.919C111.877 488.001 107.81 479.905 106.206 474.421C104.378 468.19 103.52 462.594 103.445 456.811C103.408 453.118 103.296 451.663 102.96 451.663C102.736 451.663 102.438 451.812 102.326 451.998C101.841 452.745 98.5576 453.192 96.7668 452.782C94.6401 452.222 92.2151 450.208 91.6554 448.491C91.4316 447.782 91.0958 447.186 90.9466 447.186C90.7973 447.186 90.2004 447.708 89.5662 448.342C85.6487 452.483 79.4928 451.737 77.0304 446.85C75.8365 444.537 75.6873 442.298 76.5454 440.246C77.1423 438.791 79.9032 435.135 86.2457 427.412C88.5215 424.651 91.2824 421.219 92.4016 419.764L92.4821 419.662C93.5929 418.255 95.0697 416.384 95.834 415.51C96.6175 414.615 97.2518 413.757 97.2518 413.645C97.2518 413.496 95.3863 413.197 93.0732 412.936C88.0738 412.414 85.3876 411.294 84.0071 409.205C82.776 407.265 79.6793 397.453 79.4555 394.767C79.3062 393.051 79.4555 392.006 80.0897 390.29C80.5374 389.058 81.6567 385.962 82.5148 383.425C83.4102 380.888 84.2683 378.687 84.4922 378.463C84.6787 378.276 84.7533 376.933 84.6787 375.441C84.4175 371.71 85.1264 370.74 89.79 368.277C91.7674 367.27 94.6775 365.554 96.319 364.509C97.9606 363.465 99.8261 362.457 100.423 362.233C101.057 362.01 104.415 361.711 107.885 361.599C111.392 361.487 115.757 361.226 117.585 360.965C122.361 360.368 128.74 360.741 132.882 361.86C134.747 362.383 136.277 362.793 136.277 362.756C136.293 362.74 136.484 362.481 136.79 362.067L136.795 362.06C137.213 361.495 137.846 360.639 138.553 359.696C147.544 347.534 153.215 336.64 164.669 309.703C171.981 292.503 177.69 282.766 187.987 269.894C190.673 266.574 193.173 263.104 193.583 262.246C194.329 260.53 194.59 258.851 195.784 246.651C197.874 225.086 200.821 207.887 205.522 189.829C207.275 182.965 207.425 182.181 207.462 177.816C207.462 175.242 207.275 170.578 207.014 167.444C204.776 139.574 210.335 119.577 224.102 105.773C232.347 97.4902 239.585 93.722 254.658 89.7673C258.575 88.7599 263.089 87.4168 264.656 86.7825C266.261 86.1483 272.454 83.0144 278.386 79.8058C307.524 64.0988 307.785 63.9123 309.949 60.7783C312.188 57.5325 312.3 56.9728 312.449 45.2579L312.598 34.5502L310.733 32.0132C306.703 26.5662 304.913 22.3129 303.607 14.7766C303.159 12.2023 302.711 9.73988 302.599 9.29216C302.487 8.73253 302.152 8.43409 301.629 8.43409C298.458 8.43409 294.988 5.71053 293.198 1.79311C290.735 -3.54205 288.161 -15.4436 288.124 -21.7861C288.086 -25.7035 288.161 -26.2631 289.094 -28.2032C290.138 -30.4417 292.414 -32.4937 294.354 -32.8668C295.511 -33.0906 295.548 -33.4264 294.802 -36.2992C294.093 -39.0974 292.153 -50.9243 291.668 -55.4386C290.287 -68.1236 292.451 -78.0104 298.234 -85.0991C298.601 -85.5629 299.289 -86.237 300.09 -86.9399L303.237 -83.671C299.406 -80.0967 297.219 -75.4972 296.294 -69.2055C295.399 -63.2734 295.623 -57.901 297.264 -48.0888C297.973 -43.8729 299.652 -35.7022 300.062 -34.4711C300.174 -34.1726 300.622 -35.0307 301.107 -36.3365C301.555 -37.6796 302.413 -39.7689 303.01 -41.0001C304.987 -45.2906 305.136 -45.9622 305.099 -51.1108C305.062 -57.0802 305.435 -59.2814 307.076 -62.6392C308.505 -65.5308 310.492 -67.709 312.953 -69.1737L315.359 -65.6226C313.411 -64.3339 311.703 -62.4035 310.733 -60.2514C309.837 -58.3114 309.763 -57.6025 309.539 -51.26L309.278 -44.3579L307.897 -41.1866C304.428 -33.4637 303.942 -31.6729 303.196 -24.3231C302.823 -20.4803 302.861 -19.9952 304.689 -7.34755C308.233 16.9778 308.942 20.3729 311.852 25.5215C315.546 32.0879 328.081 46.0787 333.416 49.623C334.536 50.3692 336.812 51.4138 338.453 51.9734C341.065 52.7942 342.259 52.9435 347.818 53.13C358.973 53.4285 362.89 52.0108 370.128 44.9967C378.224 37.1619 384.604 29.2524 387.365 23.5069C389.454 19.2163 390.163 15.9704 392.7 -1.63929L392.706 -1.6811L392.708 -1.69544C393.75 -8.76537 394.79 -15.8209 395.051 -17.4209C395.909 -22.9799 394.491 -31.8594 391.767 -37.9781C388.969 -44.2833 388.895 -44.6191 388.633 -51.6331C388.447 -56.334 388.186 -58.6472 387.701 -59.9157C387.16 -61.4765 385.389 -63.7859 383.901 -65.0566L385.073 -69.2957C387.504 -67.8493 389.801 -65.6408 390.909 -63.4973C392.588 -60.2141 392.812 -59.0202 393.073 -52.1927L393.372 -45.4771L395.237 -41.3732C396.282 -39.0973 397.326 -36.523 397.588 -35.6276C397.811 -34.7695 398.073 -34.098 398.185 -34.1726C398.446 -34.4711 400.162 -43.0148 401.132 -49.0215C404.193 -67.9326 401.363 -80.022 392.273 -86.4203L394.028 -90.5148C395.538 -89.509 397.142 -88.3398 397.961 -87.5988C403.482 -82.5994 406.877 -73.0483 406.915 -62.6392C406.915 -57.0802 405.087 -43.164 403.37 -35.6649L403.111 -34.5357L403.108 -34.5204L403.1 -34.4844C402.93 -33.7472 402.811 -33.2278 402.811 -33.2025C402.811 -33.1279 403.557 -32.8668 404.452 -32.6429C406.803 -32.046 408.855 -29.6209 409.713 -26.4497C410.832 -22.383 410.011 -14.7347 407.474 -5.37017C405.273 2.80045 403.706 5.52399 400.087 7.31483C398.856 7.94906 397.364 8.43409 396.767 8.43409C396.207 8.43409 395.722 8.54599 395.722 8.73253C395.722 8.88177 395.312 11.3815 394.789 14.2915C393.409 22.3129 391.693 26.3796 387.253 32.461L385.649 34.6248V43.094C385.686 56.0028 386.246 58.7636 389.678 62.2707C391.506 64.1361 396.282 67.1581 403.37 70.9263C408.668 73.7245 415.197 77.2315 423.331 81.6713C431.725 86.2229 434.747 87.4541 442.731 89.5434C450.827 91.6327 454.894 93.0131 459.707 95.3636C471.011 100.848 478.66 108.496 484.331 119.95C488.696 128.755 490.748 137.037 491.606 149.461C492.053 155.505 491.942 159.087 490.972 171.1C490.337 179.159 490.412 180.204 492.016 186.397C497.053 205.947 500 222.587 502.201 243.853C503.694 257.955 503.88 259.597 504.291 261.089C504.813 262.917 506.305 265.081 510.969 270.715C516.976 278.027 523.02 287.28 527.198 295.675C528.84 298.92 532.272 306.643 539.548 323.32C541.711 328.357 544.696 334.737 546.114 337.498C550.815 346.526 557.344 356.936 561.187 361.525L562.306 362.868L565.477 361.898C569.469 360.666 575.737 360.331 581.035 361.002C583.05 361.263 587.639 361.562 591.258 361.711L597.787 361.935L601.144 364.024C602.973 365.181 605.883 366.86 607.636 367.718C612.859 370.292 614.501 372.568 613.606 375.926C613.27 377.157 613.307 377.567 613.792 378.276C614.091 378.724 614.799 380.515 615.322 382.268C615.844 384.022 616.889 386.857 617.598 388.611C618.791 391.484 618.903 392.006 618.754 394.58C618.568 397.378 616.217 405.437 614.725 408.384C613.232 411.332 611.143 412.339 605.36 412.936C603.122 413.197 601.294 413.533 601.294 413.72C601.294 413.943 602.077 415.025 603.047 416.182C606.703 420.622 619.612 436.851 620.769 438.53C621.925 440.172 622 440.507 622 443.343C622 446.178 621.925 446.477 620.843 447.782C619.015 450.058 617.933 450.655 615.508 450.842C612.673 451.028 611.031 450.469 609.166 448.641C608.308 447.857 607.524 447.186 607.338 447.186C607.188 447.186 606.703 448.006 606.293 449.014C605.174 451.588 602.749 452.968 599.615 452.931C598.309 452.931 596.891 452.633 596.182 452.26C595.511 451.924 594.951 451.775 594.914 451.924C594.914 452.11 594.914 453.565 594.951 455.207C595.026 461.475 593.795 468.862 591.37 476.286C588.683 484.569 585.699 489.68 580.401 494.941C570.215 505.126 551.598 511.207 534.548 509.864C485.301 506.022 446.537 497.291 397.774 478.973C381.769 472.929 375.016 470.205 357.928 462.855L349.012 459.012L345.243 460.729C307.039 477.853 257.941 494.68 228.206 500.873ZM301.07 342.945L296.593 342.124C290.698 341.079 284.057 339.363 277.826 337.386L272.79 335.781L272.864 327.984C272.976 318.955 273.312 314.926 274.879 303.211C275.998 295.078 276.036 294.406 275.849 284.706C275.551 270.043 274.916 265.268 270.365 245.084C265.216 222.437 263.276 211.319 262.679 201.694L262.418 197.403L265.477 200.313C270.663 205.275 276.707 208.708 284.467 211.17C290.138 212.961 293.944 213.409 303.942 213.409C316.777 213.446 319.127 212.924 318.568 210.051C318.269 208.409 317.784 208.297 311.889 208.782C305.435 209.342 296.257 209.081 291.481 208.223C285.102 207.066 279.02 204.716 274.021 201.507C270.439 199.157 265.067 193.71 262.306 189.568C258.277 183.524 254.471 175.279 252.643 168.675C252.27 167.444 251.785 166.064 251.486 165.579C250.442 163.937 247.606 164.907 247.606 166.959C247.606 169.757 253.128 183.263 256.71 189.121L258.015 191.247L257.307 198.075C256.486 205.91 256.15 208.409 254.881 215.871C252.158 231.541 249.472 241.614 242.458 262.134C240.331 268.402 237.757 276.535 236.749 280.229C234.1 289.892 233.317 292.093 230.78 296.682C223.878 309.106 210.484 327.126 192.949 347.571C190.039 350.966 185.412 356.413 182.652 359.696C175.638 368.091 165.079 380.664 163.512 382.455L162.244 383.947L161.983 382.828C161.05 378.649 159.781 376.672 158.065 376.672C157.058 376.672 155.827 377.642 155.827 378.425C155.827 378.649 156.274 379.731 156.834 380.813C158.886 384.731 158.326 390.439 155.267 396.632C153.103 401.035 146.686 409.802 133.255 426.703C131.203 429.277 127.92 433.493 125.98 435.993C120.532 443.082 119.077 444.574 117.548 444.574C115.906 444.574 114.787 443.455 114.787 441.85C114.787 440.918 116.205 438.493 121.167 430.956C124.674 425.621 127.696 420.846 127.882 420.361C128.405 419.092 127.397 417.712 125.98 417.712C125.084 417.712 124.599 418.122 122.846 420.622C121.726 422.189 118.555 426.293 115.832 429.725C114.427 431.475 112.666 433.692 110.978 435.817C109.391 437.814 107.868 439.731 106.766 441.104C101.468 447.782 100.535 448.678 98.968 448.678C96.2444 448.678 94.6775 445.88 95.9833 443.417C96.6548 442.037 96.9906 441.589 108.37 426.591C113.593 419.689 115.906 416.368 115.906 415.697C115.906 414.578 114.451 413.458 113.518 413.831C113.145 413.981 109.191 418.458 104.714 423.83C88.2604 443.529 86.3576 445.693 85.2756 446.29C83.1864 447.335 80.724 446.029 80.2763 443.641C80.0151 442.112 80.6493 441.142 87.9246 432.225C104.564 411.817 106.206 409.69 106.206 408.683C106.206 406.444 103.37 406.183 101.729 408.31L100.983 409.243L95.5356 408.795C89.4542 408.272 88.5961 408.049 87.738 406.78C86.9172 405.474 83.8206 395.476 83.8206 394.021C83.8206 393.312 84.4922 390.924 85.2756 388.723C86.0964 386.521 86.9918 383.947 87.253 383.014C87.8126 381.074 88.6707 380.739 90.4989 381.671C92.1778 382.567 92.7001 384.581 92.0285 387.977C91.0958 392.901 91.1331 393.983 92.1405 396.222C92.6628 397.341 93.5582 398.535 94.1178 398.908C95.6475 399.953 98.8187 399.803 101.356 398.647C103.781 397.49 108.407 393.312 111.541 389.357C112.772 387.827 113.891 386.559 114.003 386.596C114.115 386.596 115.347 387.156 116.69 387.79C122.771 390.775 129.748 390.775 135.866 387.865C138.441 386.633 139.15 385.813 138.963 384.208C138.776 382.455 137.247 382.306 134.486 383.686C131.352 385.253 128.74 385.775 124.86 385.514C119.413 385.178 116.727 383.723 112.996 378.985C111.541 377.12 108.706 375.59 106.28 375.329C104.863 375.142 103.855 375.366 101.169 376.411C99.3411 377.12 96.9906 377.828 96.0206 377.978C92.2897 378.5 88.4842 376.635 88.7454 374.471C88.8573 373.65 89.5288 373.128 93.1478 371.225C95.4983 369.994 98.3337 368.389 99.453 367.718C101.465 366.414 101.505 366.412 107.261 366.115L107.288 366.114C110.496 365.964 115.533 365.591 118.518 365.293C126.166 364.547 130.121 365.143 137.657 368.128C141.164 369.546 141.425 369.583 142.283 369.024C142.768 368.688 143.291 368.165 143.403 367.867C143.739 367.009 142.806 365.591 141.612 365.069L140.53 364.659L141.612 363.278C143.664 360.666 148.775 352.757 151.536 347.944C156.386 339.475 159.483 333.021 167.243 315C176.869 292.652 180.301 286.646 191.233 272.953C193.956 269.558 196.568 266.014 197.09 265.044C198.433 262.432 198.956 259.522 199.814 250.382C202.015 227.25 204.515 212.177 209.439 192.441C211.864 182.741 211.939 182.368 211.939 177.629C211.939 174.981 211.752 170.503 211.491 167.78C210.932 161.549 210.894 149.909 211.454 145.059C213.058 130.173 218.58 117.376 226.974 109.056C231.489 104.579 235.07 102.005 240.331 99.4675C245.666 96.8932 247.233 96.3336 257.045 93.6847C266.298 91.2223 267.977 90.5134 278.573 84.7306C281.702 83.0145 286.385 80.4789 290.704 78.1402L290.717 78.1335C292.778 77.0172 294.757 75.9459 296.443 75.0303C310.434 67.5312 312.635 65.8523 314.911 61.1887C316.441 58.0921 316.963 54.3612 317.001 46.7502V40.1466L322.298 45.4817C330.245 53.5031 332.82 55.2193 339.349 56.8609C342.967 57.7563 355.727 57.7563 359.309 56.8236C365.092 55.3686 370.725 51.4511 376.918 44.6982C379.12 42.3105 381.022 40.3704 381.134 40.445C381.246 40.4823 381.284 42.8328 381.209 45.6682C381.134 49.8842 381.47 54.6597 382.03 58.1294C382.104 58.4652 383.746 60.4052 385.686 62.4199C387.589 64.4346 389.865 66.9716 390.685 68.0162C391.767 69.434 392.924 70.3667 394.789 71.3367C398.185 73.1275 404.975 76.7465 418.107 83.8352C423.965 87.0064 430.084 90.103 431.762 90.7746C433.441 91.4461 437.956 92.8266 441.836 93.8339C454.297 97.0798 459.408 99.3929 467.019 105.101C475.563 111.518 482.316 122.711 485.189 135.097C487.39 144.425 487.875 157.333 486.606 171.399C485.823 180.017 485.823 180.055 489.218 193.859C493.732 212.252 495.859 224.75 497.948 245.345C499.366 259.261 499.478 260.343 500.224 262.656C500.634 264.037 501.604 265.827 502.686 267.245C509.327 275.789 515.745 284.445 517.535 287.317C520.222 291.571 526.116 303.397 529.437 311.195C536.936 328.73 541.861 339.288 546.189 347.011C548.427 351.003 553.725 359.174 556.038 362.233C557.605 364.285 557.792 365.106 556.747 365.106C556.038 365.106 555.031 366.337 555.031 367.233C555.031 368.165 556.15 369.21 557.195 369.21C557.605 369.21 559.284 368.688 560.888 368.091C568.089 365.293 574.319 364.509 580.96 365.442C582.415 365.666 586.333 365.927 589.728 366.076C596.443 366.337 596.891 366.449 600.995 368.949C602.525 369.882 604.95 371.225 606.405 371.971C609.427 373.463 610.061 374.21 609.39 375.553C608.755 376.858 606.853 377.828 604.428 378.052C602.599 378.239 601.704 378.052 597.525 376.635C592.899 375.068 592.675 375.03 590.959 375.478C588.497 376.15 585.81 377.94 584.542 379.806C581.856 383.611 578.722 385.253 573.499 385.551C569.507 385.738 567.044 385.29 563.91 383.723C561.411 382.455 560.59 382.38 559.769 383.313C558.836 384.358 558.985 385.44 560.254 386.484C562.231 388.163 568.536 390.066 572.081 390.103C574.916 390.103 579.431 389.021 581.968 387.715L584.467 386.447L585.96 388.387C586.78 389.432 589.168 392.006 591.332 394.095C595.772 398.498 597.675 399.542 601.032 399.542C603.644 399.542 604.838 398.796 606.069 396.446C607.039 394.468 607.114 392.565 606.293 388.611C605.398 384.096 606.442 381.522 609.166 381.41C610.248 381.335 610.434 381.485 610.845 382.641C611.07 383.252 611.821 385.387 612.622 387.661L612.635 387.7L613.009 388.76L614.725 393.535L614.165 396.035C613.419 399.281 611.442 405.325 610.658 406.631C609.949 407.899 608.793 408.198 603.346 408.758C601.107 408.981 598.869 409.242 598.421 409.317C597.824 409.466 597.19 409.093 596.108 408.011C595.287 407.19 594.466 406.519 594.28 406.519C593.571 406.519 591.966 408.086 591.966 408.758C591.966 409.168 593.198 410.959 594.69 412.75C596.182 414.54 599.503 418.644 602.04 421.816C603.925 424.172 606.923 427.91 609.579 431.22L612.15 434.426C615.434 438.53 617.709 441.701 617.859 442.373C618.306 444.649 616.702 446.812 614.613 446.812C612.971 446.812 612.71 446.551 595.884 426.442C592.787 422.786 589.206 418.458 587.937 416.891C586.669 415.324 585.288 413.906 584.878 413.794C583.87 413.496 582.677 414.205 582.415 415.287C582.229 416.07 583.684 418.159 591.631 428.718C596.854 435.583 601.48 441.85 601.928 442.634C602.413 443.417 602.786 444.649 602.786 445.432C602.786 448.156 600.062 449.536 597.637 448.081C596.63 447.484 581.221 428.457 575.998 421.405C573.237 417.637 572.64 417.227 571.036 418.085C569.544 418.905 570.141 420.286 575.289 428.009C581.52 437.373 583.758 441.142 583.758 442.223C583.758 444.238 581.035 445.246 579.095 443.977C577.229 442.746 550.069 407.937 545.405 400.811C541.973 395.513 539.809 388.872 540.294 385.066C540.406 384.059 540.928 382.194 541.45 380.925C542.532 378.202 542.532 378.09 541.674 377.306C540.704 376.411 539.622 376.523 538.54 377.605C537.645 378.5 536.376 381.671 536.376 383.052C536.376 383.462 536.227 383.761 536.078 383.761C535.779 383.761 526.042 372.307 517.386 361.786C515.26 359.211 512.499 355.928 511.23 354.51C509.999 353.093 507.611 350.295 505.97 348.317L505.443 347.683L505.438 347.677C503.608 345.472 500.269 341.447 497.538 338.244C484.629 322.723 474.033 308.098 468.138 297.615C465.005 292.056 464.072 289.668 462.169 282.467C461.274 279.184 458.177 269.297 455.23 260.455C452.282 251.65 449.186 241.913 448.365 238.816C445.417 228.183 442.582 212.177 441.239 199.007L440.455 191.284L442.657 187.255C445.604 181.845 447.246 178.114 448.85 172.966C450.641 167.332 450.827 166.176 450.006 165.392C449.298 164.646 447.954 164.571 447.134 165.243C446.798 165.467 446.089 167.22 445.529 169.048C443.627 175.428 439.747 183.748 436.202 189.233C427.024 203.373 412.474 209.864 392.066 208.969C380.5 208.447 380.314 208.484 379.829 209.454C379.269 210.573 379.567 211.692 380.575 212.327C381.657 213.036 388.447 213.632 395.125 213.632C411.728 213.595 424.338 209.118 433.18 200.052L436.09 197.03L435.829 200.201C434.934 211.916 433.106 222.325 428.367 242.92C423.405 264.372 422.51 271.237 422.435 286.758C422.398 296.533 422.473 297.95 423.405 304.106C424.823 313.545 425.159 317.276 425.457 327.051L425.681 335.632L424.375 336.155C423.666 336.453 420.57 337.46 417.51 338.393C407.81 341.341 397.065 343.467 384.156 344.959C378.075 345.668 375.687 346.079 377.553 346.079C378 346.079 378.112 346.377 378 347.31C377.963 347.981 378.112 348.84 378.411 349.25C378.896 349.884 379.157 349.922 383.671 349.474C397.14 348.168 412.511 345.034 422.473 341.527C424.786 340.744 426.838 340.147 427.024 340.259C427.472 340.557 430.904 348.951 433.255 355.555C434.374 358.652 435.531 361.413 435.904 361.748C436.277 362.121 439 363.017 441.985 363.763C470.526 371.076 494.292 379.172 515.521 388.76C522.833 392.08 530.146 395.849 539.436 401.072C540.406 401.594 541.6 403.049 543.316 405.586C546.3 409.989 553.762 419.689 572.044 442.746C576.11 447.894 577.379 448.79 580.774 448.976C584.057 449.126 585.773 448.156 587.191 445.395L588.198 443.417L588.832 444.387C590.176 446.439 590.81 454.535 590.138 460.617C587.862 480.204 580.438 492.441 566.783 499.045C555.74 504.417 545.442 506.283 532.757 505.201C504.925 502.85 480.786 499.045 458.961 493.598C436.314 487.927 411.951 479.831 382.291 468.153C377.292 466.176 360.577 459.087 357.518 457.669C355.914 456.886 354.72 456.177 354.906 456.028C355.093 455.916 357.406 454.983 360.018 453.938C365.353 451.812 405.609 435.806 416.018 432.187C425.346 428.942 431.8 426.442 436.799 424.129C441.09 422.151 442.881 421.592 447.88 420.734C454.484 419.54 461.572 419.092 469.407 419.316C479.816 419.652 487.838 421.069 498.135 424.464C504.664 426.628 514.849 431.479 519.849 434.836C523.468 437.261 524.177 437.485 525.258 436.478C526.229 435.62 526.079 434.239 524.923 433.045C523.468 431.628 517.573 428.046 512.499 425.509C497.837 418.159 483.323 414.801 465.863 414.69L458.961 414.652L463.363 412.488C468.773 409.839 472.84 408.459 476.272 408.161C477.876 408.011 481.756 408.16 486.196 408.571C492.128 409.131 493.845 409.168 495.449 408.795C499.254 407.937 501.754 404.84 501.754 400.96C501.754 398.274 501.045 396.595 499.03 394.394C496.344 391.483 493.77 390.476 486.719 389.543C482.652 389.021 482.241 388.909 477.354 386.372C467.169 381.149 464.035 381.074 449.149 385.589C439.038 388.685 435.046 389.469 429.3 389.469C423.891 389.469 421.54 388.984 411.914 385.85C404.154 383.35 401.766 382.716 398.11 382.268C392.85 381.597 387.776 383.052 384.119 386.335L379.791 391.67L379.045 393.2C378.635 394.058 377.441 396.259 376.359 398.087C375.314 399.878 374.568 401.557 374.717 401.818C374.867 402.042 374.68 402.005 374.344 401.706C373.785 401.258 373.71 401.296 373.71 402.005C373.71 402.49 373.971 403.087 374.27 403.422C374.605 403.721 374.979 404.467 375.09 405.064C375.202 405.661 375.538 406.146 375.799 406.146C376.471 406.146 376.434 405.474 375.762 404.28C375.464 403.758 375.24 403.012 375.24 402.602C375.24 401.93 375.277 401.967 375.762 402.788C376.06 403.31 376.284 404.057 376.322 404.467C376.359 406.556 382.664 396.744 382.664 394.617L386.768 389.842C388.708 388.014 391.581 386.932 394.864 386.783C398.632 386.633 401.543 387.23 410.086 389.991C420.421 393.312 423.517 393.946 428.927 393.946C435.792 393.983 440.941 392.939 452.059 389.394C463.401 385.775 466.087 385.887 475.153 390.215L476.141 390.694C479.507 392.326 480.868 392.986 482.301 393.36C483.273 393.614 484.278 393.736 485.965 393.942L486.004 393.947L486.017 393.949L486.639 394.025L486.905 394.058C489.367 394.356 492.054 394.916 492.874 395.289C496.195 396.744 498.359 400.587 497.053 402.602C496.717 403.124 495.859 403.833 495.15 404.168C493.919 404.765 493.285 404.728 486.084 404.131C473.026 403.049 471.944 403.31 446.649 414.839C430.867 422.002 424.525 424.539 407.102 430.583C406.507 430.79 405.882 431.007 405.241 431.23L405.185 431.249L405.174 431.253C401.204 432.633 396.595 434.235 394.23 435.097L383 439.09L370.912 444.089L370.613 442.186C370.464 441.142 369.979 438.716 369.569 436.814C368.823 433.456 368.785 433.381 367.815 433.493C367.181 433.568 366.584 434.053 366.211 434.724C365.577 435.806 365.689 437.448 366.771 444.835L366.92 445.992L362.219 448.156C359.607 449.312 355.914 451.028 354.011 451.924C353.417 452.187 352.85 452.439 352.349 452.663C351.212 453.169 350.406 453.528 350.355 453.528C350.281 453.528 346.004 455.412 340.773 457.717L340.542 457.819C328.716 463.042 308.196 471.287 295.138 476.063C249.472 492.702 216.64 500.462 174.668 504.417C169.332 504.94 163.288 505.425 161.236 505.536C149.148 506.096 134.038 501.843 125.383 495.388C116.279 488.636 111.168 479.159 108.594 464.348C107.4 457.557 107.997 446.589 109.676 444.201C110.198 443.455 110.235 443.455 110.683 444.574C111.914 447.559 114.265 449.051 117.697 449.051C119.488 449.051 120.197 448.864 121.428 448.044C122.808 447.074 128.591 440.06 138.702 427.039C139.486 426.038 140.456 424.793 141.483 423.475L141.535 423.408L141.553 423.385L141.559 423.377L141.574 423.358C143.356 421.07 145.296 418.58 146.723 416.779C151.2 411.033 153.775 407.564 156.162 404.019C157.953 401.296 158.625 400.885 170.564 394.729C193.658 382.865 221.005 372.941 254.508 364.173C257.381 363.427 260.329 362.681 261.075 362.495C262.642 362.084 263.089 361.189 265.626 353.914C267.156 349.511 270.365 341.639 271.073 340.557C271.335 340.147 272.379 340.371 276.558 341.714C283.012 343.84 287.489 344.959 295.361 346.452C298.757 347.086 301.741 347.795 301.965 348.019L312.15 348.989C313.27 349.063 314.277 349.213 314.351 349.287C314.426 349.362 315.433 349.436 316.59 349.436C317.933 349.436 318.493 349.324 318.157 349.101C317.597 348.728 317.896 346.079 318.493 346.079C318.717 346.079 318.866 345.929 318.866 345.78C318.866 345.444 301.368 342.684 301.07 342.945ZM601.891 385.738C601.891 387.641 602.04 390.215 602.189 391.484C602.45 393.2 602.376 393.983 602.04 394.394C601.517 395.028 599.727 395.102 598.309 394.543C596.929 393.983 589.579 386.41 588.646 384.544C587.862 383.052 587.862 382.902 588.422 382.044C589.168 380.888 591.146 379.657 592.228 379.657C592.675 379.657 594.168 380.067 595.585 380.589C596.966 381.074 598.98 381.671 599.988 381.895L601.891 382.306V385.738ZM109.452 384.954C107.736 387.454 101.468 393.759 99.8261 394.617C97.5129 395.849 95.7594 395.326 95.7594 393.349C95.7967 392.677 96.0206 390.7 96.2817 388.872C96.5802 387.006 96.6548 384.992 96.5056 384.134L96.4886 384.038C96.2064 382.455 96.2051 382.448 97.9979 382.082C98.7068 381.932 100.572 381.298 102.102 380.701C105.758 379.246 107.251 379.396 109.34 381.485L110.832 382.977L109.452 384.954ZM536.637 392.565C536.936 393.498 537.16 394.319 537.085 394.356C537.011 394.431 535.593 393.759 533.951 392.864C519.55 384.88 495.672 374.993 475.526 368.613C465.676 365.517 453.812 362.084 446.499 360.219C442.507 359.211 439.187 358.353 439.15 358.279C439.095 358.224 438.611 356.905 437.944 355.083L437.94 355.073C437.704 354.428 437.444 353.72 437.172 352.981C434.896 346.489 432.583 340.632 431.277 338.132C430.307 336.266 430.27 335.931 430.009 327.424C429.71 317.649 429.375 313.881 427.882 304.106C426.95 297.913 426.875 296.533 426.912 286.571C426.95 271.312 427.733 265.38 432.732 244.226C435.232 233.406 437.247 224.116 437.918 219.863C438.142 218.259 438.478 216.916 438.627 216.804C438.739 216.729 439.336 218.968 439.896 221.84C442.395 234.6 445.679 246.427 450.603 260.716C455.342 274.408 455.64 275.341 457.505 282.355C460.453 293.622 462.206 297.316 470.489 309.815C478.063 321.306 488.658 334.961 503.918 352.794C506.268 355.555 511.156 361.375 514.737 365.666C524.288 377.194 526.751 380.104 531.638 385.775C534.66 389.245 536.227 391.409 536.637 392.565ZM258.65 220.385C259.023 218.296 259.433 216.617 259.545 216.617C259.694 216.617 260.067 218.296 260.44 220.385C260.776 222.437 262.231 229.377 263.686 235.757C270.924 267.991 271.223 269.969 271.26 286.012C271.297 296.98 271.223 298.212 270.29 304.479C268.798 314.292 268.462 318.022 268.163 327.797L267.865 336.565L265.44 341.975C264.097 344.959 262.194 349.735 261.224 352.608C260.217 355.481 259.321 357.943 259.172 358.092C259.06 358.279 255.777 359.211 251.897 360.219C243.54 362.383 242.644 362.644 232.869 365.554C216.603 370.441 203.06 375.217 189.031 381.037C183.286 383.425 165.303 391.931 162.878 393.424C160.751 394.729 160.677 394.58 161.983 391.857C162.505 390.775 165.116 387.417 167.989 384.134C170.787 380.962 175.787 375.068 179.107 371.076C182.39 367.084 187.464 361.04 190.337 357.644C216.528 326.865 227.646 312.053 235.07 297.913C237.869 292.615 238.727 290.19 240.891 282.131C242.644 275.49 243.428 272.953 247.905 260.082C252.792 245.905 256.672 231.541 258.65 220.385ZM296.257 -28.3897C296.555 -28.2778 297.115 -26.3377 297.749 -23.0173C298.757 -17.8313 301.704 1.83043 301.704 3.21085C301.704 4.18088 301.368 4.14358 299.801 3.09891C298.16 1.97964 297.115 0.114204 295.735 -4.25091C293.011 -12.72 291.743 -23.3903 293.048 -26.5243C293.571 -27.7182 295.287 -28.7628 296.257 -28.3897ZM401.505 -27.6435C401.953 -29.5836 404.602 -28.2405 405.422 -25.6662C406.542 -22.3084 404.714 -9.95914 401.953 -2.42277C401.057 0.114227 400.423 1.15887 399.043 2.53928C397.214 4.36742 396.468 4.74051 396.468 3.80779C396.468 1.49464 400.274 -22.1964 401.505 -27.6435Z" fill="#696969"/>
<path d="M347.183 445.842C346.437 445.096 343.975 443.567 341.289 442.223C335.095 439.127 333.006 437 332.372 433.269C332.111 431.814 332.036 431.74 330.208 431.329C326.701 430.546 324.5 428.606 322.41 424.427C321.851 423.308 321.291 422.301 321.142 422.189C321.03 422.077 320.508 421.069 319.985 419.95C319.463 418.831 318.418 417.189 317.635 416.331L316.18 414.764L317.933 412.6C318.903 411.406 320.209 409.354 320.806 408.011C321.44 406.668 322.336 404.803 322.783 403.87C323.268 402.9 323.604 401.743 323.492 401.258C323.38 400.55 323.38 400.512 323.641 401.035C323.903 401.669 323.977 401.669 324.835 400.885C326.663 399.281 329.051 397.975 330.618 397.714C332.148 397.49 332.222 397.416 332.446 395.961C332.782 393.946 334.237 391.483 335.767 390.327C336.401 389.842 338.975 388.424 341.438 387.193C344.311 385.775 346.437 384.395 347.37 383.462L348.788 381.97L351.101 383.873C352.444 385.029 354.608 386.335 356.361 387.118C362.517 389.73 364.681 391.745 365.577 395.625C366.099 397.677 366.024 397.639 368.897 398.124C369.718 398.236 370.986 398.983 372.404 400.176C373.635 401.221 374.755 402.042 374.904 402.042C375.053 402.042 375.202 402.266 375.202 402.527C375.202 403.087 377.03 407.638 378.112 409.765C378.56 410.586 379.567 412.003 380.425 412.899C381.246 413.794 381.918 414.578 381.918 414.652C381.918 414.727 381.172 415.66 380.239 416.742C379.343 417.824 377.739 420.472 376.732 422.674C374.046 428.457 371.285 431.105 367.405 431.74C365.95 431.964 365.875 432.075 365.875 433.232C365.875 436.217 362.666 439.463 356.996 442.186C354.645 443.305 352.071 444.872 351.175 445.693C350.28 446.514 349.31 447.186 349.011 447.186C348.713 447.186 347.892 446.589 347.183 445.842ZM350.653 442.634C351.175 442.261 353.488 441.03 355.727 439.91C360.577 437.523 362.405 436.068 362.741 434.314C363.114 432.299 362.816 432.187 360.838 433.605C358.488 435.284 357.033 435.881 353.824 436.59C347.631 437.896 341.363 436.664 336.774 433.195C335.207 432.038 334.983 432.449 335.841 434.724C336.588 436.664 337.856 437.634 343.303 440.395C345.355 441.44 347.444 442.634 347.967 443.044C348.9 443.79 348.974 443.79 350.653 442.634ZM355.652 433.456C356.697 433.083 357.966 432.449 358.451 432.113C359.271 431.553 358.712 431.516 349.347 431.516C343.863 431.516 339.386 431.628 339.386 431.74C339.386 432.001 342.594 433.419 344.609 433.978C347.034 434.687 353.227 434.426 355.652 433.456ZM331.551 428.68C331.551 428.568 331.141 427.934 330.655 427.3C328.081 423.868 326.701 419.39 326.701 414.466C326.701 409.354 327.783 405.959 330.618 402.266C331.364 401.258 331.924 400.438 331.849 400.363C331.775 400.326 330.954 400.475 329.947 400.736C327.148 401.445 326.029 402.788 323.716 408.198C323.007 409.839 321.888 411.891 321.216 412.749C320.545 413.645 319.985 414.54 319.985 414.727C319.985 414.913 320.657 415.958 321.478 417.04C322.298 418.122 323.418 420.099 323.977 421.442C325.582 425.36 326.663 426.74 328.902 427.897C330.917 428.904 331.551 429.091 331.551 428.68ZM362.778 428.419C363.189 427.971 363.413 404.952 363.002 402.602L362.704 400.736H335.468L335.356 414.615L335.282 428.494L337.595 428.643C342.035 428.904 362.443 428.718 362.778 428.419ZM369.606 427.934C371.285 427.113 372.516 425.434 374.605 421.069C375.725 418.719 377.068 416.294 377.59 415.697L378.523 414.652L377.441 413.272C376.844 412.526 375.501 410.138 374.456 407.937C373.411 405.735 372.106 403.385 371.546 402.751C370.464 401.445 368.673 400.55 367.181 400.55H366.211L367.554 402.228C370.501 405.81 372.329 413.16 371.509 418.122C371.024 420.995 369.196 425.434 367.517 427.598L366.509 428.942L367.591 428.68C368.188 428.531 369.084 428.195 369.606 427.934ZM367.591 421.89C368.934 418.607 369.27 412.973 368.3 409.653C367.703 407.489 366.323 404.653 365.912 404.653C365.8 404.653 365.688 409.242 365.688 414.876C365.688 426.069 365.763 426.33 367.591 421.89ZM332.558 414.69C332.633 403.534 332.596 403.31 330.581 407.75C329.76 409.616 329.499 410.735 329.387 413.496C329.312 415.398 329.424 417.749 329.648 418.719C330.096 420.584 331.924 424.8 332.26 424.8C332.372 424.8 332.521 420.249 332.558 414.69ZM359.159 397.901C359.159 397.49 355.652 396.11 352.929 395.476C348.9 394.543 342.855 395.401 340.095 397.341C339.311 397.863 339.348 397.901 340.729 398.013C343.676 398.236 359.159 398.162 359.159 397.901ZM337.595 395.699C341.102 393.424 344.348 392.528 349.086 392.528C353.862 392.528 357.219 393.461 360.614 395.737C361.883 396.595 363.04 397.192 363.151 397.042C363.674 396.52 362.032 393.424 360.652 392.342C359.346 391.297 354.048 388.611 353.302 388.611C353.153 388.611 352.108 387.939 351.026 387.118L349.049 385.589L347.892 386.559C347.258 387.118 345.131 388.275 343.154 389.208C338.602 391.334 337.11 392.379 336.14 394.132C335.282 395.662 334.759 397.192 335.058 397.192C335.17 397.192 336.289 396.52 337.595 395.699Z" fill="#A81312"/>
<path d="M340.436 423.443C337.003 418.331 336.929 413.444 340.249 411.205C342.04 409.974 345.174 409.937 347.525 411.056L349.166 411.877L351.255 410.87C353.382 409.825 353.755 409.377 353.755 407.81V406.915H346.293C338.869 406.915 338.794 406.915 338.496 406.094C337.862 404.341 338.048 404.303 346.331 404.303C353.009 404.303 354.128 404.229 354.128 403.744C354.128 402.997 355.844 402.997 356.106 403.706C356.255 404.079 357.001 404.303 358.307 404.378C360.247 404.49 360.284 404.527 360.21 405.572C360.098 406.99 359.948 407.064 358.232 406.989C356.814 406.878 356.74 406.952 356.703 408.034C356.665 408.631 356.628 409.303 356.591 409.527C356.553 409.713 357.15 410.198 357.859 410.571C359.799 411.616 360.918 413.742 360.732 416.13C360.583 418.257 358.904 421.95 357.188 424.04C356.255 425.159 356.031 425.234 355.322 424.86C354.166 424.263 354.277 423.741 356.068 420.868C357.299 418.891 357.673 417.958 357.784 416.279C357.896 414.414 357.822 414.078 356.964 413.295C356.292 412.66 355.583 412.362 354.725 412.399C353.494 412.437 350.994 413.742 350.062 414.899C349.39 415.72 348.793 415.645 347.935 414.712C346.331 412.922 343.197 412.287 341.592 413.444C339.839 414.638 340.249 418.704 342.413 421.913C343.868 424.077 343.906 424.972 342.562 425.122C341.816 425.196 341.406 424.823 340.436 423.443Z" fill="#A81312"/>
<rect width="699" height="383" rx="54" fill="url(#paint0_linear_1314_927)"/>
<path d="M0 54C0 24.1766 24.1766 0 54 0H645C674.823 0 699 24.1766 699 54V329C699 358.823 674.823 383 645 383H54C24.1766 383 0 358.823 0 329V54Z" fill="url(#paint1_linear_1314_927)"/>
</g>
<defs>
<linearGradient id="paint0_linear_1314_927" x1="349" y1="255.5" x2="349" y2="364.5" gradientUnits="userSpaceOnUse">
<stop stop-color="#FFFFFF" stop-opacity="0"/>
<stop offset="1" stop-color="#FFFFFF"/>
</linearGradient>
<linearGradient id="paint1_linear_1314_927" x1="349" y1="-6.65889e-06" x2="349" y2="65" gradientUnits="userSpaceOnUse">
<stop stop-color="#FFFFFF"/>
<stop offset="1" stop-color="#FFFFFF" stop-opacity="0"/>
</linearGradient>
</defs>
</svg>
