<svg width="699" height="383" viewBox="0 0 699 383" fill="none" xmlns="http://www.w3.org/2000/svg">
<rect width="699" height="383" rx="54" fill="#FFFFFF"/>
<mask id="mask0_1314_891" style="mask-type:alpha" maskUnits="userSpaceOnUse" x="0" y="0" width="699" height="383">
<rect width="699" height="383" rx="54" fill="#0E0E0E"/>
</mask>
<g mask="url(#mask0_1314_891)">
<path d="M349.002 23.5723C353.398 23.5723 356.962 27.136 356.962 31.5317C356.962 35.4172 354.177 38.6504 350.494 39.3491L350.494 593.046C354.177 593.745 356.962 596.978 356.962 600.864C356.962 605.26 353.398 608.823 349.002 608.823C344.606 608.823 341.043 605.26 341.043 600.864C341.043 596.978 343.827 593.745 347.51 593.046L347.51 39.3491C343.828 38.6504 341.043 35.4172 341.043 31.5317C341.043 27.136 344.606 23.5723 349.002 23.5723Z" fill="#B7B7B7"/>
<path d="M357.21 518.038C357.21 522.572 353.535 526.246 349.002 526.246C344.469 526.246 340.794 522.572 340.794 518.038C340.794 513.505 344.469 509.831 349.002 509.831C353.535 509.831 357.21 513.505 357.21 518.038Z" fill="#B7B7B7"/>
<path d="M357.21 442.675C357.21 447.208 353.535 450.883 349.002 450.883C344.469 450.883 340.794 447.208 340.794 442.675C340.794 438.142 344.469 434.467 349.002 434.467C353.535 434.467 357.21 438.142 357.21 442.675Z" fill="#B7B7B7"/>
<path d="M357.21 361.341C357.21 365.875 353.535 369.549 349.002 369.549C344.469 369.549 340.794 365.875 340.794 361.341C340.794 356.808 344.469 353.134 349.002 353.134C353.535 353.134 357.21 356.808 357.21 361.341Z" fill="#B7B7B7"/>
<path d="M357.21 282.247C357.21 286.78 353.535 290.455 349.002 290.455C344.469 290.455 340.794 286.78 340.794 282.247C340.794 277.714 344.469 274.039 349.002 274.039C353.535 274.039 357.21 277.714 357.21 282.247Z" fill="#B7B7B7"/>
<path d="M357.21 137.489C357.21 142.022 353.535 145.697 349.002 145.697C344.469 145.697 340.794 142.022 340.794 137.489C340.794 132.956 344.469 129.281 349.002 129.281C353.535 129.281 357.21 132.956 357.21 137.489Z" fill="#B7B7B7"/>
<path d="M346.213 310.882L343.564 308.233L340.356 309.651C338.602 310.434 337.073 310.994 337.035 310.919C336.961 310.845 336.327 309.352 335.618 307.599L334.312 304.428H330.805H327.26L327.223 300.697L327.186 296.966L323.94 295.921C320.172 294.69 320.321 295.101 322.149 290.362L323.231 287.527L320.881 285.176C319.575 283.871 318.493 282.639 318.493 282.416C318.493 282.229 319.575 281.035 320.918 279.804L323.343 277.565L322.037 274.208C321.328 272.379 320.769 270.701 320.881 270.477C320.955 270.29 322.261 269.693 323.753 269.208C325.283 268.686 326.664 268.164 326.85 268.014C327.037 267.828 327.223 266.074 327.223 264.06L327.26 260.403L330.842 260.553L334.424 260.664L335.618 257.456C336.289 255.702 336.998 254.173 337.185 254.024C337.408 253.912 338.826 254.397 340.393 255.143C341.923 255.889 343.378 256.486 343.639 256.486C343.863 256.486 345.169 255.404 346.475 254.061C347.78 252.718 349.086 251.636 349.347 251.636C349.571 251.636 350.69 252.718 351.772 254.024C352.854 255.367 353.936 256.449 354.123 256.449C354.347 256.486 355.914 255.889 357.63 255.18C359.346 254.434 360.876 253.949 360.988 254.061C361.1 254.21 361.808 255.665 362.555 257.344L363.86 260.403L367.405 260.441H370.912L371.098 264.171L371.285 267.865L374.27 269.059C377.739 270.439 377.739 270.402 376.098 274.805L375.016 277.677L377.59 280.028L380.127 282.416L377.627 285.139L375.09 287.863L376.284 290.847C376.919 292.489 377.441 294.093 377.441 294.354C377.441 294.69 376.284 295.25 374.27 295.847L371.136 296.817L371.024 300.622L370.912 304.428H367.405H363.898L362.592 307.711C361.585 310.136 361.1 310.957 360.652 310.845C360.353 310.733 358.786 310.099 357.145 309.427L354.235 308.159L351.735 310.882C350.392 312.374 349.198 313.568 349.086 313.568C348.974 313.568 347.706 312.374 346.213 310.882ZM351.026 307.711C351.772 306.741 352.332 305.845 352.22 305.659C351.884 305.137 345.728 305.286 345.728 305.808C345.728 306.368 348.713 309.464 349.273 309.464C349.459 309.427 350.28 308.644 351.026 307.711ZM341.55 306.181C342.445 305.696 343.117 305.137 343.042 304.913C342.856 304.39 337.259 302.525 336.923 302.861C336.662 303.122 337.744 306.33 338.341 307.114C338.714 307.599 339.087 307.487 341.55 306.181ZM360.503 305.174C360.876 304.055 361.062 303.01 360.913 302.898C360.615 302.562 355.317 304.689 355.167 305.211C355.018 305.622 359.122 307.599 359.607 307.338C359.756 307.263 360.167 306.293 360.503 305.174ZM343.826 297.302C336.886 284.878 331.029 275.14 330.506 275.14C329.984 275.14 328.939 280.513 328.939 283.012C328.939 285.885 329.797 289.168 331.253 292.078C332.558 294.69 336.14 298.384 338.789 299.951C340.804 301.107 346.213 302.861 346.4 302.376C346.437 302.226 345.281 299.951 343.826 297.302ZM353.974 302.152C357.033 301.256 361.585 298.757 363.301 297.003C368.375 292.004 370.427 285.064 368.897 278.088C367.964 273.797 368.076 273.723 362.144 283.759C353.638 298.123 351.325 302.115 351.325 302.45C351.325 302.861 351.66 302.823 353.974 302.152ZM334.498 301.406C334.871 301.294 334.349 300.548 332.857 299.018C331.626 297.787 330.544 296.779 330.394 296.779C330.096 296.779 329.611 301.219 329.872 301.667C330.059 301.928 333.342 301.779 334.498 301.406ZM368.412 299.801C368.561 297.078 368.375 296.667 367.256 297.19C366.285 297.637 363.637 300.585 363.637 301.219C363.637 301.63 365.129 301.928 366.994 301.853L368.3 301.816L368.412 299.801ZM351.399 296.705C352.556 294.578 353.451 292.825 353.414 292.787C353.339 292.713 352.78 292.862 352.108 293.086C350.877 293.534 346.101 293.384 344.87 292.862C344.385 292.675 344.572 293.198 345.579 294.951C347.37 298.16 348.862 300.51 349.086 300.51C349.198 300.51 350.243 298.794 351.399 296.705ZM328.939 294.168C328.939 293.645 327.037 288.833 326.664 288.422C326.365 288.124 324.686 291.258 324.388 292.638C324.313 293.011 324.947 293.384 326.328 293.832C328.79 294.615 328.939 294.653 328.939 294.168ZM372.516 293.72C373.374 293.496 374.083 293.16 374.083 292.974C374.083 292.489 372.292 289.019 371.919 288.795C371.658 288.646 369.233 293.496 369.233 294.242C369.233 294.466 369.867 294.392 372.516 293.72ZM352.556 290.213C356.1 288.422 357.667 285.997 357.667 282.341C357.63 278.461 354.981 275.028 351.213 273.984C348.265 273.163 344.012 274.73 342.109 277.304C340.505 279.505 340.02 283.274 341.027 285.699C341.699 287.34 343.676 289.28 345.542 290.101C347.445 290.959 350.952 291.034 352.556 290.213ZM326.328 282.602C326.328 279.058 326.067 278.908 323.679 281.11L322.037 282.602L323.716 284.094C326.141 286.221 326.328 286.109 326.328 282.602ZM374.605 284.206C375.501 283.423 376.284 282.677 376.284 282.565C376.322 282.154 372.852 279.58 372.441 279.729C371.994 279.879 371.658 284.206 371.994 285.064C372.292 285.848 372.777 285.699 374.605 284.206ZM340.281 275.663C341.027 274.693 341.624 273.76 341.624 273.573C341.624 273.424 339.796 273.275 337.52 273.275C335.282 273.275 333.416 273.424 333.416 273.611C333.416 273.797 334.386 275.551 335.543 277.565L337.67 281.222L338.267 279.319C338.64 278.237 339.498 276.595 340.281 275.663ZM361.808 279.543C362.256 278.647 363.189 277.043 363.86 275.961C364.569 274.879 365.129 273.834 365.129 273.648C365.129 273.424 363.338 273.275 360.652 273.275C358.189 273.275 356.175 273.387 356.175 273.499C356.175 273.611 356.585 274.058 357.07 274.431C358.078 275.215 360.279 279.356 360.279 280.438C360.279 281.595 360.988 281.184 361.808 279.543ZM328.156 273.834C328.865 272.305 329.312 270.924 329.201 270.812C328.939 270.551 324.761 271.409 324.313 271.82C323.753 272.342 325.992 277.267 326.626 276.856C326.775 276.782 327.484 275.401 328.156 273.834ZM373.113 274.543C373.673 273.387 374.046 272.23 373.971 271.969C373.785 271.521 371.285 270.663 370.016 270.663C369.606 270.663 369.233 270.85 369.233 271.111C369.233 272.006 371.285 276.633 371.695 276.633C371.956 276.633 372.591 275.7 373.113 274.543ZM357.593 270.701C361.734 270.663 365.129 270.514 365.129 270.365C365.129 269.73 361.547 266.41 359.421 265.03C353.862 261.411 346.064 261.187 339.983 264.433C337.856 265.552 333.043 269.656 333.043 270.327C333.043 270.663 339.983 270.924 346.288 270.812C348.34 270.775 353.414 270.738 357.593 270.701ZM332.82 266.298C333.976 265.253 334.909 264.209 334.909 264.022C334.909 263.612 333.118 263.201 331.141 263.201C329.872 263.201 329.686 263.313 329.686 264.097C329.686 265.738 330.171 268.462 330.432 268.35C330.581 268.275 331.663 267.38 332.82 266.298ZM368.114 267.231C368.114 266.559 368.226 265.365 368.337 264.619L368.599 263.201H366.957C365.092 263.201 363.637 263.537 363.637 263.91C363.637 264.321 367.405 268.425 367.778 268.425C367.964 268.425 368.114 267.865 368.114 267.231ZM340.281 261.149C341.848 260.441 343.117 259.769 343.117 259.657C343.117 259.359 339.46 257.605 338.864 257.605C338.341 257.605 337.819 258.836 337.334 261.261C337.185 261.896 337.147 262.455 337.259 262.455C337.334 262.455 338.714 261.858 340.281 261.149ZM361.211 261.635C360.54 259.209 359.719 257.232 359.421 257.232C358.861 257.232 355.429 259.172 355.429 259.508C355.429 259.918 355.988 260.254 358.6 261.373C361.398 262.642 361.51 262.642 361.211 261.635ZM351.884 258.463C351.063 257.157 349.422 255.367 349.049 255.367C348.75 255.367 346.101 258.874 346.101 259.247C346.101 259.359 347.556 259.471 349.31 259.471H352.519L351.884 258.463Z" fill="#0F9EE2"/>
<path d="M345.393 390.051C342.408 387.215 341.811 386.767 341.177 387.103C340.431 387.514 334.387 388.894 333.342 388.931C332.932 388.931 332.67 388.67 332.67 388.26C332.67 387.887 332.26 386.32 331.738 384.827C331.215 383.335 330.805 381.693 330.805 381.208C330.805 380.164 330.395 379.94 325.395 378.634C323.343 378.112 321.627 377.627 321.552 377.552C321.403 377.403 322.896 370.128 323.306 369.046C323.604 368.3 323.231 367.777 320.321 364.793L317.001 361.36L320.321 357.928C323.119 355.092 323.642 354.383 323.306 353.824C322.933 353.115 321.366 345.616 321.552 345.467C322 345.094 328.678 343.042 329.425 343.042C330.208 343.042 330.432 342.818 330.618 341.81C330.73 341.176 331.365 339.05 331.999 337.147C332.894 334.386 333.23 333.714 333.715 333.864C334.088 333.976 335.357 334.237 336.588 334.461C337.819 334.647 339.647 335.095 340.655 335.431C342.408 336.027 342.483 336.028 342.856 335.356C343.08 334.946 344.012 333.976 344.945 333.155C345.878 332.334 347.221 331.103 347.892 330.469L349.161 329.237L351.25 331.215C352.407 332.259 353.936 333.752 354.683 334.535L355.988 335.878L359.16 335.057C360.913 334.572 362.928 334.087 363.711 333.938L365.054 333.677L366.211 337.147C366.808 339.05 367.368 341.139 367.442 341.736C367.554 342.78 367.666 342.855 369.42 343.079C370.464 343.228 372.031 343.676 372.964 344.124C373.897 344.534 375.016 344.907 375.501 344.907C375.949 344.907 376.434 345.131 376.508 345.392C376.769 345.989 375.426 352.742 374.867 353.787C374.456 354.533 374.568 354.719 375.538 355.54C376.135 356.062 377.628 357.629 378.859 359.01L381.097 361.547L377.963 364.867L374.829 368.188L375.762 372.851C376.844 378.298 376.807 377.739 376.247 377.739C375.986 377.739 373.971 378.261 371.77 378.933L367.778 380.127L367.368 382.029C366.696 385.35 365.241 389.118 364.719 389.043C361.659 388.484 358.712 387.849 357.481 387.476L355.988 387.029L352.631 390.237C350.803 391.991 349.198 393.408 349.086 393.408C348.974 393.408 347.333 391.916 345.393 390.051ZM350.243 388.894C351.511 387.999 354.011 384.865 353.75 384.454C353.675 384.305 352.519 384.342 351.25 384.529C349.944 384.715 347.93 384.753 346.773 384.641C345.281 384.492 344.609 384.566 344.609 384.827C344.609 385.238 348.639 389.678 348.974 389.678C349.086 389.678 349.646 389.342 350.243 388.894ZM338.976 385.089C340.319 384.641 341.438 384.119 341.513 383.895C341.625 383.559 333.417 379.119 333.155 379.38C333.006 379.53 334.499 384.417 334.946 385.312C335.394 386.133 336.066 386.096 338.976 385.089ZM364.01 383.82C365.763 379.082 365.39 378.522 362.032 380.686C360.764 381.544 359.01 382.514 358.152 382.813C357.257 383.149 356.548 383.559 356.548 383.745C356.548 383.895 357.443 384.342 358.525 384.753C359.57 385.163 360.727 385.574 361.025 385.686C362.704 386.282 363.189 385.984 364.01 383.82ZM345.915 379.53C345.318 378.448 344.311 376.545 343.639 375.314L342.445 373.075L338.938 372.963C337.036 372.926 334.797 373.001 333.976 373.187L332.521 373.486L335.133 376.172C338.08 379.119 340.356 380.388 344.273 381.208C345.579 381.507 346.736 381.656 346.81 381.582C346.885 381.544 346.475 380.574 345.915 379.53ZM355.466 380.873C356.585 380.537 358.227 379.865 359.16 379.306C361.137 378.186 365.502 374.12 365.502 373.374C365.502 372.814 362.331 372.702 357.928 373.15L355.429 373.374L353.899 376.396C353.041 378.075 352.108 379.753 351.847 380.164C351.549 380.574 351.325 381.022 351.325 381.171C351.325 381.656 353.302 381.507 355.466 380.873ZM350.765 376.508C351.586 375.052 352.295 373.597 352.369 373.374C352.481 373.001 351.623 372.889 349.086 372.889C346.549 372.889 345.691 373.001 345.803 373.374C345.99 374.045 348.862 379.231 349.086 379.231C349.198 379.231 349.944 378 350.765 376.508ZM330.469 375.351C329.835 374.456 328.716 372.516 328.007 371.06C327.261 369.605 326.514 368.486 326.365 368.598C326.029 368.785 324.649 375.426 324.873 375.649C325.283 376.06 331.365 377.59 331.477 377.328C331.551 377.142 331.103 376.284 330.469 375.351ZM370.315 376.433C373.785 375.314 373.747 375.388 372.591 371.62C371.77 368.971 370.949 368.412 370.539 370.277C370.427 370.874 369.643 372.366 368.86 373.56C366.92 376.619 366.51 377.366 366.957 377.366C367.181 377.366 368.673 376.955 370.315 376.433ZM340.505 370.128C340.505 369.382 337.744 364.606 337.334 364.606C336.998 364.569 334.2 369.382 334.163 369.978C334.163 370.314 335.655 370.538 338.379 370.613C339.983 370.65 340.505 370.538 340.505 370.128ZM354.123 370.352C354.347 370.202 355.578 368.15 356.884 365.8L359.234 361.509L357.817 358.898C357.033 357.48 355.839 355.391 355.168 354.346L353.899 352.369H349.086H344.273L342.893 354.533C342.147 355.689 340.916 357.741 340.207 359.01L338.901 361.397L340.505 364.42C343.602 370.277 343.565 370.24 345.99 370.389C350.206 370.65 353.75 370.65 354.123 370.352ZM363.002 370.277H364.42L363.189 368.113C360.727 363.785 361.062 363.86 359.234 367.031C358.376 368.561 357.667 370.016 357.667 370.277C357.667 370.65 358.19 370.687 359.645 370.501C360.689 370.389 362.219 370.277 363.002 370.277ZM332.223 367.591C332.857 366.285 333.864 364.42 334.461 363.375L335.581 361.509L333.305 357.331C332.036 355.018 330.842 353.19 330.618 353.264C330.096 353.413 328.94 357.443 328.716 360.017C328.566 361.435 328.716 363.151 329.089 364.755C329.686 367.292 330.618 369.904 330.954 369.904C331.029 369.904 331.626 368.859 332.223 367.591ZM368.263 368.337C369.308 365.651 369.793 361.248 369.308 358.599C368.86 356.174 367.778 353.115 367.405 353.115C367.256 353.115 366.136 354.98 364.868 357.256L362.555 361.435L363.861 363.711C364.569 364.979 365.614 366.882 366.136 367.964C366.696 369.009 367.256 369.904 367.405 369.904C367.517 369.904 367.927 369.195 368.263 368.337ZM326.104 361.323C326.067 358.86 325.992 356.771 325.88 356.659C325.806 356.585 324.612 357.629 323.231 359.01L320.694 361.547L322.933 363.673C324.164 364.83 325.358 365.8 325.656 365.8C326.029 365.8 326.141 364.793 326.104 361.323ZM375.352 363.524L377.628 361.286L375.314 359.047C374.083 357.853 372.815 356.846 372.516 356.846C372.143 356.846 372.031 357.816 372.031 361.323C372.031 364.942 372.143 365.8 372.554 365.8C372.852 365.8 374.121 364.793 375.352 363.524ZM339.386 355.279L340.953 352.369H337.334C335.357 352.369 333.79 352.481 333.864 352.667C334.722 354.57 337.297 358.674 337.521 358.45C337.67 358.301 338.528 356.846 339.386 355.279ZM362.667 355.727C363.599 354.085 364.383 352.63 364.383 352.443C364.383 352.182 357.667 352.294 357.369 352.555C357.294 352.63 360.727 358.674 360.876 358.711C360.913 358.711 361.697 357.368 362.667 355.727ZM327.186 353.04C327.447 352.555 328.566 350.69 329.648 348.899C330.73 347.071 331.551 345.504 331.439 345.429C331.327 345.317 329.872 345.579 328.193 345.989C326.477 346.437 325.059 346.772 324.985 346.772C324.649 346.772 324.873 348.824 325.433 351.287C325.731 352.705 326.179 353.861 326.365 353.861C326.552 353.861 326.925 353.488 327.186 353.04ZM372.554 351.138C373.785 347.257 373.71 347.146 370.166 346.362C368.561 345.989 367.106 345.765 366.957 345.877C366.808 345.952 367.442 347.146 368.375 348.526C369.308 349.906 370.315 351.66 370.613 352.443C370.912 353.227 371.285 353.861 371.434 353.861C371.584 353.861 372.106 352.63 372.554 351.138ZM344.833 345.467C346.139 343.228 347.034 341.288 346.81 341.251C345.878 340.915 340.804 342.445 338.752 343.676C336.103 345.243 332.447 348.75 332.857 349.347C333.006 349.645 334.61 349.757 337.782 349.683L342.445 349.571L344.833 345.467ZM350.877 346.623C350.019 344.87 349.161 343.564 349.012 343.638C348.751 343.788 346.549 347.817 345.803 349.496C345.729 349.645 347.184 349.757 349.049 349.757H352.444L350.877 346.623ZM365.539 349.048C364.793 347.705 360.652 344.198 358.6 343.228C356.697 342.333 351.325 340.766 351.026 341.027C350.84 341.139 351.362 342.109 353.825 346.325L355.839 349.757H360.876C365.651 349.757 365.875 349.72 365.539 349.048ZM336.14 342.221C337.558 341.363 339.237 340.393 339.871 340.094C341.625 339.199 341.513 338.676 339.349 338.042C336.289 337.109 334.984 337.221 334.499 338.453C333.902 340.057 333.081 343.788 333.342 343.788C333.454 343.788 334.722 343.079 336.14 342.221ZM364.756 343.191C364.756 342.109 363.562 337.445 363.226 337.259C362.704 336.923 356.921 338.527 356.921 338.975C356.921 339.161 357.705 339.721 358.712 340.206C359.682 340.728 361.324 341.698 362.331 342.445C364.458 343.937 364.756 344.012 364.756 343.191ZM353.936 338.005C353.936 337.333 349.87 333.341 349.161 333.341C348.9 333.341 347.631 334.386 346.363 335.692L344.05 338.005L347.407 338.229C353.787 338.602 353.936 338.602 353.936 338.005Z" fill="#398D18"/>
<path fill-rule="evenodd" clip-rule="evenodd" d="M403.048 150.74C403.068 150.652 403.089 150.56 403.111 150.464L403.108 150.48C403.087 150.57 403.067 150.657 403.048 150.74ZM612.485 572.273C612.535 572.414 612.585 572.557 612.635 572.7L612.622 572.661C612.576 572.531 612.53 572.402 612.485 572.273Z" fill="#696969"/>
<path d="M383.901 119.943L385.073 115.704L312.953 115.826L315.359 119.377L383.901 119.943Z" fill="#696969"/>
<path d="M300.09 98.0601L303.237 101.329C303.237 101.329 310.438 81.8989 347.755 81.8989C385.073 81.8989 392.273 98.5797 392.273 98.5797L394.028 94.4852C394.028 94.4852 385.073 77.7949 347.755 77.7949C310.438 77.7949 300.09 98.0601 300.09 98.0601Z" fill="#696969"/>
<path d="M172.765 621.142C171.683 619.501 172.392 618.493 176.458 615.732C180.786 612.822 188.435 608.942 194.329 606.666C205.671 602.227 219.289 599.727 232.496 599.727C238.428 599.69 239.137 599.652 238.503 599.167C237.384 598.309 227.497 594.243 224.997 593.608C222.05 592.862 217.386 592.862 210.969 593.608C207.872 593.981 205 594.131 203.768 593.944C199.478 593.422 196.456 590.027 196.456 585.699C196.456 582.975 197.538 580.811 200.075 578.461C202.575 576.222 205.074 575.327 211.379 574.581C215.521 574.059 215.782 573.984 221.266 571.223C231.302 566.112 234.026 566.074 249.248 570.589C259.471 573.648 263.91 574.506 269.245 574.469C274.506 574.432 276.931 573.909 286.37 570.813C295.026 568.014 295.847 567.791 299.503 567.268C304.577 566.559 310.248 567.977 313.568 570.813C315.434 572.38 317.784 575.625 320.172 579.953C321.329 582.117 322.634 584.318 323.007 584.878C323.418 585.4 323.716 586.035 323.716 586.296C323.716 586.52 323.903 586.594 324.089 586.482C324.761 586.072 324.462 587.266 323.716 588.087C322.709 589.169 322.448 589.131 323.194 587.975C323.977 586.781 323.53 585.997 322.56 586.93C322.187 587.303 321.627 587.825 321.291 588.087C320.806 588.497 320.806 588.721 321.142 589.131C321.366 589.43 321.515 589.766 321.403 589.84C321.067 590.213 318.195 585.923 316.068 581.856C312.636 575.252 309.8 572.715 304.838 571.745C301.592 571.111 298.719 571.633 288.907 574.767C276.073 578.834 271.857 579.58 265.141 578.834C259.769 578.274 253.874 576.894 246.487 574.544C234.697 570.738 232.16 570.85 223.02 575.252C216.64 578.312 215.558 578.685 211.417 579.021C207.499 579.356 204.925 580.14 203.395 581.52C200.635 583.945 200.075 586.855 202.052 588.609C203.47 589.877 203.992 589.915 213.021 589.019C223.281 588.049 225.296 588.422 238.018 593.795C241.861 595.436 247.532 597.75 250.666 599.018L256.299 601.257L267.156 602.712C283.721 604.913 285.176 605.062 295.175 605.025C302.152 605.025 306.107 604.838 310.845 604.241C314.314 603.831 317.299 603.607 317.486 603.794C317.672 603.98 317.859 604.353 317.896 604.614C318.232 606.368 318.642 607.189 319.165 607.189C320.545 607.189 319.09 607.636 316.031 608.121C309.427 609.166 303.57 609.539 294.615 609.539C285.587 609.539 278.461 608.942 267.753 607.375C248.278 604.503 234.101 603.607 223.356 604.614C207.425 606.032 191.345 611.479 179.107 619.538C176.943 620.956 174.78 622.112 174.295 622.112C173.735 622.112 173.138 621.739 172.765 621.142Z" fill="#696969"/>
<path d="M342.93 220.744C341.251 220.184 341.065 219.998 341.065 218.991C341.065 217.685 341.102 217.685 346.176 218.394C349.347 218.841 350.131 218.804 355.429 217.834C356.623 217.647 356.809 217.722 357.182 218.543C358.078 220.483 355.391 221.416 348.9 221.378C346.027 221.378 344.236 221.192 342.93 220.744Z" fill="#696969"/>
<path d="M338.155 212.648C334.013 212.126 333.043 211.753 333.043 210.559C333.043 209.141 334.237 208.805 337.409 209.365C342.259 210.148 351.325 210.41 356.361 209.813C358.824 209.551 361.771 209.328 362.89 209.29C364.831 209.29 364.942 209.328 365.054 210.26C365.204 211.603 364.532 212.014 361.547 212.462C357.369 213.133 342.781 213.245 338.155 212.648Z" fill="#696969"/>
<path d="M344.311 197.874C341.475 196.755 340.356 196.12 340.057 195.449C339.759 194.814 339.759 194.441 340.132 193.994C340.804 193.173 341.624 193.285 344.46 194.628C348.303 196.419 350.093 196.419 353.712 194.628C355.317 193.807 356.958 193.248 357.331 193.322C358.115 193.546 358.525 194.553 358.189 195.449C357.816 196.419 350.765 199.403 348.937 199.403C348.489 199.403 346.437 198.695 344.311 197.874Z" fill="#696969"/>
<path d="M352.257 185.077C351.772 184.704 351.698 183.286 351.772 173.847L351.884 163.027H354.123L354.235 174.071C354.309 184.816 354.309 185.152 353.6 185.338C353.19 185.45 352.593 185.338 352.257 185.077Z" fill="#696969"/>
<path d="M323.156 173.399C317.597 172.168 314.314 169.78 315.956 168.139C316.627 167.467 317.56 167.579 319.538 168.586C323.679 170.676 328.827 170.788 333.566 168.81C335.841 167.84 336.513 167.728 337.147 168.064C337.707 168.363 337.893 168.773 337.819 169.482C337.744 170.303 337.259 170.713 335.319 171.646C334.013 172.317 332.036 173.026 330.879 173.25C328.865 173.66 324.649 173.735 323.156 173.399Z" fill="#696969"/>
<path d="M366.994 173.138C364.159 172.392 361.734 171.31 360.876 170.377C360.204 169.631 360.204 169.519 360.801 168.624C361.137 168.101 361.585 167.691 361.734 167.691C361.92 167.691 363.413 168.213 365.017 168.885C367.629 169.967 368.337 170.079 371.658 170.116C375.202 170.116 375.538 170.041 378.262 168.736C380.836 167.504 381.172 167.43 381.881 167.915C384.716 169.93 379.12 173.25 372.404 173.511C370.315 173.586 368.263 173.437 366.994 173.138Z" fill="#696969"/>
<path d="M358.376 159.334C357.406 158.849 357.107 158.028 357.443 156.685C357.704 155.64 360.017 154.633 365.278 153.327C372.068 151.611 379.605 152.208 385.723 154.931C388.447 156.2 389.081 157.095 388.111 158.513C387.253 159.819 386.432 159.856 383.41 158.625C378.97 156.871 374.531 156.237 370.165 156.797C368.151 157.058 365.353 157.692 363.86 158.177C359.271 159.819 359.309 159.819 358.376 159.334Z" fill="#696969"/>
<path d="M310.099 158.588C308.867 156.759 310.024 155.64 314.949 153.961C318.829 152.656 321.552 152.282 326.216 152.469C332.82 152.73 340.468 155.006 341.065 156.871C341.401 157.916 340.356 159.483 339.311 159.483C338.901 159.483 336.924 158.961 334.946 158.326C327.82 156.051 322.187 156.013 316.18 158.215C312.113 159.707 310.882 159.782 310.099 158.588Z" fill="#696969"/>
<path fill-rule="evenodd" clip-rule="evenodd" d="M228.206 685.873C200.075 691.73 165.378 695.909 153.775 694.864C137.657 693.447 122.734 686.507 115.011 676.919C111.877 673.001 107.81 664.905 106.206 659.421C104.378 653.19 103.52 647.594 103.445 641.811C103.408 638.118 103.296 636.663 102.96 636.663C102.736 636.663 102.438 636.812 102.326 636.998C101.841 637.745 98.5576 638.192 96.7668 637.782C94.6401 637.222 92.2151 635.208 91.6554 633.491C91.4316 632.782 91.0958 632.186 90.9466 632.186C90.7973 632.186 90.2004 632.708 89.5662 633.342C85.6487 637.483 79.4928 636.737 77.0304 631.85C75.8365 629.537 75.6873 627.298 76.5454 625.246C77.1423 623.791 79.9032 620.135 86.2457 612.412C88.5215 609.651 91.2824 606.219 92.4016 604.764L92.4821 604.662C93.5929 603.255 95.0697 601.384 95.834 600.51C96.6175 599.615 97.2518 598.757 97.2518 598.645C97.2518 598.496 95.3863 598.197 93.0732 597.936C88.0738 597.414 85.3876 596.294 84.0071 594.205C82.776 592.265 79.6793 582.453 79.4555 579.767C79.3062 578.051 79.4555 577.006 80.0897 575.29C80.5374 574.058 81.6567 570.962 82.5148 568.425C83.4102 565.888 84.2683 563.687 84.4922 563.463C84.6787 563.276 84.7533 561.933 84.6787 560.441C84.4175 556.71 85.1264 555.74 89.79 553.277C91.7674 552.27 94.6775 550.554 96.319 549.509C97.9606 548.465 99.8261 547.457 100.423 547.233C101.057 547.01 104.415 546.711 107.885 546.599C111.392 546.487 115.757 546.226 117.585 545.965C122.361 545.368 128.74 545.741 132.882 546.86C134.747 547.383 136.277 547.793 136.277 547.756C136.293 547.74 136.484 547.481 136.79 547.067L136.795 547.06C137.213 546.495 137.846 545.639 138.553 544.696C147.544 532.534 153.215 521.64 164.669 494.703C171.981 477.503 177.69 467.766 187.987 454.894C190.673 451.574 193.173 448.104 193.583 447.246C194.329 445.53 194.59 443.851 195.784 431.651C197.874 410.086 200.821 392.887 205.522 374.829C207.275 367.965 207.425 367.181 207.462 362.816C207.462 360.242 207.275 355.578 207.014 352.444C204.776 324.574 210.335 304.577 224.102 290.773C232.347 282.49 239.585 278.722 254.658 274.767C258.575 273.76 263.089 272.417 264.656 271.783C266.261 271.148 272.454 268.014 278.386 264.806C307.524 249.099 307.785 248.912 309.949 245.778C312.188 242.532 312.3 241.973 312.449 230.258L312.598 219.55L310.733 217.013C306.703 211.566 304.913 207.313 303.607 199.777C303.159 197.202 302.711 194.74 302.599 194.292C302.487 193.733 302.152 193.434 301.629 193.434C298.458 193.434 294.988 190.711 293.198 186.793C290.735 181.458 288.161 169.556 288.124 163.214C288.086 159.297 288.161 158.737 289.094 156.797C290.138 154.558 292.414 152.506 294.354 152.133C295.511 151.909 295.548 151.574 294.802 148.701C294.093 145.903 292.153 134.076 291.668 129.561C290.287 116.876 292.451 106.99 298.234 99.9009C298.601 99.4371 299.289 98.763 300.09 98.0601L303.237 101.329C299.406 104.903 297.219 109.503 296.294 115.794C295.399 121.727 295.623 127.099 297.264 136.911C297.973 141.127 299.652 149.298 300.062 150.529C300.174 150.827 300.622 149.969 301.107 148.664C301.555 147.32 302.413 145.231 303.01 144C304.987 139.709 305.136 139.038 305.099 133.889C305.062 127.92 305.435 125.719 307.076 122.361C308.505 119.469 310.492 117.291 312.953 115.826L315.359 119.377C313.411 120.666 311.703 122.597 310.733 124.749C309.837 126.689 309.763 127.397 309.539 133.74L309.278 140.642L307.897 143.813C304.428 151.536 303.942 153.327 303.196 160.677C302.823 164.52 302.861 165.005 304.689 177.652C308.233 201.978 308.942 205.373 311.852 210.521C315.546 217.088 328.081 231.079 333.416 234.623C334.536 235.369 336.812 236.414 338.453 236.973C341.065 237.794 342.259 237.943 347.818 238.13C358.973 238.428 362.89 237.011 370.128 229.997C378.224 222.162 384.604 214.252 387.365 208.507C389.454 204.216 390.163 200.97 392.7 183.361L392.706 183.319L392.708 183.305C393.75 176.235 394.79 169.179 395.051 167.579C395.909 162.02 394.491 153.141 391.767 147.022C388.969 140.717 388.895 140.381 388.633 133.367C388.447 128.666 388.186 126.353 387.701 125.084C387.16 123.524 385.389 121.214 383.901 119.943L385.073 115.704C387.504 117.151 389.801 119.359 390.909 121.503C392.588 124.786 392.812 125.98 393.073 132.807L393.372 139.523L395.237 143.627C396.282 145.903 397.326 148.477 397.588 149.372C397.811 150.23 398.073 150.902 398.185 150.827C398.446 150.529 400.162 141.985 401.132 135.979C404.193 117.067 401.363 104.978 392.273 98.5797L394.028 94.4852C395.538 95.491 397.142 96.6602 397.961 97.4012C403.482 102.401 406.877 111.952 406.915 122.361C406.915 127.92 405.087 141.836 403.37 149.335L403.111 150.464L403.108 150.48L403.1 150.516C402.93 151.253 402.811 151.772 402.811 151.797C402.811 151.872 403.557 152.133 404.452 152.357C406.803 152.954 408.855 155.379 409.713 158.55C410.832 162.617 410.011 170.265 407.474 179.63C405.273 187.8 403.706 190.524 400.087 192.315C398.856 192.949 397.364 193.434 396.767 193.434C396.207 193.434 395.722 193.546 395.722 193.733C395.722 193.882 395.312 196.381 394.789 199.292C393.409 207.313 391.693 211.38 387.253 217.461L385.649 219.625V228.094C385.686 241.003 386.246 243.764 389.678 247.271C391.506 249.136 396.282 252.158 403.37 255.926C408.668 258.724 415.197 262.232 423.331 266.671C431.725 271.223 434.747 272.454 442.731 274.543C450.827 276.633 454.894 278.013 459.707 280.364C471.011 285.848 478.66 293.496 484.331 304.95C488.696 313.755 490.748 322.037 491.606 334.461C492.053 340.505 491.942 344.087 490.972 356.1C490.337 364.159 490.412 365.204 492.016 371.397C497.053 390.947 500 407.587 502.201 428.853C503.694 442.955 503.88 444.597 504.291 446.089C504.813 447.917 506.305 450.081 510.969 455.715C516.976 463.027 523.02 472.28 527.198 480.675C528.84 483.92 532.272 491.643 539.548 508.32C541.711 513.357 544.696 519.737 546.114 522.498C550.815 531.526 557.344 541.936 561.187 546.525L562.306 547.868L565.477 546.898C569.469 545.666 575.737 545.331 581.035 546.002C583.05 546.263 587.639 546.562 591.258 546.711L597.787 546.935L601.144 549.024C602.973 550.181 605.883 551.86 607.636 552.718C612.859 555.292 614.501 557.568 613.606 560.926C613.27 562.157 613.307 562.567 613.792 563.276C614.091 563.724 614.799 565.515 615.322 567.268C615.844 569.022 616.889 571.857 617.598 573.611C618.791 576.484 618.903 577.006 618.754 579.58C618.568 582.378 616.217 590.437 614.725 593.384C613.232 596.332 611.143 597.339 605.36 597.936C603.122 598.197 601.294 598.533 601.294 598.72C601.294 598.943 602.077 600.025 603.047 601.182C606.703 605.622 619.612 621.851 620.769 623.53C621.925 625.172 622 625.507 622 628.343C622 631.178 621.925 631.477 620.843 632.782C619.015 635.058 617.933 635.655 615.508 635.842C612.673 636.028 611.031 635.469 609.166 633.641C608.308 632.857 607.524 632.186 607.338 632.186C607.188 632.186 606.703 633.006 606.293 634.014C605.174 636.588 602.749 637.968 599.615 637.931C598.309 637.931 596.891 637.633 596.182 637.26C595.511 636.924 594.951 636.775 594.914 636.924C594.914 637.11 594.914 638.565 594.951 640.207C595.026 646.475 593.795 653.862 591.37 661.286C588.683 669.569 585.699 674.68 580.401 679.941C570.215 690.126 551.598 696.207 534.548 694.864C485.301 691.022 446.537 682.291 397.774 663.973C381.769 657.929 375.016 655.205 357.928 647.855L349.012 644.012L345.243 645.729C307.039 662.853 257.941 679.68 228.206 685.873ZM301.07 527.945L296.593 527.124C290.698 526.079 284.057 524.363 277.826 522.386L272.79 520.781L272.864 512.984C272.976 503.955 273.312 499.926 274.879 488.211C275.998 480.078 276.036 479.406 275.849 469.706C275.551 455.043 274.916 450.268 270.365 430.084C265.216 407.437 263.276 396.319 262.679 386.694L262.418 382.403L265.477 385.313C270.663 390.275 276.707 393.708 284.467 396.17C290.138 397.961 293.944 398.409 303.942 398.409C316.777 398.446 319.127 397.924 318.568 395.051C318.269 393.409 317.784 393.297 311.889 393.782C305.435 394.342 296.257 394.081 291.481 393.223C285.102 392.066 279.02 389.716 274.021 386.507C270.439 384.157 265.067 378.71 262.306 374.568C258.277 368.524 254.471 360.279 252.643 353.675C252.27 352.444 251.785 351.064 251.486 350.579C250.442 348.937 247.606 349.907 247.606 351.959C247.606 354.757 253.128 368.263 256.71 374.121L258.015 376.247L257.307 383.075C256.486 390.91 256.15 393.409 254.881 400.871C252.158 416.541 249.472 426.614 242.458 447.134C240.331 453.402 237.757 461.535 236.749 465.229C234.1 474.892 233.317 477.093 230.78 481.682C223.878 494.106 210.484 512.126 192.949 532.571C190.039 535.966 185.412 541.413 182.652 544.696C175.638 553.091 165.079 565.664 163.512 567.455L162.244 568.947L161.983 567.828C161.05 563.649 159.781 561.672 158.065 561.672C157.058 561.672 155.827 562.642 155.827 563.425C155.827 563.649 156.274 564.731 156.834 565.813C158.886 569.731 158.326 575.439 155.267 581.632C153.103 586.035 146.686 594.802 133.255 611.703C131.203 614.277 127.92 618.493 125.98 620.993C120.532 628.082 119.077 629.574 117.548 629.574C115.906 629.574 114.787 628.455 114.787 626.85C114.787 625.918 116.205 623.493 121.167 615.956C124.674 610.621 127.696 605.846 127.882 605.361C128.405 604.092 127.397 602.712 125.98 602.712C125.084 602.712 124.599 603.122 122.846 605.622C121.726 607.189 118.555 611.293 115.832 614.725C114.427 616.475 112.666 618.692 110.978 620.817C109.391 622.814 107.868 624.731 106.766 626.104C101.468 632.782 100.535 633.678 98.968 633.678C96.2444 633.678 94.6775 630.88 95.9833 628.417C96.6548 627.037 96.9906 626.589 108.37 611.591C113.593 604.689 115.906 601.368 115.906 600.697C115.906 599.578 114.451 598.458 113.518 598.831C113.145 598.981 109.191 603.458 104.714 608.83C88.2604 628.529 86.3576 630.693 85.2756 631.29C83.1864 632.335 80.724 631.029 80.2763 628.641C80.0151 627.112 80.6493 626.142 87.9246 617.225C104.564 596.817 106.206 594.69 106.206 593.683C106.206 591.444 103.37 591.183 101.729 593.31L100.983 594.243L95.5356 593.795C89.4542 593.272 88.5961 593.049 87.738 591.78C86.9172 590.474 83.8206 580.476 83.8206 579.021C83.8206 578.312 84.4922 575.924 85.2756 573.723C86.0964 571.521 86.9918 568.947 87.253 568.014C87.8126 566.074 88.6707 565.739 90.4989 566.671C92.1778 567.567 92.7001 569.581 92.0285 572.977C91.0958 577.901 91.1331 578.983 92.1405 581.222C92.6628 582.341 93.5582 583.535 94.1178 583.908C95.6475 584.953 98.8187 584.803 101.356 583.647C103.781 582.49 108.407 578.312 111.541 574.357C112.772 572.827 113.891 571.559 114.003 571.596C114.115 571.596 115.347 572.156 116.69 572.79C122.771 575.775 129.748 575.775 135.866 572.865C138.441 571.633 139.15 570.813 138.963 569.208C138.776 567.455 137.247 567.306 134.486 568.686C131.352 570.253 128.74 570.775 124.86 570.514C119.413 570.178 116.727 568.723 112.996 563.985C111.541 562.12 108.706 560.59 106.28 560.329C104.863 560.142 103.855 560.366 101.169 561.411C99.3411 562.12 96.9906 562.828 96.0206 562.978C92.2897 563.5 88.4842 561.635 88.7454 559.471C88.8573 558.65 89.5288 558.128 93.1478 556.225C95.4983 554.994 98.3337 553.389 99.453 552.718C101.465 551.414 101.505 551.412 107.261 551.115L107.288 551.114C110.496 550.964 115.533 550.591 118.518 550.293C126.166 549.547 130.121 550.143 137.657 553.128C141.164 554.546 141.425 554.583 142.283 554.024C142.768 553.688 143.291 553.165 143.403 552.867C143.739 552.009 142.806 550.591 141.612 550.069L140.53 549.659L141.612 548.278C143.664 545.666 148.775 537.757 151.536 532.944C156.386 524.475 159.483 518.021 167.243 500C176.869 477.652 180.301 471.646 191.233 457.953C193.956 454.558 196.568 451.014 197.09 450.044C198.433 447.432 198.956 444.522 199.814 435.382C202.015 412.25 204.515 397.177 209.439 377.441C211.864 367.741 211.939 367.368 211.939 362.629C211.939 359.981 211.752 355.503 211.491 352.78C210.932 346.549 210.894 334.909 211.454 330.059C213.058 315.173 218.58 302.376 226.974 294.056C231.489 289.579 235.07 287.005 240.331 284.468C245.666 281.893 247.233 281.334 257.045 278.685C266.298 276.222 267.977 275.513 278.573 269.731C281.702 268.014 286.385 265.479 290.704 263.14L290.717 263.133C292.778 262.017 294.757 260.946 296.443 260.03C310.434 252.531 312.635 250.852 314.911 246.189C316.441 243.092 316.963 239.361 317.001 231.75V225.147L322.298 230.482C330.245 238.503 332.82 240.219 339.349 241.861C342.967 242.756 355.727 242.756 359.309 241.824C365.092 240.369 370.725 236.451 376.918 229.698C379.12 227.31 381.022 225.37 381.134 225.445C381.246 225.482 381.284 227.833 381.209 230.668C381.134 234.884 381.47 239.66 382.03 243.129C382.104 243.465 383.746 245.405 385.686 247.42C387.589 249.435 389.865 251.972 390.685 253.016C391.767 254.434 392.924 255.367 394.789 256.337C398.185 258.128 404.975 261.746 418.107 268.835C423.965 272.006 430.084 275.103 431.762 275.775C433.441 276.446 437.956 277.827 441.836 278.834C454.297 282.08 459.408 284.393 467.019 290.101C475.563 296.518 482.316 307.711 485.189 320.097C487.39 329.425 487.875 342.333 486.606 356.399C485.823 365.017 485.823 365.055 489.218 378.859C493.732 397.252 495.859 409.75 497.948 430.345C499.366 444.261 499.478 445.343 500.224 447.656C500.634 449.037 501.604 450.827 502.686 452.245C509.327 460.789 515.745 469.445 517.535 472.317C520.222 476.571 526.116 488.397 529.437 496.195C536.936 513.73 541.861 524.288 546.189 532.011C548.427 536.003 553.725 544.174 556.038 547.233C557.605 549.285 557.792 550.106 556.747 550.106C556.038 550.106 555.031 551.337 555.031 552.233C555.031 553.165 556.15 554.21 557.195 554.21C557.605 554.21 559.284 553.688 560.888 553.091C568.089 550.293 574.319 549.509 580.96 550.442C582.415 550.666 586.333 550.927 589.728 551.076C596.443 551.337 596.891 551.449 600.995 553.949C602.525 554.882 604.95 556.225 606.405 556.971C609.427 558.463 610.061 559.21 609.39 560.553C608.755 561.858 606.853 562.828 604.428 563.052C602.599 563.239 601.704 563.052 597.525 561.635C592.899 560.068 592.675 560.03 590.959 560.478C588.497 561.15 585.81 562.94 584.542 564.806C581.856 568.611 578.722 570.253 573.499 570.551C569.507 570.738 567.044 570.29 563.91 568.723C561.411 567.455 560.59 567.38 559.769 568.313C558.836 569.358 558.985 570.44 560.254 571.484C562.231 573.163 568.536 575.066 572.081 575.103C574.916 575.103 579.431 574.021 581.968 572.715L584.467 571.447L585.96 573.387C586.78 574.432 589.168 577.006 591.332 579.095C595.772 583.498 597.675 584.542 601.032 584.542C603.644 584.542 604.838 583.796 606.069 581.446C607.039 579.468 607.114 577.565 606.293 573.611C605.398 569.096 606.442 566.522 609.166 566.41C610.248 566.335 610.434 566.485 610.845 567.641C611.07 568.252 611.821 570.387 612.622 572.661L612.635 572.7L613.009 573.76L614.725 578.535L614.165 581.035C613.419 584.281 611.442 590.325 610.658 591.631C609.949 592.899 608.793 593.198 603.346 593.758C601.107 593.981 598.869 594.242 598.421 594.317C597.824 594.466 597.19 594.093 596.108 593.011C595.287 592.19 594.466 591.519 594.28 591.519C593.571 591.519 591.966 593.086 591.966 593.758C591.966 594.168 593.198 595.959 594.69 597.75C596.182 599.54 599.503 603.644 602.04 606.816C603.925 609.172 606.923 612.91 609.579 616.22L612.15 619.426C615.434 623.53 617.709 626.701 617.859 627.373C618.306 629.649 616.702 631.812 614.613 631.812C612.971 631.812 612.71 631.551 595.884 611.442C592.787 607.786 589.206 603.458 587.937 601.891C586.669 600.324 585.288 598.906 584.878 598.794C583.87 598.496 582.677 599.205 582.415 600.287C582.229 601.07 583.684 603.159 591.631 613.718C596.854 620.583 601.48 626.85 601.928 627.634C602.413 628.417 602.786 629.649 602.786 630.432C602.786 633.156 600.062 634.536 597.637 633.081C596.63 632.484 581.221 613.457 575.998 606.405C573.237 602.637 572.64 602.227 571.036 603.085C569.544 603.905 570.141 605.286 575.289 613.009C581.52 622.373 583.758 626.142 583.758 627.223C583.758 629.238 581.035 630.246 579.095 628.977C577.229 627.746 550.069 592.937 545.405 585.811C541.973 580.513 539.809 573.872 540.294 570.066C540.406 569.059 540.928 567.194 541.45 565.925C542.532 563.202 542.532 563.09 541.674 562.306C540.704 561.411 539.622 561.523 538.54 562.605C537.645 563.5 536.376 566.671 536.376 568.052C536.376 568.462 536.227 568.761 536.078 568.761C535.779 568.761 526.042 557.307 517.386 546.786C515.26 544.211 512.499 540.928 511.23 539.51C509.999 538.093 507.611 535.295 505.97 533.317L505.443 532.683L505.438 532.677C503.608 530.472 500.269 526.447 497.538 523.244C484.629 507.723 474.033 493.098 468.138 482.615C465.005 477.056 464.072 474.668 462.169 467.467C461.274 464.184 458.177 454.297 455.23 445.455C452.282 436.65 449.186 426.913 448.365 423.816C445.417 413.183 442.582 397.177 441.239 384.007L440.455 376.284L442.657 372.255C445.604 366.845 447.246 363.114 448.85 357.966C450.641 352.332 450.827 351.176 450.006 350.392C449.298 349.646 447.954 349.571 447.134 350.243C446.798 350.467 446.089 352.22 445.529 354.048C443.627 360.428 439.747 368.748 436.202 374.233C427.024 388.373 412.474 394.864 392.066 393.969C380.5 393.447 380.314 393.484 379.829 394.454C379.269 395.573 379.567 396.692 380.575 397.327C381.657 398.036 388.447 398.632 395.125 398.632C411.728 398.595 424.338 394.118 433.18 385.052L436.09 382.03L435.829 385.201C434.934 396.916 433.106 407.325 428.367 427.92C423.405 449.372 422.51 456.237 422.435 471.758C422.398 481.533 422.473 482.95 423.405 489.106C424.823 498.545 425.159 502.276 425.457 512.051L425.681 520.632L424.375 521.155C423.666 521.453 420.57 522.46 417.51 523.393C407.81 526.341 397.065 528.467 384.156 529.959C378.075 530.668 375.687 531.079 377.553 531.079C378 531.079 378.112 531.377 378 532.31C377.963 532.981 378.112 533.84 378.411 534.25C378.896 534.884 379.157 534.922 383.671 534.474C397.14 533.168 412.511 530.034 422.473 526.527C424.786 525.744 426.838 525.147 427.024 525.259C427.472 525.557 430.904 533.951 433.255 540.555C434.374 543.652 435.531 546.413 435.904 546.748C436.277 547.121 439 548.017 441.985 548.763C470.526 556.076 494.292 564.172 515.521 573.76C522.833 577.08 530.146 580.849 539.436 586.072C540.406 586.594 541.6 588.049 543.316 590.586C546.3 594.989 553.762 604.689 572.044 627.746C576.11 632.894 577.379 633.79 580.774 633.976C584.057 634.126 585.773 633.156 587.191 630.395L588.198 628.417L588.832 629.387C590.176 631.439 590.81 639.535 590.138 645.617C587.862 665.204 580.438 677.441 566.783 684.045C555.74 689.417 545.442 691.283 532.757 690.201C504.925 687.85 480.786 684.045 458.961 678.598C436.314 672.927 411.951 664.831 382.291 653.153C377.292 651.176 360.577 644.087 357.518 642.669C355.914 641.886 354.72 641.177 354.906 641.028C355.093 640.916 357.406 639.983 360.018 638.938C365.353 636.812 405.609 620.806 416.018 617.187C425.346 613.942 431.8 611.442 436.799 609.129C441.09 607.151 442.881 606.592 447.88 605.734C454.484 604.54 461.572 604.092 469.407 604.316C479.816 604.652 487.838 606.069 498.135 609.464C504.664 611.628 514.849 616.479 519.849 619.836C523.468 622.261 524.177 622.485 525.258 621.478C526.229 620.62 526.079 619.239 524.923 618.045C523.468 616.628 517.573 613.046 512.499 610.509C497.837 603.159 483.323 599.801 465.863 599.69L458.961 599.652L463.363 597.488C468.773 594.839 472.84 593.459 476.272 593.161C477.876 593.011 481.756 593.16 486.196 593.571C492.128 594.131 493.845 594.168 495.449 593.795C499.254 592.937 501.754 589.84 501.754 585.96C501.754 583.274 501.045 581.595 499.03 579.394C496.344 576.483 493.77 575.476 486.719 574.543C482.652 574.021 482.241 573.909 477.354 571.372C467.169 566.149 464.035 566.074 449.149 570.589C439.038 573.685 435.046 574.469 429.3 574.469C423.891 574.469 421.54 573.984 411.914 570.85C404.154 568.35 401.766 567.716 398.11 567.268C392.85 566.597 387.776 568.052 384.119 571.335L379.791 576.67L379.045 578.2C378.635 579.058 377.441 581.259 376.359 583.087C375.314 584.878 374.568 586.557 374.717 586.818C374.867 587.042 374.68 587.005 374.344 586.706C373.785 586.258 373.71 586.296 373.71 587.005C373.71 587.49 373.971 588.087 374.27 588.422C374.605 588.721 374.979 589.467 375.09 590.064C375.202 590.661 375.538 591.146 375.799 591.146C376.471 591.146 376.434 590.474 375.762 589.28C375.464 588.758 375.24 588.012 375.24 587.602C375.24 586.93 375.277 586.967 375.762 587.788C376.06 588.31 376.284 589.057 376.322 589.467C376.359 591.556 382.664 581.744 382.664 579.617L386.768 574.842C388.708 573.014 391.581 571.932 394.864 571.783C398.632 571.633 401.543 572.23 410.086 574.991C420.421 578.312 423.517 578.946 428.927 578.946C435.792 578.983 440.941 577.939 452.059 574.394C463.401 570.775 466.087 570.887 475.153 575.215L476.141 575.694C479.507 577.326 480.868 577.986 482.301 578.36C483.273 578.614 484.278 578.736 485.965 578.942L486.004 578.947L486.017 578.949L486.639 579.025L486.905 579.058C489.367 579.356 492.054 579.916 492.874 580.289C496.195 581.744 498.359 585.587 497.053 587.602C496.717 588.124 495.859 588.833 495.15 589.168C493.919 589.765 493.285 589.728 486.084 589.131C473.026 588.049 471.944 588.31 446.649 599.839C430.867 607.002 424.525 609.539 407.102 615.583C406.507 615.79 405.882 616.007 405.241 616.23L405.185 616.249L405.174 616.253C401.204 617.633 396.595 619.235 394.23 620.097L383 624.09L370.912 629.089L370.613 627.186C370.464 626.142 369.979 623.716 369.569 621.814C368.823 618.456 368.785 618.381 367.815 618.493C367.181 618.568 366.584 619.053 366.211 619.724C365.577 620.806 365.689 622.448 366.771 629.835L366.92 630.992L362.219 633.156C359.607 634.312 355.914 636.028 354.011 636.924C353.417 637.187 352.85 637.439 352.349 637.663C351.212 638.169 350.406 638.528 350.355 638.528C350.281 638.528 346.004 640.412 340.773 642.717L340.542 642.819C328.716 648.042 308.196 656.287 295.138 661.063C249.472 677.702 216.64 685.462 174.668 689.417C169.332 689.94 163.288 690.425 161.236 690.536C149.148 691.096 134.038 686.843 125.383 680.388C116.279 673.636 111.168 664.159 108.594 649.348C107.4 642.557 107.997 631.589 109.676 629.201C110.198 628.455 110.235 628.455 110.683 629.574C111.914 632.559 114.265 634.051 117.697 634.051C119.488 634.051 120.197 633.864 121.428 633.044C122.808 632.074 128.591 625.06 138.702 612.039C139.486 611.038 140.456 609.793 141.483 608.475L141.535 608.408L141.553 608.385L141.559 608.377L141.574 608.358C143.356 606.07 145.296 603.58 146.723 601.779C151.2 596.033 153.775 592.564 156.162 589.019C157.953 586.296 158.625 585.885 170.564 579.729C193.658 567.865 221.005 557.941 254.508 549.173C257.381 548.427 260.329 547.681 261.075 547.495C262.642 547.084 263.089 546.189 265.626 538.914C267.156 534.511 270.365 526.639 271.073 525.557C271.335 525.147 272.379 525.371 276.558 526.714C283.012 528.84 287.489 529.959 295.361 531.452C298.757 532.086 301.741 532.795 301.965 533.019L312.15 533.989C313.27 534.063 314.277 534.213 314.351 534.287C314.426 534.362 315.433 534.436 316.59 534.436C317.933 534.436 318.493 534.324 318.157 534.101C317.597 533.728 317.896 531.079 318.493 531.079C318.717 531.079 318.866 530.929 318.866 530.78C318.866 530.444 301.368 527.684 301.07 527.945ZM601.891 570.738C601.891 572.641 602.04 575.215 602.189 576.484C602.45 578.2 602.376 578.983 602.04 579.394C601.517 580.028 599.727 580.102 598.309 579.543C596.929 578.983 589.579 571.41 588.646 569.544C587.862 568.052 587.862 567.902 588.422 567.044C589.168 565.888 591.146 564.657 592.228 564.657C592.675 564.657 594.168 565.067 595.585 565.589C596.966 566.074 598.98 566.671 599.988 566.895L601.891 567.306V570.738ZM109.452 569.954C107.736 572.454 101.468 578.759 99.8261 579.617C97.5129 580.849 95.7594 580.326 95.7594 578.349C95.7967 577.677 96.0206 575.7 96.2817 573.872C96.5802 572.006 96.6548 569.992 96.5056 569.134L96.4886 569.038C96.2064 567.455 96.2051 567.448 97.9979 567.082C98.7068 566.932 100.572 566.298 102.102 565.701C105.758 564.246 107.251 564.396 109.34 566.485L110.832 567.977L109.452 569.954ZM536.637 577.565C536.936 578.498 537.16 579.319 537.085 579.356C537.011 579.431 535.593 578.759 533.951 577.864C519.55 569.88 495.672 559.993 475.526 553.613C465.676 550.517 453.812 547.084 446.499 545.219C442.507 544.211 439.187 543.353 439.15 543.279C439.095 543.224 438.611 541.905 437.944 540.083L437.94 540.073C437.704 539.428 437.444 538.72 437.172 537.981C434.896 531.489 432.583 525.632 431.277 523.132C430.307 521.266 430.27 520.931 430.009 512.424C429.71 502.649 429.375 498.881 427.882 489.106C426.95 482.913 426.875 481.533 426.912 471.571C426.95 456.312 427.733 450.38 432.732 429.226C435.232 418.406 437.247 409.116 437.918 404.863C438.142 403.259 438.478 401.916 438.627 401.804C438.739 401.729 439.336 403.968 439.896 406.84C442.395 419.6 445.679 431.427 450.603 445.716C455.342 459.408 455.64 460.341 457.505 467.355C460.453 478.622 462.206 482.316 470.489 494.815C478.063 506.306 488.658 519.961 503.918 537.794C506.268 540.555 511.156 546.375 514.737 550.666C524.288 562.194 526.751 565.104 531.638 570.775C534.66 574.245 536.227 576.409 536.637 577.565ZM258.65 405.385C259.023 403.296 259.433 401.617 259.545 401.617C259.694 401.617 260.067 403.296 260.44 405.385C260.776 407.437 262.231 414.377 263.686 420.757C270.924 452.991 271.223 454.969 271.26 471.012C271.297 481.98 271.223 483.212 270.29 489.479C268.798 499.292 268.462 503.022 268.163 512.797L267.865 521.565L265.44 526.975C264.097 529.959 262.194 534.735 261.224 537.608C260.217 540.481 259.321 542.943 259.172 543.092C259.06 543.279 255.777 544.211 251.897 545.219C243.54 547.383 242.644 547.644 232.869 550.554C216.603 555.441 203.06 560.217 189.031 566.037C183.286 568.425 165.303 576.931 162.878 578.424C160.751 579.729 160.677 579.58 161.983 576.857C162.505 575.775 165.116 572.417 167.989 569.134C170.787 565.962 175.787 560.068 179.107 556.076C182.39 552.084 187.464 546.04 190.337 542.644C216.528 511.865 227.646 497.053 235.07 482.913C237.869 477.615 238.727 475.19 240.891 467.131C242.644 460.49 243.428 457.953 247.905 445.082C252.792 430.905 256.672 416.541 258.65 405.385ZM296.257 156.61C296.555 156.722 297.115 158.662 297.749 161.983C298.757 167.169 301.704 186.83 301.704 188.211C301.704 189.181 301.368 189.144 299.801 188.099C298.16 186.98 297.115 185.114 295.735 180.749C293.011 172.28 291.743 161.61 293.048 158.476C293.571 157.282 295.287 156.237 296.257 156.61ZM401.505 157.356C401.953 155.416 404.602 156.76 405.422 159.334C406.542 162.692 404.714 175.041 401.953 182.577C401.057 185.114 400.423 186.159 399.043 187.539C397.214 189.367 396.468 189.741 396.468 188.808C396.468 186.495 400.274 162.804 401.505 157.356Z" fill="#696969"/>
<path d="M346.145 151.384C344.713 151.022 342.603 150.09 341.274 149.21C340.831 148.926 339.998 148.796 338.539 148.796C336.742 148.796 336.221 148.693 334.945 148.046C333.121 147.14 331.246 145.302 329.474 142.74C328.745 141.653 327.443 139.996 326.609 139.064L325.124 137.356L325.776 136.735C326.583 136.01 329.266 132.568 330.673 130.498C332.757 127.443 336.429 125.554 339.503 125.968C340.337 126.072 340.831 125.916 342.446 125.062C343.514 124.493 344.999 123.872 345.754 123.665C347.604 123.173 351.251 123.199 352.996 123.716C354.402 124.131 356.695 125.192 357.372 125.735C357.58 125.89 358.622 126.02 359.716 126.02C363.545 126.046 366.176 127.625 368.703 131.455C369.536 132.672 370.969 134.561 371.907 135.622L373.626 137.589L372.193 139.039C371.412 139.841 370.083 141.497 369.224 142.714C366.098 147.191 363.832 148.744 360.237 148.822C358.492 148.848 358.049 148.977 356.59 149.78C355.679 150.271 354.35 150.893 353.621 151.126C351.824 151.721 347.995 151.85 346.145 151.384ZM347.005 148.434C346.692 148.02 345.494 146.001 344.296 143.956C339.06 134.975 338.018 133.37 337.784 133.785C337.68 134.017 337.497 135.208 337.419 136.45C337.028 142.455 340.493 147.735 345.728 149.184C346.64 149.443 347.396 149.521 347.448 149.417C347.5 149.288 347.291 148.848 347.005 148.434ZM355.653 148.071C357.945 146.726 360.211 143.697 360.914 141.006C361.383 139.246 361.435 136.036 361.019 134.561C360.732 133.577 360.706 133.552 360.341 134.043C359.873 134.69 356.148 140.954 353.569 145.406C352.501 147.269 351.511 148.9 351.381 149.055C350.86 149.599 351.225 149.65 352.814 149.21C353.725 148.951 355.002 148.434 355.653 148.071ZM352.423 143.413C354.038 140.695 356.148 137.175 357.059 135.648C357.997 134.095 358.7 132.801 358.648 132.723C358.57 132.672 354.35 132.646 349.271 132.672L339.998 132.749L342.42 136.89C343.749 139.168 345.781 142.61 346.953 144.526C348.099 146.441 349.063 148.097 349.063 148.227C349.063 148.874 349.766 147.864 352.423 143.413ZM338.643 146.984C338.643 146.933 338.175 146.156 337.601 145.276C334.345 140.281 334.476 134.043 337.914 129.074L338.669 127.961H337.862C335.882 127.961 334.007 129.436 331.272 133.137C330.282 134.483 329.11 135.985 328.641 136.45C328.068 137.072 327.912 137.382 328.094 137.641C329.553 139.686 332.678 143.62 333.616 144.603C334.919 145.975 335.778 146.493 337.263 146.829C338.513 147.114 338.643 147.14 338.643 146.984ZM362.92 146.441C364.197 145.768 365.655 144.319 367.192 142.093C368.026 140.954 369.172 139.401 369.797 138.676C370.787 137.512 370.891 137.304 370.552 137.02C370.318 136.839 369.146 135.363 367.921 133.785C364.691 129.514 363.259 128.323 360.81 127.858C359.951 127.702 359.951 127.702 360.367 128.298C361.357 129.618 362.894 133.137 363.285 134.949C363.988 138.262 363.129 142.403 361.149 145.354C360.654 146.079 360.159 146.803 360.081 146.933C359.846 147.295 361.956 146.933 362.92 146.441ZM358.987 130.058C358.544 129.229 356.07 127.185 354.689 126.486C352.006 125.14 348.151 124.933 345.26 125.968C343.306 126.667 340.31 128.867 339.659 130.083C339.425 130.523 339.79 130.549 349.323 130.549C358.961 130.549 359.221 130.523 358.987 130.058Z" fill="#833AF7"/>
<path d="M349.418 122.753C350.799 122.762 352.208 122.899 353.155 123.18L353.154 123.18C353.893 123.398 354.845 123.778 355.692 124.169C356.512 124.548 357.302 124.968 357.706 125.286C357.654 125.248 357.654 125.266 357.801 125.301C357.918 125.328 358.08 125.356 358.28 125.38C358.678 125.429 359.189 125.46 359.716 125.46H359.72C361.716 125.474 363.434 125.894 364.987 126.832C366.534 127.766 367.879 129.189 369.17 131.147C369.892 132.2 371.064 133.758 371.96 134.826L372.326 135.252L372.328 135.254L374.39 137.613L372.593 139.429L372.594 139.429C371.841 140.203 370.532 141.831 369.682 143.033L369.683 143.034C368.107 145.292 366.712 146.866 365.221 147.881C363.711 148.909 362.137 149.341 360.249 149.382H360.246C359.378 149.395 358.89 149.434 358.45 149.551C358.011 149.668 357.587 149.87 356.86 150.27L356.856 150.272C355.934 150.769 354.57 151.41 353.791 151.659L353.79 151.658C352.816 151.979 351.351 152.163 349.922 152.212C348.489 152.261 347.008 152.179 346.009 151.927C344.515 151.549 342.351 150.593 340.971 149.68C340.845 149.6 340.615 149.512 340.203 149.449C339.797 149.388 339.255 149.355 338.539 149.355C337.639 149.355 337.009 149.331 336.433 149.211C335.846 149.089 335.345 148.876 334.691 148.544C332.749 147.578 330.81 145.655 329.014 143.058L329.01 143.052C328.296 141.988 327.01 140.351 326.192 139.437L326.187 139.431L324.351 137.32L325.39 136.33L325.396 136.324L325.402 136.319C325.762 135.995 326.603 134.997 327.559 133.776C328.502 132.572 329.516 131.205 330.21 130.183L330.211 130.182C332.384 126.997 336.244 124.968 339.571 125.413C339.923 125.457 340.175 125.445 340.517 125.339C340.89 125.224 341.374 124.996 342.184 124.568C343.275 123.987 344.798 123.346 345.606 123.125L345.611 123.123C346.605 122.859 348.036 122.743 349.418 122.753ZM349.41 123.872C348.071 123.862 346.754 123.978 345.899 124.206L345.898 124.205C345.194 124.399 343.753 124.999 342.71 125.556L342.708 125.557C341.903 125.983 341.333 126.259 340.847 126.409C340.329 126.569 339.915 126.583 339.434 126.523L339.429 126.523C336.611 126.143 333.128 127.892 331.135 130.813C330.422 131.862 329.392 133.25 328.44 134.466C327.51 135.653 326.613 136.728 326.161 137.139L326.162 137.14L325.897 137.392L327.026 138.691C327.873 139.638 329.189 141.311 329.935 142.421C331.571 144.789 333.264 146.476 334.873 147.375L335.193 147.545L335.198 147.546C335.82 147.862 336.218 148.023 336.66 148.115C337.113 148.209 337.642 148.236 338.539 148.236C339.281 148.236 339.886 148.269 340.372 148.343C340.792 148.407 341.157 148.507 341.454 148.667L341.577 148.74L341.583 148.743C342.861 149.589 344.913 150.496 346.283 150.842C347.132 151.056 348.491 151.141 349.884 151.093C351.277 151.045 352.621 150.867 353.445 150.594L353.451 150.593C354.13 150.376 355.423 149.773 356.325 149.287C357.054 148.886 357.581 148.623 358.162 148.469C358.744 148.314 359.35 148.275 360.225 148.262L360.541 148.251C362.101 148.176 363.37 147.787 364.592 146.955C365.914 146.055 367.215 144.613 368.765 142.394L368.767 142.391C369.636 141.16 370.984 139.479 371.793 138.648L371.795 138.645L372.862 137.565L371.485 135.991C370.528 134.907 369.083 133 368.241 131.771L368.236 131.763C367.001 129.891 365.766 128.61 364.409 127.79C363.058 126.974 361.545 126.592 359.712 126.58C359.147 126.579 358.592 126.546 358.144 126.491C357.921 126.464 357.715 126.43 357.544 126.39C357.403 126.357 357.193 126.3 357.037 126.184L357.029 126.178L357.021 126.172C356.742 125.948 356.058 125.571 355.223 125.186C354.403 124.807 353.506 124.449 352.838 124.253H352.836C352.038 124.016 350.751 123.881 349.41 123.872ZM360.523 133.184C360.724 133.142 360.912 133.198 361.052 133.306C361.165 133.394 361.232 133.503 361.268 133.571C361.308 133.645 361.341 133.727 361.369 133.805C361.425 133.958 361.486 134.163 361.556 134.404L361.557 134.409C361.788 135.225 361.878 136.462 361.858 137.686C361.838 138.915 361.705 140.205 361.455 141.146L361.456 141.147C361.082 142.577 360.302 144.072 359.328 145.378C358.355 146.682 357.163 147.834 355.936 148.554L355.93 148.558L355.925 148.56C355.23 148.947 353.912 149.48 352.966 149.749L352.963 149.75C352.56 149.861 352.224 149.945 351.953 149.997C351.701 150.047 351.448 150.081 351.242 150.057C351.145 150.046 350.963 150.013 350.809 149.872C350.612 149.692 350.576 149.45 350.612 149.265C350.641 149.113 350.716 148.991 350.769 148.915C350.822 148.839 350.886 148.765 350.953 148.694C350.959 148.685 350.974 148.663 351.002 148.622C351.04 148.564 351.091 148.484 351.153 148.384C351.278 148.184 351.446 147.911 351.644 147.583C352.039 146.926 352.551 146.056 353.083 145.128L353.085 145.125C354.376 142.897 355.952 140.216 357.265 138.011C358.567 135.825 359.634 134.065 359.888 133.715L359.892 133.71C359.972 133.602 360.079 133.457 360.19 133.359C360.247 133.308 360.361 133.219 360.523 133.184ZM337.629 133.213C337.811 133.139 337.983 133.164 338.104 133.207C338.306 133.279 338.467 133.439 338.577 133.559C338.825 133.831 339.165 134.311 339.636 135.045C340.587 136.529 342.163 139.186 344.779 143.673C345.377 144.695 345.975 145.709 346.462 146.518C346.834 147.136 347.129 147.615 347.31 147.891L347.451 148.097L347.459 148.106L347.465 148.115C347.623 148.343 347.765 148.586 347.862 148.799C347.911 148.905 347.955 149.019 347.983 149.13C347.997 149.186 348.01 149.254 348.014 149.327C348.017 149.395 348.015 149.506 347.967 149.627L347.958 149.648L347.948 149.669C347.88 149.803 347.778 149.879 347.713 149.917C347.646 149.956 347.583 149.977 347.54 149.989C347.454 150.011 347.37 150.018 347.305 150.02C347.17 150.025 347.009 150.013 346.841 149.992C346.499 149.949 346.054 149.858 345.576 149.723C340.051 148.191 336.455 142.644 336.861 136.414C336.901 135.779 336.967 135.156 337.038 134.66C337.073 134.412 337.109 134.192 337.145 134.014C337.177 133.857 337.218 133.679 337.273 133.556L337.284 133.532L337.296 133.509C337.35 133.414 337.452 133.284 337.629 133.213ZM355.839 132.109C356.689 132.114 357.386 132.121 357.875 132.13C358.119 132.135 358.315 132.14 358.455 132.146C358.523 132.149 358.585 132.152 358.632 132.156C358.655 132.158 358.684 132.161 358.712 132.165C358.725 132.167 358.749 132.171 358.775 132.177C358.78 132.178 358.83 132.19 358.892 132.22L358.957 132.257L359.051 132.319L359.113 132.411C359.2 132.54 359.209 132.666 359.21 132.714C359.212 132.773 359.205 132.822 359.2 132.85C359.19 132.907 359.173 132.959 359.161 132.993C359.136 133.065 359.1 133.148 359.061 133.232C358.981 133.403 358.862 133.633 358.717 133.9C358.426 134.436 358.011 135.154 357.539 135.934C356.627 137.463 354.519 140.982 352.904 143.699L352.903 143.699C351.578 145.921 350.727 147.304 350.205 148.052C350.074 148.24 349.957 148.397 349.855 148.52C349.762 148.633 349.651 148.753 349.529 148.836C349.47 148.876 349.36 148.942 349.212 148.96C349.03 148.982 348.835 148.923 348.693 148.774C348.578 148.653 348.539 148.516 348.524 148.445C348.516 148.409 348.512 148.373 348.509 148.34C348.486 148.292 348.451 148.221 348.4 148.126C348.296 147.931 348.143 147.658 347.952 147.325C347.571 146.661 347.047 145.773 346.476 144.818L345.457 143.133C344.327 141.247 342.933 138.881 341.937 137.173L339.027 132.198L349.267 132.112H349.268C351.809 132.099 354.137 132.099 355.839 132.109ZM338.145 134.826C338.079 135.293 338.016 135.883 337.978 136.485V136.487C337.602 142.265 340.933 147.276 345.877 148.645L345.881 148.646C346.136 148.718 346.376 148.773 346.586 148.815C346.573 148.794 346.559 148.773 346.545 148.752C346.36 148.502 345.972 147.874 345.503 147.095C345.013 146.28 344.412 145.262 343.813 144.239L343.812 144.238C341.193 139.744 339.63 137.11 338.693 135.65C338.474 135.307 338.293 135.037 338.145 134.826ZM360.505 134.816C360.067 135.514 359.232 136.898 358.227 138.584C356.917 140.785 355.342 143.46 354.054 145.683L354.055 145.684C353.519 146.619 353.002 147.496 352.603 148.16C352.459 148.399 352.328 148.61 352.218 148.788C352.351 148.754 352.499 148.717 352.661 148.672L353.005 148.568C353.837 148.3 354.849 147.878 355.38 147.583C356.442 146.956 357.525 145.923 358.431 144.709C359.339 143.491 360.044 142.125 360.373 140.864L360.374 140.862C360.592 140.043 360.72 138.85 360.739 137.667C360.757 136.537 360.673 135.483 360.505 134.816ZM339.726 127.402L338.377 129.388L338.374 129.392C335.062 134.179 334.941 140.171 338.07 144.971L338.479 145.609C338.605 145.808 338.72 145.992 338.816 146.15C338.912 146.307 338.992 146.443 339.049 146.544C339.077 146.594 339.102 146.642 339.123 146.682C339.132 146.701 339.145 146.727 339.156 146.755C339.162 146.768 339.17 146.79 339.178 146.817C339.182 146.832 339.203 146.898 339.203 146.984C339.203 147.032 339.2 147.141 339.147 147.26C339.085 147.401 338.975 147.509 338.842 147.572C338.729 147.625 338.622 147.636 338.556 147.638C338.486 147.64 338.416 147.635 338.355 147.628C338.129 147.601 337.744 147.513 337.138 147.375C336.355 147.197 335.708 146.965 335.08 146.583C334.457 146.203 333.877 145.691 333.21 144.988C332.244 143.974 329.102 140.018 327.638 137.966L327.636 137.963C327.535 137.819 327.468 137.645 327.463 137.448C327.458 137.26 327.509 137.089 327.577 136.944C327.705 136.671 327.942 136.382 328.229 136.071L328.238 136.062L328.246 136.053C328.678 135.624 329.824 134.162 330.821 132.806L330.822 132.805C332.199 130.941 333.387 129.599 334.504 128.721C335.633 127.835 336.715 127.402 337.862 127.402H339.726ZM360.381 127.221C360.45 127.228 360.531 127.241 360.62 127.256L360.91 127.307L360.915 127.308C362.225 127.557 363.285 128.01 364.431 128.965C365.553 129.899 366.752 131.31 368.368 133.447C368.978 134.233 369.573 134.991 370.044 135.575C370.28 135.867 370.482 136.113 370.639 136.295C370.717 136.386 370.781 136.458 370.831 136.511L370.895 136.577L370.904 136.584L370.912 136.592C371.021 136.683 371.184 136.839 371.254 137.08C371.328 137.337 371.264 137.572 371.181 137.753C371.1 137.928 370.973 138.112 370.824 138.306C370.671 138.506 370.471 138.747 370.223 139.039L370.221 139.042C369.614 139.745 368.484 141.275 367.645 142.422C366.092 144.669 364.573 146.202 363.181 146.936L363.174 146.939C362.622 147.221 361.792 147.447 361.146 147.559C360.826 147.614 360.504 147.649 360.261 147.636C360.166 147.632 359.966 147.617 359.794 147.507C359.689 147.439 359.548 147.304 359.511 147.083C359.479 146.887 359.548 146.731 359.602 146.643C359.691 146.496 360.201 145.749 360.687 145.038C362.586 142.205 363.407 138.219 362.737 135.065C362.553 134.213 362.089 132.921 361.538 131.664C360.985 130.4 360.374 129.239 359.92 128.633L359.914 128.626L359.909 128.618C359.813 128.482 359.714 128.341 359.651 128.228C359.621 128.174 359.572 128.079 359.549 127.965C359.524 127.838 359.518 127.596 359.716 127.399C359.875 127.242 360.068 127.219 360.136 127.214C360.225 127.206 360.312 127.213 360.381 127.221ZM349.275 133.23L349.275 133.231L340.968 133.3L342.904 136.608C343.9 138.316 345.291 140.677 346.417 142.557L347.43 144.234L347.433 144.238C348.007 145.196 348.536 146.093 348.923 146.767C349.063 147.013 349.186 147.231 349.286 147.413L349.288 147.411C349.782 146.703 350.611 145.356 351.942 143.126C353.558 140.408 355.668 136.886 356.579 135.361L356.58 135.359C357.046 134.587 357.452 133.883 357.733 133.365C357.755 133.325 357.775 133.285 357.795 133.248C357.316 133.239 356.647 133.233 355.832 133.228C354.135 133.218 351.813 133.217 349.275 133.23ZM361.185 128.513C361.634 129.237 362.128 130.219 362.564 131.215C363.126 132.499 363.625 133.871 363.832 134.831L363.832 134.833C364.569 138.303 363.672 142.598 361.613 145.665L361.611 145.67C361.429 145.936 361.25 146.198 361.092 146.429C361.653 146.321 362.285 146.136 362.666 145.942C363.822 145.33 365.217 143.969 366.732 141.775L366.741 141.762C367.567 140.633 368.727 139.061 369.37 138.314C369.617 138.023 369.802 137.801 369.936 137.626C370.019 137.517 370.073 137.435 370.111 137.375C370.013 137.281 369.9 137.152 369.79 137.025C369.623 136.83 369.412 136.574 369.173 136.278C368.694 135.685 368.092 134.918 367.479 134.127L367.475 134.122C365.861 131.989 364.729 130.669 363.714 129.824C362.868 129.12 362.101 128.743 361.185 128.513ZM337.605 128.531C336.855 128.589 336.082 128.905 335.196 129.601C334.197 130.386 333.079 131.632 331.722 133.469C330.75 134.79 329.567 136.31 329.051 136.829L329.052 136.83C328.79 137.114 328.662 137.288 328.605 137.393C330.08 139.449 333.121 143.273 334.021 144.217L334.022 144.218C334.657 144.887 335.159 145.32 335.662 145.627C336.098 145.892 336.554 146.074 337.132 146.222L337.387 146.283C337.467 146.301 337.542 146.318 337.611 146.334C337.468 146.105 337.306 145.848 337.132 145.582C333.75 140.391 333.889 133.907 337.454 128.755L337.605 128.531ZM345.071 125.441C348.007 124.39 351.866 124.557 354.672 125.856L354.94 125.986L354.942 125.986C355.686 126.363 356.688 127.08 357.547 127.792C357.98 128.152 358.389 128.519 358.721 128.855C359 129.137 359.256 129.427 359.417 129.685L359.481 129.794L359.484 129.8L359.486 129.806C359.507 129.847 359.609 130.033 359.592 130.256C359.567 130.575 359.344 130.754 359.172 130.836C359.02 130.909 358.836 130.946 358.651 130.972C358.455 131 358.203 131.02 357.886 131.037C356.627 131.103 354.132 131.109 349.323 131.109C344.566 131.109 342.072 131.103 340.801 131.041C340.481 131.025 340.227 131.005 340.028 130.979C339.84 130.955 339.659 130.92 339.509 130.856C339.359 130.792 339.109 130.636 339.062 130.31C339.027 130.064 339.143 129.863 339.166 129.82C339.37 129.438 339.73 129.023 340.146 128.622C340.571 128.213 341.087 127.786 341.639 127.38C342.737 126.574 344.023 125.816 345.071 125.441ZM354.438 126.986C351.976 125.751 348.43 125.523 345.709 126.406L345.448 126.495C344.542 126.819 343.354 127.51 342.303 128.283C341.781 128.666 341.304 129.061 340.922 129.429C340.747 129.598 340.598 129.756 340.476 129.899C340.585 129.907 340.71 129.915 340.855 129.922C342.091 129.983 344.548 129.99 349.323 129.99C354.152 129.99 356.606 129.983 357.828 129.919C357.956 129.913 358.067 129.904 358.165 129.897C358.096 129.819 358.016 129.734 357.925 129.642C357.625 129.339 357.246 128.997 356.833 128.654C355.999 127.963 355.074 127.308 354.438 126.986Z" fill="#833AF7"/>
<path fill-rule="evenodd" clip-rule="evenodd" d="M348.592 73.9636C347.995 73.3294 346.353 72.0609 344.935 71.1282C343.555 70.2327 342.025 69.0762 341.54 68.5539L340.719 67.6584L335.72 68.2181C332.959 68.5538 330.273 68.9642 329.713 69.1881C328.445 69.7104 328.072 69.4493 327.773 67.9569C327.661 67.2853 326.803 65.1214 325.871 63.1814C324.938 61.2413 324.192 59.3759 324.192 59.0774C324.192 58.4848 323.988 58.1111 323.59 57.9582L316.824 55.0713C316.504 54.8848 315.999 54.6748 315.29 54.4166C315.155 54.3677 315.014 54.3171 314.864 54.2646C313.074 53.6676 312.812 53.4811 312.924 52.6976C312.999 52.2126 313.186 49.8622 313.372 47.4744C313.521 45.0866 313.894 42.7362 314.118 42.2511C314.529 41.505 314.491 41.3184 313.633 40.7215C313.074 40.3111 311.88 38.7068 310.91 37.1398C309.977 35.5729 308.559 33.7074 307.813 32.9986L306.47 31.7674L307.664 30.76C308.298 30.2377 309.679 28.5215 310.686 26.9545C311.693 25.3876 312.999 23.7087 313.559 23.1864C314.379 22.4029 314.491 22.1044 314.193 21.5075C313.969 21.0971 313.671 19.1943 313.559 17.2543C313.447 15.3142 313.148 13.0011 312.924 12.143C312.477 10.3148 312.775 9.82981 314.454 9.82981C314.939 9.82981 316.618 9.15825 318.148 8.30014C319.677 7.44204 321.617 6.58394 322.475 6.32278C323.819 5.94969 324.005 5.72584 324.266 4.45734C324.453 3.67386 325.199 1.84573 325.982 0.390685C326.729 -1.06436 327.549 -2.9298 327.736 -3.7879C328.146 -5.50411 327.475 -5.39219 334.526 -4.75794C336.839 -4.53408 339.041 -4.16099 339.451 -3.89983C340.085 -3.52674 340.309 -3.52675 340.682 -4.04907C340.943 -4.38485 342.697 -5.65334 344.562 -6.88453C346.428 -8.11572 348.293 -9.57077 348.741 -10.0931C349.636 -11.2497 349.972 -11.287 350.905 -10.2796C351.278 -9.83193 353.106 -8.48881 354.934 -7.29493C356.725 -6.06374 358.516 -4.68331 358.889 -4.27291C359.486 -3.52674 359.635 -3.48943 360.605 -3.97445C361.202 -4.23561 363.441 -4.6087 365.604 -4.75794C367.768 -4.90717 370.081 -5.16833 370.753 -5.31757C371.798 -5.54142 371.947 -5.4668 371.947 -4.72062C371.947 -4.27292 372.768 -2.14632 373.775 0.0548964C374.782 2.25612 375.678 4.45734 375.752 4.94235C375.827 5.61391 376.237 5.94969 377.357 6.28547C378.215 6.50932 380.006 7.33011 381.349 8.1136C382.692 8.85978 384.557 9.60595 385.453 9.75518C386.87 10.0163 387.057 10.1656 386.982 10.9491C386.647 15.0903 386.05 19.9405 385.714 20.9478C385.341 22.0671 385.415 22.2163 386.609 23.3729C387.281 24.0071 388.587 25.798 389.445 27.2903C390.303 28.7827 391.422 30.2377 391.907 30.5735C393.101 31.357 393.064 31.8793 391.87 32.9613C391.348 33.4836 390.004 35.349 388.848 37.1398C387.729 38.968 386.46 40.6096 386.05 40.8334C385.565 41.0946 385.415 41.4304 385.602 41.8407C385.751 42.1765 386.087 44.5643 386.348 47.1386C386.609 49.7129 386.945 52.1753 387.057 52.623C387.244 53.1826 387.169 53.5184 386.833 53.6676C386.535 53.7423 385.303 54.19 384.11 54.6377L381.871 55.4585L376.322 58.1707C375.858 58.1617 375.678 58.4601 375.678 59.0774C375.678 59.4505 375.044 61.1667 374.26 62.8829C373.439 64.5991 372.581 66.6511 372.32 67.4719C371.686 69.4493 371.499 69.6358 370.305 69.1508C369.746 68.9642 367.433 68.6285 365.194 68.4046C362.956 68.2181 360.792 67.8823 360.344 67.6211C359.635 67.2481 359.411 67.36 358.628 68.3673C358.105 69.0389 356.911 69.9716 355.904 70.4566C354.934 70.9416 353.218 72.2101 352.061 73.2175C350.942 74.2621 349.935 75.1202 349.86 75.1202C349.785 75.1202 349.226 74.5979 348.592 73.9636ZM369.447 30.4989C368.738 30.7227 368.589 30.6108 368.403 29.3423C368.029 27.1038 366.761 23.5968 365.679 21.9552C365.157 21.1344 363.814 19.4928 362.694 18.2989L360.642 16.1723L361.463 15.2769C361.911 14.7919 362.955 14.2322 363.739 13.9711C365.53 13.4488 366.686 13.7099 371.387 15.7246L374.745 17.1796L374.633 21.0598C374.559 23.1864 374.409 25.2757 374.297 25.686C373.999 26.768 372.507 28.6707 371.313 29.5288C370.716 29.9392 369.895 30.3496 369.447 30.4989ZM340.496 6.62125C340.533 6.65856 340.048 7.74051 339.376 9.00901C338.481 10.7625 337.996 11.2848 337.436 11.2475C337.206 11.2266 336.752 11.1939 336.226 11.156L336.226 11.1559L336.224 11.1558C335.814 11.1263 335.361 11.0936 334.937 11.061C333.929 10.9864 333.146 10.7625 333.146 10.576C333.146 10.3894 333.593 9.27017 334.153 8.15091L335.198 6.06162L337.809 6.32278C338.209 6.3649 338.595 6.40405 338.942 6.43938C339.827 6.52925 340.469 6.59447 340.496 6.62125ZM360.493 1.02493C362.918 3.00229 363.03 3.37539 361.239 3.67385C360.456 3.78578 359.299 4.00963 358.665 4.19618C357.695 4.45734 357.135 4.2708 354.971 3.0023L352.434 1.50995L353.479 0.950317C354.076 0.651847 355.456 0.204136 356.576 -0.057025L358.59 -0.542035L360.493 1.02493ZM353.815 -2.25824C352.397 -1.81054 351.203 -1.25091 351.129 -1.02706C350.942 -0.430116 349.897 -0.542044 348.89 -1.25091C348.405 -1.58669 347.025 -2.14632 345.756 -2.4821L343.48 -3.07904L345.308 -4.16099C346.316 -4.75793 347.771 -5.69066 348.592 -6.2876C349.375 -6.84723 350.233 -7.18301 350.457 -7.03377C350.501 -7.00475 350.589 -6.94607 350.715 -6.86297C351.235 -6.51886 352.389 -5.75587 353.591 -4.94448L356.315 -3.07904L353.815 -2.25824ZM346.726 0.987617C347.323 1.43532 347.211 1.58456 345.308 2.85306C344.003 3.71116 342.846 4.19617 342.212 4.15886C337.996 3.8977 337.25 3.78579 337.25 3.56193C337.25 3.03961 341.204 -0.616657 341.764 -0.616657C342.697 -0.616657 345.98 0.427985 346.726 0.987617ZM369.97 -1.13898C370.902 0.204139 372.693 3.71116 372.693 4.23349C372.693 4.64388 372.171 4.68119 370.828 4.23349C370.305 4.08425 369.111 3.93502 368.141 3.89771C366.574 3.8604 366.313 3.74847 365.791 2.70382C365.455 2.10688 364.522 0.913001 363.702 0.0922079C362.844 -0.765895 362.284 -1.51207 362.396 -1.624C362.508 -1.73593 364.075 -1.92246 365.903 -2.03439L369.223 -2.22093L369.97 -1.13898ZM334.414 2.47997C333.668 3.59923 333.295 3.8604 332.288 3.8604C331.653 3.8604 330.124 4.08425 328.967 4.38272C327.773 4.64388 326.803 4.79311 326.803 4.7185C326.803 4.15886 330.273 -2.0717 330.646 -2.18363C330.907 -2.25825 332.661 -2.14632 334.563 -1.92247L338.033 -1.54938L336.69 -0.243569C335.907 0.465298 334.899 1.69648 334.414 2.47997ZM366.5 10.0537C366.724 10.7625 366.574 10.8744 364.97 11.061C363.963 11.2102 362.806 11.3968 362.359 11.546C361.687 11.7326 361.5 11.6206 361.5 11.0983C361.5 10.6879 361.09 9.71788 360.568 8.89709C360.083 8.07629 359.635 7.29281 359.635 7.18088C359.635 6.8451 364.112 6.06162 364.56 6.32278C364.933 6.54663 366.127 8.89709 366.5 10.0537ZM373.626 8.1136C373.924 8.33745 374.409 9.75518 374.67 11.2475C375.044 13.113 375.081 13.9338 374.782 13.9338C374.559 13.9338 373.402 13.3741 372.208 12.7026C370.231 11.6206 369.932 11.2849 369.111 9.30749C368.626 8.0763 368.328 6.99434 368.403 6.91973C368.664 6.65856 372.992 7.62859 373.626 8.1136ZM330.534 9.64326C329.937 11.2848 329.639 11.6579 327.699 12.7026C327.643 12.7328 327.588 12.7625 327.535 12.7916C325.982 13.6354 325.276 14.019 325.049 13.8294C324.86 13.6713 325.004 13.1146 325.267 12.0938C325.269 12.0854 325.271 12.0769 325.274 12.0683C325.46 11.3595 325.721 10.1283 325.833 9.3821C326.057 8.15091 326.244 7.96437 327.848 7.47936C328.818 7.14358 330.086 6.80779 330.683 6.65856C331.616 6.47202 331.728 6.50933 331.467 7.10627C331.38 7.32327 331.205 7.8053 331 8.36886C330.853 8.77425 330.69 9.22182 330.534 9.64326ZM357.695 14.568C350.606 12.9264 349.748 12.8891 345.793 13.8965C344.264 14.3069 342.734 14.7173 342.398 14.8665C341.466 15.2396 340.794 12.516 341.354 10.7625C341.951 8.93439 348.48 3.48731 350.084 3.48731C350.83 3.48731 356.24 7.55397 357.508 9.04632C358.367 10.091 358.516 10.6133 358.516 12.516C358.516 14.6426 358.478 14.7546 357.695 14.568ZM383.923 12.516L383.662 15.538C383.363 19.3809 383.14 19.8286 382.17 18.7466C381.796 18.2989 380.714 17.4408 379.782 16.8439L378.103 15.7619L377.692 12.516C377.469 10.7252 377.319 9.19556 377.394 9.12094C377.469 9.04632 378.961 9.7925 380.714 10.7625L383.923 12.516ZM321.058 16.2469C320.61 16.4708 319.491 17.2916 318.521 18.0751C317.551 18.8958 316.693 19.5301 316.581 19.5301C316.469 19.5301 316.357 19.0824 316.357 18.5228C316.357 17.9258 316.245 16.3588 316.133 14.9784L315.872 12.516L319.342 10.7625L322.811 9.00901L322.55 10.4641C322.44 11.0411 322.31 12.0228 322.189 12.9324C322.146 13.2578 322.104 13.574 322.065 13.8592C321.916 15.3515 321.655 15.9111 321.058 16.2469ZM382.02 25.1637C381.759 26.283 381.386 27.4769 381.199 27.85C380.864 28.4842 380.155 28.7454 380.155 28.223C380.155 28.0365 379.483 27.0292 378.662 25.9472C377.207 24.0445 377.17 23.9698 377.431 21.7686C377.543 20.5374 377.804 19.4182 378.028 19.2689C378.215 19.157 379.297 19.9778 380.416 21.1344L382.505 23.1864L382.02 25.1637ZM322.55 24.1937L320.722 26.3576C319.715 27.5142 318.819 28.4842 318.745 28.4842C318.67 28.4842 318.521 28.1111 318.409 27.6634C318.384 27.5553 318.361 27.4498 318.337 27.3466C317.796 24.942 317.552 23.8604 317.875 22.9876C318.138 22.274 318.78 21.7 319.946 20.6568C320.016 20.5939 320.088 20.5293 320.162 20.4628L322.14 18.672L322.326 21.4328L322.55 24.1937ZM331.989 27.5515C331.765 28.5961 331.504 29.6408 331.43 29.9019C331.131 30.9466 328.034 29.8273 326.99 28.2603C325.721 26.3203 324.341 16.9185 325.311 16.9185C325.572 16.9185 327.102 16.3215 328.743 15.6127C332.586 13.8965 334.302 13.5234 336.056 14.0084C337.436 14.3815 339.115 15.6127 339.115 16.2842C339.115 16.5081 338.145 17.6273 336.914 18.7839C334.563 21.0971 332.735 24.3429 331.989 27.5515ZM378.625 33.2224C378.177 34.0059 377.543 34.9386 377.245 35.3117C376.461 36.2071 376.2 36.1325 375.678 34.864C375.454 34.2671 374.857 33.409 374.335 32.924C373.85 32.4762 373.439 31.9166 373.439 31.7301C373.439 31.5808 374.074 30.4989 374.894 29.3796C374.957 29.2922 375.017 29.208 375.075 29.1274C375.691 28.2638 376.027 27.7918 376.377 27.7823C376.798 27.7709 377.237 28.4315 378.206 29.8883C378.28 30.0001 378.358 30.1165 378.439 30.2377L379.483 31.8047L378.625 33.2224ZM325.386 33.4836C324.527 34.4163 323.819 35.349 323.819 35.5729C323.819 36.431 323.11 35.834 321.804 33.894L320.423 31.8047L321.841 29.79C322.625 28.6707 323.371 27.738 323.52 27.738C323.669 27.738 323.968 28.1111 324.229 28.5961C324.453 29.0438 325.162 29.9393 325.796 30.6108L326.915 31.8047L325.386 33.4836ZM388.997 31.6181L387.132 34.7148C385.303 37.7741 384.632 38.4456 384.632 37.1771C384.632 36.8041 384.11 35.4236 383.513 34.1178L382.393 31.7674L383.102 30.5735C383.475 29.9393 383.998 28.7454 384.259 27.9246C384.968 25.6487 385.229 25.6114 386.274 27.5888C386.796 28.5961 387.617 29.9019 388.102 30.4989L388.997 31.6181ZM316.805 33.297C316.394 34.0432 315.834 35.349 315.573 36.2444C315.312 37.1025 315.014 37.8114 314.902 37.8114C314.79 37.8114 313.783 36.431 312.701 34.7894C310.947 32.1405 310.76 31.6928 311.208 31.0958C311.469 30.76 312.439 29.3796 313.335 28.0738L315.014 25.7234L315.461 26.8053C315.723 27.4396 315.946 28.1484 315.984 28.4096C315.984 28.6707 316.319 29.5662 316.767 30.4243L317.551 31.9539L316.805 33.297ZM321.058 37.5502C322.513 39.7515 322.55 39.9753 322.401 42.2138C322.326 43.6689 322.102 44.527 321.804 44.527C321.58 44.527 320.573 43.7062 319.603 42.7362C318.185 41.2811 317.849 40.7215 317.886 39.6768C317.924 38.0353 318.67 35.4983 319.155 35.349C319.379 35.2744 320.2 36.2817 321.058 37.5502ZM382.543 40.423L380.341 42.6615C379.11 43.8927 378.028 44.9001 377.879 44.9001C377.767 44.9001 377.543 43.7062 377.431 42.2138C377.207 39.6395 377.245 39.5276 378.327 38.2591C378.961 37.5502 379.633 36.5802 379.856 36.0952C380.08 35.6102 380.416 35.1998 380.565 35.1998C380.714 35.1998 381.237 36.3937 381.685 37.8114L382.543 40.423ZM364.261 38.5576C362.135 43.0346 358.478 46.1313 353.852 47.3251C350.084 48.2952 345.458 47.6982 342.286 45.8701C338.108 43.4077 334.75 38.0353 334.377 33.2597C333.855 26.5441 337.175 20.724 343.145 17.7766C345.905 16.3962 346.092 16.3588 349.897 16.3962C355.009 16.3962 357.247 17.217 360.53 20.3136C362.247 21.9179 363.217 23.1864 364.149 25.201C365.343 27.7753 365.418 28.1484 365.418 32.0285C365.418 35.834 365.343 36.319 364.261 38.5576ZM375.044 45.7955C375.118 46.3924 374.372 46.8774 371.014 48.3325C368.776 49.3025 366.425 50.086 365.791 50.086C364.224 50.0487 362.396 49.3398 361.426 48.3325L360.568 47.4744L362.284 45.9074C365.306 43.1093 367.358 39.4157 368.253 35.1252C368.664 33.297 368.701 33.2597 369.858 33.4836C370.492 33.6328 371.648 34.3417 372.432 35.1252C372.459 35.1525 372.485 35.1794 372.511 35.2057C372.794 35.4952 373.019 35.7261 373.208 35.9838C373.953 36.9987 374.13 38.4298 375.007 45.4973C375.019 45.5956 375.031 45.695 375.044 45.7955ZM336.951 45.2732C339.526 47.8102 339.563 48.2579 337.212 49.4518C336.504 49.8248 335.459 50.1233 334.825 50.1233C333.444 50.1233 329.34 48.6683 327.139 47.4744L325.497 46.5417L325.535 42.4377C325.572 38.968 325.684 38.0353 326.356 36.6548C327.326 34.7148 328.669 33.6328 330.236 33.5582C331.355 33.5209 331.392 33.5955 331.877 35.946C332.623 39.5649 334.34 42.6615 336.951 45.2732ZM383.96 51.4291L380.752 53.0334C378.961 53.8915 377.431 54.6004 377.319 54.6004C377.207 54.6004 377.207 54.1526 377.357 53.593C377.543 52.9961 377.692 51.5783 377.73 50.4218C377.804 48.3698 377.879 48.2206 379.259 47.2878C380.043 46.7655 381.349 45.7209 382.132 44.9747L383.513 43.6316V45.9074C383.513 47.1386 383.625 48.8921 383.736 49.7875L383.96 51.4291ZM321.953 49.2652C321.953 50.0487 322.177 51.653 322.475 52.8468C322.737 54.0034 322.886 54.9734 322.737 54.9734C322.625 54.9361 321.02 54.1526 319.192 53.2199L315.909 51.5037L316.17 47.9221C316.282 45.9447 316.469 44.2658 316.543 44.1912C316.618 44.1166 317.513 44.7881 318.483 45.6462C319.453 46.5044 320.647 47.3624 321.132 47.549C321.767 47.8102 321.953 48.1459 321.953 49.2652ZM373.663 55.6823C373.439 55.8689 372.357 56.2793 371.238 56.615C368.179 57.5105 368.179 57.5104 369.298 54.7123C370.268 52.3245 370.455 52.1007 372.618 50.9441C374.708 49.8248 374.932 49.7875 374.932 50.4218C374.932 51.8022 374.074 55.3465 373.663 55.6823ZM330.422 54.2273C331.056 55.5704 331.616 56.7643 331.616 56.9508C331.653 57.3612 330.534 57.212 328.333 56.5404L326.281 55.9062L325.535 53.0334C325.124 51.4291 324.901 50.0487 325.012 49.8995C325.162 49.7875 326.169 50.1606 327.251 50.7576C328.967 51.653 329.378 52.138 330.422 54.2273ZM366.463 53.108C366.649 53.2572 366.351 54.3392 365.791 55.4958L364.821 57.5851L363.067 57.5478C362.097 57.5478 360.941 57.3985 360.493 57.212L359.672 56.8762L360.68 54.6377L361.687 52.3618L363.926 52.5857C365.157 52.7349 366.313 52.9588 366.463 53.108ZM340.458 57.1374L339.152 57.3612C338.406 57.4731 337.175 57.5851 336.392 57.5851C335.011 57.5851 334.937 57.5104 334.041 55.5331C333.556 54.3765 333.146 53.2946 333.146 53.108C333.146 52.8842 333.78 52.7349 334.601 52.7349C335.384 52.7349 336.578 52.623 337.212 52.5111C338.257 52.2872 338.444 52.3618 338.63 53.108C338.742 53.5557 339.227 54.675 339.675 55.5331L340.458 57.1374ZM358.516 51.2426C358.516 53.9288 357.658 55.1973 353.703 58.1074C351.875 59.4505 350.271 60.5698 350.084 60.5325C349.897 60.5325 348.33 59.5624 346.614 58.4059C342.771 55.7942 341.354 53.8542 341.354 51.1306C341.354 50.9542 341.35 50.7929 341.347 50.6462C341.335 50.1345 341.328 49.8001 341.491 49.6186C341.798 49.2766 342.711 49.4781 345.344 50.0597C345.74 50.1471 346.174 50.2431 346.652 50.3471C349.785 51.0187 349.972 51.0187 353.181 50.3471C353.79 50.2223 354.33 50.109 354.809 50.0085L354.81 50.0083C357.258 49.495 358.115 49.3152 358.402 49.6398C358.557 49.8147 358.546 50.1363 358.529 50.6312C358.523 50.8115 358.516 51.0149 358.516 51.2426ZM362.62 60.5698C362.62 60.7563 361.762 61.6517 360.717 62.5844C359.411 63.741 358.478 64.3007 357.807 64.2634C356.538 64.226 353.404 63.256 353.106 62.8456C352.882 62.4352 355.792 59.9355 356.65 59.7863C357.62 59.5997 362.62 60.2713 362.62 60.5698ZM347.323 62.5098C347.323 62.6591 346.39 63.1068 345.271 63.5172C345.208 63.5413 345.145 63.5651 345.084 63.5885C343.238 64.2902 342.383 64.6153 341.649 64.4382C341.016 64.2852 340.473 63.7581 339.462 62.776C339.398 62.714 339.332 62.6501 339.264 62.5844L337.063 60.4578L338.929 60.1594C342.697 59.5624 343.294 59.637 345.346 60.9802C346.428 61.689 347.323 62.3606 347.323 62.5098ZM372.581 59.1893C372.656 59.3013 372.096 60.8309 371.275 62.5844L369.746 65.793L367.582 65.7184C364.373 65.6438 361.874 65.4199 361.874 65.1961C361.874 65.1215 362.545 64.4126 363.403 63.6664C364.261 62.8829 365.082 61.8756 365.269 61.4279C365.455 60.9428 365.791 60.4951 366.052 60.4205C368.104 59.8609 372.395 59.0401 372.581 59.1893ZM335.571 62.659C336.914 64.0395 337.959 65.2334 337.884 65.308C337.772 65.3826 336.056 65.5318 334.041 65.6811L330.348 65.9049L328.781 62.8456C327.885 61.204 327.176 59.6743 327.176 59.4878C327.176 59.3386 328.146 59.4132 329.34 59.6743C330.497 59.9728 331.84 60.1967 332.325 60.1967C332.847 60.1967 334.004 61.0921 335.571 62.659ZM352.882 65.7184C354.524 66.278 355.904 66.8376 355.904 66.9496C355.904 67.0615 354.561 68.0315 352.957 69.0762C351.315 70.1581 349.935 71.0162 349.86 70.9789C349.226 70.8297 344.189 67.248 344.301 67.0242C344.376 66.8749 345.682 66.278 347.174 65.7184L349.86 64.7484L352.882 65.7184Z" fill="#545454"/>
<rect width="699" height="383" rx="54" fill="url(#paint0_linear_1314_891)"/>
<path d="M0 54C0 24.1766 24.1766 0 54 0H645C674.823 0 699 24.1766 699 54V329C699 358.823 674.823 383 645 383H54C24.1766 383 0 358.823 0 329V54Z" fill="url(#paint1_linear_1314_891)"/>
</g>
<defs>
<linearGradient id="paint0_linear_1314_891" x1="349" y1="255.5" x2="349" y2="364.5" gradientUnits="userSpaceOnUse">
<stop stop-color="#FFFFFF" stop-opacity="0"/>
<stop offset="1" stop-color="#FFFFFF"/>
</linearGradient>
<linearGradient id="paint1_linear_1314_891" x1="349" y1="-6.65889e-06" x2="349" y2="65" gradientUnits="userSpaceOnUse">
<stop stop-color="#FFFFFF"/>
<stop offset="1" stop-color="#FFFFFF" stop-opacity="0"/>
</linearGradient>
</defs>
</svg>
