<svg width="699" height="383" viewBox="0 0 699 383" fill="none" xmlns="http://www.w3.org/2000/svg">
<rect width="699" height="383" rx="54" fill="#FFFFFF"/>
<mask id="mask0_1314_945" style="mask-type:alpha" maskUnits="userSpaceOnUse" x="0" y="0" width="699" height="383">
<rect width="699" height="383" rx="54" fill="#0E0E0E"/>
</mask>
<g mask="url(#mask0_1314_945)">
<path d="M349.002 -239.428C353.398 -239.428 356.962 -235.864 356.962 -231.468C356.962 -227.583 354.177 -224.35 350.494 -223.651L350.494 330.046C354.177 330.745 356.962 333.978 356.962 337.864C356.962 342.26 353.398 345.823 349.002 345.823C344.606 345.823 341.043 342.26 341.043 337.864C341.043 333.978 343.827 330.745 347.51 330.046L347.51 -223.651C343.828 -224.35 341.043 -227.583 341.043 -231.468C341.043 -235.864 344.606 -239.428 349.002 -239.428Z" fill="#B7B7B7"/>
<path d="M357.21 255.038C357.21 259.572 353.535 263.246 349.002 263.246C344.469 263.246 340.794 259.572 340.794 255.038C340.794 250.505 344.469 246.831 349.002 246.831C353.535 246.831 357.21 250.505 357.21 255.038Z" fill="#B7B7B7"/>
<path d="M357.21 179.675C357.21 184.208 353.535 187.883 349.002 187.883C344.469 187.883 340.794 184.208 340.794 179.675C340.794 175.142 344.469 171.467 349.002 171.467C353.535 171.467 357.21 175.142 357.21 179.675Z" fill="#B7B7B7"/>
<path d="M357.21 98.3415C357.21 102.875 353.535 106.549 349.002 106.549C344.469 106.549 340.794 102.875 340.794 98.3415C340.794 93.8084 344.469 90.1335 349.002 90.1335C353.535 90.1335 357.21 93.8084 357.21 98.3415Z" fill="#B7B7B7"/>
<path d="M357.21 19.2468C357.21 23.78 353.535 27.4548 349.002 27.4548C344.469 27.4548 340.794 23.78 340.794 19.2468C340.794 14.7137 344.469 11.0389 349.002 11.0389C353.535 11.0389 357.21 14.7137 357.21 19.2468Z" fill="#B7B7B7"/>
<path d="M357.21 -125.511C357.21 -120.978 353.535 -117.303 349.002 -117.303C344.469 -117.303 340.794 -120.978 340.794 -125.511C340.794 -130.044 344.469 -133.719 349.002 -133.719C353.535 -133.719 357.21 -130.044 357.21 -125.511Z" fill="#B7B7B7"/>
<path d="M348.713 210.213C348.713 210.026 348.564 209.952 348.34 210.064C348.154 210.175 347.967 210.138 347.967 209.952C347.967 209.728 346.699 208.609 345.169 207.452C343.639 206.258 342.371 205.176 342.371 205.064C342.371 204.952 342.035 204.43 341.662 203.908C341.065 203.161 340.841 203.087 340.356 203.497C339.983 203.796 338.23 204.057 335.767 204.206C333.268 204.318 332.036 204.505 332.484 204.691C333.641 205.139 332.559 205.064 331.253 204.616C330.581 204.393 330.134 204.057 330.246 203.908C330.357 203.758 330.059 202.453 329.611 201.035C329.164 199.654 328.641 197.416 328.417 196.11L328.007 193.722L326.291 193.125C325.395 192.79 324.052 192.081 323.343 191.558C321.739 190.327 319.613 189.245 319.613 189.618C319.613 189.805 319.426 189.656 319.239 189.357C318.754 188.499 321.664 180.254 322.709 179.582C322.97 179.433 322.784 178.687 322.15 177.53C321.627 176.56 320.844 174.62 320.359 173.24C319.911 171.859 319.389 170.628 319.202 170.516C318.456 170.031 318.904 168.837 320.06 168.24C320.732 167.905 322.112 166.972 323.157 166.188C324.164 165.442 325.731 164.584 326.627 164.323C328.082 163.913 328.194 163.763 328.194 162.532C328.194 160.965 329.984 154.287 330.581 153.69C330.992 153.28 338.08 153.578 340.207 154.1C340.99 154.324 341.214 154.212 341.401 153.615C341.55 153.205 342.11 152.571 342.669 152.198C343.229 151.862 344.908 150.556 346.4 149.362L349.086 147.198L352.668 150.034C354.608 151.601 356.399 153.28 356.66 153.802C356.959 154.511 357.257 154.66 357.817 154.473C358.264 154.324 359.869 154.063 361.398 153.914C362.928 153.727 364.868 153.503 365.726 153.354C366.771 153.205 367.368 153.28 367.629 153.615C368.301 154.511 369.979 160.816 369.979 162.42C369.979 163.801 370.054 163.987 370.875 163.987C371.323 163.987 372.293 164.398 373.001 164.883C376.098 167.121 378.598 168.8 379.008 168.949C379.381 169.061 379.381 169.36 378.971 170.367C378.71 171.076 378.001 172.867 377.441 174.396C376.844 175.889 376.023 177.493 375.613 177.941L374.83 178.761L375.762 180.03C376.285 180.739 377.068 182.418 377.516 183.835C377.963 185.216 378.411 186.261 378.523 186.186C378.635 186.111 378.747 186.447 378.784 186.858C378.784 187.305 378.934 187.939 379.083 188.238C379.269 188.686 378.486 189.357 375.986 190.961C374.158 192.118 372.031 193.312 371.248 193.573C369.905 194.058 369.83 194.17 369.756 195.849C369.681 196.856 369.308 198.647 368.86 199.841C368.45 201.072 368.114 202.639 368.114 203.348V204.616L366.36 204.467C365.353 204.355 363.264 204.206 361.66 204.094C360.055 204.02 358.414 203.721 357.966 203.497C357.294 203.124 357.071 203.199 356.511 203.945C355.653 205.027 355.578 205.661 356.362 205.027C356.847 204.616 356.884 204.654 356.697 205.139C356.586 205.437 356.25 205.81 355.951 205.922C355.616 206.034 355.504 205.96 355.616 205.773C355.727 205.549 355.69 205.4 355.466 205.4C355.28 205.4 355.056 205.549 354.981 205.698C354.832 206.072 349.236 210.623 348.937 210.623C348.825 210.623 348.713 210.437 348.713 210.213ZM350.43 206.072C352.444 204.579 354.683 202.266 354.683 201.669C354.683 201.184 353.899 201.109 349.086 201.147C346.027 201.147 343.378 201.259 343.266 201.408C342.931 201.744 348.228 206.892 348.863 206.892C349.161 206.892 349.833 206.519 350.43 206.072ZM339.647 200.96C341.028 200.587 340.729 200.065 338.379 198.684C337.11 197.976 335.096 196.483 333.864 195.439C332.633 194.357 331.514 193.461 331.402 193.461C330.656 193.461 331.551 199.356 332.521 200.848C333.044 201.669 333.23 201.669 335.954 201.445C337.521 201.296 339.2 201.072 339.647 200.96ZM365.241 201.109C365.913 200.475 366.845 197.714 367.181 195.439C367.517 193.312 366.995 193.349 364.197 195.737C363.003 196.782 361.1 198.162 360.018 198.759C358.936 199.356 358.041 200.028 358.041 200.177C358.041 200.363 358.6 200.662 359.272 200.886C362.033 201.744 364.532 201.856 365.241 201.109ZM346.214 196.931C345.654 195.924 344.497 194.058 343.677 192.715C342.856 191.372 341.662 189.469 341.102 188.424C337.931 182.903 331.402 171.934 330.992 171.486C330.581 171.076 330.357 171.598 329.723 174.359C328.79 178.276 328.753 179.694 329.499 183.127C330.954 190.066 336.886 196.222 343.901 198.087C347.296 199.02 347.408 198.946 346.214 196.931ZM355.205 197.752C359.794 196.558 364.644 192.491 366.808 188.089C369.196 183.239 369.681 179.694 368.711 174.695C368.226 172.083 367.741 171.188 367.069 171.598C366.845 171.71 365.875 173.314 364.868 175.105C359.458 184.694 354.011 194.095 351.773 197.491C351.288 198.274 351.288 198.311 352.146 198.311C352.631 198.311 354.011 198.05 355.205 197.752ZM353.452 189.73C355.28 186.559 358.488 181.037 360.578 177.456C362.667 173.874 364.383 170.815 364.383 170.665C364.383 170.479 357.481 170.33 349.049 170.33H333.753L335.693 173.986C336.775 175.963 339.2 180.217 341.065 183.388C342.968 186.559 345.468 190.887 346.661 193.013C348.751 196.707 348.863 196.856 349.46 196.185C349.833 195.812 351.623 192.902 353.452 189.73ZM328.716 188.723C328.007 187.305 327.149 184.955 326.776 183.5C326.44 182.007 325.955 180.776 325.694 180.776C325.172 180.776 323.082 184.917 322.746 186.596C322.56 187.641 322.709 187.865 324.537 189.245C326.85 190.961 327.224 191.148 328.828 191.185L329.984 191.223L328.716 188.723ZM373.001 189.656C374.307 188.798 375.501 187.939 375.65 187.716C376.135 187.007 373.225 180.627 372.516 180.851C372.293 180.925 371.77 182.343 371.397 183.947C371.024 185.589 370.203 187.79 369.606 188.872C368.972 189.954 368.487 190.924 368.487 191.036C368.487 191.148 368.972 191.223 369.569 191.223C370.203 191.223 371.621 190.588 373.001 189.656ZM325.955 177.269C325.955 176.448 328.417 169.21 328.977 168.427C330.357 166.45 329.574 166.076 326.701 167.382C324.351 168.427 322.597 169.882 322.597 170.703C322.597 171.598 324.313 176.224 324.873 176.933C325.283 177.381 325.955 177.605 325.955 177.269ZM375.016 173.128L376.023 170.516L374.643 169.322C372.964 167.905 370.464 166.599 369.308 166.599C368.301 166.599 368.3 166.599 369.457 168.875C369.979 169.919 370.726 172.046 371.136 173.613C371.509 175.217 371.957 176.71 372.031 177.008C372.404 177.941 373.897 175.963 375.016 173.128ZM365.129 167.42C365.129 166.748 361.734 163.539 359.421 162.01C353.825 158.279 345.318 158.167 339.274 161.637C337.409 162.756 333.044 166.823 333.044 167.494C333.044 167.793 338.08 167.905 349.086 167.905C361.958 167.905 365.129 167.83 365.129 167.42ZM366.995 162.607C366.995 160.965 366.174 157.085 365.764 156.637C365.652 156.563 364.42 156.451 363.003 156.413C360.615 156.376 357.667 157.01 357.667 157.57C357.667 157.719 358.6 158.316 359.757 158.913C360.876 159.51 362.779 160.965 363.935 162.159C365.092 163.316 366.286 164.323 366.547 164.323C366.845 164.36 366.995 163.763 366.995 162.607ZM334.275 161.898C335.506 160.741 337.409 159.398 338.491 158.839C341.849 157.197 341.028 156.525 335.767 156.525C332.223 156.525 332.26 156.488 331.365 160.368C330.805 162.756 330.917 163.987 331.626 163.987C331.85 163.987 333.006 163.054 334.275 161.898ZM354.645 156.302C355.541 155.481 350.019 150.705 348.713 151.116C347.669 151.451 342.968 156.003 343.229 156.413C343.416 156.749 354.31 156.637 354.645 156.302Z" fill="#F09C22"/>
<path d="M347.743 290.053C347.146 289.419 345.243 288.001 343.49 286.845C339.386 284.159 338.416 283.226 337.67 281.248L337.035 279.607L335.431 279.868C333.379 280.166 330.544 279.308 327.633 277.555C326.402 276.771 324.388 275.876 323.156 275.54C320.918 274.906 320.918 274.906 321.03 273.563C321.104 272.593 320.993 272.145 320.507 271.884C319.948 271.585 319.911 271.399 320.321 270.914C320.955 270.168 320.507 268.078 319.724 268.078C318.717 268.078 319.463 267.668 320.582 267.593C321.627 267.519 321.664 267.407 321.888 265.094C322.112 262.519 322.783 260.878 324.052 259.721C324.835 259.012 324.835 258.975 324.126 258.229C322.559 256.475 322.112 254.946 321.813 250.17C321.664 247.596 321.366 244.947 321.142 244.275C320.731 242.932 320.881 242.82 323.53 241.962C324.35 241.701 326.514 240.731 328.342 239.761C331.252 238.231 331.924 238.045 334.274 237.97L336.886 237.896L337.371 236.552C338.043 234.612 339.423 233.269 343.303 230.882C345.169 229.762 347.183 228.307 347.855 227.673L349.049 226.554L350.466 227.86C351.287 228.568 353.302 229.949 354.944 230.956C358.562 233.083 360.652 235.097 360.988 236.739L361.211 237.933L364.01 238.008C366.584 238.045 367.069 238.194 369.979 239.798C371.732 240.731 374.12 241.813 375.314 242.149C377.59 242.82 377.627 242.858 377.068 244.425C376.844 244.984 376.545 247.559 376.359 250.133C376.06 254.946 375.389 257.147 373.896 258.378C373.374 258.826 373.411 258.975 374.232 259.833C375.463 261.102 375.986 262.557 376.284 265.28C376.508 267.481 376.545 267.519 377.739 267.631C378.709 267.743 378.933 267.929 378.933 268.638C378.933 269.123 379.12 269.645 379.306 269.757C379.53 269.869 379.679 270.392 379.679 270.877C379.679 271.585 379.418 271.772 378.15 271.996C376.956 272.22 376.695 272.369 376.918 272.854C377.59 274.533 377.329 274.906 374.904 275.615C373.598 276.025 371.77 276.809 370.837 277.443C368.263 279.047 365.353 280.017 363.114 280.017C361.249 280.017 361.099 280.092 360.838 281.025C360.391 282.815 359.159 284.084 355.914 286.099C354.123 287.143 351.884 288.748 350.914 289.643C349.944 290.501 349.086 291.21 349.011 291.21C348.937 291.21 348.377 290.688 347.743 290.053ZM350.019 287.106C350.168 286.882 351.735 285.725 353.488 284.532C357.033 282.144 358.189 281.062 358.6 279.681C358.824 278.898 358.786 278.823 358.189 279.047C357.779 279.196 356.137 279.681 354.533 280.092C350.69 281.062 345.131 280.913 341.848 279.719C340.617 279.271 339.572 278.973 339.46 279.047C339.237 279.271 340.132 280.838 341.027 281.808C341.438 282.293 343.191 283.524 344.833 284.532C346.512 285.539 348.079 286.621 348.34 286.919C348.862 287.554 349.683 287.666 350.019 287.106ZM352.295 277.741C359.234 276.473 365.8 270.541 367.591 263.825C368.114 261.848 368.225 256.252 367.778 254.647C367.554 253.901 367.442 254.2 367.218 256.028C367.032 257.595 366.472 259.348 365.427 261.4C361.883 268.452 355.205 272.294 347.444 271.697C339.684 271.138 332.819 264.609 331.066 256.14L330.544 253.715L330.245 255.132C330.096 255.953 330.059 258.229 330.133 260.206C330.282 263.042 330.506 264.273 331.252 265.914C335.244 274.645 343.602 279.308 352.295 277.741ZM333.864 274.458C332.484 273.115 330.805 271.063 330.17 269.944C328.939 267.78 327.447 263.378 327.447 261.922C327.447 260.654 326.701 260.356 325.955 261.288C325.208 262.184 324.611 265.168 324.276 269.608L324.015 272.779L325.432 273.414C326.253 273.749 328.118 274.682 329.648 275.503C332.334 276.958 333.864 277.368 335.543 277.07C336.326 276.958 336.14 276.659 333.864 274.458ZM369.867 274.943L374.046 272.854L373.859 270.168C373.449 263.937 373.374 263.527 372.404 262.034C371.844 261.214 371.359 260.617 371.285 260.691C371.21 260.766 370.874 262.072 370.576 263.601C369.718 267.668 368.188 270.466 364.942 273.861C363.413 275.466 362.144 276.958 362.144 277.144C362.144 278.003 365.95 276.921 369.867 274.943ZM355.54 267.593C361.696 264.795 365.614 257.595 364.495 251.103C363.674 246.29 361.659 243.79 356.585 241.291C354.085 240.059 353.488 239.91 350.168 239.798C340.169 239.388 333.789 244.947 333.789 254.125C333.789 257.595 334.722 260.132 337.073 263.042C339.162 265.653 341.065 267.034 343.863 268.078C346.885 269.198 352.518 268.974 355.54 267.593ZM327.298 256.252C328.566 250.394 330.469 246.738 333.901 243.343C336.662 240.656 336.662 240.171 333.864 240.582C332.521 240.806 324.089 244.835 324.089 245.283C324.089 245.395 324.276 247.409 324.462 249.723C324.91 255.282 326.626 259.199 327.298 256.252ZM372.591 255.692C373.262 254.573 373.449 253.267 373.859 247.297C373.971 245.32 373.896 244.574 373.598 244.574C373.337 244.574 371.322 243.641 369.121 242.522C366.248 241.067 364.644 240.47 363.599 240.47C362.816 240.47 362.144 240.582 362.144 240.694C362.144 240.806 363.338 242.186 364.756 243.753C367.703 246.887 369.979 251.103 370.725 254.759C370.949 255.916 371.322 256.886 371.509 256.886C371.695 256.886 372.18 256.363 372.591 255.692ZM341.774 238.231C346.213 236.664 352.033 236.59 356.137 238.008C358.227 238.754 358.413 238.754 358.413 237.858C358.413 236.702 356.697 235.135 352.63 232.635C349.683 230.807 348.788 230.434 348.34 230.732C348.041 230.993 347.295 231.441 346.736 231.814C341.55 234.948 340.132 236.217 339.572 238.157C339.274 239.164 339.125 239.127 341.774 238.231Z" fill="#D05D02"/>
<path d="M346.213 47.8821L343.564 45.2332L340.356 46.6509C338.602 47.4344 337.073 47.9941 337.035 47.9194C336.961 47.8448 336.327 46.3525 335.618 44.599L334.312 41.4277H330.805H327.26L327.223 37.6968L327.186 33.9659L323.94 32.9213C320.172 31.6901 320.321 32.1005 322.149 27.3623L323.231 24.5268L320.881 22.1764C319.575 20.8706 318.493 19.6394 318.493 19.4155C318.493 19.229 319.575 18.0351 320.918 16.8039L323.343 14.5654L322.037 11.2076C321.328 9.37944 320.769 7.70054 320.881 7.47669C320.955 7.29015 322.261 6.6932 323.753 6.20818C325.283 5.68586 326.664 5.16355 326.85 5.01432C327.037 4.82777 327.223 3.07427 327.223 1.05959L327.26 -2.59669L330.842 -2.44744L334.424 -2.33552L335.618 -5.54409C336.289 -7.29761 336.998 -8.82725 337.185 -8.97649C337.408 -9.08841 338.826 -8.6034 340.393 -7.85722C341.923 -7.11104 343.378 -6.51411 343.639 -6.51411C343.863 -6.51411 345.169 -7.59607 346.475 -8.93919C347.78 -10.2823 349.086 -11.3643 349.347 -11.3643C349.571 -11.3643 350.69 -10.2823 351.772 -8.97649C352.854 -7.63337 353.936 -6.55141 354.123 -6.55141C354.347 -6.5141 355.914 -7.11105 357.63 -7.81992C359.346 -8.5661 360.876 -9.05111 360.988 -8.93919C361.1 -8.78995 361.808 -7.33491 362.555 -5.65601L363.86 -2.59669L367.405 -2.55939H370.912L371.098 1.17149L371.285 4.86507L374.27 6.05894C377.739 7.43936 377.739 7.40206 376.098 11.8045L375.016 14.6773L377.59 17.0277L380.127 19.4155L377.627 22.1391L375.09 24.8626L376.284 27.8473C376.919 29.4889 377.441 31.0932 377.441 31.3543C377.441 31.6901 376.284 32.2497 374.27 32.8467L371.136 33.8167L371.024 37.6222L370.912 41.4277H367.405H363.898L362.592 44.7109C361.585 47.136 361.1 47.9567 360.652 47.8448C360.353 47.7329 358.786 47.0987 357.145 46.4271L354.235 45.1586L351.735 47.8821C350.392 49.3745 349.198 50.5684 349.086 50.5684C348.974 50.5684 347.706 49.3745 346.213 47.8821ZM351.026 44.7109C351.772 43.7409 352.332 42.8455 352.22 42.6589C351.884 42.1366 345.728 42.2858 345.728 42.8081C345.728 43.3677 348.713 46.4644 349.273 46.4644C349.459 46.4271 350.28 45.6436 351.026 44.7109ZM341.55 43.1812C342.445 42.6962 343.117 42.1366 343.042 41.9127C342.856 41.3904 337.259 39.525 336.923 39.8608C336.662 40.1219 337.744 43.3304 338.341 44.1139C338.714 44.5989 339.087 44.487 341.55 43.1812ZM360.503 42.1739C360.876 41.0546 361.062 40.01 360.913 39.8981C360.615 39.5623 355.317 41.6889 355.167 42.2112C355.018 42.6216 359.122 44.599 359.607 44.3378C359.756 44.2632 360.167 43.2931 360.503 42.1739ZM343.826 34.3017C336.886 21.8779 331.029 12.1403 330.506 12.1403C329.984 12.1403 328.939 17.5127 328.939 20.0124C328.939 22.8852 329.797 26.1684 331.253 29.0785C332.558 31.6901 336.14 35.3837 338.789 36.9506C340.804 38.1072 346.213 39.8607 346.4 39.3757C346.437 39.2265 345.281 36.9507 343.826 34.3017ZM353.974 39.1519C357.033 38.2565 361.585 35.7568 363.301 34.0032C368.375 29.0039 370.427 22.0644 368.897 15.0877C367.964 10.7972 368.076 10.7225 362.144 20.7586C353.638 35.1225 351.325 39.1145 351.325 39.4503C351.325 39.8607 351.66 39.8234 353.974 39.1519ZM334.498 38.4057C334.871 38.2938 334.349 37.5476 332.857 36.0179C331.626 34.7867 330.544 33.7794 330.394 33.7794C330.096 33.7794 329.611 38.2191 329.872 38.6668C330.059 38.928 333.342 38.7788 334.498 38.4057ZM368.412 36.8014C368.561 34.0779 368.375 33.6675 367.256 34.1898C366.285 34.6375 363.637 37.5849 363.637 38.2192C363.637 38.6296 365.129 38.928 366.994 38.8534L368.3 38.8161L368.412 36.8014ZM351.399 33.7048C352.556 31.5782 353.451 29.8247 353.414 29.7874C353.339 29.7128 352.78 29.862 352.108 30.0858C350.877 30.5335 346.101 30.3843 344.87 29.862C344.385 29.6754 344.572 30.1977 345.579 31.9513C347.37 35.1598 348.862 37.5103 349.086 37.5103C349.198 37.5103 350.243 35.7941 351.399 33.7048ZM328.939 31.1678C328.939 30.6455 327.037 25.8326 326.664 25.4222C326.365 25.1237 324.686 28.2577 324.388 29.6381C324.313 30.0112 324.947 30.3843 326.328 30.832C328.79 31.6155 328.939 31.6528 328.939 31.1678ZM372.516 30.7201C373.374 30.4962 374.083 30.1605 374.083 29.9739C374.083 29.4889 372.292 26.0192 371.919 25.7953C371.658 25.6461 369.233 30.4962 369.233 31.2424C369.233 31.4662 369.867 31.3917 372.516 30.7201ZM352.556 27.2131C356.1 25.4222 357.667 22.9972 357.667 19.3409C357.63 15.4608 354.981 12.0284 351.213 10.9837C348.265 10.1629 344.012 11.7299 342.109 14.3042C340.505 16.5054 340.02 20.2736 341.027 22.6987C341.699 24.3403 343.676 26.2803 345.542 27.1011C347.445 27.9592 350.952 28.0339 352.556 27.2131ZM326.328 19.6021C326.328 16.0577 326.067 15.9085 323.679 18.1097L322.037 19.6021L323.716 21.0944C326.141 23.221 326.328 23.1091 326.328 19.6021ZM374.605 21.2063C375.501 20.4229 376.284 19.6767 376.284 19.5648C376.322 19.1544 372.852 16.5801 372.441 16.7293C371.994 16.8785 371.658 21.2063 371.994 22.0644C372.292 22.8479 372.777 22.6987 374.605 21.2063ZM340.281 12.6626C341.027 11.6926 341.624 10.7599 341.624 10.5733C341.624 10.4241 339.796 10.2748 337.52 10.2748C335.282 10.2748 333.416 10.4241 333.416 10.6106C333.416 10.7972 334.386 12.5507 335.543 14.5654L337.67 18.2216L338.267 16.3189C338.64 15.2369 339.498 13.5953 340.281 12.6626ZM361.808 16.5427C362.256 15.6473 363.189 14.043 363.86 12.9611C364.569 11.8791 365.129 10.8345 365.129 10.6479C365.129 10.4241 363.338 10.2748 360.652 10.2748C358.189 10.2748 356.175 10.3868 356.175 10.4987C356.175 10.6106 356.585 11.0583 357.07 11.4314C358.078 12.2149 360.279 16.3562 360.279 17.4381C360.279 18.5947 360.988 18.1843 361.808 16.5427ZM328.156 10.8345C328.865 9.30482 329.312 7.9244 329.201 7.81248C328.939 7.55132 324.761 8.4094 324.313 8.8198C323.753 9.34212 325.992 14.2669 326.626 13.8565C326.775 13.7819 327.484 12.4015 328.156 10.8345ZM373.113 11.5434C373.673 10.3868 374.046 9.2302 373.971 8.96904C373.785 8.52134 371.285 7.66323 370.016 7.66323C369.606 7.66323 369.233 7.84976 369.233 8.11092C369.233 9.00633 371.285 13.6326 371.695 13.6326C371.956 13.6326 372.591 12.6999 373.113 11.5434ZM357.593 7.70053C361.734 7.66323 365.129 7.51398 365.129 7.36474C365.129 6.7305 361.547 3.41004 359.421 2.02961C353.862 -1.58934 346.064 -1.81318 339.983 1.43268C337.856 2.55194 333.043 6.65589 333.043 7.32744C333.043 7.66323 339.983 7.9244 346.288 7.81248C348.34 7.77517 353.414 7.73784 357.593 7.70053ZM332.82 3.29812C333.976 2.25347 334.909 1.20879 334.909 1.02225C334.909 0.611851 333.118 0.201472 331.141 0.201472C329.872 0.201472 329.686 0.313408 329.686 1.09689C329.686 2.73848 330.171 5.46203 330.432 5.35011C330.581 5.27549 331.663 4.38008 332.82 3.29812ZM368.114 4.23084C368.114 3.55928 368.226 2.3654 368.337 1.61922L368.599 0.201472H366.957C365.092 0.201472 363.637 0.53726 363.637 0.910349C363.637 1.32075 367.405 5.42471 367.778 5.42471C367.964 5.42471 368.114 4.86509 368.114 4.23084ZM340.281 -1.85051C341.848 -2.55938 343.117 -3.23094 343.117 -3.34286C343.117 -3.64134 339.46 -5.39485 338.864 -5.39485C338.341 -5.39485 337.819 -4.16364 337.334 -1.73857C337.185 -1.10432 337.147 -0.544704 337.259 -0.544704C337.334 -0.544704 338.714 -1.14164 340.281 -1.85051ZM361.211 -1.36548C360.54 -3.79055 359.719 -5.76794 359.421 -5.76794C358.861 -5.76794 355.429 -3.82789 355.429 -3.49211C355.429 -3.08171 355.988 -2.74593 358.6 -1.62667C361.398 -0.358169 361.51 -0.358142 361.211 -1.36548ZM351.884 -4.53675C351.063 -5.84256 349.422 -7.63338 349.049 -7.63338C348.75 -7.63338 346.101 -4.12634 346.101 -3.75325C346.101 -3.64133 347.556 -3.52941 349.31 -3.52941H352.519L351.884 -4.53675Z" fill="#545454"/>
<path d="M345.393 127.051C342.408 124.215 341.811 123.767 341.177 124.103C340.431 124.514 334.387 125.894 333.342 125.931C332.932 125.931 332.67 125.67 332.67 125.26C332.67 124.887 332.26 123.32 331.738 121.827C331.215 120.335 330.805 118.693 330.805 118.208C330.805 117.164 330.395 116.94 325.395 115.634C323.343 115.112 321.627 114.627 321.552 114.552C321.403 114.403 322.896 107.128 323.306 106.046C323.604 105.3 323.231 104.777 320.321 101.793L317.001 98.3602L320.321 94.9278C323.119 92.0923 323.642 91.3834 323.306 90.8238C322.933 90.1149 321.366 82.6159 321.552 82.4666C322 82.0935 328.678 80.0416 329.425 80.0416C330.208 80.0416 330.432 79.8177 330.618 78.8104C330.73 78.1761 331.365 76.0495 331.999 74.1468C332.894 71.3859 333.23 70.7144 333.715 70.8636C334.088 70.9755 335.357 71.2367 336.588 71.4605C337.819 71.6471 339.647 72.0948 340.655 72.4306C342.408 73.0275 342.483 73.0275 342.856 72.356C343.08 71.9456 344.012 70.9755 344.945 70.1547C345.878 69.3339 347.221 68.1028 347.892 67.4685L349.161 66.2373L351.25 68.2147C352.407 69.2593 353.936 70.7517 354.683 71.5351L355.988 72.8783L359.16 72.0575C360.913 71.5725 362.928 71.0874 363.711 70.9382L365.054 70.6771L366.211 74.1468C366.808 76.0495 367.368 78.1388 367.442 78.7358C367.554 79.7804 367.666 79.855 369.42 80.0789C370.464 80.2281 372.031 80.6758 372.964 81.1235C373.897 81.5339 375.016 81.907 375.501 81.907C375.949 81.907 376.434 82.1309 376.508 82.392C376.769 82.989 375.426 89.7419 374.867 90.7865C374.456 91.5327 374.568 91.7192 375.538 92.54C376.135 93.0623 377.628 94.6293 378.859 96.0097L381.097 98.5467L377.963 101.867L374.829 105.188L375.762 109.851C376.844 115.298 376.807 114.739 376.247 114.739C375.986 114.739 373.971 115.261 371.77 115.933L367.778 117.127L367.368 119.029C366.696 122.35 365.241 126.118 364.719 126.043C361.659 125.484 358.712 124.849 357.481 124.476L355.988 124.029L352.631 127.237C350.803 128.991 349.198 130.408 349.086 130.408C348.974 130.408 347.333 128.916 345.393 127.051ZM350.243 125.894C351.511 124.999 354.011 121.865 353.75 121.454C353.675 121.305 352.519 121.342 351.25 121.529C349.944 121.715 347.93 121.753 346.773 121.641C345.281 121.492 344.609 121.566 344.609 121.827C344.609 122.238 348.639 126.678 348.974 126.678C349.086 126.678 349.646 126.342 350.243 125.894ZM338.976 122.089C340.319 121.641 341.438 121.119 341.513 120.895C341.625 120.559 333.417 116.119 333.155 116.38C333.006 116.53 334.499 121.417 334.946 122.312C335.394 123.133 336.066 123.096 338.976 122.089ZM364.01 120.82C365.763 116.082 365.39 115.522 362.032 117.686C360.764 118.544 359.01 119.514 358.152 119.813C357.257 120.149 356.548 120.559 356.548 120.745C356.548 120.895 357.443 121.342 358.525 121.753C359.57 122.163 360.727 122.574 361.025 122.686C362.704 123.282 363.189 122.984 364.01 120.82ZM345.915 116.53C345.318 115.448 344.311 113.545 343.639 112.314L342.445 110.075L338.938 109.963C337.036 109.926 334.797 110.001 333.976 110.187L332.521 110.486L335.133 113.172C338.08 116.119 340.356 117.388 344.273 118.208C345.579 118.507 346.736 118.656 346.81 118.582C346.885 118.544 346.475 117.574 345.915 116.53ZM355.466 117.873C356.585 117.537 358.227 116.865 359.16 116.306C361.137 115.186 365.502 111.12 365.502 110.374C365.502 109.814 362.331 109.702 357.928 110.15L355.429 110.374L353.899 113.396C353.041 115.075 352.108 116.753 351.847 117.164C351.549 117.574 351.325 118.022 351.325 118.171C351.325 118.656 353.302 118.507 355.466 117.873ZM350.765 113.508C351.586 112.052 352.295 110.597 352.369 110.374C352.481 110.001 351.623 109.889 349.086 109.889C346.549 109.889 345.691 110.001 345.803 110.374C345.99 111.045 348.862 116.231 349.086 116.231C349.198 116.231 349.944 115 350.765 113.508ZM330.469 112.351C329.835 111.456 328.716 109.516 328.007 108.06C327.261 106.605 326.514 105.486 326.365 105.598C326.029 105.785 324.649 112.426 324.873 112.649C325.283 113.06 331.365 114.59 331.477 114.328C331.551 114.142 331.103 113.284 330.469 112.351ZM370.315 113.433C373.785 112.314 373.747 112.388 372.591 108.62C371.77 105.971 370.949 105.412 370.539 107.277C370.427 107.874 369.643 109.366 368.86 110.56C366.92 113.619 366.51 114.366 366.957 114.366C367.181 114.366 368.673 113.955 370.315 113.433ZM340.505 107.128C340.505 106.382 337.744 101.606 337.334 101.606C336.998 101.569 334.2 106.382 334.163 106.978C334.163 107.314 335.655 107.538 338.379 107.613C339.983 107.65 340.505 107.538 340.505 107.128ZM354.123 107.352C354.347 107.202 355.578 105.15 356.884 102.8L359.234 98.5094L357.817 95.8978C357.033 94.4801 355.839 92.3908 355.168 91.3461L353.899 89.3688H349.086H344.273L342.893 91.5327C342.147 92.6893 340.916 94.7412 340.207 96.0097L338.901 98.3975L340.505 101.42C343.602 107.277 343.565 107.24 345.99 107.389C350.206 107.65 353.75 107.65 354.123 107.352ZM363.002 107.277H364.42L363.189 105.113C360.727 100.785 361.062 100.86 359.234 104.031C358.376 105.561 357.667 107.016 357.667 107.277C357.667 107.65 358.19 107.687 359.645 107.501C360.689 107.389 362.219 107.277 363.002 107.277ZM332.223 104.591C332.857 103.285 333.864 101.42 334.461 100.375L335.581 98.5094L333.305 94.3308C332.036 92.0177 330.842 90.1896 330.618 90.2642C330.096 90.4134 328.94 94.4428 328.716 97.0171C328.566 98.4348 328.716 100.151 329.089 101.755C329.686 104.292 330.618 106.904 330.954 106.904C331.029 106.904 331.626 105.859 332.223 104.591ZM368.263 105.337C369.308 102.651 369.793 98.2482 369.308 95.5993C368.86 93.1742 367.778 90.1149 367.405 90.1149C367.256 90.1149 366.136 91.9804 364.868 94.2562L362.555 98.4348L363.861 100.711C364.569 101.979 365.614 103.882 366.136 104.964C366.696 106.009 367.256 106.904 367.405 106.904C367.517 106.904 367.927 106.195 368.263 105.337ZM326.104 98.3229C326.067 95.8605 325.992 93.7712 325.88 93.6593C325.806 93.5847 324.612 94.6293 323.231 96.0097L320.694 98.5467L322.933 100.673C324.164 101.83 325.358 102.8 325.656 102.8C326.029 102.8 326.141 101.793 326.104 98.3229ZM375.352 100.524L377.628 98.2856L375.314 96.047C374.083 94.8532 372.815 93.8458 372.516 93.8458C372.143 93.8458 372.031 94.8158 372.031 98.3229C372.031 101.942 372.143 102.8 372.554 102.8C372.852 102.8 374.121 101.793 375.352 100.524ZM339.386 92.2789L340.953 89.3688H337.334C335.357 89.3688 333.79 89.4807 333.864 89.6672C334.722 91.57 337.297 95.674 337.521 95.4501C337.67 95.3009 338.528 93.8458 339.386 92.2789ZM362.667 92.7266C363.599 91.085 364.383 89.6299 364.383 89.4434C364.383 89.1822 357.667 89.2941 357.369 89.5553C357.294 89.6299 360.727 95.6739 360.876 95.7113C360.913 95.7113 361.697 94.3681 362.667 92.7266ZM327.186 90.0403C327.447 89.5553 328.566 87.6898 329.648 85.899C330.73 84.0709 331.551 82.504 331.439 82.4293C331.327 82.3174 329.872 82.5786 328.193 82.989C326.477 83.4367 325.059 83.7724 324.985 83.7724C324.649 83.7724 324.873 85.8244 325.433 88.2868C325.731 89.7045 326.179 90.8611 326.365 90.8611C326.552 90.8611 326.925 90.488 327.186 90.0403ZM372.554 88.1376C373.785 84.2574 373.71 84.1455 370.166 83.3621C368.561 82.989 367.106 82.7651 366.957 82.877C366.808 82.9516 367.442 84.1455 368.375 85.5259C369.308 86.9064 370.315 88.6599 370.613 89.4434C370.912 90.2268 371.285 90.8611 371.434 90.8611C371.584 90.8611 372.106 89.6299 372.554 88.1376ZM344.833 82.4666C346.139 80.2281 347.034 78.288 346.81 78.2507C345.878 77.9149 340.804 79.4446 338.752 80.6758C336.103 82.2428 332.447 85.7498 332.857 86.3468C333.006 86.6452 334.61 86.7572 337.782 86.6825L342.445 86.5706L344.833 82.4666ZM350.877 83.6232C350.019 81.8697 349.161 80.5639 349.012 80.6385C348.751 80.7877 346.549 84.8171 345.803 86.496C345.729 86.6452 347.184 86.7571 349.049 86.7571H352.444L350.877 83.6232ZM365.539 86.0483C364.793 84.7052 360.652 81.1981 358.6 80.2281C356.697 79.3327 351.325 77.7657 351.026 78.0269C350.84 78.1388 351.362 79.1089 353.825 83.3248L355.839 86.7571H360.876C365.651 86.7571 365.875 86.7198 365.539 86.0483ZM336.14 79.2208C337.558 78.3627 339.237 77.3926 339.871 77.0942C341.625 76.1987 341.513 75.6764 339.349 75.0422C336.289 74.1095 334.984 74.2214 334.499 75.4526C333.902 77.0568 333.081 80.7877 333.342 80.7877C333.454 80.7877 334.722 80.0789 336.14 79.2208ZM364.756 80.1908C364.756 79.1088 363.562 74.4452 363.226 74.2587C362.704 73.9229 356.921 75.5272 356.921 75.9749C356.921 76.1614 357.705 76.7211 358.712 77.2061C359.682 77.7284 361.324 78.6985 362.331 79.4446C364.458 80.937 364.756 81.0116 364.756 80.1908ZM353.936 75.0049C353.936 74.3333 349.87 70.3413 349.161 70.3413C348.9 70.3413 347.631 71.3859 346.363 72.6917L344.05 75.0049L347.407 75.2287C353.787 75.6018 353.936 75.6018 353.936 75.0049Z" fill="#545454"/>
<path fill-rule="evenodd" clip-rule="evenodd" d="M403.048 -112.26C403.068 -112.348 403.089 -112.44 403.111 -112.536L403.108 -112.52C403.087 -112.43 403.067 -112.343 403.048 -112.26ZM612.485 309.273C612.535 309.414 612.585 309.557 612.635 309.7L612.622 309.661C612.576 309.531 612.53 309.402 612.485 309.273Z" fill="#696969"/>
<path d="M383.901 -143.057L385.073 -147.296L312.953 -147.174L315.359 -143.623L383.901 -143.057Z" fill="#696969"/>
<path d="M300.09 -164.94L303.237 -161.671C303.237 -161.671 310.438 -181.101 347.755 -181.101C385.073 -181.101 392.273 -164.42 392.273 -164.42L394.028 -168.515C394.028 -168.515 385.073 -185.205 347.755 -185.205C310.438 -185.205 300.09 -164.94 300.09 -164.94Z" fill="#696969"/>
<path d="M172.765 358.142C171.683 356.501 172.392 355.493 176.458 352.732C180.786 349.822 188.435 345.942 194.329 343.666C205.671 339.227 219.289 336.727 232.496 336.727C238.428 336.69 239.137 336.652 238.503 336.167C237.384 335.309 227.497 331.243 224.997 330.608C222.05 329.862 217.386 329.862 210.969 330.608C207.872 330.981 205 331.131 203.768 330.944C199.478 330.422 196.456 327.027 196.456 322.699C196.456 319.975 197.538 317.811 200.075 315.461C202.575 313.222 205.074 312.327 211.379 311.581C215.521 311.059 215.782 310.984 221.266 308.223C231.302 303.112 234.026 303.074 249.248 307.589C259.471 310.648 263.91 311.506 269.245 311.469C274.506 311.432 276.931 310.909 286.37 307.813C295.026 305.014 295.847 304.791 299.503 304.268C304.577 303.559 310.248 304.977 313.568 307.813C315.434 309.38 317.784 312.625 320.172 316.953C321.329 319.117 322.634 321.318 323.007 321.878C323.418 322.4 323.716 323.035 323.716 323.296C323.716 323.52 323.903 323.594 324.089 323.482C324.761 323.072 324.462 324.266 323.716 325.087C322.709 326.169 322.448 326.131 323.194 324.975C323.977 323.781 323.53 322.997 322.56 323.93C322.187 324.303 321.627 324.825 321.291 325.087C320.806 325.497 320.806 325.721 321.142 326.131C321.366 326.43 321.515 326.766 321.403 326.84C321.067 327.213 318.195 322.923 316.068 318.856C312.636 312.252 309.8 309.715 304.838 308.745C301.592 308.111 298.719 308.633 288.907 311.767C276.073 315.834 271.857 316.58 265.141 315.834C259.769 315.274 253.874 313.894 246.487 311.544C234.697 307.738 232.16 307.85 223.02 312.252C216.64 315.312 215.558 315.685 211.417 316.021C207.499 316.356 204.925 317.14 203.395 318.52C200.635 320.945 200.075 323.855 202.052 325.609C203.47 326.877 203.992 326.915 213.021 326.019C223.281 325.049 225.296 325.422 238.018 330.795C241.861 332.436 247.532 334.75 250.666 336.018L256.299 338.257L267.156 339.712C283.721 341.913 285.176 342.062 295.175 342.025C302.152 342.025 306.107 341.838 310.845 341.241C314.314 340.831 317.299 340.607 317.486 340.794C317.672 340.98 317.859 341.353 317.896 341.614C318.232 343.368 318.642 344.189 319.165 344.189C320.545 344.189 319.09 344.636 316.031 345.121C309.427 346.166 303.57 346.539 294.615 346.539C285.587 346.539 278.461 345.942 267.753 344.375C248.278 341.503 234.101 340.607 223.356 341.614C207.425 343.032 191.345 348.479 179.107 356.538C176.943 357.956 174.78 359.112 174.295 359.112C173.735 359.112 173.138 358.739 172.765 358.142Z" fill="#696969"/>
<path d="M342.93 -42.2559C341.251 -42.8155 341.065 -43.0021 341.065 -44.0094C341.065 -45.3152 341.102 -45.3152 346.176 -44.6063C349.347 -44.1586 350.131 -44.1959 355.429 -45.166C356.623 -45.3525 356.809 -45.2779 357.182 -44.4571C358.078 -42.5171 355.391 -41.5843 348.9 -41.6216C346.027 -41.6216 344.236 -41.8082 342.93 -42.2559Z" fill="#696969"/>
<path d="M338.155 -50.3519C334.013 -50.8742 333.043 -51.2473 333.043 -52.4412C333.043 -53.8589 334.237 -54.1947 337.409 -53.6351C342.259 -52.8516 351.325 -52.5904 356.361 -53.1873C358.824 -53.4485 361.771 -53.6724 362.89 -53.7097C364.831 -53.7097 364.942 -53.6724 365.054 -52.7397C365.204 -51.3965 364.532 -50.9861 361.547 -50.5384C357.369 -49.8669 342.781 -49.7549 338.155 -50.3519Z" fill="#696969"/>
<path d="M344.311 -65.1262C341.475 -66.2455 340.356 -66.8797 340.057 -67.5513C339.759 -68.1855 339.759 -68.5586 340.132 -69.0063C340.804 -69.8271 341.624 -69.7152 344.46 -68.3721C348.303 -66.5812 350.093 -66.5812 353.712 -68.3721C355.317 -69.1929 356.958 -69.7525 357.331 -69.6779C358.115 -69.454 358.525 -68.4467 358.189 -67.5513C357.816 -66.5812 350.765 -63.5965 348.937 -63.5965C348.489 -63.5965 346.437 -64.3054 344.311 -65.1262Z" fill="#696969"/>
<path d="M352.257 -77.9231C351.772 -78.2962 351.698 -79.7139 351.772 -89.1531L351.884 -99.9726H354.123L354.235 -88.9292C354.309 -78.1843 354.309 -77.8485 353.6 -77.6619C353.19 -77.55 352.593 -77.662 352.257 -77.9231Z" fill="#696969"/>
<path d="M323.156 -89.6008C317.597 -90.8319 314.314 -93.2197 315.956 -94.8613C316.627 -95.5328 317.56 -95.4209 319.538 -94.4136C323.679 -92.3243 328.827 -92.2124 333.566 -94.1897C335.841 -95.1598 336.513 -95.2717 337.147 -94.9359C337.707 -94.6374 337.893 -94.227 337.819 -93.5182C337.744 -92.6974 337.259 -92.287 335.319 -91.3543C334.013 -90.6827 332.036 -89.9738 330.879 -89.75C328.865 -89.3396 324.649 -89.265 323.156 -89.6008Z" fill="#696969"/>
<path d="M366.994 -89.8619C364.159 -90.6081 361.734 -91.6901 360.876 -92.6228C360.204 -93.3689 360.204 -93.4809 360.801 -94.3763C361.137 -94.8986 361.585 -95.309 361.734 -95.309C361.92 -95.309 363.413 -94.7867 365.017 -94.1151C367.629 -93.0332 368.337 -92.9212 371.658 -92.8839C375.202 -92.8839 375.538 -92.9586 378.262 -94.2644C380.836 -95.4956 381.172 -95.5702 381.881 -95.0852C384.716 -93.0705 379.12 -89.75 372.404 -89.4888C370.315 -89.4142 368.263 -89.5635 366.994 -89.8619Z" fill="#696969"/>
<path d="M358.376 -103.666C357.406 -104.151 357.107 -104.972 357.443 -106.315C357.704 -107.36 360.017 -108.367 365.278 -109.673C372.068 -111.389 379.605 -110.792 385.723 -108.069C388.447 -106.8 389.081 -105.905 388.111 -104.487C387.253 -103.181 386.432 -103.144 383.41 -104.375C378.97 -106.129 374.531 -106.763 370.165 -106.203C368.151 -105.942 365.353 -105.308 363.86 -104.823C359.271 -103.181 359.309 -103.181 358.376 -103.666Z" fill="#696969"/>
<path d="M310.099 -104.412C308.867 -106.241 310.024 -107.36 314.949 -109.039C318.829 -110.344 321.552 -110.718 326.216 -110.531C332.82 -110.27 340.468 -107.994 341.065 -106.129C341.401 -105.084 340.356 -103.517 339.311 -103.517C338.901 -103.517 336.924 -104.039 334.946 -104.674C327.82 -106.949 322.187 -106.987 316.18 -104.785C312.113 -103.293 310.882 -103.218 310.099 -104.412Z" fill="#696969"/>
<path fill-rule="evenodd" clip-rule="evenodd" d="M228.206 422.873C200.075 428.73 165.378 432.909 153.775 431.864C137.657 430.447 122.734 423.507 115.011 413.919C111.877 410.001 107.81 401.905 106.206 396.421C104.378 390.19 103.52 384.594 103.445 378.811C103.408 375.118 103.296 373.663 102.96 373.663C102.736 373.663 102.438 373.812 102.326 373.998C101.841 374.745 98.5576 375.192 96.7668 374.782C94.6401 374.222 92.2151 372.208 91.6554 370.491C91.4316 369.782 91.0958 369.186 90.9466 369.186C90.7973 369.186 90.2004 369.708 89.5662 370.342C85.6487 374.483 79.4928 373.737 77.0304 368.85C75.8365 366.537 75.6873 364.298 76.5454 362.246C77.1423 360.791 79.9032 357.135 86.2457 349.412C88.5215 346.651 91.2824 343.219 92.4016 341.764L92.4821 341.662C93.5929 340.255 95.0697 338.384 95.834 337.51C96.6175 336.615 97.2518 335.757 97.2518 335.645C97.2518 335.496 95.3863 335.197 93.0732 334.936C88.0738 334.414 85.3876 333.294 84.0071 331.205C82.776 329.265 79.6793 319.453 79.4555 316.767C79.3062 315.051 79.4555 314.006 80.0897 312.29C80.5374 311.058 81.6567 307.962 82.5148 305.425C83.4102 302.888 84.2683 300.687 84.4922 300.463C84.6787 300.276 84.7533 298.933 84.6787 297.441C84.4175 293.71 85.1264 292.74 89.79 290.277C91.7674 289.27 94.6775 287.554 96.319 286.509C97.9606 285.465 99.8261 284.457 100.423 284.233C101.057 284.01 104.415 283.711 107.885 283.599C111.392 283.487 115.757 283.226 117.585 282.965C122.361 282.368 128.74 282.741 132.882 283.86C134.747 284.383 136.277 284.793 136.277 284.756C136.293 284.74 136.484 284.481 136.79 284.067L136.795 284.06C137.213 283.495 137.846 282.639 138.553 281.696C147.544 269.534 153.215 258.64 164.669 231.703C171.981 214.503 177.69 204.766 187.987 191.894C190.673 188.574 193.173 185.104 193.583 184.246C194.329 182.53 194.59 180.851 195.784 168.651C197.874 147.086 200.821 129.887 205.522 111.829C207.275 104.965 207.425 104.181 207.462 99.816C207.462 97.2417 207.275 92.5781 207.014 89.4442C204.776 61.5745 210.335 41.577 224.102 27.7728C232.347 19.4902 239.585 15.722 254.658 11.7673C258.575 10.7599 263.089 9.41679 264.656 8.78252C266.261 8.14828 272.454 5.01439 278.386 1.80585C307.524 -13.9012 307.785 -14.0877 309.949 -17.2217C312.188 -20.4675 312.3 -21.0272 312.449 -32.7421L312.598 -43.4498L310.733 -45.9868C306.703 -51.4338 304.913 -55.6871 303.607 -63.2234C303.159 -65.7977 302.711 -68.2601 302.599 -68.7078C302.487 -69.2675 302.152 -69.5659 301.629 -69.5659C298.458 -69.5659 294.988 -72.2895 293.198 -76.2069C290.735 -81.5421 288.161 -93.4436 288.124 -99.7861C288.086 -103.703 288.161 -104.263 289.094 -106.203C290.138 -108.442 292.414 -110.494 294.354 -110.867C295.511 -111.091 295.548 -111.426 294.802 -114.299C294.093 -117.097 292.153 -128.924 291.668 -133.439C290.287 -146.124 292.451 -156.01 298.234 -163.099C298.601 -163.563 299.289 -164.237 300.09 -164.94L303.237 -161.671C299.406 -158.097 297.219 -153.497 296.294 -147.206C295.399 -141.273 295.623 -135.901 297.264 -126.089C297.973 -121.873 299.652 -113.702 300.062 -112.471C300.174 -112.173 300.622 -113.031 301.107 -114.336C301.555 -115.68 302.413 -117.769 303.01 -119C304.987 -123.291 305.136 -123.962 305.099 -129.111C305.062 -135.08 305.435 -137.281 307.076 -140.639C308.505 -143.531 310.492 -145.709 312.953 -147.174L315.359 -143.623C313.411 -142.334 311.703 -140.403 310.733 -138.251C309.837 -136.311 309.763 -135.603 309.539 -129.26L309.278 -122.358L307.897 -119.187C304.428 -111.464 303.942 -109.673 303.196 -102.323C302.823 -98.4803 302.861 -97.9952 304.689 -85.3475C308.233 -61.0222 308.942 -57.6271 311.852 -52.4785C315.546 -45.9121 328.081 -31.9213 333.416 -28.377C334.536 -27.6308 336.812 -26.5862 338.453 -26.0266C341.065 -25.2058 342.259 -25.0565 347.818 -24.87C358.973 -24.5715 362.89 -25.9892 370.128 -33.0033C378.224 -40.8381 384.604 -48.7476 387.365 -54.4931C389.454 -58.7837 390.163 -62.0296 392.7 -79.6393L392.706 -79.6811L392.708 -79.6954C393.75 -86.7654 394.79 -93.8209 395.051 -95.4209C395.909 -100.98 394.491 -109.859 391.767 -115.978C388.969 -122.283 388.895 -122.619 388.633 -129.633C388.447 -134.334 388.186 -136.647 387.701 -137.916C387.16 -139.476 385.389 -141.786 383.901 -143.057L385.073 -147.296C387.504 -145.849 389.801 -143.641 390.909 -141.497C392.588 -138.214 392.812 -137.02 393.073 -130.193L393.372 -123.477L395.237 -119.373C396.282 -117.097 397.326 -114.523 397.588 -113.628C397.811 -112.77 398.073 -112.098 398.185 -112.173C398.446 -112.471 400.162 -121.015 401.132 -127.021C404.193 -145.933 401.363 -158.022 392.273 -164.42L394.028 -168.515C395.538 -167.509 397.142 -166.34 397.961 -165.599C403.482 -160.599 406.877 -151.048 406.915 -140.639C406.915 -135.08 405.087 -121.164 403.37 -113.665L403.111 -112.536L403.108 -112.52L403.1 -112.484C402.93 -111.747 402.811 -111.228 402.811 -111.203C402.811 -111.128 403.557 -110.867 404.452 -110.643C406.803 -110.046 408.855 -107.621 409.713 -104.45C410.832 -100.383 410.011 -92.7347 407.474 -83.3702C405.273 -75.1996 403.706 -72.476 400.087 -70.6852C398.856 -70.0509 397.364 -69.5659 396.767 -69.5659C396.207 -69.5659 395.722 -69.454 395.722 -69.2675C395.722 -69.1182 395.312 -66.6185 394.789 -63.7085C393.409 -55.6871 391.693 -51.6204 387.253 -45.539L385.649 -43.3752V-34.906C385.686 -21.9972 386.246 -19.2364 389.678 -15.7293C391.506 -13.8639 396.282 -10.8419 403.37 -7.07367C408.668 -4.27551 415.197 -0.768478 423.331 3.67128C431.725 8.22293 434.747 9.45413 442.731 11.5434C450.827 13.6327 454.894 15.0131 459.707 17.3636C471.011 22.848 478.66 30.4963 484.331 41.9501C488.696 50.755 490.748 59.0375 491.606 71.4613C492.053 77.5053 491.942 81.087 490.972 93.1004C490.337 101.159 490.412 102.204 492.016 108.397C497.053 127.947 500 144.587 502.201 165.853C503.694 179.955 503.88 181.597 504.291 183.089C504.813 184.917 506.305 187.081 510.969 192.715C516.976 200.027 523.02 209.28 527.198 217.675C528.84 220.92 532.272 228.643 539.548 245.32C541.711 250.357 544.696 256.737 546.114 259.498C550.815 268.526 557.344 278.936 561.187 283.525L562.306 284.868L565.477 283.898C569.469 282.666 575.737 282.331 581.035 283.002C583.05 283.263 587.639 283.562 591.258 283.711L597.787 283.935L601.144 286.024C602.973 287.181 605.883 288.86 607.636 289.718C612.859 292.292 614.501 294.568 613.606 297.926C613.27 299.157 613.307 299.567 613.792 300.276C614.091 300.724 614.799 302.515 615.322 304.268C615.844 306.022 616.889 308.857 617.598 310.611C618.791 313.484 618.903 314.006 618.754 316.58C618.568 319.378 616.217 327.437 614.725 330.384C613.232 333.332 611.143 334.339 605.36 334.936C603.122 335.197 601.294 335.533 601.294 335.72C601.294 335.943 602.077 337.025 603.047 338.182C606.703 342.622 619.612 358.851 620.769 360.53C621.925 362.172 622 362.507 622 365.343C622 368.178 621.925 368.477 620.843 369.782C619.015 372.058 617.933 372.655 615.508 372.842C612.673 373.028 611.031 372.469 609.166 370.641C608.308 369.857 607.524 369.186 607.338 369.186C607.188 369.186 606.703 370.006 606.293 371.014C605.174 373.588 602.749 374.968 599.615 374.931C598.309 374.931 596.891 374.633 596.182 374.26C595.511 373.924 594.951 373.775 594.914 373.924C594.914 374.11 594.914 375.565 594.951 377.207C595.026 383.475 593.795 390.862 591.37 398.286C588.683 406.569 585.699 411.68 580.401 416.941C570.215 427.126 551.598 433.207 534.548 431.864C485.301 428.022 446.537 419.291 397.774 400.973C381.769 394.929 375.016 392.205 357.928 384.855L349.012 381.012L345.243 382.729C307.039 399.853 257.941 416.68 228.206 422.873ZM301.07 264.945L296.593 264.124C290.698 263.079 284.057 261.363 277.826 259.386L272.79 257.781L272.864 249.984C272.976 240.955 273.312 236.926 274.879 225.211C275.998 217.078 276.036 216.406 275.849 206.706C275.551 192.043 274.916 187.268 270.365 167.084C265.216 144.437 263.276 133.319 262.679 123.694L262.418 119.403L265.477 122.313C270.663 127.275 276.707 130.708 284.467 133.17C290.138 134.961 293.944 135.409 303.942 135.409C316.777 135.446 319.127 134.924 318.568 132.051C318.269 130.409 317.784 130.297 311.889 130.782C305.435 131.342 296.257 131.081 291.481 130.223C285.102 129.066 279.02 126.716 274.021 123.507C270.439 121.157 265.067 115.71 262.306 111.568C258.277 105.524 254.471 97.279 252.643 90.6754C252.27 89.4442 251.785 88.0637 251.486 87.5787C250.442 85.9371 247.606 86.9072 247.606 88.9592C247.606 91.7573 253.128 105.263 256.71 111.121L258.015 113.247L257.307 120.075C256.486 127.91 256.15 130.409 254.881 137.871C252.158 153.541 249.472 163.614 242.458 184.134C240.331 190.402 237.757 198.535 236.749 202.229C234.1 211.892 233.317 214.093 230.78 218.682C223.878 231.106 210.484 249.126 192.949 269.571C190.039 272.966 185.412 278.413 182.652 281.696C175.638 290.091 165.079 302.664 163.512 304.455L162.244 305.947L161.983 304.828C161.05 300.649 159.781 298.672 158.065 298.672C157.058 298.672 155.827 299.642 155.827 300.425C155.827 300.649 156.274 301.731 156.834 302.813C158.886 306.731 158.326 312.439 155.267 318.632C153.103 323.035 146.686 331.802 133.255 348.703C131.203 351.277 127.92 355.493 125.98 357.993C120.532 365.082 119.077 366.574 117.548 366.574C115.906 366.574 114.787 365.455 114.787 363.85C114.787 362.918 116.205 360.493 121.167 352.956C124.674 347.621 127.696 342.846 127.882 342.361C128.405 341.092 127.397 339.712 125.98 339.712C125.084 339.712 124.599 340.122 122.846 342.622C121.726 344.189 118.555 348.293 115.832 351.725C114.427 353.475 112.666 355.692 110.978 357.817C109.391 359.814 107.868 361.731 106.766 363.104C101.468 369.782 100.535 370.678 98.968 370.678C96.2444 370.678 94.6775 367.88 95.9833 365.417C96.6548 364.037 96.9906 363.589 108.37 348.591C113.593 341.689 115.906 338.368 115.906 337.697C115.906 336.578 114.451 335.458 113.518 335.831C113.145 335.981 109.191 340.458 104.714 345.83C88.2604 365.529 86.3576 367.693 85.2756 368.29C83.1864 369.335 80.724 368.029 80.2763 365.641C80.0151 364.112 80.6493 363.142 87.9246 354.225C104.564 333.817 106.206 331.69 106.206 330.683C106.206 328.444 103.37 328.183 101.729 330.31L100.983 331.243L95.5356 330.795C89.4542 330.272 88.5961 330.049 87.738 328.78C86.9172 327.474 83.8206 317.476 83.8206 316.021C83.8206 315.312 84.4922 312.924 85.2756 310.723C86.0964 308.521 86.9918 305.947 87.253 305.014C87.8126 303.074 88.6707 302.739 90.4989 303.671C92.1778 304.567 92.7001 306.581 92.0285 309.977C91.0958 314.901 91.1331 315.983 92.1405 318.222C92.6628 319.341 93.5582 320.535 94.1178 320.908C95.6475 321.953 98.8187 321.803 101.356 320.647C103.781 319.49 108.407 315.312 111.541 311.357C112.772 309.827 113.891 308.559 114.003 308.596C114.115 308.596 115.347 309.156 116.69 309.79C122.771 312.775 129.748 312.775 135.866 309.865C138.441 308.633 139.15 307.813 138.963 306.208C138.776 304.455 137.247 304.306 134.486 305.686C131.352 307.253 128.74 307.775 124.86 307.514C119.413 307.178 116.727 305.723 112.996 300.985C111.541 299.12 108.706 297.59 106.28 297.329C104.863 297.142 103.855 297.366 101.169 298.411C99.3411 299.12 96.9906 299.828 96.0206 299.978C92.2897 300.5 88.4842 298.635 88.7454 296.471C88.8573 295.65 89.5288 295.128 93.1478 293.225C95.4983 291.994 98.3337 290.389 99.453 289.718C101.465 288.414 101.505 288.412 107.261 288.115L107.288 288.114C110.496 287.964 115.533 287.591 118.518 287.293C126.166 286.547 130.121 287.143 137.657 290.128C141.164 291.546 141.425 291.583 142.283 291.024C142.768 290.688 143.291 290.165 143.403 289.867C143.739 289.009 142.806 287.591 141.612 287.069L140.53 286.659L141.612 285.278C143.664 282.666 148.775 274.757 151.536 269.944C156.386 261.475 159.483 255.021 167.243 237C176.869 214.652 180.301 208.646 191.233 194.953C193.956 191.558 196.568 188.014 197.09 187.044C198.433 184.432 198.956 181.522 199.814 172.382C202.015 149.25 204.515 134.177 209.439 114.441C211.864 104.741 211.939 104.368 211.939 99.6295C211.939 96.9806 211.752 92.5035 211.491 89.78C210.932 83.5493 210.894 71.909 211.454 67.0589C213.058 52.1727 218.58 39.3757 226.974 31.0559C231.489 26.5788 235.07 24.0045 240.331 21.4675C245.666 18.8932 247.233 18.3336 257.045 15.6847C266.298 13.2223 267.977 12.5134 278.573 6.73058C281.702 5.01445 286.385 2.47893 290.704 0.140182L290.717 0.133484C292.778 -0.982819 294.757 -2.05409 296.443 -2.96971C310.434 -10.4688 312.635 -12.1477 314.911 -16.8113C316.441 -19.9079 316.963 -23.6388 317.001 -31.2498V-37.8534L322.298 -32.5183C330.245 -24.4969 332.82 -22.7807 339.349 -21.1391C342.967 -20.2437 355.727 -20.2437 359.309 -21.1764C365.092 -22.6314 370.725 -26.5489 376.918 -33.3018C379.12 -35.6895 381.022 -37.6296 381.134 -37.555C381.246 -37.5177 381.284 -35.1672 381.209 -32.3318C381.134 -28.1158 381.47 -23.3403 382.03 -19.8706C382.104 -19.5348 383.746 -17.5948 385.686 -15.5801C387.589 -13.5654 389.865 -11.0284 390.685 -9.98378C391.767 -8.56602 392.924 -7.63333 394.789 -6.66328C398.185 -4.87247 404.975 -1.25352 418.107 5.83516C423.965 9.00639 430.084 12.103 431.762 12.7746C433.441 13.4461 437.956 14.8266 441.836 15.8339C454.297 19.0798 459.408 21.3929 467.019 27.1012C475.563 33.5183 482.316 44.7109 485.189 57.0975C487.39 66.4247 487.875 79.3335 486.606 93.3989C485.823 102.017 485.823 102.055 489.218 115.859C493.732 134.252 495.859 146.75 497.948 167.345C499.366 181.261 499.478 182.343 500.224 184.656C500.634 186.037 501.604 187.827 502.686 189.245C509.327 197.789 515.745 206.445 517.535 209.317C520.222 213.571 526.116 225.397 529.437 233.195C536.936 250.73 541.861 261.288 546.189 269.011C548.427 273.003 553.725 281.174 556.038 284.233C557.605 286.285 557.792 287.106 556.747 287.106C556.038 287.106 555.031 288.337 555.031 289.233C555.031 290.165 556.15 291.21 557.195 291.21C557.605 291.21 559.284 290.688 560.888 290.091C568.089 287.293 574.319 286.509 580.96 287.442C582.415 287.666 586.333 287.927 589.728 288.076C596.443 288.337 596.891 288.449 600.995 290.949C602.525 291.882 604.95 293.225 606.405 293.971C609.427 295.463 610.061 296.21 609.39 297.553C608.755 298.858 606.853 299.828 604.428 300.052C602.599 300.239 601.704 300.052 597.525 298.635C592.899 297.068 592.675 297.03 590.959 297.478C588.497 298.15 585.81 299.94 584.542 301.806C581.856 305.611 578.722 307.253 573.499 307.551C569.507 307.738 567.044 307.29 563.91 305.723C561.411 304.455 560.59 304.38 559.769 305.313C558.836 306.358 558.985 307.44 560.254 308.484C562.231 310.163 568.536 312.066 572.081 312.103C574.916 312.103 579.431 311.021 581.968 309.715L584.467 308.447L585.96 310.387C586.78 311.432 589.168 314.006 591.332 316.095C595.772 320.498 597.675 321.542 601.032 321.542C603.644 321.542 604.838 320.796 606.069 318.446C607.039 316.468 607.114 314.565 606.293 310.611C605.398 306.096 606.442 303.522 609.166 303.41C610.248 303.335 610.434 303.485 610.845 304.641C611.07 305.252 611.821 307.387 612.622 309.661L612.635 309.7L613.009 310.76L614.725 315.535L614.165 318.035C613.419 321.281 611.442 327.325 610.658 328.631C609.949 329.899 608.793 330.198 603.346 330.758C601.107 330.981 598.869 331.242 598.421 331.317C597.824 331.466 597.19 331.093 596.108 330.011C595.287 329.19 594.466 328.519 594.28 328.519C593.571 328.519 591.966 330.086 591.966 330.758C591.966 331.168 593.198 332.959 594.69 334.75C596.182 336.54 599.503 340.644 602.04 343.816C603.925 346.172 606.923 349.91 609.579 353.22L612.15 356.426C615.434 360.53 617.709 363.701 617.859 364.373C618.306 366.649 616.702 368.812 614.613 368.812C612.971 368.812 612.71 368.551 595.884 348.442C592.787 344.786 589.206 340.458 587.937 338.891C586.669 337.324 585.288 335.906 584.878 335.794C583.87 335.496 582.677 336.205 582.415 337.287C582.229 338.07 583.684 340.159 591.631 350.718C596.854 357.583 601.48 363.85 601.928 364.634C602.413 365.417 602.786 366.649 602.786 367.432C602.786 370.156 600.062 371.536 597.637 370.081C596.63 369.484 581.221 350.457 575.998 343.405C573.237 339.637 572.64 339.227 571.036 340.085C569.544 340.905 570.141 342.286 575.289 350.009C581.52 359.373 583.758 363.142 583.758 364.223C583.758 366.238 581.035 367.246 579.095 365.977C577.229 364.746 550.069 329.937 545.405 322.811C541.973 317.513 539.809 310.872 540.294 307.066C540.406 306.059 540.928 304.194 541.45 302.925C542.532 300.202 542.532 300.09 541.674 299.306C540.704 298.411 539.622 298.523 538.54 299.605C537.645 300.5 536.376 303.671 536.376 305.052C536.376 305.462 536.227 305.761 536.078 305.761C535.779 305.761 526.042 294.307 517.386 283.786C515.26 281.211 512.499 277.928 511.23 276.51C509.999 275.093 507.611 272.295 505.97 270.317L505.443 269.683L505.438 269.677C503.608 267.472 500.269 263.447 497.538 260.244C484.629 244.723 474.033 230.098 468.138 219.615C465.005 214.056 464.072 211.668 462.169 204.467C461.274 201.184 458.177 191.297 455.23 182.455C452.282 173.65 449.186 163.913 448.365 160.816C445.417 150.183 442.582 134.177 441.239 121.007L440.455 113.284L442.657 109.255C445.604 103.845 447.246 100.114 448.85 94.9659C450.641 89.3323 450.827 88.1757 450.006 87.3922C449.298 86.646 447.954 86.5714 447.134 87.243C446.798 87.4668 446.089 89.2203 445.529 91.0485C443.627 97.4283 439.747 105.748 436.202 111.233C427.024 125.373 412.474 131.864 392.066 130.969C380.5 130.447 380.314 130.484 379.829 131.454C379.269 132.573 379.567 133.692 380.575 134.327C381.657 135.036 388.447 135.632 395.125 135.632C411.728 135.595 424.338 131.118 433.18 122.052L436.09 119.03L435.829 122.201C434.934 133.916 433.106 144.325 428.367 164.92C423.405 186.372 422.51 193.237 422.435 208.758C422.398 218.533 422.473 219.95 423.405 226.106C424.823 235.545 425.159 239.276 425.457 249.051L425.681 257.632L424.375 258.155C423.666 258.453 420.57 259.46 417.51 260.393C407.81 263.341 397.065 265.467 384.156 266.959C378.075 267.668 375.687 268.079 377.553 268.079C378 268.079 378.112 268.377 378 269.31C377.963 269.981 378.112 270.84 378.411 271.25C378.896 271.884 379.157 271.922 383.671 271.474C397.14 270.168 412.511 267.034 422.473 263.527C424.786 262.744 426.838 262.147 427.024 262.259C427.472 262.557 430.904 270.951 433.255 277.555C434.374 280.652 435.531 283.413 435.904 283.748C436.277 284.121 439 285.017 441.985 285.763C470.526 293.076 494.292 301.172 515.521 310.76C522.833 314.08 530.146 317.849 539.436 323.072C540.406 323.594 541.6 325.049 543.316 327.586C546.3 331.989 553.762 341.689 572.044 364.746C576.11 369.894 577.379 370.79 580.774 370.976C584.057 371.126 585.773 370.156 587.191 367.395L588.198 365.417L588.832 366.387C590.176 368.439 590.81 376.535 590.138 382.617C587.862 402.204 580.438 414.441 566.783 421.045C555.74 426.417 545.442 428.283 532.757 427.201C504.925 424.85 480.786 421.045 458.961 415.598C436.314 409.927 411.951 401.831 382.291 390.153C377.292 388.176 360.577 381.087 357.518 379.669C355.914 378.886 354.72 378.177 354.906 378.028C355.093 377.916 357.406 376.983 360.018 375.938C365.353 373.812 405.609 357.806 416.018 354.187C425.346 350.942 431.8 348.442 436.799 346.129C441.09 344.151 442.881 343.592 447.88 342.734C454.484 341.54 461.572 341.092 469.407 341.316C479.816 341.652 487.838 343.069 498.135 346.464C504.664 348.628 514.849 353.479 519.849 356.836C523.468 359.261 524.177 359.485 525.258 358.478C526.229 357.62 526.079 356.239 524.923 355.045C523.468 353.628 517.573 350.046 512.499 347.509C497.837 340.159 483.323 336.801 465.863 336.69L458.961 336.652L463.363 334.488C468.773 331.839 472.84 330.459 476.272 330.161C477.876 330.011 481.756 330.16 486.196 330.571C492.128 331.131 493.845 331.168 495.449 330.795C499.254 329.937 501.754 326.84 501.754 322.96C501.754 320.274 501.045 318.595 499.03 316.394C496.344 313.483 493.77 312.476 486.719 311.543C482.652 311.021 482.241 310.909 477.354 308.372C467.169 303.149 464.035 303.074 449.149 307.589C439.038 310.685 435.046 311.469 429.3 311.469C423.891 311.469 421.54 310.984 411.914 307.85C404.154 305.35 401.766 304.716 398.11 304.268C392.85 303.597 387.776 305.052 384.119 308.335L379.791 313.67L379.045 315.2C378.635 316.058 377.441 318.259 376.359 320.087C375.314 321.878 374.568 323.557 374.717 323.818C374.867 324.042 374.68 324.005 374.344 323.706C373.785 323.258 373.71 323.296 373.71 324.005C373.71 324.49 373.971 325.087 374.27 325.422C374.605 325.721 374.979 326.467 375.09 327.064C375.202 327.661 375.538 328.146 375.799 328.146C376.471 328.146 376.434 327.474 375.762 326.28C375.464 325.758 375.24 325.012 375.24 324.602C375.24 323.93 375.277 323.967 375.762 324.788C376.06 325.31 376.284 326.057 376.322 326.467C376.359 328.556 382.664 318.744 382.664 316.617L386.768 311.842C388.708 310.014 391.581 308.932 394.864 308.783C398.632 308.633 401.543 309.23 410.086 311.991C420.421 315.312 423.517 315.946 428.927 315.946C435.792 315.983 440.941 314.939 452.059 311.394C463.401 307.775 466.087 307.887 475.153 312.215L476.141 312.694C479.507 314.326 480.868 314.986 482.301 315.36C483.273 315.614 484.278 315.736 485.965 315.942L486.004 315.947L486.017 315.949L486.639 316.025L486.905 316.058C489.367 316.356 492.054 316.916 492.874 317.289C496.195 318.744 498.359 322.587 497.053 324.602C496.717 325.124 495.859 325.833 495.15 326.168C493.919 326.765 493.285 326.728 486.084 326.131C473.026 325.049 471.944 325.31 446.649 336.839C430.867 344.002 424.525 346.539 407.102 352.583C406.507 352.79 405.882 353.007 405.241 353.23L405.185 353.249L405.174 353.253C401.204 354.633 396.595 356.235 394.23 357.097L383 361.09L370.912 366.089L370.613 364.186C370.464 363.142 369.979 360.716 369.569 358.814C368.823 355.456 368.785 355.381 367.815 355.493C367.181 355.568 366.584 356.053 366.211 356.724C365.577 357.806 365.689 359.448 366.771 366.835L366.92 367.992L362.219 370.156C359.607 371.312 355.914 373.028 354.011 373.924C353.417 374.187 352.85 374.439 352.349 374.663C351.212 375.169 350.406 375.528 350.355 375.528C350.281 375.528 346.004 377.412 340.773 379.717L340.542 379.819C328.716 385.042 308.196 393.287 295.138 398.063C249.472 414.702 216.64 422.462 174.668 426.417C169.332 426.94 163.288 427.425 161.236 427.536C149.148 428.096 134.038 423.843 125.383 417.388C116.279 410.636 111.168 401.159 108.594 386.348C107.4 379.557 107.997 368.589 109.676 366.201C110.198 365.455 110.235 365.455 110.683 366.574C111.914 369.559 114.265 371.051 117.697 371.051C119.488 371.051 120.197 370.864 121.428 370.044C122.808 369.074 128.591 362.06 138.702 349.039C139.486 348.038 140.456 346.793 141.483 345.475L141.535 345.408L141.553 345.385L141.559 345.377L141.574 345.358C143.356 343.07 145.296 340.58 146.723 338.779C151.2 333.033 153.775 329.564 156.162 326.019C157.953 323.296 158.625 322.885 170.564 316.729C193.658 304.865 221.005 294.941 254.508 286.173C257.381 285.427 260.329 284.681 261.075 284.495C262.642 284.084 263.089 283.189 265.626 275.914C267.156 271.511 270.365 263.639 271.073 262.557C271.335 262.147 272.379 262.371 276.558 263.714C283.012 265.84 287.489 266.959 295.361 268.452C298.757 269.086 301.741 269.795 301.965 270.019L312.15 270.989C313.27 271.063 314.277 271.213 314.351 271.287C314.426 271.362 315.433 271.436 316.59 271.436C317.933 271.436 318.493 271.324 318.157 271.101C317.597 270.728 317.896 268.079 318.493 268.079C318.717 268.079 318.866 267.929 318.866 267.78C318.866 267.444 301.368 264.684 301.07 264.945ZM601.891 307.738C601.891 309.641 602.04 312.215 602.189 313.484C602.45 315.2 602.376 315.983 602.04 316.394C601.517 317.028 599.727 317.102 598.309 316.543C596.929 315.983 589.579 308.41 588.646 306.544C587.862 305.052 587.862 304.902 588.422 304.044C589.168 302.888 591.146 301.657 592.228 301.657C592.675 301.657 594.168 302.067 595.585 302.589C596.966 303.074 598.98 303.671 599.988 303.895L601.891 304.306V307.738ZM109.452 306.954C107.736 309.454 101.468 315.759 99.8261 316.617C97.5129 317.849 95.7594 317.326 95.7594 315.349C95.7967 314.677 96.0206 312.7 96.2817 310.872C96.5802 309.006 96.6548 306.992 96.5056 306.134L96.4886 306.038C96.2064 304.455 96.2051 304.448 97.9979 304.082C98.7068 303.932 100.572 303.298 102.102 302.701C105.758 301.246 107.251 301.396 109.34 303.485L110.832 304.977L109.452 306.954ZM536.637 314.565C536.936 315.498 537.16 316.319 537.085 316.356C537.011 316.431 535.593 315.759 533.951 314.864C519.55 306.88 495.672 296.993 475.526 290.613C465.676 287.517 453.812 284.084 446.499 282.219C442.507 281.211 439.187 280.353 439.15 280.279C439.095 280.224 438.611 278.905 437.944 277.083L437.94 277.073C437.704 276.428 437.444 275.72 437.172 274.981C434.896 268.489 432.583 262.632 431.277 260.132C430.307 258.266 430.27 257.931 430.009 249.424C429.71 239.649 429.375 235.881 427.882 226.106C426.95 219.913 426.875 218.533 426.912 208.571C426.95 193.312 427.733 187.38 432.732 166.226C435.232 155.406 437.247 146.116 437.918 141.863C438.142 140.259 438.478 138.916 438.627 138.804C438.739 138.729 439.336 140.968 439.896 143.84C442.395 156.6 445.679 168.427 450.603 182.716C455.342 196.408 455.64 197.341 457.505 204.355C460.453 215.622 462.206 219.316 470.489 231.815C478.063 243.306 488.658 256.961 503.918 274.794C506.268 277.555 511.156 283.375 514.737 287.666C524.288 299.194 526.751 302.104 531.638 307.775C534.66 311.245 536.227 313.409 536.637 314.565ZM258.65 142.385C259.023 140.296 259.433 138.617 259.545 138.617C259.694 138.617 260.067 140.296 260.44 142.385C260.776 144.437 262.231 151.377 263.686 157.757C270.924 189.991 271.223 191.969 271.26 208.012C271.297 218.98 271.223 220.212 270.29 226.479C268.798 236.292 268.462 240.022 268.163 249.797L267.865 258.565L265.44 263.975C264.097 266.959 262.194 271.735 261.224 274.608C260.217 277.481 259.321 279.943 259.172 280.092C259.06 280.279 255.777 281.211 251.897 282.219C243.54 284.383 242.644 284.644 232.869 287.554C216.603 292.441 203.06 297.217 189.031 303.037C183.286 305.425 165.303 313.931 162.878 315.424C160.751 316.729 160.677 316.58 161.983 313.857C162.505 312.775 165.116 309.417 167.989 306.134C170.787 302.962 175.787 297.068 179.107 293.076C182.39 289.084 187.464 283.04 190.337 279.644C216.528 248.865 227.646 234.053 235.07 219.913C237.869 214.615 238.727 212.19 240.891 204.131C242.644 197.49 243.428 194.953 247.905 182.082C252.792 167.905 256.672 153.541 258.65 142.385ZM296.257 -106.39C296.555 -106.278 297.115 -104.338 297.749 -101.017C298.757 -95.8313 301.704 -76.1696 301.704 -74.7891C301.704 -73.8191 301.368 -73.8564 299.801 -74.9011C298.16 -76.0204 297.115 -77.8858 295.735 -82.2509C293.011 -90.72 291.743 -101.39 293.048 -104.524C293.571 -105.718 295.287 -106.763 296.257 -106.39ZM401.505 -105.644C401.953 -107.584 404.602 -106.24 405.422 -103.666C406.542 -100.308 404.714 -87.9591 401.953 -80.4228C401.057 -77.8858 400.423 -76.8411 399.043 -75.4607C397.214 -73.6326 396.468 -73.2595 396.468 -74.1922C396.468 -76.5054 400.274 -100.196 401.505 -105.644Z" fill="#696969"/>
<path d="M347.183 367.842C346.437 367.096 343.975 365.567 341.289 364.223C335.095 361.127 333.006 359 332.372 355.269C332.111 353.814 332.036 353.74 330.208 353.329C326.701 352.546 324.5 350.606 322.41 346.427C321.851 345.308 321.291 344.301 321.142 344.189C321.03 344.077 320.508 343.069 319.985 341.95C319.463 340.831 318.418 339.189 317.635 338.331L316.18 336.764L317.933 334.6C318.903 333.406 320.209 331.354 320.806 330.011C321.44 328.668 322.336 326.803 322.783 325.87C323.268 324.9 323.604 323.743 323.492 323.258C323.38 322.55 323.38 322.512 323.641 323.035C323.903 323.669 323.977 323.669 324.835 322.885C326.663 321.281 329.051 319.975 330.618 319.714C332.148 319.49 332.222 319.416 332.446 317.961C332.782 315.946 334.237 313.483 335.767 312.327C336.401 311.842 338.975 310.424 341.438 309.193C344.311 307.775 346.437 306.395 347.37 305.462L348.788 303.97L351.101 305.873C352.444 307.029 354.608 308.335 356.361 309.118C362.517 311.73 364.681 313.745 365.577 317.625C366.099 319.677 366.024 319.639 368.897 320.124C369.718 320.236 370.986 320.983 372.404 322.176C373.635 323.221 374.755 324.042 374.904 324.042C375.053 324.042 375.202 324.266 375.202 324.527C375.202 325.087 377.03 329.638 378.112 331.765C378.56 332.586 379.567 334.003 380.425 334.899C381.246 335.794 381.918 336.578 381.918 336.652C381.918 336.727 381.172 337.66 380.239 338.742C379.343 339.824 377.739 342.472 376.732 344.674C374.046 350.457 371.285 353.105 367.405 353.74C365.95 353.964 365.875 354.075 365.875 355.232C365.875 358.217 362.666 361.463 356.996 364.186C354.645 365.305 352.071 366.872 351.175 367.693C350.28 368.514 349.31 369.186 349.011 369.186C348.713 369.186 347.892 368.589 347.183 367.842ZM350.653 364.634C351.175 364.261 353.488 363.03 355.727 361.91C360.577 359.523 362.405 358.068 362.741 356.314C363.114 354.299 362.816 354.187 360.838 355.605C358.488 357.284 357.033 357.881 353.824 358.59C347.631 359.896 341.363 358.664 336.774 355.195C335.207 354.038 334.983 354.449 335.841 356.724C336.588 358.664 337.856 359.634 343.303 362.395C345.355 363.44 347.444 364.634 347.967 365.044C348.9 365.79 348.974 365.79 350.653 364.634ZM355.652 355.456C356.697 355.083 357.966 354.449 358.451 354.113C359.271 353.553 358.712 353.516 349.347 353.516C343.863 353.516 339.386 353.628 339.386 353.74C339.386 354.001 342.594 355.419 344.609 355.978C347.034 356.687 353.227 356.426 355.652 355.456ZM331.551 350.68C331.551 350.568 331.141 349.934 330.655 349.3C328.081 345.868 326.701 341.39 326.701 336.466C326.701 331.354 327.783 327.959 330.618 324.266C331.364 323.258 331.924 322.438 331.849 322.363C331.775 322.326 330.954 322.475 329.947 322.736C327.148 323.445 326.029 324.788 323.716 330.198C323.007 331.839 321.888 333.891 321.216 334.749C320.545 335.645 319.985 336.54 319.985 336.727C319.985 336.913 320.657 337.958 321.478 339.04C322.298 340.122 323.418 342.099 323.977 343.442C325.582 347.36 326.663 348.74 328.902 349.897C330.917 350.904 331.551 351.091 331.551 350.68ZM362.778 350.419C363.189 349.971 363.413 326.952 363.002 324.602L362.704 322.736H335.468L335.356 336.615L335.282 350.494L337.595 350.643C342.035 350.904 362.443 350.718 362.778 350.419ZM369.606 349.934C371.285 349.113 372.516 347.434 374.605 343.069C375.725 340.719 377.068 338.294 377.59 337.697L378.523 336.652L377.441 335.272C376.844 334.526 375.501 332.138 374.456 329.937C373.411 327.735 372.106 325.385 371.546 324.751C370.464 323.445 368.673 322.55 367.181 322.55H366.211L367.554 324.228C370.501 327.81 372.329 335.16 371.509 340.122C371.024 342.995 369.196 347.434 367.517 349.598L366.509 350.942L367.591 350.68C368.188 350.531 369.084 350.195 369.606 349.934ZM367.591 343.89C368.934 340.607 369.27 334.973 368.3 331.653C367.703 329.489 366.323 326.653 365.912 326.653C365.8 326.653 365.688 331.242 365.688 336.876C365.688 348.069 365.763 348.33 367.591 343.89ZM332.558 336.69C332.633 325.534 332.596 325.31 330.581 329.75C329.76 331.616 329.499 332.735 329.387 335.496C329.312 337.398 329.424 339.749 329.648 340.719C330.096 342.584 331.924 346.8 332.26 346.8C332.372 346.8 332.521 342.249 332.558 336.69ZM359.159 319.901C359.159 319.49 355.652 318.11 352.929 317.476C348.9 316.543 342.855 317.401 340.095 319.341C339.311 319.863 339.348 319.901 340.729 320.013C343.676 320.236 359.159 320.162 359.159 319.901ZM337.595 317.699C341.102 315.424 344.348 314.528 349.086 314.528C353.862 314.528 357.219 315.461 360.614 317.737C361.883 318.595 363.04 319.192 363.151 319.042C363.674 318.52 362.032 315.424 360.652 314.342C359.346 313.297 354.048 310.611 353.302 310.611C353.153 310.611 352.108 309.939 351.026 309.118L349.049 307.589L347.892 308.559C347.258 309.118 345.131 310.275 343.154 311.208C338.602 313.334 337.11 314.379 336.14 316.132C335.282 317.662 334.759 319.192 335.058 319.192C335.17 319.192 336.289 318.52 337.595 317.699Z" fill="#A81312"/>
<path d="M340.436 345.443C337.003 340.331 336.929 335.444 340.249 333.205C342.04 331.974 345.174 331.937 347.525 333.056L349.166 333.877L351.255 332.87C353.382 331.825 353.755 331.377 353.755 329.81V328.915H346.293C338.869 328.915 338.794 328.915 338.496 328.094C337.862 326.341 338.048 326.303 346.331 326.303C353.009 326.303 354.128 326.229 354.128 325.744C354.128 324.997 355.844 324.997 356.106 325.706C356.255 326.079 357.001 326.303 358.307 326.378C360.247 326.49 360.284 326.527 360.21 327.572C360.098 328.99 359.948 329.064 358.232 328.989C356.814 328.878 356.74 328.952 356.703 330.034C356.665 330.631 356.628 331.303 356.591 331.527C356.553 331.713 357.15 332.198 357.859 332.571C359.799 333.616 360.918 335.742 360.732 338.13C360.583 340.257 358.904 343.95 357.188 346.04C356.255 347.159 356.031 347.234 355.322 346.86C354.166 346.263 354.277 345.741 356.068 342.868C357.299 340.891 357.673 339.958 357.784 338.279C357.896 336.414 357.822 336.078 356.964 335.295C356.292 334.66 355.583 334.362 354.725 334.399C353.494 334.437 350.994 335.742 350.062 336.899C349.39 337.72 348.793 337.645 347.935 336.712C346.331 334.922 343.197 334.287 341.592 335.444C339.839 336.638 340.249 340.704 342.413 343.913C343.868 346.077 343.906 346.972 342.562 347.122C341.816 347.196 341.406 346.823 340.436 345.443Z" fill="#A81312"/>
<rect width="699" height="383" rx="54" fill="url(#paint0_linear_1314_945)"/>
<path d="M0 54C0 24.1766 24.1766 0 54 0H645C674.823 0 699 24.1766 699 54V329C699 358.823 674.823 383 645 383H54C24.1766 383 0 358.823 0 329V54Z" fill="url(#paint1_linear_1314_945)"/>
</g>
<defs>
<linearGradient id="paint0_linear_1314_945" x1="349" y1="255.5" x2="349" y2="364.5" gradientUnits="userSpaceOnUse">
<stop stop-color="#FFFFFF" stop-opacity="0"/>
<stop offset="1" stop-color="#FFFFFF"/>
</linearGradient>
<linearGradient id="paint1_linear_1314_945" x1="349" y1="-6.65889e-06" x2="349" y2="65" gradientUnits="userSpaceOnUse">
<stop stop-color="#FFFFFF"/>
<stop offset="1" stop-color="#FFFFFF" stop-opacity="0"/>
</linearGradient>
</defs>
</svg>
