<svg width="699" height="383" viewBox="0 0 699 383" fill="none" xmlns="http://www.w3.org/2000/svg">
<rect width="699" height="383" rx="54" fill="white"/>
<mask id="mask0_1361_169" style="mask-type:alpha" maskUnits="userSpaceOnUse" x="0" y="0" width="699" height="383">
<rect width="699" height="383" rx="54" fill="#0E0E0E"/>
</mask>
<g mask="url(#mask0_1361_169)">
<path d="M349.002 -395.428C353.398 -395.428 356.962 -391.864 356.962 -387.468C356.962 -383.583 354.177 -380.35 350.494 -379.651L350.494 174.046C354.177 174.745 356.961 177.978 356.961 181.864C356.961 186.26 353.398 189.823 349.002 189.823C344.606 189.823 341.043 186.26 341.043 181.864C341.043 177.978 343.827 174.745 347.51 174.046L347.51 -379.651C343.827 -380.35 341.043 -383.583 341.043 -387.468C341.043 -391.864 344.606 -395.428 349.002 -395.428Z" fill="#B7B7B7"/>
<path d="M357.21 99.0384C357.21 103.572 353.535 107.246 349.002 107.246C344.469 107.246 340.794 103.572 340.794 99.0384C340.794 94.5053 344.469 90.8305 349.002 90.8305C353.535 90.8305 357.21 94.5053 357.21 99.0384Z" fill="#B7B7B7"/>
<path d="M357.21 23.6747C357.21 28.2078 353.535 31.8826 349.002 31.8826C344.469 31.8826 340.794 28.2078 340.794 23.6747C340.794 19.1415 344.469 15.4667 349.002 15.4667C353.535 15.4667 357.21 19.1415 357.21 23.6747Z" fill="#B7B7B7"/>
<path d="M357.21 -57.6585C357.21 -53.1254 353.535 -49.4506 349.002 -49.4506C344.469 -49.4506 340.794 -53.1254 340.794 -57.6585C340.794 -62.1916 344.469 -65.8665 349.002 -65.8665C353.535 -65.8665 357.21 -62.1916 357.21 -57.6585Z" fill="#B7B7B7"/>
<path d="M357.21 -136.753C357.21 -132.22 353.535 -128.545 349.002 -128.545C344.469 -128.545 340.794 -132.22 340.794 -136.753C340.794 -141.286 344.469 -144.961 349.002 -144.961C353.535 -144.961 357.21 -141.286 357.21 -136.753Z" fill="#B7B7B7"/>
<path d="M357.21 -281.511C357.21 -276.978 353.535 -273.303 349.002 -273.303C344.469 -273.303 340.794 -276.978 340.794 -281.511C340.794 -286.044 344.469 -289.719 349.002 -289.719C353.535 -289.719 357.21 -286.044 357.21 -281.511Z" fill="#B7B7B7"/>
<path d="M348.713 54.2128C348.713 54.0263 348.564 53.9516 348.34 54.0636C348.154 54.1755 347.967 54.1382 347.967 53.9516C347.967 53.7278 346.699 52.6085 345.169 51.452C343.639 50.2581 342.371 49.1761 342.371 49.0642C342.371 48.9523 342.035 48.4299 341.662 47.9076C341.065 47.1614 340.841 47.0868 340.356 47.4972C339.983 47.7957 338.23 48.0569 335.767 48.2061C333.268 48.318 332.036 48.5046 332.484 48.6911C333.641 49.1388 332.559 49.0642 331.253 48.6165C330.581 48.3926 330.134 48.0569 330.245 47.9076C330.357 47.7584 330.059 46.4526 329.611 45.0349C329.164 43.6544 328.641 41.4159 328.417 40.1101L328.007 37.7223L326.291 37.1254C325.395 36.7896 324.052 36.0807 323.343 35.5584C321.739 34.3272 319.612 33.2452 319.612 33.6183C319.612 33.8049 319.426 33.6557 319.239 33.3572C318.754 32.4991 321.664 24.2539 322.709 23.5823C322.97 23.4331 322.784 22.6869 322.149 21.5303C321.627 20.5603 320.844 18.6202 320.359 17.2398C319.911 15.8594 319.389 14.6282 319.202 14.5162C318.456 14.0312 318.904 12.8374 320.06 12.2404C320.732 11.9046 322.112 10.9719 323.157 10.1884C324.164 9.44226 325.731 8.58415 326.627 8.32299C328.082 7.91259 328.194 7.76334 328.194 6.53215C328.194 4.96518 329.984 -1.71308 330.581 -2.31002C330.992 -2.72041 338.08 -2.42195 340.207 -1.89963C340.99 -1.67578 341.214 -1.78772 341.401 -2.38466C341.55 -2.79506 342.11 -3.42928 342.669 -3.80237C343.229 -4.13815 344.908 -5.44395 346.4 -6.63783L349.086 -8.80176L352.668 -5.9663C354.608 -4.39933 356.399 -2.72044 356.66 -2.19812C356.959 -1.48925 357.257 -1.34 357.817 -1.52654C358.264 -1.67578 359.869 -1.93694 361.398 -2.08617C362.928 -2.27272 364.868 -2.49657 365.726 -2.64581C366.771 -2.79504 367.368 -2.72044 367.629 -2.38466C368.3 -1.48925 369.979 4.81597 369.979 6.42025C369.979 7.80068 370.054 7.9872 370.875 7.9872C371.322 7.9872 372.293 8.39761 373.001 8.88262C376.098 11.1212 378.598 12.8001 379.008 12.9493C379.381 13.0612 379.381 13.3597 378.971 14.367C378.71 15.0759 378.001 16.8667 377.441 18.3964C376.844 19.8887 376.023 21.493 375.613 21.9407L374.83 22.7615L375.762 24.03C376.285 24.7389 377.068 26.4177 377.516 27.8355C377.963 29.2159 378.411 30.2606 378.523 30.1859C378.635 30.1113 378.747 30.4471 378.784 30.8575C378.784 31.3052 378.933 31.9395 379.083 32.2379C379.269 32.6856 378.486 33.3572 375.986 34.9615C374.158 36.1181 372.031 37.3119 371.248 37.5731C369.905 38.0581 369.83 38.17 369.756 39.8489C369.681 40.8563 369.308 42.6471 368.86 43.841C368.45 45.0721 368.114 46.6391 368.114 47.348V48.6165L366.36 48.4673C365.353 48.3553 363.264 48.2061 361.66 48.0942C360.055 48.0195 358.414 47.7211 357.966 47.4972C357.294 47.1241 357.071 47.1987 356.511 47.9449C355.653 49.0269 355.578 49.6611 356.362 49.0269C356.847 48.6165 356.884 48.6538 356.697 49.1388C356.586 49.4373 356.25 49.8104 355.951 49.9223C355.615 50.0342 355.504 49.9596 355.615 49.7731C355.727 49.5492 355.69 49.4 355.466 49.4C355.28 49.4 355.056 49.5492 354.981 49.6985C354.832 50.0715 349.236 54.6232 348.937 54.6232C348.825 54.6232 348.713 54.4367 348.713 54.2128ZM350.43 50.0715C352.444 48.5792 354.683 46.266 354.683 45.6691C354.683 45.1841 353.899 45.1095 349.086 45.1468C346.027 45.1468 343.378 45.2587 343.266 45.4079C342.93 45.7437 348.228 50.8923 348.863 50.8923C349.161 50.8923 349.833 50.5193 350.43 50.0715ZM339.647 44.9602C341.028 44.5871 340.729 44.0648 338.379 42.6844C337.11 41.9755 335.096 40.4832 333.864 39.4385C332.633 38.3566 331.514 37.4612 331.402 37.4612C330.656 37.4612 331.551 43.356 332.521 44.8483C333.044 45.6691 333.23 45.6691 335.954 45.4452C337.521 45.296 339.2 45.0721 339.647 44.9602ZM365.241 45.1095C365.913 44.4752 366.845 41.7144 367.181 39.4385C367.517 37.3119 366.995 37.3492 364.197 39.737C363.003 40.7816 361.1 42.162 360.018 42.759C358.936 43.3559 358.041 44.0275 358.041 44.1767C358.041 44.3633 358.6 44.6618 359.272 44.8856C362.033 45.7437 364.532 45.8556 365.241 45.1095ZM346.214 40.9309C345.654 39.9236 344.497 38.0581 343.677 36.715C342.856 35.3719 341.662 33.4691 341.102 32.4245C337.931 26.9028 331.402 15.934 330.992 15.4863C330.581 15.0759 330.357 15.5982 329.723 18.3591C328.79 22.2765 328.753 23.6942 329.499 27.1266C330.954 34.0661 336.886 40.222 343.901 42.0875C347.296 43.0202 347.408 42.9456 346.214 40.9309ZM355.205 41.7517C359.794 40.5578 364.644 36.4911 366.808 32.0887C369.196 27.2385 369.681 23.6942 368.711 18.6948C368.226 16.0832 367.741 15.1878 367.069 15.5982C366.845 15.7101 365.875 17.3144 364.868 19.1052C359.458 28.6936 354.011 38.0954 351.773 41.4905C351.288 42.274 351.288 42.3113 352.146 42.3113C352.631 42.3113 354.011 42.0501 355.205 41.7517ZM353.452 33.7303C355.28 30.559 358.488 25.0373 360.578 21.4557C362.667 17.874 364.383 14.8147 364.383 14.6655C364.383 14.4789 357.481 14.3297 349.049 14.3297H333.753L335.693 17.986C336.775 19.9633 339.2 24.2165 341.065 27.3878C342.968 30.559 345.467 34.8869 346.661 37.0135C348.751 40.707 348.863 40.8563 349.46 40.1847C349.833 39.8116 351.623 36.9015 353.452 33.7303ZM328.716 32.723C328.007 31.3052 327.149 28.9548 326.776 27.4997C326.44 26.0074 325.955 24.7762 325.694 24.7762C325.171 24.7762 323.082 28.9174 322.746 30.5963C322.56 31.641 322.709 31.8648 324.537 33.2452C326.85 34.9614 327.223 35.148 328.828 35.1853L329.984 35.2226L328.716 32.723ZM373.001 33.6557C374.307 32.7976 375.501 31.9394 375.65 31.7156C376.135 31.0067 373.225 24.6269 372.516 24.8508C372.293 24.9254 371.77 26.3431 371.397 27.9474C371.024 29.589 370.203 31.7902 369.606 32.8722C368.972 33.9541 368.487 34.9242 368.487 35.0361C368.487 35.148 368.972 35.2226 369.569 35.2226C370.203 35.2226 371.621 34.5884 373.001 33.6557ZM325.955 21.2691C325.955 20.4483 328.417 13.2104 328.977 12.427C330.357 10.4496 329.574 10.0765 326.701 11.3823C324.351 12.4269 322.597 13.882 322.597 14.7028C322.597 15.5982 324.313 20.2245 324.873 20.9333C325.283 21.381 325.955 21.6049 325.955 21.2691ZM375.016 17.1279L376.023 14.5162L374.643 13.3224C372.964 11.9046 370.464 10.5988 369.308 10.5988C368.3 10.5988 368.3 10.5988 369.457 12.8746C369.979 13.9193 370.726 16.0459 371.136 17.6129C371.509 19.2172 371.957 20.7095 372.031 21.008C372.404 21.9407 373.897 19.9633 375.016 17.1279ZM365.129 11.4196C365.129 10.748 361.734 7.53948 359.421 6.00982C353.825 2.27894 345.318 2.16701 339.274 5.63673C337.409 6.75599 333.044 10.8227 333.044 11.4942C333.044 11.7927 338.08 11.9046 349.086 11.9046C361.958 11.9046 365.129 11.83 365.129 11.4196ZM366.995 6.6068C366.995 4.96521 366.174 1.08509 365.763 0.637387C365.652 0.562769 364.42 0.450807 363.003 0.413498C360.615 0.376189 357.667 1.01048 357.667 1.57011C357.667 1.71934 358.6 2.31627 359.757 2.91321C360.876 3.51016 362.779 4.96518 363.935 6.15906C365.092 7.31564 366.286 8.32299 366.547 8.32299C366.845 8.3603 366.995 7.76337 366.995 6.6068ZM334.275 5.89792C335.506 4.74135 337.409 3.3982 338.491 2.83857C341.849 1.19698 341.028 0.525442 335.767 0.525442C332.223 0.525442 332.26 0.488152 331.365 4.36827C330.805 6.75603 330.917 7.9872 331.626 7.9872C331.85 7.9872 333.006 7.05449 334.275 5.89792ZM354.645 0.301599C355.541 -0.519195 350.019 -5.29473 348.713 -4.88433C347.669 -4.54855 342.968 0.0031004 343.229 0.413498C343.415 0.749277 354.31 0.637378 354.645 0.301599Z" fill="#545454"/>
<path d="M347.743 134.053C347.146 133.419 345.243 132.001 343.49 130.845C339.386 128.159 338.416 127.226 337.67 125.248L337.035 123.607L335.431 123.868C333.379 124.166 330.544 123.308 327.634 121.555C326.402 120.771 324.388 119.876 323.157 119.54C320.918 118.906 320.918 118.906 321.03 117.563C321.105 116.593 320.993 116.145 320.508 115.884C319.948 115.585 319.911 115.399 320.321 114.914C320.955 114.168 320.508 112.078 319.724 112.078C318.717 112.078 319.463 111.668 320.582 111.593C321.627 111.519 321.664 111.407 321.888 109.094C322.112 106.519 322.783 104.878 324.052 103.721C324.835 103.012 324.835 102.975 324.127 102.229C322.56 100.475 322.112 98.9457 321.813 94.1702C321.664 91.5959 321.366 88.947 321.142 88.2754C320.731 86.9323 320.881 86.8204 323.53 85.9623C324.35 85.7011 326.514 84.7311 328.342 83.761C331.253 82.2314 331.924 82.0449 334.275 81.9702L336.886 81.8956L337.371 80.5525C338.043 78.6124 339.423 77.2693 343.303 74.8816C345.169 73.7623 347.183 72.3072 347.855 71.673L349.049 70.5537L350.467 71.8595C351.287 72.5684 353.302 73.9488 354.944 74.9562C358.563 77.0828 360.652 79.0974 360.988 80.739L361.211 81.9329L364.01 82.0075C366.584 82.0448 367.069 82.1941 369.979 83.7983C371.733 84.7311 374.12 85.813 375.314 86.1488C377.59 86.8204 377.627 86.8577 377.068 88.4246C376.844 88.9843 376.545 91.5586 376.359 94.1329C376.06 98.9457 375.389 101.147 373.896 102.378C373.374 102.826 373.411 102.975 374.232 103.833C375.463 105.102 375.986 106.557 376.284 109.28C376.508 111.481 376.545 111.519 377.739 111.631C378.709 111.743 378.933 111.929 378.933 112.638C378.933 113.123 379.12 113.645 379.306 113.757C379.53 113.869 379.679 114.392 379.679 114.877C379.679 115.585 379.418 115.772 378.15 115.996C376.956 116.22 376.695 116.369 376.918 116.854C377.59 118.533 377.329 118.906 374.904 119.615C373.598 120.025 371.77 120.809 370.837 121.443C368.263 123.047 365.353 124.017 363.114 124.017C361.249 124.017 361.1 124.092 360.838 125.025C360.391 126.815 359.159 128.084 355.914 130.099C354.123 131.143 351.884 132.748 350.914 133.643C349.944 134.501 349.086 135.21 349.012 135.21C348.937 135.21 348.377 134.688 347.743 134.053ZM350.019 131.106C350.168 130.882 351.735 129.725 353.489 128.532C357.033 126.144 358.189 125.062 358.6 123.681C358.824 122.898 358.786 122.823 358.189 123.047C357.779 123.196 356.137 123.681 354.533 124.092C350.69 125.062 345.131 124.913 341.848 123.719C340.617 123.271 339.572 122.973 339.46 123.047C339.237 123.271 340.132 124.838 341.027 125.808C341.438 126.293 343.191 127.524 344.833 128.532C346.512 129.539 348.079 130.621 348.34 130.919C348.862 131.554 349.683 131.666 350.019 131.106ZM352.295 121.741C359.234 120.473 365.8 114.541 367.591 107.825C368.114 105.848 368.226 100.252 367.778 98.6473C367.554 97.9011 367.442 98.1995 367.218 100.028C367.032 101.595 366.472 103.348 365.427 105.4C361.883 112.452 355.205 116.294 347.445 115.697C339.684 115.138 332.819 108.609 331.066 100.14L330.544 97.7145L330.245 99.1323C330.096 99.9531 330.059 102.229 330.133 104.206C330.282 107.042 330.506 108.273 331.253 109.914C335.245 118.645 343.602 123.308 352.295 121.741ZM333.864 118.458C332.484 117.115 330.805 115.063 330.171 113.944C328.939 111.78 327.447 107.378 327.447 105.922C327.447 104.654 326.701 104.356 325.955 105.288C325.208 106.184 324.612 109.168 324.276 113.608L324.015 116.779L325.432 117.414C326.253 117.749 328.119 118.682 329.648 119.503C332.334 120.958 333.864 121.368 335.543 121.07C336.327 120.958 336.14 120.659 333.864 118.458ZM369.867 118.943L374.046 116.854L373.859 114.168C373.449 107.937 373.374 107.527 372.404 106.034C371.844 105.214 371.359 104.617 371.285 104.691C371.21 104.766 370.874 106.072 370.576 107.601C369.718 111.668 368.188 114.466 364.942 117.861C363.413 119.466 362.144 120.958 362.144 121.144C362.144 122.003 365.95 120.921 369.867 118.943ZM355.541 111.593C361.696 108.795 365.614 101.595 364.495 95.1029C363.674 90.2901 361.659 87.7904 356.585 85.2907C354.085 84.0595 353.489 83.9103 350.168 83.7983C340.169 83.3879 333.79 88.947 333.79 98.1249C333.79 101.595 334.722 104.132 337.073 107.042C339.162 109.653 341.065 111.034 343.863 112.078C346.885 113.198 352.519 112.974 355.541 111.593ZM327.298 100.252C328.566 94.3941 330.469 90.7378 333.901 87.3427C336.662 84.6564 336.662 84.1715 333.864 84.5819C332.521 84.8057 324.089 88.8351 324.089 89.2828C324.089 89.3947 324.276 91.4094 324.462 93.7225C324.91 99.2815 326.626 103.199 327.298 100.252ZM372.591 99.6919C373.262 98.5727 373.449 97.2668 373.859 91.2974C373.971 89.3201 373.896 88.5739 373.598 88.5739C373.337 88.5739 371.322 87.6412 369.121 86.5219C366.248 85.0669 364.644 84.4699 363.599 84.4699C362.816 84.4699 362.144 84.5818 362.144 84.6938C362.144 84.8057 363.338 86.1861 364.756 87.7531C367.703 90.887 369.979 95.1029 370.725 98.7592C370.949 99.9158 371.322 100.886 371.509 100.886C371.695 100.886 372.18 100.363 372.591 99.6919ZM341.774 82.2314C346.213 80.6644 352.034 80.5898 356.137 82.0075C358.227 82.7537 358.413 82.7537 358.413 81.8583C358.413 80.7017 356.697 79.1348 352.63 76.6351C349.683 74.8069 348.788 74.4339 348.34 74.7323C348.041 74.9935 347.295 75.4412 346.736 75.8143C341.55 78.9482 340.132 80.2167 339.572 82.1568C339.274 83.1641 339.125 83.1268 341.774 82.2314Z" fill="#545454"/>
<path fill-rule="evenodd" clip-rule="evenodd" d="M403.048 -268.26C403.068 -268.348 403.089 -268.44 403.111 -268.536L403.108 -268.52C403.087 -268.43 403.067 -268.343 403.048 -268.26ZM612.485 153.273C612.535 153.414 612.585 153.557 612.635 153.7L612.622 153.661C612.576 153.531 612.53 153.402 612.485 153.273Z" fill="#696969"/>
<path d="M383.901 -299.057L385.073 -303.296L312.953 -303.174L315.359 -299.623L383.901 -299.057Z" fill="#696969"/>
<path d="M300.09 -320.94L303.237 -317.671C303.237 -317.671 310.438 -337.101 347.755 -337.101C385.073 -337.101 392.273 -320.42 392.273 -320.42L394.028 -324.515C394.028 -324.515 385.073 -341.205 347.755 -341.205C310.438 -341.205 300.09 -320.94 300.09 -320.94Z" fill="#696969"/>
<path d="M172.765 202.142C171.683 200.501 172.392 199.493 176.458 196.732C180.786 193.822 188.435 189.942 194.329 187.666C205.671 183.227 219.289 180.727 232.496 180.727C238.428 180.69 239.137 180.652 238.503 180.167C237.384 179.309 227.497 175.243 224.997 174.608C222.05 173.862 217.386 173.862 210.969 174.608C207.872 174.981 205 175.131 203.768 174.944C199.478 174.422 196.456 171.027 196.456 166.699C196.456 163.975 197.538 161.811 200.075 159.461C202.575 157.222 205.074 156.327 211.379 155.581C215.521 155.059 215.782 154.984 221.266 152.223C231.302 147.112 234.026 147.074 249.248 151.589C259.471 154.648 263.91 155.506 269.245 155.469C274.506 155.432 276.931 154.909 286.37 151.813C295.026 149.014 295.847 148.791 299.503 148.268C304.577 147.559 310.248 148.977 313.568 151.813C315.434 153.38 317.784 156.625 320.172 160.953C321.329 163.117 322.634 165.318 323.007 165.878C323.418 166.4 323.716 167.035 323.716 167.296C323.716 167.52 323.903 167.594 324.089 167.482C324.761 167.072 324.462 168.266 323.716 169.087C322.709 170.169 322.448 170.131 323.194 168.975C323.977 167.781 323.53 166.997 322.56 167.93C322.187 168.303 321.627 168.825 321.291 169.087C320.806 169.497 320.806 169.721 321.142 170.131C321.366 170.43 321.515 170.766 321.403 170.84C321.067 171.213 318.195 166.923 316.068 162.856C312.636 156.252 309.8 153.715 304.838 152.745C301.592 152.111 298.719 152.633 288.907 155.767C276.073 159.834 271.857 160.58 265.141 159.834C259.769 159.274 253.874 157.894 246.487 155.544C234.697 151.738 232.16 151.85 223.02 156.252C216.64 159.312 215.558 159.685 211.417 160.021C207.499 160.356 204.925 161.14 203.395 162.52C200.635 164.945 200.075 167.855 202.052 169.609C203.47 170.877 203.992 170.915 213.021 170.019C223.281 169.049 225.296 169.422 238.018 174.795C241.861 176.436 247.532 178.75 250.666 180.018L256.299 182.257L267.156 183.712C283.721 185.913 285.176 186.062 295.175 186.025C302.152 186.025 306.107 185.838 310.845 185.241C314.314 184.831 317.299 184.607 317.486 184.794C317.672 184.98 317.859 185.353 317.896 185.614C318.232 187.368 318.642 188.189 319.165 188.189C320.545 188.189 319.09 188.636 316.031 189.121C309.427 190.166 303.57 190.539 294.615 190.539C285.587 190.539 278.461 189.942 267.753 188.375C248.278 185.503 234.101 184.607 223.356 185.614C207.425 187.032 191.345 192.479 179.107 200.538C176.943 201.956 174.78 203.112 174.295 203.112C173.735 203.112 173.138 202.739 172.765 202.142Z" fill="#696969"/>
<path d="M342.93 -198.256C341.251 -198.816 341.065 -199.002 341.065 -200.009C341.065 -201.315 341.102 -201.315 346.176 -200.606C349.347 -200.159 350.131 -200.196 355.429 -201.166C356.623 -201.353 356.809 -201.278 357.182 -200.457C358.078 -198.517 355.391 -197.584 348.9 -197.622C346.027 -197.622 344.236 -197.808 342.93 -198.256Z" fill="#696969"/>
<path d="M338.155 -206.352C334.013 -206.874 333.043 -207.247 333.043 -208.441C333.043 -209.859 334.237 -210.195 337.409 -209.635C342.259 -208.852 351.325 -208.59 356.361 -209.187C358.824 -209.449 361.771 -209.672 362.89 -209.71C364.831 -209.71 364.942 -209.672 365.054 -208.74C365.204 -207.397 364.532 -206.986 361.547 -206.538C357.369 -205.867 342.781 -205.755 338.155 -206.352Z" fill="#696969"/>
<path d="M344.311 -221.126C341.475 -222.245 340.356 -222.88 340.057 -223.551C339.759 -224.186 339.759 -224.559 340.132 -225.006C340.804 -225.827 341.624 -225.715 344.46 -224.372C348.303 -222.581 350.093 -222.581 353.712 -224.372C355.317 -225.193 356.958 -225.752 357.331 -225.678C358.115 -225.454 358.525 -224.447 358.189 -223.551C357.816 -222.581 350.765 -219.597 348.937 -219.597C348.489 -219.597 346.437 -220.305 344.311 -221.126Z" fill="#696969"/>
<path d="M352.257 -233.923C351.772 -234.296 351.698 -235.714 351.772 -245.153L351.884 -255.973H354.123L354.235 -244.929C354.309 -234.184 354.309 -233.848 353.6 -233.662C353.19 -233.55 352.593 -233.662 352.257 -233.923Z" fill="#696969"/>
<path d="M323.156 -245.601C317.597 -246.832 314.314 -249.22 315.956 -250.861C316.627 -251.533 317.56 -251.421 319.538 -250.414C323.679 -248.324 328.827 -248.212 333.566 -250.19C335.841 -251.16 336.513 -251.272 337.147 -250.936C337.707 -250.637 337.893 -250.227 337.819 -249.518C337.744 -248.697 337.259 -248.287 335.319 -247.354C334.013 -246.683 332.036 -245.974 330.879 -245.75C328.865 -245.34 324.649 -245.265 323.156 -245.601Z" fill="#696969"/>
<path d="M366.994 -245.862C364.159 -246.608 361.734 -247.69 360.876 -248.623C360.204 -249.369 360.204 -249.481 360.801 -250.376C361.137 -250.899 361.585 -251.309 361.734 -251.309C361.92 -251.309 363.413 -250.787 365.017 -250.115C367.629 -249.033 368.337 -248.921 371.658 -248.884C375.202 -248.884 375.538 -248.959 378.262 -250.264C380.836 -251.496 381.172 -251.57 381.881 -251.085C384.716 -249.07 379.12 -245.75 372.404 -245.489C370.315 -245.414 368.263 -245.563 366.994 -245.862Z" fill="#696969"/>
<path d="M358.376 -259.666C357.406 -260.151 357.107 -260.972 357.443 -262.315C357.704 -263.36 360.017 -264.367 365.278 -265.673C372.068 -267.389 379.605 -266.792 385.723 -264.069C388.447 -262.8 389.081 -261.905 388.111 -260.487C387.253 -259.181 386.432 -259.144 383.41 -260.375C378.97 -262.129 374.531 -262.763 370.165 -262.203C368.151 -261.942 365.353 -261.308 363.86 -260.823C359.271 -259.181 359.309 -259.181 358.376 -259.666Z" fill="#696969"/>
<path d="M310.099 -260.412C308.867 -262.241 310.024 -263.36 314.949 -265.039C318.829 -266.344 321.552 -266.718 326.216 -266.531C332.82 -266.27 340.468 -263.994 341.065 -262.129C341.401 -261.084 340.356 -259.517 339.311 -259.517C338.901 -259.517 336.924 -260.039 334.946 -260.674C327.82 -262.949 322.187 -262.987 316.18 -260.785C312.113 -259.293 310.882 -259.218 310.099 -260.412Z" fill="#696969"/>
<path fill-rule="evenodd" clip-rule="evenodd" d="M228.206 266.873C200.075 272.73 165.378 276.909 153.775 275.864C137.657 274.447 122.734 267.507 115.011 257.919C111.877 254.001 107.81 245.905 106.206 240.421C104.378 234.19 103.52 228.594 103.445 222.811C103.408 219.118 103.296 217.663 102.96 217.663C102.736 217.663 102.438 217.812 102.326 217.998C101.841 218.745 98.5576 219.192 96.7668 218.782C94.6401 218.222 92.2151 216.208 91.6554 214.491C91.4316 213.782 91.0958 213.186 90.9466 213.186C90.7973 213.186 90.2004 213.708 89.5662 214.342C85.6487 218.483 79.4928 217.737 77.0304 212.85C75.8365 210.537 75.6873 208.298 76.5454 206.246C77.1423 204.791 79.9032 201.135 86.2457 193.412C88.5215 190.651 91.2824 187.219 92.4016 185.764L92.4821 185.662C93.5929 184.255 95.0697 182.384 95.834 181.51C96.6175 180.615 97.2518 179.757 97.2518 179.645C97.2518 179.496 95.3863 179.197 93.0732 178.936C88.0738 178.414 85.3876 177.294 84.0071 175.205C82.776 173.265 79.6793 163.453 79.4555 160.767C79.3062 159.051 79.4555 158.006 80.0897 156.29C80.5374 155.058 81.6567 151.962 82.5148 149.425C83.4102 146.888 84.2683 144.687 84.4922 144.463C84.6787 144.276 84.7533 142.933 84.6787 141.441C84.4175 137.71 85.1264 136.74 89.79 134.277C91.7674 133.27 94.6775 131.554 96.319 130.509C97.9606 129.465 99.8261 128.457 100.423 128.233C101.057 128.01 104.415 127.711 107.885 127.599C111.392 127.487 115.757 127.226 117.585 126.965C122.361 126.368 128.74 126.741 132.882 127.86C134.747 128.383 136.277 128.793 136.277 128.756C136.293 128.74 136.484 128.481 136.79 128.067L136.795 128.06C137.213 127.495 137.846 126.639 138.553 125.696C147.544 113.534 153.215 102.64 164.669 75.7026C171.981 58.5033 177.69 48.7657 187.987 35.8942C190.673 32.5737 193.173 29.1039 193.583 28.2458C194.329 26.5297 194.59 24.8507 195.784 12.6508C197.874 -8.91373 200.821 -26.1131 205.522 -44.1706C207.275 -51.0354 207.425 -51.8188 207.462 -56.184C207.462 -58.7583 207.275 -63.4219 207.014 -66.5558C204.776 -94.4255 210.335 -114.423 224.102 -128.227C232.347 -136.51 239.585 -140.278 254.658 -144.233C258.575 -145.24 263.089 -146.583 264.656 -147.217C266.261 -147.852 272.454 -150.986 278.386 -154.194C307.524 -169.901 307.785 -170.088 309.949 -173.222C312.188 -176.468 312.3 -177.027 312.449 -188.742L312.598 -199.45L310.733 -201.987C306.703 -207.434 304.913 -211.687 303.607 -219.223C303.159 -221.798 302.711 -224.26 302.599 -224.708C302.487 -225.267 302.152 -225.566 301.629 -225.566C298.458 -225.566 294.988 -228.289 293.198 -232.207C290.735 -237.542 288.161 -249.444 288.124 -255.786C288.086 -259.703 288.161 -260.263 289.094 -262.203C290.138 -264.442 292.414 -266.494 294.354 -266.867C295.511 -267.091 295.548 -267.426 294.802 -270.299C294.093 -273.097 292.153 -284.924 291.668 -289.439C290.287 -302.124 292.451 -312.01 298.234 -319.099C298.601 -319.563 299.289 -320.237 300.09 -320.94L303.237 -317.671C299.406 -314.097 297.219 -309.497 296.294 -303.206C295.399 -297.273 295.623 -291.901 297.264 -282.089C297.973 -277.873 299.652 -269.702 300.062 -268.471C300.174 -268.173 300.622 -269.031 301.107 -270.336C301.555 -271.68 302.413 -273.769 303.01 -275C304.987 -279.291 305.136 -279.962 305.099 -285.111C305.062 -291.08 305.435 -293.281 307.076 -296.639C308.505 -299.531 310.492 -301.709 312.953 -303.174L315.359 -299.623C313.411 -298.334 311.703 -296.403 310.733 -294.251C309.837 -292.311 309.763 -291.603 309.539 -285.26L309.278 -278.358L307.897 -275.187C304.428 -267.464 303.942 -265.673 303.196 -258.323C302.823 -254.48 302.861 -253.995 304.689 -241.348C308.233 -217.022 308.942 -213.627 311.852 -208.479C315.546 -201.912 328.081 -187.921 333.416 -184.377C334.536 -183.631 336.812 -182.586 338.453 -182.027C341.065 -181.206 342.259 -181.057 347.818 -180.87C358.973 -180.572 362.89 -181.989 370.128 -189.003C378.224 -196.838 384.604 -204.748 387.365 -210.493C389.454 -214.784 390.163 -218.03 392.7 -235.639L392.706 -235.681L392.708 -235.695C393.75 -242.765 394.79 -249.821 395.051 -251.421C395.909 -256.98 394.491 -265.859 391.767 -271.978C388.969 -278.283 388.895 -278.619 388.633 -285.633C388.447 -290.334 388.186 -292.647 387.701 -293.916C387.16 -295.476 385.389 -297.786 383.901 -299.057L385.073 -303.296C387.504 -301.849 389.801 -299.641 390.909 -297.497C392.588 -294.214 392.812 -293.02 393.073 -286.193L393.372 -279.477L395.237 -275.373C396.282 -273.097 397.326 -270.523 397.588 -269.628C397.811 -268.77 398.073 -268.098 398.185 -268.173C398.446 -268.471 400.162 -277.015 401.132 -283.021C404.193 -301.933 401.363 -314.022 392.273 -320.42L394.028 -324.515C395.538 -323.509 397.142 -322.34 397.961 -321.599C403.482 -316.599 406.877 -307.048 406.915 -296.639C406.915 -291.08 405.087 -277.164 403.37 -269.665L403.111 -268.536L403.108 -268.52L403.1 -268.484C402.93 -267.747 402.811 -267.228 402.811 -267.203C402.811 -267.128 403.557 -266.867 404.452 -266.643C406.803 -266.046 408.855 -263.621 409.713 -260.45C410.832 -256.383 410.011 -248.735 407.474 -239.37C405.273 -231.2 403.706 -228.476 400.087 -226.685C398.856 -226.051 397.364 -225.566 396.767 -225.566C396.207 -225.566 395.722 -225.454 395.722 -225.267C395.722 -225.118 395.312 -222.619 394.789 -219.708C393.409 -211.687 391.693 -207.62 387.253 -201.539L385.649 -199.375V-190.906C385.686 -177.997 386.246 -175.236 389.678 -171.729C391.506 -169.864 396.282 -166.842 403.37 -163.074C408.668 -160.276 415.197 -156.768 423.331 -152.329C431.725 -147.777 434.747 -146.546 442.731 -144.457C450.827 -142.367 454.894 -140.987 459.707 -138.636C471.011 -133.152 478.66 -125.504 484.331 -114.05C488.696 -105.245 490.748 -96.9625 491.606 -84.5387C492.053 -78.4947 491.942 -74.913 490.972 -62.8996C490.337 -54.8409 490.412 -53.7962 492.016 -47.6029C497.053 -28.0531 500 -11.4134 502.201 9.8526C503.694 23.9553 503.88 25.5969 504.291 27.0893C504.813 28.9174 506.305 31.0813 510.969 36.7149C516.976 44.0275 523.02 53.2801 527.198 61.6745C528.84 64.9204 532.272 72.6433 539.548 89.3203C541.711 94.357 544.696 100.737 546.114 103.498C550.815 112.526 557.344 122.936 561.187 127.525L562.306 128.868L565.477 127.898C569.469 126.666 575.737 126.331 581.035 127.002C583.05 127.263 587.639 127.562 591.258 127.711L597.787 127.935L601.144 130.024C602.973 131.181 605.883 132.86 607.636 133.718C612.859 136.292 614.501 138.568 613.606 141.926C613.27 143.157 613.307 143.567 613.792 144.276C614.091 144.724 614.799 146.515 615.322 148.268C615.844 150.022 616.889 152.857 617.598 154.611C618.791 157.484 618.903 158.006 618.754 160.58C618.568 163.378 616.217 171.437 614.725 174.384C613.232 177.332 611.143 178.339 605.36 178.936C603.122 179.197 601.294 179.533 601.294 179.72C601.294 179.943 602.077 181.025 603.047 182.182C606.703 186.622 619.612 202.851 620.769 204.53C621.925 206.172 622 206.507 622 209.343C622 212.178 621.925 212.477 620.843 213.782C619.015 216.058 617.933 216.655 615.508 216.842C612.673 217.028 611.031 216.469 609.166 214.641C608.308 213.857 607.524 213.186 607.338 213.186C607.188 213.186 606.703 214.006 606.293 215.014C605.174 217.588 602.749 218.968 599.615 218.931C598.309 218.931 596.891 218.633 596.182 218.26C595.511 217.924 594.951 217.775 594.914 217.924C594.914 218.11 594.914 219.565 594.951 221.207C595.026 227.475 593.795 234.862 591.37 242.286C588.683 250.569 585.699 255.68 580.401 260.941C570.215 271.126 551.598 277.207 534.548 275.864C485.301 272.022 446.537 263.291 397.774 244.973C381.769 238.929 375.016 236.205 357.928 228.855L349.012 225.012L345.243 226.729C307.039 243.853 257.941 260.68 228.206 266.873ZM301.07 108.945L296.593 108.124C290.698 107.079 284.057 105.363 277.826 103.386L272.79 101.781L272.864 93.9839C272.976 84.9552 273.312 80.9259 274.879 69.2109C275.998 61.0776 276.036 60.406 275.849 50.7057C275.551 36.0434 274.916 31.2679 270.365 11.0838C265.216 -11.5627 263.276 -22.6807 262.679 -32.3063L262.418 -36.5969L265.477 -33.6867C270.663 -28.7247 276.707 -25.2923 284.467 -22.8299C290.138 -21.0391 293.944 -20.5914 303.942 -20.5914C316.777 -20.5541 319.127 -21.0764 318.568 -23.9492C318.269 -25.5908 317.784 -25.7027 311.889 -25.2177C305.435 -24.658 296.257 -24.9192 291.481 -25.7773C285.102 -26.9339 279.02 -29.2843 274.021 -32.4929C270.439 -34.8434 265.067 -40.2904 262.306 -44.4317C258.277 -50.4757 254.471 -58.721 252.643 -65.3246C252.27 -66.5558 251.785 -67.9363 251.486 -68.4213C250.442 -70.0629 247.606 -69.0928 247.606 -67.0408C247.606 -64.2427 253.128 -50.7369 256.71 -44.8794L258.015 -42.7528L257.307 -35.9253C256.486 -28.0904 256.15 -25.5908 254.881 -18.129C252.158 -2.45929 249.472 7.61407 242.458 28.1339C240.331 34.4018 237.757 42.5351 236.749 46.2287C234.1 55.8917 233.317 58.0929 230.78 62.6819C223.878 75.1057 210.484 93.1258 192.949 113.571C190.039 116.966 185.412 122.413 182.652 125.696C175.638 134.091 165.079 146.664 163.512 148.455L162.244 149.947L161.983 148.828C161.05 144.649 159.781 142.672 158.065 142.672C157.058 142.672 155.827 143.642 155.827 144.425C155.827 144.649 156.274 145.731 156.834 146.813C158.886 150.731 158.326 156.439 155.267 162.632C153.103 167.035 146.686 175.802 133.255 192.703C131.203 195.277 127.92 199.493 125.98 201.993C120.532 209.082 119.077 210.574 117.548 210.574C115.906 210.574 114.787 209.455 114.787 207.85C114.787 206.918 116.205 204.493 121.167 196.956C124.674 191.621 127.696 186.846 127.882 186.361C128.405 185.092 127.397 183.712 125.98 183.712C125.084 183.712 124.599 184.122 122.846 186.622C121.726 188.189 118.555 192.293 115.832 195.725C114.427 197.475 112.666 199.692 110.978 201.817C109.391 203.814 107.868 205.731 106.766 207.104C101.468 213.782 100.535 214.678 98.968 214.678C96.2444 214.678 94.6775 211.88 95.9833 209.417C96.6548 208.037 96.9906 207.589 108.37 192.591C113.593 185.689 115.906 182.368 115.906 181.697C115.906 180.578 114.451 179.458 113.518 179.831C113.145 179.981 109.191 184.458 104.714 189.83C88.2604 209.529 86.3576 211.693 85.2756 212.29C83.1864 213.335 80.724 212.029 80.2763 209.641C80.0151 208.112 80.6493 207.142 87.9246 198.225C104.564 177.817 106.206 175.69 106.206 174.683C106.206 172.444 103.37 172.183 101.729 174.31L100.983 175.243L95.5356 174.795C89.4542 174.272 88.5961 174.049 87.738 172.78C86.9172 171.474 83.8206 161.476 83.8206 160.021C83.8206 159.312 84.4922 156.924 85.2756 154.723C86.0964 152.521 86.9918 149.947 87.253 149.014C87.8126 147.074 88.6707 146.739 90.4989 147.671C92.1778 148.567 92.7001 150.581 92.0285 153.977C91.0958 158.901 91.1331 159.983 92.1405 162.222C92.6628 163.341 93.5582 164.535 94.1178 164.908C95.6475 165.953 98.8187 165.803 101.356 164.647C103.781 163.49 108.407 159.312 111.541 155.357C112.772 153.827 113.891 152.559 114.003 152.596C114.115 152.596 115.347 153.156 116.69 153.79C122.771 156.775 129.748 156.775 135.866 153.865C138.441 152.633 139.15 151.813 138.963 150.208C138.776 148.455 137.247 148.306 134.486 149.686C131.352 151.253 128.74 151.775 124.86 151.514C119.413 151.178 116.727 149.723 112.996 144.985C111.541 143.12 108.706 141.59 106.28 141.329C104.863 141.142 103.855 141.366 101.169 142.411C99.3411 143.12 96.9906 143.828 96.0206 143.978C92.2897 144.5 88.4842 142.635 88.7454 140.471C88.8573 139.65 89.5288 139.128 93.1478 137.225C95.4983 135.994 98.3337 134.389 99.453 133.718C101.465 132.414 101.505 132.412 107.261 132.115L107.288 132.114C110.496 131.964 115.533 131.591 118.518 131.293C126.166 130.547 130.121 131.143 137.657 134.128C141.164 135.546 141.425 135.583 142.283 135.024C142.768 134.688 143.291 134.165 143.403 133.867C143.739 133.009 142.806 131.591 141.612 131.069L140.53 130.659L141.612 129.278C143.664 126.666 148.775 118.757 151.536 113.944C156.386 105.475 159.483 99.0206 167.243 81.0005C176.869 58.6525 180.301 52.6458 191.233 38.9535C193.956 35.5584 196.568 32.014 197.09 31.044C198.433 28.4324 198.956 25.5223 199.814 16.3817C202.015 -6.74982 204.515 -21.8226 209.439 -41.5589C211.864 -51.2592 211.939 -51.6323 211.939 -56.3705C211.939 -59.0194 211.752 -63.4965 211.491 -66.22C210.932 -72.4507 210.894 -84.091 211.454 -88.9411C213.058 -103.827 218.58 -116.624 226.974 -124.944C231.489 -129.421 235.07 -131.995 240.331 -134.532C245.666 -137.107 247.233 -137.666 257.045 -140.315C266.298 -142.778 267.977 -143.487 278.573 -149.269C281.702 -150.986 286.385 -153.521 290.704 -155.86L290.717 -155.867C292.778 -156.983 294.757 -158.054 296.443 -158.97C310.434 -166.469 312.635 -168.148 314.911 -172.811C316.441 -175.908 316.963 -179.639 317.001 -187.25V-193.853L322.298 -188.518C330.245 -180.497 332.82 -178.781 339.349 -177.139C342.967 -176.244 355.727 -176.244 359.309 -177.176C365.092 -178.631 370.725 -182.549 376.918 -189.302C379.12 -191.69 381.022 -193.63 381.134 -193.555C381.246 -193.518 381.284 -191.167 381.209 -188.332C381.134 -184.116 381.47 -179.34 382.03 -175.871C382.104 -175.535 383.746 -173.595 385.686 -171.58C387.589 -169.565 389.865 -167.028 390.685 -165.984C391.767 -164.566 392.924 -163.633 394.789 -162.663C398.185 -160.872 404.975 -157.254 418.107 -150.165C423.965 -146.994 430.084 -143.897 431.762 -143.225C433.441 -142.554 437.956 -141.173 441.836 -140.166C454.297 -136.92 459.408 -134.607 467.019 -128.899C475.563 -122.482 482.316 -111.289 485.189 -98.9025C487.39 -89.5753 487.875 -76.6665 486.606 -62.6011C485.823 -53.9827 485.823 -53.9454 489.218 -40.1412C493.732 -21.748 495.859 -9.24954 497.948 11.345C499.366 25.2611 499.478 26.3431 500.224 28.6562C500.634 30.0367 501.604 31.8275 502.686 33.2452C509.327 41.7889 515.745 50.4445 517.535 53.3174C520.222 57.5706 526.116 69.3974 529.437 77.195C536.936 94.7301 541.861 105.288 546.189 113.011C548.427 117.003 553.725 125.174 556.038 128.233C557.605 130.285 557.792 131.106 556.747 131.106C556.038 131.106 555.031 132.337 555.031 133.233C555.031 134.165 556.15 135.21 557.195 135.21C557.605 135.21 559.284 134.688 560.888 134.091C568.089 131.293 574.319 130.509 580.96 131.442C582.415 131.666 586.333 131.927 589.728 132.076C596.443 132.337 596.891 132.449 600.995 134.949C602.525 135.882 604.95 137.225 606.405 137.971C609.427 139.463 610.061 140.21 609.39 141.553C608.755 142.858 606.853 143.828 604.428 144.052C602.599 144.239 601.704 144.052 597.525 142.635C592.899 141.068 592.675 141.03 590.959 141.478C588.497 142.15 585.81 143.94 584.542 145.806C581.856 149.611 578.722 151.253 573.499 151.551C569.507 151.738 567.044 151.29 563.91 149.723C561.411 148.455 560.59 148.38 559.769 149.313C558.836 150.358 558.985 151.44 560.254 152.484C562.231 154.163 568.536 156.066 572.081 156.103C574.916 156.103 579.431 155.021 581.968 153.715L584.467 152.447L585.96 154.387C586.78 155.432 589.168 158.006 591.332 160.095C595.772 164.498 597.675 165.542 601.032 165.542C603.644 165.542 604.838 164.796 606.069 162.446C607.039 160.468 607.114 158.565 606.293 154.611C605.398 150.096 606.442 147.522 609.166 147.41C610.248 147.335 610.434 147.485 610.845 148.641C611.07 149.252 611.821 151.387 612.622 153.661L612.635 153.7L613.009 154.76L614.725 159.535L614.165 162.035C613.419 165.281 611.442 171.325 610.658 172.631C609.949 173.899 608.793 174.198 603.346 174.758C601.107 174.981 598.869 175.242 598.421 175.317C597.824 175.466 597.19 175.093 596.108 174.011C595.287 173.19 594.466 172.519 594.28 172.519C593.571 172.519 591.966 174.086 591.966 174.758C591.966 175.168 593.198 176.959 594.69 178.75C596.182 180.54 599.503 184.644 602.04 187.816C603.925 190.172 606.923 193.91 609.579 197.22L612.15 200.426C615.434 204.53 617.709 207.701 617.859 208.373C618.306 210.649 616.702 212.812 614.613 212.812C612.971 212.812 612.71 212.551 595.884 192.442C592.787 188.786 589.206 184.458 587.937 182.891C586.669 181.324 585.288 179.906 584.878 179.794C583.87 179.496 582.677 180.205 582.415 181.287C582.229 182.07 583.684 184.159 591.631 194.718C596.854 201.583 601.48 207.85 601.928 208.634C602.413 209.417 602.786 210.649 602.786 211.432C602.786 214.156 600.062 215.536 597.637 214.081C596.63 213.484 581.221 194.457 575.998 187.405C573.237 183.637 572.64 183.227 571.036 184.085C569.544 184.905 570.141 186.286 575.289 194.009C581.52 203.373 583.758 207.142 583.758 208.223C583.758 210.238 581.035 211.246 579.095 209.977C577.229 208.746 550.069 173.937 545.405 166.811C541.973 161.513 539.809 154.872 540.294 151.066C540.406 150.059 540.928 148.194 541.45 146.925C542.532 144.202 542.532 144.09 541.674 143.306C540.704 142.411 539.622 142.523 538.54 143.605C537.645 144.5 536.376 147.671 536.376 149.052C536.376 149.462 536.227 149.761 536.078 149.761C535.779 149.761 526.042 138.307 517.386 127.786C515.26 125.211 512.499 121.928 511.23 120.51C509.999 119.093 507.611 116.295 505.97 114.317L505.443 113.683L505.438 113.677C503.608 111.472 500.269 107.447 497.538 104.244C484.629 88.7234 474.033 74.0983 468.138 63.6146C465.005 58.0556 464.072 55.6678 462.169 48.4672C461.274 45.184 458.177 35.2972 455.23 26.455C452.282 17.6501 449.186 7.91251 448.365 4.81592C445.417 -5.81708 442.582 -21.8226 441.239 -34.9926L440.455 -42.7155L442.657 -46.7448C445.604 -52.1546 447.246 -55.8855 448.85 -61.0341C450.641 -66.6677 450.827 -67.8243 450.006 -68.6078C449.298 -69.354 447.954 -69.4286 447.134 -68.757C446.798 -68.5332 446.089 -66.7797 445.529 -64.9515C443.627 -58.5717 439.747 -50.2519 436.202 -44.7675C427.024 -30.6274 412.474 -24.1357 392.066 -25.0311C380.5 -25.5535 380.314 -25.5161 379.829 -24.5461C379.269 -23.4268 379.567 -22.3076 380.575 -21.6733C381.657 -20.9644 388.447 -20.3675 395.125 -20.3675C411.728 -20.4048 424.338 -24.8819 433.18 -33.9479L436.09 -36.9699L435.829 -33.7987C434.934 -22.0837 433.106 -11.6746 428.367 8.91989C423.405 30.3724 422.51 37.2373 422.435 52.7577C422.398 62.5326 422.473 63.9504 423.405 70.1063C424.823 79.5454 425.159 83.2763 425.457 93.0512L425.681 101.632L424.375 102.155C423.666 102.453 420.57 103.46 417.51 104.393C407.81 107.341 397.065 109.467 384.156 110.959C378.075 111.668 375.687 112.079 377.553 112.079C378 112.079 378.112 112.377 378 113.31C377.963 113.981 378.112 114.84 378.411 115.25C378.896 115.884 379.157 115.922 383.671 115.474C397.14 114.168 412.511 111.034 422.473 107.527C424.786 106.744 426.838 106.147 427.024 106.259C427.472 106.557 430.904 114.951 433.255 121.555C434.374 124.652 435.531 127.413 435.904 127.748C436.277 128.121 439 129.017 441.985 129.763C470.526 137.076 494.292 145.172 515.521 154.76C522.833 158.08 530.146 161.849 539.436 167.072C540.406 167.594 541.6 169.049 543.316 171.586C546.3 175.989 553.762 185.689 572.044 208.746C576.11 213.894 577.379 214.79 580.774 214.976C584.057 215.126 585.773 214.156 587.191 211.395L588.198 209.417L588.832 210.387C590.176 212.439 590.81 220.535 590.138 226.617C587.862 246.204 580.438 258.441 566.783 265.045C555.74 270.417 545.442 272.283 532.757 271.201C504.925 268.85 480.786 265.045 458.961 259.598C436.314 253.927 411.951 245.831 382.291 234.153C377.292 232.176 360.577 225.087 357.518 223.669C355.914 222.886 354.72 222.177 354.906 222.028C355.093 221.916 357.406 220.983 360.018 219.938C365.353 217.812 405.609 201.806 416.018 198.187C425.346 194.942 431.8 192.442 436.799 190.129C441.09 188.151 442.881 187.592 447.88 186.734C454.484 185.54 461.572 185.092 469.407 185.316C479.816 185.652 487.838 187.069 498.135 190.464C504.664 192.628 514.849 197.479 519.849 200.836C523.468 203.261 524.177 203.485 525.258 202.478C526.229 201.62 526.079 200.239 524.923 199.045C523.468 197.628 517.573 194.046 512.499 191.509C497.837 184.159 483.323 180.801 465.863 180.69L458.961 180.652L463.363 178.488C468.773 175.839 472.84 174.459 476.272 174.161C477.876 174.011 481.756 174.16 486.196 174.571C492.128 175.131 493.845 175.168 495.449 174.795C499.254 173.937 501.754 170.84 501.754 166.96C501.754 164.274 501.045 162.595 499.03 160.394C496.344 157.483 493.77 156.476 486.719 155.543C482.652 155.021 482.241 154.909 477.354 152.372C467.169 147.149 464.035 147.074 449.149 151.589C439.038 154.685 435.046 155.469 429.3 155.469C423.891 155.469 421.54 154.984 411.914 151.85C404.154 149.35 401.766 148.716 398.11 148.268C392.85 147.597 387.776 149.052 384.119 152.335L379.791 157.67L379.045 159.2C378.635 160.058 377.441 162.259 376.359 164.087C375.314 165.878 374.568 167.557 374.717 167.818C374.867 168.042 374.68 168.005 374.344 167.706C373.785 167.258 373.71 167.296 373.71 168.005C373.71 168.49 373.971 169.087 374.27 169.422C374.605 169.721 374.979 170.467 375.09 171.064C375.202 171.661 375.538 172.146 375.799 172.146C376.471 172.146 376.434 171.474 375.762 170.28C375.464 169.758 375.24 169.012 375.24 168.602C375.24 167.93 375.277 167.967 375.762 168.788C376.06 169.31 376.284 170.057 376.322 170.467C376.359 172.556 382.664 162.744 382.664 160.617L386.768 155.842C388.708 154.014 391.581 152.932 394.864 152.783C398.632 152.633 401.543 153.23 410.086 155.991C420.421 159.312 423.517 159.946 428.927 159.946C435.792 159.983 440.941 158.939 452.059 155.394C463.401 151.775 466.087 151.887 475.153 156.215L476.141 156.694C479.507 158.326 480.868 158.986 482.301 159.36C483.273 159.614 484.278 159.736 485.965 159.942L486.004 159.947L486.017 159.949L486.639 160.025L486.905 160.058C489.367 160.356 492.054 160.916 492.874 161.289C496.195 162.744 498.359 166.587 497.053 168.602C496.717 169.124 495.859 169.833 495.15 170.168C493.919 170.765 493.285 170.728 486.084 170.131C473.026 169.049 471.944 169.31 446.649 180.839C430.867 188.002 424.525 190.539 407.102 196.583C406.507 196.79 405.882 197.007 405.241 197.23L405.185 197.249L405.174 197.253C401.204 198.633 396.595 200.235 394.23 201.097L383 205.09L370.912 210.089L370.613 208.186C370.464 207.142 369.979 204.716 369.569 202.814C368.823 199.456 368.785 199.381 367.815 199.493C367.181 199.568 366.584 200.053 366.211 200.724C365.577 201.806 365.689 203.448 366.771 210.835L366.92 211.992L362.219 214.156C359.607 215.312 355.914 217.028 354.011 217.924C353.417 218.187 352.85 218.439 352.349 218.663C351.212 219.169 350.406 219.528 350.355 219.528C350.281 219.528 346.004 221.412 340.773 223.717L340.542 223.819C328.716 229.042 308.196 237.287 295.138 242.063C249.472 258.702 216.64 266.462 174.668 270.417C169.332 270.94 163.288 271.425 161.236 271.536C149.148 272.096 134.038 267.843 125.383 261.388C116.279 254.636 111.168 245.159 108.594 230.348C107.4 223.557 107.997 212.589 109.676 210.201C110.198 209.455 110.235 209.455 110.683 210.574C111.914 213.559 114.265 215.051 117.697 215.051C119.488 215.051 120.197 214.864 121.428 214.044C122.808 213.074 128.591 206.06 138.702 193.039C139.486 192.038 140.456 190.793 141.483 189.475L141.535 189.408L141.553 189.385L141.559 189.377L141.574 189.358C143.356 187.07 145.296 184.58 146.723 182.779C151.2 177.033 153.775 173.564 156.162 170.019C157.953 167.296 158.625 166.885 170.564 160.729C193.658 148.865 221.005 138.941 254.508 130.173C257.381 129.427 260.329 128.681 261.075 128.495C262.642 128.084 263.089 127.189 265.626 119.914C267.156 115.511 270.365 107.639 271.073 106.557C271.335 106.147 272.379 106.371 276.558 107.714C283.012 109.84 287.489 110.959 295.361 112.452C298.757 113.086 301.741 113.795 301.965 114.019L312.15 114.989C313.27 115.063 314.277 115.213 314.351 115.287C314.426 115.362 315.433 115.436 316.59 115.436C317.933 115.436 318.493 115.324 318.157 115.101C317.597 114.728 317.896 112.079 318.493 112.079C318.717 112.079 318.866 111.929 318.866 111.78C318.866 111.444 301.368 108.684 301.07 108.945ZM601.891 151.738C601.891 153.641 602.04 156.215 602.189 157.484C602.45 159.2 602.376 159.983 602.04 160.394C601.517 161.028 599.727 161.102 598.309 160.543C596.929 159.983 589.579 152.41 588.646 150.544C587.862 149.052 587.862 148.902 588.422 148.044C589.168 146.888 591.146 145.657 592.228 145.657C592.675 145.657 594.168 146.067 595.585 146.589C596.966 147.074 598.98 147.671 599.988 147.895L601.891 148.306V151.738ZM109.452 150.954C107.736 153.454 101.468 159.759 99.8261 160.617C97.5129 161.849 95.7594 161.326 95.7594 159.349C95.7967 158.677 96.0206 156.7 96.2817 154.872C96.5802 153.006 96.6548 150.992 96.5056 150.134L96.4886 150.038C96.2064 148.455 96.2051 148.448 97.9979 148.082C98.7068 147.932 100.572 147.298 102.102 146.701C105.758 145.246 107.251 145.396 109.34 147.485L110.832 148.977L109.452 150.954ZM536.637 158.565C536.936 159.498 537.16 160.319 537.085 160.356C537.011 160.431 535.593 159.759 533.951 158.864C519.55 150.88 495.672 140.993 475.526 134.613C465.676 131.517 453.812 128.084 446.499 126.219C442.507 125.211 439.187 124.353 439.15 124.279C439.095 124.224 438.611 122.905 437.944 121.083L437.94 121.073C437.704 120.428 437.444 119.72 437.172 118.981C434.896 112.489 432.583 106.632 431.277 104.132C430.307 102.266 430.27 101.931 430.009 93.4243C429.71 83.6494 429.375 79.8812 427.882 70.1063C426.95 63.9131 426.875 62.5326 426.912 52.5712C426.95 37.3119 427.733 31.3798 432.732 10.2257C435.232 -0.593872 437.247 -9.88376 437.918 -14.137C438.142 -15.7413 438.478 -17.0844 438.627 -17.1963C438.739 -17.2709 439.336 -15.0324 439.896 -12.1596C442.395 0.600006 445.679 12.4269 450.603 26.7162C455.342 40.4085 455.64 41.3412 457.505 48.3553C460.453 59.6225 462.206 63.3161 470.489 75.8146C478.063 87.3057 488.658 100.961 503.918 118.794C506.268 121.555 511.156 127.375 514.737 131.666C524.288 143.194 526.751 146.104 531.638 151.775C534.66 155.245 536.227 157.409 536.637 158.565ZM258.65 -13.6146C259.023 -15.7039 259.433 -17.3828 259.545 -17.3828C259.694 -17.3828 260.067 -15.7039 260.44 -13.6146C260.776 -11.5627 262.231 -4.62317 263.686 1.75662C270.924 33.9914 271.223 35.9688 271.26 52.0115C271.297 62.9803 271.223 64.2115 270.29 70.4794C268.798 80.2916 268.462 84.0225 268.163 93.7974L267.865 102.565L265.44 107.975C264.097 110.959 262.194 115.735 261.224 118.608C260.217 121.481 259.321 123.943 259.172 124.092C259.06 124.279 255.777 125.211 251.897 126.219C243.54 128.383 242.644 128.644 232.869 131.554C216.603 136.441 203.06 141.217 189.031 147.037C183.286 149.425 165.303 157.931 162.878 159.424C160.751 160.729 160.677 160.58 161.983 157.857C162.505 156.775 165.116 153.417 167.989 150.134C170.787 146.962 175.787 141.068 179.107 137.076C182.39 133.084 187.464 127.04 190.337 123.644C216.528 92.8647 227.646 78.0531 235.07 63.9131C237.869 58.6152 238.727 56.1901 240.891 48.1314C242.644 41.4904 243.428 38.9535 247.905 26.0819C252.792 11.9046 256.672 -2.45929 258.65 -13.6146ZM296.257 -262.39C296.555 -262.278 297.115 -260.338 297.749 -257.017C298.757 -251.831 301.704 -232.17 301.704 -230.789C301.704 -229.819 301.368 -229.856 299.801 -230.901C298.16 -232.02 297.115 -233.886 295.735 -238.251C293.011 -246.72 291.743 -257.39 293.048 -260.524C293.571 -261.718 295.287 -262.763 296.257 -262.39ZM401.505 -261.644C401.953 -263.584 404.602 -262.24 405.422 -259.666C406.542 -256.308 404.714 -243.959 401.953 -236.423C401.057 -233.886 400.423 -232.841 399.043 -231.461C397.214 -229.633 396.468 -229.259 396.468 -230.192C396.468 -232.505 400.274 -256.196 401.505 -261.644Z" fill="#696969"/>
<path d="M347.183 211.842C346.437 211.096 343.975 209.567 341.289 208.223C335.095 205.127 333.006 203 332.372 199.269C332.111 197.814 332.036 197.74 330.208 197.329C326.701 196.546 324.5 194.606 322.41 190.427C321.851 189.308 321.291 188.301 321.142 188.189C321.03 188.077 320.508 187.069 319.985 185.95C319.463 184.831 318.418 183.189 317.635 182.331L316.18 180.764L317.933 178.6C318.903 177.406 320.209 175.354 320.806 174.011C321.44 172.668 322.336 170.803 322.783 169.87C323.268 168.9 323.604 167.743 323.492 167.258C323.38 166.55 323.38 166.512 323.642 167.035C323.903 167.669 323.977 167.669 324.835 166.885C326.664 165.281 329.051 163.975 330.618 163.714C332.148 163.49 332.223 163.416 332.446 161.961C332.782 159.946 334.237 157.483 335.767 156.327C336.401 155.842 338.975 154.424 341.438 153.193C344.311 151.775 346.437 150.395 347.37 149.462L348.788 147.97L351.101 149.873C352.444 151.029 354.608 152.335 356.361 153.118C362.517 155.73 364.681 157.745 365.577 161.625C366.099 163.677 366.024 163.639 368.897 164.124C369.718 164.236 370.986 164.983 372.404 166.176C373.635 167.221 374.755 168.042 374.904 168.042C375.053 168.042 375.202 168.266 375.202 168.527C375.202 169.087 377.03 173.638 378.112 175.765C378.56 176.586 379.567 178.003 380.426 178.899C381.246 179.794 381.918 180.578 381.918 180.652C381.918 180.727 381.172 181.66 380.239 182.742C379.344 183.824 377.739 186.472 376.732 188.674C374.046 194.457 371.285 197.105 367.405 197.74C365.95 197.964 365.875 198.075 365.875 199.232C365.875 202.217 362.667 205.463 356.996 208.186C354.645 209.305 352.071 210.872 351.175 211.693C350.28 212.514 349.31 213.186 349.012 213.186C348.713 213.186 347.892 212.589 347.183 211.842ZM350.653 208.634C351.175 208.261 353.489 207.03 355.727 205.91C360.577 203.523 362.405 202.068 362.741 200.314C363.114 198.299 362.816 198.187 360.838 199.605C358.488 201.284 357.033 201.881 353.824 202.59C347.631 203.896 341.363 202.664 336.774 199.195C335.207 198.038 334.983 198.449 335.842 200.724C336.588 202.664 337.856 203.634 343.303 206.395C345.355 207.44 347.445 208.634 347.967 209.044C348.9 209.79 348.974 209.79 350.653 208.634ZM355.653 199.456C356.697 199.083 357.966 198.449 358.451 198.113C359.271 197.553 358.712 197.516 349.347 197.516C343.863 197.516 339.386 197.628 339.386 197.74C339.386 198.001 342.594 199.419 344.609 199.978C347.034 200.687 353.227 200.426 355.653 199.456ZM331.551 194.68C331.551 194.568 331.141 193.934 330.656 193.3C328.081 189.868 326.701 185.39 326.701 180.466C326.701 175.354 327.783 171.959 330.618 168.266C331.364 167.258 331.924 166.438 331.85 166.363C331.775 166.326 330.954 166.475 329.947 166.736C327.149 167.445 326.029 168.788 323.716 174.198C323.007 175.839 321.888 177.891 321.216 178.749C320.545 179.645 319.985 180.54 319.985 180.727C319.985 180.913 320.657 181.958 321.478 183.04C322.298 184.122 323.418 186.099 323.977 187.442C325.582 191.36 326.664 192.74 328.902 193.897C330.917 194.904 331.551 195.091 331.551 194.68ZM362.779 194.419C363.189 193.971 363.413 170.952 363.002 168.602L362.704 166.736H335.468L335.357 180.615L335.282 194.494L337.595 194.643C342.035 194.904 362.443 194.718 362.779 194.419ZM369.606 193.934C371.285 193.113 372.516 191.434 374.605 187.069C375.725 184.719 377.068 182.294 377.59 181.697L378.523 180.652L377.441 179.272C376.844 178.526 375.501 176.138 374.456 173.937C373.412 171.735 372.106 169.385 371.546 168.751C370.464 167.445 368.673 166.55 367.181 166.55H366.211L367.554 168.228C370.501 171.81 372.33 179.16 371.509 184.122C371.024 186.995 369.196 191.434 367.517 193.598L366.509 194.942L367.591 194.68C368.188 194.531 369.084 194.195 369.606 193.934ZM367.591 187.89C368.934 184.607 369.27 178.973 368.3 175.653C367.703 173.489 366.323 170.653 365.912 170.653C365.801 170.653 365.689 175.242 365.689 180.876C365.689 192.069 365.763 192.33 367.591 187.89ZM332.558 180.69C332.633 169.534 332.596 169.31 330.581 173.75C329.76 175.616 329.499 176.735 329.387 179.496C329.313 181.398 329.424 183.749 329.648 184.719C330.096 186.584 331.924 190.8 332.26 190.8C332.372 190.8 332.521 186.249 332.558 180.69ZM359.16 163.901C359.16 163.49 355.653 162.11 352.929 161.476C348.9 160.543 342.856 161.401 340.095 163.341C339.311 163.863 339.349 163.901 340.729 164.013C343.676 164.236 359.16 164.162 359.16 163.901ZM337.595 161.699C341.102 159.424 344.348 158.528 349.086 158.528C353.862 158.528 357.22 159.461 360.615 161.737C361.883 162.595 363.04 163.192 363.152 163.042C363.674 162.52 362.032 159.424 360.652 158.342C359.346 157.297 354.048 154.611 353.302 154.611C353.153 154.611 352.108 153.939 351.026 153.118L349.049 151.589L347.892 152.559C347.258 153.118 345.131 154.275 343.154 155.208C338.602 157.334 337.11 158.379 336.14 160.132C335.282 161.662 334.76 163.192 335.058 163.192C335.17 163.192 336.289 162.52 337.595 161.699Z" fill="#E81816"/>
<path d="M340.436 189.443C337.004 184.331 336.929 179.444 340.249 177.205C342.04 175.974 345.174 175.937 347.525 177.056L349.166 177.877L351.256 176.87C353.382 175.825 353.755 175.377 353.755 173.81V172.915H346.293C338.869 172.915 338.794 172.915 338.496 172.094C337.862 170.341 338.048 170.303 346.331 170.303C353.009 170.303 354.128 170.229 354.128 169.744C354.128 168.997 355.845 168.997 356.106 169.706C356.255 170.079 357.001 170.303 358.307 170.378C360.247 170.49 360.284 170.527 360.21 171.572C360.098 172.99 359.949 173.064 358.232 172.989C356.815 172.878 356.74 172.952 356.703 174.034C356.665 174.631 356.628 175.303 356.591 175.527C356.553 175.713 357.15 176.198 357.859 176.571C359.799 177.616 360.919 179.742 360.732 182.13C360.583 184.257 358.904 187.95 357.188 190.04C356.255 191.159 356.031 191.234 355.322 190.86C354.166 190.263 354.278 189.741 356.068 186.868C357.3 184.891 357.673 183.958 357.785 182.279C357.897 180.414 357.822 180.078 356.964 179.295C356.292 178.66 355.583 178.362 354.725 178.399C353.494 178.437 350.994 179.742 350.062 180.899C349.39 181.72 348.793 181.645 347.935 180.712C346.331 178.922 343.197 178.287 341.593 179.444C339.839 180.638 340.249 184.704 342.413 187.913C343.868 190.077 343.906 190.972 342.563 191.122C341.816 191.196 341.406 190.823 340.436 189.443Z" fill="#E81816"/>
<rect width="699" height="383" rx="54" fill="url(#paint0_linear_1361_169)"/>
<rect width="699" height="383" rx="54" fill="url(#paint1_linear_1361_169)"/>
</g>
<defs>
<linearGradient id="paint0_linear_1361_169" x1="349" y1="255.5" x2="349" y2="364.5" gradientUnits="userSpaceOnUse">
<stop stop-color="white" stop-opacity="0"/>
<stop offset="1" stop-color="white"/>
</linearGradient>
<linearGradient id="paint1_linear_1361_169" x1="349" y1="-6.65889e-06" x2="349" y2="65" gradientUnits="userSpaceOnUse">
<stop stop-color="white"/>
<stop offset="1" stop-color="white" stop-opacity="0"/>
</linearGradient>
</defs>
</svg>
