<svg width="164" height="131" viewBox="0 0 164 131" fill="none" xmlns="http://www.w3.org/2000/svg">
<path d="M49.8904 107.992V107.136L50.7991 107.221C51.2894 107.263 52.1692 107.347 52.7461 107.389C53.698 107.473 53.7845 107.501 53.7845 107.796C53.7845 108.077 53.6836 108.119 52.9048 108.203C52.4288 108.259 51.6644 108.259 51.2317 108.203L50.4241 108.105L50.4962 108.484C50.5539 108.792 50.525 108.848 50.2366 108.848C49.9049 108.848 49.8904 108.792 49.8904 107.992Z" fill="#F1F1F1"/>
<path d="M43.7464 107.459C43.6022 107.094 43.4003 106.996 41.7272 106.463C38.6552 105.467 36.8235 104.358 38.2658 104.358C38.5398 104.358 38.7994 104.414 38.8427 104.484C38.886 104.554 39.1312 104.639 39.3908 104.667C39.9244 104.737 43.3714 105.705 43.6599 105.874C43.905 106 44.2656 106.954 44.2656 107.487C44.2656 107.992 43.9339 107.978 43.7464 107.459Z" fill="#F1F1F1"/>
<path d="M118.946 101.622C118.917 101.608 118.023 101.551 116.956 101.509C113.509 101.355 107.725 100.569 103.211 99.643C102.273 99.4466 101.451 99.3343 101.379 99.3764C101.293 99.4325 101.235 99.2922 101.235 99.0677C101.235 98.759 101.394 98.5344 101.913 98.1135C102.288 97.8048 102.764 97.468 102.966 97.3557C103.759 96.9347 105.533 96.1068 106.168 95.8542C106.557 95.7139 106.86 95.5455 106.86 95.4894C106.86 95.4192 107.076 95.3771 107.336 95.3771C107.595 95.3771 108.057 95.2508 108.374 95.0965C108.691 94.9421 109.038 94.8158 109.167 94.8158C109.283 94.8158 109.73 94.6895 110.148 94.5352C111.042 94.1984 111.763 94.1703 111.763 94.451C111.763 94.5492 111.619 94.6895 111.446 94.7457C111.057 94.8719 111.807 94.9982 114.215 95.2368C115.052 95.307 116.061 95.4052 116.451 95.4473C117.763 95.5736 123.633 95.5315 125.465 95.3771C129.301 95.0403 133.066 94.2826 136.657 93.0898C139.094 92.2759 139.498 92.0795 139.383 91.7146C139.311 91.5041 139.354 91.448 139.628 91.448C140.162 91.448 141.359 93.5529 141.82 95.307C142.238 96.8786 142.339 98.2819 141.993 97.8328C141.806 97.5802 141.777 97.5802 141.041 97.9451C140.638 98.1556 140.176 98.324 140.046 98.324C139.916 98.324 139.743 98.3801 139.671 98.4503C139.123 98.9274 133.758 100.303 130.369 100.85C127.902 101.243 127.152 101.327 124.816 101.481C123.46 101.565 119.018 101.678 118.946 101.622Z" fill="#F1F1F1"/>
<path d="M94.0237 98.773C94.0237 98.7169 94.1246 98.5204 94.2544 98.338C94.4419 98.0854 94.4563 97.9872 94.3121 97.903C93.8506 97.6223 89.2498 97.2996 88.37 97.468L87.9662 97.5522L88.6152 97.889C89.9565 98.5766 88.9613 98.7028 87.4469 98.0293C86.8989 97.7907 86.1922 97.468 85.8749 97.3277C85.5576 97.1873 84.9086 96.9768 84.4326 96.8646C83.9567 96.7523 83.2067 96.5558 82.774 96.4436C81.2164 96.0086 78.5338 96.2191 76.0675 96.9488C75.2742 97.1733 74.3945 97.4259 74.1204 97.482C73.8464 97.5522 73.1253 97.8048 72.534 98.0433C71.3513 98.5204 70.0821 98.7449 70.0821 98.4783C70.0821 98.3941 70.3129 98.2117 70.5869 98.0854C70.8609 97.9451 72.7503 97.0049 74.7983 95.9946C76.8463 94.9842 79.1107 93.9177 79.8174 93.6371C80.5385 93.3424 81.4039 92.9916 81.7644 92.8512C82.125 92.6969 82.875 92.4443 83.423 92.2899C83.9855 92.1356 84.6345 91.9391 84.8653 91.869C85.6153 91.6444 88.5142 91.3077 89.668 91.3077C91.5862 91.3077 95.5525 91.8409 98.6389 92.5004C99.2302 92.6267 99.836 92.739 99.9802 92.739C100.139 92.725 100.225 92.8372 100.225 93.0758C100.225 93.3424 100.153 93.4126 99.8648 93.4126C99.6629 93.4126 99.5043 93.4967 99.4898 93.595C99.4898 93.6792 99.1004 94.0861 98.61 94.465C98.1341 94.8579 97.2255 95.742 96.5765 96.4296C95.9274 97.1312 95.3217 97.7767 95.2207 97.8749C95.1198 97.9731 95.0332 98.1556 95.0332 98.2678C95.0332 98.3801 94.9755 98.4643 94.889 98.4643C94.8169 98.4643 94.7448 98.5625 94.7448 98.6748C94.7448 98.8011 94.615 98.8853 94.3842 98.8853C94.1823 98.8853 94.0237 98.8432 94.0237 98.773Z" fill="#F1F1F1"/>
<path d="M36.4053 98.4924C31.4295 96.9628 25.0547 94.8579 22.9201 94.044C20.1221 92.9635 14.8435 90.5219 14.8435 90.3114C14.8435 90.2412 14.7425 90.1851 14.6271 90.1851C14.5117 90.1851 14.2954 90.0588 14.1656 89.9044C14.0214 89.7501 13.8339 89.6238 13.7185 89.6238C13.0695 89.6238 10.2715 87.2663 8.32444 85.0632C7.38697 83.9967 6.47835 82.5233 6.47835 82.0462C6.47835 81.9199 6.42066 81.7655 6.33412 81.6813C5.80049 81.1621 5.62741 76.6997 6.08894 75.0299C6.4495 73.6968 6.62258 73.346 6.92545 73.346C7.11295 73.346 7.2139 73.5284 7.34371 74.1598C7.64658 75.6052 8.41098 76.7699 10.1561 78.4959C11.0215 79.3659 11.8003 80.0816 11.858 80.0816C11.9878 80.0816 12.5214 80.5166 13.0839 81.106C13.3002 81.3165 13.531 81.4849 13.6175 81.4849C13.7762 81.4849 14.007 81.6392 14.8435 82.2987C15.0598 82.4671 15.305 82.6075 15.3915 82.6075C15.4781 82.6075 15.5646 82.6496 15.5934 82.7197C15.6656 82.8741 16.9347 83.688 17.2809 83.8002C17.4395 83.8423 17.5838 83.9406 17.5838 83.9967C17.5838 84.0669 17.7857 84.1931 18.0164 84.2914C18.2616 84.3896 18.4491 84.5159 18.4491 84.5861C18.4491 84.6562 18.5933 84.7685 18.7808 84.8386C18.9539 84.9088 19.3145 85.1333 19.5885 85.3298C19.8625 85.5262 20.1366 85.6946 20.1943 85.6946C20.252 85.6946 21.2904 86.3401 22.5163 87.126C24.8816 88.6695 24.9682 88.7257 25.3864 89.1046C25.5306 89.2308 25.7181 89.3431 25.7758 89.3431C25.8912 89.3431 26.1652 89.5255 26.9585 90.157C27.1748 90.3254 27.4056 90.4657 27.4488 90.4657C27.5498 90.4657 27.6652 90.5499 28.3286 91.0832C29.0642 91.7006 29.3671 91.9251 29.7132 92.1496C29.8863 92.2619 30.1314 92.4724 30.2613 92.6127C30.3766 92.739 30.5641 92.8513 30.6507 92.8513C30.7516 92.8513 30.8526 92.8934 30.8814 92.9635C30.9103 93.0196 31.2131 93.2863 31.5737 93.5529C31.9343 93.8195 32.2804 94.1142 32.3381 94.2124C32.3958 94.3106 32.5544 94.3948 32.6554 94.3948C32.7708 94.3948 32.8717 94.451 32.8717 94.5211C32.8717 94.5913 32.9871 94.6895 33.1314 94.7316C33.3621 94.8158 34.0544 95.335 34.6169 95.8683C34.7467 95.9805 34.8909 96.0788 34.9486 96.0788C35.0063 96.0788 35.2082 96.191 35.3957 96.3313C35.5688 96.4576 35.8717 96.6681 36.0447 96.7804C36.2322 96.8926 36.4918 97.0891 36.6216 97.2154C36.7659 97.3417 36.9389 97.468 36.9966 97.496C37.4004 97.6644 38.785 98.5485 38.785 98.6327C38.785 98.8291 37.1553 98.7309 36.4053 98.4924ZM15.2761 89.8483C15.2761 89.8202 14.8867 89.5396 14.4108 89.2309C13.9348 88.9221 13.5454 88.7116 13.5454 88.7537C13.5454 88.8099 13.7618 88.9783 14.0214 89.1467C14.2666 89.301 14.6416 89.5396 14.8435 89.6659C15.2473 89.9184 15.2761 89.9325 15.2761 89.8483Z" fill="#F1F1F1"/>
<path d="M146.883 94.1563C146.753 93.5529 146.58 93.0056 146.522 92.9214C146.464 92.8513 146.378 92.6127 146.334 92.4163C146.277 92.2198 145.916 91.5743 145.512 90.9709C145.123 90.3815 144.791 89.8062 144.791 89.6939C144.791 89.5817 144.734 89.4834 144.647 89.4834C144.575 89.4834 144.503 89.2589 144.503 88.9923C144.503 88.417 144.661 88.3608 144.936 88.852C145.036 89.0484 145.166 89.2028 145.224 89.2028C145.267 89.2028 145.801 88.8941 146.392 88.5292C146.984 88.1644 147.661 87.7294 147.921 87.589C148.743 87.0839 151.469 84.9649 152.493 84.0247C154.858 81.8357 156.603 79.5343 157.368 77.6259C157.642 76.9243 157.7 76.5313 157.685 75.3105C157.685 73.795 157.613 73.5424 156.791 71.9708C156.445 71.3253 154.902 69.6975 154.152 69.2063C153.805 68.9678 153.373 68.6591 153.2 68.5047C153.012 68.3503 152.089 67.789 151.123 67.2558C149.637 66.4279 149.32 66.3156 149.104 66.4559C148.858 66.5963 148.83 66.5682 148.83 66.2455C148.83 66.0209 149.06 65.614 149.479 65.1649C149.839 64.758 150.128 64.323 150.128 64.1967C150.128 64.0564 150.229 63.9441 150.344 63.9441C150.459 63.9441 150.56 63.8178 150.56 63.6635C150.56 63.5091 150.661 63.3828 150.777 63.3828C150.892 63.3828 150.993 63.2705 150.993 63.1162C150.993 62.9759 151.108 62.8215 151.267 62.7794C151.411 62.7513 151.786 62.3304 152.089 61.8673C152.493 61.2358 152.738 60.9973 152.969 60.9973C153.257 60.9973 153.272 61.0394 153.156 61.3621C153.07 61.5586 153.07 61.6849 153.128 61.6428C153.286 61.5445 155.031 62.3725 155.031 62.5268C155.031 62.597 155.176 62.6812 155.363 62.7373C155.983 62.8776 158.579 64.8983 160.022 66.3577C161.406 67.761 162.661 69.5151 162.949 70.4973C163.021 70.7078 163.18 71.1148 163.31 71.3954C163.425 71.6761 163.57 72.097 163.598 72.3075C163.642 72.5321 163.743 73.0513 163.829 73.4723C164.536 77.0646 163.021 81.4989 159.82 85.2596C157.238 88.2766 153.488 91.3778 149.522 93.7774C148.498 94.3808 147.676 94.9702 147.676 95.0684C147.676 95.1526 147.546 95.2368 147.402 95.2368C147.171 95.2368 147.084 95.0403 146.883 94.1563Z" fill="#F1F1F1"/>
<path d="M1.2862 71.227C1.2862 70.1606 2.03618 68.3644 3.2621 66.5401C4.41591 64.8001 7.09852 62.2883 9.31961 60.8429C10.5455 60.0571 10.5888 60.0431 10.6321 60.3658C10.6898 60.8429 10.6176 60.9411 9.20422 62.2041C6.47835 64.6177 3.91112 67.761 2.58424 70.2728C2.03618 71.3112 1.77657 71.662 1.57466 71.662C1.3439 71.662 1.2862 71.5638 1.2862 71.227Z" fill="#F1F1F1"/>
<path d="M142.469 64.3651C142.743 64.1406 142.945 63.9301 142.902 63.902C142.873 63.8739 142.556 63.7757 142.195 63.6775C141.835 63.5933 141.186 63.4249 140.753 63.2986C138.633 62.7373 132.994 61.5726 132.316 61.5586C132.056 61.5586 132.027 61.6287 132.071 62.0497C132.128 62.4707 132.085 62.5409 131.825 62.5409C131.566 62.5409 131.522 62.4567 131.522 61.9515C131.522 61.1516 131.032 58.5275 130.657 57.2085C130.268 55.8894 130.123 54.6826 130.354 54.6826C130.441 54.6826 130.513 54.7808 130.513 54.8931C130.513 55.1316 130.498 55.1316 133.47 55.6087C134.724 55.8052 136.195 56.0718 136.715 56.1841C137.695 56.3946 139.772 56.8436 140.897 57.0681C141.719 57.2506 142.613 57.5032 145.21 58.289C147.185 58.8924 147.301 58.9064 147.488 58.6679C147.661 58.4433 147.676 58.4574 147.676 58.8503C147.676 59.3835 147.416 59.8747 146.825 60.5061C146.58 60.7727 146.378 61.0534 146.378 61.1236C146.378 61.1937 145.859 61.7831 145.238 62.4146C144.604 63.0601 143.926 63.7617 143.724 63.9862C143.522 64.1967 143.291 64.3651 143.205 64.3651C143.133 64.3651 143.061 64.4633 143.061 64.5756C143.061 64.7299 142.902 64.7861 142.527 64.7861L141.979 64.772L142.469 64.3651Z" fill="#F1F1F1"/>
<path d="M15.2761 63.7757C15.2761 63.481 15.3627 63.3407 15.5646 63.2846C15.7232 63.2425 15.8531 63.1583 15.8531 63.1022C15.8531 63.0039 18.2761 61.306 21.1894 59.3835C22.098 58.7801 23.3528 57.9382 23.973 57.5312C25.3143 56.6472 25.92 56.5489 26.2518 57.1804C26.3671 57.3909 26.4825 57.5873 26.5258 57.6294C26.8864 57.9382 27.2469 58.6679 27.2469 59.0608C27.2325 59.4958 27.2325 59.5098 27.0306 59.2572C26.8142 58.9906 26.7998 58.9906 25.9922 59.3414C25.5306 59.5379 24.6653 59.9027 24.0739 60.1553C22.1269 60.9552 20.05 61.8954 17.6415 63.0601L15.2761 64.2107V63.7757Z" fill="#F1F1F1"/>
<path d="M125.537 60.8008C125.436 60.6605 124.989 60.5623 124.095 60.5061C123.388 60.464 122.566 60.3939 122.292 60.3658C122.018 60.3237 120.879 60.2395 119.768 60.1553C118.657 60.0711 117.432 59.9869 117.028 59.9448C116.638 59.9168 115.86 59.8466 115.297 59.8045C110.134 59.3835 108.965 59.2151 107.278 58.6819C106.038 58.2749 104.812 57.3348 104.192 56.3244C103.658 55.4123 103.47 53.9669 103.759 52.7742C103.961 51.8901 104.062 51.6095 104.595 50.4728C104.927 49.7431 106.24 47.54 107.22 46.0947C109.081 43.3162 109.557 42.5584 110.523 40.7482C111.432 39.0643 111.475 38.938 111.201 38.8679C111.028 38.8258 110.898 38.6995 110.898 38.6012C110.898 38.4329 111.605 38.4048 115.009 38.4048H119.119V38.8959C119.119 39.4572 118.96 39.5274 118.643 39.0784C118.427 38.7556 118.427 38.7556 118.138 39.3871C117.23 41.3095 116.884 42.0112 115.96 43.7091C114.936 45.5614 114.417 46.4174 112.384 49.4484C111.042 51.4691 110.163 52.9987 110.249 53.139C110.364 53.3074 112.614 53.5319 121.355 54.1915C121.917 54.2336 122.638 54.3037 122.984 54.3458C123.547 54.4019 123.604 54.3879 123.532 54.1494C123.46 53.9248 123.503 53.8827 123.763 53.9389C123.994 53.981 124.181 54.2195 124.412 54.7247C125.22 56.563 125.898 59.145 125.898 60.3658C125.898 61.0113 125.782 61.1516 125.537 60.8008Z" fill="#F1F1F1"/>
<path d="M32.4391 57.2786C32.4391 57.1664 32.2948 56.9278 32.1218 56.7314C31.6458 56.2402 31.4295 55.9736 31.4295 55.8754C31.4295 55.8333 31.3718 55.721 31.2853 55.6228C30.6074 54.8229 30.4199 54.5563 30.4199 54.416C30.4199 54.3318 30.3622 54.2616 30.2757 54.2616C30.2036 54.2616 30.1314 54.009 30.1314 53.7003C30.1314 53.3916 30.1891 53.139 30.2612 53.139C30.5497 53.139 33.1602 50.557 34.4294 49.0134C35.612 47.5681 37.9485 44.0599 38.785 42.4742C39.1023 41.8708 41.1071 39.2327 41.7993 38.503C42.2897 37.9838 43.8906 36.6928 44.482 36.342C44.6406 36.2438 45.6502 35.7246 46.7175 35.1913C48.5924 34.2652 49.6164 33.9003 55.7316 32.0059C58.7315 31.0798 62.092 29.7467 63.3467 28.9889C65.0053 27.9786 65.6976 27.5295 66.1015 27.2068C66.462 26.9261 66.6351 26.884 67.1111 26.9542C67.4428 27.0103 68.0918 27.0945 68.5677 27.1506C69.2312 27.2208 69.4475 27.305 69.4764 27.5015C69.5052 27.6278 69.4331 27.74 69.3321 27.74C69.2167 27.74 68.51 28.2171 67.7601 28.7925C64.5871 31.2762 61.5583 33.0724 56.121 35.7386C49.9481 38.7696 49.4289 39.0503 47.9434 40.1308C45.1598 42.1515 44.5252 42.9654 41.6551 48.0873C39.5206 51.9041 37.5014 53.9248 33.9534 55.7912C33.3188 56.128 32.7708 56.4226 32.7419 56.4507C32.7131 56.4788 32.8285 56.7173 32.9871 56.998L33.29 57.4891H32.8717C32.5833 57.4891 32.4391 57.419 32.4391 57.2786Z" fill="#F1F1F1"/>
<path d="M113.206 33.0864C113.206 32.8479 113.292 32.7918 113.696 32.7918C114.186 32.7918 114.201 32.7777 114.489 31.8516C115.903 27.3331 115.932 22.3094 114.561 18.9416C113.783 17.0191 111.879 14.7458 110.35 13.8898C109.975 13.6934 109.571 13.4408 109.456 13.3426C109.11 13.0619 106.759 12.1638 105.778 11.9534C103.889 11.5324 101.668 11.4061 99.8504 11.5885C95.2063 12.0796 90.9516 13.3285 87.2018 15.2931C84.3605 16.7946 83.2067 17.4261 82.125 18.1137C80.7116 19.0117 80.1779 19.3485 79.8606 19.531C79.327 19.8256 76.7309 21.7762 76.7165 21.8884C76.7165 21.9446 76.8896 21.9867 77.0915 21.9867C77.4232 21.9867 77.4376 22.0007 77.2357 22.2112C77.0482 22.3936 76.803 22.4217 75.9521 22.3515C75.3896 22.3094 74.5387 22.2673 74.0916 22.2813H73.2551V21.72C73.2551 21.1868 73.3416 21.0886 75.9665 18.6469C77.4521 17.2577 78.8655 15.9667 79.0962 15.7983C79.3414 15.6159 79.9472 15.1107 80.4664 14.6757C81.7067 13.6373 86.2499 10.3396 86.4518 10.3396C86.4806 10.3396 86.8989 10.1011 87.3604 9.80637C88.3411 9.20296 90.5622 8.10842 91.716 7.67341C92.1487 7.50502 92.7112 7.2805 92.942 7.18227C93.1871 7.08404 93.6342 6.92968 93.9515 6.85952C94.2688 6.77533 94.99 6.57887 95.5525 6.42451C97.7591 5.83514 99.3889 5.66675 102.158 5.75094C103.6 5.79304 104.927 5.87724 105.129 5.96143C105.331 6.03159 105.778 6.17192 106.139 6.27015C108.389 6.85952 110.581 8.01019 112.254 9.52571C113.177 10.3536 114.518 11.9954 115.138 13.076C115.369 13.4689 115.73 14.1003 115.946 14.4792C116.783 15.9386 117.691 18.5627 118.167 20.864C118.73 23.6144 119.234 29.9572 119.061 31.9919L118.946 33.2127H116.97C115.874 33.2127 114.576 33.2548 114.086 33.2969C113.249 33.3951 113.206 33.3811 113.206 33.0864Z" fill="#F1F1F1"/>
<path d="M64.6015 130.866C63.2891 130.768 60.7651 130.15 59.7267 129.687C59.3084 129.491 58.9334 129.336 58.8902 129.336C58.6738 129.336 57.1594 128.578 56.5537 128.157C56.1643 127.905 55.6306 127.582 55.371 127.442C55.1114 127.301 54.6932 127.007 54.448 126.754C54.2028 126.516 53.6836 126.067 53.3086 125.758C52.5009 125.112 50.525 122.839 49.6741 121.576C46.9627 117.563 45.4627 114.083 44.0349 108.498C43.6166 106.856 43.5012 106.533 43.2272 106.295C43.0685 106.154 42.982 105.986 43.0397 105.902C43.2128 105.635 43.9339 105.733 46.5732 106.393C47.0059 106.505 47.9145 106.66 48.5924 106.744C50.1068 106.926 50.7558 107.123 50.7558 107.389C50.7558 107.502 50.6548 107.586 50.5395 107.586C50.1789 107.586 50.352 108.4 51.3615 111.36C52.0538 113.395 53.3374 116.033 54.448 117.633C54.8807 118.25 55.2268 118.798 55.2268 118.84C55.2268 119.205 58.4431 122.25 59.3661 122.755C59.8276 123.008 60.2892 123.302 60.3901 123.4C60.4911 123.499 60.6497 123.583 60.7218 123.583C60.8084 123.583 61.2266 123.737 61.6449 123.934C64.5006 125.197 68.5389 125.225 71.7407 123.976C75.7502 122.418 77.8271 120.959 82.0529 116.735L85.0239 113.788L87.4037 109.719L89.7978 105.649L89.4949 105.355L89.2065 105.06H89.7113C90.4324 105.06 95.3217 108.203 95.3217 108.68C95.3217 108.849 95.2352 108.989 95.1486 108.989C95.0477 108.989 94.7592 109.354 94.514 109.803C94.2688 110.238 93.1439 112.146 92.0333 114.041L89.9997 117.479L86.8123 120.678C82.0673 125.407 79.4135 127.358 75.4185 129.028C75.0579 129.182 74.5098 129.406 74.1926 129.547C73.6301 129.785 71.9859 130.262 70.659 130.571C69.736 130.796 67.1976 131.048 66.3755 130.992C66.0005 130.978 65.1928 130.922 64.6015 130.866Z" fill="#F1F1F1"/>
<path d="M53.3519 108.007C53.3519 107.937 53.2509 107.866 53.1355 107.866C52.8903 107.866 52.8615 107.614 53.049 107.333C53.1355 107.179 53.4096 107.165 54.1595 107.235C55.8181 107.389 55.9479 107.431 55.9479 107.81C55.9479 108.147 55.9335 108.147 54.6499 108.147C53.8855 108.147 53.3519 108.091 53.3519 108.007Z" fill="#F1F1F1"/>
<path d="M57.9671 107.6C57.9671 107.403 58.0536 107.305 58.2556 107.305C58.4142 107.305 58.544 107.235 58.544 107.151C58.544 107.038 58.8036 107.01 59.3373 107.052C59.9286 107.109 60.1305 107.067 60.1305 106.926C60.1305 106.8 60.3324 106.744 60.7795 106.744C61.3276 106.744 61.4285 106.786 61.4285 107.01C61.4285 107.165 61.3132 107.319 61.1834 107.361C60.8372 107.445 60.0295 107.6 59.6546 107.656C59.4815 107.67 59.0344 107.74 58.6594 107.796C58.0104 107.894 57.9671 107.88 57.9671 107.6Z" fill="#F1F1F1"/>
<path d="M97.9178 104.148C97.8456 103.951 97.6726 103.797 97.5139 103.797C97.3697 103.797 96.2592 103.137 95.0332 102.323C93.8073 101.51 92.6824 100.808 92.5526 100.766C92.3939 100.71 92.2929 100.541 92.2929 100.345C92.2929 99.966 92.3362 99.952 92.7256 100.148C92.942 100.261 93.0862 100.12 93.7496 99.1381C94.1823 98.5066 94.514 97.9593 94.4996 97.9172C94.4852 97.8751 94.5429 97.7489 94.6294 97.6647C94.7159 97.5664 94.7304 97.4822 94.6583 97.4682C94.5861 97.4682 94.6294 97.4261 94.7592 97.37C94.8746 97.3138 95.4948 96.7104 96.1438 96.0088C96.7928 95.3212 97.7014 94.4372 98.1774 94.0443C98.6677 93.6654 99.0572 93.2584 99.0572 93.1742C99.0716 93.076 99.2014 92.9918 99.3744 92.9918C99.5331 92.9918 99.8648 92.8515 100.11 92.6971C101.307 91.8552 104.192 90.6905 108.288 89.3574C110.667 88.5715 112.961 87.7857 113.379 87.6033C113.797 87.4209 114.475 87.1262 114.864 86.9578C117.287 85.9053 119.927 83.9127 124.095 79.9415C125.768 78.3558 127.571 76.6719 128.104 76.1808C128.638 75.7037 129.042 75.2406 128.999 75.1704C128.955 75.0862 129.056 75.0301 129.244 75.0301C129.518 75.0301 129.691 75.2265 130.123 76.0545C130.412 76.6017 130.946 77.5139 131.306 78.0471C131.652 78.5944 132.085 79.296 132.272 79.6328C132.446 79.9555 132.647 80.2221 132.705 80.2221C132.763 80.2221 132.821 80.4467 132.821 80.7133C132.821 81.2606 132.72 81.3167 132.46 80.9659C132.229 80.6712 132.272 80.6431 127.773 84.895C125.191 87.3367 122.479 89.624 121.412 90.2554C118.196 92.1498 117.879 92.3182 115.773 93.1883C114.388 93.7636 109.903 95.237 109.557 95.237C109.47 95.237 109.124 95.3773 108.764 95.5317C108.417 95.7001 107.956 95.8264 107.754 95.8264C107.538 95.8264 107.336 95.8685 107.292 95.9246C107.249 95.9667 106.571 96.2895 105.778 96.6403C104.985 96.9771 104.091 97.398 103.802 97.5805C103.499 97.7629 103.196 97.9032 103.124 97.9032C103.052 97.9032 102.346 98.5206 101.567 99.2784C100.572 100.233 99.836 101.117 99.1437 102.169C98.1053 103.755 98.1197 103.699 98.8264 104.092C99.2302 104.316 99.1148 104.499 98.5668 104.499C98.1485 104.499 98.0331 104.428 97.9178 104.148Z" fill="#F1F1F1"/>
<path d="M48.2895 101.692C48.1597 101.622 47.0925 101.341 45.9098 101.061C44.7271 100.794 43.3426 100.443 42.8234 100.289C42.3041 100.134 41.7128 100.008 41.4965 100.008C41.1648 100.008 41.0926 99.952 41.0926 99.6573C41.0926 99.3486 41.1215 99.3205 41.4676 99.4468C41.6695 99.531 41.857 99.5871 41.9003 99.5871C42.0734 99.5871 41.5686 97.5524 40.8475 95.3072C40.0254 92.7673 38.4966 89.7503 36.6793 87.028C36.3764 86.5649 36.0447 86.0597 35.9582 85.9053C35.8717 85.751 35.4534 85.0634 35.0351 84.3618C33.2467 81.3728 31.992 77.8927 31.6602 74.9599C31.6026 74.4968 31.5304 73.9636 31.5016 73.7672C31.4728 73.5707 31.4151 72.4481 31.3574 71.2694C31.1699 66.821 30.8382 65.4178 29.3526 62.7656C28.6892 61.5869 26.295 58.1629 26.0643 58.0787C26.0066 58.0506 25.9489 57.9524 25.9489 57.8682C25.9489 57.77 25.8479 57.5735 25.7326 57.4332C25.5595 57.2087 25.4874 57.1947 25.2999 57.349C25.1124 57.5034 25.0835 57.4613 25.0835 57.0263C25.0835 56.5913 25.1701 56.479 25.7614 56.1001C26.1508 55.8756 27.045 55.2582 27.7517 54.753C28.4728 54.2478 29.1507 53.7988 29.2661 53.7426C29.3815 53.7005 29.5401 53.5742 29.5978 53.462C29.6555 53.3638 29.843 53.2796 29.9872 53.2796C30.1459 53.2796 30.2757 53.2234 30.2757 53.1392C30.2757 53.0691 30.5209 52.9989 30.8237 52.9989L31.3574 53.0129L30.9247 53.3778C30.6507 53.6163 30.5641 53.7707 30.6795 53.8128C30.766 53.8409 30.8526 53.9251 30.8526 54.0093C30.8526 54.1356 31.0545 54.4022 31.7179 55.202C31.8045 55.3003 31.8622 55.4125 31.8622 55.4546C31.8622 55.4967 31.9199 55.609 32.0064 55.7072C32.6554 56.479 32.8717 56.7737 32.8717 56.8719C32.8717 56.928 32.9871 57.1105 33.1314 57.2648C33.4775 57.6437 34.6746 59.5521 35.2659 60.6467C36.0015 62.0219 36.7226 64.0566 37.0399 65.6984C37.4005 67.5227 37.4293 67.8314 37.5591 70.68C37.6168 71.8727 37.6745 73.0515 37.7033 73.276C37.9918 75.6475 38.4966 77.556 39.2754 79.1557C39.9244 80.4888 41.2801 82.8322 41.958 83.8005C42.1743 84.1092 42.4916 84.5863 42.6503 84.8529C42.7945 85.1195 43.2993 85.9615 43.7608 86.7333C44.2079 87.491 44.6839 88.347 44.7993 88.6277C44.9291 88.9083 45.2319 89.5819 45.4915 90.1151C46.4146 92.0937 47.4098 95.209 48.0732 98.254C48.6934 101.089 48.7366 101.243 49.1116 101.327C49.6453 101.467 49.5587 101.832 48.9962 101.832C48.7366 101.832 48.4193 101.762 48.2895 101.692Z" fill="#F1F1F1"/>
<path d="M145.512 90.8168C145.512 90.2133 145.685 90.1993 146.075 90.7326C146.464 91.2658 146.464 91.3079 145.945 91.3079C145.541 91.3079 145.512 91.2658 145.512 90.8168Z" fill="#F1F1F1"/>
<path d="M143.378 87.8278C143.162 87.6875 142.96 86.2562 143.147 86.2562C143.291 86.2562 144.214 87.6454 144.214 87.8418C144.214 87.9822 143.609 87.9681 143.378 87.8278Z" fill="#F1F1F1"/>
<path d="M9.46384 86.5789C9.31961 86.4526 9.33403 85.5545 9.47826 85.5545C9.53595 85.5545 9.85325 85.8071 10.1561 86.1158L10.7186 86.6771H10.1417C9.80998 86.6771 9.50711 86.635 9.46384 86.5789Z" fill="#F1F1F1"/>
<path d="M136.441 76.8263C134.508 73.8513 133.542 72.0131 133.542 71.3255C133.542 70.7642 133.628 70.694 133.902 71.0589C134.061 71.2694 134.176 71.2132 135.07 70.5397C135.618 70.1187 136.094 69.7398 136.138 69.6977C136.181 69.6556 136.729 69.2066 137.364 68.7154C138.878 67.5227 142.57 64.3232 143.162 63.6918C143.421 63.4251 143.594 63.1445 143.551 63.0884C143.508 63.0182 143.565 62.9621 143.695 62.9621C143.984 62.9621 145.974 60.8431 145.887 60.6186C145.844 60.5204 145.873 60.4362 145.96 60.4362C146.147 60.4362 146.883 59.5942 146.883 59.3978C146.883 59.3136 146.984 59.1592 147.113 59.075C147.431 58.8505 148.844 56.5351 149.32 55.4686C150.2 53.5462 150.459 50.3468 149.854 48.9996C149.782 48.8453 149.608 48.4383 149.479 48.0875C148.988 46.8105 147.777 45.3932 146.089 44.1584C145.21 43.4988 142.844 42.25 141.546 41.7307C137.984 40.3275 132.849 39.3452 127.484 39.0365C126.648 38.9944 125.782 38.9242 125.566 38.8821C125.234 38.812 125.148 38.8541 125.076 39.0926C124.989 39.4294 124.802 39.4715 124.542 39.2049C124.311 38.9804 124.167 35.9212 124.282 33.5918C124.34 32.1184 124.383 31.95 124.614 31.95C124.816 31.95 124.888 32.0483 124.888 32.371C124.888 32.6096 124.931 32.792 125.003 32.792C130.08 33.0586 134.58 33.5918 137.868 34.3215C141.359 35.0933 143.234 35.7388 146.161 37.1702C147.589 37.8718 148.902 38.6295 149.493 39.1066C149.738 39.3031 150.084 39.5557 150.272 39.6679C150.589 39.8644 152.767 41.9553 153.445 42.713C153.589 42.8814 153.82 43.2322 153.964 43.4848C154.094 43.7374 154.353 44.1584 154.555 44.411C154.743 44.6636 155.06 45.295 155.248 45.8142C155.421 46.3334 155.68 46.9789 155.796 47.2456C155.911 47.5122 156.055 48.0875 156.099 48.5085C156.156 48.9295 156.257 49.603 156.344 50.01C156.56 51.1185 156.373 53.4199 155.897 55.174C155.392 57.1105 154.757 58.5699 153.503 60.6747C152.392 62.5832 151.902 63.2427 151.628 63.2427C151.512 63.2427 151.469 63.3269 151.512 63.4532C151.57 63.5795 151.483 63.7058 151.281 63.7759C151.108 63.8321 150.979 63.9303 150.979 63.9864C151.022 64.2811 150.979 64.3653 150.777 64.3653C150.661 64.3653 150.604 64.4495 150.647 64.5477C150.748 64.8144 147.185 68.4348 144.791 70.4976C142.859 72.1534 138.734 75.4791 137.609 76.293C137.292 76.5175 137.147 76.728 137.191 76.8824C137.292 77.2613 136.686 77.2051 136.441 76.8263Z" fill="#F1F1F1"/>
<path d="M17.1511 62.4148C17.1511 62.078 17.2088 61.9798 17.4251 61.9798C17.6126 61.9798 17.728 61.8675 17.7568 61.6711C17.7857 61.4044 17.9011 61.3343 18.4347 61.3062C19.2568 61.2501 19.1847 61.4185 18.0453 62.2183L17.1511 62.8358V62.4148Z" fill="#F1F1F1"/>
<path d="M21.7808 52.3254C21.925 52.1008 21.824 51.8763 21.1606 50.88C20.7279 50.2345 19.9202 48.7891 19.3578 47.6665C18.377 45.702 17.0069 42.5166 17.0069 42.1517C17.0069 42.0675 16.8482 41.5062 16.6463 40.9028C16.4588 40.3135 16.2569 39.5276 16.2136 39.1487C16.1559 38.7839 16.0838 38.3208 16.055 38.1244C15.8242 37.0298 15.8242 34.3215 16.0694 32.8621C17.079 26.4773 20.5981 22.478 27.9825 19.3488C28.6892 19.0541 32.3814 18.1279 33.3765 18.0016C39.7369 17.1877 45.1021 17.4263 52.9913 18.8436C55.8758 19.3628 56.7268 19.5312 61.342 20.4433C64.3852 21.0467 65.0198 21.1028 65.2938 20.8362C65.4236 20.7099 65.4669 20.766 65.4669 21.1169C65.4669 21.3975 65.3948 21.5659 65.265 21.5659C65.164 21.5659 64.9188 21.7203 64.7169 21.9027C64.515 22.0711 64.2409 22.2675 64.1111 22.3096C63.9813 22.3658 63.8804 22.464 63.8804 22.5482C63.8804 22.6184 63.7938 22.6885 63.6929 22.6885C63.5919 22.6885 63.4044 22.8008 63.2746 22.9411C62.9141 23.3059 62.6112 23.5305 62.467 23.5305C62.4093 23.5305 62.2218 23.6427 62.0631 23.7831C61.9189 23.9234 61.5728 24.1198 61.3276 24.2181C61.068 24.3163 60.8516 24.4426 60.8516 24.4987C60.8516 24.5548 60.5343 24.7092 60.1305 24.8636C59.7411 25.0179 59.4094 25.1723 59.4094 25.2284C59.4094 25.2845 58.9623 25.467 58.3998 25.6494C57.8517 25.8178 57.3902 26.0142 57.3902 26.0844C57.3902 26.1405 57.1594 26.1967 56.8854 26.1967C56.5393 26.1967 56.3806 26.2668 56.3806 26.4072C56.3806 26.5615 56.222 26.6176 55.8614 26.6176C55.1691 26.6176 55.2845 26.337 56.0633 26.0563C56.395 25.9441 56.6691 25.8178 56.6691 25.7757C56.6691 25.7055 53.2365 25.032 51.2606 24.7092C51.0298 24.6671 50.3087 24.5408 49.6741 24.4286C48.6645 24.2602 47.2799 24.0777 44.4098 23.7269C42.8522 23.5445 37.0543 23.6287 35.2515 23.8673C32.4968 24.2181 29.7565 25.0179 28.0402 25.9581C24.4345 27.9367 22.6461 30.3924 22.1846 34.0409C21.9827 35.5845 22.1557 37.7174 22.5884 39.1347C22.7038 39.5417 22.8192 39.9486 22.8336 40.0188C22.8913 40.2854 23.0788 40.8607 23.2086 41.1414C23.2807 41.2957 23.5403 41.9132 23.7855 42.5025C24.3047 43.8356 25.6604 46.4878 26.3239 47.4981C26.5979 47.9051 26.8142 48.298 26.8142 48.3822C26.8142 48.4804 26.9729 48.5085 27.1748 48.4804C27.4633 48.4243 27.5354 48.4664 27.5354 48.6769C27.5354 48.9575 27.0162 49.4767 26.7277 49.4908C26.6412 49.4908 26.4393 49.6451 26.295 49.8416C26.1508 50.038 25.9489 50.1924 25.8479 50.1924C25.747 50.1924 25.6604 50.2626 25.6604 50.3327C25.6604 50.4169 25.5595 50.4731 25.4441 50.4731C25.3287 50.4731 25.2278 50.5292 25.2278 50.5993C25.2278 50.6695 25.0691 50.7677 24.8816 50.8098C24.6941 50.8519 24.348 51.0624 24.1172 51.2729C23.872 51.4974 23.5115 51.75 23.3096 51.8623C23.0932 51.9745 22.7903 52.171 22.6461 52.3254C22.4875 52.4657 22.1846 52.5779 21.9827 52.5779C21.6654 52.5779 21.6365 52.5499 21.7808 52.3254Z" fill="#F1F1F1"/>
<path d="M118.686 39.0365C118.686 38.8681 117.98 38.84 113.927 38.826C105.908 38.812 103.932 38.4892 99.36 36.3984C98.6101 36.0616 96.7207 34.967 95.1775 33.9567C93.6342 32.9463 91.9756 31.922 91.4997 31.6553C91.0238 31.4028 90.4324 31.0519 90.1872 30.8976C89.9276 30.7292 89.1921 30.3924 88.5286 30.1258C87.8652 29.8732 87.2594 29.6206 87.1729 29.5645C86.87 29.34 83.6394 28.5962 82.0529 28.3857C80.4664 28.1753 79.0674 28.1051 73.9041 27.9507C70.9907 27.8665 67.6447 27.614 67.2553 27.4596C67.0966 27.4035 66.8514 27.4035 66.7216 27.4877C66.5053 27.5999 66.4765 27.5438 66.4765 27.1228C66.4765 26.7439 66.5774 26.5755 66.8947 26.351C67.1255 26.1826 67.3562 26.0563 67.4139 26.0563C67.4716 26.0563 67.6447 25.902 67.8033 25.7055C67.962 25.5091 68.1783 25.3547 68.2937 25.3547C68.4091 25.3547 68.4956 25.2986 68.4956 25.2284C68.4956 25.1723 68.9716 24.7232 69.5485 24.2461C70.111 23.755 71.0917 22.899 71.6974 22.3237C72.7215 21.3694 72.8512 21.2853 73.4137 21.2853C73.9041 21.2853 73.9906 21.3274 73.8608 21.4536C73.5724 21.7343 73.6589 21.7764 74.5098 21.8045C74.9714 21.8185 75.7358 21.8606 76.2117 21.9027C76.6877 21.9308 77.9857 22.0009 79.0962 22.057C81.101 22.1412 84.7643 22.5763 85.5864 22.8288C85.8316 22.899 86.6681 23.1235 87.4614 23.32C88.9469 23.6989 90.2738 24.2181 92.5093 25.2986C94.4852 26.2528 97.3409 27.9648 97.3409 28.1753C97.3409 28.2454 97.4274 28.3015 97.5428 28.3015C97.6582 28.3015 97.8456 28.3857 97.9466 28.484C98.1341 28.6524 98.7543 29.0593 100.009 29.8171C100.413 30.0556 100.802 30.3222 100.889 30.3924C100.975 30.4626 101.365 30.659 101.754 30.8274C102.144 30.9818 102.72 31.2484 103.038 31.4028C104.278 32.0202 106.528 32.5394 108.807 32.7078C109.86 32.792 112.268 32.82 116.206 32.806L118.542 32.792V32.2307C118.542 31.7536 118.585 31.6694 118.845 31.6694C119.148 31.6694 119.162 31.7115 119.076 32.8341C119.018 33.4655 118.975 35.1635 118.975 36.6229C118.975 38.2787 118.917 39.247 118.831 39.247C118.758 39.247 118.686 39.1487 118.686 39.0365Z" fill="#F1F1F1"/>
<path d="M47.727 34.8267C47.727 34.3356 47.727 34.3356 48.3761 34.3356C48.8087 34.3356 49.0251 34.3917 49.0251 34.518C49.0251 34.6162 48.7366 34.8407 48.3761 35.0091L47.727 35.3178V34.8267Z" fill="#F1F1F1"/>
<path d="M126.907 121.66C125.09 121.478 122.119 120.931 119.768 120.341C116.581 119.555 116.552 119.541 114.936 118.952C114.259 118.714 113.292 118.363 112.773 118.18C112.254 117.998 111.489 117.717 111.057 117.549C110.292 117.254 104.451 114.405 103.615 113.914C103.384 113.774 102.446 113.255 101.552 112.764C100.658 112.273 99.5908 111.669 99.1725 111.417C98.7687 111.164 98.1918 110.841 97.9033 110.687C97.6293 110.532 96.8938 110.097 96.288 109.705C95.6823 109.312 95.1198 108.989 95.0477 108.989C94.9755 108.989 94.889 108.933 94.8602 108.863C94.8025 108.722 90.4757 105.916 88.8315 104.962C86.971 103.867 83.9422 102.436 83.1346 102.239C82.7452 102.155 82.2981 102.015 82.1538 101.945C81.6779 101.706 79.5866 101.79 78.303 102.085C77.0338 102.38 73.3849 103.558 72.1734 104.063C71.3513 104.4 68.4668 105.453 67.3418 105.804C64.8755 106.603 60.9959 107.501 60.9959 107.291C60.9959 107.066 60.592 107.151 60.5055 107.389C60.4334 107.586 60.2747 107.614 59.6978 107.544C59.3084 107.501 58.9767 107.515 58.9478 107.6C58.919 107.684 56.0777 108.133 55.3999 108.147C55.371 108.147 55.3855 108.091 55.4287 108.021C55.5441 107.852 54.7364 107.684 54.3759 107.796C54.2172 107.838 53.9576 107.81 53.7845 107.726C53.597 107.628 53.4961 107.628 53.4961 107.726C53.4961 107.936 52.1404 107.894 50.9 107.656C50.3087 107.53 49.0683 107.319 48.1597 107.179C47.2511 107.038 46.2415 106.856 45.9242 106.772C44.8137 106.477 44.0493 106.323 43.5445 106.267C43.256 106.224 42.2176 105.958 41.2369 105.677C40.2417 105.383 39.1889 105.144 38.9004 105.158C38.5975 105.158 38.3812 105.102 38.3956 105.032C38.41 104.948 38.2514 104.877 38.0495 104.849C37.8331 104.821 37.4726 104.709 37.2562 104.597C37.0255 104.484 36.2611 104.218 35.5399 104.021C32.2516 103.067 23.4394 100.162 20.9731 99.2082C18.0597 98.0856 12.9685 95.672 11.3532 94.6616C10.8051 94.3249 10.0984 93.8898 9.78113 93.6934C8.95904 93.2163 7.45909 92.0235 5.97356 90.6764C5.07936 89.8625 3.10346 87.4349 2.33906 86.2421C1.48812 84.8809 0.464116 82.4533 0.334312 81.4991C0.291045 81.1482 0.20451 80.6571 0.132397 80.4186C0.0747061 80.18 0.0170165 79.2538 0.00259388 78.3698C-0.0839418 73.3742 1.99292 68.7996 6.5072 63.9864C7.24275 63.2146 8.33887 62.1341 8.9302 61.6149C9.52152 61.0957 10.0984 60.5484 10.1994 60.4081C10.3003 60.2677 10.8196 59.8608 11.3532 59.4959C11.8868 59.1451 12.4782 58.7101 12.6801 58.5277C13.2426 58.0506 15.3483 56.6052 18.5934 54.4723C20.2231 53.4058 21.7519 52.3393 21.9971 52.1008C22.2567 51.8622 22.6317 51.5675 22.8624 51.4553C23.0788 51.343 23.4394 51.0764 23.6845 50.8519C23.9153 50.6414 24.2614 50.4309 24.4489 50.3888C24.6364 50.3467 24.7951 50.2485 24.7951 50.1783C24.7951 50.1081 24.896 50.052 25.0114 50.052C25.1268 50.052 25.2278 49.9959 25.2278 49.9117C25.2278 49.8415 25.3143 49.7714 25.4153 49.7714C25.5162 49.7714 25.7181 49.617 25.8624 49.4205C26.0066 49.2241 26.1797 49.0697 26.2518 49.0697C26.5114 49.0697 27.6508 48.1997 28.4152 47.4279C30.1459 45.6738 31.3285 44.0461 33.5929 40.2994C34.588 38.6435 36.1457 36.5246 37.2995 35.2336C40.458 31.7114 44.7416 29.4943 53.2076 26.9965C55.2845 26.379 56.5825 25.916 56.6402 25.7476C56.6691 25.6914 56.7556 25.6634 56.8277 25.7195C56.8998 25.7616 56.9575 25.7335 56.9575 25.6634C56.9575 25.6072 57.4046 25.3968 57.9671 25.2284C58.5296 25.0459 58.9767 24.8635 58.9767 24.8074C58.9767 24.7513 59.294 24.5969 59.6978 24.4425C60.1017 24.2882 60.4189 24.1338 60.4189 24.0777C60.4189 24.0216 60.6353 23.8953 60.8949 23.797C61.1401 23.6988 61.4862 23.5023 61.6305 23.362C61.7891 23.2217 61.9766 23.1094 62.0343 23.1094C62.1785 23.1094 62.4814 22.8849 62.8419 22.506C62.9718 22.3797 63.1592 22.2675 63.2458 22.2675C63.3467 22.2675 63.4477 22.1693 63.5054 22.057C63.5487 21.9447 63.6496 21.8465 63.7362 21.8465C63.9236 21.8465 64.5438 21.2431 64.4861 21.1028C64.4717 21.0326 64.5727 21.0186 64.7169 21.0607C65.0198 21.1589 66.9524 19.5031 71.4234 15.2933C73.1109 13.7076 75.231 11.7992 76.1396 11.0554C77.7838 9.70831 82.2115 6.41065 82.6298 6.22823C82.7452 6.1721 83.3365 5.82128 83.9278 5.42837C85.0239 4.72674 88.3988 3.04283 89.8411 2.48152C90.2738 2.31313 90.9228 2.04651 91.2834 1.90619C92.2497 1.52731 94.7592 0.853744 96.4755 0.516961C97.7735 0.264375 102.302 -0.100473 102.533 0.0258205C102.576 0.0398531 103.023 0.110015 103.543 0.152113C105.893 0.376635 108.259 0.951972 110.105 1.77989C110.667 2.01845 111.345 2.32717 111.619 2.43943C112.715 2.9025 115.066 4.55835 116.278 5.69499C117.547 6.90179 119.206 8.90845 119.869 10.0732C120.071 10.4099 120.359 10.9151 120.518 11.1817C121.859 13.4971 123.287 17.0895 123.518 18.7453C123.561 19.0119 123.691 19.5732 123.792 20.0082C124.369 22.2534 124.816 26.9544 124.816 30.5467C124.802 32.9042 124.773 36.8193 124.758 37.8296C124.744 38.2506 124.802 38.6295 124.874 38.6716C124.931 38.7137 125.032 39.3311 125.076 40.0187C125.162 41.2395 125.523 43.4848 125.667 43.7093C125.71 43.7794 125.768 43.9759 125.811 44.1724C125.898 44.6074 126.518 46.179 126.878 46.8947C130.398 53.7005 131.667 57.4612 132.027 62.12C132.085 62.7796 132.143 63.4672 132.171 63.6636C132.2 63.8601 132.258 64.267 132.301 64.5757C132.345 64.8845 132.417 65.4879 132.46 65.9088C132.647 67.5086 133.729 70.9185 134.58 72.5743C135.258 73.8934 136.022 75.1142 137.71 77.6541C139.44 80.2502 140.854 82.4252 142.556 85.1335C143.017 85.8632 143.508 86.635 143.666 86.8595C143.854 87.1261 143.883 87.2384 143.753 87.2384C143.637 87.2384 143.652 87.2945 143.811 87.3787C144.027 87.505 145.224 89.231 145.224 89.4134C145.224 89.4696 145.411 89.7783 145.657 90.101C145.887 90.4378 146.032 90.7465 145.988 90.8027C145.931 90.8448 145.974 90.8869 146.06 90.8869C146.219 90.8869 146.522 91.4341 146.969 92.5006C147.041 92.655 147.229 93.3145 147.387 93.974C147.791 95.5597 147.748 95.4054 148.181 96.9209C148.397 97.6506 148.584 98.3803 148.628 98.5346C148.657 98.689 148.815 99.4187 148.974 100.148C149.32 101.664 149.363 102.043 149.479 104.007C149.666 107.473 148.498 111.697 146.551 114.602C145.902 115.57 143.868 117.521 142.758 118.264C141.835 118.868 139.513 120.075 139.253 120.075C139.166 120.075 138.907 120.173 138.662 120.299C138.2 120.538 134.926 121.38 133.83 121.548C133.109 121.646 127.7 121.745 126.907 121.66ZM134.263 115.247C137.162 114.56 138.777 113.788 140.421 112.315C141.993 110.911 143.104 108.063 143.277 105.06C143.32 104.274 143.075 101.987 142.859 101.201C142.743 100.738 142.613 100.205 142.585 100.008C142.498 99.545 142.065 98.0435 141.907 97.6927C141.849 97.5383 141.618 96.7244 141.416 95.8684C141.085 94.5634 140.897 94.1144 140.147 92.9216C139.671 92.1498 138.763 90.7044 138.128 89.6941C137.493 88.6978 136.498 87.1121 135.907 86.1859C135.316 85.2598 134.71 84.3196 134.58 84.0951C133.931 83.0426 132.244 80.5869 132.244 80.7132C132.244 80.7974 132.085 80.5448 131.883 80.1519C131.681 79.773 131.234 79.0153 130.873 78.468C130.066 77.2472 128.667 74.567 128.148 73.276C127.931 72.7287 127.7 72.1674 127.628 72.013C127.513 71.7745 127.311 71.0588 126.979 69.838C126.951 69.7257 126.835 69.2626 126.705 68.8136C126.518 68.112 126.402 67.4524 126.114 65.2774C126.042 64.8143 125.782 62.527 125.696 61.6289C125.624 60.9132 125.249 58.9627 125.032 58.1628C124.484 56.1562 123.965 54.9494 121.6 50.1923C120.287 47.5682 119.451 45.0704 119.177 42.9656C119.133 42.6568 119.076 42.306 119.032 42.1938C118.989 42.0815 118.917 41.5483 118.888 41.001C118.845 40.4678 118.773 39.7942 118.715 39.5276C118.672 39.2609 118.629 36.7631 118.614 33.9847C118.614 29.5644 118.528 27.3052 118.326 25.495C117.98 22.4359 117.749 21.1308 117.302 19.4048C116.999 18.2542 116.004 15.7423 115.513 14.9004C115.297 14.5215 114.936 13.89 114.706 13.4971C112.787 10.1574 109.499 7.67358 105.706 6.6913C105.345 6.59307 104.898 6.46678 104.711 6.38258C104.509 6.31242 103.384 6.21419 102.172 6.17209C99.8504 6.0879 98.1341 6.27033 95.9851 6.84566C95.4226 7.00002 94.7015 7.19648 94.3842 7.28067C94.0669 7.35084 93.6198 7.50519 93.3746 7.60342C93.1439 7.70165 92.5814 7.92617 92.1487 8.09456C90.9949 8.52957 88.7738 9.62411 87.7931 10.2415C87.3316 10.5222 86.9133 10.7608 86.8845 10.7608C86.6825 10.7608 82.2404 13.9883 80.625 15.3073C79.428 16.2896 75.1012 20.2187 74.1349 21.201C73.8608 21.4817 73.5435 21.7062 73.4282 21.7062C73.3272 21.7062 72.7359 22.1693 72.1301 22.7446C71.5244 23.3199 70.5436 24.1759 69.9811 24.6671C69.4042 25.1442 68.9283 25.5932 68.9283 25.6493C68.9283 25.7195 68.8418 25.7756 68.7264 25.7756C68.611 25.7756 68.3947 25.93 68.236 26.1264C68.0774 26.3229 67.8899 26.4773 67.8322 26.4773C67.6303 26.4913 66.9812 27.0105 66.9812 27.1508C66.9812 27.3894 66.1736 27.9507 63.7794 29.4101C62.5247 30.1678 59.1498 31.5009 56.1643 32.4271C55.2124 32.7218 53.1644 33.3813 51.6212 33.8724C50.0779 34.3776 48.6645 34.7705 48.4914 34.7705C48.3039 34.7705 48.1597 34.8407 48.1597 34.9389C48.1597 35.0371 47.4963 35.4441 46.6886 35.851C45.8665 36.2439 45.0733 36.6649 44.9146 36.7491C44.3089 37.128 42.7224 38.405 42.232 38.9242C41.5397 39.6539 39.535 42.292 39.2177 42.8954C38.3812 44.4811 36.0447 47.9892 34.8621 49.4346C33.3333 51.2869 31.2997 53.2514 30.5064 53.6163C30.218 53.7426 29.9872 53.911 29.9872 53.9671C29.9872 54.0373 29.8718 54.1215 29.742 54.1776C29.5978 54.2197 28.9055 54.6687 28.1844 55.1739C27.4777 55.6791 26.5835 56.2825 26.2085 56.521C25.8479 56.7456 25.5162 57.0262 25.4729 57.1244C25.4297 57.2227 24.9249 57.6296 24.3336 58.0085C23.7566 58.3874 22.7615 59.0469 22.1269 59.4679C19.4299 61.2781 18.651 61.7552 18.4924 61.7271C18.3914 61.7131 18.2616 61.7973 18.1751 61.9376C18.103 62.0779 17.6415 62.4709 17.1655 62.8076C16.6751 63.1585 16.2857 63.4812 16.2857 63.5514C16.2857 63.6075 16.1848 63.6636 16.0694 63.6636C15.9684 63.6636 15.8098 63.7478 15.7521 63.832C15.6944 63.9303 15.4204 64.1688 15.1463 64.3512C14.3819 64.8704 12.6224 66.4842 11.0647 68.112C8.91577 70.3291 7.09852 73.2479 6.53604 75.3809C6.10336 77.0367 6.24759 80.7553 6.7668 81.2605C6.85334 81.3447 6.91103 81.4991 6.91103 81.6254C6.91103 82.1867 7.8485 83.618 9.10327 85.0072C9.55037 85.5124 9.89651 85.9755 9.83882 86.0176C9.79555 86.0737 9.88209 86.1579 10.0263 86.2C10.1705 86.2561 10.7186 86.7051 11.2378 87.1823C12.1032 87.9961 12.7233 88.4452 14.8723 89.7362C16.3146 90.5922 20.6846 92.5988 23.3528 93.6232C27.0594 95.0405 37.3139 98.3241 38.0495 98.3241C38.2225 98.3241 38.6119 98.4504 38.9004 98.5908C39.4917 98.8995 41.6984 99.5871 42.059 99.5871C42.1888 99.5871 42.8522 99.7414 43.5301 99.9379C45.2464 100.429 48.6934 101.257 49.3856 101.355C49.7029 101.397 50.5539 101.524 51.2606 101.622C53.0201 101.888 57.8517 101.804 59.6257 101.481C61.6593 101.117 64.7313 100.289 66.4043 99.6713C66.9668 99.4608 67.6735 99.1942 67.9908 99.0679C68.3081 98.9556 68.8562 98.7311 69.2168 98.5908C69.5773 98.4504 70.2408 98.2259 70.7023 98.1136C71.1494 97.9874 71.5244 97.833 71.5244 97.7628C71.5244 97.6927 71.6686 97.5524 71.8561 97.4682C72.1445 97.3138 72.159 97.3138 71.9715 97.5383C71.7984 97.7348 71.8705 97.7348 72.4618 97.4822C72.8368 97.3278 73.3849 97.1314 73.6733 97.0752C73.9618 97.0051 74.8416 96.7525 75.6348 96.528C78.404 95.7141 81.2741 95.5176 83.2067 96.0228C83.6394 96.135 84.4615 96.3455 85.0239 96.4999C85.5864 96.6402 86.3075 96.8928 86.6104 97.0472C86.9133 97.2156 87.2162 97.3419 87.2739 97.3419C87.3748 97.3419 89.3075 98.2399 89.9132 98.5767C90.0719 98.6609 90.8218 99.0819 91.5718 99.5169C92.3218 99.9519 93.0141 100.345 93.115 100.401C93.216 100.457 94.2544 101.131 95.4227 101.888C96.5909 102.66 97.687 103.32 97.8601 103.348C98.0331 103.376 98.2062 103.516 98.2495 103.657C98.2927 103.811 98.5379 104.021 98.7975 104.134C99.0716 104.26 99.5764 104.541 99.9369 104.779C100.298 105.004 100.874 105.354 101.235 105.551C101.596 105.747 102.245 106.126 102.677 106.393C105.663 108.175 111.086 110.982 113.076 111.781C113.35 111.894 113.768 112.062 113.999 112.16C116.912 113.381 122.523 114.939 125.537 115.36C127.874 115.696 127.787 115.682 130.369 115.654C132.373 115.626 132.994 115.556 134.263 115.247Z" fill="#F1F1F1"/>
</svg>
