<svg width="29" height="19" viewBox="0 0 29 19" fill="none" xmlns="http://www.w3.org/2000/svg">
<path d="M3.01592 9.04883C1.35113 9.04883 0 7.69769 0 6.0329V3.01698C0 1.34616 1.35113 0.0010559 3.01592 0.0010559H9.04777V3.01698H7.53981C6.70699 3.01698 6.03185 3.69212 6.03185 4.52494C6.03185 5.35777 6.70699 6.0329 7.53981 6.0329H9.04777V9.04883H3.01592Z" fill="black"/>
<path d="M12.5809 9.04883C10.9161 9.04883 9.56494 7.69769 9.56494 6.0329V3.01698C9.56494 1.34616 10.9161 0.00105554 12.5809 0.00105554H15.5968C17.2676 0.00105554 18.6127 1.35219 18.6127 3.01698V6.0329C18.6127 7.69769 17.2616 9.04883 15.5968 9.04883H12.5809Z" fill="black"/>
<path d="M19.1294 9.04883V0.00105554H25.1612C26.8321 0.00105554 28.1772 1.35219 28.1772 3.01698C28.1772 4.68177 26.826 6.0329 25.1612 6.0329H28.1772V9.04883H25.1612C23.4965 9.04883 22.1453 7.69769 22.1453 6.0329V9.04883H19.1294Z" fill="black"/>
<path d="M3.01593 19C3.01593 17.3344 1.66565 15.9841 0 15.9841V9.95223H9.04777V15.9841C7.38212 15.9841 6.03185 17.3344 6.03185 19H3.01593Z" fill="black"/>
<path d="M12.5809 19C10.9161 19 9.56494 17.6489 9.56494 15.9841V9.95223H18.6127C18.6127 11.617 17.2616 12.9682 15.5968 12.9682H18.6127C18.6127 14.6329 17.2616 15.9841 15.5968 15.9841H18.6127V19H12.5809Z" fill="black"/>
<path d="M19.1294 19V15.9841C19.1294 15.1517 19.805 14.4761 20.6374 14.4761C19.805 14.4761 19.1294 13.8005 19.1294 12.9682V9.95223H22.1453C22.9777 9.95223 23.6533 10.6278 23.6533 11.4602C23.6533 10.6278 24.3289 9.95223 25.1612 9.95223H28.1772V12.9682C28.1772 13.8005 27.5016 14.4761 26.6692 14.4761C27.5016 14.4761 28.1772 15.1517 28.1772 15.9841V19H25.1612C24.3289 19 23.6533 18.3244 23.6533 17.492C23.6533 18.3244 22.9777 19 22.1453 19H19.1294Z" fill="black"/>
</svg>
